<svg width="36" height="36" viewBox="0 0 36 36" fill="none" xmlns="http://www.w3.org/2000/svg">
<g clip-path="url(#clip0_134_5644)">
<path d="M5.62061 34.311H1.12061V19.686C1.12061 19.0893 1.35766 18.517 1.77962 18.095C2.20157 17.6731 2.77387 17.436 3.37061 17.436C3.96734 17.436 4.53964 17.6731 4.9616 18.095C5.38355 18.517 5.62061 19.0893 5.62061 19.686V34.311Z" stroke="#33AB9F" stroke-width="1.5" stroke-linecap="round" stroke-linejoin="round"/>
<path d="M34.8706 34.311H30.3706V19.686C30.3706 19.0893 30.6077 18.517 31.0296 18.095C31.4516 17.6731 32.0239 17.436 32.6206 17.436C33.2173 17.436 33.7896 17.6731 34.2116 18.095C34.6336 18.517 34.8706 19.0893 34.8706 19.686V34.311Z" stroke="#33AB9F" stroke-width="1.5" stroke-linecap="round" stroke-linejoin="round"/>
<path d="M10.3921 15.186L11.2456 6.18604" stroke="#33AB9F" stroke-width="1.5" stroke-linecap="round" stroke-linejoin="round"/>
<path d="M25.6006 15.186L24.7456 6.18604" stroke="#33AB9F" stroke-width="1.5" stroke-linecap="round" stroke-linejoin="round"/>
<path d="M12.75 1.68604H23.25C23.6478 1.68604 24.0294 1.84407 24.3107 2.12538C24.592 2.40668 24.75 2.78821 24.75 3.18604V6.18604H11.25V3.18604C11.25 2.98905 11.2888 2.794 11.3642 2.61201C11.4396 2.43002 11.5501 2.26466 11.6893 2.12538C11.9706 1.84407 12.3522 1.68604 12.75 1.68604Z" stroke="#33AB9F" stroke-width="1.5" stroke-linecap="round" stroke-linejoin="round"/>
<path d="M5.62061 19.686H30.3706" stroke="#33AB9F" stroke-width="1.5" stroke-linecap="round" stroke-linejoin="round"/>
<path d="M5.62061 30.936H30.3706" stroke="#33AB9F" stroke-width="1.5" stroke-linecap="round" stroke-linejoin="round"/>
<path d="M11.2456 19.686V23.061" stroke="#33AB9F" stroke-width="1.5" stroke-linecap="round" stroke-linejoin="round"/>
<path d="M17.9956 19.686V23.061" stroke="#33AB9F" stroke-width="1.5" stroke-linecap="round" stroke-linejoin="round"/>
<path d="M24.7456 19.686V23.061" stroke="#33AB9F" stroke-width="1.5" stroke-linecap="round" stroke-linejoin="round"/>
<path d="M11.2456 30.936V34.311" stroke="#33AB9F" stroke-width="1.5" stroke-linecap="round" stroke-linejoin="round"/>
<path d="M17.9956 30.936V34.311" stroke="#33AB9F" stroke-width="1.5" stroke-linecap="round" stroke-linejoin="round"/>
<path d="M24.7456 30.936V34.311" stroke="#33AB9F" stroke-width="1.5" stroke-linecap="round" stroke-linejoin="round"/>
<path d="M5.62061 26.436H30.3706" stroke="#33AB9F" stroke-width="1.5" stroke-linecap="round" stroke-linejoin="round"/>
</g>
<defs>
<clipPath id="clip0_134_5644">
<rect width="36" height="36" fill="white"/>
</clipPath>
</defs>
</svg>
