<svg width="36" height="36" viewBox="0 0 36 36" fill="none" xmlns="http://www.w3.org/2000/svg">
<g clip-path="url(#clip0_134_5862)">
<path d="M21.375 25.875V34.875H12.375" stroke="#33AB9F" stroke-width="1.5" stroke-linecap="round" stroke-linejoin="round"/>
<path d="M16.875 30.375V34.875" stroke="#33AB9F" stroke-width="1.5" stroke-linecap="round" stroke-linejoin="round"/>
<path d="M12.375 26.775V34.875H3.375V28.125" stroke="#33AB9F" stroke-width="1.5" stroke-linecap="round" stroke-linejoin="round"/>
<path d="M11.25 28.125L16.875 21.375H6.75L1.125 28.125H11.25Z" stroke="#33AB9F" stroke-width="1.5" stroke-linecap="round" stroke-linejoin="round"/>
<path d="M23.625 28.125L16.875 21.375" stroke="#33AB9F" stroke-width="1.5" stroke-linecap="round" stroke-linejoin="round"/>
<path d="M17.9507 10.125L25.8752 1.125H15.7502L7.82568 10.125H17.9507Z" stroke="#33AB9F" stroke-width="1.5" stroke-linecap="round" stroke-linejoin="round"/>
<path d="M34.875 10.125L25.875 1.125" stroke="#33AB9F" stroke-width="1.5" stroke-linecap="round" stroke-linejoin="round"/>
<path d="M19.125 8.7915V16.875" stroke="#33AB9F" stroke-width="1.5" stroke-linecap="round" stroke-linejoin="round"/>
<path d="M32.625 7.875V28.125H28.125" stroke="#33AB9F" stroke-width="1.5" stroke-linecap="round" stroke-linejoin="round"/>
<path d="M10.125 16.875V10.125" stroke="#33AB9F" stroke-width="1.5" stroke-linecap="round" stroke-linejoin="round"/>
<path d="M23.625 11.25V12.375" stroke="#33AB9F" stroke-width="1.5" stroke-linecap="round" stroke-linejoin="round"/>
<path d="M28.125 11.25V12.375" stroke="#33AB9F" stroke-width="1.5" stroke-linecap="round" stroke-linejoin="round"/>
<path d="M23.625 16.875V18" stroke="#33AB9F" stroke-width="1.5" stroke-linecap="round" stroke-linejoin="round"/>
<path d="M28.125 16.875V18" stroke="#33AB9F" stroke-width="1.5" stroke-linecap="round" stroke-linejoin="round"/>
<path d="M28.125 22.5V23.625" stroke="#33AB9F" stroke-width="1.5" stroke-linecap="round" stroke-linejoin="round"/>
</g>
<defs>
<clipPath id="clip0_134_5862">
<rect width="36" height="36" fill="white"/>
</clipPath>
</defs>
</svg>
