<svg width="36" height="36" viewBox="0 0 36 36" fill="none" xmlns="http://www.w3.org/2000/svg">
<g clip-path="url(#clip0_134_5709)">
<path d="M12.3793 33.9165C9.64392 32.95 7.20388 31.2946 5.29464 29.1103C3.38539 26.926 2.07142 24.2864 1.47952 21.4463C0.887629 18.6062 1.0378 15.6615 1.91553 12.8964C2.79327 10.1312 4.36894 7.63899 6.49048 5.66021C8.61201 3.68144 11.2078 2.28292 14.0273 1.59963C16.8468 0.916341 19.7948 0.971347 22.5869 1.75934C25.3789 2.54734 27.9207 4.04171 29.967 6.09825C32.0132 8.15479 33.4948 10.7041 34.2688 13.5" stroke="#33AB9F" stroke-width="1.5" stroke-linecap="round" stroke-linejoin="round"/>
<path d="M10.6185 23.625C10.9605 23.625 11.2979 23.547 11.6052 23.397C11.9125 23.247 12.1815 23.029 12.3919 22.7595C12.6023 22.4899 12.7485 22.176 12.8194 21.8415C12.8903 21.507 12.884 21.1607 12.801 20.829L11.676 16.329C11.5543 15.8423 11.2734 15.4103 10.8779 15.1015C10.4825 14.7928 9.99522 14.6251 9.49353 14.625H1.46403C0.843594 17.6728 1.07787 20.8328 2.14096 23.7558C3.20406 26.6788 5.05458 29.2509 7.48803 31.188L9.00003 23.625H10.6185Z" stroke="#33AB9F" stroke-width="1.5" stroke-linecap="round" stroke-linejoin="round"/>
<path d="M31.4773 7.875H25.3813C24.8796 7.87506 24.3923 8.04278 23.9969 8.35152C23.6014 8.66026 23.3205 9.09231 23.1988 9.579L22.2178 13.5" stroke="#33AB9F" stroke-width="1.5" stroke-linecap="round" stroke-linejoin="round"/>
<path d="M22.5 28.125H16.875V33.75" stroke="#33AB9F" stroke-width="1.5" stroke-linecap="round" stroke-linejoin="round"/>
<path d="M34.0001 29.2245C33.4043 30.9656 32.2506 32.4614 30.7179 33.4799C29.1851 34.4983 27.3592 34.9824 25.5232 34.8571C23.6872 34.7318 21.9439 34.0041 20.5638 32.7869C19.1837 31.5696 18.2438 29.9309 17.8901 28.125" stroke="#33AB9F" stroke-width="1.5" stroke-linecap="round" stroke-linejoin="round"/>
<path d="M29.25 23.625H34.875V18" stroke="#33AB9F" stroke-width="1.5" stroke-linecap="round" stroke-linejoin="round"/>
<path d="M17.7495 22.5255C18.3453 20.7844 19.4991 19.2886 21.0318 18.2701C22.5645 17.2517 24.3905 16.7676 26.2265 16.8929C28.0624 17.0182 29.8057 17.7459 31.1858 18.9632C32.566 20.1804 33.5058 21.8191 33.8595 23.625" stroke="#33AB9F" stroke-width="1.5" stroke-linecap="round" stroke-linejoin="round"/>
</g>
<defs>
<clipPath id="clip0_134_5709">
<rect width="36" height="36" fill="white"/>
</clipPath>
</defs>
</svg>
