<svg width="36" height="36" viewBox="0 0 36 36" fill="none" xmlns="http://www.w3.org/2000/svg">
<path d="M12.375 23.442V10.875C12.375 10.5766 12.2565 10.2905 12.0455 10.0795C11.8345 9.86853 11.5484 9.75 11.25 9.75H7.875C6.08479 9.75 4.3679 10.4612 3.10203 11.727C1.83616 12.9929 1.125 14.7098 1.125 16.5V25.5C1.125 26.0967 1.36205 26.669 1.78401 27.091C2.20597 27.5129 2.77826 27.75 3.375 27.75H4.5" stroke="#33AB9F" stroke-width="1.5" stroke-linecap="round" stroke-linejoin="round"/>
<path d="M1.125 18.75H5.625C6.22174 18.75 6.79403 18.5129 7.21599 18.091C7.63795 17.669 7.875 17.0967 7.875 16.5V9.75" stroke="#33AB9F" stroke-width="1.5" stroke-linecap="round" stroke-linejoin="round"/>
<path d="M11.25 30C13.114 30 14.625 28.489 14.625 26.625C14.625 24.761 13.114 23.25 11.25 23.25C9.38604 23.25 7.875 24.761 7.875 26.625C7.875 28.489 9.38604 30 11.25 30Z" stroke="#33AB9F" stroke-width="1.5" stroke-linecap="round" stroke-linejoin="round"/>
<path d="M29.25 30C31.114 30 32.625 28.489 32.625 26.625C32.625 24.761 31.114 23.25 29.25 23.25C27.386 23.25 25.875 24.761 25.875 26.625C25.875 28.489 27.386 30 29.25 30Z" stroke="#33AB9F" stroke-width="1.5" stroke-linecap="round" stroke-linejoin="round"/>
<path d="M18 27.75H22.5" stroke="#33AB9F" stroke-width="1.5" stroke-linecap="round" stroke-linejoin="round"/>
<path d="M16.875 9.75H34.875" stroke="#33AB9F" stroke-width="1.5" stroke-linecap="round" stroke-linejoin="round"/>
<path d="M16.875 14.25H34.875" stroke="#33AB9F" stroke-width="1.5" stroke-linecap="round" stroke-linejoin="round"/>
<path d="M12.375 18.75H31.5" stroke="#33AB9F" stroke-width="1.5" stroke-linecap="round" stroke-linejoin="round"/>
<path d="M22.5 5.25V18.75" stroke="#33AB9F" stroke-width="1.5" stroke-linecap="round" stroke-linejoin="round"/>
</svg>
