<svg width="24" height="24" viewBox="0 0 24 24" fill="none" xmlns="http://www.w3.org/2000/svg">
<g clip-path="url(#clip0_3800_16827)">
<path d="M17.8478 11.3051C17.9432 11.1501 17.9955 10.9725 17.9993 10.7906C18.0031 10.6086 17.9583 10.429 17.8696 10.2701C17.7808 10.1113 17.6513 9.97898 17.4944 9.88687C17.3375 9.79475 17.1588 9.74615 16.9768 9.74609H13.4998V0.746094L6.15183 12.6881C6.05642 12.843 6.00408 13.0206 6.00023 13.2025C5.99638 13.3844 6.04116 13.564 6.12994 13.7228C6.21872 13.8816 6.34828 14.0138 6.50525 14.1058C6.66222 14.1978 6.8409 14.2462 7.02283 14.2461H10.4998V23.2461L17.8478 11.3051Z" stroke="#161616" stroke-width="1.5" stroke-linecap="round" stroke-linejoin="round"/>
</g>
<defs>
<clipPath id="clip0_3800_16827">
<rect width="24" height="24" fill="white"/>
</clipPath>
</defs>
</svg>
