<svg width="36" height="36" viewBox="0 0 36 36" fill="none" xmlns="http://www.w3.org/2000/svg">
<g clip-path="url(#clip0_134_5701)">
<path d="M7.575 34.875C9.03978 28.9142 11.9155 23.3927 15.96 18.7755C3.375 12.375 1.125 2.25 1.125 2.25C1.125 2.25 9 2.25 14.625 5.625C16.5585 6.7845 19.9305 12.603 20.5245 14.5155C29.0145 8.007 31.95 13.425 31.95 13.425C27.018 29.2065 12.108 33.0135 8.418 31.914" stroke="#33AB9F" stroke-width="1.5" stroke-linecap="round" stroke-linejoin="round"/>
<path d="M26.0805 11.55L26.1 11.475C26.1 11.475 27.825 5.025 25.875 1.125C23.926 2.59187 22.3783 4.5265 21.375 6.75" stroke="#33AB9F" stroke-width="1.5" stroke-linecap="round" stroke-linejoin="round"/>
<path d="M31.9502 13.425C32.205 13.2907 32.4844 13.2092 32.7715 13.1857C33.0586 13.1622 33.3475 13.197 33.6208 13.2881C33.8941 13.3792 34.1462 13.5247 34.3617 13.7158C34.5773 13.9069 34.752 14.1396 34.8752 14.4" stroke="#33AB9F" stroke-width="1.5" stroke-linecap="round" stroke-linejoin="round"/>
</g>
<defs>
<clipPath id="clip0_134_5701">
<rect width="36" height="36" fill="white"/>
</clipPath>
</defs>
</svg>
