<svg width="36" height="36" viewBox="0 0 36 36" fill="none" xmlns="http://www.w3.org/2000/svg">
<g clip-path="url(#clip0_134_5690)">
<path d="M11.0611 1.626C10.9584 1.47192 10.8192 1.34559 10.6559 1.25821C10.4926 1.17084 10.3103 1.12512 10.1251 1.12512C9.9399 1.12512 9.75758 1.17084 9.5943 1.25821C9.43102 1.34559 9.29183 1.47192 9.18909 1.626L3.37509 11.25H6.75009L2.40009 17.442C2.30244 17.613 2.25136 17.8065 2.25196 18.0034C2.25256 18.2003 2.30481 18.3936 2.40351 18.5639C2.5022 18.7343 2.64387 18.8758 2.81437 18.9742C2.98486 19.0727 3.17821 19.1247 3.37509 19.125H16.8751C17.0721 19.1249 17.2656 19.0731 17.4363 18.9748C17.607 18.8764 17.7489 18.735 17.8478 18.5646C17.9467 18.3942 17.9991 18.2008 17.9997 18.0038C18.0004 17.8068 17.9493 17.6131 17.8516 17.442L13.5001 11.25H16.8751L11.0611 1.626Z" stroke="#33AB9F" stroke-width="1.5" stroke-linecap="round" stroke-linejoin="round"/>
<path d="M10.125 19.125V25.998" stroke="#33AB9F" stroke-width="1.5" stroke-linecap="round" stroke-linejoin="round"/>
<path d="M28.8929 1.53451C28.8087 1.40859 28.6948 1.30537 28.5613 1.23398C28.4277 1.16259 28.2786 1.12524 28.1271 1.12524C27.9757 1.12524 27.8266 1.16259 27.693 1.23398C27.5594 1.30537 27.4455 1.40859 27.3614 1.53451L22.6034 9.00001H25.3649L21.4979 14.373C21.4176 14.513 21.3756 14.6716 21.376 14.8329C21.3764 14.9943 21.4193 15.1527 21.5003 15.2922C21.5813 15.4317 21.6976 15.5475 21.8375 15.6279C21.9774 15.7082 22.136 15.7503 22.2974 15.75H33.9524C34.1137 15.7503 34.2723 15.7082 34.4122 15.6279C34.5521 15.5475 34.6684 15.4317 34.7495 15.2922C34.8305 15.1527 34.8733 14.9943 34.8738 14.8329C34.8742 14.6716 34.8322 14.513 34.7519 14.373L30.8879 9.00001H33.6494L28.8929 1.53451Z" stroke="#33AB9F" stroke-width="1.5" stroke-linecap="round" stroke-linejoin="round"/>
<path d="M28.1265 15.75V21.8025" stroke="#33AB9F" stroke-width="1.5" stroke-linecap="round" stroke-linejoin="round"/>
<path d="M1.20752 27C5.44588 25.5271 10.0531 25.5018 14.3074 26.9279C18.5617 28.3541 22.2227 31.1512 24.717 34.881" stroke="#33AB9F" stroke-width="1.5" stroke-linecap="round" stroke-linejoin="round"/>
<path d="M16.4536 27.777C20.8297 23.6577 26.6152 21.3674 32.6251 21.375C33.3841 21.375 34.1341 21.41 34.8751 21.48" stroke="#33AB9F" stroke-width="1.5" stroke-linecap="round" stroke-linejoin="round"/>
</g>
<defs>
<clipPath id="clip0_134_5690">
<rect width="36" height="36" fill="white"/>
</clipPath>
</defs>
</svg>
