<svg width="36" height="36" viewBox="0 0 36 36" fill="none" xmlns="http://www.w3.org/2000/svg">
<g clip-path="url(#clip0_134_5813)">
<path d="M5.06389 7.479V8.979C5.12161 10.7056 4.67378 12.4114 3.77539 13.887" stroke="#33AB9F" stroke-width="1.5" stroke-linecap="round" stroke-linejoin="round"/>
<path d="M17.4347 7.479V8.979C17.3764 10.7059 17.8248 12.412 18.7247 13.887" stroke="#33AB9F" stroke-width="1.5" stroke-linecap="round" stroke-linejoin="round"/>
<path d="M5.08203 7.80002C6.25322 7.79254 7.40932 7.53509 8.47301 7.04489C9.5367 6.55469 10.4835 5.84304 11.25 4.95752C12.0156 5.84471 12.9621 6.55798 14.0258 7.04951C15.0896 7.54105 16.2462 7.79949 17.418 7.80752" stroke="#33AB9F" stroke-width="1.5" stroke-linecap="round" stroke-linejoin="round"/>
<path d="M11.25 13.5C14.6673 13.5 17.4375 10.7298 17.4375 7.3125C17.4375 3.89524 14.6673 1.125 11.25 1.125C7.83274 1.125 5.0625 3.89524 5.0625 7.3125C5.0625 10.7298 7.83274 13.5 11.25 13.5Z" stroke="#33AB9F" stroke-width="1.5" stroke-linecap="round" stroke-linejoin="round"/>
<path d="M1.125 25.8751C1.12587 23.9123 1.69721 21.9921 2.7695 20.3481C3.84179 18.7041 5.3688 17.4072 7.16472 16.6153C8.96063 15.8233 10.948 15.5705 12.885 15.8874C14.822 16.2044 16.6252 17.0775 18.075 18.4006" stroke="#33AB9F" stroke-width="1.5" stroke-linecap="round" stroke-linejoin="round"/>
<circle cx="25.875" cy="30.375" r="1.125" stroke="#33AB9F" stroke-width="1.5" stroke-linecap="round" stroke-linejoin="round"/>
<path d="M25.875 30.375C25.7637 30.375 25.655 30.408 25.5625 30.4698C25.47 30.5316 25.3979 30.6195 25.3553 30.7222C25.3127 30.825 25.3016 30.9381 25.3233 31.0472C25.345 31.1564 25.3986 31.2566 25.4773 31.3352C25.5559 31.4139 25.6561 31.4675 25.7653 31.4892C25.8744 31.5109 25.9875 31.4998 26.0903 31.4572C26.193 31.4146 26.2809 31.3425 26.3427 31.25C26.4045 31.1575 26.4375 31.0488 26.4375 30.9375C26.4375 30.7883 26.3782 30.6452 26.2727 30.5398C26.1673 30.4343 26.0242 30.375 25.875 30.375Z" stroke="#33AB9F" stroke-width="1.5" stroke-linecap="round" stroke-linejoin="round"/>
<path d="M25.875 27V22.5" stroke="#33AB9F" stroke-width="1.5" stroke-linecap="round" stroke-linejoin="round"/>
<path d="M34.593 31.023C34.7961 31.4287 34.892 31.8797 34.8717 32.333C34.8514 32.7863 34.7156 33.2269 34.477 33.6129C34.2385 33.9988 33.9052 34.3174 33.5088 34.5383C33.1125 34.7592 32.6662 34.8751 32.2125 34.875H19.536C19.0824 34.8747 18.6364 34.7586 18.2403 34.5376C17.8441 34.3165 17.5111 33.998 17.2726 33.6121C17.0341 33.2263 16.8982 32.7859 16.8777 32.3328C16.8572 31.8796 16.9528 31.4288 17.1555 31.023L23.4945 18.345C23.7156 17.9031 24.0553 17.5315 24.4756 17.2719C24.8959 17.0122 25.3802 16.8746 25.8742 16.8746C26.3683 16.8746 26.8526 17.0122 27.2729 17.2719C27.6932 17.5315 28.0329 17.9031 28.254 18.345L34.593 31.023Z" stroke="#33AB9F" stroke-width="1.5" stroke-linecap="round" stroke-linejoin="round"/>
</g>
<defs>
<clipPath id="clip0_134_5813">
<rect width="36" height="36" fill="white"/>
</clipPath>
</defs>
</svg>
