<svg width="36" height="36" viewBox="0 0 36 36" fill="none" xmlns="http://www.w3.org/2000/svg">
<path d="M20.25 23.127V5.625C20.25 4.43153 19.7759 3.28693 18.932 2.44302C18.0881 1.59911 16.9435 1.125 15.75 1.125C14.5565 1.125 13.4119 1.59911 12.568 2.44302C11.7241 3.28693 11.25 4.43153 11.25 5.625V23.127C10.2311 24.0384 9.51287 25.2376 9.19044 26.5661C8.86801 27.8946 8.95655 29.2896 9.44434 30.5667C9.93213 31.8438 10.7962 32.9426 11.9222 33.7178C13.0481 34.4931 14.383 34.9082 15.75 34.9082C17.117 34.9082 18.4519 34.4931 19.5778 33.7178C20.7038 32.9426 21.5679 31.8438 22.0557 30.5667C22.5435 29.2896 22.632 27.8946 22.3096 26.5661C21.9871 25.2376 21.2689 24.0384 20.25 23.127Z" stroke="#33AB9F" stroke-width="1.5" stroke-linecap="round" stroke-linejoin="round"/>
<path d="M15.75 30.375C16.9926 30.375 18 29.3676 18 28.125C18 26.8824 16.9926 25.875 15.75 25.875C14.5074 25.875 13.5 26.8824 13.5 28.125C13.5 29.3676 14.5074 30.375 15.75 30.375Z" stroke="#33AB9F" stroke-width="1.5" stroke-linecap="round" stroke-linejoin="round"/>
<path d="M15.75 5.625V25.875" stroke="#33AB9F" stroke-width="1.5" stroke-linecap="round" stroke-linejoin="round"/>
<path d="M24.75 5.625H27" stroke="#33AB9F" stroke-width="1.5" stroke-linecap="round" stroke-linejoin="round"/>
<path d="M24.75 12.375H27" stroke="#33AB9F" stroke-width="1.5" stroke-linecap="round" stroke-linejoin="round"/>
<path d="M24.75 19.125H27" stroke="#33AB9F" stroke-width="1.5" stroke-linecap="round" stroke-linejoin="round"/>
</svg>
