<svg width="36" height="36" viewBox="0 0 36 36" fill="none" xmlns="http://www.w3.org/2000/svg">
<path d="M34.8223 16.125C32.5389 14.5603 30.5011 12.6646 28.7758 10.5C26.8813 8.25 23.9023 2.625 17.9473 2.625C11.9923 2.625 9.01327 8.25 7.11727 10.5C5.39242 12.6645 3.35511 14.5602 1.07227 16.125H34.8223Z" stroke="#33AB9F" stroke-width="1.5" stroke-linecap="round" stroke-linejoin="round"/>
<path d="M21.3223 3.28503V16.125" stroke="#33AB9F" stroke-width="1.5" stroke-linecap="round" stroke-linejoin="round"/>
<path d="M25.8223 6.71106V16.1251" stroke="#33AB9F" stroke-width="1.5" stroke-linecap="round" stroke-linejoin="round"/>
<path d="M14.5723 3.28503V16.125" stroke="#33AB9F" stroke-width="1.5" stroke-linecap="round" stroke-linejoin="round"/>
<path d="M10.0723 6.71106V16.1251" stroke="#33AB9F" stroke-width="1.5" stroke-linecap="round" stroke-linejoin="round"/>
<path d="M1.07227 22.875V16.125" stroke="#33AB9F" stroke-width="1.5" stroke-linecap="round" stroke-linejoin="round"/>
<path d="M28.3499 21.7845C27.2284 20.0487 25.6901 18.6214 23.8754 17.6328C22.0607 16.6442 20.0273 16.1257 17.9608 16.1246C15.8942 16.1236 13.8603 16.64 12.0446 17.6268C10.2289 18.6136 8.68917 20.0394 7.56592 21.774" stroke="#33AB9F" stroke-width="1.5" stroke-linecap="round" stroke-linejoin="round"/>
<path d="M34.8223 16.125V22.875" stroke="#33AB9F" stroke-width="1.5" stroke-linecap="round" stroke-linejoin="round"/>
<path d="M34.875 31.875C33.9536 31.8533 33.071 31.5001 32.3891 30.8802C31.7071 30.2602 31.2716 29.4151 31.1625 28.5C31.1625 30.3645 29.1975 31.875 26.775 31.875C24.3525 31.875 22.3875 30.3645 22.3875 28.5C22.3875 30.3645 20.4225 31.875 18 31.875C15.5775 31.875 13.6125 30.3645 13.6125 28.5C13.6125 30.3645 11.6475 31.875 9.225 31.875C6.8025 31.875 4.8375 30.3645 4.8375 28.5C4.72837 29.4151 4.29288 30.2602 3.61094 30.8802C2.929 31.5001 2.04636 31.8533 1.125 31.875" stroke="#33AB9F" stroke-width="1.5" stroke-linecap="round" stroke-linejoin="round"/>
</svg>
