<svg width="36" height="36" viewBox="0 0 36 36" fill="none" xmlns="http://www.w3.org/2000/svg">
<path d="M4.5 30.3195V32.5695C4.5 33.1662 4.73705 33.7385 5.15901 34.1604C5.58097 34.5824 6.15326 34.8195 6.75 34.8195C7.34674 34.8195 7.91903 34.5824 8.34099 34.1604C8.76295 33.7385 9 33.1662 9 32.5695V30.3195" stroke="#33AB9F" stroke-width="1.5" stroke-linecap="round" stroke-linejoin="round"/>
<path d="M31.5 30.3195V32.5695C31.5 33.1662 31.2629 33.7385 30.841 34.1604C30.419 34.5824 29.8467 34.8195 29.25 34.8195C28.6533 34.8195 28.081 34.5824 27.659 34.1604C27.2371 33.7385 27 33.1662 27 32.5695V30.3195" stroke="#33AB9F" stroke-width="1.5" stroke-linecap="round" stroke-linejoin="round"/>
<path d="M33.75 28.0695C33.75 28.6662 33.5129 29.2385 33.091 29.6604C32.669 30.0824 32.0967 30.3195 31.5 30.3195H4.5C3.90326 30.3195 3.33097 30.0824 2.90901 29.6604C2.48705 29.2385 2.25 28.6662 2.25 28.0695C2.25 27.4727 2.48705 26.9004 2.90901 26.4785C3.33097 26.0565 3.90326 25.8195 4.5 25.8195H31.5C32.0967 25.8195 32.669 26.0565 33.091 26.4785C33.5129 26.9004 33.75 27.4727 33.75 28.0695Z" stroke="#33AB9F" stroke-width="1.5" stroke-linecap="round" stroke-linejoin="round"/>
<path d="M7.5 16.8195H28.5C29.2956 16.8195 30.0587 17.1355 30.6213 17.6981C31.1839 18.2607 31.5 19.0238 31.5 19.8195V25.8195H4.5V19.8195C4.5 19.0238 4.81607 18.2607 5.37868 17.6981C5.94129 17.1355 6.70435 16.8195 7.5 16.8195Z" stroke="#33AB9F" stroke-width="1.5" stroke-linecap="round" stroke-linejoin="round"/>
<path d="M9 20.757C9.14918 20.757 9.29226 20.8162 9.39775 20.9217C9.50324 21.0272 9.5625 21.1703 9.5625 21.3195" stroke="#33AB9F" stroke-width="1.5" stroke-linecap="round" stroke-linejoin="round"/>
<path d="M8.4375 21.3195C8.4375 21.1703 8.49676 21.0272 8.60225 20.9217C8.70774 20.8162 8.85082 20.757 9 20.757" stroke="#33AB9F" stroke-width="1.5" stroke-linecap="round" stroke-linejoin="round"/>
<path d="M9 21.882C8.85082 21.882 8.70774 21.8227 8.60225 21.7172C8.49676 21.6117 8.4375 21.4686 8.4375 21.3195" stroke="#33AB9F" stroke-width="1.5" stroke-linecap="round" stroke-linejoin="round"/>
<path d="M9.5625 21.3195C9.5625 21.4686 9.50324 21.6117 9.39775 21.7172C9.29226 21.8227 9.14918 21.882 9 21.882" stroke="#33AB9F" stroke-width="1.5" stroke-linecap="round" stroke-linejoin="round"/>
<path d="M27 20.757C27.1492 20.757 27.2923 20.8162 27.3977 20.9217C27.5032 21.0272 27.5625 21.1703 27.5625 21.3195" stroke="#33AB9F" stroke-width="1.5" stroke-linecap="round" stroke-linejoin="round"/>
<path d="M26.4375 21.3195C26.4375 21.1703 26.4968 21.0272 26.6023 20.9217C26.7077 20.8162 26.8508 20.757 27 20.757" stroke="#33AB9F" stroke-width="1.5" stroke-linecap="round" stroke-linejoin="round"/>
<path d="M27 21.882C26.8508 21.882 26.7077 21.8227 26.6023 21.7172C26.4968 21.6117 26.4375 21.4686 26.4375 21.3195" stroke="#33AB9F" stroke-width="1.5" stroke-linecap="round" stroke-linejoin="round"/>
<path d="M27.5625 21.3195C27.5625 21.4686 27.5032 21.6117 27.3977 21.7172C27.2923 21.8227 27.1492 21.882 27 21.882" stroke="#33AB9F" stroke-width="1.5" stroke-linecap="round" stroke-linejoin="round"/>
<path d="M15.75 21.3195H20.25" stroke="#33AB9F" stroke-width="1.5" stroke-linecap="round" stroke-linejoin="round"/>
<path d="M29.25 16.914V5.56946C29.25 4.37598 28.7759 3.23139 27.932 2.38748C27.0881 1.54356 25.9435 1.06946 24.75 1.06946H11.25C10.0565 1.06946 8.91193 1.54356 8.06802 2.38748C7.22411 3.23139 6.75 4.37598 6.75 5.56946V16.914" stroke="#33AB9F" stroke-width="1.5" stroke-linecap="round" stroke-linejoin="round"/>
<path d="M6.75 5.56946H29.25" stroke="#33AB9F" stroke-width="1.5" stroke-linecap="round" stroke-linejoin="round"/>
<path d="M18 5.56946V16.8195" stroke="#33AB9F" stroke-width="1.5" stroke-linecap="round" stroke-linejoin="round"/>
<path d="M6.75 7.81946H4.5C3.90326 7.81946 3.33097 8.05651 2.90901 8.47847C2.48705 8.90043 2.25 9.47272 2.25 10.0695V14.5695" stroke="#33AB9F" stroke-width="1.5" stroke-linecap="round" stroke-linejoin="round"/>
<path d="M29.25 7.81946H31.5C32.0967 7.81946 32.669 8.05651 33.091 8.47847C33.5129 8.90043 33.75 9.47272 33.75 10.0695V14.5695" stroke="#33AB9F" stroke-width="1.5" stroke-linecap="round" stroke-linejoin="round"/>
</svg>
