<svg width="36" height="36" viewBox="0 0 36 36" fill="none" xmlns="http://www.w3.org/2000/svg">
<path d="M29.2501 34.875V25.4775C31.3228 23.5574 32.7683 21.0569 33.3978 18.3025C34.0273 15.5482 33.8117 12.668 32.779 10.0381C31.7463 7.40822 29.9446 5.15085 27.6092 3.56077C25.2737 1.9707 22.513 1.12183 19.6876 1.12501C8.97914 1.12501 6.66764 9.94201 2.85014 19.845C2.78473 20.0155 2.76175 20.1993 2.78317 20.3806C2.80458 20.562 2.86976 20.7354 2.97308 20.8859C3.0764 21.0365 3.21476 21.1597 3.37626 21.2449C3.53776 21.3301 3.71754 21.3747 3.90014 21.375H6.75014V25.875C6.75014 27.0685 7.22424 28.2131 8.06815 29.057C8.91207 29.9009 10.0567 30.375 11.2501 30.375H13.5001V34.875" stroke="#33AB9F" stroke-width="1.5" stroke-linecap="round" stroke-linejoin="round"/>
<path d="M22.5 34.875V22.6935C22.5 20.5536 21.6499 18.5013 20.1368 16.9882C18.6237 15.4751 16.5714 14.625 14.4315 14.625C12.3943 14.6252 10.4406 15.4346 9 16.875" stroke="#33AB9F" stroke-width="1.5" stroke-linecap="round" stroke-linejoin="round"/>
</svg>
