<svg width="36" height="36" viewBox="0 0 36 36" fill="none" xmlns="http://www.w3.org/2000/svg">
<path d="M25.8765 18C25.8765 20.0886 25.0468 22.0916 23.5699 23.5685C22.0931 25.0453 20.09 25.875 18.0015 25.875C15.9129 25.875 13.9098 25.0453 12.433 23.5685C10.9562 22.0916 10.1265 20.0886 10.1265 18C10.1265 11.25 16.8765 3.375 18.0015 3.375C19.1265 3.375 25.8765 11.25 25.8765 18Z" stroke="#33AB9F" stroke-width="1.5" stroke-linecap="round" stroke-linejoin="round"/>
<path d="M32.3205 23.361C32.7387 23.6878 33.0826 24.0998 33.3293 24.5698C33.5761 25.0397 33.72 25.5567 33.7515 26.0865C33.7515 29.6985 26.7015 32.625 18.0015 32.625C9.3015 32.625 2.25 29.7 2.25 26.0865C2.28116 25.5566 2.4249 25.0395 2.67166 24.5695C2.91841 24.0995 3.2625 23.6875 3.681 23.361" stroke="#33AB9F" stroke-width="1.5" stroke-linecap="round" stroke-linejoin="round"/>
<path d="M18 21.375C17.1051 21.3746 16.2471 21.0188 15.6144 20.386C14.9818 19.7531 14.6265 18.8948 14.6265 18" stroke="#33AB9F" stroke-width="1.5" stroke-linecap="round" stroke-linejoin="round"/>
</svg>
