<svg width="24" height="24" viewBox="0 0 24 24" fill="none" xmlns="http://www.w3.org/2000/svg">
<g clip-path="url(#clip0_3797_16618)">
<path d="M9.75 13.5C12.2353 13.5 14.25 11.4853 14.25 9C14.25 6.51472 12.2353 4.5 9.75 4.5C7.26472 4.5 5.25 6.51472 5.25 9C5.25 11.4853 7.26472 13.5 9.75 13.5Z" stroke="#161616" stroke-width="1.5" stroke-linecap="round" stroke-linejoin="round"/>
<path d="M8.25 4.756V0.75H11.25V4.757" stroke="#161616" stroke-width="1.5" stroke-linecap="round" stroke-linejoin="round"/>
<path d="M11.25 0.75H14.25" stroke="#161616" stroke-width="1.5" stroke-linecap="round" stroke-linejoin="round"/>
<path d="M5.25 0.75H8.25" stroke="#161616" stroke-width="1.5" stroke-linecap="round" stroke-linejoin="round"/>
<path d="M22.0308 21.094C22.0308 21.6658 21.8036 22.2142 21.3993 22.6185C20.9949 23.0229 20.4466 23.25 19.8748 23.25C19.3029 23.25 18.7546 23.0229 18.3502 22.6185C17.9459 22.2142 17.7188 21.6658 17.7188 21.094C17.7187 19.903 19.1558 17.5 19.8748 17.5C20.5938 17.5 22.0308 19.9 22.0308 21.094Z" stroke="#161616" stroke-width="1.5" stroke-linecap="round" stroke-linejoin="round"/>
<path d="M13.6475 6.75H17.2475C18.4409 6.75 19.5855 7.22411 20.4294 8.06802C21.2734 8.91193 21.7475 10.0565 21.7475 11.25V14.25H18.0005V12.75C18.0005 12.3522 17.8424 11.9706 17.5611 11.6893C17.2798 11.408 16.8983 11.25 16.5005 11.25H13.6485" stroke="#161616" stroke-width="1.5" stroke-linecap="round" stroke-linejoin="round"/>
<path d="M5.853 6.75H0.75V11.25H5.853" stroke="#161616" stroke-width="1.5" stroke-linecap="round" stroke-linejoin="round"/>
<path d="M0.75 0.75V17.25" stroke="#161616" stroke-width="1.5" stroke-linecap="round" stroke-linejoin="round"/>
</g>
<defs>
<clipPath id="clip0_3797_16618">
<rect width="24" height="24" fill="white"/>
</clipPath>
</defs>
</svg>
