<svg width="36" height="36" viewBox="0 0 36 36" fill="none" xmlns="http://www.w3.org/2000/svg">
<path d="M29.25 10.125H6.75C4.26472 10.125 2.25 12.1397 2.25 14.625V28.125C2.25 30.6103 4.26472 32.625 6.75 32.625H29.25C31.7353 32.625 33.75 30.6103 33.75 28.125V14.625C33.75 12.1397 31.7353 10.125 29.25 10.125Z" stroke="#33AB9F" stroke-width="1.5" stroke-linecap="round" stroke-linejoin="round"/>
<path d="M11.25 10.125V5.625C11.25 5.02826 11.4871 4.45597 11.909 4.03401C12.331 3.61205 12.9033 3.375 13.5 3.375H22.5C23.0967 3.375 23.669 3.61205 24.091 4.03401C24.5129 4.45597 24.75 5.02826 24.75 5.625V10.125" stroke="#33AB9F" stroke-width="1.5" stroke-linecap="round" stroke-linejoin="round"/>
<path d="M18 16.8467V25.8467" stroke="#33AB9F" stroke-width="1.5" stroke-linecap="round" stroke-linejoin="round"/>
<path d="M13.5 21.3467H22.5" stroke="#33AB9F" stroke-width="1.5" stroke-linecap="round" stroke-linejoin="round"/>
</svg>
