<svg width="36" height="36" viewBox="0 0 36 36" fill="none" xmlns="http://www.w3.org/2000/svg">
<path d="M10.125 16.5796L13.8 21.8011C13.9396 22.009 14.1268 22.1807 14.346 22.3018C14.5653 22.4229 14.8102 22.49 15.0606 22.4974C15.3109 22.5049 15.5595 22.4526 15.7855 22.3448C16.0116 22.237 16.2087 22.0768 16.3605 21.8776L28.125 6.98706" stroke="#33AB9F" stroke-width="1.5" stroke-linecap="round" stroke-linejoin="round"/>
<path d="M4.5 1.12354C3.90326 1.12354 3.33097 1.36059 2.90901 1.78254C2.48705 2.2045 2.25 2.7768 2.25 3.37354V16.8735C2.25 24.093 13.101 32.127 16.7895 34.5135C17.1495 34.7484 17.5701 34.8735 18 34.8735C18.4299 34.8735 18.8505 34.7484 19.2105 34.5135C22.899 32.127 33.75 24.093 33.75 16.8735V3.37354C33.75 3.07806 33.6918 2.78548 33.5787 2.5125C33.4657 2.23951 33.2999 1.99148 33.091 1.78254C32.8821 1.57361 32.634 1.40788 32.361 1.29481C32.0881 1.18173 31.7955 1.12354 31.5 1.12354H4.5Z" stroke="#33AB9F" stroke-width="1.5" stroke-linecap="round" stroke-linejoin="round"/>
</svg>
