<svg width="36" height="36" viewBox="0 0 36 36" fill="none" xmlns="http://www.w3.org/2000/svg">
<path d="M6.1875 17.4375C6.29875 17.4375 6.40751 17.4705 6.50001 17.5323C6.59251 17.5941 6.66461 17.682 6.70718 17.7847C6.74976 17.8875 6.7609 18.0006 6.73919 18.1097C6.71749 18.2189 6.66391 18.3191 6.58525 18.3977C6.50658 18.4764 6.40635 18.53 6.29724 18.5517C6.18812 18.5734 6.07502 18.5623 5.97224 18.5197C5.86946 18.4771 5.78161 18.405 5.7198 18.3125C5.65799 18.22 5.625 18.1113 5.625 18C5.625 17.8508 5.68426 17.7077 5.78975 17.6023C5.89524 17.4968 6.03832 17.4375 6.1875 17.4375Z" stroke="#33AB9F" stroke-width="1.5" stroke-linecap="round" stroke-linejoin="round"/>
<path d="M6.1875 23.0625C6.29875 23.0625 6.40751 23.0955 6.50001 23.1573C6.59251 23.2191 6.66461 23.307 6.70718 23.4097C6.74976 23.5125 6.7609 23.6256 6.73919 23.7347C6.71749 23.8439 6.66391 23.9441 6.58525 24.0227C6.50658 24.1014 6.40635 24.155 6.29724 24.1767C6.18812 24.1984 6.07502 24.1873 5.97224 24.1447C5.86946 24.1021 5.78161 24.03 5.7198 23.9375C5.65799 23.845 5.625 23.7363 5.625 23.625C5.625 23.4758 5.68426 23.3327 5.78975 23.2273C5.89524 23.1218 6.03832 23.0625 6.1875 23.0625Z" stroke="#33AB9F" stroke-width="1.5" stroke-linecap="round" stroke-linejoin="round"/>
<path d="M29.25 15.1875L30.375 14.0625" stroke="#33AB9F" stroke-width="1.5" stroke-linecap="round" stroke-linejoin="round"/>
<path d="M29.25 20.8125L30.375 19.6875" stroke="#33AB9F" stroke-width="1.5" stroke-linecap="round" stroke-linejoin="round"/>
<path d="M29.25 26.4375L30.375 25.3125" stroke="#33AB9F" stroke-width="1.5" stroke-linecap="round" stroke-linejoin="round"/>
<path d="M24.0465 9.5625C23.5967 9.56258 23.1573 9.42785 22.7848 9.17572C22.4124 8.92358 22.124 8.56561 21.957 8.148L20.8395 5.352C20.6725 4.93439 20.3841 4.57642 20.0117 4.32428C19.6392 4.07215 19.1998 3.93742 18.75 3.9375H11.649C11.1992 3.93742 10.7598 4.07215 10.3873 4.32428C10.0149 4.57642 9.72651 4.93439 9.5595 5.352L8.4405 8.148C8.27349 8.56561 7.98515 8.92358 7.61269 9.17572C7.24024 9.42785 6.80077 9.56258 6.351 9.5625H3.375C2.77826 9.5625 2.20597 9.79955 1.78401 10.2215C1.36205 10.6435 1.125 11.2158 1.125 11.8125V29.8125C1.125 30.4092 1.36205 30.9815 1.78401 31.4035C2.20597 31.8254 2.77826 32.0625 3.375 32.0625H32.625C33.2217 32.0625 33.794 31.8254 34.216 31.4035C34.6379 30.9815 34.875 30.4092 34.875 29.8125V11.8125C34.875 11.2158 34.6379 10.6435 34.216 10.2215C33.794 9.79955 33.2217 9.5625 32.625 9.5625H24.0465Z" stroke="#33AB9F" stroke-width="1.5" stroke-linecap="round" stroke-linejoin="round"/>
<path d="M24 14.0625H12C11.5858 14.0625 11.25 14.3983 11.25 14.8125V25.6875C11.25 26.1017 11.5858 26.4375 12 26.4375H24C24.4142 26.4375 24.75 26.1017 24.75 25.6875V14.8125C24.75 14.3983 24.4142 14.0625 24 14.0625Z" stroke="#33AB9F" stroke-width="1.5" stroke-linecap="round" stroke-linejoin="round"/>
<path d="M29.25 6V9.5625" stroke="#33AB9F" stroke-width="1.5" stroke-linecap="round" stroke-linejoin="round"/>
</svg>
