<svg width="24" height="24" viewBox="0 0 24 24" fill="none" xmlns="http://www.w3.org/2000/svg">
<path d="M15 13.5L19.915 11.043C20.0293 10.9859 20.1564 10.959 20.284 10.9648C20.4117 10.9706 20.5358 11.0089 20.6445 11.0762C20.7532 11.1434 20.8429 11.2373 20.9051 11.3489C20.9673 11.4605 21 11.5862 21 11.714V21.75C21 22.1478 20.842 22.5294 20.5607 22.8107C20.2794 23.092 19.8978 23.25 19.5 23.25H3C2.60218 23.25 2.22064 23.092 1.93934 22.8107C1.65804 22.5294 1.5 22.1478 1.5 21.75V13.5L3.623 3.593C3.65892 3.42522 3.75128 3.27483 3.88467 3.16692C4.01806 3.059 4.18442 3.00009 4.356 3H6.144C6.31558 3.00009 6.48194 3.059 6.61533 3.16692C6.74872 3.27483 6.84108 3.42522 6.877 3.593L9 13.5L13.915 11.043C14.0293 10.9859 14.1564 10.959 14.284 10.9648C14.4117 10.9706 14.5358 11.0089 14.6445 11.0762C14.7532 11.1434 14.8429 11.2373 14.9051 11.3489C14.9673 11.4605 15 11.5862 15 11.714V13.5Z" stroke="#161616" stroke-width="1.5" stroke-linecap="round" stroke-linejoin="round"/>
<path d="M9 17.25H12" stroke="#161616" stroke-width="1.5" stroke-linecap="round" stroke-linejoin="round"/>
<path d="M9 20.25H12" stroke="#161616" stroke-width="1.5" stroke-linecap="round" stroke-linejoin="round"/>
<path d="M15 17.25H18" stroke="#161616" stroke-width="1.5" stroke-linecap="round" stroke-linejoin="round"/>
<path d="M15 20.25H18" stroke="#161616" stroke-width="1.5" stroke-linecap="round" stroke-linejoin="round"/>
<path d="M9.00488 0.869C10.037 0.85147 11.0601 1.06394 11.9999 1.491C19.4289 4.662 22.4999 0.75 22.4999 0.75" stroke="#161616" stroke-width="1.5" stroke-linecap="round" stroke-linejoin="round"/>
</svg>
