<svg width="24" height="24" viewBox="0 0 24 24" fill="none" xmlns="http://www.w3.org/2000/svg">
<g clip-path="url(#clip0_3800_16860)">
<path d="M0.75 17.5C1.56444 17.6008 2.3911 17.5184 3.16964 17.2589C3.94818 16.9994 4.65893 16.5693 5.25 16C5.67632 16.4722 6.19699 16.8497 6.77835 17.1081C7.35971 17.3664 7.98881 17.4999 8.625 17.4999C9.26119 17.4999 9.89029 17.3664 10.4716 17.1081C11.053 16.8497 11.5737 16.4722 12 16C12.4263 16.4722 12.947 16.8497 13.5284 17.1081C14.1097 17.3664 14.7388 17.4999 15.375 17.4999C16.0112 17.4999 16.6403 17.3664 17.2216 17.1081C17.803 16.8497 18.3237 16.4722 18.75 16C19.3411 16.5693 20.0518 16.9994 20.8304 17.2589C21.6089 17.5184 22.4356 17.6008 23.25 17.5" stroke="#161616" stroke-width="1.5" stroke-linecap="round" stroke-linejoin="round"/>
<path d="M0.75 13C1.56444 13.1008 2.3911 13.0184 3.16964 12.7589C3.94818 12.4994 4.65893 12.0693 5.25 11.5C5.67632 11.9722 6.19699 12.3497 6.77835 12.6081C7.35971 12.8664 7.98881 12.9999 8.625 12.9999C9.26119 12.9999 9.89029 12.8664 10.4716 12.6081C11.053 12.3497 11.5737 11.9722 12 11.5C12.4263 11.9722 12.947 12.3497 13.5284 12.6081C14.1097 12.8664 14.7388 12.9999 15.375 12.9999C16.0112 12.9999 16.6403 12.8664 17.2216 12.6081C17.803 12.3497 18.3237 11.9722 18.75 11.5C19.3411 12.0693 20.0518 12.4994 20.8304 12.7589C21.6089 13.0184 22.4356 13.1008 23.25 13" stroke="#161616" stroke-width="1.5" stroke-linecap="round" stroke-linejoin="round"/>
<path d="M0.75 8.5C1.56444 8.6008 2.3911 8.51844 3.16964 8.25892C3.94818 7.99941 4.65893 7.5693 5.25 7C5.67632 7.47221 6.19699 7.8497 6.77835 8.10807C7.35971 8.36644 7.98881 8.49994 8.625 8.49994C9.26119 8.49994 9.89029 8.36644 10.4716 8.10807C11.053 7.8497 11.5737 7.47221 12 7C12.4263 7.47221 12.947 7.8497 13.5284 8.10807C14.1097 8.36644 14.7388 8.49994 15.375 8.49994C16.0112 8.49994 16.6403 8.36644 17.2216 8.10807C17.803 7.8497 18.3237 7.47221 18.75 7C19.3411 7.5693 20.0518 7.99941 20.8304 8.25892C21.6089 8.51844 22.4356 8.6008 23.25 8.5" stroke="#161616" stroke-width="1.5" stroke-linecap="round" stroke-linejoin="round"/>
</g>
<defs>
<clipPath id="clip0_3800_16860">
<rect width="24" height="24" fill="white"/>
</clipPath>
</defs>
</svg>
