<svg width="491" height="259" viewBox="0 0 491 259" fill="none" xmlns="http://www.w3.org/2000/svg">
<path d="M127.63 196.014L323.528 187.897C334.917 187.425 343.767 177.81 343.295 166.421L339.734 80.5007L338.025 39.2589C337.553 27.8703 327.938 19.0205 316.55 19.4925L267.575 21.5219L120.651 27.6103C109.263 28.0823 100.413 37.6971 100.885 49.0857L106.154 176.248C106.626 187.637 116.241 196.486 127.63 196.014Z" fill="#F4F4FF"/>
<path d="M153.295 176.549H349.361C360.76 176.549 370 167.308 370 155.91V69.9158V28.6386C370 17.2402 360.76 8 349.361 8H300.345H153.295C141.896 8 132.656 17.2402 132.656 28.6386V155.91C132.656 167.308 141.896 176.549 153.295 176.549Z" fill="white"/>
<path d="M300.345 8H153.295C141.896 8 132.656 17.2402 132.656 28.6386V155.91C132.656 167.308 141.896 176.549 153.295 176.549H349.361C360.76 176.549 370 167.308 370 155.91V69.9158" stroke="#D6D6F0" stroke-width="1.71988"/>
<path d="M149 59H319" stroke="#D6D6F0"/>
<path d="M150 78H320" stroke="#D6D6F0"/>
<path d="M150 97H320" stroke="#D6D6F0"/>
<path d="M150 116H320" stroke="#D6D6F0"/>
<path d="M150 135H320" stroke="#D6D6F0"/>
<path d="M150 154H320" stroke="#D6D6F0"/>
<rect x="194.837" y="89.2734" width="25.7983" height="63.6357" fill="#F4F4FF"/>
<rect x="160" y="45" width="26" height="108" fill="#F4F4FF"/>
<rect x="236.115" y="70.3555" width="25.7983" height="82.5544" fill="#F4F4FF"/>
<rect x="273.952" y="85.8359" width="25.7983" height="67.0755" fill="#F4F4FF"/>
<path d="M163 89.2734L206.857 130.551L248.994 98.7328L297.151 118.511" stroke="#D6D6F0" stroke-width="1.71988"/>
<circle cx="355.888" cy="35.2576" r="35.2576" fill="#D6D6F0"/>
<path d="M14.4822 230L18.7222 218.8H21.6982L25.9382 230H23.5222L22.4502 227.088H17.9702L16.8982 230H14.4822ZM18.6742 225.152H21.7462L20.2102 220.944L18.6742 225.152ZM32.7546 226.512V221.936H34.8026V226.416C34.8026 228.832 33.3946 230.32 31.0266 230.32C28.6586 230.32 27.2666 228.832 27.2666 226.416V221.936H29.3146V226.512C29.3146 227.68 29.9226 228.4 31.0426 228.4C32.1466 228.4 32.7546 227.68 32.7546 226.512ZM40.9239 228.4C41.7239 228.4 42.3639 228.032 42.7479 227.472L44.3319 228.688C43.5799 229.68 42.3959 230.32 40.9239 230.32C38.1399 230.32 36.4759 228.32 36.4759 225.968C36.4759 223.616 38.1399 221.616 40.9239 221.616C42.3959 221.616 43.5799 222.256 44.3319 223.248L42.7479 224.464C42.3639 223.904 41.7239 223.536 40.8919 223.536C39.5639 223.536 38.5879 224.56 38.5879 225.968C38.5879 227.392 39.5639 228.4 40.9239 228.4ZM51.1608 226.512V221.936H53.2088V226.416C53.2088 228.832 51.8008 230.32 49.4328 230.32C47.0648 230.32 45.6728 228.832 45.6728 226.416V221.936H47.7208V226.512C47.7208 227.68 48.3288 228.4 49.4488 228.4C50.5528 228.4 51.1608 227.68 51.1608 226.512ZM55.4582 230V221.936H57.4902V222.576C58.0502 222.032 58.8022 221.616 59.8742 221.616C61.6182 221.616 63.0102 222.816 63.0102 225.2V230H60.9622V225.28C60.9622 224.208 60.3542 223.536 59.3622 223.536C58.3382 223.536 57.7942 224.224 57.4902 224.736V230H55.4582ZM69.6301 233.936V221.936H71.6621V222.592C72.2861 221.968 73.0701 221.616 74.1741 221.616C76.7341 221.616 78.2701 223.616 78.2701 225.968C78.2701 228.32 76.7341 230.32 74.1741 230.32C73.0701 230.32 72.2861 229.968 71.6621 229.344V233.936H69.6301ZM73.8861 223.536C72.9421 223.536 72.1741 223.952 71.6621 224.704V227.232C72.2061 228 72.9581 228.4 73.8861 228.4C75.2621 228.4 76.1581 227.376 76.1581 225.968C76.1581 224.56 75.2621 223.536 73.8861 223.536ZM80.1301 230V221.936H82.1621V222.736C82.6901 222.192 83.3781 221.776 84.2901 221.776C84.5621 221.776 84.8021 221.824 84.9941 221.888V223.888C84.7381 223.824 84.4661 223.776 84.0981 223.776C83.1061 223.776 82.4661 224.32 82.1621 224.832V230H80.1301ZM90.9743 220.656H89.0223L90.6863 218H92.8943L90.9743 220.656ZM93.7103 228.688C92.9583 229.696 91.7103 230.32 90.1903 230.32C87.3263 230.32 85.7103 228.32 85.7103 225.968C85.7103 223.584 87.2143 221.616 89.8543 221.616C92.0943 221.616 93.5663 223.136 93.5663 225.248C93.5663 225.696 93.5023 226.112 93.4383 226.384H87.7903C87.9823 227.888 88.9103 228.496 90.1743 228.496C91.0543 228.496 91.8223 228.112 92.2543 227.536L93.7103 228.688ZM89.8063 223.28C88.7663 223.28 88.0783 223.856 87.8543 224.912H91.5663C91.5343 224.096 90.9423 223.28 89.8063 223.28ZM95.5519 230V218H97.5839V230H95.5519ZM102.597 220.656L100.677 218H102.885L104.533 220.656H102.597ZM107.445 228.688C106.693 229.696 105.445 230.32 103.925 230.32C101.061 230.32 99.4447 228.32 99.4447 225.968C99.4447 223.584 100.949 221.616 103.589 221.616C105.829 221.616 107.301 223.136 107.301 225.248C107.301 225.696 107.237 226.112 107.173 226.384H101.525C101.717 227.888 102.645 228.496 103.909 228.496C104.789 228.496 105.557 228.112 105.989 227.536L107.445 228.688ZM103.541 223.28C102.501 223.28 101.813 223.856 101.589 224.912H105.301C105.269 224.096 104.677 223.28 103.541 223.28ZM108.072 221.936H110.248L112.344 227.696L114.424 221.936H116.616L113.672 230H111L108.072 221.936ZM125.226 228.688C124.474 229.696 123.226 230.32 121.706 230.32C118.842 230.32 117.226 228.32 117.226 225.968C117.226 223.584 118.73 221.616 121.37 221.616C123.61 221.616 125.082 223.136 125.082 225.248C125.082 225.696 125.018 226.112 124.954 226.384H119.306C119.498 227.888 120.426 228.496 121.69 228.496C122.57 228.496 123.338 228.112 123.77 227.536L125.226 228.688ZM121.322 223.28C120.282 223.28 119.594 223.856 119.37 224.912H123.082C123.05 224.096 122.458 223.28 121.322 223.28ZM127.068 230V221.936H129.1V222.544C129.644 222.016 130.332 221.616 131.324 221.616C132.348 221.616 133.244 222.064 133.772 222.928C134.348 222.224 135.116 221.616 136.476 221.616C138.14 221.616 139.452 222.768 139.452 225.04V230H137.404V225.12C137.404 224.144 136.876 223.536 135.964 223.536C135.084 223.536 134.604 224.144 134.284 224.688C134.3 224.8 134.3 224.912 134.3 225.04V230H132.252V225.12C132.252 224.144 131.724 223.536 130.812 223.536C129.884 223.536 129.404 224.224 129.1 224.736V230H127.068ZM149.195 228.688C148.443 229.696 147.195 230.32 145.675 230.32C142.811 230.32 141.195 228.32 141.195 225.968C141.195 223.584 142.699 221.616 145.339 221.616C147.579 221.616 149.051 223.136 149.051 225.248C149.051 225.696 148.987 226.112 148.923 226.384H143.275C143.467 227.888 144.395 228.496 145.659 228.496C146.539 228.496 147.307 228.112 147.739 227.536L149.195 228.688ZM145.291 223.28C144.251 223.28 143.563 223.856 143.339 224.912H147.051C147.019 224.096 146.427 223.28 145.291 223.28ZM151.036 230V221.936H153.068V222.576C153.628 222.032 154.38 221.616 155.452 221.616C157.196 221.616 158.588 222.816 158.588 225.2V230H156.54V225.28C156.54 224.208 155.932 223.536 154.94 223.536C153.916 223.536 153.372 224.224 153.068 224.736V230H151.036ZM161.408 227.056V223.76H159.904V221.936H161.408V219.92H163.456V221.936H165.92V223.76H163.456V227.056C163.456 227.952 163.936 228.304 164.736 228.304C165.296 228.304 165.664 228.24 165.936 228.128V229.904C165.536 230.08 165.056 230.16 164.384 230.16C162.368 230.16 161.408 229.024 161.408 227.056ZM179.476 228.688C178.724 229.696 177.476 230.32 175.956 230.32C173.092 230.32 171.476 228.32 171.476 225.968C171.476 223.584 172.98 221.616 175.62 221.616C177.86 221.616 179.332 223.136 179.332 225.248C179.332 225.696 179.268 226.112 179.204 226.384H173.556C173.748 227.888 174.676 228.496 175.94 228.496C176.82 228.496 177.588 228.112 178.02 227.536L179.476 228.688ZM175.572 223.28C174.532 223.28 173.844 223.856 173.62 224.912H177.332C177.3 224.096 176.708 223.28 175.572 223.28ZM181.318 230V221.936H183.35V222.576C183.91 222.032 184.662 221.616 185.734 221.616C187.478 221.616 188.87 222.816 188.87 225.2V230H186.822V225.28C186.822 224.208 186.214 223.536 185.222 223.536C184.198 223.536 183.654 224.224 183.35 224.736V230H181.318ZM202.913 228.688C202.161 229.696 200.913 230.32 199.393 230.32C196.529 230.32 194.913 228.32 194.913 225.968C194.913 223.584 196.417 221.616 199.057 221.616C201.297 221.616 202.769 223.136 202.769 225.248C202.769 225.696 202.705 226.112 202.641 226.384H196.993C197.185 227.888 198.113 228.496 199.377 228.496C200.257 228.496 201.025 228.112 201.457 227.536L202.913 228.688ZM199.009 223.28C197.969 223.28 197.281 223.856 197.057 224.912H200.769C200.737 224.096 200.145 223.28 199.009 223.28ZM206.918 230.24C205.302 230.24 204.198 229.312 204.198 227.824C204.198 226.608 205.142 225.696 206.87 225.408L209.334 224.992V224.784C209.334 223.936 208.694 223.392 207.766 223.392C206.982 223.392 206.374 223.76 205.942 224.352L204.454 223.216C205.174 222.224 206.358 221.616 207.83 221.616C210.166 221.616 211.366 223.008 211.366 224.784V230H209.334V229.216C208.822 229.84 207.862 230.24 206.918 230.24ZM206.214 227.728C206.214 228.272 206.646 228.624 207.334 228.624C208.262 228.624 208.934 228.192 209.334 227.552V226.416L207.414 226.736C206.566 226.88 206.214 227.232 206.214 227.728ZM219.005 226.512V221.936H221.053V226.416C221.053 228.832 219.645 230.32 217.277 230.32C214.909 230.32 213.517 228.832 213.517 226.416V221.936H215.565V226.512C215.565 227.68 216.173 228.4 217.293 228.4C218.397 228.4 219.005 227.68 219.005 226.512ZM228.126 227.056V223.76H226.622V221.936H228.126V219.92H230.174V221.936H232.638V223.76H230.174V227.056C230.174 227.952 230.654 228.304 231.454 228.304C232.014 228.304 232.382 228.24 232.654 228.128V229.904C232.254 230.08 231.774 230.16 231.102 230.16C229.086 230.16 228.126 229.024 228.126 227.056ZM234.458 230V221.936H236.49V222.736C237.018 222.192 237.706 221.776 238.618 221.776C238.89 221.776 239.13 221.824 239.322 221.888V223.888C239.066 223.824 238.794 223.776 238.426 223.776C237.434 223.776 236.794 224.32 236.49 224.832V230H234.458ZM244.454 221.616C247.078 221.616 248.87 223.552 248.87 225.968C248.87 228.384 247.078 230.32 244.454 230.32C241.83 230.32 240.038 228.384 240.038 225.968C240.038 223.552 241.83 221.616 244.454 221.616ZM244.486 228.4C245.782 228.4 246.758 227.36 246.758 225.968C246.758 224.56 245.782 223.536 244.486 223.536C243.142 223.536 242.15 224.56 242.15 225.968C242.15 227.376 243.142 228.4 244.486 228.4ZM256.036 226.512V221.936H258.084V226.416C258.084 228.832 256.676 230.32 254.308 230.32C251.94 230.32 250.548 228.832 250.548 226.416V221.936H252.596V226.512C252.596 227.68 253.204 228.4 254.324 228.4C255.428 228.4 256.036 227.68 256.036 226.512ZM259.306 221.936H261.482L263.578 227.696L265.658 221.936H267.85L264.906 230H262.234L259.306 221.936ZM273.724 220.656H271.772L273.436 218H275.644L273.724 220.656ZM276.46 228.688C275.708 229.696 274.46 230.32 272.94 230.32C270.076 230.32 268.46 228.32 268.46 225.968C268.46 223.584 269.964 221.616 272.604 221.616C274.844 221.616 276.316 223.136 276.316 225.248C276.316 225.696 276.252 226.112 276.188 226.384H270.54C270.732 227.888 271.66 228.496 272.924 228.496C273.804 228.496 274.572 228.112 275.004 227.536L276.46 228.688ZM272.556 223.28C271.516 223.28 270.828 223.856 270.604 224.912H274.316C274.284 224.096 273.692 223.28 272.556 223.28ZM290.038 228.688C289.286 229.696 288.038 230.32 286.518 230.32C283.654 230.32 282.038 228.32 282.038 225.968C282.038 223.584 283.542 221.616 286.182 221.616C288.422 221.616 289.894 223.136 289.894 225.248C289.894 225.696 289.83 226.112 289.766 226.384H284.118C284.31 227.888 285.238 228.496 286.502 228.496C287.382 228.496 288.15 228.112 288.582 227.536L290.038 228.688ZM286.134 223.28C285.094 223.28 284.406 223.856 284.182 224.912H287.894C287.862 224.096 287.27 223.28 286.134 223.28ZM291.88 230V221.936H293.912V222.576C294.472 222.032 295.224 221.616 296.296 221.616C298.04 221.616 299.432 222.816 299.432 225.2V230H297.384V225.28C297.384 224.208 296.776 223.536 295.784 223.536C294.76 223.536 294.216 224.224 293.912 224.736V230H291.88ZM305.764 230V228.048L309.604 224.272C310.468 223.392 311.012 222.784 311.012 221.872C311.012 220.944 310.372 220.4 309.492 220.4C308.42 220.4 307.764 221.056 307.172 222.048L305.412 220.976C306.356 219.44 307.748 218.48 309.7 218.48C311.652 218.48 313.22 219.728 313.22 221.648C313.22 223.184 312.212 224.368 311.108 225.44L308.404 228.048H313.508V230H305.764ZM319.23 218.48C322.174 218.48 323.55 221.04 323.55 224.4C323.55 227.76 322.174 230.32 319.23 230.32C316.286 230.32 314.91 227.76 314.91 224.4C314.91 221.04 316.286 218.48 319.23 218.48ZM319.23 220.48C317.806 220.48 317.118 222.048 317.118 224.4C317.118 226.768 317.806 228.32 319.23 228.32C320.638 228.32 321.326 226.752 321.326 224.4C321.326 222.032 320.638 220.48 319.23 220.48ZM324.92 230V228.048L328.76 224.272C329.624 223.392 330.168 222.784 330.168 221.872C330.168 220.944 329.528 220.4 328.648 220.4C327.576 220.4 326.92 221.056 326.328 222.048L324.568 220.976C325.512 219.44 326.904 218.48 328.856 218.48C330.808 218.48 332.376 219.728 332.376 221.648C332.376 223.184 331.368 224.368 330.264 225.44L327.56 228.048H332.664V230H324.92ZM338.386 218.48C341.33 218.48 342.706 221.04 342.706 224.4C342.706 227.76 341.33 230.32 338.386 230.32C335.442 230.32 334.066 227.76 334.066 224.4C334.066 221.04 335.442 218.48 338.386 218.48ZM338.386 220.48C336.962 220.48 336.274 222.048 336.274 224.4C336.274 226.768 336.962 228.32 338.386 228.32C339.794 228.32 340.482 226.752 340.482 224.4C340.482 222.032 339.794 220.48 338.386 220.48ZM348.708 233.936V221.936H350.74V222.592C351.364 221.968 352.148 221.616 353.252 221.616C355.812 221.616 357.348 223.616 357.348 225.968C357.348 228.32 355.812 230.32 353.252 230.32C352.148 230.32 351.364 229.968 350.74 229.344V233.936H348.708ZM352.964 223.536C352.02 223.536 351.252 223.952 350.74 224.704V227.232C351.284 228 352.036 228.4 352.964 228.4C354.34 228.4 355.236 227.376 355.236 225.968C355.236 224.56 354.34 223.536 352.964 223.536ZM363.126 221.616C365.75 221.616 367.542 223.552 367.542 225.968C367.542 228.384 365.75 230.32 363.126 230.32C360.502 230.32 358.71 228.384 358.71 225.968C358.71 223.552 360.502 221.616 363.126 221.616ZM363.158 228.4C364.454 228.4 365.43 227.36 365.43 225.968C365.43 224.56 364.454 223.536 363.158 223.536C361.814 223.536 360.822 224.56 360.822 225.968C360.822 227.376 361.814 228.4 363.158 228.4ZM374.708 226.512V221.936H376.756V226.416C376.756 228.832 375.348 230.32 372.98 230.32C370.612 230.32 369.22 228.832 369.22 226.416V221.936H371.268V226.512C371.268 227.68 371.876 228.4 372.996 228.4C374.1 228.4 374.708 227.68 374.708 226.512ZM379.005 230V221.936H381.037V222.736C381.565 222.192 382.253 221.776 383.165 221.776C383.437 221.776 383.677 221.824 383.869 221.888V223.888C383.613 223.824 383.341 223.776 382.973 223.776C381.981 223.776 381.341 224.32 381.037 224.832V230H379.005ZM389.818 230V218H391.85V230H389.818ZM401.71 228.688C400.958 229.696 399.71 230.32 398.19 230.32C395.326 230.32 393.71 228.32 393.71 225.968C393.71 223.584 395.214 221.616 397.854 221.616C400.094 221.616 401.566 223.136 401.566 225.248C401.566 225.696 401.502 226.112 401.438 226.384H395.79C395.982 227.888 396.91 228.496 398.174 228.496C399.054 228.496 399.822 228.112 400.254 227.536L401.71 228.688ZM397.806 223.28C396.766 223.28 396.078 223.856 395.854 224.912H399.566C399.534 224.096 398.942 223.28 397.806 223.28ZM408.376 227.056V223.76H406.872V221.936H408.376V219.92H410.424V221.936H412.888V223.76H410.424V227.056C410.424 227.952 410.904 228.304 411.704 228.304C412.264 228.304 412.632 228.24 412.904 228.128V229.904C412.504 230.08 412.024 230.16 411.352 230.16C409.336 230.16 408.376 229.024 408.376 227.056ZM421.976 228.688C421.224 229.696 419.976 230.32 418.456 230.32C415.592 230.32 413.976 228.32 413.976 225.968C413.976 223.584 415.48 221.616 418.12 221.616C420.36 221.616 421.832 223.136 421.832 225.248C421.832 225.696 421.768 226.112 421.704 226.384H416.056C416.248 227.888 417.176 228.496 418.44 228.496C419.32 228.496 420.088 228.112 420.52 227.536L421.976 228.688ZM418.072 223.28C417.032 223.28 416.344 223.856 416.12 224.912H419.832C419.8 224.096 419.208 223.28 418.072 223.28ZM423.818 230V221.936H425.85V222.736C426.378 222.192 427.066 221.776 427.978 221.776C428.25 221.776 428.49 221.824 428.682 221.888V223.888C428.426 223.824 428.154 223.776 427.786 223.776C426.794 223.776 426.154 224.32 425.85 224.832V230H423.818ZM430.318 230V221.936H432.35V222.736C432.878 222.192 433.566 221.776 434.478 221.776C434.75 221.776 434.99 221.824 435.182 221.888V223.888C434.926 223.824 434.654 223.776 434.286 223.776C433.294 223.776 432.654 224.32 432.35 224.832V230H430.318ZM437.842 220.528C437.122 220.528 436.514 219.92 436.514 219.2C436.514 218.48 437.122 217.872 437.842 217.872C438.562 217.872 439.154 218.48 439.154 219.2C439.154 219.92 438.562 220.528 437.842 220.528ZM436.818 230V221.936H438.85V230H436.818ZM441.798 227.056V223.76H440.294V221.936H441.798V219.92H443.846V221.936H446.31V223.76H443.846V227.056C443.846 227.952 444.326 228.304 445.126 228.304C445.686 228.304 446.054 228.24 446.326 228.128V229.904C445.926 230.08 445.446 230.16 444.774 230.16C442.758 230.16 441.798 229.024 441.798 227.056ZM451.814 221.616C454.438 221.616 456.23 223.552 456.23 225.968C456.23 228.384 454.438 230.32 451.814 230.32C449.19 230.32 447.398 228.384 447.398 225.968C447.398 223.552 449.19 221.616 451.814 221.616ZM451.846 228.4C453.142 228.4 454.118 227.36 454.118 225.968C454.118 224.56 453.142 223.536 451.846 223.536C450.502 223.536 449.51 224.56 449.51 225.968C449.51 227.376 450.502 228.4 451.846 228.4ZM459.107 220.528C458.387 220.528 457.779 219.92 457.779 219.2C457.779 218.48 458.387 217.872 459.107 217.872C459.827 217.872 460.419 218.48 460.419 219.2C460.419 219.92 459.827 220.528 459.107 220.528ZM458.083 230V221.936H460.115V230H458.083ZM462.552 230V221.936H464.584V222.736C465.112 222.192 465.8 221.776 466.712 221.776C466.984 221.776 467.224 221.824 467.416 221.888V223.888C467.16 223.824 466.888 223.776 466.52 223.776C465.528 223.776 464.888 224.32 464.584 224.832V230H462.552ZM476.132 228.688C475.38 229.696 474.132 230.32 472.612 230.32C469.748 230.32 468.132 228.32 468.132 225.968C468.132 223.584 469.636 221.616 472.276 221.616C474.516 221.616 475.988 223.136 475.988 225.248C475.988 225.696 475.924 226.112 475.86 226.384H470.212C470.404 227.888 471.332 228.496 472.596 228.496C473.476 228.496 474.244 228.112 474.676 227.536L476.132 228.688ZM472.228 223.28C471.188 223.28 470.5 223.856 470.276 224.912H473.988C473.956 224.096 473.364 223.28 472.228 223.28ZM201.262 252.832L202.606 251.616C203.102 252.24 203.694 252.688 204.462 252.688C205.118 252.688 205.454 252.304 205.454 251.824C205.454 250.416 201.598 250.944 201.598 248.112C201.598 246.688 202.798 245.616 204.478 245.616C205.71 245.616 206.83 246.208 207.406 246.992L206.062 248.176C205.646 247.664 205.118 247.248 204.494 247.248C203.854 247.248 203.55 247.6 203.55 248.016C203.55 249.392 207.406 248.912 207.406 251.696C207.374 253.392 206.014 254.32 204.494 254.32C203.054 254.32 202.03 253.744 201.262 252.832ZM213.935 244.656H211.983L213.647 242H215.855L213.935 244.656ZM216.671 252.688C215.919 253.696 214.671 254.32 213.151 254.32C210.287 254.32 208.671 252.32 208.671 249.968C208.671 247.584 210.175 245.616 212.815 245.616C215.055 245.616 216.527 247.136 216.527 249.248C216.527 249.696 216.463 250.112 216.399 250.384H210.751C210.943 251.888 211.871 252.496 213.135 252.496C214.015 252.496 214.783 252.112 215.215 251.536L216.671 252.688ZM212.767 247.28C211.727 247.28 211.039 247.856 210.815 248.912H214.527C214.495 248.096 213.903 247.28 212.767 247.28ZM218.513 254V242H220.545V254H218.513ZM230.406 252.688C229.654 253.696 228.406 254.32 226.886 254.32C224.022 254.32 222.406 252.32 222.406 249.968C222.406 247.584 223.91 245.616 226.55 245.616C228.79 245.616 230.262 247.136 230.262 249.248C230.262 249.696 230.198 250.112 230.134 250.384H224.486C224.678 251.888 225.606 252.496 226.87 252.496C227.75 252.496 228.518 252.112 228.95 251.536L230.406 252.688ZM226.502 247.28C225.462 247.28 224.774 247.856 224.55 248.912H228.262C228.23 248.096 227.638 247.28 226.502 247.28ZM236.057 252.4C236.857 252.4 237.497 252.032 237.881 251.472L239.465 252.688C238.713 253.68 237.529 254.32 236.057 254.32C233.273 254.32 231.609 252.32 231.609 249.968C231.609 247.616 233.273 245.616 236.057 245.616C237.529 245.616 238.713 246.256 239.465 247.248L237.881 248.464C237.497 247.904 236.857 247.536 236.025 247.536C234.697 247.536 233.721 248.56 233.721 249.968C233.721 251.392 234.697 252.4 236.057 252.4ZM241.572 251.056V247.76H240.068V245.936H241.572V243.92H243.62V245.936H246.084V247.76H243.62V251.056C243.62 251.952 244.1 252.304 244.9 252.304C245.46 252.304 245.828 252.24 246.1 252.128V253.904C245.7 254.08 245.22 254.16 244.548 254.16C242.532 254.16 241.572 253.024 241.572 251.056ZM248.928 244.528C248.208 244.528 247.6 243.92 247.6 243.2C247.6 242.48 248.208 241.872 248.928 241.872C249.648 241.872 250.24 242.48 250.24 243.2C250.24 243.92 249.648 244.528 248.928 244.528ZM247.904 254V245.936H249.936V254H247.904ZM256.212 245.616C258.836 245.616 260.628 247.552 260.628 249.968C260.628 252.384 258.836 254.32 256.212 254.32C253.588 254.32 251.796 252.384 251.796 249.968C251.796 247.552 253.588 245.616 256.212 245.616ZM256.244 252.4C257.54 252.4 258.516 251.36 258.516 249.968C258.516 248.56 257.54 247.536 256.244 247.536C254.9 247.536 253.908 248.56 253.908 249.968C253.908 251.376 254.9 252.4 256.244 252.4ZM262.482 254V245.936H264.514V246.576C265.074 246.032 265.826 245.616 266.898 245.616C268.642 245.616 270.034 246.816 270.034 249.2V254H267.986V249.28C267.986 248.208 267.378 247.536 266.386 247.536C265.362 247.536 264.818 248.224 264.514 248.736V254H262.482ZM272.341 254V245.936H274.373V246.576C274.933 246.032 275.685 245.616 276.757 245.616C278.501 245.616 279.893 246.816 279.893 249.2V254H277.845V249.28C277.845 248.208 277.237 247.536 276.245 247.536C275.221 247.536 274.677 248.224 274.373 248.736V254H272.341ZM286.888 244.656H284.936L286.6 242H288.808L286.888 244.656ZM289.624 252.688C288.872 253.696 287.624 254.32 286.104 254.32C283.24 254.32 281.624 252.32 281.624 249.968C281.624 247.584 283.128 245.616 285.768 245.616C288.008 245.616 289.48 247.136 289.48 249.248C289.48 249.696 289.416 250.112 289.352 250.384H283.704C283.896 251.888 284.824 252.496 286.088 252.496C286.968 252.496 287.736 252.112 288.168 251.536L289.624 252.688ZM285.72 247.28C284.68 247.28 283.992 247.856 283.768 248.912H287.48C287.448 248.096 286.856 247.28 285.72 247.28Z" fill="#3A3A3A"/>
<path d="M356 17C365.2 17 369.5 25 369.5 35.5C369.5 46 365.2 54 356 54C346.8 54 342.5 46 342.5 35.5C342.5 25 346.8 17 356 17ZM356 23.25C351.55 23.25 349.4 28.15 349.4 35.5C349.4 42.9 351.55 47.75 356 47.75C360.4 47.75 362.55 42.85 362.55 35.5C362.55 28.1 360.4 23.25 356 23.25Z" fill="white"/>
</svg>
