<svg width="360" height="142" viewBox="0 0 360 142" fill="none" xmlns="http://www.w3.org/2000/svg">
<rect width="360" height="142" fill="#FBFBFF"/>
<g clip-path="url(#clip0_3833_9950)">
<path d="M87.1366 72.1456C88.2464 72.1456 89.1462 71.2459 89.1462 70.136C89.1462 69.0261 88.2464 68.1264 87.1366 68.1264C86.0267 68.1264 85.127 69.0261 85.127 70.136C85.127 71.2459 86.0267 72.1456 87.1366 72.1456Z" stroke="#6464BD" stroke-linecap="round" stroke-linejoin="round"/>
<path d="M92.3858 90.7032C88.238 91.7152 83.8779 91.4087 79.9124 89.8264C75.947 88.2441 72.5736 85.4648 70.2618 81.8753C67.95 78.2859 66.815 74.0649 67.0147 69.8001C67.2143 65.5353 68.7388 61.4389 71.3758 58.0812C74.0128 54.7234 77.6312 52.2714 81.7271 51.0665C85.823 49.8617 90.1927 49.9639 94.2278 51.359C98.2629 52.754 101.763 55.3725 104.24 58.8499C106.717 62.3273 108.048 66.4905 108.048 70.76C108.048 71.3067 108.027 71.8477 107.985 72.3832" stroke="#6464BD" stroke-linecap="round" stroke-linejoin="round"/>
<path d="M67.0741 55.6552C67.2767 55.8578 67.4022 56.1247 67.4291 56.4099C67.456 56.6951 67.3825 56.9808 67.2213 57.2176C65.3594 59.9612 64.075 63.0549 63.4461 66.3104C63.3918 66.5907 63.2418 66.8435 63.0217 67.0254C62.8017 67.2074 62.5252 67.3073 62.2397 67.308H57.2325C57.0541 67.3081 56.8778 67.2694 56.7158 67.1946C56.5538 67.1199 56.41 67.0108 56.2943 66.875C56.1786 66.7392 56.0937 66.5799 56.0456 66.4081C55.9975 66.2363 55.9873 66.0561 56.0157 65.88C56.8053 60.9626 58.744 56.3008 61.6741 52.2736C61.779 52.1297 61.9138 52.0102 62.0692 51.9233C62.2247 51.8364 62.3971 51.7842 62.5746 51.7702C62.7522 51.7562 62.9306 51.7808 63.0978 51.8423C63.2649 51.9038 63.4167 52.0007 63.5429 52.1264L67.0741 55.6552Z" stroke="#6464BD" stroke-linecap="round" stroke-linejoin="round"/>
<path d="M82.5222 39.372C82.6983 39.3437 82.8785 39.3539 83.0503 39.4019C83.2222 39.4499 83.3815 39.5347 83.5174 39.6503C83.6533 39.7659 83.7625 39.9096 83.8375 40.0715C83.9125 40.2334 83.9515 40.4096 83.9518 40.588V45.5936C83.952 45.8796 83.8525 46.1567 83.6704 46.3772C83.4883 46.5977 83.235 46.7478 82.9542 46.8016C79.6988 47.431 76.6052 48.7154 73.8614 50.5768C73.6245 50.7378 73.3389 50.8113 73.0537 50.7844C72.7685 50.7575 72.5016 50.6321 72.299 50.4296L68.7678 46.8984C68.6419 46.7723 68.5448 46.6205 68.4832 46.4533C68.4216 46.2861 68.397 46.1075 68.4111 45.9299C68.4251 45.7523 68.4775 45.5798 68.5647 45.4244C68.6518 45.269 68.7716 45.1343 68.9158 45.0296C72.9432 42.0999 77.6049 40.1615 82.5222 39.372Z" stroke="#6464BD" stroke-linecap="round" stroke-linejoin="round"/>
<path d="M106.391 45.0296C106.535 45.1344 106.655 45.2693 106.742 45.4249C106.829 45.5804 106.881 45.7531 106.895 45.9309C106.909 46.1086 106.885 46.2874 106.823 46.4547C106.761 46.622 106.664 46.7739 106.538 46.9L102.999 50.4312C102.796 50.6335 102.529 50.7588 102.244 50.7855C101.959 50.8122 101.674 50.7387 101.437 50.5776C98.6929 48.7158 95.599 47.4311 92.3433 46.8016C92.0627 46.7472 91.8098 46.597 91.6278 46.3766C91.4458 46.1562 91.3461 45.8794 91.3457 45.5936V40.5888C91.3456 40.4102 91.3843 40.2336 91.4592 40.0714C91.5341 39.9092 91.6434 39.7653 91.7794 39.6495C91.9155 39.5338 92.0751 39.449 92.2472 39.4011C92.4193 39.3531 92.5998 39.3432 92.7761 39.372C97.6945 40.1662 102.358 42.1041 106.391 45.0296Z" stroke="#6464BD" stroke-linecap="round" stroke-linejoin="round"/>
<path d="M82.9515 95.1976C83.2328 95.2514 83.4865 95.4015 83.669 95.6221C83.8515 95.8427 83.9514 96.1201 83.9515 96.4064V101.411C83.9516 101.59 83.9129 101.766 83.8381 101.928C83.7634 102.09 83.6544 102.234 83.5186 102.35C83.3828 102.465 83.2235 102.55 83.0517 102.599C82.8799 102.647 82.6997 102.657 82.5235 102.629C75.8826 101.554 69.7484 98.417 64.9906 93.6612C60.2327 88.9053 57.0926 82.7724 56.0155 76.132C55.9873 75.9558 55.9976 75.7756 56.0457 75.6038C56.0938 75.432 56.1785 75.2727 56.2941 75.1368C56.4097 75.0008 56.5533 74.8915 56.7151 74.8164C56.8769 74.7413 57.0531 74.7021 57.2315 74.7016H62.2395C62.5259 74.7016 62.8033 74.8014 63.024 74.984C63.2446 75.1665 63.3947 75.4203 63.4483 75.7016C64.3845 80.5256 66.7417 84.9594 70.2171 88.4335C73.6925 91.9076 78.1272 94.2632 82.9515 95.1976Z" stroke="#6464BD" stroke-linecap="round" stroke-linejoin="round"/>
<path d="M119.28 65.88C119.308 66.0562 119.298 66.2365 119.25 66.4083C119.202 66.5802 119.117 66.7396 119.001 66.8755C118.886 67.0115 118.742 67.1208 118.58 67.1958C118.418 67.2709 118.242 67.31 118.063 67.3104H113.061C112.775 67.3105 112.498 67.211 112.277 67.029C112.057 66.8469 111.906 66.5937 111.852 66.3128C111.224 63.057 109.941 59.9629 108.08 57.2184C107.919 56.9813 107.846 56.6954 107.873 56.41C107.9 56.1246 108.026 55.8576 108.229 55.6552L111.767 52.12C111.893 51.9942 112.045 51.8972 112.212 51.8357C112.379 51.7743 112.558 51.7498 112.735 51.7641C112.913 51.7783 113.085 51.8308 113.241 51.9181C113.396 52.0054 113.531 52.1253 113.635 52.2696C116.558 56.3012 118.491 60.9634 119.28 65.88Z" stroke="#6464BD" stroke-linecap="round" stroke-linejoin="round"/>
<path d="M89.8719 73.6896C89.4989 74.1067 89.0474 74.4463 88.5432 74.689C88.039 74.9316 87.492 75.0726 86.9333 75.1038C86.3746 75.1351 85.8153 75.056 85.2872 74.871C84.7591 74.6861 84.2726 74.399 83.8555 74.026C83.4383 73.653 83.0987 73.2016 82.8561 72.6974C82.6134 72.1932 82.4725 71.6461 82.4412 71.0875C82.41 70.5288 82.4891 69.9694 82.674 69.4413C82.859 68.9132 83.1461 68.4267 83.5191 68.0096C84.8607 66.5088 94.4351 60.4768 97.1743 58.7648C97.2203 58.7366 97.2741 58.7239 97.3279 58.7287C97.3817 58.7334 97.4325 58.7554 97.4728 58.7913C97.5131 58.8272 97.5407 58.8752 97.5517 58.928C97.5626 58.9809 97.5562 59.0359 97.5335 59.0848C96.1383 62.0008 91.2135 72.1888 89.8719 73.6896Z" stroke="#6464BD" stroke-linecap="round" stroke-linejoin="round"/>
<path d="M87.6494 53.2384V55.7504" stroke="#6464BD" stroke-linecap="round" stroke-linejoin="round"/>
<path d="M75.5498 57.8248L77.3258 59.6008" stroke="#6464BD" stroke-linecap="round" stroke-linejoin="round"/>
<path d="M70.2393 69.6232H72.7505" stroke="#6464BD" stroke-linecap="round" stroke-linejoin="round"/>
<path d="M74.8252 81.7216L76.6012 79.9456" stroke="#6464BD" stroke-linecap="round" stroke-linejoin="round"/>
<path d="M86.624 87.0336V84.5216" stroke="#6464BD" stroke-linecap="round" stroke-linejoin="round"/>
<path d="M104.034 70.6488H101.522" stroke="#6464BD" stroke-linecap="round" stroke-linejoin="round"/>
<path d="M91.912 102.374C91.5572 102.374 91.2084 102.282 90.8996 102.107C90.5909 101.932 90.3327 101.68 90.1501 101.376C89.9676 101.071 89.867 100.725 89.8581 100.37C89.8492 100.015 89.9322 99.6643 90.0992 99.3512L103.119 74.9464C103.295 74.6178 103.556 74.3431 103.875 74.1515C104.195 73.9599 104.56 73.8587 104.932 73.8587C105.305 73.8587 105.67 73.9599 105.99 74.1515C106.309 74.3431 106.57 74.6178 106.746 74.9464L119.759 99.3512C119.926 99.6644 120.009 100.015 120 100.37C119.991 100.725 119.891 101.072 119.708 101.376C119.526 101.68 119.267 101.932 118.958 102.107C118.649 102.282 118.301 102.374 117.946 102.374H91.912Z" stroke="#6464BD" stroke-linecap="round" stroke-linejoin="round"/>
<path d="M105.416 92.68C105.388 92.7881 105.325 92.884 105.237 92.9525C105.149 93.021 105.04 93.0582 104.929 93.0582C104.817 93.0582 104.709 93.021 104.621 92.9525C104.532 92.884 104.47 92.7881 104.442 92.68C102.476 84.9312 102.558 85.28 102.551 85.2024C102.519 84.8711 102.557 84.5368 102.662 84.221C102.767 83.9052 102.937 83.6149 103.161 83.3686C103.385 83.1223 103.658 82.9255 103.962 82.7909C104.267 82.6563 104.596 82.5867 104.929 82.5867C105.262 82.5867 105.591 82.6563 105.895 82.7909C106.2 82.9255 106.472 83.1223 106.696 83.3686C106.92 83.6149 107.09 83.9052 107.195 84.221C107.3 84.5368 107.338 84.8711 107.307 85.2024C107.299 85.28 107.382 84.9288 105.416 92.68Z" stroke="#6464BD" stroke-linecap="round" stroke-linejoin="round"/>
<path d="M104.928 95.692C105.243 95.6918 105.55 95.785 105.812 95.9596C106.073 96.1342 106.277 96.3824 106.398 96.6729C106.518 96.9634 106.55 97.2831 106.488 97.5915C106.427 97.8999 106.276 98.1833 106.053 98.4056C105.831 98.628 105.548 98.7794 105.239 98.8407C104.931 98.902 104.611 98.8705 104.321 98.75C104.03 98.6296 103.782 98.4258 103.607 98.1642C103.433 97.9027 103.34 97.5953 103.34 97.2808C103.34 96.8596 103.508 96.4557 103.806 96.1578C104.103 95.86 104.507 95.6924 104.928 95.692ZM104.928 94.892C104.456 94.8918 103.994 95.0319 103.601 95.2944C103.208 95.5569 102.901 95.9301 102.72 96.3668C102.539 96.8034 102.492 97.284 102.584 97.7476C102.676 98.2112 102.904 98.6371 103.238 98.9713C103.572 99.3055 103.998 99.5331 104.462 99.6253C104.925 99.7175 105.406 99.6701 105.843 99.4891C106.279 99.3082 106.652 99.0018 106.915 98.6087C107.177 98.2156 107.317 97.7535 107.317 97.2808C107.317 96.9671 107.255 96.6565 107.135 96.3666C107.015 96.0768 106.839 95.8135 106.618 95.5917C106.396 95.3698 106.132 95.1939 105.843 95.0738C105.553 94.9538 105.242 94.892 104.928 94.892Z" fill="#6464BD"/>
</g>
<defs>
<clipPath id="clip0_3833_9950">
<rect width="80" height="80" fill="white" transform="translate(48 31)"/>
</clipPath>
</defs>
</svg>
