<svg width="1232" height="117" viewBox="0 0 1232 117" fill="none" xmlns="http://www.w3.org/2000/svg">
<rect width="1232" height="116.5" fill="white"/>
<rect width="33" height="12" transform="translate(16 25)" fill="white"/>
<path d="M26.6562 35.5498C26.6602 35.5498 26.6642 35.5439 26.6642 35.5439C26.696 35.5203 26.7279 35.4909 26.7558 35.4556C26.7518 35.4556 26.7478 35.4556 26.7438 35.4498C26.7159 35.4792 26.6841 35.5145 26.6562 35.5498Z" fill="#00008F"/>
<path d="M31.0694 34.0629L30.9997 34.1229C31.0396 34.1129 31.0694 34.1029 31.0694 34.0629Z" fill="#00008F"/>
<path fill-rule="evenodd" clip-rule="evenodd" d="M29.6426 35.5817C29.7704 35.4532 29.8983 35.3168 30.0261 35.1765H30.0222C30.2624 34.9038 30.4948 34.6428 30.7737 34.4051C30.8589 34.3272 30.9402 34.261 31.0177 34.2064C31.0291 34.195 31.0349 34.1779 31.0406 34.1612C31.0465 34.1438 31.0523 34.1268 31.0642 34.1168C31.009 34.1379 30.965 34.1712 30.9207 34.2047C30.8749 34.2394 30.8289 34.2742 30.7698 34.296C30.7466 34.296 30.7233 34.2727 30.7466 34.2493C30.8279 34.1908 30.9092 34.1285 30.9867 34.0662H30.9712C30.948 34.0662 30.948 34.0428 30.948 34.0194C30.6596 33.9736 30.4381 34.1708 30.2399 34.3473L30.2275 34.3584C30.1966 34.3739 30.1675 34.3585 30.1446 34.3464C30.133 34.3403 30.123 34.335 30.1152 34.335C29.9398 34.3938 29.7885 34.5022 29.6362 34.6114C29.4959 34.7119 29.3548 34.813 29.1933 34.8765V34.8298C29.1384 34.8487 29.0842 34.8734 29.0298 34.8981C28.9498 34.9345 28.8696 34.971 28.7865 34.9895C28.6349 35.0247 28.4943 35.0202 28.358 35.0158C28.3133 35.0143 28.2689 35.0129 28.2249 35.0129C27.9768 35.0375 27.7319 35.0906 27.4872 35.1437L27.4076 35.161C27.4037 35.1629 27.3998 35.1639 27.3959 35.1649C27.3921 35.1658 27.3882 35.1668 27.3843 35.1688C27.2371 35.2077 27.1016 35.2623 26.966 35.3402L26.9505 35.348C26.9452 35.3551 26.9398 35.3614 26.9349 35.3673C26.929 35.3743 26.9237 35.3806 26.9195 35.3869C26.873 35.4415 26.8304 35.4882 26.7646 35.5233C26.6673 35.5722 26.5832 35.6476 26.5005 35.7219C26.4647 35.754 26.429 35.7861 26.3927 35.8155C26.385 35.8233 26.3695 35.8272 26.3578 35.8272C26.2378 35.9441 26.1177 36.061 25.9937 36.1739C25.986 36.1817 25.9511 36.1856 25.924 36.1817C25.924 36.1817 25.9279 36.1817 25.9279 36.1778L25.9395 36.1545L25.9976 36.061C26.0092 36.0434 26.0199 36.0259 26.0305 36.0084C26.0412 35.9908 26.0518 35.9733 26.0635 35.9558C26.0944 35.909 26.1255 35.8622 26.1603 35.8194C26.168 35.8077 26.168 35.796 26.1603 35.7882C26.1525 35.7804 26.1409 35.7765 26.1293 35.7765C26.2416 35.6675 26.3733 35.5739 26.5089 35.4921V35.4882C26.4934 35.4921 26.4702 35.4804 26.4818 35.4649C26.4932 35.4506 26.5024 35.4342 26.5112 35.4188L26.5205 35.4025C26.5225 35.3986 26.5234 35.3957 26.5244 35.3928C26.5254 35.3899 26.5263 35.3869 26.5283 35.383C26.5263 35.3791 26.5234 35.3762 26.5205 35.3733C26.5176 35.3704 26.5147 35.3675 26.5128 35.3636L26.4893 35.3791C26.4612 35.3974 26.4324 35.4163 26.4082 35.4376C26.3911 35.4523 26.3751 35.4725 26.3588 35.4932C26.3232 35.5382 26.2857 35.5856 26.23 35.5856C26.2261 35.5856 26.2068 35.5856 26.1952 35.5817C26.1835 35.5817 26.1758 35.5778 26.1719 35.5739C26.1719 35.572 26.1719 35.571 26.1724 35.5705C26.1729 35.57 26.1738 35.57 26.1758 35.57C26.1758 35.57 26.1797 35.5662 26.1797 35.5623C26.1797 35.5623 26.1797 35.5584 26.1835 35.5584C26.1855 35.5545 26.1874 35.5515 26.1893 35.5486C26.1913 35.5457 26.1932 35.5428 26.1952 35.5389C26.1971 35.535 26.199 35.5321 26.201 35.5291C26.2029 35.5262 26.2048 35.5233 26.2068 35.5194C26.2087 35.5175 26.2097 35.5145 26.2106 35.5116C26.2116 35.5087 26.2126 35.5058 26.2145 35.5038L26.2189 35.4958C26.2227 35.4889 26.2273 35.4808 26.23 35.4726C26.2319 35.4688 26.2339 35.4658 26.2358 35.4629C26.2378 35.46 26.2397 35.4571 26.2416 35.4532C26.2474 35.4454 26.2523 35.4366 26.2571 35.4278C26.262 35.4191 26.2668 35.4103 26.2726 35.4025C26.2765 35.3947 26.2804 35.3869 26.2881 35.3791C26.292 35.3713 26.2959 35.3645 26.2997 35.3577C26.3036 35.3509 26.3075 35.3441 26.3114 35.3363C26.323 35.3168 26.3114 35.3012 26.2959 35.2973C26.3385 35.2428 26.3888 35.196 26.4508 35.161H26.4431C26.4965 35.1341 26.5515 35.1026 26.6062 35.0713C26.6384 35.0528 26.671 35.0341 26.7026 35.0168C26.7142 35.0051 26.7258 34.9934 26.7413 34.9856C26.6135 35.0285 26.4973 35.0869 26.385 35.1649C26.385 35.1649 26.354 35.1765 26.3462 35.1843C26.3462 35.1843 26.323 35.1921 26.292 35.1649C26.2881 35.161 26.2881 35.1571 26.2881 35.1493C26.3016 35.1222 26.3293 35.1043 26.3594 35.0849C26.3812 35.0708 26.4041 35.056 26.4237 35.0363C26.4469 35.0363 26.4663 35.0363 26.4663 35.0597C26.9124 34.7099 27.4625 34.6289 28.0144 34.5477C28.3539 34.4978 28.6941 34.4478 29.0112 34.335C29.0441 34.3116 29.078 34.2892 29.1119 34.2668C29.1458 34.2444 29.1797 34.222 29.2126 34.1986C29.2691 34.1751 29.3198 34.1348 29.3734 34.0922C29.4263 34.0501 29.4822 34.0056 29.5496 33.9727C29.7278 33.8363 29.8634 33.6805 29.9331 33.4506C29.9331 33.4272 29.9099 33.4038 29.9099 33.4038C29.6155 33.7194 29.2785 33.9688 28.9182 34.1519C28.5747 34.3331 28.2067 34.36 27.8423 34.3866C27.7054 34.3966 27.569 34.4065 27.4347 34.4246C27.4579 34.3778 27.5044 34.3779 27.547 34.3779C27.547 34.3225 27.5735 34.2987 27.6075 34.2682C27.6166 34.26 27.6263 34.2514 27.6361 34.2415H27.702C27.7136 34.2415 27.7194 34.2298 27.7252 34.2181C27.731 34.2064 27.7368 34.1947 27.7484 34.1947C27.7949 34.1947 27.8608 34.1714 27.8375 34.1714C27.802 34.1257 27.7504 34.1438 27.6934 34.1637C27.6386 34.1829 27.5789 34.2038 27.5238 34.1714C27.5443 34.1489 27.5504 34.1219 27.556 34.0974C27.5621 34.0708 27.5675 34.0471 27.5896 34.035H27.6787C27.6787 33.9882 27.7252 33.9454 27.7252 33.9454C27.9272 33.8239 28.1223 33.7179 28.3137 33.6138C28.4416 33.5443 28.568 33.4756 28.6936 33.4038C28.6682 33.4038 28.6456 33.4143 28.6238 33.4244C28.589 33.4406 28.5558 33.4559 28.5154 33.4272C28.5386 33.4272 28.5386 33.4107 28.5386 33.3941C28.5386 33.3775 28.5386 33.361 28.5619 33.361C28.7072 33.3222 28.8365 33.2592 28.9686 33.195C29.0619 33.1496 29.1565 33.1036 29.2591 33.0649C29.2287 33.0649 29.2005 33.0731 29.173 33.0811C29.1201 33.0964 29.0699 33.111 29.0112 33.0649C29.0266 33.0571 29.039 33.0473 29.0513 33.0375C29.076 33.0178 29.1002 32.9986 29.1468 32.9986V32.9324C29.1468 32.909 29.17 32.909 29.1933 32.909C29.17 32.909 29.1468 32.8857 29.1468 32.8857C29.1591 32.8609 29.1833 32.8558 29.2103 32.8501C29.2343 32.8451 29.2605 32.8396 29.2824 32.8194C29.2591 32.8194 29.2165 32.8194 29.2165 32.796C29.2824 32.7064 29.3947 32.6831 29.507 32.6597C29.4954 32.6363 29.4731 32.6363 29.4538 32.6363C29.4344 32.6363 29.4179 32.6363 29.4179 32.6129C29.4179 32.5896 29.4412 32.5896 29.4644 32.5896H29.4179C29.3815 32.5712 29.3879 32.5385 29.3924 32.5158C29.3936 32.5096 29.3947 32.5041 29.3947 32.4999C29.4857 32.3927 29.5156 32.2662 29.5454 32.1404C29.5599 32.0788 29.5745 32.0173 29.5961 31.9584C29.5729 31.9584 29.5496 31.9584 29.5496 31.935C29.3318 32.1767 28.9866 32.2683 28.6587 32.3554L28.6277 32.3636H28.5154C28.4031 32.4103 28.2443 32.4103 28.1319 32.3402C28.0785 32.3122 28.0404 32.2771 27.9993 32.2393C27.9718 32.214 27.9429 32.1875 27.9073 32.161C27.7252 32.048 27.547 31.9584 27.3456 31.8883C26.7839 31.709 26.199 31.6155 25.6141 31.6389C25.7775 31.5491 25.9509 31.5133 26.1266 31.4771C26.2176 31.4584 26.3093 31.4395 26.4004 31.4129C26.458 31.396 26.515 31.3785 26.5716 31.3611C26.8929 31.2626 27.2046 31.1671 27.547 31.187C27.5022 31.1711 27.4448 31.1768 27.392 31.1821C27.3672 31.1846 27.3434 31.187 27.3224 31.187C27.0634 31.1677 26.8019 31.2253 26.529 31.2855C26.4712 31.2982 26.4129 31.3111 26.354 31.3233C26.2471 31.3456 26.1455 31.3775 26.0437 31.4095C25.9315 31.4448 25.8191 31.4801 25.6993 31.5025C25.6474 31.5205 25.6056 31.551 25.565 31.5807C25.4996 31.6285 25.437 31.6743 25.3391 31.6623V31.5922C25.5638 31.3194 25.8349 31.0506 26.1952 31.0272C26.5434 30.9705 26.8717 31.0109 27.2142 31.053C27.2718 31.0601 27.3297 31.0673 27.3882 31.074C27.669 31.0966 27.9317 31.1592 28.2148 31.2267L28.2443 31.2337C28.3062 31.2337 28.3411 31.2883 28.3748 31.3411C28.4023 31.384 28.429 31.4258 28.4689 31.4363C28.5241 31.4553 28.5792 31.4589 28.6344 31.4624C28.7148 31.4676 28.7952 31.4728 28.8756 31.5259C28.8756 31.5102 28.873 31.4949 28.8704 31.4798C28.8653 31.4499 28.8602 31.4206 28.8756 31.3896C28.9256 31.3393 28.9829 31.3528 29.0393 31.3661C29.0834 31.3764 29.127 31.3867 29.1662 31.3662C29.289 31.29 29.1738 31.1729 29.0585 31.0558C29.0029 30.9993 28.9472 30.9428 28.9182 30.8909C28.9182 30.8675 28.9415 30.8441 28.9415 30.8441C28.9924 30.8897 29.0398 30.9369 29.0867 30.9837C29.2043 31.1008 29.3194 31.2153 29.4799 31.2961C29.5922 31.3428 29.8634 31.409 29.8169 31.2727C29.7373 31.0961 29.6014 30.9429 29.4642 30.7883C29.4077 30.7246 29.351 30.6607 29.2979 30.5948V30.5052C29.2625 30.5052 29.2541 30.4917 29.2435 30.4749C29.2402 30.4696 29.2367 30.464 29.232 30.4584V30.3688C29.1752 30.339 29.1625 30.2918 29.1497 30.2443C29.1424 30.2173 29.1351 30.1902 29.1197 30.1662C29.0808 30.1033 29.0781 30.0259 29.0752 29.946C29.0729 29.8825 29.0705 29.8175 29.0499 29.7571C29.0035 29.6207 28.9841 29.5078 28.9609 29.3714C28.9356 29.2319 28.9079 29.0985 28.8807 28.9679C28.8328 28.7374 28.7866 28.5157 28.7594 28.2844C28.7236 27.9538 28.8905 27.6743 29.0612 27.3885C29.1118 27.3037 29.1627 27.2185 29.2088 27.1312C29.3676 26.8584 29.5458 26.5896 29.8401 26.4065C29.9044 26.1405 30.0791 25.919 30.253 25.6985L30.2662 25.6818C30.4379 25.4679 30.7245 25.3371 30.9357 25.2408L30.9596 25.2299C31.2734 25.0896 31.5561 25 31.56 25H16V36.996H27.0396C27.3348 36.782 27.6283 36.6469 27.9775 36.4862C28.1369 36.4129 28.3079 36.3342 28.496 36.2402C28.5359 36.2201 28.5832 36.1968 28.6357 36.171C28.951 36.0159 29.4534 35.7687 29.6426 35.5817ZM26.1396 33.9633C26.0958 33.9677 26.0494 33.9723 26.0669 33.9372C26.0832 33.8583 26.1639 33.8347 26.2428 33.8116C26.2765 33.8017 26.31 33.7919 26.3378 33.7779L26.3505 33.7714L26.3598 33.7664C26.4035 33.7432 26.457 33.7148 26.4965 33.7313C26.5231 33.7692 26.5561 33.779 26.5881 33.7884C26.612 33.7955 26.6353 33.8024 26.6551 33.8207C26.5714 33.9047 26.4737 33.913 26.3747 33.9214C26.3089 33.9269 26.2425 33.9326 26.1791 33.9605C26.1678 33.9605 26.1538 33.9619 26.1396 33.9633ZM22.7126 33.4154C22.7126 33.4388 22.7359 33.4622 22.7359 33.4622C23.2782 32.8505 23.7701 32.3284 24.4673 31.8959C24.486 31.8881 24.4791 31.8979 24.4698 31.9109C24.4561 31.9302 24.4373 31.9567 24.4906 31.9427C24.7214 31.8901 24.8251 31.6923 24.9259 31.5C24.952 31.4502 24.9779 31.4008 25.0058 31.3544C25.1115 31.1823 25.2618 31.0721 25.4132 30.9611C25.5223 30.881 25.6321 30.8004 25.7262 30.696C25.7262 30.7193 25.7262 30.7427 25.703 30.7661C25.7262 30.7895 25.7495 30.7895 25.7727 30.7895C25.8136 30.7586 25.8582 30.7459 25.901 30.7336C25.9555 30.718 26.007 30.7033 26.0439 30.6531C25.8657 30.583 25.6372 30.5596 25.459 30.6297C24.9864 30.8557 24.5836 31.218 24.2001 31.6271C23.9677 31.8726 23.7275 32.1024 23.4331 32.2622C23.2317 32.6674 23.007 33.0297 22.7126 33.4154ZM24.6037 31.9664C24.5916 31.9908 24.5794 32.0035 24.5678 32.0156C24.5573 32.0266 24.5471 32.0372 24.5379 32.0557C24.5147 32.1023 24.4915 32.1217 24.4489 32.145C24.4257 32.145 24.4025 32.145 24.4025 32.1217C24.4257 32.0324 24.4915 31.9431 24.5805 31.9198C24.6037 31.9237 24.6037 31.947 24.6037 31.9664ZM25.5942 35.4264C25.6136 35.4069 25.6368 35.3835 25.6484 35.3601C25.6677 35.3134 25.5478 35.3251 25.5284 35.3368C25.5109 35.3509 25.4997 35.365 25.4862 35.3821L25.482 35.3874C25.4659 35.406 25.447 35.4232 25.4278 35.4406C25.4148 35.4525 25.4016 35.4644 25.3891 35.477C25.3349 35.5316 25.2808 35.5861 25.2227 35.6368C25.184 35.6718 25.3078 35.6874 25.3349 35.664C25.3659 35.6407 25.393 35.6134 25.4201 35.5861C25.4304 35.5861 25.4407 35.5844 25.4476 35.5832L25.4523 35.5825L25.4549 35.5822C25.5191 35.5607 25.5668 35.516 25.6132 35.4726L25.6252 35.4614C25.6407 35.4459 25.6213 35.4303 25.5942 35.4264ZM25.244 35.173C25.2436 35.1731 25.2433 35.1732 25.243 35.1734C25.2426 35.1739 25.2426 35.1749 25.2426 35.1768C25.2188 35.1931 25.1953 35.2097 25.1719 35.2263C25.1114 35.2691 25.0512 35.3117 24.9869 35.3483C24.9255 35.3829 24.8625 35.4128 24.7989 35.4429C24.7623 35.4603 24.7255 35.4778 24.6886 35.4963C24.6886 35.4963 24.6886 35.4924 24.6848 35.4924C24.677 35.4807 24.6615 35.4768 24.646 35.4846C24.5608 35.5314 24.4872 35.5937 24.4214 35.6599C24.4097 35.6677 24.3981 35.6794 24.3904 35.6911L24.3555 35.7262V35.7301C24.34 35.7457 24.3245 35.7612 24.3052 35.7846C24.3011 35.7887 24.298 35.7927 24.2951 35.7966C24.2895 35.8039 24.2843 35.8107 24.2742 35.8158C24.2587 35.8236 24.2199 35.8236 24.2238 35.8002V35.7963C24.2122 35.8041 24.1967 35.8119 24.1851 35.8158C24.1793 35.8197 24.1735 35.8226 24.1677 35.8255C24.1618 35.8284 24.156 35.8314 24.1502 35.8353C24.1463 35.8314 24.1386 35.8314 24.1347 35.8314C24.1309 35.8314 24.1231 35.8314 24.1192 35.8353C24.1102 35.8431 24.1012 35.8504 24.0921 35.8578C24.074 35.8725 24.056 35.8872 24.0379 35.9054C23.9914 35.9483 23.9488 35.995 23.9062 36.0457C23.9062 36.0457 23.9062 36.0495 23.9023 36.0495C23.9023 36.0515 23.9013 36.0525 23.9004 36.0534C23.8994 36.0544 23.8984 36.0554 23.8984 36.0573L23.8907 36.0651C23.8892 36.0666 23.8883 36.0681 23.8875 36.0694C23.8863 36.0714 23.8853 36.0729 23.8829 36.0729L23.8791 36.0768C23.8752 36.0846 23.8713 36.0924 23.8636 36.1002C23.8597 36.1041 23.852 36.108 23.8442 36.108C23.8403 36.1041 23.8365 36.1002 23.8365 36.0963C23.8345 36.0944 23.8336 36.0924 23.8326 36.0905C23.8316 36.0885 23.8307 36.0866 23.8287 36.0846C23.8248 36.0788 23.8219 36.0729 23.819 36.0671C23.8161 36.0612 23.8132 36.0554 23.8094 36.0495V36.0457C23.8094 36.0437 23.8084 36.0418 23.8074 36.0398C23.8064 36.0379 23.8055 36.0359 23.8055 36.034L23.8752 35.9521L23.8791 35.9483C23.8829 35.9444 23.8868 35.9395 23.8907 35.9346C23.8946 35.9298 23.8984 35.9249 23.9023 35.921C23.9081 35.9132 23.9149 35.9054 23.9217 35.8976C23.9285 35.8898 23.9352 35.882 23.9411 35.8742C23.943 35.8703 23.9449 35.8674 23.9469 35.8645C23.9488 35.8616 23.9507 35.8586 23.9527 35.8547C23.9759 35.8236 23.9992 35.7924 24.0224 35.7573V35.7534C24.0263 35.7496 24.0301 35.7457 24.0301 35.7379C24.0418 35.7223 24.0534 35.7067 24.0611 35.6911L24.0844 35.6444V35.6405L24.0882 35.6366C24.0882 35.6346 24.0892 35.6336 24.0902 35.6327C24.0912 35.6317 24.0921 35.6307 24.0921 35.6288C24.096 35.619 24.0999 35.6103 24.1037 35.6015C24.1076 35.5928 24.1115 35.584 24.1154 35.5742V35.5703L24.1192 35.5547C24.1212 35.5509 24.1221 35.547 24.1231 35.5431C24.1241 35.5392 24.125 35.5353 24.127 35.5314V35.5275C24.1289 35.5216 24.1299 35.5158 24.1309 35.5099C24.1318 35.5041 24.1328 35.4983 24.1347 35.4924C24.1347 35.4885 24.1347 35.4807 24.1309 35.4768C24.1541 35.434 24.1851 35.395 24.2199 35.356C24.218 35.356 24.2161 35.357 24.2141 35.358C24.213 35.3586 24.2119 35.3591 24.2108 35.3595C24.21 35.3598 24.2092 35.3599 24.2083 35.3599C24.1911 35.3708 24.1762 35.3852 24.1611 35.4C24.1491 35.4117 24.1369 35.4236 24.1231 35.434C24.0999 35.4535 24.0534 35.4223 24.0844 35.3989C24.1037 35.3833 24.1192 35.3677 24.1347 35.3522C24.1347 35.3522 24.1347 35.3483 24.1386 35.3483C24.154 35.3343 24.1689 35.3184 24.1838 35.3025C24.2064 35.2784 24.2292 35.254 24.2548 35.2353C24.2819 35.2158 24.3013 35.2002 24.3245 35.1807C24.3284 35.1768 24.3323 35.1729 24.3362 35.1729C24.3516 35.1535 24.3671 35.134 24.3865 35.1145C24.3865 35.1145 24.3904 35.1145 24.3904 35.1106C24.5234 34.9816 24.7103 34.9361 24.9011 34.8896C25.0214 34.8603 25.1433 34.8307 25.2542 34.7794C25.3168 34.7534 25.3866 34.7636 25.4556 34.7738C25.5104 34.7818 25.5647 34.7898 25.6144 34.7794C25.6803 34.7794 25.75 34.7794 25.8158 34.8262C25.6627 34.9077 25.5165 35.001 25.3719 35.0933C25.33 35.12 25.2882 35.1467 25.2464 35.1729C25.2454 35.1729 25.2446 35.1729 25.244 35.173ZM25.7281 33.5851C25.7099 33.5872 25.6982 33.5885 25.7082 33.5986C25.7741 33.6649 25.9097 33.6415 26.0026 33.5909C26.0685 33.5441 26.1382 33.5441 26.2273 33.5441C26.2505 33.5441 26.2505 33.5012 26.2505 33.4779C26.3164 33.5012 26.3629 33.5012 26.4287 33.5012C26.9671 33.3883 27.4862 33.2753 27.982 33.0259C27.4803 32.6383 26.8618 32.4656 26.256 32.2965C26.1555 32.2684 26.0554 32.2405 25.9561 32.2116C25.978 32.2116 25.9998 32.2189 26.0217 32.2262C26.066 32.241 26.1109 32.2559 26.1576 32.2116C26.0961 32.1626 26.0277 32.1532 25.9599 32.144C25.9038 32.1363 25.8482 32.1286 25.7973 32.0987C25.8026 32.0987 25.809 32.0999 25.8158 32.1012C25.839 32.1057 25.8685 32.1114 25.8864 32.0753C25.7688 32.0161 25.6511 31.996 25.5323 31.9757C25.4712 31.9653 25.4098 31.9548 25.348 31.9389C25.4603 31.9155 25.5301 31.8259 25.5301 31.7129C25.5301 31.6896 25.4836 31.6896 25.4603 31.6896C25.1931 31.8259 25.011 32.0753 24.8987 32.3675C24.9999 32.4271 25.1091 32.4202 25.2161 32.4134C25.2769 32.4096 25.3369 32.4058 25.3945 32.4142C25.3437 32.4625 25.2703 32.4756 25.1997 32.4882C25.1734 32.4929 25.1475 32.4975 25.1233 32.5038C25.0536 32.5194 24.9878 32.5701 25.011 32.6168C25.0265 32.6363 25.042 32.6441 25.0614 32.648C25.011 32.6636 24.9645 32.687 24.9219 32.7298C24.9857 32.78 25.0514 32.7703 25.1163 32.7608C25.1421 32.757 25.1677 32.7532 25.1931 32.7532C25.1931 32.7815 25.2116 32.7911 25.2309 32.8011C25.2409 32.8062 25.251 32.8115 25.2589 32.8194C25.1466 32.8623 25.0575 32.9558 25.0342 33.022C25.0065 33.0895 24.9552 33.1334 24.9044 33.1768C24.8701 33.2062 24.8361 33.2353 24.8096 33.2714V33.3415C24.7348 33.4078 24.6578 33.4671 24.582 33.5255C24.4262 33.6455 24.2748 33.7621 24.155 33.9298C24.1782 33.9298 24.1782 33.9532 24.1782 33.9766C24.1568 34.0089 24.1263 34.0313 24.0974 34.0525C24.0636 34.0774 24.0319 34.1006 24.0194 34.1363C24.0194 34.1597 24.0194 34.1831 24.0426 34.1831C24.1848 34.1361 24.3077 34.057 24.4283 33.9794C24.5377 33.9091 24.6452 33.84 24.7631 33.7973C24.8595 33.7742 24.9434 33.7305 25.0253 33.6878C25.0948 33.6516 25.1628 33.6162 25.2357 33.5947C25.2918 33.5831 25.3538 33.5665 25.4158 33.5499C25.4778 33.5334 25.5397 33.5168 25.5959 33.5051C25.5959 33.5285 25.5959 33.5519 25.6192 33.5519H25.7973C25.7864 33.5784 25.7518 33.5824 25.7281 33.5851Z" fill="#00008F"/>
<path d="M48.9997 25H36.0963C36.0963 25 36.1197 25.0039 36.2172 25.0546C36.3225 25.1092 36.4591 25.1834 36.541 25.2263C36.7087 25.3121 36.8686 25.4213 36.9739 25.5891C37.0208 25.6554 37.0871 25.7919 37.0442 25.8817C36.9974 25.9948 36.9739 26.1782 36.8608 26.2211C36.7243 26.2913 36.5449 26.2913 36.3849 26.2679C36.2952 26.2679 36.2055 26.2445 36.1119 26.2211C36.4513 26.3576 36.7711 26.5176 36.9974 26.8336C37.0208 26.8804 37.1105 26.8999 37.2002 26.8999C37.2236 26.8999 37.2236 26.9467 37.2236 26.9662C37.1768 27.013 37.1339 27.0364 37.1573 27.1027H37.2236C37.3367 27.0559 37.3133 26.8296 37.4732 26.8999C37.5864 26.9662 37.6332 27.1261 37.5629 27.2393C37.4732 27.329 37.3835 27.3992 37.2899 27.4655C37.2665 27.5124 37.2665 27.5787 37.2899 27.6255C37.3562 27.7152 37.3796 27.8049 37.403 27.8986C37.4732 28.0585 37.4927 28.238 37.5629 28.3979C37.6527 28.7373 37.7424 29.0767 37.7229 29.42C37.7229 29.5995 37.6332 29.7594 37.6995 29.9428C37.7463 30.1222 37.8594 30.2588 37.9491 30.4187C38.0388 30.5553 38.1285 30.645 38.1988 30.7815C38.3353 31.0078 38.5849 31.2341 38.4718 31.5072C38.4055 31.6671 38.1558 31.6437 37.9959 31.7334C37.8594 31.8466 37.9725 32.0299 38.0427 32.143C38.1558 32.3459 37.9062 32.4824 37.7463 32.5527C37.7931 32.6229 37.8828 32.5995 37.9062 32.6424C37.9296 32.7555 38.0427 32.8218 37.9725 32.9389C37.8828 33.0754 37.6098 33.1417 37.7463 33.3485C37.836 33.5085 37.7775 33.684 37.7229 33.8479C37.6566 34.0507 37.4732 34.1404 37.3133 34.1873C37.1768 34.2341 37.0169 34.2341 36.8842 34.2107C36.8374 34.1873 36.7945 34.1638 36.7477 34.1638C36.3615 34.117 35.9754 34.0078 35.5931 34.0078C35.48 34.0312 35.3669 34.0507 35.2772 34.0975C35.1757 34.1717 35.0821 34.2536 35.0041 34.3394C35.0041 34.3394 35.0041 34.3394 35.0002 34.3433C34.9846 34.3628 34.9651 34.3784 34.9495 34.3979C34.9417 34.4096 34.93 34.4213 34.9222 34.433C34.9144 34.4408 34.9105 34.4486 34.9027 34.4564C34.8364 34.5384 34.7779 34.6281 34.7233 34.7178C34.7194 34.7256 34.7155 34.7295 34.7116 34.7334C34.7077 34.7451 34.6999 34.7529 34.6921 34.7646C34.6179 34.9012 34.5633 35.0416 34.5204 35.1821C34.3644 35.7009 34.4346 36.1456 34.5438 36.2549C34.575 36.2861 35.2928 36.5085 35.792 36.7308C36.0261 36.8362 36.1899 36.9142 36.3264 37H48.9958V25H48.9997Z" fill="#E0000F"/>
<path d="M36.8636 29.3752C36.9531 29.3985 37.0893 29.3985 37.0893 29.4453C37.0426 29.6245 36.7741 29.6713 36.638 29.8544H36.5679C36.5018 29.9011 36.5212 30.0141 36.4551 30.0141C36.389 29.9907 36.3189 30.0141 36.2528 30.0375C36.3423 30.1271 36.4551 30.1972 36.5913 30.1739C36.6146 30.1739 36.6574 30.2206 36.6574 30.2635C36.6574 30.2635 36.6808 30.2635 36.7041 30.2401C36.7274 30.2401 36.7508 30.2401 36.7508 30.2635V30.3531C36.6846 30.4427 36.5679 30.3998 36.4785 30.4193C36.6613 30.4661 36.8403 30.4661 36.9998 30.4193C37.1359 30.3726 36.9998 30.1466 37.0893 30.0336C37.0426 30.0336 37.0893 29.9635 37.0426 29.9635C37.0893 29.9167 37.1321 29.8505 37.1787 29.8271C37.2254 29.8271 37.2916 29.8037 37.3149 29.757C37.3149 29.7102 37.2254 29.6907 37.2449 29.644C37.381 29.5544 37.4939 29.418 37.4472 29.2817C37.4238 29.2115 37.2449 29.2115 37.1321 29.1687C37.0192 29.1258 36.8831 29.1687 36.7469 29.192C36.6341 29.192 36.5212 29.2622 36.4084 29.2817C36.2489 29.3284 36.1127 29.418 35.9805 29.5076C36.14 29.4414 36.2956 29.418 36.4785 29.3713C36.6146 29.3752 36.7274 29.344 36.8636 29.3752" fill="#808080"/>
<path d="M17.236 52V43.6H19.804C21.652 43.6 22.792 44.548 22.792 46.108C22.792 47.128 22.3 47.884 21.436 48.28L24.064 52H22.06L19.816 48.604H18.94V52H17.236ZM19.9 45.016H18.94V47.188H19.9C20.62 47.188 21.04 46.768 21.04 46.084C21.04 45.448 20.62 45.016 19.9 45.016ZM28.5273 42.88H26.9793L28.3353 41.26H30.0873L28.5273 42.88ZM25.3233 52V43.6H30.2193V45.016H27.0273V47.008H29.7393V48.424H27.0273V50.584H30.2193V52H25.3233ZM32.3794 52V43.6H35.1514C36.9994 43.6 38.1274 44.548 38.1274 46.108C38.1274 47.656 36.9994 48.604 35.1514 48.604H34.0834V52H32.3794ZM35.2234 45.016H34.0834V47.188H35.2234C35.9434 47.188 36.3754 46.768 36.3754 46.084C36.3754 45.448 35.9434 45.016 35.2234 45.016ZM44.6705 48.856V43.6H46.3745V48.712C46.3745 50.92 45.0785 52.24 42.9665 52.24C40.8665 52.24 39.5705 50.92 39.5705 48.712V43.6H41.2745V48.856C41.2745 49.984 41.9105 50.644 42.9785 50.644C44.0225 50.644 44.6705 49.984 44.6705 48.856ZM48.6713 52V43.6H51.1433C52.8953 43.6 53.9633 44.464 53.9633 45.88C53.9633 46.564 53.6513 47.152 53.0633 47.536C53.9513 47.932 54.4433 48.652 54.4433 49.528C54.4433 51.064 53.2553 52 51.3233 52H48.6713ZM51.1793 45.016H50.3753V46.912H51.1793C51.8273 46.912 52.2113 46.564 52.2113 45.952C52.2113 45.364 51.8273 45.016 51.1793 45.016ZM51.4193 48.328H50.3753V50.584H51.4193C52.2113 50.584 52.6913 50.164 52.6913 49.456C52.6913 48.736 52.2113 48.328 51.4193 48.328ZM56.3719 52V43.6H58.0759V50.452H61.2679V52H56.3719ZM62.9476 52V43.6H64.6516V52H62.9476ZM74.2234 51.784C74.8714 52.372 75.4474 52.588 75.9874 52.588C76.1674 52.588 76.4074 52.564 76.5874 52.492V53.932C76.3114 54.04 76.0714 54.088 75.6994 54.088C74.7634 54.088 73.8994 53.704 73.0714 52.984L72.0754 52.096C71.7154 52.192 71.3314 52.24 70.9234 52.24C68.2714 52.24 66.4594 50.2 66.4594 47.8C66.4594 45.4 68.2714 43.36 70.9234 43.36C73.5634 43.36 75.3754 45.4 75.3754 47.8C75.3754 49.204 74.7514 50.488 73.7194 51.304L74.2234 51.784ZM70.9234 50.644C72.4954 50.644 73.6234 49.408 73.6234 47.8C73.6234 46.192 72.4954 44.956 70.9234 44.956C69.3394 44.956 68.2114 46.192 68.2114 47.8C68.2114 49.408 69.3394 50.644 70.9234 50.644ZM82.1424 48.856V43.6H83.8464V48.712C83.8464 50.92 82.5504 52.24 80.4384 52.24C78.3384 52.24 77.0424 50.92 77.0424 48.712V43.6H78.7464V48.856C78.7464 49.984 79.3824 50.644 80.4504 50.644C81.4944 50.644 82.1424 49.984 82.1424 48.856ZM86.1432 52V43.6H91.0392V45.016H87.8472V47.008H90.5592V48.424H87.8472V50.584H91.0392V52H86.1432ZM17.236 64V55.6H22.132V57.016H18.94V59.008H21.652V60.424H18.94V64H17.236ZM23.8116 64V55.6H26.3796C28.2276 55.6 29.3676 56.548 29.3676 58.108C29.3676 59.128 28.8756 59.884 28.0116 60.28L30.6396 64H28.6356L26.3916 60.604H25.5156V64H23.8116ZM26.4756 57.016H25.5156V59.188H26.4756C27.1956 59.188 27.6156 58.768 27.6156 58.084C27.6156 57.448 27.1956 57.016 26.4756 57.016ZM31.2062 64L34.3862 55.6H36.6183L39.7982 64H37.9863L37.1823 61.816H33.8223L33.0182 64H31.2062ZM34.3503 60.364H36.6543L35.5023 57.208L34.3503 60.364ZM41.2754 64V55.6H43.4594L47.2154 61.672V55.6H48.9194V64H46.7354L42.9794 57.928V64H41.2754ZM55.1927 62.644C56.1527 62.644 56.9087 62.176 57.3887 61.492L58.7327 62.524C58.0847 63.412 57.0767 64.036 55.8527 64.192L54.8087 65.932H53.2967L54.3527 64.168C52.1687 63.784 50.7287 61.936 50.7287 59.8C50.7287 57.4 52.5407 55.36 55.1927 55.36C56.7167 55.36 57.9647 56.044 58.7327 57.064L57.3887 58.108C56.9087 57.424 56.1527 56.956 55.1927 56.956C53.6087 56.956 52.4807 58.192 52.4807 59.8C52.4807 61.408 53.6087 62.644 55.1927 62.644ZM59.2769 64L62.4569 55.6H64.6889L67.8689 64H66.0569L65.2529 61.816H61.8929L61.0889 64H59.2769ZM62.4209 60.364H64.7249L63.5729 57.208L62.4209 60.364ZM69.346 64V55.6H71.05V64H69.346ZM72.8219 62.836L74.0579 61.696C74.5619 62.344 75.2339 62.728 75.9179 62.728C76.5899 62.728 76.9979 62.368 76.9979 61.768C76.9979 60.22 73.1819 60.64 73.1819 57.796C73.1819 56.464 74.2859 55.36 75.8939 55.36C77.1539 55.36 78.1139 55.924 78.8339 56.776L77.5859 57.904C77.0939 57.268 76.5419 56.848 75.9059 56.848C75.3059 56.848 74.9099 57.232 74.9099 57.736C74.9099 59.26 78.7259 58.828 78.7259 61.708C78.7019 63.292 77.4779 64.24 75.9299 64.24C74.5139 64.24 73.5659 63.724 72.8219 62.836ZM80.6926 64V55.6H85.5886V57.016H82.3966V59.008H85.1086V60.424H82.3966V62.584H85.5886V64H80.6926Z" fill="black"/>
<path fill-rule="evenodd" clip-rule="evenodd" d="M47.18 85.6137L46.0638 86.6337H45.7758L46.4359 85.4697H47.18V85.6137ZM46.3759 89.5611H46.1359C45.8358 89.9211 45.4998 90.2091 45.1757 90.2091C44.8397 90.2091 44.6717 90.0051 44.6717 89.5611C44.6717 89.3811 44.6957 89.1891 44.7317 89.0211L46.688 88.3732C47.072 87.4612 46.6159 87.0653 46.0759 87.0653C45.1517 87.0653 44.0956 88.6852 44.0956 89.9811C44.0956 90.5931 44.3836 90.929 44.8397 90.929C45.3678 90.917 45.9198 90.4011 46.3759 89.5611ZM45.7046 87.5935C45.9686 87.5935 46.1966 87.7975 46.0766 88.2655L44.8644 88.5895C45.0565 88.0135 45.4165 87.5935 45.7046 87.5935ZM41.8886 87.6172H42.5367L41.5045 90.4491C41.4085 90.6891 41.5405 90.9291 41.7925 90.9291C42.5247 90.9291 43.4008 90.3051 43.7368 89.4171H43.5568C43.2928 89.7891 42.7167 90.1971 42.2846 90.2691L43.2328 87.6172H44.2049L44.3249 87.2093H43.3768L43.7368 86.1893H43.3648L42.6927 87.2093L41.8886 87.3173V87.6172ZM40.9878 87.0779C41.1198 87.0779 41.2998 87.2219 41.2158 87.4859L40.0516 90.3058C40.3517 90.2578 40.6637 89.9698 40.8438 89.7058H41.0358C40.7597 90.4138 40.1356 90.9297 39.5956 90.9297C39.4636 90.9297 39.2715 90.7857 39.3675 90.5218L40.4477 87.7019C40.1477 87.7499 39.8356 88.0379 39.6556 88.3019H39.4756C39.7516 87.5819 40.4237 87.0779 40.9878 87.0779ZM41.3246 86.3577C41.5647 86.3577 41.7687 86.1657 41.7687 85.9137C41.7687 85.6737 41.5647 85.4697 41.3246 85.4697C41.0726 85.4697 40.8806 85.6737 40.8806 85.9137C40.8806 86.1537 41.0846 86.3577 41.3246 86.3577ZM36.0797 88.6979C36.3437 88.1219 36.2477 87.8579 36.0797 87.8579C35.9357 87.8579 35.7676 88.0139 35.5996 88.3019H35.4196C35.6956 87.6899 36.0557 87.0779 36.4517 87.0779C36.7878 87.0779 36.9078 87.4139 36.9078 87.7859V88.3139C36.9618 88.2511 37.0144 88.1894 37.0658 88.1291L37.0667 88.128L37.0675 88.1271C37.5745 87.5322 37.9617 87.0779 38.408 87.0779C38.7561 87.0779 38.9361 87.2939 38.9361 87.6179C38.9361 87.8099 38.8761 88.0499 38.7441 88.3019L37.7479 90.3058C38.048 90.2578 38.36 89.9698 38.54 89.7058H38.7201C38.444 90.4258 37.7719 90.9297 37.2079 90.9297C36.9558 90.9297 36.8118 90.6657 36.9198 90.4498L38.072 88.2299C38.204 87.9779 38.228 87.8099 38.024 87.8099C37.7479 87.8099 37.0998 88.2659 36.7518 88.6859L35.9957 90.6777C35.9117 90.8817 35.8277 90.9297 35.6356 90.9297C35.3236 90.9297 35.1676 90.7257 35.3116 90.4018L36.0797 88.6979ZM35.2987 87.9292C35.4307 87.4732 35.3587 87.0653 35.0106 87.0653C34.5766 87.0653 34.4407 87.3519 34.02 88.2389L33.9905 88.3012V87.7732C33.9905 87.4012 33.8705 87.0653 33.5344 87.0653C33.1384 87.0653 32.7783 87.6772 32.5023 88.2892H32.6823C32.8743 88.0132 33.0544 87.8452 33.1984 87.8452C33.3664 87.8452 33.4624 88.1092 33.1984 88.6852L32.4303 90.3891C32.2863 90.713 32.4423 90.917 32.7543 90.917C32.9464 90.917 33.0304 90.869 33.1144 90.665L33.8705 88.6732C34.0865 88.4092 34.2785 88.1812 34.5186 87.9292H35.2987ZM31.5064 88.2655C31.6264 87.7975 31.3984 87.5935 31.1344 87.5935C30.8463 87.5935 30.4863 88.0135 30.2942 88.5895L31.5064 88.2655ZM31.8057 89.5611H31.5657C31.2656 89.9211 30.9296 90.2091 30.6055 90.2091C30.2695 90.2091 30.1015 90.0051 30.1015 89.5611C30.1015 89.3811 30.1255 89.1891 30.1615 89.0211L32.1178 88.3732C32.5018 87.4612 32.0458 87.0653 31.5057 87.0653C30.5815 87.0653 29.5254 88.6852 29.5254 89.9811C29.5254 90.5931 29.8134 90.929 30.2695 90.929C30.7976 90.917 31.3497 90.4011 31.8057 89.5611ZM27.9665 87.6172H27.3184V87.3173L28.1225 87.2093L28.7946 86.1893H29.1666L28.8066 87.2093H29.7547L29.6347 87.6172H28.6626L27.7144 90.2691C28.1465 90.1971 28.7226 89.7891 28.9866 89.4171H29.1666C28.8306 90.3051 27.9545 90.9291 27.2224 90.9291C26.9703 90.9291 26.8383 90.6891 26.9343 90.4491L27.9665 87.6172ZM23.8865 89.8134C23.8865 88.9374 24.8586 87.7615 25.3987 87.7615C25.5187 87.7615 25.6387 87.7735 25.7347 87.8095L25.1707 89.3214C24.8466 89.7174 24.3425 90.1974 24.1025 90.1974C23.9705 90.1974 23.8865 90.0774 23.8865 89.8134ZM26.5632 86.8856L26.8632 86.9096L25.8191 89.3094C25.567 89.8854 25.675 90.1494 25.8191 90.1494C25.9631 90.1494 26.1431 89.9814 26.3351 89.7054H26.5152C26.2391 90.3174 25.8791 90.9293 25.483 90.9293C25.147 90.9293 24.9429 90.5694 25.0029 89.9214L25.0269 89.6934L24.9616 89.7847C24.5317 90.3856 24.1427 90.9293 23.7428 90.9293C23.3947 90.9293 23.2147 90.7134 23.2147 90.3894C23.2147 88.9975 24.7389 87.2216 26.1671 87.2216H26.2271L26.5632 86.8856ZM23.814 87.9292C23.946 87.4732 23.874 87.0653 23.526 87.0653C23.0919 87.0653 22.956 87.3519 22.5354 88.2389L22.5058 88.3012V87.7732C22.5058 87.4012 22.3858 87.0653 22.0498 87.0653C21.6537 87.0653 21.2937 87.6772 21.0176 88.2892H21.1976C21.3897 88.0132 21.5697 87.8452 21.7017 87.8452C21.8697 87.8452 21.9658 88.1092 21.7017 88.6852L20.9336 90.4011C20.7896 90.725 20.9456 90.929 21.2576 90.929C21.4497 90.929 21.5337 90.881 21.6177 90.677L22.3738 88.6852C22.5898 88.4212 22.7819 88.1932 23.0219 87.9412H23.814V87.9292ZM18.8684 90.5683L18.7964 90.7843H16L16.072 90.5563C16.9361 90.4003 17.0802 90.3283 17.4402 89.3564L18.2203 87.2685C18.5684 86.2966 18.4964 86.2246 17.7403 86.0686L17.8123 85.8526H21.4488L21.2328 87.0165H20.9687C20.9687 86.3206 20.8967 86.1406 20.2366 86.1406H20.0686C19.4205 86.1406 19.3365 86.2366 19.1565 86.7405L18.6404 88.1445H19.3965C19.9006 88.1445 20.0926 87.8325 20.3206 87.4245H20.5847L19.9606 89.1284H19.6965C19.7565 88.6124 19.7565 88.4084 19.2885 88.4084H18.5324L18.1843 89.3684C17.8081 90.3676 17.9156 90.3879 18.8115 90.5575C18.8301 90.5611 18.8491 90.5647 18.8684 90.5683Z" fill="black"/>
<path fill-rule="evenodd" clip-rule="evenodd" d="M21.2448 76.4341L20.1286 77.2385V77.2505H19.8405L20.5006 76.29H21.2448V76.4341ZM29.0472 82.0648L30.8355 77.3105L30.7755 77.2384L29.5393 77.3825V77.5266L29.7793 77.7066C29.9843 77.8661 29.93 78.0147 29.76 78.4805L29.7313 78.5591L28.3631 82.2089C28.2551 82.425 28.3991 82.6891 28.6511 82.6891C29.2152 82.6891 29.8153 82.1728 30.0914 81.4645H29.9114C29.7193 81.7286 29.3353 82.0168 29.0472 82.0648ZM37.2438 78.403L38.36 77.3825V77.2384H37.6159L36.9558 78.403H37.2438ZM37.315 81.3204H37.5551C37.111 82.1728 36.5589 82.6891 36.0308 82.6891C35.5747 82.6891 35.2867 82.3529 35.2867 81.7406C35.2867 80.444 36.3429 78.8232 37.267 78.8232C37.7951 78.8232 38.2632 79.2194 37.8791 80.1318L35.9108 80.7801C35.8748 80.9482 35.8508 81.1403 35.8508 81.3204C35.8508 81.7646 36.0188 81.9687 36.3549 81.9687C36.6789 81.9687 37.015 81.6806 37.315 81.3204ZM37.2544 80.0238C37.3745 79.5676 37.1464 79.3635 36.8824 79.3635C36.6063 79.3635 36.2463 79.7837 36.0422 80.348L37.2544 80.0238ZM33.7258 79.3872H33.0777V79.0871L33.8818 78.979L34.554 77.9585H34.926L34.566 78.979H35.5141L35.3941 79.3872H34.4219L33.4738 82.0405C33.9058 81.9685 34.4819 81.5603 34.746 81.1881H34.926C34.59 82.0765 33.7138 82.7008 32.9817 82.7008C32.7296 82.7008 32.5976 82.4607 32.6936 82.2206L33.7258 79.3872ZM32.4055 79.2431C32.4775 78.979 32.3095 78.8349 32.1655 78.8349C31.6014 78.8349 30.9292 79.3512 30.6532 80.0595H30.8332C31.0133 79.7954 31.3253 79.5072 31.6254 79.4592L30.5452 82.2806C30.4492 82.5447 30.6412 82.6888 30.7732 82.6888C31.3133 82.6888 31.9374 82.1726 32.2135 81.4642H32.0334C31.8534 81.7283 31.5413 82.0165 31.2413 82.0645L32.4055 79.2431ZM32.9585 77.6826C32.9585 77.9228 32.7544 78.1269 32.5144 78.1269C32.2744 78.1269 32.0703 77.9228 32.0703 77.6826C32.0703 77.4425 32.2624 77.2384 32.5144 77.2384C32.7544 77.2384 32.9585 77.4425 32.9585 77.6826ZM26.8987 79.5315C26.3586 79.5315 25.3864 80.7081 25.3864 81.5846C25.3864 81.8487 25.4704 81.9687 25.6145 81.9687C25.8425 81.9687 26.3466 81.4885 26.6706 81.0923L27.2347 79.5796C27.1267 79.5435 27.0187 79.5315 26.8987 79.5315ZM28.3632 78.6791L28.0632 78.6551L27.7271 78.9913H27.6671C26.2389 78.9913 24.7146 80.7682 24.7146 82.1609C24.7146 82.485 24.8946 82.7011 25.2427 82.7011C25.6426 82.7011 26.0316 82.1571 26.4616 81.5558L26.5269 81.4645L26.5029 81.6926C26.4429 82.3409 26.6469 82.7011 26.983 82.7011C27.3791 82.7011 27.7391 82.0888 28.0152 81.4765H27.8351C27.6431 81.7527 27.4631 81.9207 27.3191 81.9207C27.175 81.9207 27.067 81.6566 27.3191 81.0803L28.3632 78.6791ZM22.3135 82.5692C21.7974 82.7733 21.4373 83.0134 21.4373 83.3856C21.4373 83.7337 21.7614 83.8778 22.4335 83.8778C23.3337 83.8778 23.8258 83.6137 23.8258 83.2655C23.8258 83.1094 23.6217 83.0374 23.0816 82.8573C22.7336 82.7493 22.4815 82.6532 22.3135 82.5692ZM22.9128 81.0924C22.6728 81.0924 22.5888 80.8883 22.5888 80.6722C22.5888 79.9758 22.9248 79.1114 23.4649 79.1114C23.705 79.1114 23.789 79.3155 23.789 79.5316C23.777 80.24 23.4409 81.0924 22.9128 81.0924ZM23.3701 82.2209C24.0302 82.425 24.4383 82.581 24.4383 83.0373C24.4383 83.6255 23.3581 84.3219 22.0499 84.3099C21.2937 84.3099 20.6456 84.1058 20.6456 83.6135C20.6456 83.1453 21.0777 82.7611 22.1339 82.449C21.9899 82.3529 21.9299 82.2329 21.9299 82.0648C21.9299 81.7766 22.1939 81.5485 22.65 81.3324C22.2059 81.2724 21.9178 80.9362 21.9178 80.444C21.9178 79.6876 22.542 78.8232 23.5261 78.8232C23.7302 78.8232 23.9102 78.8712 24.0542 78.9673H25.1344L25.0144 79.3755H24.3783C24.4143 79.4835 24.4383 79.6036 24.4383 79.7356C24.4383 80.468 23.8502 81.3084 22.914 81.3564C22.674 81.4885 22.554 81.6686 22.554 81.8127C22.554 81.9822 22.7503 82.0395 23.1842 82.1662C23.2419 82.183 23.3039 82.2011 23.3701 82.2209ZM19.5646 80.1679C20.0327 80.1679 20.0447 80.372 19.9727 80.8883H20.2367L20.8609 79.1834H20.5968C20.3688 79.5916 20.1767 79.9038 19.6726 79.9038H18.6405L19.1446 78.4991C19.3246 77.9949 19.4086 77.8988 20.0567 77.8988H20.5128C21.1729 77.8988 21.2449 78.0789 21.2449 78.7752H21.509L21.725 77.6107H17.8123L17.7403 77.8268C18.4964 77.9829 18.5684 78.0549 18.2204 79.0274L17.4403 81.1284C17.0802 82.1009 16.9362 82.1729 16.06 82.329L16 82.5571H20.3448L21.1249 81.3205H20.8248C20.3208 81.8127 19.8167 82.269 18.8325 82.269C17.75 82.269 17.7693 82.216 18.0941 81.3234C18.115 81.266 18.1372 81.205 18.1604 81.1404L18.5204 80.1799H19.5646V80.1679Z" fill="black"/>
<path fill-rule="evenodd" clip-rule="evenodd" d="M23.1496 69.8876C23.3896 69.8876 23.5936 69.6837 23.5936 69.4438C23.5936 69.2039 23.3896 69 23.1496 69C22.8977 69 22.7057 69.2039 22.7057 69.4438C22.7057 69.6957 22.8977 69.8876 23.1496 69.8876ZM26.7022 71.3986C26.7022 70.8229 26.5583 70.607 26.1503 70.607C25.6464 70.607 25.1785 71.1467 24.7106 71.7944L25.7184 69.0956L25.6584 69.0117L24.4227 69.1556V69.2996L24.6626 69.4795C24.8716 69.6419 24.811 69.8044 24.633 70.2818L24.6146 70.3311L23.5229 73.1858C23.4269 73.4257 23.3189 73.7136 23.3189 73.7856C23.3189 74.1214 23.7748 74.4453 24.1947 74.4453C25.1305 74.4573 26.7022 72.73 26.7022 71.3986ZM37.1042 70.1752L38.22 69.1556V69.0117H37.4761L36.8163 70.1752H37.1042ZM37.1765 73.0899H37.4164C36.9605 73.9415 36.4086 74.4573 35.8807 74.4453C35.4248 74.4453 35.1369 74.1214 35.1369 73.5097C35.1369 72.2143 36.1927 70.595 37.1165 70.595C37.6444 70.595 38.1123 70.9908 37.7284 71.9024L35.7727 72.5501C35.7368 72.7181 35.7128 72.91 35.7128 73.0899C35.7128 73.5337 35.8807 73.7376 36.2167 73.7376C36.5406 73.7376 36.8765 73.4497 37.1765 73.0899ZM37.1153 71.7945C37.2353 71.3387 37.0073 71.1348 36.7434 71.1348C36.4555 71.1348 36.0955 71.5546 35.9036 72.1184L37.1153 71.7945ZM33.5747 71.1595H32.9268V70.8596L33.7306 70.7516L34.4025 69.7321H34.7744L34.4145 70.7516H35.3623L35.2423 71.1595H34.2705L33.3227 73.8103C33.7546 73.7383 34.3305 73.3305 34.5945 72.9587H34.7744C34.4385 73.8463 33.5627 74.47 32.8308 74.47C32.5789 74.47 32.4469 74.2301 32.5429 73.9902L33.5747 71.1595ZM32.5931 71.4713C32.7251 71.0155 32.6531 70.6077 32.3052 70.6077C31.8713 70.6077 31.7354 70.8942 31.3149 71.7809L31.2854 71.8431V71.3154C31.2854 70.9435 31.1654 70.6077 30.8295 70.6077C30.4336 70.6077 30.0736 71.2194 29.7977 71.8311H29.9776C30.1696 71.5553 30.3496 71.3873 30.4815 71.3873C30.6495 71.3873 30.7455 71.6512 30.4815 72.227L29.7137 73.9302C29.5697 74.2541 29.7257 74.458 30.0376 74.458C30.2296 74.458 30.3136 74.41 30.3976 74.2061L31.1534 72.215C31.3694 71.9511 31.5613 71.7232 31.8013 71.4713H32.5931ZM28.7902 71.7945C28.9101 71.3387 28.6822 71.1348 28.4182 71.1348C28.1303 71.1348 27.7823 71.5546 27.5784 72.1184L28.7902 71.7945ZM29.0893 73.0899H28.8494C28.5495 73.4497 28.2135 73.7376 27.8896 73.7376C27.5536 73.7376 27.3857 73.5337 27.3857 73.0899C27.3857 72.91 27.4097 72.7181 27.4457 72.5501L29.4013 71.9024C29.7852 70.9908 29.3293 70.595 28.7894 70.595C27.8656 70.595 26.8098 72.2143 26.8098 73.5097C26.8098 74.1214 27.0977 74.4453 27.5536 74.4453C28.0815 74.4573 28.6334 73.9415 29.0893 73.0899ZM24.0512 73.5461C24.0512 73.702 24.3272 73.882 24.5191 73.882C25.299 73.882 26.0308 72.4786 26.0188 71.6989C26.0188 71.435 25.8869 71.3271 25.7069 71.3271C25.419 71.3271 24.8911 71.7589 24.5551 72.1667L24.2432 73.0064C24.1352 73.2822 24.0512 73.4981 24.0512 73.5461ZM22.7917 70.6077C22.9357 70.6077 23.1036 70.7516 23.0316 71.0155L21.8799 73.8343C22.1798 73.7863 22.4917 73.4984 22.6717 73.2345H22.8517C22.5757 73.9422 21.9518 74.458 21.4119 74.458C21.268 74.458 21.076 74.314 21.172 74.0502L22.2518 71.2314C21.9518 71.2794 21.6399 71.5673 21.4599 71.8311H21.28C21.5559 71.1235 22.2278 70.6077 22.7917 70.6077ZM17.8116 69.3602H20.3911L20.3192 69.5881C19.4433 69.744 19.2994 69.816 18.9394 70.7876L18.1716 72.8986C17.7997 73.9062 17.8956 74.0261 18.5555 74.0261C19.3708 74.0261 19.9053 73.4337 20.3721 72.9164C20.4068 72.878 20.4411 72.84 20.4751 72.8027H20.7751L19.9232 74.314H16L16.072 74.0981C16.9358 73.9422 17.0798 73.8702 17.4397 72.8986L18.2196 70.7756C18.5675 69.804 18.4955 69.732 17.7397 69.5761L17.8116 69.3602Z" fill="black"/>
<g clip-path="url(#clip0_935_558)">
<path d="M185.588 92.9991H126V22.999H185.588V92.9991Z" fill="#004899"/>
<path d="M184.259 24.3203H127.324V91.6797H184.259V24.3203Z" fill="white"/>
<path d="M144.089 62.3328C145.918 65.0933 148.665 67.1239 151.846 68.0683C155.027 69.0126 158.441 68.8104 161.488 67.4974C164.534 66.1841 167.02 63.8438 168.508 60.8869C169.996 57.93 170.392 54.5452 169.626 51.3265C168.86 48.1076 166.981 45.2605 164.319 43.2844C161.657 41.3082 158.382 40.3293 155.068 40.5194C151.753 40.7094 148.612 42.0563 146.195 44.3237C143.778 46.5911 142.24 49.6342 141.849 52.9193C141.783 53.4656 141.75 54.0154 141.75 54.5656C141.746 57.3246 142.56 60.0233 144.089 62.3229" fill="#80A4CC"/>
<path d="M151.295 49.9988L152.048 50.1174L151.791 50.6112L151.13 50.2556L151.295 49.9988ZM154.325 48.3525L153.694 48.9057V49.281L154.685 49.5279L156.684 48.1747L156.631 47.625L155.838 47.3517L154.325 48.3525ZM154.635 46.8676H154.454L154.12 47.4965L153.578 47.5394L152.96 48.4284L153.291 48.6389L154.123 48.1122L154.761 47.4339L154.635 46.8676ZM155.759 45.1226L154.48 46.1366L154.936 46.4659L155.957 45.4255L155.759 45.1226ZM145.929 50.7824L146.372 50.8384L146.511 49.7947V49.4654L146.432 49.1362L146.204 49.1164L145.929 50.7824ZM146.164 51.4706L146.306 51.6912L146.574 51.7307L146.696 51.1907L146.253 51.0854L146.164 51.4706ZM146.422 52.0106L146.465 52.297H146.739L146.702 51.9876L146.422 52.0106ZM146.577 52.6263L146.653 52.8106L146.884 52.7086C146.884 52.7086 146.821 52.5374 146.815 52.5374L146.577 52.6263ZM146.716 53.1531L146.914 53.0807L146.838 52.9127C146.838 52.9127 146.726 53.0082 146.729 53.0214V53.1531H146.716ZM156.103 52.3399C156.103 52.3399 155.742 53.2124 155.742 53.219C155.742 53.2255 156.307 53.2716 156.307 53.275L156.443 52.5572L156.344 52.4847L156.41 52.2378L156.126 52.0831L156.036 52.2674L156.103 52.3399ZM155.273 52.9457L155.58 53.0313L155.673 52.7449L155.455 52.6954L155.273 52.9457ZM161.901 64.0185L161.455 64.2755L160.887 64.3939L159.638 65.6187L159.714 65.892L159.896 65.8658L160.609 65.5595C161.004 65.3751 161.367 65.1283 161.683 64.8286C161.902 64.6115 162.084 64.3601 162.221 64.0844L161.901 64.0185ZM161.571 65.7274L161.419 65.5595L161.181 65.7011C161.181 65.7011 161.359 65.8821 161.356 65.8821L161.571 65.7274ZM156.836 55.1287L156.661 55.1056V55.4349L156.839 55.4677L156.945 55.0397L156.889 55.0167L156.836 55.1287ZM146.289 53.2847L146.352 53.5515L146.607 53.4692L146.524 53.1991L146.289 53.2847ZM144.089 62.3426L145.08 61.536L145.883 61.7402L148.027 60.13L148.13 59.274L146.722 57.226C146.642 56.4625 146.513 55.7047 146.336 54.9575C146.19 54.457 145.863 53.0017 145.85 52.9819L145.665 52.6098L144.323 50.6046L145.192 48.4381L145.86 48.3888L145.903 48.0595L145.387 47.6315V47.1344C145.387 46.8577 145.857 46.5779 146.17 46.5779C146.259 46.5786 146.347 46.5919 146.432 46.6174C146.656 46.7075 146.864 46.8344 147.046 46.9928C147.079 47.0158 147.661 48.3724 147.661 48.3724L147.168 48.7708L146.924 49.3634L147.254 49.63L147.727 48.8169L149.683 49.4753L150.879 50.1536L151.242 49.7585L152.233 49.8408L152.967 48.853L152.306 48.6028L153.003 47.7664L152.921 47.4834L151.857 47.2792L152.669 46.4132L153.459 46.9269V47.1541L153.958 47.2133L154.351 46.4132L154.057 46.1531L155.3 44.9612L156.433 44.4376L157.308 43.8648L157.48 43.7297L157.513 43.1174L157.365 42.6828L156.978 42.5313L157.474 42.1428L157.338 42.0703C156.603 42.582 155.739 42.8795 154.844 42.9297C153.852 42.9955 151.89 42.5642 151.89 42.5642L149.927 42.2711L149.24 42.1494C147.578 43.0331 146.109 44.2374 144.918 45.6922L144.869 47.5394L144.565 48.3888L143.877 50.8253L144.105 51.5135L142.992 51.6714L141.865 52.9193C141.802 53.4659 141.77 54.0155 141.77 54.5656C141.765 57.3246 142.579 60.0233 144.109 62.3229L144.089 62.3426ZM163.305 42.5873C165.03 43.6519 166.504 45.0739 167.629 46.7567C168.753 48.4394 169.501 50.3436 169.821 52.3399L168.717 53.2815L168.014 53.1135L167.683 53.4033L167.706 53.5976C167.706 53.6899 167.759 53.8709 167.829 54.1441C167.965 54.6826 168.036 55.2353 168.04 55.7905C168.053 56.1835 168.008 56.5764 167.905 56.9561H167.303L165.611 55.6324L164.323 55.9221L163.49 55.7805L162.436 56.1098L162.912 56.5182L163.741 56.2844L164.455 56.854L164.343 57.1043L164.049 57.5816L163.414 58.4839L162.423 59.2708L160.616 57.4005L160.147 57.4499L162.076 59.6559L162.859 59.4978L163.054 59.8962L162.268 61.1805L160.735 62.6389L160.067 64.3611C160.019 64.4315 159.95 64.4846 159.869 64.5125C159.586 64.6621 159.326 64.853 159.099 65.0787C158.729 65.4245 158.524 65.6155 158.478 65.6517C158.131 65.9523 157.764 66.2305 157.381 66.4847C156.974 66.7586 156.552 67.0081 156.116 67.2321C155.399 67.5995 154.608 67.7988 153.803 67.8149C153.298 67.8135 152.797 67.7301 152.319 67.568C152.253 67.5449 152.21 67.512 152.21 67.4824L152.541 66.5407C152.799 66.2104 153.076 65.895 153.37 65.5957C153.636 65.2931 153.833 64.9371 153.948 64.552C154.059 64.1592 154.202 63.7761 154.375 63.4062C154.682 62.9122 154.827 62.4908 154.725 62.3888L152.722 60.3836L151.883 58.8263L151.972 58.4575C152.145 57.9542 152.366 57.4689 152.633 57.0087C152.748 56.72 152.949 56.4731 153.208 56.3009L154.55 55.6423L157.15 56.0341L157.943 56.5609L158.313 56.5148L159.902 56.9264L160.299 55.8959L158.28 55.3295L157.566 54.6216L157.467 54.648L157.797 55.4876L157.394 55.5698L157.351 55.4711L157.493 55.4447C157.493 55.4447 157.371 54.9279 157.057 54.7862C156.967 54.7284 156.864 54.6934 156.757 54.6842C156.56 54.6985 156.372 54.7746 156.221 54.9015C155.981 55.1583 155.705 55.3799 155.402 55.56L154.573 54.9376L154.88 54.1672L155.009 54.1968C155.086 54.2157 155.164 54.2246 155.243 54.2232C155.342 54.2322 155.44 54.2076 155.523 54.153C155.605 54.0985 155.666 54.0176 155.696 53.9236C155.709 53.8744 155.708 53.8223 155.692 53.7737C155.676 53.7252 155.647 53.6823 155.607 53.6504L155.528 53.5614C155.57 53.5203 155.609 53.4751 155.643 53.4264C155.806 53.47 155.971 53.5007 156.139 53.5185C156.318 53.543 156.499 53.4969 156.644 53.3902L156.843 53.0609L157.173 52.9654L157.232 52.5209H157.441C157.517 52.6354 157.573 52.7625 157.606 52.8962L158.191 52.7449L158.362 52.1489L158.27 52.0436L158.524 51.4706L158.303 51.3159L157.926 52.3695L157.721 52.3959L157.629 52.1621L157.104 52.2015L156.809 51.7307L157.447 51.0722L158.072 50.2392L158.954 50.5158L159.169 50.9504H159.436L159.337 50.3182L160.057 49.6598L159.578 47.4965L159.886 46.8149L160.216 46.8347L160.265 46.3012L157.953 43.7957L158.029 43.1174L159.928 42.686L160.203 42.7684L161.283 42.663L161.534 42.775L163.279 42.6038L163.305 42.5873ZM163.272 43.0054L161.059 43.4862L162.585 44.3619L163.084 43.7792L163.702 43.3643L163.272 43.0054Z" fill="#004899"/>
<path d="M139.982 36.1271L139.615 34.9549H137.187L136.8 36.1271H134.771L137.643 28.2578H139.139L142.007 36.1271H139.982ZM138.439 31.2409L137.732 33.3415H139.106L138.439 31.2409Z" fill="#E01B15"/>
<path d="M149.271 35.3534C148.985 35.6161 148.65 35.8198 148.285 35.9526C147.919 36.0854 147.531 36.1448 147.143 36.1271H144.209V28.2579H147.133C147.521 28.2403 147.91 28.2996 148.275 28.4324C148.64 28.5652 148.975 28.7689 149.261 29.0317C150.183 29.9503 150.08 30.9545 150.08 32.1925C150.08 33.4305 150.193 34.4348 149.271 35.3534ZM147.949 30.4145C147.848 30.2644 147.708 30.1442 147.544 30.0666C147.38 29.989 147.198 29.9568 147.017 29.9733H146.158V34.4018H147.011C147.192 34.4184 147.373 34.3862 147.537 34.3086C147.701 34.2309 147.841 34.1108 147.943 33.9606C148.098 33.74 148.151 33.5293 148.151 32.1925C148.151 30.8557 148.098 30.645 147.943 30.4244L147.949 30.4145Z" fill="#E01B15"/>
<path d="M152.727 36.1271V28.2578H158.086V29.9831H154.666V31.3001H157.59V33.0255H154.666V34.405H158.086V36.1303L152.727 36.1271Z" fill="#E01B15"/>
<path d="M166.197 36.1271V32.3571L165.077 34.303H163.835L162.712 32.3571V36.1271H160.775V28.2578H162.679L164.453 31.7282L166.227 28.2578H168.13V36.1271H166.197Z" fill="#E01B15"/>
<path d="M171.012 36.1271V28.2578H176.374V29.9831H172.954V31.3001H175.879V33.0255H172.954V34.405H176.377V36.1303L171.012 36.1271Z" fill="#E01B15"/>
<path d="M136.345 73.083L135.09 76.527H135.909L136.081 76.0001H137.231L137.396 76.527H138.215L136.957 73.083H136.345ZM136.299 75.3614L136.676 74.2452L137.029 75.3614H136.299Z" fill="#E01B15"/>
<path d="M140.455 76.5465C140.639 76.5579 140.822 76.5293 140.993 76.4628C141.164 76.3963 141.319 76.2933 141.446 76.1614C141.697 75.9078 141.777 75.5949 141.777 75.0188V74.5677H140.495V75.2263H141.017V75.3151C141.021 75.4625 140.969 75.606 140.872 75.7169C140.816 75.7688 140.75 75.8087 140.679 75.8343C140.607 75.8598 140.531 75.8703 140.455 75.865C140.384 75.8684 140.313 75.8552 140.247 75.8267C140.182 75.7981 140.124 75.7549 140.079 75.7004C139.996 75.5917 139.94 75.4698 139.94 74.8048C139.94 74.1397 139.996 74.0211 140.079 73.9125C140.124 73.8579 140.182 73.8145 140.247 73.7854C140.313 73.7563 140.384 73.7423 140.455 73.7446C140.578 73.7307 140.702 73.7637 140.802 73.8371C140.902 73.9103 140.97 74.0183 140.994 74.1397H141.787C141.737 73.9011 141.624 73.68 141.46 73.4998C141.295 73.3195 141.085 73.1865 140.852 73.1149C140.618 73.0431 140.369 73.0354 140.132 73.0923C139.894 73.1492 139.676 73.2687 139.5 73.4384C139.17 73.7676 139.17 74.2517 139.17 74.7554V74.8739C139.17 75.3679 139.17 75.8354 139.5 76.191C139.626 76.3132 139.776 76.4078 139.94 76.4691C140.105 76.5303 140.28 76.5567 140.455 76.5465Z" fill="#E01B15"/>
<path d="M145.227 74.4363H143.915V73.7646H145.452V73.0732H143.129V76.5172H145.452V75.8258H143.915V75.1245H145.227V74.4363Z" fill="#E01B15"/>
<path d="M148.685 73.0732V74.9468L147.489 73.0732H146.795V76.5172H147.581V74.6437L148.777 76.5172H149.475V73.0732H148.685Z" fill="#E01B15"/>
<path d="M152.59 75.4798C152.569 75.5899 152.508 75.6885 152.42 75.7575C152.331 75.8265 152.22 75.8612 152.108 75.8552C152.037 75.8585 151.965 75.8454 151.9 75.8168C151.835 75.7882 151.777 75.7451 151.731 75.6905C151.649 75.5819 151.589 75.4534 151.589 74.795C151.589 74.1364 151.649 74.0081 151.731 73.8994C151.777 73.8449 151.835 73.8016 151.9 73.7731C151.965 73.7445 152.037 73.7314 152.108 73.7348C152.22 73.7288 152.331 73.7635 152.42 73.8325C152.508 73.9015 152.569 74 152.59 74.1101H153.393C153.354 73.802 153.199 73.5201 152.959 73.3219C152.719 73.1237 152.412 73.0241 152.101 73.0434C151.924 73.0372 151.748 73.0685 151.584 73.1348C151.42 73.2012 151.272 73.3013 151.15 73.4285C150.803 73.7578 150.803 74.2418 150.803 74.7455V74.8641C150.803 75.358 150.803 75.8256 151.15 76.1811C151.272 76.3084 151.42 76.4085 151.584 76.4748C151.748 76.5412 151.924 76.5724 152.101 76.5664C152.412 76.5855 152.719 76.4859 152.959 76.2877C153.199 76.0895 153.354 75.8078 153.393 75.4996L152.59 75.4798Z" fill="#E01B15"/>
<path d="M156.688 74.4363H155.376V73.7646H156.909V73.0732H154.59V76.5172H156.909V75.8258H155.376V75.1245H156.688V74.4363Z" fill="#E01B15"/>
<path d="M163.068 74.9468V74.6471C163.068 74.1565 163.068 73.7712 162.712 73.4091C162.587 73.2961 162.441 73.2089 162.282 73.1524C162.123 73.0958 161.955 73.0712 161.786 73.0798H160.518V76.5206H161.786C161.955 76.5299 162.123 76.5056 162.282 76.449C162.441 76.3924 162.587 76.3049 162.712 76.1913C163.075 75.8225 163.072 75.434 163.068 74.9468ZM162.18 75.6052C162.13 75.6784 162.063 75.737 161.983 75.7752C161.903 75.8134 161.815 75.8298 161.727 75.8225H161.304V73.7581H161.72C161.808 73.7508 161.897 73.7671 161.976 73.8053C162.056 73.8435 162.124 73.9023 162.173 73.9754C162.252 74.0874 162.272 74.2091 162.272 74.7887C162.272 75.3681 162.256 75.5065 162.18 75.6118V75.6052Z" fill="#E01B15"/>
<path d="M166.495 74.4361H165.183V73.7644H166.719V73.0762H164.396V76.517H166.719V75.8288H165.183V75.1275H166.495V74.4361Z" fill="#E01B15"/>
<path d="M170.326 76.5172H172.596V75.8258H171.113V73.0732H170.326V76.5172Z" fill="#E01B15"/>
<path d="M175.666 76.5171H176.485L175.226 73.083H174.605L173.35 76.527H174.169L174.344 76.0001H175.491L175.666 76.5171ZM174.569 75.3516L174.936 74.2354L175.289 75.3516H174.569Z" fill="#E01B15"/>
<path d="M136.877 79.375H137.75V78.6836H135.219V79.375H136.091V82.1276H136.877V79.375Z" fill="#E01B15"/>
<path d="M141.777 80.6557C141.942 80.5741 142.082 80.4478 142.179 80.2913C142.277 80.1348 142.328 79.9543 142.328 79.7701C142.329 79.6206 142.298 79.4727 142.239 79.3355C142.179 79.1984 142.092 79.0749 141.983 78.9727C141.873 78.8705 141.744 78.7917 141.603 78.7414C141.462 78.6911 141.312 78.6702 141.162 78.6801H139.801V82.1243H140.59V80.8073H140.951L141.578 82.1243H142.494L141.737 80.6756L141.777 80.6557ZM140.59 80.1685V79.3717H141.122C141.228 79.3717 141.33 79.4137 141.405 79.4883C141.48 79.563 141.522 79.6644 141.522 79.7701C141.522 79.8757 141.48 79.977 141.405 80.0517C141.33 80.1265 141.228 80.1685 141.122 80.1685H140.59Z" fill="#E01B15"/>
<path d="M145.425 78.6807L144.166 82.1248H144.989L145.164 81.5979H146.314L146.475 82.1248H147.298L146.039 78.6807H145.425ZM145.379 80.9592L145.755 79.843L146.109 80.9592H145.379Z" fill="#E01B15"/>
<path d="M150.006 82.1276V80.2542L151.203 82.1276H151.9V78.6836H151.113V80.5571L149.914 78.6836H149.217V82.1276H150.006Z" fill="#E01B15"/>
<path d="M155.532 80.0662L155.112 79.9971C155.013 79.9895 154.918 79.949 154.845 79.8818C154.794 79.8297 154.764 79.7603 154.762 79.6875C154.762 79.5097 154.911 79.3188 155.231 79.3188H155.261C155.491 79.2999 155.72 79.368 155.902 79.5097L156.394 79.0257C156.24 78.8898 156.06 78.7861 155.865 78.7205C155.67 78.6549 155.463 78.6288 155.258 78.6438C154.508 78.6438 154.006 79.0751 154.006 79.7171C153.99 79.9647 154.073 80.2084 154.237 80.3954C154.426 80.5694 154.668 80.6748 154.924 80.6951L155.354 80.7543C155.448 80.7624 155.538 80.7992 155.611 80.8597C155.668 80.9252 155.696 81.0104 155.691 81.0967C155.691 81.2613 155.598 81.4556 155.142 81.4556C154.861 81.4671 154.583 81.3862 154.352 81.2252L153.854 81.7223C154.027 81.8772 154.231 81.9949 154.452 82.0679C154.673 82.141 154.907 82.168 155.139 82.1471C155.8 82.1471 156.46 81.8178 156.46 81.0804C156.472 80.9458 156.455 80.8103 156.412 80.6824C156.369 80.5543 156.3 80.4365 156.209 80.3362C156.019 80.1753 155.781 80.0805 155.532 80.0662Z" fill="#E01B15"/>
<path d="M159.361 78.6836H158.574V82.1244H159.361V78.6836Z" fill="#E01B15"/>
<path d="M163.075 79.375H163.944V78.6836H161.416V79.375H162.288V82.1276H163.075V79.375Z" fill="#E01B15"/>
<path d="M166.784 78.6836H165.998V82.1244H166.784V78.6836Z" fill="#E01B15"/>
<path d="M171.546 80.346C171.546 79.8521 171.546 79.3845 171.199 79.029C170.941 78.7817 170.597 78.6436 170.24 78.6436C169.882 78.6436 169.538 78.7817 169.28 79.029C168.949 79.3581 168.949 79.8422 168.949 80.346V80.4646C168.949 80.9584 168.949 81.4259 169.28 81.7816C169.538 82.0288 169.882 82.1669 170.24 82.1669C170.597 82.1669 170.941 82.0288 171.199 81.7816C171.546 81.4523 171.546 80.9683 171.546 80.4646V80.346ZM170.621 81.291C170.574 81.3458 170.515 81.3899 170.45 81.4202C170.384 81.4504 170.312 81.466 170.24 81.466C170.167 81.466 170.095 81.4504 170.029 81.4202C169.964 81.3899 169.905 81.3458 169.858 81.291C169.772 81.179 169.719 81.0638 169.719 80.4052C169.719 79.7468 169.775 79.6217 169.858 79.513C169.906 79.4599 169.965 79.4175 170.031 79.3886C170.097 79.3596 170.168 79.3446 170.24 79.3446C170.311 79.3446 170.382 79.3596 170.448 79.3886C170.514 79.4175 170.573 79.4599 170.621 79.513C170.704 79.6217 170.76 79.7434 170.76 80.4052C170.76 81.067 170.707 81.179 170.621 81.291Z" fill="#E01B15"/>
<path d="M175.587 78.6836V80.5571L174.391 78.6836H173.693V82.1276H174.48V80.2542L175.679 82.1276H176.376V78.6836H175.587Z" fill="#E01B15"/>
<path d="M137.329 85.6573H136.01V84.9824H137.553V84.291H135.221V87.7449H137.553V87.0534H136.01V86.3489H137.329V85.6573Z" fill="#E01B15"/>
<path d="M136.539 83.8598L137.075 83.0498H136.344L136.123 83.8598H136.539Z" fill="#E01B15"/>
<path d="M141.305 85.3313H142.111C142.068 85.0256 141.91 84.7474 141.67 84.5522C141.43 84.357 141.125 84.259 140.816 84.2776C140.638 84.2715 140.461 84.3027 140.296 84.3691C140.131 84.4354 139.982 84.5355 139.858 84.6629C139.527 84.9922 139.527 85.4794 139.527 85.9799V86.0952C139.527 86.5925 139.527 87.0632 139.858 87.4122C139.982 87.5396 140.131 87.6398 140.296 87.7062C140.461 87.7725 140.638 87.8036 140.816 87.7975C141.128 87.8158 141.435 87.7155 141.675 87.5169C141.916 87.3183 142.071 87.0361 142.111 86.7273H141.305C141.283 86.8383 141.223 86.9378 141.133 87.0073C141.044 87.0771 140.932 87.1121 140.819 87.1061C140.748 87.1091 140.677 87.0959 140.612 87.0674C140.546 87.0388 140.489 86.9957 140.443 86.9414C140.36 86.8294 140.3 86.7011 140.3 86.0425C140.3 85.3839 140.36 85.2522 140.443 85.1404C140.489 85.0866 140.547 85.0438 140.612 85.0154C140.677 84.9868 140.748 84.9734 140.819 84.9757C140.929 84.9687 141.038 85.0005 141.127 85.0656C141.216 85.1306 141.279 85.2247 141.305 85.3313Z" fill="#E01B15"/>
<path d="M145.226 84.2778C145.048 84.27 144.87 84.3003 144.704 84.3668C144.538 84.4331 144.388 84.5342 144.265 84.6631C143.915 84.9924 143.915 85.4796 143.935 85.9801V86.0954C143.935 86.5927 143.935 87.0634 144.265 87.4124C144.523 87.6599 144.868 87.7981 145.226 87.7981C145.585 87.7981 145.93 87.6599 146.188 87.4124C146.538 87.0832 146.535 86.5992 146.535 86.0954V85.9736C146.535 85.4797 146.535 85.0089 146.188 84.6566C146.064 84.5288 145.914 84.4291 145.748 84.3637C145.583 84.2984 145.405 84.2692 145.226 84.2778ZM145.61 86.912C145.562 86.967 145.504 87.011 145.437 87.0414C145.371 87.0716 145.299 87.0872 145.226 87.0872C145.154 87.0872 145.082 87.0716 145.016 87.0414C144.949 87.011 144.891 86.967 144.843 86.912C144.757 86.8 144.708 86.6848 144.708 86.023C144.708 85.3612 144.757 85.2393 144.843 85.1273C144.891 85.0734 144.95 85.03 145.016 85.0004C145.082 84.9708 145.154 84.9555 145.226 84.9555C145.299 84.9555 145.371 84.9708 145.437 85.0004C145.503 85.03 145.562 85.0734 145.61 85.1273C145.696 85.2393 145.745 85.3545 145.745 86.023C145.745 86.6914 145.696 86.7967 145.61 86.912Z" fill="#E01B15"/>
<path d="M148.594 87.7449H150.873V87.0534H149.383V84.291H148.594V87.7449Z" fill="#E01B15"/>
<path d="M153.899 84.2775C153.721 84.2703 153.543 84.3008 153.377 84.3673C153.211 84.4337 153.062 84.5344 152.938 84.6628C152.607 84.992 152.607 85.4793 152.607 85.9798V86.095C152.607 86.5921 152.607 87.063 152.938 87.412C153.197 87.659 153.542 87.7969 153.901 87.7969C154.26 87.7969 154.605 87.659 154.864 87.412C155.195 87.0829 155.195 86.5955 155.195 86.095V85.9798C155.195 85.4826 155.195 85.0117 154.864 84.6628C154.74 84.5341 154.59 84.4334 154.423 84.3669C154.257 84.3005 154.078 84.27 153.899 84.2775ZM154.283 86.9116C154.235 86.9665 154.177 87.0105 154.111 87.0409C154.045 87.071 153.974 87.0867 153.901 87.0867C153.828 87.0867 153.757 87.071 153.691 87.0409C153.625 87.0105 153.567 86.9665 153.519 86.9116C153.434 86.7996 153.381 86.6811 153.381 86.0226C153.381 85.3641 153.434 85.2357 153.519 85.1269C153.566 85.0715 153.624 85.0273 153.69 84.9977C153.755 84.968 153.827 84.9537 153.899 84.9557C153.972 84.9537 154.044 84.968 154.111 84.9976C154.177 85.0273 154.236 85.0715 154.283 85.1269C154.368 85.2389 154.421 85.3541 154.421 86.0226C154.421 86.691 154.368 86.7963 154.283 86.9116Z" fill="#E01B15"/>
<path d="M158.997 85.3507H159.794C159.746 85.1079 159.632 84.8826 159.466 84.699C159.3 84.5153 159.086 84.3801 158.849 84.3077C158.612 84.2354 158.359 84.2287 158.118 84.2882C157.877 84.3479 157.657 84.4715 157.481 84.6461C157.15 84.9754 157.15 85.4626 157.15 85.9631V86.0783C157.15 86.5756 157.15 87.0464 157.481 87.3953C157.747 87.6432 158.098 87.7812 158.462 87.7812C158.826 87.7812 159.177 87.6432 159.443 87.3953C159.694 87.1385 159.774 86.8291 159.774 86.2495V85.7919H158.452V86.4505H158.974V86.5426C158.981 86.6179 158.971 86.6939 158.945 86.7647C158.919 86.8358 158.877 86.9002 158.823 86.9533C158.769 87.0065 158.704 87.0471 158.633 87.0723C158.561 87.0975 158.485 87.1066 158.409 87.099C158.345 87.0918 158.283 87.0714 158.227 87.0391C158.172 87.0068 158.123 86.9632 158.085 86.9115C158.003 86.8027 157.947 86.6809 157.947 86.0125C157.947 85.3442 158.003 85.2256 158.085 85.117C158.131 85.0616 158.188 85.0174 158.254 84.9878C158.319 84.958 158.39 84.9436 158.462 84.9458C158.586 84.9331 158.71 84.9679 158.81 85.043C158.909 85.1183 158.976 85.2282 158.997 85.3507Z" fill="#E01B15"/>
<path d="M162.651 84.291H161.861V87.7449H162.651V84.291Z" fill="#E01B15"/>
<path d="M167.132 87.2051C167.302 86.8542 167.369 86.463 167.327 86.0758V85.9606C167.327 85.4633 167.327 84.9925 166.98 84.6435C166.721 84.3959 166.377 84.2578 166.018 84.2578C165.66 84.2578 165.315 84.3959 165.057 84.6435C164.727 84.9727 164.727 85.4601 164.727 85.9606V86.0758C164.727 86.5729 164.727 87.0438 165.057 87.3928C165.181 87.5211 165.331 87.6219 165.496 87.6882C165.662 87.7546 165.84 87.7852 166.018 87.7779C166.249 87.7836 166.477 87.7291 166.679 87.62H166.706L166.973 87.8867L167.36 87.5048L167.105 87.2512L167.132 87.2051ZM166.517 86.6355L166.316 86.4313L165.929 86.8166L166.18 87.0669H166.104C166.078 87.0699 166.051 87.0699 166.025 87.0669C165.953 87.068 165.881 87.053 165.815 87.0228C165.749 86.9925 165.691 86.948 165.645 86.8923C165.559 86.7803 165.506 86.6619 165.506 86.0033C165.506 85.3449 165.559 85.2164 165.645 85.1077C165.691 85.0523 165.749 85.0081 165.815 84.9784C165.881 84.9488 165.953 84.9345 166.025 84.9365C166.098 84.9345 166.17 84.9488 166.236 84.9784C166.303 85.008 166.361 85.0523 166.408 85.1077C166.491 85.2164 166.544 85.3381 166.544 86.0033C166.537 86.2734 166.527 86.4412 166.517 86.5433V86.6355Z" fill="#E01B15"/>
<path d="M170.115 86.5262V84.2773H169.318V86.5328C169.368 86.8423 169.527 87.1239 169.766 87.3272C170.005 87.5306 170.309 87.6423 170.623 87.6423C170.938 87.6423 171.242 87.5306 171.481 87.3272C171.72 87.1239 171.879 86.8423 171.929 86.5328V84.2773H171.139V86.5131C171.147 86.585 171.14 86.6579 171.117 86.7266C171.094 86.7954 171.056 86.8584 171.007 86.9114C170.957 86.9643 170.897 87.0057 170.829 87.0332C170.762 87.0604 170.689 87.0728 170.617 87.0695C170.547 87.0708 170.477 87.0572 170.413 87.0298C170.348 87.0024 170.291 86.9617 170.243 86.9104C170.196 86.859 170.16 86.7982 170.138 86.732C170.115 86.6658 170.108 86.5957 170.115 86.5262Z" fill="#E01B15"/>
<path d="M176.151 85.6573H174.837V84.9824H176.376V84.291H174.047V87.7449H176.376V87.0534H174.837V86.3489H176.151V85.6573Z" fill="#E01B15"/>
</g>
<rect x="1059.5" y="34.5" width="154" height="47" rx="3.5" stroke="#0063CB"/>
<g clip-path="url(#clip1_935_558)">
<g clip-path="url(#clip2_935_558)">
<path d="M1080.65 67.375H1078.97C1078.64 67.375 1078.32 67.2433 1078.09 67.0089C1077.85 66.7745 1077.72 66.4565 1077.72 66.125V54.25C1077.72 53.9185 1077.85 53.6005 1078.09 53.3661C1078.32 53.1317 1078.64 53 1078.97 53H1080.65" stroke="#0063CB" stroke-linecap="round" stroke-linejoin="round"/>
<path d="M1089.7 51.4335L1088.53 51.8779C1087.88 52.1233 1087.56 52.8454 1087.8 53.4906L1092.69 66.3424C1092.94 66.9877 1093.66 67.3118 1094.3 67.0664L1095.47 66.622C1096.12 66.3766 1096.44 65.6546 1096.2 65.0093L1091.31 52.1575C1091.06 51.5122 1090.34 51.1881 1089.7 51.4335Z" stroke="#0063CB" stroke-linecap="round" stroke-linejoin="round"/>
<path d="M1086.47 48.625H1083.97C1083.28 48.625 1082.72 49.1846 1082.72 49.875V66.125C1082.72 66.8154 1083.28 67.375 1083.97 67.375H1086.47C1087.16 67.375 1087.72 66.8154 1087.72 66.125V49.875C1087.72 49.1846 1087.16 48.625 1086.47 48.625Z" stroke="#0063CB" stroke-linecap="round" stroke-linejoin="round"/>
<path d="M1085.22 51.125V61.125" stroke="#0063CB" stroke-linecap="round" stroke-linejoin="round"/>
<path d="M1085.22 63.9375C1085.16 63.9375 1085.1 63.9558 1085.05 63.9902C1085 64.0245 1084.96 64.0733 1084.93 64.1304C1084.91 64.1875 1084.9 64.2503 1084.91 64.311C1084.93 64.3716 1084.96 64.4273 1085 64.471C1085.04 64.5147 1085.1 64.5444 1085.16 64.5565C1085.22 64.5686 1085.28 64.5624 1085.34 64.5387C1085.4 64.5151 1085.45 64.475 1085.48 64.4236C1085.51 64.3722 1085.53 64.3118 1085.53 64.25C1085.53 64.1671 1085.5 64.0876 1085.44 64.029C1085.38 63.9704 1085.3 63.9375 1085.22 63.9375Z" stroke="#0063CB" stroke-linecap="round" stroke-linejoin="round"/>
</g>
</g>
<path d="M1106.94 65V53.8H1110.11C1112.46 53.8 1113.9 55.048 1113.9 57.032C1113.9 58.392 1113.23 59.4 1112.06 59.896L1115.61 65H1113.43L1110.31 60.264C1110.23 60.264 1110.17 60.264 1110.11 60.264H1108.76V65H1106.94ZM1110.2 55.352H1108.76V58.712H1110.2C1111.34 58.712 1111.99 58.072 1111.99 57C1111.99 55.992 1111.34 55.352 1110.2 55.352ZM1124.23 63.688C1123.47 64.696 1122.24 65.32 1120.74 65.32C1117.95 65.32 1116.31 63.32 1116.31 60.968C1116.31 58.552 1117.84 56.616 1120.4 56.616C1122.63 56.616 1124.07 58.136 1124.07 60.184C1124.07 60.552 1124.02 60.92 1123.95 61.16H1118C1118.11 62.92 1119.19 63.832 1120.74 63.832C1121.71 63.832 1122.53 63.4 1123.03 62.728L1124.23 63.688ZM1120.37 57.992C1119.17 57.992 1118.34 58.68 1118.08 59.928H1122.42C1122.39 58.92 1121.67 57.992 1120.37 57.992ZM1125.33 63.864L1126.47 62.872C1127 63.544 1127.64 63.976 1128.44 63.976C1129.22 63.976 1129.65 63.496 1129.65 62.888C1129.65 61.256 1125.7 61.848 1125.7 59C1125.7 57.672 1126.82 56.616 1128.44 56.616C1129.62 56.616 1130.66 57.192 1131.24 57.96L1130.12 58.936C1129.69 58.36 1129.13 57.96 1128.45 57.96C1127.69 57.96 1127.3 58.408 1127.3 58.952C1127.3 60.568 1131.25 60.024 1131.25 62.792C1131.24 64.376 1129.96 65.32 1128.45 65.32C1127.09 65.32 1126.09 64.776 1125.33 63.864ZM1132.43 63.864L1133.56 62.872C1134.09 63.544 1134.73 63.976 1135.53 63.976C1136.31 63.976 1136.75 63.496 1136.75 62.888C1136.75 61.256 1132.79 61.848 1132.79 59C1132.79 57.672 1133.91 56.616 1135.53 56.616C1136.71 56.616 1137.75 57.192 1138.33 57.96L1137.21 58.936C1136.78 58.36 1136.22 57.96 1135.55 57.96C1134.78 57.96 1134.39 58.408 1134.39 58.952C1134.39 60.568 1138.35 60.024 1138.35 62.792C1138.33 64.376 1137.05 65.32 1135.55 65.32C1134.19 65.32 1133.18 64.776 1132.43 63.864ZM1144.1 56.616C1146.72 56.616 1148.48 58.584 1148.48 60.968C1148.48 63.352 1146.72 65.32 1144.1 65.32C1141.49 65.32 1139.71 63.352 1139.71 60.968C1139.71 58.584 1141.49 56.616 1144.1 56.616ZM1144.11 63.768C1145.63 63.768 1146.75 62.504 1146.75 60.968C1146.75 59.4 1145.63 58.168 1144.11 58.168C1142.56 58.168 1141.44 59.416 1141.44 60.968C1141.44 62.52 1142.56 63.768 1144.11 63.768ZM1156.01 61.544V56.936H1157.68V61.464C1157.68 63.88 1156.28 65.32 1154.03 65.32C1151.76 65.32 1150.36 63.88 1150.36 61.464V56.936H1152.03V61.544C1152.03 62.936 1152.76 63.768 1154.03 63.768C1155.26 63.768 1156.01 62.936 1156.01 61.544ZM1160.18 65V56.936H1161.83V57.848C1162.39 57.224 1163.09 56.776 1164.08 56.776C1164.34 56.776 1164.58 56.824 1164.79 56.888V58.504C1164.53 58.44 1164.28 58.392 1163.94 58.392C1162.92 58.392 1162.24 58.936 1161.83 59.624V65H1160.18ZM1169.96 63.768C1170.87 63.768 1171.6 63.32 1172.05 62.696L1173.35 63.688C1172.61 64.68 1171.43 65.32 1169.94 65.32C1167.24 65.32 1165.54 63.32 1165.54 60.968C1165.54 58.616 1167.24 56.616 1169.94 56.616C1171.41 56.616 1172.61 57.256 1173.35 58.248L1172.05 59.24C1171.6 58.616 1170.87 58.168 1169.94 58.168C1168.39 58.168 1167.27 59.384 1167.27 60.968C1167.27 62.568 1168.39 63.768 1169.96 63.768ZM1182.04 63.688C1181.29 64.696 1180.05 65.32 1178.55 65.32C1175.77 65.32 1174.12 63.32 1174.12 60.968C1174.12 58.552 1175.65 56.616 1178.21 56.616C1180.44 56.616 1181.88 58.136 1181.88 60.184C1181.88 60.552 1181.83 60.92 1181.77 61.16H1175.81C1175.93 62.92 1177 63.832 1178.55 63.832C1179.53 63.832 1180.34 63.4 1180.84 62.728L1182.04 63.688ZM1178.18 57.992C1176.98 57.992 1176.15 58.68 1175.89 59.928H1180.23C1180.2 58.92 1179.48 57.992 1178.18 57.992ZM1183.15 63.864L1184.28 62.872C1184.81 63.544 1185.45 63.976 1186.25 63.976C1187.03 63.976 1187.47 63.496 1187.47 62.888C1187.47 61.256 1183.51 61.848 1183.51 59C1183.51 57.672 1184.63 56.616 1186.25 56.616C1187.43 56.616 1188.47 57.192 1189.05 57.96L1187.93 58.936C1187.5 58.36 1186.94 57.96 1186.27 57.96C1185.5 57.96 1185.11 58.408 1185.11 58.952C1185.11 60.568 1189.07 60.024 1189.07 62.792C1189.05 64.376 1187.77 65.32 1186.27 65.32C1184.91 65.32 1183.9 64.776 1183.15 63.864Z" fill="#0063CB"/>
<path d="M220.06 62V48H228.22V50.36H222.9V53.68H227.42V56.04H222.9V62H220.06ZM232.77 62.3C230.75 62.3 229.37 61.14 229.37 59.28C229.37 57.76 230.55 56.62 232.71 56.26L235.79 55.74V55.48C235.79 54.42 234.99 53.74 233.83 53.74C232.85 53.74 232.09 54.2 231.55 54.94L229.69 53.52C230.59 52.28 232.07 51.52 233.91 51.52C236.83 51.52 238.33 53.26 238.33 55.48V62H235.79V61.02C235.15 61.8 233.95 62.3 232.77 62.3ZM231.89 59.16C231.89 59.84 232.43 60.28 233.29 60.28C234.45 60.28 235.29 59.74 235.79 58.94V57.52L233.39 57.92C232.33 58.1 231.89 58.54 231.89 59.16ZM246.079 60C247.079 60 247.879 59.54 248.359 58.84L250.339 60.36C249.399 61.6 247.919 62.4 246.079 62.4C242.599 62.4 240.519 59.9 240.519 56.96C240.519 54.02 242.599 51.52 246.079 51.52C247.919 51.52 249.399 52.32 250.339 53.56L248.359 55.08C247.879 54.38 247.079 53.92 246.039 53.92C244.379 53.92 243.159 55.2 243.159 56.96C243.159 58.74 244.379 60 246.079 60ZM253.515 50.16C252.615 50.16 251.855 49.4 251.855 48.5C251.855 47.6 252.615 46.84 253.515 46.84C254.415 46.84 255.155 47.6 255.155 48.5C255.155 49.4 254.415 50.16 253.515 50.16ZM252.235 62V51.92H254.775V62H252.235ZM257.821 62V47H260.361V62H257.821ZM264.687 50.16C263.787 50.16 263.027 49.4 263.027 48.5C263.027 47.6 263.787 46.84 264.687 46.84C265.587 46.84 266.327 47.6 266.327 48.5C266.327 49.4 265.587 50.16 264.687 50.16ZM263.407 62V51.92H265.947V62H263.407ZM267.873 55.66H273.273V58.12H267.873V55.66ZM272.585 50.58V48H284.065V50.58H279.745V62H276.905V50.58H272.585ZM283.652 62L288.952 48H292.672L297.972 62H294.952L293.612 58.36H288.012L286.672 62H283.652ZM288.892 55.94H292.732L290.812 50.68L288.892 55.94ZM306.261 59.74C307.861 59.74 309.121 58.96 309.921 57.82L312.161 59.54C310.881 61.28 308.801 62.4 306.261 62.4C301.841 62.4 298.821 59 298.821 55C298.821 51 301.841 47.6 306.261 47.6C308.801 47.6 310.881 48.74 312.161 50.44L309.921 52.18C309.121 51.04 307.861 50.26 306.261 50.26C303.621 50.26 301.741 52.32 301.741 55C301.741 57.68 303.621 59.74 306.261 59.74ZM320.968 59.74C322.568 59.74 323.828 58.96 324.628 57.82L326.868 59.54C325.588 61.28 323.508 62.4 320.968 62.4C316.548 62.4 313.528 59 313.528 55C313.528 51 316.548 47.6 320.968 47.6C323.508 47.6 325.588 48.74 326.868 50.44L324.628 52.18C323.828 51.04 322.568 50.26 320.968 50.26C318.328 50.26 316.448 52.32 316.448 55C316.448 57.68 318.328 59.74 320.968 59.74ZM328.093 50.58V48H339.573V50.58H335.253V62H332.413V50.58H328.093Z" fill="#161616"/>
<defs>
<clipPath id="clip0_935_558">
<rect width="60" height="70" fill="white" transform="translate(126 23)"/>
</clipPath>
<clipPath id="clip1_935_558">
<rect width="20" height="20" fill="white" transform="translate(1077 48)"/>
</clipPath>
<clipPath id="clip2_935_558">
<rect width="20" height="20" fill="white" transform="translate(1077 48)"/>
</clipPath>
</defs>
</svg>
