<svg width="452" height="332" viewBox="0 0 452 332" fill="none" xmlns="http://www.w3.org/2000/svg">
<g opacity="0.8">
<path d="M114.051 85.1079L217.655 130.18" stroke="#C1C1FB" stroke-linecap="round" stroke-linejoin="round"/>
<path d="M35.2762 148.832L19.3518 208.263L124.368 259.98L253.557 284.216L289.5 294L344.754 308.652L402.89 284.255L419.833 221.024L371.168 161.715L321.436 111.903L238.197 43.6868L114.051 85.1079L35.2762 148.832Z" stroke="#C1C1FB" stroke-linecap="round" stroke-linejoin="round"/>
<path d="M35.2756 148.832L143.208 177.752L19.3512 208.263" stroke="#C1C1FB" stroke-linecap="round" stroke-linejoin="round"/>
<path d="M143.208 177.752L124.368 259.98L223.023 211.929L253.556 284.216" stroke="#C1C1FB" stroke-linecap="round" stroke-linejoin="round"/>
<path d="M114.051 85.1079L143.208 177.752L217.655 130.18" stroke="#C1C1FB" stroke-linecap="round" stroke-linejoin="round"/>
<path d="M371.168 161.715L351.888 233.668L419.833 221.024" stroke="#C1C1FB" stroke-linecap="round" stroke-linejoin="round"/>
<path d="M238.196 43.6868L217.655 130.18L321.436 111.903" stroke="#C1C1FB" stroke-linecap="round" stroke-linejoin="round"/>
<path d="M402.89 284.256L351.887 233.668L253.556 284.216L344.754 308.652" stroke="#C1C1FB" stroke-linecap="round" stroke-linejoin="round"/>
<path d="M223.023 211.93L351.888 233.668L282.374 176.479L369.239 168.911" stroke="#C1C1FB" stroke-linecap="round" stroke-linejoin="round"/>
<path d="M143.208 177.752L223.023 211.929L217.655 130.18L282.374 176.479" stroke="#C1C1FB" stroke-linecap="round" stroke-linejoin="round"/>
</g>
<path d="M35.4755 166.984C45.6752 166.984 53.9437 158.715 53.9437 148.515C53.9437 138.316 45.6752 130.047 35.4755 130.047C25.2757 130.047 17.0072 138.316 17.0072 148.515C17.0072 158.715 25.2757 166.984 35.4755 166.984Z" fill="#F9F9FF" stroke="#CDCDFC" stroke-linecap="round" stroke-linejoin="round"/>
<path d="M143.207 196.225C153.407 196.225 161.675 187.957 161.675 177.757C161.675 167.557 153.407 159.289 143.207 159.289C133.007 159.289 124.739 167.557 124.739 177.757C124.739 187.957 133.007 196.225 143.207 196.225Z" fill="#F9F9FF" stroke="#CDCDFC" stroke-linecap="round" stroke-linejoin="round"/>
<path d="M419.819 239.042C430.018 239.042 438.287 230.773 438.287 220.574C438.287 210.374 430.018 202.105 419.819 202.105C409.619 202.105 401.35 210.374 401.35 220.574C401.35 230.773 409.619 239.042 419.819 239.042Z" fill="#F9F9FF" stroke="#CDCDFC" stroke-linecap="round" stroke-linejoin="round"/>
<g clip-path="url(#clip0_3088_14799)">
<path d="M416.933 223.365V216.919C416.933 216.765 416.872 216.619 416.764 216.51C416.656 216.402 416.509 216.341 416.356 216.341H414.625C413.706 216.341 412.825 216.706 412.176 217.356C411.527 218.005 411.162 218.886 411.162 219.804V224.421C411.162 224.727 411.283 225.021 411.5 225.237C411.716 225.454 412.01 225.575 412.316 225.575H412.893" stroke="#ADADF9" stroke-linecap="round" stroke-linejoin="round"/>
<path d="M411.162 220.958H413.47C413.776 220.958 414.07 220.837 414.286 220.62C414.503 220.404 414.625 220.11 414.625 219.804V216.341" stroke="#ADADF9" stroke-linecap="round" stroke-linejoin="round"/>
<path d="M416.356 226.73C417.312 226.73 418.087 225.955 418.087 224.998C418.087 224.042 417.312 223.267 416.356 223.267C415.4 223.267 414.625 224.042 414.625 224.998C414.625 225.955 415.4 226.73 416.356 226.73Z" stroke="#ADADF9" stroke-linecap="round" stroke-linejoin="round"/>
<path d="M425.59 226.73C426.546 226.73 427.321 225.955 427.321 224.998C427.321 224.042 426.546 223.267 425.59 223.267C424.634 223.267 423.859 224.042 423.859 224.998C423.859 225.955 424.634 226.73 425.59 226.73Z" stroke="#ADADF9" stroke-linecap="round" stroke-linejoin="round"/>
<path d="M419.819 225.576H422.127" stroke="#ADADF9" stroke-linecap="round" stroke-linejoin="round"/>
<path d="M419.242 216.341H428.476" stroke="#ADADF9" stroke-linecap="round" stroke-linejoin="round"/>
<path d="M419.242 218.65H428.476" stroke="#ADADF9" stroke-linecap="round" stroke-linejoin="round"/>
<path d="M416.933 220.958H426.744" stroke="#ADADF9" stroke-linecap="round" stroke-linejoin="round"/>
<path d="M422.127 214.033V220.958" stroke="#ADADF9" stroke-linecap="round" stroke-linejoin="round"/>
</g>
<path d="M113.966 103.884C124.165 103.884 132.434 95.6154 132.434 85.4156C132.434 75.2159 124.165 66.9474 113.966 66.9474C103.766 66.9474 95.4973 75.2159 95.4973 85.4156C95.4973 95.6154 103.766 103.884 113.966 103.884Z" fill="#F9F9FF" stroke="#CDCDFC" stroke-linecap="round" stroke-linejoin="round"/>
<path d="M217.849 148.515C228.049 148.515 236.318 140.247 236.318 130.047C236.318 119.847 228.049 111.579 217.849 111.579C207.65 111.579 199.381 119.847 199.381 130.047C199.381 140.247 207.65 148.515 217.849 148.515Z" fill="#F9F9FF" stroke="#CDCDFC" stroke-linecap="round" stroke-linejoin="round"/>
<path d="M124.739 278.563C134.938 278.563 143.207 270.294 143.207 260.094C143.207 249.895 134.938 241.626 124.739 241.626C114.539 241.626 106.271 249.895 106.271 260.094C106.271 270.294 114.539 278.563 124.739 278.563Z" fill="#F9F9FF" stroke="#CDCDFC" stroke-linecap="round" stroke-linejoin="round"/>
<path d="M223.236 230.084C233.436 230.084 241.704 221.815 241.704 211.615C241.704 201.416 233.436 193.147 223.236 193.147C213.036 193.147 204.768 201.416 204.768 211.615C204.768 221.815 213.036 230.084 223.236 230.084Z" fill="#F9F9FF" stroke="#CDCDFC" stroke-linecap="round" stroke-linejoin="round"/>
<g clip-path="url(#clip1_3088_14799)">
<path d="M224.968 214.886V219.503H220.35" stroke="#ADADF9" stroke-linecap="round" stroke-linejoin="round"/>
<path d="M222.659 217.194V219.503" stroke="#ADADF9" stroke-linecap="round" stroke-linejoin="round"/>
<path d="M220.35 215.347V219.503H215.733V216.04" stroke="#ADADF9" stroke-linecap="round" stroke-linejoin="round"/>
<path d="M219.773 216.04L222.659 212.577H217.465L214.579 216.04H219.773Z" stroke="#ADADF9" stroke-linecap="round" stroke-linejoin="round"/>
<path d="M226.122 216.04L222.659 212.577" stroke="#ADADF9" stroke-linecap="round" stroke-linejoin="round"/>
<path d="M223.211 206.806L227.276 202.189H222.082L218.016 206.806H223.211Z" stroke="#ADADF9" stroke-linecap="round" stroke-linejoin="round"/>
<path d="M231.893 206.806L227.276 202.189" stroke="#ADADF9" stroke-linecap="round" stroke-linejoin="round"/>
<path d="M223.813 206.122V210.269" stroke="#ADADF9" stroke-linecap="round" stroke-linejoin="round"/>
<path d="M230.739 205.652V216.04H228.43" stroke="#ADADF9" stroke-linecap="round" stroke-linejoin="round"/>
<path d="M219.196 210.269V206.806" stroke="#ADADF9" stroke-linecap="round" stroke-linejoin="round"/>
<path d="M226.122 207.383V207.96" stroke="#ADADF9" stroke-linecap="round" stroke-linejoin="round"/>
<path d="M228.43 207.383V207.96" stroke="#ADADF9" stroke-linecap="round" stroke-linejoin="round"/>
<path d="M226.122 210.269V210.846" stroke="#ADADF9" stroke-linecap="round" stroke-linejoin="round"/>
<path d="M228.43 210.269V210.846" stroke="#ADADF9" stroke-linecap="round" stroke-linejoin="round"/>
<path d="M228.43 213.154V213.731" stroke="#ADADF9" stroke-linecap="round" stroke-linejoin="round"/>
</g>
<path d="M19.3158 227.006C29.5155 227.006 37.784 218.737 37.784 208.537C37.784 198.338 29.5155 190.069 19.3158 190.069C9.11605 190.069 0.847534 198.338 0.847534 208.537C0.847534 218.737 9.11605 227.006 19.3158 227.006Z" fill="#F9F9FF" stroke="#CDCDFC" stroke-linecap="round" stroke-linejoin="round"/>
<path d="M253.247 302.418C263.447 302.418 271.715 294.149 271.715 283.949C271.715 273.75 263.447 265.481 253.247 265.481C243.047 265.481 234.779 273.75 234.779 283.949C234.779 294.149 243.047 302.418 253.247 302.418Z" fill="#F9F9FF" stroke="#CDCDFC" stroke-linecap="round" stroke-linejoin="round"/>
<path d="M344.819 327.042C355.018 327.042 363.287 318.773 363.287 308.574C363.287 298.374 355.018 290.105 344.819 290.105C334.619 290.105 326.35 298.374 326.35 308.574C326.35 318.773 334.619 327.042 344.819 327.042Z" fill="#F9F9FF" stroke="#CDCDFC" stroke-linecap="round" stroke-linejoin="round"/>
<path d="M282.488 194.686C292.688 194.686 300.957 186.418 300.957 176.218C300.957 166.018 292.688 157.75 282.488 157.75C272.289 157.75 264.02 166.018 264.02 176.218C264.02 186.418 272.289 194.686 282.488 194.686Z" fill="#F9F9FF" stroke="#CDCDFC" stroke-linecap="round" stroke-linejoin="round"/>
<path d="M351.744 252.399C361.944 252.399 370.212 244.131 370.212 233.931C370.212 223.731 361.944 215.463 351.744 215.463C341.545 215.463 333.276 223.731 333.276 233.931C333.276 244.131 341.545 252.399 351.744 252.399Z" fill="#F9F9FF" stroke="#CDCDFC" stroke-linecap="round" stroke-linejoin="round"/>
<g clip-path="url(#clip2_3088_14799)">
<path d="M347.415 225.531C347.362 225.452 347.291 225.387 347.207 225.343C347.123 225.298 347.03 225.274 346.935 225.274C346.84 225.274 346.746 225.298 346.662 225.343C346.579 225.387 346.507 225.452 346.454 225.531L343.472 230.468H345.203L342.972 233.645C342.922 233.733 342.895 233.832 342.896 233.933C342.896 234.034 342.923 234.133 342.973 234.22C343.024 234.308 343.097 234.38 343.184 234.431C343.272 234.481 343.371 234.508 343.472 234.508H350.397C350.498 234.508 350.598 234.482 350.685 234.431C350.773 234.381 350.846 234.308 350.896 234.221C350.947 234.133 350.974 234.034 350.974 233.933C350.975 233.832 350.948 233.733 350.898 233.645L348.666 230.468H350.397L347.415 225.531Z" stroke="#ADADF9" stroke-linecap="round" stroke-linejoin="round"/>
<path d="M346.935 234.508V238.034" stroke="#ADADF9" stroke-linecap="round" stroke-linejoin="round"/>
<path d="M356.563 225.484C356.52 225.42 356.462 225.367 356.393 225.33C356.324 225.293 356.248 225.274 356.17 225.274C356.093 225.274 356.016 225.293 355.948 225.33C355.879 225.367 355.821 225.42 355.777 225.484L353.337 229.314H354.753L352.769 232.07C352.728 232.142 352.707 232.224 352.707 232.306C352.707 232.389 352.729 232.47 352.771 232.542C352.812 232.614 352.872 232.673 352.944 232.714C353.015 232.755 353.097 232.777 353.18 232.777H359.159C359.241 232.777 359.323 232.755 359.395 232.714C359.466 232.673 359.526 232.614 359.568 232.542C359.609 232.47 359.631 232.389 359.631 232.306C359.632 232.224 359.61 232.142 359.569 232.07L357.587 229.314H359.003L356.563 225.484Z" stroke="#ADADF9" stroke-linecap="round" stroke-linejoin="round"/>
<path d="M356.17 232.777V235.882" stroke="#ADADF9" stroke-linecap="round" stroke-linejoin="round"/>
<path d="M342.36 238.548C344.534 237.793 346.898 237.78 349.08 238.511C351.263 239.243 353.141 240.678 354.42 242.591" stroke="#ADADF9" stroke-linecap="round" stroke-linejoin="round"/>
<path d="M350.181 238.947C352.426 236.834 355.394 235.659 358.477 235.663C358.867 235.663 359.251 235.681 359.632 235.716" stroke="#ADADF9" stroke-linecap="round" stroke-linejoin="round"/>
</g>
<path d="M321.733 130.047C331.933 130.047 340.202 121.779 340.202 111.579C340.202 101.379 331.933 93.1107 321.733 93.1107C311.534 93.1107 303.265 101.379 303.265 111.579C303.265 121.779 311.534 130.047 321.733 130.047Z" fill="#F9F9FF" stroke="#CDCDFC" stroke-linecap="round" stroke-linejoin="round"/>
<path d="M369.443 187.76C379.643 187.76 387.911 179.492 387.911 169.292C387.911 159.092 379.643 150.824 369.443 150.824C359.243 150.824 350.975 159.092 350.975 169.292C350.975 179.492 359.243 187.76 369.443 187.76Z" fill="#F9F9FF" stroke="#CDCDFC" stroke-linecap="round" stroke-linejoin="round"/>
<g clip-path="url(#clip3_3088_14799)">
<path d="M363.861 177.66H361.552V170.157C361.552 169.851 361.674 169.557 361.891 169.341C362.107 169.124 362.401 169.003 362.707 169.003C363.013 169.003 363.306 169.124 363.523 169.341C363.739 169.557 363.861 169.851 363.861 170.157V177.66Z" stroke="#ADADF9" stroke-linecap="round" stroke-linejoin="round"/>
<path d="M378.867 177.66H376.558V170.157C376.558 169.851 376.68 169.557 376.896 169.341C377.113 169.124 377.406 169.003 377.712 169.003C378.018 169.003 378.312 169.124 378.528 169.341C378.745 169.557 378.867 169.851 378.867 170.157V177.66Z" stroke="#ADADF9" stroke-linecap="round" stroke-linejoin="round"/>
<path d="M366.309 167.849L366.746 163.231" stroke="#ADADF9" stroke-linecap="round" stroke-linejoin="round"/>
<path d="M374.111 167.849L373.672 163.231" stroke="#ADADF9" stroke-linecap="round" stroke-linejoin="round"/>
<path d="M367.518 160.923H372.905C373.109 160.923 373.305 161.004 373.449 161.148C373.593 161.293 373.674 161.488 373.674 161.692V163.232H366.749V161.692C366.749 161.591 366.769 161.491 366.807 161.398C366.846 161.305 366.903 161.22 366.974 161.148C367.119 161.004 367.314 160.923 367.518 160.923Z" stroke="#ADADF9" stroke-linecap="round" stroke-linejoin="round"/>
<path d="M363.861 170.157H376.558" stroke="#ADADF9" stroke-linecap="round" stroke-linejoin="round"/>
<path d="M363.861 175.928H376.558" stroke="#ADADF9" stroke-linecap="round" stroke-linejoin="round"/>
<path d="M366.747 170.157V171.889" stroke="#ADADF9" stroke-linecap="round" stroke-linejoin="round"/>
<path d="M370.209 170.157V171.889" stroke="#ADADF9" stroke-linecap="round" stroke-linejoin="round"/>
<path d="M373.672 170.157V171.889" stroke="#ADADF9" stroke-linecap="round" stroke-linejoin="round"/>
<path d="M366.747 175.928V177.66" stroke="#ADADF9" stroke-linecap="round" stroke-linejoin="round"/>
<path d="M370.209 175.928V177.66" stroke="#ADADF9" stroke-linecap="round" stroke-linejoin="round"/>
<path d="M373.672 175.928V177.66" stroke="#ADADF9" stroke-linecap="round" stroke-linejoin="round"/>
<path d="M363.861 173.62H376.558" stroke="#ADADF9" stroke-linecap="round" stroke-linejoin="round"/>
</g>
<path d="M237.857 62.3303C248.056 62.3303 256.325 54.0618 256.325 43.862C256.325 33.6623 248.056 25.3938 237.857 25.3938C227.657 25.3938 219.388 33.6623 219.388 43.862C219.388 54.0618 227.657 62.3303 237.857 62.3303Z" fill="#F9F9FF" stroke="#CDCDFC" stroke-linecap="round" stroke-linejoin="round"/>
<path d="M104.731 88.4937V94.6497" stroke="#ADADF9" stroke-linecap="round" stroke-linejoin="round"/>
<path d="M113.966 88.4937V94.6497" stroke="#ADADF9" stroke-linecap="round" stroke-linejoin="round"/>
<path d="M123.2 88.4937V94.6497" stroke="#ADADF9" stroke-linecap="round" stroke-linejoin="round"/>
<path d="M123.2 90.3406H104.731" stroke="#ADADF9" stroke-linecap="round" stroke-linejoin="round"/>
<path d="M123.2 92.803H104.731" stroke="#ADADF9" stroke-linecap="round" stroke-linejoin="round"/>
<path d="M105.348 86.0313L110.888 82.3376L116.429 86.0313" stroke="#ADADF9" stroke-linecap="round" stroke-linejoin="round"/>
<path d="M115.197 79.8752C116.217 79.8752 117.044 79.0483 117.044 78.0283C117.044 77.0084 116.217 76.1815 115.197 76.1815C114.177 76.1815 113.35 77.0084 113.35 78.0283C113.35 79.0483 114.177 79.8752 115.197 79.8752Z" stroke="#ADADF9" stroke-linecap="round" stroke-linejoin="round"/>
<path d="M113.966 84.3897L118.89 81.1064L123.201 83.9801" stroke="#ADADF9" stroke-linecap="round" stroke-linejoin="round"/>
<path d="M37.0084 151.309V141.741C37.0084 141.089 36.7493 140.463 36.2879 140.002C35.8266 139.541 35.2009 139.281 34.5484 139.281C33.896 139.281 33.2703 139.541 32.8089 140.002C32.3476 140.463 32.0884 141.089 32.0884 141.741V151.309C31.5314 151.807 31.1388 152.463 30.9625 153.189C30.7862 153.916 30.8346 154.678 31.1013 155.376C31.368 156.074 31.8403 156.675 32.4559 157.099C33.0714 157.523 33.8011 157.75 34.5484 157.75C35.2957 157.75 36.0255 157.523 36.641 157.099C37.2565 156.675 37.7289 156.074 37.9955 155.376C38.2622 154.678 38.3106 153.916 38.1343 153.189C37.9581 152.463 37.5655 151.807 37.0084 151.309Z" stroke="#ADADF9" stroke-linecap="round" stroke-linejoin="round"/>
<path d="M34.5482 155.271C35.2276 155.271 35.7783 154.721 35.7783 154.041C35.7783 153.362 35.2276 152.811 34.5482 152.811C33.8689 152.811 33.3182 153.362 33.3182 154.041C33.3182 154.721 33.8689 155.271 34.5482 155.271Z" stroke="#ADADF9" stroke-linecap="round" stroke-linejoin="round"/>
<path d="M34.5487 141.741V152.811" stroke="#ADADF9" stroke-linecap="round" stroke-linejoin="round"/>
<path d="M39.4683 141.741H40.6983" stroke="#ADADF9" stroke-linecap="round" stroke-linejoin="round"/>
<path d="M39.4683 145.431H40.6983" stroke="#ADADF9" stroke-linecap="round" stroke-linejoin="round"/>
<path d="M39.4683 149.121H40.6983" stroke="#ADADF9" stroke-linecap="round" stroke-linejoin="round"/>
<g clip-path="url(#clip4_3088_14799)">
<path d="M141.86 181.604H146.285C146.387 181.604 146.485 181.645 146.557 181.717C146.629 181.789 146.67 181.887 146.67 181.989V187.953H141.475V181.989C141.475 181.887 141.516 181.789 141.588 181.717C141.66 181.645 141.758 181.604 141.86 181.604Z" stroke="#ADADF9" stroke-linecap="round" stroke-linejoin="round"/>
<path d="M146.67 187.953H150.71V178.719C150.71 178.566 150.649 178.419 150.541 178.311C150.432 178.202 150.286 178.142 150.133 178.142H144.938C144.785 178.142 144.638 178.202 144.53 178.311C144.422 178.419 144.361 178.566 144.361 178.719V181.604" stroke="#ADADF9" stroke-linecap="round" stroke-linejoin="round"/>
<path d="M141.476 187.953H140.321" stroke="#ADADF9" stroke-linecap="round" stroke-linejoin="round"/>
<path d="M151.864 187.953H150.71" stroke="#ADADF9" stroke-linecap="round" stroke-linejoin="round"/>
<path d="M144.361 183.913H146.67" stroke="#ADADF9" stroke-linecap="round" stroke-linejoin="round"/>
<path d="M148.978 181.604H150.71" stroke="#ADADF9" stroke-linecap="round" stroke-linejoin="round"/>
<path d="M148.978 183.913H150.71" stroke="#ADADF9" stroke-linecap="round" stroke-linejoin="round"/>
<path d="M148.978 178.142V176.41" stroke="#ADADF9" stroke-linecap="round" stroke-linejoin="round"/>
<path d="M151.864 171.216C151.864 171.063 151.803 170.916 151.695 170.808C151.587 170.7 151.44 170.639 151.287 170.639H135.127C134.974 170.639 134.827 170.7 134.719 170.808C134.611 170.916 134.55 171.063 134.55 171.216V187.376C134.55 187.529 134.611 187.676 134.719 187.784C134.827 187.892 134.974 187.953 135.127 187.953H137.436C137.589 187.953 137.735 187.892 137.844 187.784C137.952 187.676 138.013 187.529 138.013 187.376V174.102H151.287C151.44 174.102 151.587 174.041 151.695 173.933C151.803 173.824 151.864 173.678 151.864 173.525V171.216Z" stroke="#ADADF9" stroke-linecap="round" stroke-linejoin="round"/>
<path d="M136.858 178.719H138.013" stroke="#ADADF9" stroke-linecap="round" stroke-linejoin="round"/>
<path d="M136.858 183.336H138.013" stroke="#ADADF9" stroke-linecap="round" stroke-linejoin="round"/>
<path d="M142.63 174.102V172.947" stroke="#ADADF9" stroke-linecap="round" stroke-linejoin="round"/>
<path d="M147.247 174.102V172.947" stroke="#ADADF9" stroke-linecap="round" stroke-linejoin="round"/>
<path d="M134.55 174.102H138.013V170.639" stroke="#ADADF9" stroke-linecap="round" stroke-linejoin="round"/>
</g>
<g clip-path="url(#clip5_3088_14799)">
<path d="M330.39 112.156V106.962H325.196" stroke="#ADADF9" stroke-linecap="round" stroke-linejoin="round"/>
<path d="M330.39 106.962L324.281 113.071C324.174 113.178 324.047 113.263 323.907 113.321C323.767 113.38 323.616 113.409 323.465 113.409C323.313 113.409 323.163 113.38 323.023 113.321C322.883 113.263 322.756 113.178 322.648 113.071L320.241 110.664C320.134 110.557 320.007 110.472 319.867 110.414C319.727 110.356 319.577 110.326 319.425 110.326C319.273 110.326 319.123 110.356 318.983 110.414C318.843 110.472 318.716 110.557 318.608 110.664L313.076 116.196" stroke="#ADADF9" stroke-linecap="round" stroke-linejoin="round"/>
</g>
<g clip-path="url(#clip6_3088_14799)">
<path d="M246.61 278.552V279.322C246.64 280.207 246.41 281.082 245.949 281.839" stroke="#ADADF9" stroke-linecap="round" stroke-linejoin="round"/>
<path d="M252.957 278.552V279.322C252.927 280.207 253.157 281.083 253.619 281.839" stroke="#ADADF9" stroke-linecap="round" stroke-linejoin="round"/>
<path d="M246.62 278.717C247.22 278.713 247.814 278.581 248.359 278.329C248.905 278.078 249.391 277.713 249.784 277.258C250.177 277.714 250.662 278.08 251.208 278.332C251.754 278.584 252.347 278.716 252.948 278.721" stroke="#ADADF9" stroke-linecap="round" stroke-linejoin="round"/>
<path d="M249.784 281.641C251.537 281.641 252.958 280.22 252.958 278.467C252.958 276.714 251.537 275.292 249.784 275.292C248.031 275.292 246.61 276.714 246.61 278.467C246.61 280.22 248.031 281.641 249.784 281.641Z" stroke="#ADADF9" stroke-linecap="round" stroke-linejoin="round"/>
<path d="M244.59 287.989C244.59 286.982 244.884 285.997 245.434 285.154C245.984 284.311 246.767 283.645 247.688 283.239C248.61 282.833 249.629 282.703 250.623 282.866C251.617 283.028 252.542 283.476 253.285 284.155" stroke="#ADADF9" stroke-linecap="round" stroke-linejoin="round"/>
<circle cx="257.287" cy="290.298" r="0.577133" stroke="#ADADF9" stroke-linecap="round" stroke-linejoin="round"/>
<path d="M257.287 290.298C257.23 290.298 257.174 290.315 257.127 290.346C257.079 290.378 257.042 290.423 257.02 290.476C256.998 290.529 256.993 290.587 257.004 290.643C257.015 290.699 257.042 290.75 257.083 290.79C257.123 290.831 257.175 290.858 257.231 290.869C257.287 290.881 257.345 290.875 257.397 290.853C257.45 290.831 257.495 290.794 257.527 290.747C257.559 290.699 257.575 290.643 257.575 290.586C257.575 290.51 257.545 290.436 257.491 290.382C257.437 290.328 257.363 290.298 257.287 290.298Z" stroke="#ADADF9" stroke-linecap="round" stroke-linejoin="round"/>
<path d="M257.287 288.566V286.258" stroke="#ADADF9" stroke-linecap="round" stroke-linejoin="round"/>
<path d="M261.759 290.63C261.863 290.838 261.913 291.07 261.902 291.302C261.892 291.535 261.822 291.761 261.7 291.959C261.577 292.157 261.406 292.32 261.203 292.434C261 292.547 260.771 292.606 260.538 292.606H254.035C253.802 292.606 253.573 292.547 253.37 292.433C253.167 292.32 252.996 292.156 252.874 291.959C252.751 291.761 252.682 291.535 252.671 291.302C252.661 291.07 252.71 290.838 252.814 290.63L256.066 284.126C256.179 283.9 256.353 283.709 256.569 283.576C256.785 283.443 257.033 283.372 257.286 283.372C257.54 283.372 257.788 283.443 258.004 283.576C258.22 283.709 258.394 283.9 258.507 284.126L261.759 290.63Z" stroke="#ADADF9" stroke-linecap="round" stroke-linejoin="round"/>
</g>
<g clip-path="url(#clip7_3088_14799)">
<path d="M341.933 311.365V304.919C341.933 304.765 341.872 304.619 341.764 304.51C341.656 304.402 341.509 304.341 341.356 304.341H339.624C338.706 304.341 337.825 304.706 337.176 305.356C336.526 306.005 336.162 306.886 336.162 307.804V312.421C336.162 312.727 336.283 313.021 336.5 313.237C336.716 313.454 337.01 313.575 337.316 313.575H337.893" stroke="#ADADF9" stroke-linecap="round" stroke-linejoin="round"/>
<path d="M336.162 308.958H338.47C338.776 308.958 339.07 308.837 339.286 308.62C339.503 308.404 339.624 308.11 339.624 307.804V304.341" stroke="#ADADF9" stroke-linecap="round" stroke-linejoin="round"/>
<path d="M341.356 314.73C342.312 314.73 343.087 313.955 343.087 312.998C343.087 312.042 342.312 311.267 341.356 311.267C340.4 311.267 339.624 312.042 339.624 312.998C339.624 313.955 340.4 314.73 341.356 314.73Z" stroke="#ADADF9" stroke-linecap="round" stroke-linejoin="round"/>
<path d="M350.59 314.73C351.546 314.73 352.321 313.955 352.321 312.998C352.321 312.042 351.546 311.267 350.59 311.267C349.634 311.267 348.859 312.042 348.859 312.998C348.859 313.955 349.634 314.73 350.59 314.73Z" stroke="#ADADF9" stroke-linecap="round" stroke-linejoin="round"/>
<path d="M344.819 313.576H347.127" stroke="#ADADF9" stroke-linecap="round" stroke-linejoin="round"/>
<path d="M344.241 304.341H353.476" stroke="#ADADF9" stroke-linecap="round" stroke-linejoin="round"/>
<path d="M344.241 306.65H353.476" stroke="#ADADF9" stroke-linecap="round" stroke-linejoin="round"/>
<path d="M341.933 308.958H351.744" stroke="#ADADF9" stroke-linecap="round" stroke-linejoin="round"/>
<path d="M347.127 302.033V308.958" stroke="#ADADF9" stroke-linecap="round" stroke-linejoin="round"/>
</g>
<path d="M241.897 43.8621C241.897 44.9336 241.472 45.9611 240.714 46.7188C239.956 47.4764 238.929 47.902 237.857 47.902C236.786 47.902 235.758 47.4764 235.001 46.7188C234.243 45.9611 233.818 44.9336 233.818 43.8621C233.818 40.3993 237.28 36.3594 237.857 36.3594C238.435 36.3594 241.897 40.3993 241.897 43.8621Z" stroke="#ADADF9" stroke-linecap="round" stroke-linejoin="round"/>
<path d="M245.203 46.6123C245.418 46.7799 245.594 46.9913 245.721 47.2324C245.847 47.4735 245.921 47.7387 245.937 48.0105C245.937 49.8635 242.321 51.3648 237.857 51.3648C233.394 51.3648 229.777 49.8643 229.777 48.0105C229.793 47.7387 229.867 47.4734 229.993 47.2323C230.12 46.9912 230.296 46.7798 230.511 46.6123" stroke="#ADADF9" stroke-linecap="round" stroke-linejoin="round"/>
<path d="M237.857 45.5935C237.398 45.5933 236.957 45.4108 236.633 45.0861C236.308 44.7614 236.126 44.3211 236.126 43.8621" stroke="#ADADF9" stroke-linecap="round" stroke-linejoin="round"/>
<g clip-path="url(#clip8_3088_14799)">
<path d="M275.563 182.538V183.692C275.563 183.998 275.684 184.292 275.901 184.508C276.117 184.725 276.411 184.846 276.717 184.846C277.023 184.846 277.317 184.725 277.533 184.508C277.75 184.292 277.871 183.998 277.871 183.692V182.538" stroke="#ADADF9" stroke-linecap="round" stroke-linejoin="round"/>
<path d="M289.414 182.538V183.692C289.414 183.998 289.292 184.292 289.076 184.508C288.859 184.725 288.566 184.846 288.26 184.846C287.953 184.846 287.66 184.725 287.443 184.508C287.227 184.292 287.105 183.998 287.105 183.692V182.538" stroke="#ADADF9" stroke-linecap="round" stroke-linejoin="round"/>
<path d="M290.568 181.384C290.568 181.69 290.447 181.983 290.23 182.2C290.014 182.416 289.72 182.538 289.414 182.538H275.563C275.257 182.538 274.963 182.416 274.747 182.2C274.53 181.983 274.408 181.69 274.408 181.384C274.408 181.078 274.53 180.784 274.747 180.567C274.963 180.351 275.257 180.229 275.563 180.229H289.414C289.72 180.229 290.014 180.351 290.23 180.567C290.447 180.784 290.568 181.078 290.568 181.384Z" stroke="#ADADF9" stroke-linecap="round" stroke-linejoin="round"/>
<path d="M277.102 175.612H287.875C288.283 175.612 288.675 175.774 288.963 176.063C289.252 176.352 289.414 176.743 289.414 177.151V180.229H275.563V177.151C275.563 176.743 275.725 176.352 276.014 176.063C276.302 175.774 276.694 175.612 277.102 175.612Z" stroke="#ADADF9" stroke-linecap="round" stroke-linejoin="round"/>
<path d="M277.871 177.632C277.948 177.632 278.021 177.663 278.075 177.717C278.129 177.771 278.16 177.844 278.16 177.921" stroke="#ADADF9" stroke-linecap="round" stroke-linejoin="round"/>
<path d="M277.583 177.921C277.583 177.844 277.613 177.771 277.667 177.717C277.721 177.663 277.795 177.632 277.871 177.632" stroke="#ADADF9" stroke-linecap="round" stroke-linejoin="round"/>
<path d="M277.871 178.209C277.795 178.209 277.721 178.179 277.667 178.125C277.613 178.071 277.583 177.997 277.583 177.921" stroke="#ADADF9" stroke-linecap="round" stroke-linejoin="round"/>
<path d="M278.16 177.921C278.16 177.997 278.129 178.071 278.075 178.125C278.021 178.179 277.948 178.209 277.871 178.209" stroke="#ADADF9" stroke-linecap="round" stroke-linejoin="round"/>
<path d="M287.105 177.632C287.182 177.632 287.255 177.663 287.309 177.717C287.364 177.771 287.394 177.844 287.394 177.921" stroke="#ADADF9" stroke-linecap="round" stroke-linejoin="round"/>
<path d="M286.817 177.921C286.817 177.844 286.847 177.771 286.901 177.717C286.955 177.663 287.029 177.632 287.105 177.632" stroke="#ADADF9" stroke-linecap="round" stroke-linejoin="round"/>
<path d="M287.105 178.209C287.029 178.209 286.955 178.179 286.901 178.125C286.847 178.071 286.817 177.997 286.817 177.921" stroke="#ADADF9" stroke-linecap="round" stroke-linejoin="round"/>
<path d="M287.394 177.921C287.394 177.997 287.364 178.071 287.309 178.125C287.255 178.179 287.182 178.209 287.105 178.209" stroke="#ADADF9" stroke-linecap="round" stroke-linejoin="round"/>
<path d="M281.334 177.921H283.643" stroke="#ADADF9" stroke-linecap="round" stroke-linejoin="round"/>
<path d="M288.26 175.661V169.841C288.26 169.229 288.016 168.642 287.583 168.209C287.15 167.776 286.563 167.532 285.951 167.532H279.025C278.413 167.532 277.826 167.776 277.393 168.209C276.96 168.642 276.717 169.229 276.717 169.841V175.661" stroke="#ADADF9" stroke-linecap="round" stroke-linejoin="round"/>
<path d="M276.717 169.841H288.26" stroke="#ADADF9" stroke-linecap="round" stroke-linejoin="round"/>
<path d="M282.488 169.841V175.612" stroke="#ADADF9" stroke-linecap="round" stroke-linejoin="round"/>
<path d="M276.717 170.995H275.563C275.257 170.995 274.963 171.117 274.747 171.333C274.53 171.55 274.408 171.843 274.408 172.15V174.458" stroke="#ADADF9" stroke-linecap="round" stroke-linejoin="round"/>
<path d="M288.26 170.995H289.414C289.72 170.995 290.014 171.117 290.23 171.333C290.447 171.55 290.568 171.843 290.568 172.15V174.458" stroke="#ADADF9" stroke-linecap="round" stroke-linejoin="round"/>
</g>
<g clip-path="url(#clip9_3088_14799)">
<path d="M131.664 258.363C131.664 258.057 131.543 257.763 131.326 257.547C131.11 257.33 130.816 257.209 130.51 257.209H116.659V268.751H120.122V262.98C120.122 262.368 120.365 261.781 120.798 261.348C121.231 260.915 121.818 260.672 122.43 260.672H130.51C130.816 260.672 131.11 260.55 131.326 260.334C131.543 260.117 131.664 259.823 131.664 259.517V258.363Z" stroke="#ADADF9" stroke-linecap="round" stroke-linejoin="round"/>
<path d="M116.659 257.209C116.659 255.678 117.267 254.21 118.349 253.128C119.432 252.046 120.899 251.438 122.43 251.438H127.047C127.047 252.05 126.804 252.637 126.371 253.07C125.938 253.503 125.351 253.746 124.739 253.746H123.584C122.666 253.746 121.785 254.111 121.136 254.76C120.486 255.41 120.122 256.29 120.122 257.209H116.659Z" stroke="#ADADF9" stroke-linecap="round" stroke-linejoin="round"/>
<path d="M127.624 262.98H130.51" stroke="#ADADF9" stroke-linecap="round" stroke-linejoin="round"/>
<path d="M129.356 265.289V268.751" stroke="#ADADF9" stroke-linecap="round" stroke-linejoin="round"/>
<path d="M131.664 265.289L132.819 268.174" stroke="#ADADF9" stroke-linecap="round" stroke-linejoin="round"/>
<path d="M127.047 265.289L125.893 268.174" stroke="#ADADF9" stroke-linecap="round" stroke-linejoin="round"/>
</g>
<path d="M228.386 129.337C226.944 128.349 225.657 127.152 224.568 125.785C223.372 124.365 221.491 120.813 217.731 120.813C213.971 120.813 212.09 124.365 210.893 125.785C209.804 127.152 208.518 128.349 207.076 129.337H228.386Z" stroke="#ADADF9" stroke-linecap="round" stroke-linejoin="round"/>
<path d="M219.863 121.23V129.337" stroke="#ADADF9" stroke-linecap="round" stroke-linejoin="round"/>
<path d="M222.703 123.393V129.337" stroke="#ADADF9" stroke-linecap="round" stroke-linejoin="round"/>
<path d="M215.599 121.23V129.337" stroke="#ADADF9" stroke-linecap="round" stroke-linejoin="round"/>
<path d="M212.758 123.393V129.337" stroke="#ADADF9" stroke-linecap="round" stroke-linejoin="round"/>
<path d="M207.076 133.599V129.337" stroke="#ADADF9" stroke-linecap="round" stroke-linejoin="round"/>
<path d="M224.299 132.91C223.59 131.814 222.619 130.913 221.473 130.289C220.328 129.665 219.044 129.337 217.739 129.337C216.434 129.336 215.15 129.662 214.003 130.285C212.857 130.908 211.885 131.808 211.176 132.904" stroke="#ADADF9" stroke-linecap="round" stroke-linejoin="round"/>
<path d="M228.386 129.337V133.599" stroke="#ADADF9" stroke-linecap="round" stroke-linejoin="round"/>
<path d="M228.419 139.281C227.837 139.268 227.28 139.045 226.849 138.653C226.419 138.262 226.144 137.728 226.075 137.15C226.075 138.328 224.834 139.281 223.305 139.281C221.775 139.281 220.534 138.328 220.534 137.15C220.534 138.328 219.294 139.281 217.764 139.281C216.235 139.281 214.994 138.328 214.994 137.15C214.994 138.328 213.753 139.281 212.224 139.281C210.694 139.281 209.453 138.328 209.453 137.15C209.385 137.728 209.11 138.262 208.679 138.653C208.248 139.045 207.691 139.268 207.109 139.281" stroke="#ADADF9" stroke-linecap="round" stroke-linejoin="round"/>
<g clip-path="url(#clip10_3088_14799)">
<path d="M25.0871 204.497H13.5445C12.2695 204.497 11.236 205.531 11.236 206.806V213.731C11.236 215.006 12.2695 216.04 13.5445 216.04H25.0871C26.3621 216.04 27.3957 215.006 27.3957 213.731V206.806C27.3957 205.531 26.3621 204.497 25.0871 204.497Z" stroke="#ADADF9" stroke-linecap="round" stroke-linejoin="round"/>
<path d="M15.853 204.497V202.189C15.853 201.883 15.9746 201.589 16.1911 201.373C16.4076 201.156 16.7012 201.035 17.0073 201.035H21.6244C21.9305 201.035 22.2241 201.156 22.4405 201.373C22.657 201.589 22.7786 201.883 22.7786 202.189V204.497" stroke="#ADADF9" stroke-linecap="round" stroke-linejoin="round"/>
<path d="M19.3158 207.946V212.563" stroke="#ADADF9" stroke-linecap="round" stroke-linejoin="round"/>
<path d="M17.0073 210.254H21.6244" stroke="#ADADF9" stroke-linecap="round" stroke-linejoin="round"/>
</g>
<defs>
<clipPath id="clip0_3088_14799">
<rect width="18.4682" height="18.4682" fill="white" transform="translate(410.585 211.34)"/>
</clipPath>
<clipPath id="clip1_3088_14799">
<rect width="18.4682" height="18.4682" fill="white" transform="translate(214.002 201.612)"/>
</clipPath>
<clipPath id="clip2_3088_14799">
<rect width="18.4682" height="18.4682" fill="white" transform="translate(341.741 224.697)"/>
</clipPath>
<clipPath id="clip3_3088_14799">
<rect width="18.4682" height="18.4682" fill="white" transform="translate(360.978 160.058)"/>
</clipPath>
<clipPath id="clip4_3088_14799">
<rect width="18.4682" height="18.4682" fill="white" transform="translate(133.973 170.062)"/>
</clipPath>
<clipPath id="clip5_3088_14799">
<rect width="18.4682" height="18.4682" fill="white" transform="translate(312.499 102.345)"/>
</clipPath>
<clipPath id="clip6_3088_14799">
<rect width="18.4682" height="18.4682" fill="white" transform="translate(244.013 274.715)"/>
</clipPath>
<clipPath id="clip7_3088_14799">
<rect width="18.4682" height="18.4682" fill="white" transform="translate(335.584 299.34)"/>
</clipPath>
<clipPath id="clip8_3088_14799">
<rect width="18.4682" height="18.4682" fill="white" transform="translate(273.254 166.984)"/>
</clipPath>
<clipPath id="clip9_3088_14799">
<rect width="18.4682" height="18.4682" fill="white" transform="translate(115.505 250.86)"/>
</clipPath>
<clipPath id="clip10_3088_14799">
<rect width="18.4682" height="18.4682" fill="white" transform="translate(10.0817 199.303)"/>
</clipPath>
</defs>
</svg>
