<svg width="148" height="68" viewBox="0 0 148 68" fill="none" xmlns="http://www.w3.org/2000/svg">
<rect width="148" height="68" rx="4" fill="#F9F9FF"/>
<path d="M17.0327 46V40.1818H20.544V40.8068H17.7372V42.7727H20.3622V43.3977H17.7372V45.375H20.5895V46H17.0327ZM21.8139 46V40.1818H23.7798C24.2363 40.1818 24.6094 40.2642 24.8991 40.429C25.1908 40.5919 25.4067 40.8125 25.5469 41.0909C25.687 41.3693 25.7571 41.6799 25.7571 42.0227C25.7571 42.3655 25.687 42.6771 25.5469 42.9574C25.4086 43.2377 25.1946 43.4612 24.9048 43.6278C24.6151 43.7926 24.2438 43.875 23.7912 43.875H22.3821V43.25H23.7685C24.081 43.25 24.3319 43.196 24.5213 43.0881C24.7107 42.9801 24.848 42.8343 24.9332 42.6506C25.0204 42.465 25.0639 42.2557 25.0639 42.0227C25.0639 41.7898 25.0204 41.5814 24.9332 41.3977C24.848 41.214 24.7098 41.0701 24.5185 40.9659C24.3272 40.8598 24.0734 40.8068 23.7571 40.8068H22.5185V46H21.8139ZM31.5739 42H30.8693C30.8277 41.7973 30.7547 41.6193 30.6506 41.4659C30.5483 41.3125 30.4233 41.1837 30.2756 41.0795C30.1297 40.9735 29.9678 40.8939 29.7898 40.8409C29.6117 40.7879 29.4261 40.7614 29.233 40.7614C28.8807 40.7614 28.5616 40.8504 28.2756 41.0284C27.9915 41.2064 27.7652 41.4688 27.5966 41.8153C27.4299 42.1619 27.3466 42.5871 27.3466 43.0909C27.3466 43.5947 27.4299 44.0199 27.5966 44.3665C27.7652 44.7131 27.9915 44.9754 28.2756 45.1534C28.5616 45.3314 28.8807 45.4205 29.233 45.4205C29.4261 45.4205 29.6117 45.3939 29.7898 45.3409C29.9678 45.2879 30.1297 45.2093 30.2756 45.1051C30.4233 44.9991 30.5483 44.8693 30.6506 44.7159C30.7547 44.5606 30.8277 44.3826 30.8693 44.1818H31.5739C31.5208 44.4792 31.4242 44.7453 31.2841 44.9801C31.1439 45.215 30.9697 45.4148 30.7614 45.5795C30.553 45.7424 30.3191 45.8665 30.0597 45.9517C29.8021 46.0369 29.5265 46.0795 29.233 46.0795C28.7367 46.0795 28.2955 45.9583 27.9091 45.7159C27.5227 45.4735 27.2188 45.1288 26.9972 44.6818C26.7756 44.2348 26.6648 43.7045 26.6648 43.0909C26.6648 42.4773 26.7756 41.947 26.9972 41.5C27.2188 41.053 27.5227 40.7083 27.9091 40.4659C28.2955 40.2235 28.7367 40.1023 29.233 40.1023C29.5265 40.1023 29.8021 40.1449 30.0597 40.2301C30.3191 40.3153 30.553 40.4403 30.7614 40.6051C30.9697 40.768 31.1439 40.9669 31.2841 41.2017C31.4242 41.4347 31.5208 41.7008 31.5739 42ZM33.4169 40.1818V46H32.7124V40.1818H33.4169ZM37.2273 43.0909C37.2273 42.375 37.3201 41.7169 37.5057 41.1165C37.6932 40.5142 37.9602 39.9602 38.3068 39.4545H38.8977C38.7614 39.642 38.6335 39.8731 38.5142 40.1477C38.3968 40.4205 38.2936 40.7206 38.2045 41.0483C38.1155 41.3741 38.0455 41.7112 37.9943 42.0597C37.9451 42.4081 37.9205 42.7519 37.9205 43.0909C37.9205 43.5417 37.964 43.9991 38.0511 44.4631C38.1383 44.9271 38.2557 45.358 38.4034 45.7557C38.5511 46.1534 38.7159 46.4773 38.8977 46.7273H38.3068C37.9602 46.2216 37.6932 45.6686 37.5057 45.0682C37.3201 44.4659 37.2273 43.8068 37.2273 43.0909ZM42.8416 44.9091V44.6023C42.8416 44.3902 42.8852 44.196 42.9723 44.0199C43.0613 43.8419 43.1901 43.6998 43.3587 43.5938C43.5291 43.4858 43.7356 43.4318 43.978 43.4318C44.2242 43.4318 44.4306 43.4858 44.5973 43.5938C44.764 43.6998 44.8899 43.8419 44.9751 44.0199C45.0604 44.196 45.103 44.3902 45.103 44.6023V44.9091C45.103 45.1212 45.0594 45.3163 44.9723 45.4943C44.8871 45.6705 44.7602 45.8125 44.5916 45.9205C44.425 46.0265 44.2204 46.0795 43.978 46.0795C43.7318 46.0795 43.5244 46.0265 43.3558 45.9205C43.1873 45.8125 43.0594 45.6705 42.9723 45.4943C42.8852 45.3163 42.8416 45.1212 42.8416 44.9091ZM43.4212 44.6023V44.9091C43.4212 45.0852 43.4628 45.2434 43.5462 45.3835C43.6295 45.5218 43.7734 45.5909 43.978 45.5909C44.1768 45.5909 44.317 45.5218 44.3984 45.3835C44.4818 45.2434 44.5234 45.0852 44.5234 44.9091V44.6023C44.5234 44.4261 44.4837 44.2689 44.4041 44.1307C44.3246 43.9905 44.1825 43.9205 43.978 43.9205C43.7791 43.9205 43.6361 43.9905 43.549 44.1307C43.4638 44.2689 43.4212 44.4261 43.4212 44.6023ZM39.9439 41.5795V41.2727C39.9439 41.0606 39.9875 40.8665 40.0746 40.6903C40.1636 40.5123 40.2924 40.3703 40.4609 40.2642C40.6314 40.1562 40.8378 40.1023 41.0803 40.1023C41.3265 40.1023 41.5329 40.1562 41.6996 40.2642C41.8662 40.3703 41.9922 40.5123 42.0774 40.6903C42.1626 40.8665 42.2053 41.0606 42.2053 41.2727V41.5795C42.2053 41.7917 42.1617 41.9867 42.0746 42.1648C41.9893 42.3409 41.8625 42.483 41.6939 42.5909C41.5272 42.697 41.3227 42.75 41.0803 42.75C40.834 42.75 40.6267 42.697 40.4581 42.5909C40.2895 42.483 40.1617 42.3409 40.0746 42.1648C39.9875 41.9867 39.9439 41.7917 39.9439 41.5795ZM40.5234 41.2727V41.5795C40.5234 41.7557 40.5651 41.9138 40.6484 42.054C40.7318 42.1922 40.8757 42.2614 41.0803 42.2614C41.2791 42.2614 41.4193 42.1922 41.5007 42.054C41.584 41.9138 41.6257 41.7557 41.6257 41.5795V41.2727C41.6257 41.0966 41.5859 40.9394 41.5064 40.8011C41.4268 40.661 41.2848 40.5909 41.0803 40.5909C40.8814 40.5909 40.7384 40.661 40.6513 40.8011C40.5661 40.9394 40.5234 41.0966 40.5234 41.2727ZM40.1598 46L44.1598 40.1818H44.8075L40.8075 46H40.1598ZM47.8189 43.0909C47.8189 43.8068 47.7251 44.4659 47.5376 45.0682C47.352 45.6686 47.0859 46.2216 46.7393 46.7273H46.1484C46.2848 46.5398 46.4117 46.3087 46.5291 46.0341C46.6484 45.7614 46.7526 45.4621 46.8416 45.1364C46.9306 44.8087 46.9998 44.4706 47.049 44.1222C47.1001 43.7718 47.1257 43.428 47.1257 43.0909C47.1257 42.6402 47.0821 42.1828 46.995 41.7188C46.9079 41.2547 46.7905 40.8239 46.6428 40.4261C46.495 40.0284 46.3303 39.7045 46.1484 39.4545H46.7393C47.0859 39.9602 47.352 40.5142 47.5376 41.1165C47.7251 41.7169 47.8189 42.375 47.8189 43.0909Z" fill="black"/>
<path d="M75.7461 24H73.9506V18.1818H75.8256C76.39 18.1818 76.873 18.2983 77.2745 18.5312C77.676 18.7623 77.9838 19.0947 78.1978 19.5284C78.4118 19.9602 78.5188 20.4773 78.5188 21.0795C78.5188 21.6856 78.4109 22.2074 78.195 22.6449C77.979 23.0805 77.6647 23.4157 77.2518 23.6506C76.8389 23.8835 76.337 24 75.7461 24ZM74.6552 23.375H75.7006C76.1817 23.375 76.5804 23.2822 76.8967 23.0966C77.2129 22.911 77.4487 22.6468 77.604 22.304C77.7594 21.9612 77.837 21.553 77.837 21.0795C77.837 20.6098 77.7603 20.2055 77.6069 19.8665C77.4535 19.5256 77.2243 19.2642 76.9194 19.0824C76.6145 18.8987 76.2347 18.8068 75.7802 18.8068H74.6552V23.375ZM79.7006 24V18.1818H83.212V18.8068H80.4052V20.7727H83.0302V21.3977H80.4052V23.375H83.2575V24H79.7006ZM81.1438 17.5909L81.837 16.2727H82.6211L81.7347 17.5909H81.1438ZM84.4819 24V18.1818H86.4478C86.9042 18.1818 87.2773 18.2642 87.5671 18.429C87.8588 18.5919 88.0747 18.8125 88.2148 19.0909C88.355 19.3693 88.4251 19.6799 88.4251 20.0227C88.4251 20.3655 88.355 20.6771 88.2148 20.9574C88.0766 21.2377 87.8626 21.4612 87.5728 21.6278C87.283 21.7926 86.9118 21.875 86.4592 21.875H85.0501V21.25H86.4364C86.7489 21.25 86.9999 21.196 87.1893 21.0881C87.3787 20.9801 87.516 20.8343 87.6012 20.6506C87.6883 20.465 87.7319 20.2557 87.7319 20.0227C87.7319 19.7898 87.6883 19.5814 87.6012 19.3977C87.516 19.214 87.3777 19.0701 87.1864 18.9659C86.9951 18.8598 86.7414 18.8068 86.4251 18.8068H85.1864V24H84.4819ZM89.2049 24H88.4663L90.6026 18.1818H91.3299L93.4663 24H92.7276L90.989 19.1023H90.9435L89.2049 24ZM89.4776 21.7273H92.4549V22.3523H89.4776V21.7273ZM94.3725 24V18.1818H96.3384C96.793 18.1818 97.1661 18.2595 97.4577 18.4148C97.7494 18.5682 97.9653 18.7794 98.1055 19.0483C98.2456 19.3172 98.3157 19.6231 98.3157 19.9659C98.3157 20.3087 98.2456 20.6127 98.1055 20.8778C97.9653 21.143 97.7504 21.3513 97.4606 21.5028C97.1708 21.6525 96.8005 21.7273 96.3498 21.7273H94.7589V21.0909H96.3271C96.6377 21.0909 96.8877 21.0455 97.0771 20.9545C97.2683 20.8636 97.4066 20.7348 97.4918 20.5682C97.579 20.3996 97.6225 20.1989 97.6225 19.9659C97.6225 19.733 97.579 19.5294 97.4918 19.3551C97.4047 19.1809 97.2655 19.0464 97.0742 18.9517C96.8829 18.8551 96.6301 18.8068 96.3157 18.8068H95.0771V24H94.3725ZM97.1112 21.3864L98.543 24H97.7248L96.3157 21.3864H97.1112ZM99.1715 18.8068V18.1818H103.535V18.8068H101.706V24H101.001V18.8068H99.1715ZM104.623 24V18.1818H108.134V18.8068H105.327V20.7727H107.952V21.3977H105.327V23.375H108.179V24H104.623ZM109.404 18.1818H110.245L112.222 23.0114H112.29L114.267 18.1818H115.108V24H114.449V19.5795H114.392L112.574 24H111.938L110.12 19.5795H110.063V24H109.404V18.1818ZM116.521 24V18.1818H120.032V18.8068H117.225V20.7727H119.85V21.3977H117.225V23.375H120.078V24H116.521ZM125.916 18.1818V24H125.234L122.064 19.4318H122.007V24H121.302V18.1818H121.984L125.166 22.7614H125.223V18.1818H125.916ZM127.007 18.8068V18.1818H131.371V18.8068H129.542V24H128.837V18.8068H127.007Z" fill="black"/>
<path d="M57 43C57 40.7909 58.7909 39 61 39H117C119.209 39 121 40.7909 121 43C121 45.2091 119.209 47 117 47H61C58.7909 47 57 45.2091 57 43Z" fill="white"/>
<path d="M57 43C57 40.7909 58.7909 39 61 39H95V47H61C58.7909 47 57 45.2091 57 43Z" fill="#D6D6F0"/>
<rect x="102" y="34" width="2" height="18" rx="1" fill="#161616"/>
</svg>
