<svg width="491" height="259" viewBox="0 0 491 259" fill="none" xmlns="http://www.w3.org/2000/svg">
<path d="M127.63 196.014L323.528 187.897C334.917 187.425 343.767 177.81 343.295 166.421L339.734 80.5007L338.025 39.2589C337.553 27.8703 327.938 19.0205 316.55 19.4925L267.575 21.5219L120.651 27.6103C109.263 28.0823 100.413 37.6971 100.885 49.0857L106.154 176.248C106.626 187.637 116.241 196.486 127.63 196.014Z" fill="#F4F4FF"/>
<path d="M153.295 176.549H349.361C360.76 176.549 370 167.308 370 155.91V69.9158V28.6386C370 17.2402 360.76 8 349.361 8H300.345H153.295C141.896 8 132.656 17.2402 132.656 28.6386V155.91C132.656 167.308 141.896 176.549 153.295 176.549Z" fill="white"/>
<path d="M300.345 8H153.295C141.896 8 132.656 17.2402 132.656 28.6386V155.91C132.656 167.308 141.896 176.549 153.295 176.549H349.361C360.76 176.549 370 167.308 370 155.91V69.9158" stroke="#D6D6F0" stroke-width="1.71988"/>
<path d="M149 59H319" stroke="#D6D6F0"/>
<path d="M150 78H320" stroke="#D6D6F0"/>
<path d="M150 97H320" stroke="#D6D6F0"/>
<path d="M150 116H320" stroke="#D6D6F0"/>
<path d="M150 135H320" stroke="#D6D6F0"/>
<path d="M150 154H320" stroke="#D6D6F0"/>
<rect x="194.837" y="89.2734" width="25.7983" height="63.6357" fill="#F4F4FF"/>
<rect x="160" y="45" width="26" height="108" fill="#F4F4FF"/>
<rect x="236.115" y="70.3555" width="25.7983" height="82.5544" fill="#F4F4FF"/>
<rect x="273.952" y="85.8359" width="25.7983" height="67.0755" fill="#F4F4FF"/>
<path d="M163 89.2734L206.857 130.551L248.994 98.7328L297.151 118.511" stroke="#D6D6F0" stroke-width="1.71988"/>
<circle cx="355.888" cy="35.2576" r="35.2576" fill="#D6D6F0"/>
<path d="M42.7339 230V218.8H47.1339C50.6859 218.8 53.0859 221.376 53.0859 224.4C53.0859 227.424 50.6859 230 47.1339 230H42.7339ZM47.1659 220.864H45.0059V227.936H47.1659C49.2459 227.936 50.7499 226.384 50.7499 224.4C50.7499 222.4 49.2459 220.864 47.1659 220.864ZM58.8919 221.616C61.5159 221.616 63.3079 223.552 63.3079 225.968C63.3079 228.384 61.5159 230.32 58.8919 230.32C56.2679 230.32 54.4759 228.384 54.4759 225.968C54.4759 223.552 56.2679 221.616 58.8919 221.616ZM58.9239 228.4C60.2199 228.4 61.1959 227.36 61.1959 225.968C61.1959 224.56 60.2199 223.536 58.9239 223.536C57.5799 223.536 56.5879 224.56 56.5879 225.968C56.5879 227.376 57.5799 228.4 58.9239 228.4ZM65.1613 230V221.936H67.1933V222.576C67.7533 222.032 68.5053 221.616 69.5773 221.616C71.3213 221.616 72.7133 222.816 72.7133 225.2V230H70.6653V225.28C70.6653 224.208 70.0573 223.536 69.0653 223.536C68.0413 223.536 67.4973 224.224 67.1933 224.736V230H65.1613ZM75.0207 230V221.936H77.0527V222.576C77.6127 222.032 78.3647 221.616 79.4367 221.616C81.1807 221.616 82.5727 222.816 82.5727 225.2V230H80.5247V225.28C80.5247 224.208 79.9167 223.536 78.9247 223.536C77.9007 223.536 77.3567 224.224 77.0527 224.736V230H75.0207ZM89.5681 220.656H87.6161L89.2801 218H91.4881L89.5681 220.656ZM92.3041 228.688C91.5521 229.696 90.3041 230.32 88.7841 230.32C85.9201 230.32 84.3041 228.32 84.3041 225.968C84.3041 223.584 85.8081 221.616 88.4481 221.616C90.6881 221.616 92.1601 223.136 92.1601 225.248C92.1601 225.696 92.0961 226.112 92.0321 226.384H86.3841C86.5761 227.888 87.5041 228.496 88.7681 228.496C89.6481 228.496 90.4161 228.112 90.8481 227.536L92.3041 228.688ZM88.4001 223.28C87.3601 223.28 86.6721 223.856 86.4481 224.912H90.1601C90.1281 224.096 89.5361 223.28 88.4001 223.28ZM101.507 228.688C100.755 229.696 99.5072 230.32 97.9872 230.32C95.1232 230.32 93.5072 228.32 93.5072 225.968C93.5072 223.584 95.0112 221.616 97.6512 221.616C99.8912 221.616 101.363 223.136 101.363 225.248C101.363 225.696 101.299 226.112 101.235 226.384H95.5872C95.7792 227.888 96.7072 228.496 97.9712 228.496C98.8512 228.496 99.6192 228.112 100.051 227.536L101.507 228.688ZM97.6032 223.28C96.5632 223.28 95.8752 223.856 95.6512 224.912H99.3632C99.3312 224.096 98.7392 223.28 97.6032 223.28ZM102.535 228.832L103.879 227.616C104.375 228.24 104.967 228.688 105.735 228.688C106.391 228.688 106.727 228.304 106.727 227.824C106.727 226.416 102.871 226.944 102.871 224.112C102.871 222.688 104.071 221.616 105.751 221.616C106.983 221.616 108.103 222.208 108.679 222.992L107.335 224.176C106.919 223.664 106.391 223.248 105.767 223.248C105.127 223.248 104.823 223.6 104.823 224.016C104.823 225.392 108.679 224.912 108.679 227.696C108.647 229.392 107.287 230.32 105.767 230.32C104.327 230.32 103.303 229.744 102.535 228.832ZM115.888 220.528C115.168 220.528 114.56 219.92 114.56 219.2C114.56 218.48 115.168 217.872 115.888 217.872C116.608 217.872 117.2 218.48 117.2 219.2C117.2 219.92 116.608 220.528 115.888 220.528ZM114.864 230V221.936H116.896V230H114.864ZM119.333 230V221.936H121.365V222.576C121.925 222.032 122.677 221.616 123.749 221.616C125.493 221.616 126.885 222.816 126.885 225.2V230H124.837V225.28C124.837 224.208 124.229 223.536 123.237 223.536C122.213 223.536 121.669 224.224 121.365 224.736V230H119.333ZM128.617 225.968C128.617 223.616 130.169 221.616 132.713 221.616C133.801 221.616 134.585 221.952 135.209 222.576V218H137.257V230H135.209V229.36C134.585 229.984 133.801 230.32 132.713 230.32C130.169 230.32 128.617 228.32 128.617 225.968ZM130.745 225.968C130.745 227.376 131.625 228.4 133.001 228.4C133.913 228.4 134.665 228.016 135.209 227.28V224.656C134.665 223.92 133.913 223.536 133.001 223.536C131.625 223.536 130.745 224.56 130.745 225.968ZM140.717 220.528C139.997 220.528 139.389 219.92 139.389 219.2C139.389 218.48 139.997 217.872 140.717 217.872C141.437 217.872 142.029 218.48 142.029 219.2C142.029 219.92 141.437 220.528 140.717 220.528ZM139.693 230V221.936H141.725V230H139.693ZM143.348 228.832L144.692 227.616C145.188 228.24 145.78 228.688 146.548 228.688C147.204 228.688 147.54 228.304 147.54 227.824C147.54 226.416 143.684 226.944 143.684 224.112C143.684 222.688 144.884 221.616 146.564 221.616C147.796 221.616 148.916 222.208 149.492 222.992L148.148 224.176C147.732 223.664 147.204 223.248 146.58 223.248C145.94 223.248 145.636 223.6 145.636 224.016C145.636 225.392 149.492 224.912 149.492 227.696C149.46 229.392 148.1 230.32 146.58 230.32C145.14 230.32 144.116 229.744 143.348 228.832ZM151.364 233.936V221.936H153.396V222.592C154.02 221.968 154.804 221.616 155.908 221.616C158.468 221.616 160.004 223.616 160.004 225.968C160.004 228.32 158.468 230.32 155.908 230.32C154.804 230.32 154.02 229.968 153.396 229.344V233.936H151.364ZM155.62 223.536C154.676 223.536 153.908 223.952 153.396 224.704V227.232C153.94 228 154.692 228.4 155.62 228.4C156.996 228.4 157.892 227.376 157.892 225.968C157.892 224.56 156.996 223.536 155.62 223.536ZM165.783 221.616C168.407 221.616 170.199 223.552 170.199 225.968C170.199 228.384 168.407 230.32 165.783 230.32C163.159 230.32 161.367 228.384 161.367 225.968C161.367 223.552 163.159 221.616 165.783 221.616ZM165.815 228.4C167.111 228.4 168.087 227.36 168.087 225.968C168.087 224.56 167.111 223.536 165.815 223.536C164.471 223.536 163.479 224.56 163.479 225.968C163.479 227.376 164.471 228.4 165.815 228.4ZM172.052 230V221.936H174.084V222.576C174.644 222.032 175.396 221.616 176.468 221.616C178.212 221.616 179.604 222.816 179.604 225.2V230H177.556V225.28C177.556 224.208 176.948 223.536 175.956 223.536C174.932 223.536 174.388 224.224 174.084 224.736V230H172.052ZM182.935 220.528C182.215 220.528 181.607 219.92 181.607 219.2C181.607 218.48 182.215 217.872 182.935 217.872C183.655 217.872 184.247 218.48 184.247 219.2C184.247 219.92 183.655 220.528 182.935 220.528ZM181.911 230V221.936H183.943V230H181.911ZM195.02 225.968C195.02 228.32 193.484 230.32 190.924 230.32C189.82 230.32 189.036 229.968 188.412 229.344V230H186.38V218H188.412V222.592C189.036 221.968 189.82 221.616 190.924 221.616C193.484 221.616 195.02 223.616 195.02 225.968ZM190.636 223.536C189.692 223.536 188.908 223.952 188.412 224.688V227.248C188.956 228 189.724 228.4 190.636 228.4C192.012 228.4 192.908 227.376 192.908 225.968C192.908 224.56 192.012 223.536 190.636 223.536ZM196.88 230V218H198.912V230H196.88ZM208.773 228.688C208.021 229.696 206.773 230.32 205.253 230.32C202.389 230.32 200.773 228.32 200.773 225.968C200.773 223.584 202.277 221.616 204.917 221.616C207.157 221.616 208.629 223.136 208.629 225.248C208.629 225.696 208.565 226.112 208.501 226.384H202.853C203.045 227.888 203.973 228.496 205.237 228.496C206.117 228.496 206.885 228.112 207.317 227.536L208.773 228.688ZM204.869 223.28C203.829 223.28 203.141 223.856 202.917 224.912H206.629C206.597 224.096 206.005 223.28 204.869 223.28ZM209.801 228.832L211.145 227.616C211.641 228.24 212.233 228.688 213.001 228.688C213.657 228.688 213.993 228.304 213.993 227.824C213.993 226.416 210.137 226.944 210.137 224.112C210.137 222.688 211.337 221.616 213.017 221.616C214.249 221.616 215.369 222.208 215.945 222.992L214.601 224.176C214.185 223.664 213.657 223.248 213.033 223.248C212.393 223.248 212.089 223.6 212.089 224.016C212.089 225.392 215.945 224.912 215.945 227.696C215.913 229.392 214.553 230.32 213.033 230.32C211.593 230.32 210.569 229.744 209.801 228.832ZM221.426 228.832L222.77 227.616C223.266 228.24 223.858 228.688 224.626 228.688C225.282 228.688 225.618 228.304 225.618 227.824C225.618 226.416 221.762 226.944 221.762 224.112C221.762 222.688 222.962 221.616 224.642 221.616C225.874 221.616 226.994 222.208 227.57 222.992L226.226 224.176C225.81 223.664 225.282 223.248 224.658 223.248C224.018 223.248 223.714 223.6 223.714 224.016C223.714 225.392 227.57 224.912 227.57 227.696C227.538 229.392 226.178 230.32 224.658 230.32C223.218 230.32 222.194 229.744 221.426 228.832ZM234.755 226.512V221.936H236.803V226.416C236.803 228.832 235.395 230.32 233.027 230.32C230.659 230.32 229.267 228.832 229.267 226.416V221.936H231.315V226.512C231.315 227.68 231.923 228.4 233.043 228.4C234.147 228.4 234.755 227.68 234.755 226.512ZM239.052 230V221.936H241.084V222.736C241.612 222.192 242.3 221.776 243.212 221.776C243.484 221.776 243.724 221.824 243.916 221.888V223.888C243.66 223.824 243.388 223.776 243.02 223.776C242.028 223.776 241.388 224.32 241.084 224.832V230H239.052ZM249.864 230V218H251.896V230H249.864ZM261.757 228.688C261.005 229.696 259.757 230.32 258.237 230.32C255.373 230.32 253.757 228.32 253.757 225.968C253.757 223.584 255.261 221.616 257.901 221.616C260.141 221.616 261.613 223.136 261.613 225.248C261.613 225.696 261.549 226.112 261.485 226.384H255.837C256.029 227.888 256.957 228.496 258.221 228.496C259.101 228.496 259.869 228.112 260.301 227.536L261.757 228.688ZM257.853 223.28C256.813 223.28 256.125 223.856 255.901 224.912H259.613C259.581 224.096 258.989 223.28 257.853 223.28ZM268.423 227.056V223.76H266.919V221.936H268.423V219.92H270.471V221.936H272.935V223.76H270.471V227.056C270.471 227.952 270.951 228.304 271.751 228.304C272.311 228.304 272.679 228.24 272.951 228.128V229.904C272.551 230.08 272.071 230.16 271.399 230.16C269.383 230.16 268.423 229.024 268.423 227.056ZM282.023 228.688C281.271 229.696 280.023 230.32 278.503 230.32C275.639 230.32 274.023 228.32 274.023 225.968C274.023 223.584 275.527 221.616 278.167 221.616C280.407 221.616 281.879 223.136 281.879 225.248C281.879 225.696 281.815 226.112 281.751 226.384H276.103C276.295 227.888 277.223 228.496 278.487 228.496C279.367 228.496 280.135 228.112 280.567 227.536L282.023 228.688ZM278.119 223.28C277.079 223.28 276.391 223.856 276.167 224.912H279.879C279.847 224.096 279.255 223.28 278.119 223.28ZM283.864 230V221.936H285.896V222.736C286.424 222.192 287.112 221.776 288.024 221.776C288.296 221.776 288.536 221.824 288.728 221.888V223.888C288.472 223.824 288.2 223.776 287.832 223.776C286.84 223.776 286.2 224.32 285.896 224.832V230H283.864ZM290.364 230V221.936H292.396V222.736C292.924 222.192 293.612 221.776 294.524 221.776C294.796 221.776 295.036 221.824 295.228 221.888V223.888C294.972 223.824 294.7 223.776 294.332 223.776C293.34 223.776 292.7 224.32 292.396 224.832V230H290.364ZM297.888 220.528C297.168 220.528 296.56 219.92 296.56 219.2C296.56 218.48 297.168 217.872 297.888 217.872C298.608 217.872 299.2 218.48 299.2 219.2C299.2 219.92 298.608 220.528 297.888 220.528ZM296.864 230V221.936H298.896V230H296.864ZM301.845 227.056V223.76H300.341V221.936H301.845V219.92H303.893V221.936H306.357V223.76H303.893V227.056C303.893 227.952 304.373 228.304 305.173 228.304C305.733 228.304 306.101 228.24 306.373 228.128V229.904C305.973 230.08 305.493 230.16 304.821 230.16C302.805 230.16 301.845 229.024 301.845 227.056ZM311.861 221.616C314.485 221.616 316.277 223.552 316.277 225.968C316.277 228.384 314.485 230.32 311.861 230.32C309.237 230.32 307.445 228.384 307.445 225.968C307.445 223.552 309.237 221.616 311.861 221.616ZM311.893 228.4C313.189 228.4 314.165 227.36 314.165 225.968C314.165 224.56 313.189 223.536 311.893 223.536C310.549 223.536 309.557 224.56 309.557 225.968C309.557 227.376 310.549 228.4 311.893 228.4ZM319.154 220.528C318.434 220.528 317.826 219.92 317.826 219.2C317.826 218.48 318.434 217.872 319.154 217.872C319.874 217.872 320.466 218.48 320.466 219.2C320.466 219.92 319.874 220.528 319.154 220.528ZM318.13 230V221.936H320.162V230H318.13ZM322.599 230V221.936H324.631V222.736C325.159 222.192 325.847 221.776 326.759 221.776C327.031 221.776 327.271 221.824 327.463 221.888V223.888C327.207 223.824 326.935 223.776 326.567 223.776C325.575 223.776 324.935 224.32 324.631 224.832V230H322.599ZM336.179 228.688C335.427 229.696 334.179 230.32 332.659 230.32C329.795 230.32 328.179 228.32 328.179 225.968C328.179 223.584 329.683 221.616 332.323 221.616C334.563 221.616 336.035 223.136 336.035 225.248C336.035 225.696 335.971 226.112 335.907 226.384H330.259C330.451 227.888 331.379 228.496 332.643 228.496C333.523 228.496 334.291 228.112 334.723 227.536L336.179 228.688ZM332.275 223.28C331.235 223.28 330.547 223.856 330.323 224.912H334.035C334.003 224.096 333.411 223.28 332.275 223.28ZM341.757 225.968C341.757 223.616 343.293 221.616 345.853 221.616C346.941 221.616 347.725 221.968 348.349 222.592V221.936H350.397V233.936H348.349V229.344C347.725 229.968 346.941 230.32 345.853 230.32C343.293 230.32 341.757 228.32 341.757 225.968ZM343.869 225.968C343.869 227.376 344.749 228.4 346.125 228.4C347.069 228.4 347.853 227.984 348.349 227.248V224.688C347.805 223.936 347.037 223.536 346.125 223.536C344.749 223.536 343.869 224.56 343.869 225.968ZM358.145 226.512V221.936H360.193V226.416C360.193 228.832 358.785 230.32 356.417 230.32C354.049 230.32 352.657 228.832 352.657 226.416V221.936H354.705V226.512C354.705 227.68 355.313 228.4 356.433 228.4C357.537 228.4 358.145 227.68 358.145 226.512ZM369.867 228.688C369.115 229.696 367.867 230.32 366.347 230.32C363.483 230.32 361.867 228.32 361.867 225.968C361.867 223.584 363.371 221.616 366.011 221.616C368.251 221.616 369.723 223.136 369.723 225.248C369.723 225.696 369.659 226.112 369.595 226.384H363.947C364.139 227.888 365.067 228.496 366.331 228.496C367.211 228.496 367.979 228.112 368.411 227.536L369.867 228.688ZM365.963 223.28C364.923 223.28 364.235 223.856 364.011 224.912H367.723C367.691 224.096 367.099 223.28 365.963 223.28ZM374.869 221.936H377.045L379.141 227.696L381.221 221.936H383.413L380.469 230H377.797L374.869 221.936ZM388.439 221.616C391.063 221.616 392.855 223.552 392.855 225.968C392.855 228.384 391.063 230.32 388.439 230.32C385.815 230.32 384.023 228.384 384.023 225.968C384.023 223.552 385.815 221.616 388.439 221.616ZM388.471 228.4C389.767 228.4 390.743 227.36 390.743 225.968C390.743 224.56 389.767 223.536 388.471 223.536C387.127 223.536 386.135 224.56 386.135 225.968C386.135 227.376 387.127 228.4 388.471 228.4ZM400.02 226.512V221.936H402.068V226.416C402.068 228.832 400.66 230.32 398.292 230.32C395.924 230.32 394.532 228.832 394.532 226.416V221.936H396.58V226.512C396.58 227.68 397.188 228.4 398.308 228.4C399.412 228.4 400.02 227.68 400.02 226.512ZM403.551 228.832L404.895 227.616C405.391 228.24 405.983 228.688 406.751 228.688C407.407 228.688 407.743 228.304 407.743 227.824C407.743 226.416 403.887 226.944 403.887 224.112C403.887 222.688 405.087 221.616 406.767 221.616C407.999 221.616 409.119 222.208 409.695 222.992L408.351 224.176C407.935 223.664 407.407 223.248 406.783 223.248C406.143 223.248 405.839 223.6 405.839 224.016C405.839 225.392 409.695 224.912 409.695 227.696C409.663 229.392 408.303 230.32 406.783 230.32C405.343 230.32 404.319 229.744 403.551 228.832ZM418.152 230.24C416.536 230.24 415.432 229.312 415.432 227.824C415.432 226.608 416.376 225.696 418.104 225.408L420.568 224.992V224.784C420.568 223.936 419.928 223.392 419 223.392C418.216 223.392 417.608 223.76 417.176 224.352L415.688 223.216C416.408 222.224 417.592 221.616 419.064 221.616C421.4 221.616 422.6 223.008 422.6 224.784V230H420.568V229.216C420.056 229.84 419.096 230.24 418.152 230.24ZM417.448 227.728C417.448 228.272 417.88 228.624 418.568 228.624C419.496 228.624 420.168 228.192 420.568 227.552V226.416L418.648 226.736C417.8 226.88 417.448 227.232 417.448 227.728ZM423.697 221.936H425.873L427.969 227.696L430.049 221.936H432.241L429.297 230H426.625L423.697 221.936ZM440.851 228.688C440.099 229.696 438.851 230.32 437.331 230.32C434.467 230.32 432.851 228.32 432.851 225.968C432.851 223.584 434.355 221.616 436.995 221.616C439.235 221.616 440.707 223.136 440.707 225.248C440.707 225.696 440.643 226.112 440.579 226.384H434.931C435.123 227.888 436.051 228.496 437.315 228.496C438.195 228.496 438.963 228.112 439.395 227.536L440.851 228.688ZM436.947 223.28C435.907 223.28 435.219 223.856 434.995 224.912H438.707C438.675 224.096 438.083 223.28 436.947 223.28ZM442.263 230V228.176L446.359 223.76H442.391V221.936H448.903V223.76L444.807 228.176H449.015V230H442.263ZM201.262 252.832L202.606 251.616C203.102 252.24 203.694 252.688 204.462 252.688C205.118 252.688 205.454 252.304 205.454 251.824C205.454 250.416 201.598 250.944 201.598 248.112C201.598 246.688 202.798 245.616 204.478 245.616C205.71 245.616 206.83 246.208 207.406 246.992L206.062 248.176C205.646 247.664 205.118 247.248 204.494 247.248C203.854 247.248 203.55 247.6 203.55 248.016C203.55 249.392 207.406 248.912 207.406 251.696C207.374 253.392 206.014 254.32 204.494 254.32C203.054 254.32 202.03 253.744 201.262 252.832ZM213.935 244.656H211.983L213.647 242H215.855L213.935 244.656ZM216.671 252.688C215.919 253.696 214.671 254.32 213.151 254.32C210.287 254.32 208.671 252.32 208.671 249.968C208.671 247.584 210.175 245.616 212.815 245.616C215.055 245.616 216.527 247.136 216.527 249.248C216.527 249.696 216.463 250.112 216.399 250.384H210.751C210.943 251.888 211.871 252.496 213.135 252.496C214.015 252.496 214.783 252.112 215.215 251.536L216.671 252.688ZM212.767 247.28C211.727 247.28 211.039 247.856 210.815 248.912H214.527C214.495 248.096 213.903 247.28 212.767 247.28ZM218.513 254V242H220.545V254H218.513ZM230.406 252.688C229.654 253.696 228.406 254.32 226.886 254.32C224.022 254.32 222.406 252.32 222.406 249.968C222.406 247.584 223.91 245.616 226.55 245.616C228.79 245.616 230.262 247.136 230.262 249.248C230.262 249.696 230.198 250.112 230.134 250.384H224.486C224.678 251.888 225.606 252.496 226.87 252.496C227.75 252.496 228.518 252.112 228.95 251.536L230.406 252.688ZM226.502 247.28C225.462 247.28 224.774 247.856 224.55 248.912H228.262C228.23 248.096 227.638 247.28 226.502 247.28ZM236.057 252.4C236.857 252.4 237.497 252.032 237.881 251.472L239.465 252.688C238.713 253.68 237.529 254.32 236.057 254.32C233.273 254.32 231.609 252.32 231.609 249.968C231.609 247.616 233.273 245.616 236.057 245.616C237.529 245.616 238.713 246.256 239.465 247.248L237.881 248.464C237.497 247.904 236.857 247.536 236.025 247.536C234.697 247.536 233.721 248.56 233.721 249.968C233.721 251.392 234.697 252.4 236.057 252.4ZM241.572 251.056V247.76H240.068V245.936H241.572V243.92H243.62V245.936H246.084V247.76H243.62V251.056C243.62 251.952 244.1 252.304 244.9 252.304C245.46 252.304 245.828 252.24 246.1 252.128V253.904C245.7 254.08 245.22 254.16 244.548 254.16C242.532 254.16 241.572 253.024 241.572 251.056ZM248.928 244.528C248.208 244.528 247.6 243.92 247.6 243.2C247.6 242.48 248.208 241.872 248.928 241.872C249.648 241.872 250.24 242.48 250.24 243.2C250.24 243.92 249.648 244.528 248.928 244.528ZM247.904 254V245.936H249.936V254H247.904ZM256.212 245.616C258.836 245.616 260.628 247.552 260.628 249.968C260.628 252.384 258.836 254.32 256.212 254.32C253.588 254.32 251.796 252.384 251.796 249.968C251.796 247.552 253.588 245.616 256.212 245.616ZM256.244 252.4C257.54 252.4 258.516 251.36 258.516 249.968C258.516 248.56 257.54 247.536 256.244 247.536C254.9 247.536 253.908 248.56 253.908 249.968C253.908 251.376 254.9 252.4 256.244 252.4ZM262.482 254V245.936H264.514V246.576C265.074 246.032 265.826 245.616 266.898 245.616C268.642 245.616 270.034 246.816 270.034 249.2V254H267.986V249.28C267.986 248.208 267.378 247.536 266.386 247.536C265.362 247.536 264.818 248.224 264.514 248.736V254H262.482ZM272.341 254V245.936H274.373V246.576C274.933 246.032 275.685 245.616 276.757 245.616C278.501 245.616 279.893 246.816 279.893 249.2V254H277.845V249.28C277.845 248.208 277.237 247.536 276.245 247.536C275.221 247.536 274.677 248.224 274.373 248.736V254H272.341ZM286.888 244.656H284.936L286.6 242H288.808L286.888 244.656ZM289.624 252.688C288.872 253.696 287.624 254.32 286.104 254.32C283.24 254.32 281.624 252.32 281.624 249.968C281.624 247.584 283.128 245.616 285.768 245.616C288.008 245.616 289.48 247.136 289.48 249.248C289.48 249.696 289.416 250.112 289.352 250.384H283.704C283.896 251.888 284.824 252.496 286.088 252.496C286.968 252.496 287.736 252.112 288.168 251.536L289.624 252.688ZM285.72 247.28C284.68 247.28 283.992 247.856 283.768 248.912H287.48C287.448 248.096 286.856 247.28 285.72 247.28Z" fill="#3A3A3A"/>
<path d="M356 17C365.2 17 369.5 25 369.5 35.5C369.5 46 365.2 54 356 54C346.8 54 342.5 46 342.5 35.5C342.5 25 346.8 17 356 17ZM356 23.25C351.55 23.25 349.4 28.15 349.4 35.5C349.4 42.9 351.55 47.75 356 47.75C360.4 47.75 362.55 42.85 362.55 35.5C362.55 28.1 360.4 23.25 356 23.25Z" fill="white"/>
</svg>
