<svg width="491" height="259" viewBox="0 0 491 259" fill="none" xmlns="http://www.w3.org/2000/svg">
<path d="M127.631 196.014L323.529 187.897C334.918 187.425 343.768 177.81 343.296 166.421L339.735 80.5007L338.026 39.2589C337.554 27.8703 327.939 19.0205 316.551 19.4925L267.576 21.5219L120.652 27.6103C109.264 28.0823 100.414 37.6971 100.886 49.0857L106.155 176.248C106.627 187.637 116.242 196.486 127.631 196.014Z" fill="#F4F4FF"/>
<path d="M153.295 176.549H349.362C360.76 176.549 370 167.308 370 155.91V69.9158V28.6386C370 17.2402 360.76 8 349.362 8H300.345H153.295C141.896 8 132.656 17.2402 132.656 28.6386V155.91C132.656 167.308 141.896 176.549 153.295 176.549Z" fill="white"/>
<path d="M300.345 8H153.295C141.896 8 132.656 17.2402 132.656 28.6386V155.91C132.656 167.308 141.896 176.549 153.295 176.549H349.362C360.76 176.549 370 167.308 370 155.91V69.9158" stroke="#D6D6F0" stroke-width="1.71988"/>
<path d="M149 59H319" stroke="#D6D6F0"/>
<path d="M150 78H320" stroke="#D6D6F0"/>
<path d="M150 97H320" stroke="#D6D6F0"/>
<path d="M150 116H320" stroke="#D6D6F0"/>
<path d="M150 135H320" stroke="#D6D6F0"/>
<path d="M150 154H320" stroke="#D6D6F0"/>
<rect x="194.838" y="89.2734" width="25.7983" height="63.6357" fill="#F4F4FF"/>
<rect x="160" y="45" width="26" height="108" fill="#F4F4FF"/>
<rect x="236.115" y="70.3555" width="25.7983" height="82.5544" fill="#F4F4FF"/>
<rect x="273.953" y="85.8359" width="25.7983" height="67.0755" fill="#F4F4FF"/>
<path d="M163 89.2734L206.857 130.551L248.994 98.7328L297.151 118.511" stroke="#D6D6F0" stroke-width="1.71988"/>
<circle cx="355.887" cy="35.2576" r="35.2576" fill="#D6D6F0"/>
<path d="M14.9527 230V218.8H17.2247V230H14.9527ZM20.0832 230V218H22.1152V230H20.0832ZM28.8644 230V221.936H30.8964V222.576C31.4564 222.032 32.2084 221.616 33.2804 221.616C35.0244 221.616 36.4164 222.816 36.4164 225.2V230H34.3684V225.28C34.3684 224.208 33.7604 223.536 32.7684 223.536C31.7444 223.536 31.2004 224.224 30.8964 224.736V230H28.8644ZM39.6838 223.408H37.7958L39.2358 218.8H41.5398L39.6838 223.408ZM46.5429 231.84C45.9829 233.168 45.0709 234 43.5349 234C42.9109 234 42.4789 233.904 42.0949 233.744V231.952C42.3509 232.064 42.7349 232.144 43.0869 232.144C43.8869 232.144 44.3829 231.872 44.7189 231.056L45.1669 229.984L41.7749 221.936H44.0309L46.2389 227.36L48.4629 221.936H50.6069L46.5429 231.84ZM58.4646 230.24C56.8486 230.24 55.7446 229.312 55.7446 227.824C55.7446 226.608 56.6886 225.696 58.4166 225.408L60.8806 224.992V224.784C60.8806 223.936 60.2406 223.392 59.3126 223.392C58.5286 223.392 57.9206 223.76 57.4886 224.352L56.0006 223.216C56.7206 222.224 57.9046 221.616 59.3766 221.616C61.7126 221.616 62.9126 223.008 62.9126 224.784V230H60.8806V229.216C60.3686 229.84 59.4086 230.24 58.4646 230.24ZM57.7606 227.728C57.7606 228.272 58.1926 228.624 58.8806 228.624C59.8086 228.624 60.4806 228.192 60.8806 227.552V226.416L58.9606 226.736C58.1126 226.88 57.7606 227.232 57.7606 227.728ZM69.5519 233.936V221.936H71.5839V222.592C72.2079 221.968 72.9919 221.616 74.0959 221.616C76.6559 221.616 78.1919 223.616 78.1919 225.968C78.1919 228.32 76.6559 230.32 74.0959 230.32C72.9919 230.32 72.2079 229.968 71.5839 229.344V233.936H69.5519ZM73.8079 223.536C72.8639 223.536 72.0959 223.952 71.5839 224.704V227.232C72.1279 228 72.8799 228.4 73.8079 228.4C75.1839 228.4 76.0799 227.376 76.0799 225.968C76.0799 224.56 75.1839 223.536 73.8079 223.536ZM82.1364 230.24C80.5204 230.24 79.4164 229.312 79.4164 227.824C79.4164 226.608 80.3604 225.696 82.0884 225.408L84.5524 224.992V224.784C84.5524 223.936 83.9124 223.392 82.9844 223.392C82.2004 223.392 81.5924 223.76 81.1604 224.352L79.6724 223.216C80.3924 222.224 81.5764 221.616 83.0484 221.616C85.3844 221.616 86.5844 223.008 86.5844 224.784V230H84.5524V229.216C84.0404 229.84 83.0804 230.24 82.1364 230.24ZM81.4324 227.728C81.4324 228.272 81.8644 228.624 82.5524 228.624C83.4804 228.624 84.1524 228.192 84.5524 227.552V226.416L82.6324 226.736C81.7844 226.88 81.4324 227.232 81.4324 227.728ZM88.2073 228.832L89.5513 227.616C90.0473 228.24 90.6393 228.688 91.4073 228.688C92.0633 228.688 92.3993 228.304 92.3993 227.824C92.3993 226.416 88.5433 226.944 88.5433 224.112C88.5433 222.688 89.7433 221.616 91.4233 221.616C92.6553 221.616 93.7753 222.208 94.3513 222.992L93.0073 224.176C92.5913 223.664 92.0633 223.248 91.4393 223.248C90.7993 223.248 90.4953 223.6 90.4953 224.016C90.4953 225.392 94.3513 224.912 94.3513 227.696C94.3193 229.392 92.9593 230.32 91.4393 230.32C89.9993 230.32 88.9753 229.744 88.2073 228.832ZM99.9603 225.968C99.9603 223.616 101.512 221.616 104.056 221.616C105.144 221.616 105.928 221.952 106.552 222.576V218H108.6V230H106.552V229.36C105.928 229.984 105.144 230.32 104.056 230.32C101.512 230.32 99.9603 228.32 99.9603 225.968ZM102.088 225.968C102.088 227.376 102.968 228.4 104.344 228.4C105.256 228.4 106.008 228.016 106.552 227.28V224.656C106.008 223.92 105.256 223.536 104.344 223.536C102.968 223.536 102.088 224.56 102.088 225.968ZM118.46 228.688C117.708 229.696 116.46 230.32 114.94 230.32C112.076 230.32 110.46 228.32 110.46 225.968C110.46 223.584 111.964 221.616 114.604 221.616C116.844 221.616 118.316 223.136 118.316 225.248C118.316 225.696 118.252 226.112 118.188 226.384H112.54C112.732 227.888 113.66 228.496 114.924 228.496C115.804 228.496 116.572 228.112 117.004 227.536L118.46 228.688ZM114.556 223.28C113.516 223.28 112.828 223.856 112.604 224.912H116.316C116.284 224.096 115.692 223.28 114.556 223.28ZM124.038 225.968C124.038 223.616 125.59 221.616 128.134 221.616C129.222 221.616 130.006 221.952 130.63 222.576V218H132.678V230H130.63V229.36C130.006 229.984 129.222 230.32 128.134 230.32C125.59 230.32 124.038 228.32 124.038 225.968ZM126.166 225.968C126.166 227.376 127.046 228.4 128.422 228.4C129.334 228.4 130.086 228.016 130.63 227.28V224.656C130.086 223.92 129.334 223.536 128.422 223.536C127.046 223.536 126.166 224.56 126.166 225.968ZM138.954 221.616C141.578 221.616 143.37 223.552 143.37 225.968C143.37 228.384 141.578 230.32 138.954 230.32C136.33 230.32 134.538 228.384 134.538 225.968C134.538 223.552 136.33 221.616 138.954 221.616ZM138.986 228.4C140.282 228.4 141.258 227.36 141.258 225.968C141.258 224.56 140.282 223.536 138.986 223.536C137.642 223.536 136.65 224.56 136.65 225.968C136.65 227.376 137.642 228.4 138.986 228.4ZM145.224 230V221.936H147.256V222.576C147.816 222.032 148.568 221.616 149.64 221.616C151.384 221.616 152.776 222.816 152.776 225.2V230H150.728V225.28C150.728 224.208 150.12 223.536 149.128 223.536C148.104 223.536 147.56 224.224 147.256 224.736V230H145.224ZM155.083 230V221.936H157.115V222.576C157.675 222.032 158.427 221.616 159.499 221.616C161.243 221.616 162.635 222.816 162.635 225.2V230H160.587V225.28C160.587 224.208 159.979 223.536 158.987 223.536C157.963 223.536 157.419 224.224 157.115 224.736V230H155.083ZM169.631 220.656H167.679L169.343 218H171.551L169.631 220.656ZM172.367 228.688C171.615 229.696 170.367 230.32 168.847 230.32C165.983 230.32 164.367 228.32 164.367 225.968C164.367 223.584 165.871 221.616 168.511 221.616C170.751 221.616 172.223 223.136 172.223 225.248C172.223 225.696 172.159 226.112 172.095 226.384H166.447C166.639 227.888 167.567 228.496 168.831 228.496C169.711 228.496 170.479 228.112 170.911 227.536L172.367 228.688ZM168.463 223.28C167.423 223.28 166.735 223.856 166.511 224.912H170.223C170.191 224.096 169.599 223.28 168.463 223.28ZM181.57 228.688C180.818 229.696 179.57 230.32 178.05 230.32C175.186 230.32 173.57 228.32 173.57 225.968C173.57 223.584 175.074 221.616 177.714 221.616C179.954 221.616 181.426 223.136 181.426 225.248C181.426 225.696 181.362 226.112 181.298 226.384H175.65C175.842 227.888 176.77 228.496 178.034 228.496C178.914 228.496 179.682 228.112 180.114 227.536L181.57 228.688ZM177.666 223.28C176.626 223.28 175.938 223.856 175.714 224.912H179.426C179.394 224.096 178.802 223.28 177.666 223.28ZM182.598 228.832L183.942 227.616C184.438 228.24 185.03 228.688 185.798 228.688C186.454 228.688 186.79 228.304 186.79 227.824C186.79 226.416 182.934 226.944 182.934 224.112C182.934 222.688 184.134 221.616 185.814 221.616C187.046 221.616 188.166 222.208 188.742 222.992L187.398 224.176C186.982 223.664 186.454 223.248 185.83 223.248C185.19 223.248 184.886 223.6 184.886 224.016C184.886 225.392 188.742 224.912 188.742 227.696C188.71 229.392 187.35 230.32 185.83 230.32C184.39 230.32 183.366 229.744 182.598 228.832ZM194.927 230V221.936H196.959V222.736C197.487 222.192 198.175 221.776 199.087 221.776C199.359 221.776 199.599 221.824 199.791 221.888V223.888C199.535 223.824 199.263 223.776 198.895 223.776C197.903 223.776 197.263 224.32 196.959 224.832V230H194.927ZM205.771 220.656H203.819L205.483 218H207.691L205.771 220.656ZM208.507 228.688C207.755 229.696 206.507 230.32 204.987 230.32C202.123 230.32 200.507 228.32 200.507 225.968C200.507 223.584 202.011 221.616 204.651 221.616C206.891 221.616 208.363 223.136 208.363 225.248C208.363 225.696 208.299 226.112 208.235 226.384H202.587C202.779 227.888 203.707 228.496 204.971 228.496C205.851 228.496 206.619 228.112 207.051 227.536L208.507 228.688ZM204.603 223.28C203.563 223.28 202.875 223.856 202.651 224.912H206.363C206.331 224.096 205.739 223.28 204.603 223.28ZM209.357 221.936H210.861V221.088C210.861 219.376 211.997 218 214.013 218C214.749 218 215.373 218.176 215.885 218.448L215.021 220.144C214.781 219.968 214.461 219.824 214.045 219.824C213.357 219.824 212.909 220.304 212.909 221.04V221.936H215.373V223.76H212.909V230H210.861V223.76H209.357V221.936ZM221.146 220.656H219.194L220.858 218H223.066L221.146 220.656ZM223.882 228.688C223.13 229.696 221.882 230.32 220.362 230.32C217.498 230.32 215.882 228.32 215.882 225.968C215.882 223.584 217.386 221.616 220.026 221.616C222.266 221.616 223.738 223.136 223.738 225.248C223.738 225.696 223.674 226.112 223.61 226.384H217.962C218.154 227.888 219.082 228.496 220.346 228.496C221.226 228.496 221.994 228.112 222.426 227.536L223.882 228.688ZM219.978 223.28C218.938 223.28 218.25 223.856 218.026 224.912H221.738C221.706 224.096 221.114 223.28 219.978 223.28ZM225.724 230V221.936H227.756V222.736C228.284 222.192 228.972 221.776 229.884 221.776C230.156 221.776 230.396 221.824 230.588 221.888V223.888C230.332 223.824 230.06 223.776 229.692 223.776C228.7 223.776 228.06 224.32 227.756 224.832V230H225.724ZM239.304 228.688C238.552 229.696 237.304 230.32 235.784 230.32C232.92 230.32 231.304 228.32 231.304 225.968C231.304 223.584 232.808 221.616 235.448 221.616C237.688 221.616 239.16 223.136 239.16 225.248C239.16 225.696 239.096 226.112 239.032 226.384H233.384C233.576 227.888 234.504 228.496 235.768 228.496C236.648 228.496 237.416 228.112 237.848 227.536L239.304 228.688ZM235.4 223.28C234.36 223.28 233.672 223.856 233.448 224.912H237.16C237.128 224.096 236.536 223.28 235.4 223.28ZM241.146 230V221.936H243.178V222.576C243.738 222.032 244.49 221.616 245.562 221.616C247.306 221.616 248.698 222.816 248.698 225.2V230H246.65V225.28C246.65 224.208 246.042 223.536 245.05 223.536C244.026 223.536 243.482 224.224 243.178 224.736V230H241.146ZM254.877 228.4C255.677 228.4 256.317 228.032 256.701 227.472L258.285 228.688C257.533 229.68 256.349 230.32 254.877 230.32C252.093 230.32 250.429 228.32 250.429 225.968C250.429 223.616 252.093 221.616 254.877 221.616C256.349 221.616 257.533 222.256 258.285 223.248L256.701 224.464C256.317 223.904 255.677 223.536 254.845 223.536C253.517 223.536 252.541 224.56 252.541 225.968C252.541 227.392 253.517 228.4 254.877 228.4ZM264.177 220.656H262.225L263.889 218H266.097L264.177 220.656ZM266.913 228.688C266.161 229.696 264.913 230.32 263.393 230.32C260.529 230.32 258.913 228.32 258.913 225.968C258.913 223.584 260.417 221.616 263.057 221.616C265.297 221.616 266.769 223.136 266.769 225.248C266.769 225.696 266.705 226.112 266.641 226.384H260.993C261.185 227.888 262.113 228.496 263.377 228.496C264.257 228.496 265.025 228.112 265.457 227.536L266.913 228.688ZM263.009 223.28C261.969 223.28 261.281 223.856 261.057 224.912H264.769C264.737 224.096 264.145 223.28 263.009 223.28ZM276.117 228.688C275.365 229.696 274.117 230.32 272.597 230.32C269.733 230.32 268.117 228.32 268.117 225.968C268.117 223.584 269.621 221.616 272.261 221.616C274.501 221.616 275.973 223.136 275.973 225.248C275.973 225.696 275.909 226.112 275.845 226.384H270.197C270.389 227.888 271.317 228.496 272.581 228.496C273.461 228.496 274.229 228.112 274.661 227.536L276.117 228.688ZM272.213 223.28C271.173 223.28 270.485 223.856 270.261 224.912H273.973C273.941 224.096 273.349 223.28 272.213 223.28ZM277.145 228.832L278.489 227.616C278.985 228.24 279.577 228.688 280.345 228.688C281.001 228.688 281.337 228.304 281.337 227.824C281.337 226.416 277.481 226.944 277.481 224.112C277.481 222.688 278.681 221.616 280.361 221.616C281.593 221.616 282.713 222.208 283.289 222.992L281.945 224.176C281.529 223.664 281.001 223.248 280.377 223.248C279.737 223.248 279.433 223.6 279.433 224.016C279.433 225.392 283.289 224.912 283.289 227.696C283.257 229.392 281.897 230.32 280.377 230.32C278.937 230.32 277.913 229.744 277.145 228.832ZM288.77 228.832L290.114 227.616C290.61 228.24 291.202 228.688 291.97 228.688C292.626 228.688 292.962 228.304 292.962 227.824C292.962 226.416 289.106 226.944 289.106 224.112C289.106 222.688 290.306 221.616 291.986 221.616C293.218 221.616 294.338 222.208 294.914 222.992L293.57 224.176C293.154 223.664 292.626 223.248 292.002 223.248C291.362 223.248 291.058 223.6 291.058 224.016C291.058 225.392 294.914 224.912 294.914 227.696C294.882 229.392 293.522 230.32 292.002 230.32C290.562 230.32 289.538 229.744 288.77 228.832ZM302.098 226.512V221.936H304.146V226.416C304.146 228.832 302.738 230.32 300.37 230.32C298.002 230.32 296.61 228.832 296.61 226.416V221.936H298.658V226.512C298.658 227.68 299.266 228.4 300.386 228.4C301.49 228.4 302.098 227.68 302.098 226.512ZM306.396 230V221.936H308.428V222.736C308.956 222.192 309.644 221.776 310.556 221.776C310.828 221.776 311.068 221.824 311.26 221.888V223.888C311.004 223.824 310.732 223.776 310.364 223.776C309.372 223.776 308.732 224.32 308.428 224.832V230H306.396ZM317.208 230V218H319.24V230H317.208ZM329.101 228.688C328.349 229.696 327.101 230.32 325.581 230.32C322.717 230.32 321.101 228.32 321.101 225.968C321.101 223.584 322.605 221.616 325.245 221.616C327.485 221.616 328.957 223.136 328.957 225.248C328.957 225.696 328.893 226.112 328.829 226.384H323.181C323.373 227.888 324.301 228.496 325.565 228.496C326.445 228.496 327.213 228.112 327.645 227.536L329.101 228.688ZM325.197 223.28C324.157 223.28 323.469 223.856 323.245 224.912H326.957C326.925 224.096 326.333 223.28 325.197 223.28ZM335.767 227.056V223.76H334.263V221.936H335.767V219.92H337.815V221.936H340.279V223.76H337.815V227.056C337.815 227.952 338.295 228.304 339.095 228.304C339.655 228.304 340.023 228.24 340.295 228.128V229.904C339.895 230.08 339.415 230.16 338.743 230.16C336.727 230.16 335.767 229.024 335.767 227.056ZM349.367 228.688C348.615 229.696 347.367 230.32 345.847 230.32C342.983 230.32 341.367 228.32 341.367 225.968C341.367 223.584 342.871 221.616 345.511 221.616C347.751 221.616 349.223 223.136 349.223 225.248C349.223 225.696 349.159 226.112 349.095 226.384H343.447C343.639 227.888 344.567 228.496 345.831 228.496C346.711 228.496 347.479 228.112 347.911 227.536L349.367 228.688ZM345.463 223.28C344.423 223.28 343.735 223.856 343.511 224.912H347.223C347.191 224.096 346.599 223.28 345.463 223.28ZM351.208 230V221.936H353.24V222.736C353.768 222.192 354.456 221.776 355.368 221.776C355.64 221.776 355.88 221.824 356.072 221.888V223.888C355.816 223.824 355.544 223.776 355.176 223.776C354.184 223.776 353.544 224.32 353.24 224.832V230H351.208ZM357.708 230V221.936H359.74V222.736C360.268 222.192 360.956 221.776 361.868 221.776C362.14 221.776 362.38 221.824 362.572 221.888V223.888C362.316 223.824 362.044 223.776 361.676 223.776C360.684 223.776 360.044 224.32 359.74 224.832V230H357.708ZM365.232 220.528C364.512 220.528 363.904 219.92 363.904 219.2C363.904 218.48 364.512 217.872 365.232 217.872C365.952 217.872 366.544 218.48 366.544 219.2C366.544 219.92 365.952 220.528 365.232 220.528ZM364.208 230V221.936H366.24V230H364.208ZM369.189 227.056V223.76H367.685V221.936H369.189V219.92H371.237V221.936H373.701V223.76H371.237V227.056C371.237 227.952 371.717 228.304 372.517 228.304C373.077 228.304 373.445 228.24 373.717 228.128V229.904C373.317 230.08 372.837 230.16 372.165 230.16C370.149 230.16 369.189 229.024 369.189 227.056ZM379.204 221.616C381.828 221.616 383.62 223.552 383.62 225.968C383.62 228.384 381.828 230.32 379.204 230.32C376.58 230.32 374.788 228.384 374.788 225.968C374.788 223.552 376.58 221.616 379.204 221.616ZM379.236 228.4C380.532 228.4 381.508 227.36 381.508 225.968C381.508 224.56 380.532 223.536 379.236 223.536C377.892 223.536 376.9 224.56 376.9 225.968C376.9 227.376 377.892 228.4 379.236 228.4ZM386.498 220.528C385.778 220.528 385.17 219.92 385.17 219.2C385.17 218.48 385.778 217.872 386.498 217.872C387.218 217.872 387.81 218.48 387.81 219.2C387.81 219.92 387.218 220.528 386.498 220.528ZM385.474 230V221.936H387.506V230H385.474ZM389.943 230V221.936H391.975V222.736C392.503 222.192 393.191 221.776 394.103 221.776C394.375 221.776 394.615 221.824 394.807 221.888V223.888C394.551 223.824 394.279 223.776 393.911 223.776C392.919 223.776 392.279 224.32 391.975 224.832V230H389.943ZM403.523 228.688C402.771 229.696 401.523 230.32 400.003 230.32C397.139 230.32 395.523 228.32 395.523 225.968C395.523 223.584 397.027 221.616 399.667 221.616C401.907 221.616 403.379 223.136 403.379 225.248C403.379 225.696 403.315 226.112 403.251 226.384H397.603C397.795 227.888 398.723 228.496 399.987 228.496C400.867 228.496 401.635 228.112 402.067 227.536L403.523 228.688ZM399.619 223.28C398.579 223.28 397.891 223.856 397.667 224.912H401.379C401.347 224.096 400.755 223.28 399.619 223.28ZM409.101 225.968C409.101 223.616 410.637 221.616 413.197 221.616C414.285 221.616 415.069 221.968 415.693 222.592V221.936H417.741V233.936H415.693V229.344C415.069 229.968 414.285 230.32 413.197 230.32C410.637 230.32 409.101 228.32 409.101 225.968ZM411.213 225.968C411.213 227.376 412.093 228.4 413.469 228.4C414.413 228.4 415.197 227.984 415.693 227.248V224.688C415.149 223.936 414.381 223.536 413.469 223.536C412.093 223.536 411.213 224.56 411.213 225.968ZM425.489 226.512V221.936H427.537V226.416C427.537 228.832 426.129 230.32 423.761 230.32C421.393 230.32 420.001 228.832 420.001 226.416V221.936H422.049V226.512C422.049 227.68 422.657 228.4 423.777 228.4C424.881 228.4 425.489 227.68 425.489 226.512ZM437.21 228.688C436.458 229.696 435.21 230.32 433.69 230.32C430.826 230.32 429.21 228.32 429.21 225.968C429.21 223.584 430.714 221.616 433.354 221.616C435.594 221.616 437.066 223.136 437.066 225.248C437.066 225.696 437.002 226.112 436.938 226.384H431.29C431.482 227.888 432.41 228.496 433.674 228.496C434.554 228.496 435.322 228.112 435.754 227.536L437.21 228.688ZM433.306 223.28C432.266 223.28 431.578 223.856 431.354 224.912H435.066C435.034 224.096 434.442 223.28 433.306 223.28ZM442.212 221.936H444.388L446.484 227.696L448.564 221.936H450.756L447.812 230H445.14L442.212 221.936ZM455.783 221.616C458.407 221.616 460.199 223.552 460.199 225.968C460.199 228.384 458.407 230.32 455.783 230.32C453.159 230.32 451.367 228.384 451.367 225.968C451.367 223.552 453.159 221.616 455.783 221.616ZM455.815 228.4C457.111 228.4 458.087 227.36 458.087 225.968C458.087 224.56 457.111 223.536 455.815 223.536C454.471 223.536 453.479 224.56 453.479 225.968C453.479 227.376 454.471 228.4 455.815 228.4ZM467.364 226.512V221.936H469.412V226.416C469.412 228.832 468.004 230.32 465.636 230.32C463.268 230.32 461.876 228.832 461.876 226.416V221.936H463.924V226.512C463.924 227.68 464.532 228.4 465.652 228.4C466.756 228.4 467.364 227.68 467.364 226.512ZM470.895 228.832L472.239 227.616C472.735 228.24 473.327 228.688 474.095 228.688C474.751 228.688 475.087 228.304 475.087 227.824C475.087 226.416 471.231 226.944 471.231 224.112C471.231 222.688 472.431 221.616 474.111 221.616C475.343 221.616 476.463 222.208 477.039 222.992L475.695 224.176C475.279 223.664 474.751 223.248 474.127 223.248C473.487 223.248 473.183 223.6 473.183 224.016C473.183 225.392 477.039 224.912 477.039 227.696C477.007 229.392 475.647 230.32 474.127 230.32C472.687 230.32 471.663 229.744 470.895 228.832ZM182.316 254.24C180.7 254.24 179.596 253.312 179.596 251.824C179.596 250.608 180.54 249.696 182.268 249.408L184.732 248.992V248.784C184.732 247.936 184.092 247.392 183.164 247.392C182.38 247.392 181.772 247.76 181.34 248.352L179.852 247.216C180.572 246.224 181.756 245.616 183.228 245.616C185.564 245.616 186.764 247.008 186.764 248.784V254H184.732V253.216C184.22 253.84 183.26 254.24 182.316 254.24ZM181.612 251.728C181.612 252.272 182.044 252.624 182.732 252.624C183.66 252.624 184.332 252.192 184.732 251.552V250.416L182.812 250.736C181.964 250.88 181.612 251.232 181.612 251.728ZM187.861 245.936H190.037L192.133 251.696L194.213 245.936H196.405L193.461 254H190.789L187.861 245.936ZM205.015 252.688C204.263 253.696 203.015 254.32 201.495 254.32C198.631 254.32 197.015 252.32 197.015 249.968C197.015 247.584 198.519 245.616 201.159 245.616C203.399 245.616 204.871 247.136 204.871 249.248C204.871 249.696 204.807 250.112 204.743 250.384H199.095C199.287 251.888 200.215 252.496 201.479 252.496C202.359 252.496 203.127 252.112 203.559 251.536L205.015 252.688ZM201.111 247.28C200.071 247.28 199.383 247.856 199.159 248.912H202.871C202.839 248.096 202.247 247.28 201.111 247.28ZM206.427 254V252.176L210.523 247.76H206.555V245.936H213.067V247.76L208.971 252.176H213.179V254H206.427ZM218.903 252.832L220.247 251.616C220.743 252.24 221.335 252.688 222.103 252.688C222.759 252.688 223.095 252.304 223.095 251.824C223.095 250.416 219.239 250.944 219.239 248.112C219.239 246.688 220.439 245.616 222.119 245.616C223.351 245.616 224.471 246.208 225.047 246.992L223.703 248.176C223.287 247.664 222.759 247.248 222.135 247.248C221.495 247.248 221.191 247.6 221.191 248.016C221.191 249.392 225.047 248.912 225.047 251.696C225.015 253.392 223.655 254.32 222.135 254.32C220.695 254.32 219.671 253.744 218.903 252.832ZM231.576 244.656H229.624L231.288 242H233.496L231.576 244.656ZM234.312 252.688C233.56 253.696 232.312 254.32 230.792 254.32C227.928 254.32 226.312 252.32 226.312 249.968C226.312 247.584 227.816 245.616 230.456 245.616C232.696 245.616 234.168 247.136 234.168 249.248C234.168 249.696 234.104 250.112 234.04 250.384H228.392C228.584 251.888 229.512 252.496 230.776 252.496C231.656 252.496 232.424 252.112 232.856 251.536L234.312 252.688ZM230.408 247.28C229.368 247.28 228.68 247.856 228.456 248.912H232.168C232.136 248.096 231.544 247.28 230.408 247.28ZM236.154 254V242H238.186V254H236.154ZM248.046 252.688C247.294 253.696 246.046 254.32 244.526 254.32C241.662 254.32 240.046 252.32 240.046 249.968C240.046 247.584 241.55 245.616 244.19 245.616C246.43 245.616 247.902 247.136 247.902 249.248C247.902 249.696 247.838 250.112 247.774 250.384H242.126C242.318 251.888 243.246 252.496 244.51 252.496C245.39 252.496 246.158 252.112 246.59 251.536L248.046 252.688ZM244.142 247.28C243.102 247.28 242.414 247.856 242.19 248.912H245.902C245.87 248.096 245.278 247.28 244.142 247.28ZM253.697 252.4C254.497 252.4 255.137 252.032 255.521 251.472L257.105 252.688C256.353 253.68 255.169 254.32 253.697 254.32C250.913 254.32 249.249 252.32 249.249 249.968C249.249 247.616 250.913 245.616 253.697 245.616C255.169 245.616 256.353 246.256 257.105 247.248L255.521 248.464C255.137 247.904 254.497 247.536 253.665 247.536C252.337 247.536 251.361 248.56 251.361 249.968C251.361 251.392 252.337 252.4 253.697 252.4ZM259.212 251.056V247.76H257.708V245.936H259.212V243.92H261.26V245.936H263.724V247.76H261.26V251.056C261.26 251.952 261.74 252.304 262.54 252.304C263.1 252.304 263.468 252.24 263.74 252.128V253.904C263.34 254.08 262.86 254.16 262.188 254.16C260.172 254.16 259.212 253.024 259.212 251.056ZM266.568 244.528C265.848 244.528 265.24 243.92 265.24 243.2C265.24 242.48 265.848 241.872 266.568 241.872C267.288 241.872 267.88 242.48 267.88 243.2C267.88 243.92 267.288 244.528 266.568 244.528ZM265.544 254V245.936H267.576V254H265.544ZM273.853 245.616C276.477 245.616 278.269 247.552 278.269 249.968C278.269 252.384 276.477 254.32 273.853 254.32C271.229 254.32 269.437 252.384 269.437 249.968C269.437 247.552 271.229 245.616 273.853 245.616ZM273.885 252.4C275.181 252.4 276.157 251.36 276.157 249.968C276.157 248.56 275.181 247.536 273.885 247.536C272.541 247.536 271.549 248.56 271.549 249.968C271.549 251.376 272.541 252.4 273.885 252.4ZM280.122 254V245.936H282.154V246.576C282.714 246.032 283.466 245.616 284.538 245.616C286.282 245.616 287.674 246.816 287.674 249.2V254H285.626V249.28C285.626 248.208 285.018 247.536 284.026 247.536C283.002 247.536 282.458 248.224 282.154 248.736V254H280.122ZM289.982 254V245.936H292.014V246.576C292.574 246.032 293.326 245.616 294.398 245.616C296.142 245.616 297.534 246.816 297.534 249.2V254H295.486V249.28C295.486 248.208 294.878 247.536 293.886 247.536C292.862 247.536 292.318 248.224 292.014 248.736V254H289.982ZM304.529 244.656H302.577L304.241 242H306.449L304.529 244.656ZM307.265 252.688C306.513 253.696 305.265 254.32 303.745 254.32C300.881 254.32 299.265 252.32 299.265 249.968C299.265 247.584 300.769 245.616 303.409 245.616C305.649 245.616 307.121 247.136 307.121 249.248C307.121 249.696 307.057 250.112 306.993 250.384H301.345C301.537 251.888 302.465 252.496 303.729 252.496C304.609 252.496 305.377 252.112 305.809 251.536L307.265 252.688ZM303.361 247.28C302.321 247.28 301.633 247.856 301.409 248.912H305.121C305.089 248.096 304.497 247.28 303.361 247.28ZM310.035 254.192C309.251 254.192 308.627 253.568 308.627 252.8C308.627 252.048 309.251 251.408 310.035 251.408C310.787 251.408 311.443 252.048 311.443 252.8C311.443 253.568 310.787 254.192 310.035 254.192Z" fill="#3A3A3A"/>
<path d="M356 17C365.2 17 369.5 25 369.5 35.5C369.5 46 365.2 54 356 54C346.8 54 342.5 46 342.5 35.5C342.5 25 346.8 17 356 17ZM356 23.25C351.55 23.25 349.4 28.15 349.4 35.5C349.4 42.9 351.55 47.75 356 47.75C360.4 47.75 362.55 42.85 362.55 35.5C362.55 28.1 360.4 23.25 356 23.25Z" fill="white"/>
</svg>
