<svg width="360" height="142" viewBox="0 0 360 142" fill="none" xmlns="http://www.w3.org/2000/svg">
<rect width="360" height="142" fill="#FBFBFF"/>
<g clip-path="url(#clip0_3833_9956)">
<path d="M74.0168 68.568H56" stroke="#6464BD" stroke-linecap="round" stroke-linejoin="round"/>
<path d="M101.983 68.568H120" stroke="#6464BD" stroke-linecap="round" stroke-linejoin="round"/>
<path d="M93.1583 80.572C96.0855 81.1944 98.0447 82.332 98.0447 83.6304C98.0447 85.5992 93.5471 87.1944 87.9999 87.1944C82.4527 87.1944 77.9551 85.5992 77.9551 83.6304C77.9551 82.3312 79.9135 81.1944 82.8407 80.572" stroke="#6464BD" stroke-linecap="round" stroke-linejoin="round"/>
<path d="M97.9736 77.996C101.768 79.3048 104.207 81.3416 104.207 83.6304C104.207 87.5776 96.9512 90.7776 88 90.7776C79.0488 90.7776 71.792 87.5776 71.792 83.6304C71.792 81.3416 74.2312 79.3048 78.0264 77.996" stroke="#6464BD" stroke-linecap="round" stroke-linejoin="round"/>
<path d="M99.9623 74.9104C105.519 76.8216 109.162 80.0304 109.162 83.6608C109.162 89.5192 99.6863 94.268 87.9983 94.268C76.3103 94.268 66.8359 89.5192 66.8359 83.6608C66.8359 80.028 70.4807 76.8216 76.0359 74.9104" stroke="#6464BD" stroke-linecap="round" stroke-linejoin="round"/>
<path d="M99.7453 68.156C99.7197 71.2542 98.471 74.2169 96.2711 76.3987C94.0713 78.5804 91.0984 79.8047 88.0001 79.8047C84.9017 79.8047 81.9289 78.5804 79.729 76.3987C77.5292 74.2169 76.2805 71.2542 76.2549 68.156C76.2549 63.036 83.5629 52.5968 86.6501 48.4136C86.8063 48.2025 87.0099 48.031 87.2444 47.9128C87.4789 47.7946 87.7379 47.733 88.0005 47.733C88.2631 47.733 88.5221 47.7946 88.7566 47.9128C88.9911 48.031 89.1947 48.2025 89.3509 48.4136C92.4373 52.6 99.7453 63.0392 99.7453 68.156Z" stroke="#6464BD" stroke-linecap="round" stroke-linejoin="round"/>
</g>
<defs>
<clipPath id="clip0_3833_9956">
<rect width="80" height="80" fill="white" transform="translate(48 31)"/>
</clipPath>
</defs>
</svg>
