<svg width="255" height="68" viewBox="0 0 255 68" fill="none" xmlns="http://www.w3.org/2000/svg">
<path d="M13.0031 63.4737L6.36922 54.4498L9.12796 52.4217C11.1132 50.9623 13.0866 51.0804 14.3186 52.7562C15.1241 53.852 15.1927 55.0527 14.5772 56.1605L20.3383 58.0813L18.1854 59.664L13.0928 57.7879L12.1517 58.4797L14.8337 62.128L13.0031 63.4737ZM10.3494 53.8671L9.31807 54.6252L11.0334 56.9586L12.0647 56.2004C12.8382 55.6318 12.9577 54.8489 12.4175 54.1141C11.9152 53.4309 11.1229 53.2985 10.3494 53.8671Z" fill="#095D55"/>
<path d="M28.5613 50.6085C28.5156 51.8653 27.8435 53.088 26.593 53.9521C24.2367 55.5801 21.7703 54.8533 20.4333 52.9182C19.0782 50.9568 19.1969 48.4828 21.3688 46.9821C23.2117 45.7088 25.2868 46.1226 26.4874 47.8602C26.742 48.2287 26.9259 48.6074 27.0278 48.8675L22.3811 52.0781C23.394 53.2063 24.5031 53.179 25.543 52.4605C26.267 51.9603 26.6806 51.2078 26.7086 50.4884L28.5613 50.6085ZM22.2752 48.3784C21.4196 48.9696 21.181 49.8346 21.597 50.8307L24.6509 48.7206C24.1608 48.0675 23.2099 47.7326 22.2752 48.3784Z" fill="#095D55"/>
<path d="M31.4309 49.4217L31.9549 47.6866C32.7017 47.9653 33.44 48.0437 34.0979 47.6474C34.6598 47.309 34.7496 46.8067 34.5019 46.3955C33.7755 45.1894 30.7447 47.631 29.2837 45.205C28.549 43.9851 29.0239 42.4477 30.4631 41.581C31.5185 40.9454 32.7834 40.8747 33.6813 41.2492L33.1408 42.9568C32.5202 42.7328 31.8533 42.6489 31.3188 42.9708C30.7705 43.301 30.6917 43.7593 30.9063 44.1157C31.6162 45.2944 34.6718 42.8939 36.1081 45.2788C36.9556 46.7482 36.2694 48.2448 34.9673 49.029C33.7337 49.7719 32.5593 49.8067 31.4309 49.4217Z" fill="#095D55"/>
<path d="M40.215 44.044L40.8388 42.3423C41.5682 42.6638 42.3006 42.7849 42.9804 42.4275C43.5611 42.1223 43.6798 41.6261 43.4565 41.2012C42.8013 39.9549 39.6339 42.2165 38.3161 39.7098C37.6535 38.4493 38.2169 36.9421 39.7039 36.1603C40.7944 35.5871 42.0613 35.5899 42.9359 36.0159L42.2972 37.6893C41.6907 37.4296 41.0298 37.3071 40.4775 37.5975C39.911 37.8952 39.8057 38.3483 39.9993 38.7165C40.6395 39.9345 43.8293 37.7154 45.1247 40.1796C45.8856 41.6957 45.1136 43.1499 43.7681 43.8572C42.4935 44.5273 41.3191 44.4939 40.215 44.044Z" fill="#095D55"/>
<path d="M50.8838 30.8507C53.2806 29.7826 55.7055 30.8216 56.6888 33.0284C57.6722 35.2352 56.8234 37.733 54.4266 38.801C52.0298 39.8691 49.605 38.8301 48.6216 36.6233C47.6382 34.4165 48.487 31.9187 50.8838 30.8507ZM53.6743 37.0343C54.8581 36.5067 55.3263 35.1595 54.7597 33.8881C54.1866 32.602 52.8783 32.0639 51.6945 32.5914C50.4669 33.1385 49.9776 34.4776 50.5507 35.7637C51.1238 37.0497 52.4467 37.5813 53.6743 37.0343Z" fill="#095D55"/>
<path d="M65.9692 29.7432L64.4003 25.4446L66.3241 24.7424L67.8601 28.9509C68.6884 31.2204 67.876 33.101 65.6515 33.9129C63.427 34.7247 61.6092 33.8042 60.7809 31.5346L59.2449 27.3262L61.1688 26.624L62.7377 30.9226C63.1381 32.0198 63.9561 32.4878 65.0082 32.1038C66.0453 31.7252 66.3696 30.8404 65.9692 29.7432Z" fill="#095D55"/>
<path d="M73.6231 31.0423L71.1115 23.3794L73.0424 22.7465L73.2916 23.5067C73.6239 22.8253 74.1481 22.2158 75.0148 21.9317C75.2732 21.847 75.5162 21.8178 75.7186 21.8189L76.3415 23.7194C76.0783 23.7383 75.8049 23.7774 75.4552 23.892C74.5126 24.201 74.0738 24.9173 73.9444 25.4985L75.554 30.4094L73.6231 31.0423Z" fill="#095D55"/>
<path d="M85.5323 25.6559C86.311 25.4723 86.8494 24.9673 87.0947 24.3341L88.9155 25.1541C88.4112 26.2922 87.4057 27.1869 85.973 27.5247C83.2633 28.1636 81.1847 26.5989 80.6449 24.3096C80.1051 22.0204 81.2657 19.6919 83.9754 19.053C85.4081 18.7152 86.7074 19.0664 87.667 19.8593L86.4044 21.4064C85.9021 20.9495 85.1947 20.7382 84.3849 20.9291C83.0924 21.2339 82.3774 22.4545 82.7006 23.8249C83.0274 25.2109 84.2086 25.968 85.5323 25.6559Z" fill="#095D55"/>
<path d="M101.394 22.0925C100.82 23.2114 99.6926 24.0339 98.1937 24.2862C95.3694 24.7617 93.4439 23.0577 93.0534 20.7383C92.6577 18.3874 93.8141 16.197 96.4175 15.7588C98.6264 15.3869 100.33 16.6415 100.681 18.7242C100.755 19.1659 100.761 19.5868 100.743 19.8657L95.1736 20.8033C95.6126 22.2545 96.6287 22.7 97.8751 22.4902C98.7429 22.3441 99.4365 21.8379 99.7669 21.1982L101.394 22.0925ZM96.6464 17.4077C95.6208 17.5803 95.0379 18.2625 94.9924 19.3411L98.6529 18.7248C98.4858 17.9255 97.7666 17.2191 96.6464 17.4077Z" fill="#095D55"/>
<path d="M105.962 21.0286L107.172 19.6794C107.73 20.2484 108.365 20.6323 109.129 20.5524C109.782 20.4842 110.076 20.0673 110.026 19.5899C109.88 18.1896 106.099 19.1159 105.805 16.2993C105.657 14.883 106.739 13.692 108.409 13.5172C109.635 13.389 110.81 13.8612 111.465 14.5811L110.251 15.8985C109.784 15.4325 109.216 15.0737 108.595 15.1386C107.959 15.2052 107.693 15.5869 107.736 16.0007C107.879 17.3692 111.664 16.4906 111.954 19.2595C112.099 20.9497 110.843 22.0141 109.331 22.1723C107.899 22.3221 106.82 21.8557 105.962 21.0286Z" fill="#095D55"/>
<path d="M143.156 19.0819L143.18 11.0179L145.212 11.024L145.21 11.664C145.772 11.1217 146.525 10.7079 147.597 10.7111C149.341 10.7163 150.73 11.9205 150.723 14.3045L150.708 19.1045L148.66 19.0983L148.674 14.3784C148.678 13.3064 148.072 12.6326 147.08 12.6296C146.056 12.6265 145.51 13.3129 145.204 13.824L145.188 19.088L143.156 19.0819Z" fill="#095D55"/>
<path d="M157.706 19.7287C156.093 19.6193 155.055 18.6187 155.156 17.1341C155.238 15.9209 156.241 15.0749 157.985 14.9046L160.472 14.6564L160.486 14.4489C160.543 13.6028 159.941 13.0167 159.015 12.9539C158.233 12.9008 157.602 13.2268 157.131 13.7882L155.723 12.554C156.509 11.613 157.731 11.0866 159.2 11.1863C161.53 11.3445 162.633 12.8146 162.513 14.5865L162.16 19.7905L160.132 19.6529L160.185 18.8707C159.632 19.4586 158.647 19.7927 157.706 19.7287ZM157.173 17.1748C157.137 17.7176 157.544 18.098 158.23 18.1446C159.156 18.2075 159.856 17.822 160.298 17.2105L160.375 16.0771L158.438 16.2664C157.582 16.3526 157.207 16.68 157.173 17.1748Z" fill="#095D55"/>
<path d="M167.205 17.014L167.648 13.7479L166.157 13.5458L166.402 11.7384L167.893 11.9405L168.164 9.94277L170.193 10.218L169.922 12.2157L172.364 12.5468L172.119 14.3543L169.677 14.0232L169.234 17.2893C169.114 18.1771 169.542 18.5904 170.335 18.6979C170.89 18.7732 171.263 18.7592 171.548 18.6848L171.309 20.4447C170.889 20.5653 170.402 20.5801 169.737 20.4898C167.739 20.2189 166.94 18.9642 167.205 17.014Z" fill="#095D55"/>
<path d="M183.786 18.6151L184.713 14.1341L186.719 14.549L185.811 18.9361C185.321 21.302 183.641 22.4738 181.322 21.994C179.003 21.5142 177.942 19.775 178.431 17.4091L179.339 13.022L181.345 13.437L180.417 17.9181C180.181 19.0619 180.63 19.8901 181.727 20.1171C182.808 20.3408 183.549 19.7589 183.786 18.6151Z" fill="#095D55"/>
<path d="M189.908 24.2226L191.626 16.3437L193.611 16.7766L193.441 17.5582C194.073 17.1392 194.834 16.8793 195.725 17.0736C195.99 17.1315 196.215 17.2296 196.389 17.333L195.963 19.2871C195.726 19.17 195.471 19.0652 195.111 18.9868C194.142 18.7754 193.401 19.1706 192.995 19.6061L191.894 24.6555L189.908 24.2226Z" fill="#095D55"/>
<path d="M206.962 26.853C205.936 27.5804 204.557 27.7896 203.111 27.3214C200.386 26.4392 199.465 24.0387 200.189 21.8011C200.923 19.533 202.961 18.1239 205.472 18.9371C207.603 19.6271 208.535 21.5266 207.885 23.536C207.747 23.9622 207.558 24.3382 207.413 24.5773L202.04 22.8375C201.759 24.3275 202.455 25.1918 203.657 25.5812C204.495 25.8523 205.344 25.7235 205.932 25.3086L206.962 26.853ZM204.914 20.5055C203.925 20.1851 203.093 20.5212 202.554 21.4568L206.086 22.6002C206.307 21.8141 205.995 20.8554 204.914 20.5055Z" fill="#095D55"/>
<path d="M211.768 29.9528L215.727 18.6247L217.645 19.2951L213.686 30.6232L211.768 29.9528Z" fill="#095D55"/>
<path d="M218.512 32.5241L222.712 21.2835L224.616 21.9948L220.415 33.2355L218.512 32.5241Z" fill="#095D55"/>
<path d="M234.833 37.3136C233.738 37.9317 232.344 37.998 230.954 37.3836C228.334 36.2259 227.664 33.7434 228.615 31.5921C229.579 29.4115 231.75 28.2194 234.165 29.2865C236.214 30.1919 236.946 32.1772 236.092 34.109C235.911 34.5187 235.684 34.8734 235.516 35.0963L230.35 32.8133C229.917 34.2666 230.52 35.1978 231.676 35.7087C232.481 36.0644 233.339 36.0236 233.967 35.6714L234.833 37.3136ZM233.448 30.7891C232.497 30.3687 231.635 30.6175 231.003 31.4928L234.398 32.9932C234.699 32.2339 234.487 31.2483 233.448 30.7891Z" fill="#095D55"/>
<path d="M240.404 40.1329L242.155 39.6655C242.311 40.4472 242.633 41.1162 243.316 41.4672C243.899 41.767 244.374 41.579 244.593 41.1521C245.236 39.8997 241.565 38.6071 242.86 36.0881C243.51 34.8216 245.068 34.4165 246.562 35.1842C247.658 35.7473 248.383 36.7857 248.537 37.7462L246.801 38.1852C246.665 37.5396 246.385 36.9283 245.83 36.6431C245.261 36.3507 244.83 36.5248 244.64 36.8948C244.011 38.1187 247.66 39.454 246.388 41.9303C245.584 43.4242 243.95 43.6281 242.598 42.9334C241.318 42.2753 240.67 41.295 240.404 40.1329Z" fill="#095D55"/>
</svg>
