<svg width="654" height="511" viewBox="0 0 654 511" fill="none" xmlns="http://www.w3.org/2000/svg">
<rect width="654" height="511" rx="8" fill="white"/>
<path d="M204.631 339.014L400.529 330.897C411.918 330.425 420.768 320.81 420.296 309.421L416.735 223.501L415.026 182.259C414.554 170.87 404.939 162.021 393.551 162.492L344.576 164.522L197.652 170.61C186.264 171.082 177.414 180.697 177.886 192.086L183.155 319.248C183.627 330.637 193.242 339.486 204.631 339.014Z" fill="#F4F4FF"/>
<path d="M230.295 319.549H426.362C437.76 319.549 447 310.308 447 298.91V212.916V171.639C447 160.24 437.76 151 426.362 151H377.345H230.295C218.896 151 209.656 160.24 209.656 171.639V298.91C209.656 310.308 218.896 319.549 230.295 319.549Z" fill="white"/>
<path d="M377.345 151H230.295C218.896 151 209.656 160.24 209.656 171.639V298.91C209.656 310.308 218.896 319.549 230.295 319.549H426.362C437.76 319.549 447 310.308 447 298.91V212.916" stroke="#D6D6F0" stroke-width="1.71988"/>
<path d="M226 202H396" stroke="#D6D6F0"/>
<path d="M227 221H397" stroke="#D6D6F0"/>
<path d="M227 240H397" stroke="#D6D6F0"/>
<path d="M227 259H397" stroke="#D6D6F0"/>
<path d="M227 278H397" stroke="#D6D6F0"/>
<path d="M227 297H397" stroke="#D6D6F0"/>
<rect x="271.838" y="232.273" width="25.7983" height="63.6357" fill="#F4F4FF"/>
<rect x="237" y="188" width="26" height="108" fill="#F4F4FF"/>
<rect x="313.115" y="213.355" width="25.7983" height="82.5544" fill="#F4F4FF"/>
<rect x="350.953" y="228.836" width="25.7983" height="67.0755" fill="#F4F4FF"/>
<path d="M240 232.273L283.857 273.551L325.994 241.733L374.151 261.511" stroke="#D6D6F0" stroke-width="1.71988"/>
<circle cx="432.887" cy="178.258" r="35.2576" fill="#D6D6F0"/>
<path d="M87.1402 385V373.8H89.4122V382.936H93.6682V385H87.1402ZM98.0427 385.24C96.4267 385.24 95.3227 384.312 95.3227 382.824C95.3227 381.608 96.2667 380.696 97.9947 380.408L100.459 379.992V379.784C100.459 378.936 99.8187 378.392 98.8907 378.392C98.1067 378.392 97.4987 378.76 97.0667 379.352L95.5787 378.216C96.2987 377.224 97.4827 376.616 98.9547 376.616C101.291 376.616 102.491 378.008 102.491 379.784V385H100.459V384.216C99.9467 384.84 98.9867 385.24 98.0427 385.24ZM97.3387 382.728C97.3387 383.272 97.7707 383.624 98.4587 383.624C99.3867 383.624 100.059 383.192 100.459 382.552V381.416L98.5387 381.736C97.6907 381.88 97.3387 382.232 97.3387 382.728ZM108.554 380.968C108.554 378.616 110.106 376.616 112.65 376.616C113.738 376.616 114.522 376.952 115.146 377.576V373H117.194V385H115.146V384.36C114.522 384.984 113.738 385.32 112.65 385.32C110.106 385.32 108.554 383.32 108.554 380.968ZM110.682 380.968C110.682 382.376 111.562 383.4 112.938 383.4C113.85 383.4 114.602 383.016 115.146 382.28V379.656C114.602 378.92 113.85 378.536 112.938 378.536C111.562 378.536 110.682 379.56 110.682 380.968ZM123.47 376.616C126.094 376.616 127.886 378.552 127.886 380.968C127.886 383.384 126.094 385.32 123.47 385.32C120.846 385.32 119.054 383.384 119.054 380.968C119.054 378.552 120.846 376.616 123.47 376.616ZM123.502 383.4C124.798 383.4 125.774 382.36 125.774 380.968C125.774 379.56 124.798 378.536 123.502 378.536C122.158 378.536 121.166 379.56 121.166 380.968C121.166 382.376 122.158 383.4 123.502 383.4ZM129.739 385V376.936H131.771V377.576C132.331 377.032 133.083 376.616 134.155 376.616C135.899 376.616 137.291 377.816 137.291 380.2V385H135.243V380.28C135.243 379.208 134.635 378.536 133.643 378.536C132.619 378.536 132.075 379.224 131.771 379.736V385H129.739ZM139.599 385V376.936H141.631V377.576C142.191 377.032 142.943 376.616 144.015 376.616C145.759 376.616 147.151 377.816 147.151 380.2V385H145.103V380.28C145.103 379.208 144.495 378.536 143.503 378.536C142.479 378.536 141.935 379.224 141.631 379.736V385H139.599ZM154.146 375.656H152.194L153.858 373H156.066L154.146 375.656ZM156.882 383.688C156.13 384.696 154.882 385.32 153.362 385.32C150.498 385.32 148.882 383.32 148.882 380.968C148.882 378.584 150.386 376.616 153.026 376.616C155.266 376.616 156.738 378.136 156.738 380.248C156.738 380.696 156.674 381.112 156.61 381.384H150.962C151.154 382.888 152.082 383.496 153.346 383.496C154.226 383.496 154.994 383.112 155.426 382.536L156.882 383.688ZM152.978 378.28C151.938 378.28 151.25 378.856 151.026 379.912H154.738C154.706 379.096 154.114 378.28 152.978 378.28ZM166.085 383.688C165.333 384.696 164.085 385.32 162.565 385.32C159.701 385.32 158.085 383.32 158.085 380.968C158.085 378.584 159.589 376.616 162.229 376.616C164.469 376.616 165.941 378.136 165.941 380.248C165.941 380.696 165.877 381.112 165.813 381.384H160.165C160.357 382.888 161.285 383.496 162.549 383.496C163.429 383.496 164.197 383.112 164.629 382.536L166.085 383.688ZM162.181 378.28C161.141 378.28 160.453 378.856 160.229 379.912H163.941C163.909 379.096 163.317 378.28 162.181 378.28ZM171.663 380.968C171.663 378.616 173.215 376.616 175.759 376.616C176.847 376.616 177.631 376.952 178.255 377.576V373H180.303V385H178.255V384.36C177.631 384.984 176.847 385.32 175.759 385.32C173.215 385.32 171.663 383.32 171.663 380.968ZM173.791 380.968C173.791 382.376 174.671 383.4 176.047 383.4C176.959 383.4 177.711 383.016 178.255 382.28V379.656C177.711 378.92 176.959 378.536 176.047 378.536C174.671 378.536 173.791 379.56 173.791 380.968ZM183.763 375.528C183.043 375.528 182.435 374.92 182.435 374.2C182.435 373.48 183.043 372.872 183.763 372.872C184.483 372.872 185.075 373.48 185.075 374.2C185.075 374.92 184.483 375.528 183.763 375.528ZM182.739 385V376.936H184.771V385H182.739ZM186.395 383.832L187.739 382.616C188.235 383.24 188.827 383.688 189.595 383.688C190.251 383.688 190.587 383.304 190.587 382.824C190.587 381.416 186.731 381.944 186.731 379.112C186.731 377.688 187.931 376.616 189.611 376.616C190.843 376.616 191.963 377.208 192.539 377.992L191.195 379.176C190.779 378.664 190.251 378.248 189.627 378.248C188.987 378.248 188.683 378.6 188.683 379.016C188.683 380.392 192.539 379.912 192.539 382.696C192.507 384.392 191.147 385.32 189.627 385.32C188.187 385.32 187.163 384.744 186.395 383.832ZM194.411 388.936V376.936H196.443V377.592C197.067 376.968 197.851 376.616 198.955 376.616C201.515 376.616 203.051 378.616 203.051 380.968C203.051 383.32 201.515 385.32 198.955 385.32C197.851 385.32 197.067 384.968 196.443 384.344V388.936H194.411ZM198.667 378.536C197.723 378.536 196.955 378.952 196.443 379.704V382.232C196.987 383 197.739 383.4 198.667 383.4C200.043 383.4 200.939 382.376 200.939 380.968C200.939 379.56 200.043 378.536 198.667 378.536ZM208.829 376.616C211.453 376.616 213.245 378.552 213.245 380.968C213.245 383.384 211.453 385.32 208.829 385.32C206.205 385.32 204.413 383.384 204.413 380.968C204.413 378.552 206.205 376.616 208.829 376.616ZM208.861 383.4C210.157 383.4 211.133 382.36 211.133 380.968C211.133 379.56 210.157 378.536 208.861 378.536C207.517 378.536 206.525 379.56 206.525 380.968C206.525 382.376 207.517 383.4 208.861 383.4ZM215.099 385V376.936H217.131V377.576C217.691 377.032 218.443 376.616 219.515 376.616C221.259 376.616 222.651 377.816 222.651 380.2V385H220.603V380.28C220.603 379.208 219.995 378.536 219.003 378.536C217.979 378.536 217.435 379.224 217.131 379.736V385H215.099ZM225.982 375.528C225.262 375.528 224.654 374.92 224.654 374.2C224.654 373.48 225.262 372.872 225.982 372.872C226.702 372.872 227.294 373.48 227.294 374.2C227.294 374.92 226.702 375.528 225.982 375.528ZM224.958 385V376.936H226.99V385H224.958ZM238.067 380.968C238.067 383.32 236.531 385.32 233.971 385.32C232.867 385.32 232.083 384.968 231.459 384.344V385H229.427V373H231.459V377.592C232.083 376.968 232.867 376.616 233.971 376.616C236.531 376.616 238.067 378.616 238.067 380.968ZM233.683 378.536C232.739 378.536 231.955 378.952 231.459 379.688V382.248C232.003 383 232.771 383.4 233.683 383.4C235.059 383.4 235.955 382.376 235.955 380.968C235.955 379.56 235.059 378.536 233.683 378.536ZM239.927 385V373H241.959V385H239.927ZM251.82 383.688C251.068 384.696 249.82 385.32 248.3 385.32C245.436 385.32 243.82 383.32 243.82 380.968C243.82 378.584 245.324 376.616 247.964 376.616C250.204 376.616 251.676 378.136 251.676 380.248C251.676 380.696 251.612 381.112 251.548 381.384H245.9C246.092 382.888 247.02 383.496 248.284 383.496C249.164 383.496 249.932 383.112 250.364 382.536L251.82 383.688ZM247.916 378.28C246.876 378.28 246.188 378.856 245.964 379.912H249.676C249.644 379.096 249.052 378.28 247.916 378.28ZM265.398 383.688C264.646 384.696 263.398 385.32 261.878 385.32C259.014 385.32 257.398 383.32 257.398 380.968C257.398 378.584 258.902 376.616 261.542 376.616C263.782 376.616 265.254 378.136 265.254 380.248C265.254 380.696 265.19 381.112 265.126 381.384H259.478C259.67 382.888 260.598 383.496 261.862 383.496C262.742 383.496 263.51 383.112 263.942 382.536L265.398 383.688ZM261.494 378.28C260.454 378.28 259.766 378.856 259.542 379.912H263.254C263.222 379.096 262.63 378.28 261.494 378.28ZM266.426 383.832L267.77 382.616C268.266 383.24 268.858 383.688 269.626 383.688C270.282 383.688 270.618 383.304 270.618 382.824C270.618 381.416 266.762 381.944 266.762 379.112C266.762 377.688 267.962 376.616 269.642 376.616C270.874 376.616 271.994 377.208 272.57 377.992L271.226 379.176C270.81 378.664 270.282 378.248 269.658 378.248C269.018 378.248 268.714 378.6 268.714 379.016C268.714 380.392 272.57 379.912 272.57 382.696C272.538 384.392 271.178 385.32 269.658 385.32C268.218 385.32 267.194 384.744 266.426 383.832ZM275.08 382.056V378.76H273.576V376.936H275.08V374.92H277.128V376.936H279.592V378.76H277.128V382.056C277.128 382.952 277.608 383.304 278.408 383.304C278.968 383.304 279.336 383.24 279.608 383.128V384.904C279.208 385.08 278.728 385.16 278.056 385.16C276.04 385.16 275.08 384.024 275.08 382.056ZM290.412 375.656H288.46L290.124 373H292.332L290.412 375.656ZM293.148 383.688C292.396 384.696 291.148 385.32 289.628 385.32C286.764 385.32 285.148 383.32 285.148 380.968C285.148 378.584 286.652 376.616 289.292 376.616C291.532 376.616 293.004 378.136 293.004 380.248C293.004 380.696 292.94 381.112 292.876 381.384H287.228C287.42 382.888 288.348 383.496 289.612 383.496C290.492 383.496 291.26 383.112 291.692 382.536L293.148 383.688ZM289.244 378.28C288.204 378.28 287.516 378.856 287.292 379.912H291.004C290.972 379.096 290.38 378.28 289.244 378.28ZM294.127 386.408C294.127 385.608 294.527 384.968 295.247 384.44C294.927 384.12 294.751 383.688 294.751 383.272C294.751 382.632 295.023 382.12 295.631 381.672C294.927 381.144 294.543 380.344 294.543 379.448C294.543 377.88 295.759 376.616 297.775 376.616C298.399 376.616 298.943 376.728 299.407 376.936H302.351V378.664H300.927C301.007 378.92 301.039 379.176 301.039 379.448C301.039 381.032 299.855 382.312 297.775 382.312C297.503 382.312 297.247 382.296 297.007 382.248C296.831 382.408 296.735 382.584 296.735 382.76C296.735 383.08 296.911 383.24 297.279 383.24H299.311C301.343 383.24 302.447 384.328 302.447 385.832C302.447 387.624 300.735 389 298.223 389C295.647 389 294.127 388.104 294.127 386.408ZM297.807 380.776C298.655 380.776 299.199 380.248 299.199 379.448C299.199 378.648 298.655 378.136 297.807 378.136C296.927 378.136 296.399 378.664 296.399 379.448C296.399 380.248 296.927 380.776 297.807 380.776ZM296.047 386.12C296.047 386.888 296.783 387.368 298.207 387.368C299.679 387.368 300.431 386.824 300.431 386.024C300.431 385.416 300.063 384.984 299.087 384.984H296.591C296.287 385.272 296.047 385.624 296.047 386.12ZM305.824 385.24C304.208 385.24 303.104 384.312 303.104 382.824C303.104 381.608 304.048 380.696 305.776 380.408L308.24 379.992V379.784C308.24 378.936 307.6 378.392 306.672 378.392C305.888 378.392 305.28 378.76 304.848 379.352L303.36 378.216C304.08 377.224 305.264 376.616 306.736 376.616C309.072 376.616 310.272 378.008 310.272 379.784V385H308.24V384.216C307.728 384.84 306.768 385.24 305.824 385.24ZM305.12 382.728C305.12 383.272 305.552 383.624 306.24 383.624C307.168 383.624 307.84 383.192 308.24 382.552V381.416L306.32 381.736C305.472 381.88 305.12 382.232 305.12 382.728ZM312.599 385V373H314.631V385H312.599ZM324.492 383.688C323.74 384.696 322.492 385.32 320.972 385.32C318.108 385.32 316.492 383.32 316.492 380.968C316.492 378.584 317.996 376.616 320.636 376.616C322.876 376.616 324.348 378.136 324.348 380.248C324.348 380.696 324.284 381.112 324.22 381.384H318.572C318.764 382.888 319.692 383.496 320.956 383.496C321.836 383.496 322.604 383.112 323.036 382.536L324.492 383.688ZM320.588 378.28C319.548 378.28 318.86 378.856 318.636 379.912H322.348C322.316 379.096 321.724 378.28 320.588 378.28ZM332.87 375.656L330.95 373H333.158L334.806 375.656H332.87ZM332.918 385.24C331.302 385.24 330.198 384.312 330.198 382.824C330.198 381.608 331.142 380.696 332.87 380.408L335.334 379.992V379.784C335.334 378.936 334.694 378.392 333.766 378.392C332.982 378.392 332.374 378.76 331.942 379.352L330.454 378.216C331.174 377.224 332.358 376.616 333.83 376.616C336.166 376.616 337.366 378.008 337.366 379.784V385H335.334V384.216C334.822 384.84 333.862 385.24 332.918 385.24ZM332.214 382.728C332.214 383.272 332.646 383.624 333.334 383.624C334.262 383.624 334.934 383.192 335.334 382.552V381.416L333.414 381.736C332.566 381.88 332.214 382.232 332.214 382.728ZM347.589 373.48C350.533 373.48 351.909 376.04 351.909 379.4C351.909 382.76 350.533 385.32 347.589 385.32C344.645 385.32 343.269 382.76 343.269 379.4C343.269 376.04 344.645 373.48 347.589 373.48ZM347.589 375.48C346.165 375.48 345.477 377.048 345.477 379.4C345.477 381.768 346.165 383.32 347.589 383.32C348.997 383.32 349.685 381.752 349.685 379.4C349.685 377.032 348.997 375.48 347.589 375.48ZM357.911 388.936V376.936H359.943V377.592C360.567 376.968 361.351 376.616 362.455 376.616C365.015 376.616 366.551 378.616 366.551 380.968C366.551 383.32 365.015 385.32 362.455 385.32C361.351 385.32 360.567 384.968 359.943 384.344V388.936H357.911ZM362.167 378.536C361.223 378.536 360.455 378.952 359.943 379.704V382.232C360.487 383 361.239 383.4 362.167 383.4C363.543 383.4 364.439 382.376 364.439 380.968C364.439 379.56 363.543 378.536 362.167 378.536ZM372.329 376.616C374.953 376.616 376.745 378.552 376.745 380.968C376.745 383.384 374.953 385.32 372.329 385.32C369.705 385.32 367.913 383.384 367.913 380.968C367.913 378.552 369.705 376.616 372.329 376.616ZM372.361 383.4C373.657 383.4 374.633 382.36 374.633 380.968C374.633 379.56 373.657 378.536 372.361 378.536C371.017 378.536 370.025 379.56 370.025 380.968C370.025 382.376 371.017 383.4 372.361 383.4ZM383.911 381.512V376.936H385.959V381.416C385.959 383.832 384.551 385.32 382.183 385.32C379.815 385.32 378.423 383.832 378.423 381.416V376.936H380.471V381.512C380.471 382.68 381.079 383.4 382.199 383.4C383.303 383.4 383.911 382.68 383.911 381.512ZM388.208 385V376.936H390.24V377.736C390.768 377.192 391.456 376.776 392.368 376.776C392.64 376.776 392.88 376.824 393.072 376.888V378.888C392.816 378.824 392.544 378.776 392.176 378.776C391.184 378.776 390.544 379.32 390.24 379.832V385H388.208ZM399.021 385V373H401.053V385H399.021ZM410.913 383.688C410.161 384.696 408.913 385.32 407.393 385.32C404.529 385.32 402.913 383.32 402.913 380.968C402.913 378.584 404.417 376.616 407.057 376.616C409.297 376.616 410.769 378.136 410.769 380.248C410.769 380.696 410.705 381.112 410.641 381.384H404.993C405.185 382.888 406.113 383.496 407.377 383.496C408.257 383.496 409.025 383.112 409.457 382.536L410.913 383.688ZM407.009 378.28C405.969 378.28 405.281 378.856 405.057 379.912H408.769C408.737 379.096 408.145 378.28 407.009 378.28ZM417.58 382.056V378.76H416.076V376.936H417.58V374.92H419.628V376.936H422.092V378.76H419.628V382.056C419.628 382.952 420.108 383.304 420.908 383.304C421.468 383.304 421.836 383.24 422.108 383.128V384.904C421.708 385.08 421.228 385.16 420.556 385.16C418.54 385.16 417.58 384.024 417.58 382.056ZM431.179 383.688C430.427 384.696 429.179 385.32 427.659 385.32C424.795 385.32 423.179 383.32 423.179 380.968C423.179 378.584 424.683 376.616 427.323 376.616C429.563 376.616 431.035 378.136 431.035 380.248C431.035 380.696 430.971 381.112 430.907 381.384H425.259C425.451 382.888 426.379 383.496 427.643 383.496C428.523 383.496 429.291 383.112 429.723 382.536L431.179 383.688ZM427.275 378.28C426.235 378.28 425.547 378.856 425.323 379.912H429.035C429.003 379.096 428.411 378.28 427.275 378.28ZM433.021 385V376.936H435.053V377.736C435.581 377.192 436.269 376.776 437.181 376.776C437.453 376.776 437.693 376.824 437.885 376.888V378.888C437.629 378.824 437.357 378.776 436.989 378.776C435.997 378.776 435.357 379.32 435.053 379.832V385H433.021ZM439.521 385V376.936H441.553V377.736C442.081 377.192 442.769 376.776 443.681 376.776C443.953 376.776 444.193 376.824 444.385 376.888V378.888C444.129 378.824 443.857 378.776 443.489 378.776C442.497 378.776 441.857 379.32 441.553 379.832V385H439.521ZM447.045 375.528C446.325 375.528 445.717 374.92 445.717 374.2C445.717 373.48 446.325 372.872 447.045 372.872C447.765 372.872 448.357 373.48 448.357 374.2C448.357 374.92 447.765 375.528 447.045 375.528ZM446.021 385V376.936H448.053V385H446.021ZM451.001 382.056V378.76H449.497V376.936H451.001V374.92H453.049V376.936H455.513V378.76H453.049V382.056C453.049 382.952 453.529 383.304 454.329 383.304C454.889 383.304 455.257 383.24 455.529 383.128V384.904C455.129 385.08 454.649 385.16 453.977 385.16C451.961 385.16 451.001 384.024 451.001 382.056ZM461.017 376.616C463.641 376.616 465.433 378.552 465.433 380.968C465.433 383.384 463.641 385.32 461.017 385.32C458.393 385.32 456.601 383.384 456.601 380.968C456.601 378.552 458.393 376.616 461.017 376.616ZM461.049 383.4C462.345 383.4 463.321 382.36 463.321 380.968C463.321 379.56 462.345 378.536 461.049 378.536C459.705 378.536 458.713 379.56 458.713 380.968C458.713 382.376 459.705 383.4 461.049 383.4ZM468.31 375.528C467.59 375.528 466.982 374.92 466.982 374.2C466.982 373.48 467.59 372.872 468.31 372.872C469.03 372.872 469.622 373.48 469.622 374.2C469.622 374.92 469.03 375.528 468.31 375.528ZM467.286 385V376.936H469.318V385H467.286ZM471.755 385V376.936H473.787V377.736C474.315 377.192 475.003 376.776 475.915 376.776C476.187 376.776 476.427 376.824 476.619 376.888V378.888C476.363 378.824 476.091 378.776 475.723 378.776C474.731 378.776 474.091 379.32 473.787 379.832V385H471.755ZM485.335 383.688C484.583 384.696 483.335 385.32 481.815 385.32C478.951 385.32 477.335 383.32 477.335 380.968C477.335 378.584 478.839 376.616 481.479 376.616C483.719 376.616 485.191 378.136 485.191 380.248C485.191 380.696 485.127 381.112 485.063 381.384H479.415C479.607 382.888 480.535 383.496 481.799 383.496C482.679 383.496 483.447 383.112 483.879 382.536L485.335 383.688ZM481.431 378.28C480.391 378.28 479.703 378.856 479.479 379.912H483.191C483.159 379.096 482.567 378.28 481.431 378.28ZM490.913 380.968C490.913 378.616 492.449 376.616 495.009 376.616C496.097 376.616 496.881 376.968 497.505 377.592V376.936H499.553V388.936H497.505V384.344C496.881 384.968 496.097 385.32 495.009 385.32C492.449 385.32 490.913 383.32 490.913 380.968ZM493.025 380.968C493.025 382.376 493.905 383.4 495.281 383.4C496.225 383.4 497.009 382.984 497.505 382.248V379.688C496.961 378.936 496.193 378.536 495.281 378.536C493.905 378.536 493.025 379.56 493.025 380.968ZM507.301 381.512V376.936H509.349V381.416C509.349 383.832 507.941 385.32 505.573 385.32C503.205 385.32 501.813 383.832 501.813 381.416V376.936H503.861V381.512C503.861 382.68 504.469 383.4 505.589 383.4C506.693 383.4 507.301 382.68 507.301 381.512ZM519.023 383.688C518.271 384.696 517.023 385.32 515.503 385.32C512.639 385.32 511.023 383.32 511.023 380.968C511.023 378.584 512.527 376.616 515.167 376.616C517.407 376.616 518.879 378.136 518.879 380.248C518.879 380.696 518.815 381.112 518.751 381.384H513.103C513.295 382.888 514.223 383.496 515.487 383.496C516.367 383.496 517.135 383.112 517.567 382.536L519.023 383.688ZM515.119 378.28C514.079 378.28 513.391 378.856 513.167 379.912H516.879C516.847 379.096 516.255 378.28 515.119 378.28ZM524.025 376.936H526.201L528.297 382.696L530.377 376.936H532.569L529.625 385H526.953L524.025 376.936ZM537.595 376.616C540.219 376.616 542.011 378.552 542.011 380.968C542.011 383.384 540.219 385.32 537.595 385.32C534.971 385.32 533.179 383.384 533.179 380.968C533.179 378.552 534.971 376.616 537.595 376.616ZM537.627 383.4C538.923 383.4 539.899 382.36 539.899 380.968C539.899 379.56 538.923 378.536 537.627 378.536C536.283 378.536 535.291 379.56 535.291 380.968C535.291 382.376 536.283 383.4 537.627 383.4ZM549.176 381.512V376.936H551.224V381.416C551.224 383.832 549.816 385.32 547.448 385.32C545.08 385.32 543.688 383.832 543.688 381.416V376.936H545.736V381.512C545.736 382.68 546.344 383.4 547.464 383.4C548.568 383.4 549.176 382.68 549.176 381.512ZM552.707 383.832L554.051 382.616C554.547 383.24 555.139 383.688 555.907 383.688C556.563 383.688 556.899 383.304 556.899 382.824C556.899 381.416 553.043 381.944 553.043 379.112C553.043 377.688 554.243 376.616 555.923 376.616C557.155 376.616 558.275 377.208 558.851 377.992L557.507 379.176C557.091 378.664 556.563 378.248 555.939 378.248C555.299 378.248 554.995 378.6 554.995 379.016C554.995 380.392 558.851 379.912 558.851 382.696C558.819 384.392 557.459 385.32 555.939 385.32C554.499 385.32 553.475 384.744 552.707 383.832ZM261.457 409.24C259.841 409.24 258.737 408.312 258.737 406.824C258.737 405.608 259.681 404.696 261.409 404.408L263.873 403.992V403.784C263.873 402.936 263.233 402.392 262.305 402.392C261.521 402.392 260.913 402.76 260.481 403.352L258.993 402.216C259.713 401.224 260.897 400.616 262.369 400.616C264.705 400.616 265.905 402.008 265.905 403.784V409H263.873V408.216C263.361 408.84 262.401 409.24 261.457 409.24ZM260.753 406.728C260.753 407.272 261.185 407.624 261.873 407.624C262.801 407.624 263.473 407.192 263.873 406.552V405.416L261.953 405.736C261.105 405.88 260.753 406.232 260.753 406.728ZM267.002 400.936H269.178L271.274 406.696L273.354 400.936H275.546L272.602 409H269.93L267.002 400.936ZM284.156 407.688C283.404 408.696 282.156 409.32 280.636 409.32C277.772 409.32 276.156 407.32 276.156 404.968C276.156 402.584 277.66 400.616 280.3 400.616C282.54 400.616 284.012 402.136 284.012 404.248C284.012 404.696 283.948 405.112 283.884 405.384H278.236C278.428 406.888 279.356 407.496 280.62 407.496C281.5 407.496 282.268 407.112 282.7 406.536L284.156 407.688ZM280.252 402.28C279.212 402.28 278.524 402.856 278.3 403.912H282.012C281.98 403.096 281.388 402.28 280.252 402.28ZM285.568 409V407.176L289.664 402.76H285.696V400.936H292.208V402.76L288.112 407.176H292.32V409H285.568ZM298.043 407.832L299.387 406.616C299.883 407.24 300.475 407.688 301.243 407.688C301.899 407.688 302.235 407.304 302.235 406.824C302.235 405.416 298.379 405.944 298.379 403.112C298.379 401.688 299.579 400.616 301.259 400.616C302.491 400.616 303.611 401.208 304.187 401.992L302.843 403.176C302.427 402.664 301.899 402.248 301.275 402.248C300.635 402.248 300.331 402.6 300.331 403.016C300.331 404.392 304.187 403.912 304.187 406.696C304.155 408.392 302.795 409.32 301.275 409.32C299.835 409.32 298.811 408.744 298.043 407.832ZM310.717 399.656H308.765L310.429 397H312.637L310.717 399.656ZM313.453 407.688C312.701 408.696 311.453 409.32 309.933 409.32C307.069 409.32 305.453 407.32 305.453 404.968C305.453 402.584 306.957 400.616 309.597 400.616C311.837 400.616 313.309 402.136 313.309 404.248C313.309 404.696 313.245 405.112 313.181 405.384H307.533C307.725 406.888 308.653 407.496 309.917 407.496C310.797 407.496 311.565 407.112 311.997 406.536L313.453 407.688ZM309.549 402.28C308.509 402.28 307.821 402.856 307.597 403.912H311.309C311.277 403.096 310.685 402.28 309.549 402.28ZM315.294 409V397H317.326V409H315.294ZM327.187 407.688C326.435 408.696 325.187 409.32 323.667 409.32C320.803 409.32 319.187 407.32 319.187 404.968C319.187 402.584 320.691 400.616 323.331 400.616C325.571 400.616 327.043 402.136 327.043 404.248C327.043 404.696 326.979 405.112 326.915 405.384H321.267C321.459 406.888 322.387 407.496 323.651 407.496C324.531 407.496 325.299 407.112 325.731 406.536L327.187 407.688ZM323.283 402.28C322.243 402.28 321.555 402.856 321.331 403.912H325.043C325.011 403.096 324.419 402.28 323.283 402.28ZM332.838 407.4C333.638 407.4 334.278 407.032 334.662 406.472L336.246 407.688C335.494 408.68 334.31 409.32 332.838 409.32C330.054 409.32 328.39 407.32 328.39 404.968C328.39 402.616 330.054 400.616 332.838 400.616C334.31 400.616 335.494 401.256 336.246 402.248L334.662 403.464C334.278 402.904 333.638 402.536 332.806 402.536C331.478 402.536 330.502 403.56 330.502 404.968C330.502 406.392 331.478 407.4 332.838 407.4ZM338.353 406.056V402.76H336.849V400.936H338.353V398.92H340.401V400.936H342.865V402.76H340.401V406.056C340.401 406.952 340.881 407.304 341.681 407.304C342.241 407.304 342.609 407.24 342.881 407.128V408.904C342.481 409.08 342.001 409.16 341.329 409.16C339.313 409.16 338.353 408.024 338.353 406.056ZM345.709 399.528C344.989 399.528 344.381 398.92 344.381 398.2C344.381 397.48 344.989 396.872 345.709 396.872C346.429 396.872 347.021 397.48 347.021 398.2C347.021 398.92 346.429 399.528 345.709 399.528ZM344.685 409V400.936H346.717V409H344.685ZM352.994 400.616C355.618 400.616 357.41 402.552 357.41 404.968C357.41 407.384 355.618 409.32 352.994 409.32C350.37 409.32 348.578 407.384 348.578 404.968C348.578 402.552 350.37 400.616 352.994 400.616ZM353.026 407.4C354.322 407.4 355.298 406.36 355.298 404.968C355.298 403.56 354.322 402.536 353.026 402.536C351.682 402.536 350.69 403.56 350.69 404.968C350.69 406.376 351.682 407.4 353.026 407.4ZM359.263 409V400.936H361.295V401.576C361.855 401.032 362.607 400.616 363.679 400.616C365.423 400.616 366.815 401.816 366.815 404.2V409H364.767V404.28C364.767 403.208 364.159 402.536 363.167 402.536C362.143 402.536 361.599 403.224 361.295 403.736V409H359.263ZM369.122 409V400.936H371.154V401.576C371.714 401.032 372.466 400.616 373.538 400.616C375.282 400.616 376.674 401.816 376.674 404.2V409H374.626V404.28C374.626 403.208 374.018 402.536 373.026 402.536C372.002 402.536 371.458 403.224 371.154 403.736V409H369.122ZM383.67 399.656H381.718L383.382 397H385.59L383.67 399.656ZM386.406 407.688C385.654 408.696 384.406 409.32 382.886 409.32C380.022 409.32 378.406 407.32 378.406 404.968C378.406 402.584 379.91 400.616 382.55 400.616C384.79 400.616 386.262 402.136 386.262 404.248C386.262 404.696 386.198 405.112 386.134 405.384H380.486C380.678 406.888 381.606 407.496 382.87 407.496C383.75 407.496 384.518 407.112 384.95 406.536L386.406 407.688ZM382.502 402.28C381.462 402.28 380.774 402.856 380.55 403.912H384.262C384.23 403.096 383.638 402.28 382.502 402.28Z" fill="#3A3A3A"/>
<path d="M433 160C442.2 160 446.5 168 446.5 178.5C446.5 189 442.2 197 433 197C423.8 197 419.5 189 419.5 178.5C419.5 168 423.8 160 433 160ZM433 166.25C428.55 166.25 426.4 171.15 426.4 178.5C426.4 185.9 428.55 190.75 433 190.75C437.4 190.75 439.55 185.85 439.55 178.5C439.55 171.1 437.4 166.25 433 166.25Z" fill="white"/>
</svg>
