<svg width="558" height="384" viewBox="0 0 558 384" fill="none" xmlns="http://www.w3.org/2000/svg">
<rect width="558" height="384" fill="white"/>
<path d="M160.631 259.014L356.529 250.897C367.918 250.425 376.768 240.81 376.296 229.421L372.735 143.501L371.026 102.259C370.554 90.8703 360.939 82.0205 349.551 82.4925L300.576 84.5219L153.652 90.6103C142.264 91.0823 133.414 100.697 133.886 112.086L139.155 239.248C139.627 250.637 149.242 259.486 160.631 259.014Z" fill="#F4F4FF"/>
<path d="M186.295 239.549H382.362C393.76 239.549 403 230.308 403 218.91V132.916V91.6386C403 80.2402 393.76 71 382.362 71H333.345H186.295C174.896 71 165.656 80.2402 165.656 91.6386V218.91C165.656 230.308 174.896 239.549 186.295 239.549Z" fill="white"/>
<path d="M333.345 71H186.295C174.896 71 165.656 80.2402 165.656 91.6386V218.91C165.656 230.308 174.896 239.549 186.295 239.549H382.362C393.76 239.549 403 230.308 403 218.91V132.916" stroke="#D6D6F0" stroke-width="1.71988"/>
<path d="M182 122H352" stroke="#D6D6F0"/>
<path d="M183 141H353" stroke="#D6D6F0"/>
<path d="M183 160H353" stroke="#D6D6F0"/>
<path d="M183 179H353" stroke="#D6D6F0"/>
<path d="M183 198H353" stroke="#D6D6F0"/>
<path d="M183 217H353" stroke="#D6D6F0"/>
<rect x="227.838" y="152.273" width="25.7983" height="63.6357" fill="#F4F4FF"/>
<rect x="193" y="108" width="26" height="108" fill="#F4F4FF"/>
<rect x="269.115" y="133.355" width="25.7983" height="82.5544" fill="#F4F4FF"/>
<rect x="306.953" y="148.836" width="25.7983" height="67.0755" fill="#F4F4FF"/>
<path d="M196 152.273L239.857 193.551L281.994 161.733L330.151 181.511" stroke="#D6D6F0" stroke-width="1.71988"/>
<circle cx="388.887" cy="98.2576" r="35.2576" fill="#D6D6F0"/>
<path d="M43.1402 305V293.8H45.4122V302.936H49.6682V305H43.1402ZM54.0427 305.24C52.4267 305.24 51.3227 304.312 51.3227 302.824C51.3227 301.608 52.2667 300.696 53.9947 300.408L56.4587 299.992V299.784C56.4587 298.936 55.8187 298.392 54.8907 298.392C54.1067 298.392 53.4987 298.76 53.0667 299.352L51.5787 298.216C52.2987 297.224 53.4827 296.616 54.9547 296.616C57.2907 296.616 58.4907 298.008 58.4907 299.784V305H56.4587V304.216C55.9467 304.84 54.9867 305.24 54.0427 305.24ZM53.3387 302.728C53.3387 303.272 53.7707 303.624 54.4587 303.624C55.3867 303.624 56.0587 303.192 56.4587 302.552V301.416L54.5387 301.736C53.6907 301.88 53.3387 302.232 53.3387 302.728ZM64.5541 300.968C64.5541 298.616 66.1061 296.616 68.6501 296.616C69.7381 296.616 70.5221 296.952 71.1461 297.576V293H73.1941V305H71.1461V304.36C70.5221 304.984 69.7381 305.32 68.6501 305.32C66.1061 305.32 64.5541 303.32 64.5541 300.968ZM66.6821 300.968C66.6821 302.376 67.5621 303.4 68.9381 303.4C69.8501 303.4 70.6021 303.016 71.1461 302.28V299.656C70.6021 298.92 69.8501 298.536 68.9381 298.536C67.5621 298.536 66.6821 299.56 66.6821 300.968ZM79.4701 296.616C82.0941 296.616 83.8861 298.552 83.8861 300.968C83.8861 303.384 82.0941 305.32 79.4701 305.32C76.8461 305.32 75.0541 303.384 75.0541 300.968C75.0541 298.552 76.8461 296.616 79.4701 296.616ZM79.5021 303.4C80.7981 303.4 81.7741 302.36 81.7741 300.968C81.7741 299.56 80.7981 298.536 79.5021 298.536C78.1581 298.536 77.1661 299.56 77.1661 300.968C77.1661 302.376 78.1581 303.4 79.5021 303.4ZM85.7394 305V296.936H87.7714V297.576C88.3314 297.032 89.0834 296.616 90.1554 296.616C91.8994 296.616 93.2914 297.816 93.2914 300.2V305H91.2434V300.28C91.2434 299.208 90.6354 298.536 89.6434 298.536C88.6194 298.536 88.0754 299.224 87.7714 299.736V305H85.7394ZM95.5988 305V296.936H97.6308V297.576C98.1908 297.032 98.9428 296.616 100.015 296.616C101.759 296.616 103.151 297.816 103.151 300.2V305H101.103V300.28C101.103 299.208 100.495 298.536 99.5028 298.536C98.4788 298.536 97.9348 299.224 97.6308 299.736V305H95.5988ZM110.146 295.656H108.194L109.858 293H112.066L110.146 295.656ZM112.882 303.688C112.13 304.696 110.882 305.32 109.362 305.32C106.498 305.32 104.882 303.32 104.882 300.968C104.882 298.584 106.386 296.616 109.026 296.616C111.266 296.616 112.738 298.136 112.738 300.248C112.738 300.696 112.674 301.112 112.61 301.384H106.962C107.154 302.888 108.082 303.496 109.346 303.496C110.226 303.496 110.994 303.112 111.426 302.536L112.882 303.688ZM108.978 298.28C107.938 298.28 107.25 298.856 107.026 299.912H110.738C110.706 299.096 110.114 298.28 108.978 298.28ZM122.085 303.688C121.333 304.696 120.085 305.32 118.565 305.32C115.701 305.32 114.085 303.32 114.085 300.968C114.085 298.584 115.589 296.616 118.229 296.616C120.469 296.616 121.941 298.136 121.941 300.248C121.941 300.696 121.877 301.112 121.813 301.384H116.165C116.357 302.888 117.285 303.496 118.549 303.496C119.429 303.496 120.197 303.112 120.629 302.536L122.085 303.688ZM118.181 298.28C117.141 298.28 116.453 298.856 116.229 299.912H119.941C119.909 299.096 119.317 298.28 118.181 298.28ZM127.663 300.968C127.663 298.616 129.215 296.616 131.759 296.616C132.847 296.616 133.631 296.952 134.255 297.576V293H136.303V305H134.255V304.36C133.631 304.984 132.847 305.32 131.759 305.32C129.215 305.32 127.663 303.32 127.663 300.968ZM129.791 300.968C129.791 302.376 130.671 303.4 132.047 303.4C132.959 303.4 133.711 303.016 134.255 302.28V299.656C133.711 298.92 132.959 298.536 132.047 298.536C130.671 298.536 129.791 299.56 129.791 300.968ZM139.763 295.528C139.043 295.528 138.435 294.92 138.435 294.2C138.435 293.48 139.043 292.872 139.763 292.872C140.483 292.872 141.075 293.48 141.075 294.2C141.075 294.92 140.483 295.528 139.763 295.528ZM138.739 305V296.936H140.771V305H138.739ZM142.395 303.832L143.739 302.616C144.235 303.24 144.827 303.688 145.595 303.688C146.251 303.688 146.587 303.304 146.587 302.824C146.587 301.416 142.731 301.944 142.731 299.112C142.731 297.688 143.931 296.616 145.611 296.616C146.843 296.616 147.963 297.208 148.539 297.992L147.195 299.176C146.779 298.664 146.251 298.248 145.627 298.248C144.987 298.248 144.683 298.6 144.683 299.016C144.683 300.392 148.539 299.912 148.539 302.696C148.507 304.392 147.147 305.32 145.627 305.32C144.187 305.32 143.163 304.744 142.395 303.832ZM150.411 308.936V296.936H152.443V297.592C153.067 296.968 153.851 296.616 154.955 296.616C157.515 296.616 159.051 298.616 159.051 300.968C159.051 303.32 157.515 305.32 154.955 305.32C153.851 305.32 153.067 304.968 152.443 304.344V308.936H150.411ZM154.667 298.536C153.723 298.536 152.955 298.952 152.443 299.704V302.232C152.987 303 153.739 303.4 154.667 303.4C156.043 303.4 156.939 302.376 156.939 300.968C156.939 299.56 156.043 298.536 154.667 298.536ZM164.829 296.616C167.453 296.616 169.245 298.552 169.245 300.968C169.245 303.384 167.453 305.32 164.829 305.32C162.205 305.32 160.413 303.384 160.413 300.968C160.413 298.552 162.205 296.616 164.829 296.616ZM164.861 303.4C166.157 303.4 167.133 302.36 167.133 300.968C167.133 299.56 166.157 298.536 164.861 298.536C163.517 298.536 162.525 299.56 162.525 300.968C162.525 302.376 163.517 303.4 164.861 303.4ZM171.099 305V296.936H173.131V297.576C173.691 297.032 174.443 296.616 175.515 296.616C177.259 296.616 178.651 297.816 178.651 300.2V305H176.603V300.28C176.603 299.208 175.995 298.536 175.003 298.536C173.979 298.536 173.435 299.224 173.131 299.736V305H171.099ZM181.982 295.528C181.262 295.528 180.654 294.92 180.654 294.2C180.654 293.48 181.262 292.872 181.982 292.872C182.702 292.872 183.294 293.48 183.294 294.2C183.294 294.92 182.702 295.528 181.982 295.528ZM180.958 305V296.936H182.99V305H180.958ZM194.067 300.968C194.067 303.32 192.531 305.32 189.971 305.32C188.867 305.32 188.083 304.968 187.459 304.344V305H185.427V293H187.459V297.592C188.083 296.968 188.867 296.616 189.971 296.616C192.531 296.616 194.067 298.616 194.067 300.968ZM189.683 298.536C188.739 298.536 187.955 298.952 187.459 299.688V302.248C188.003 303 188.771 303.4 189.683 303.4C191.059 303.4 191.955 302.376 191.955 300.968C191.955 299.56 191.059 298.536 189.683 298.536ZM195.927 305V293H197.959V305H195.927ZM207.82 303.688C207.068 304.696 205.82 305.32 204.3 305.32C201.436 305.32 199.82 303.32 199.82 300.968C199.82 298.584 201.324 296.616 203.964 296.616C206.204 296.616 207.676 298.136 207.676 300.248C207.676 300.696 207.612 301.112 207.548 301.384H201.9C202.092 302.888 203.02 303.496 204.284 303.496C205.164 303.496 205.932 303.112 206.364 302.536L207.82 303.688ZM203.916 298.28C202.876 298.28 202.188 298.856 201.964 299.912H205.676C205.644 299.096 205.052 298.28 203.916 298.28ZM221.398 303.688C220.646 304.696 219.398 305.32 217.878 305.32C215.014 305.32 213.398 303.32 213.398 300.968C213.398 298.584 214.902 296.616 217.542 296.616C219.782 296.616 221.254 298.136 221.254 300.248C221.254 300.696 221.19 301.112 221.126 301.384H215.478C215.67 302.888 216.598 303.496 217.862 303.496C218.742 303.496 219.51 303.112 219.942 302.536L221.398 303.688ZM217.494 298.28C216.454 298.28 215.766 298.856 215.542 299.912H219.254C219.222 299.096 218.63 298.28 217.494 298.28ZM222.426 303.832L223.77 302.616C224.266 303.24 224.858 303.688 225.626 303.688C226.282 303.688 226.618 303.304 226.618 302.824C226.618 301.416 222.762 301.944 222.762 299.112C222.762 297.688 223.962 296.616 225.642 296.616C226.874 296.616 227.994 297.208 228.57 297.992L227.226 299.176C226.81 298.664 226.282 298.248 225.658 298.248C225.018 298.248 224.714 298.6 224.714 299.016C224.714 300.392 228.57 299.912 228.57 302.696C228.538 304.392 227.178 305.32 225.658 305.32C224.218 305.32 223.194 304.744 222.426 303.832ZM231.08 302.056V298.76H229.576V296.936H231.08V294.92H233.128V296.936H235.592V298.76H233.128V302.056C233.128 302.952 233.608 303.304 234.408 303.304C234.968 303.304 235.336 303.24 235.608 303.128V304.904C235.208 305.08 234.728 305.16 234.056 305.16C232.04 305.16 231.08 304.024 231.08 302.056ZM246.412 295.656H244.46L246.124 293H248.332L246.412 295.656ZM249.148 303.688C248.396 304.696 247.148 305.32 245.628 305.32C242.764 305.32 241.148 303.32 241.148 300.968C241.148 298.584 242.652 296.616 245.292 296.616C247.532 296.616 249.004 298.136 249.004 300.248C249.004 300.696 248.94 301.112 248.876 301.384H243.228C243.42 302.888 244.348 303.496 245.612 303.496C246.492 303.496 247.26 303.112 247.692 302.536L249.148 303.688ZM245.244 298.28C244.204 298.28 243.516 298.856 243.292 299.912H247.004C246.972 299.096 246.38 298.28 245.244 298.28ZM250.127 306.408C250.127 305.608 250.527 304.968 251.247 304.44C250.927 304.12 250.751 303.688 250.751 303.272C250.751 302.632 251.023 302.12 251.631 301.672C250.927 301.144 250.543 300.344 250.543 299.448C250.543 297.88 251.759 296.616 253.775 296.616C254.399 296.616 254.943 296.728 255.407 296.936H258.351V298.664H256.927C257.007 298.92 257.039 299.176 257.039 299.448C257.039 301.032 255.855 302.312 253.775 302.312C253.503 302.312 253.247 302.296 253.007 302.248C252.831 302.408 252.735 302.584 252.735 302.76C252.735 303.08 252.911 303.24 253.279 303.24H255.311C257.343 303.24 258.447 304.328 258.447 305.832C258.447 307.624 256.735 309 254.223 309C251.647 309 250.127 308.104 250.127 306.408ZM253.807 300.776C254.655 300.776 255.199 300.248 255.199 299.448C255.199 298.648 254.655 298.136 253.807 298.136C252.927 298.136 252.399 298.664 252.399 299.448C252.399 300.248 252.927 300.776 253.807 300.776ZM252.047 306.12C252.047 306.888 252.783 307.368 254.207 307.368C255.679 307.368 256.431 306.824 256.431 306.024C256.431 305.416 256.063 304.984 255.087 304.984H252.591C252.287 305.272 252.047 305.624 252.047 306.12ZM261.824 305.24C260.208 305.24 259.104 304.312 259.104 302.824C259.104 301.608 260.048 300.696 261.776 300.408L264.24 299.992V299.784C264.24 298.936 263.6 298.392 262.672 298.392C261.888 298.392 261.28 298.76 260.848 299.352L259.36 298.216C260.08 297.224 261.264 296.616 262.736 296.616C265.072 296.616 266.272 298.008 266.272 299.784V305H264.24V304.216C263.728 304.84 262.768 305.24 261.824 305.24ZM261.12 302.728C261.12 303.272 261.552 303.624 262.24 303.624C263.168 303.624 263.84 303.192 264.24 302.552V301.416L262.32 301.736C261.472 301.88 261.12 302.232 261.12 302.728ZM268.599 305V293H270.631V305H268.599ZM280.492 303.688C279.74 304.696 278.492 305.32 276.972 305.32C274.108 305.32 272.492 303.32 272.492 300.968C272.492 298.584 273.996 296.616 276.636 296.616C278.876 296.616 280.348 298.136 280.348 300.248C280.348 300.696 280.284 301.112 280.22 301.384H274.572C274.764 302.888 275.692 303.496 276.956 303.496C277.836 303.496 278.604 303.112 279.036 302.536L280.492 303.688ZM276.588 298.28C275.548 298.28 274.86 298.856 274.636 299.912H278.348C278.316 299.096 277.724 298.28 276.588 298.28ZM288.87 295.656L286.95 293H289.158L290.806 295.656H288.87ZM288.918 305.24C287.302 305.24 286.198 304.312 286.198 302.824C286.198 301.608 287.142 300.696 288.87 300.408L291.334 299.992V299.784C291.334 298.936 290.694 298.392 289.766 298.392C288.982 298.392 288.374 298.76 287.942 299.352L286.454 298.216C287.174 297.224 288.358 296.616 289.83 296.616C292.166 296.616 293.366 298.008 293.366 299.784V305H291.334V304.216C290.822 304.84 289.862 305.24 288.918 305.24ZM288.214 302.728C288.214 303.272 288.646 303.624 289.334 303.624C290.262 303.624 290.934 303.192 291.334 302.552V301.416L289.414 301.736C288.566 301.88 288.214 302.232 288.214 302.728ZM303.589 293.48C306.533 293.48 307.909 296.04 307.909 299.4C307.909 302.76 306.533 305.32 303.589 305.32C300.645 305.32 299.269 302.76 299.269 299.4C299.269 296.04 300.645 293.48 303.589 293.48ZM303.589 295.48C302.165 295.48 301.477 297.048 301.477 299.4C301.477 301.768 302.165 303.32 303.589 303.32C304.997 303.32 305.685 301.752 305.685 299.4C305.685 297.032 304.997 295.48 303.589 295.48ZM313.911 308.936V296.936H315.943V297.592C316.567 296.968 317.351 296.616 318.455 296.616C321.015 296.616 322.551 298.616 322.551 300.968C322.551 303.32 321.015 305.32 318.455 305.32C317.351 305.32 316.567 304.968 315.943 304.344V308.936H313.911ZM318.167 298.536C317.223 298.536 316.455 298.952 315.943 299.704V302.232C316.487 303 317.239 303.4 318.167 303.4C319.543 303.4 320.439 302.376 320.439 300.968C320.439 299.56 319.543 298.536 318.167 298.536ZM328.329 296.616C330.953 296.616 332.745 298.552 332.745 300.968C332.745 303.384 330.953 305.32 328.329 305.32C325.705 305.32 323.913 303.384 323.913 300.968C323.913 298.552 325.705 296.616 328.329 296.616ZM328.361 303.4C329.657 303.4 330.633 302.36 330.633 300.968C330.633 299.56 329.657 298.536 328.361 298.536C327.017 298.536 326.025 299.56 326.025 300.968C326.025 302.376 327.017 303.4 328.361 303.4ZM339.911 301.512V296.936H341.959V301.416C341.959 303.832 340.551 305.32 338.183 305.32C335.815 305.32 334.423 303.832 334.423 301.416V296.936H336.471V301.512C336.471 302.68 337.079 303.4 338.199 303.4C339.303 303.4 339.911 302.68 339.911 301.512ZM344.208 305V296.936H346.24V297.736C346.768 297.192 347.456 296.776 348.368 296.776C348.64 296.776 348.88 296.824 349.072 296.888V298.888C348.816 298.824 348.544 298.776 348.176 298.776C347.184 298.776 346.544 299.32 346.24 299.832V305H344.208ZM355.021 305V293H357.053V305H355.021ZM366.913 303.688C366.161 304.696 364.913 305.32 363.393 305.32C360.529 305.32 358.913 303.32 358.913 300.968C358.913 298.584 360.417 296.616 363.057 296.616C365.297 296.616 366.769 298.136 366.769 300.248C366.769 300.696 366.705 301.112 366.641 301.384H360.993C361.185 302.888 362.113 303.496 363.377 303.496C364.257 303.496 365.025 303.112 365.457 302.536L366.913 303.688ZM363.009 298.28C361.969 298.28 361.281 298.856 361.057 299.912H364.769C364.737 299.096 364.145 298.28 363.009 298.28ZM373.58 302.056V298.76H372.076V296.936H373.58V294.92H375.628V296.936H378.092V298.76H375.628V302.056C375.628 302.952 376.108 303.304 376.908 303.304C377.468 303.304 377.836 303.24 378.108 303.128V304.904C377.708 305.08 377.228 305.16 376.556 305.16C374.54 305.16 373.58 304.024 373.58 302.056ZM387.179 303.688C386.427 304.696 385.179 305.32 383.659 305.32C380.795 305.32 379.179 303.32 379.179 300.968C379.179 298.584 380.683 296.616 383.323 296.616C385.563 296.616 387.035 298.136 387.035 300.248C387.035 300.696 386.971 301.112 386.907 301.384H381.259C381.451 302.888 382.379 303.496 383.643 303.496C384.523 303.496 385.291 303.112 385.723 302.536L387.179 303.688ZM383.275 298.28C382.235 298.28 381.547 298.856 381.323 299.912H385.035C385.003 299.096 384.411 298.28 383.275 298.28ZM389.021 305V296.936H391.053V297.736C391.581 297.192 392.269 296.776 393.181 296.776C393.453 296.776 393.693 296.824 393.885 296.888V298.888C393.629 298.824 393.357 298.776 392.989 298.776C391.997 298.776 391.357 299.32 391.053 299.832V305H389.021ZM395.521 305V296.936H397.553V297.736C398.081 297.192 398.769 296.776 399.681 296.776C399.953 296.776 400.193 296.824 400.385 296.888V298.888C400.129 298.824 399.857 298.776 399.489 298.776C398.497 298.776 397.857 299.32 397.553 299.832V305H395.521ZM403.045 295.528C402.325 295.528 401.717 294.92 401.717 294.2C401.717 293.48 402.325 292.872 403.045 292.872C403.765 292.872 404.357 293.48 404.357 294.2C404.357 294.92 403.765 295.528 403.045 295.528ZM402.021 305V296.936H404.053V305H402.021ZM407.001 302.056V298.76H405.497V296.936H407.001V294.92H409.049V296.936H411.513V298.76H409.049V302.056C409.049 302.952 409.529 303.304 410.329 303.304C410.889 303.304 411.257 303.24 411.529 303.128V304.904C411.129 305.08 410.649 305.16 409.977 305.16C407.961 305.16 407.001 304.024 407.001 302.056ZM417.017 296.616C419.641 296.616 421.433 298.552 421.433 300.968C421.433 303.384 419.641 305.32 417.017 305.32C414.393 305.32 412.601 303.384 412.601 300.968C412.601 298.552 414.393 296.616 417.017 296.616ZM417.049 303.4C418.345 303.4 419.321 302.36 419.321 300.968C419.321 299.56 418.345 298.536 417.049 298.536C415.705 298.536 414.713 299.56 414.713 300.968C414.713 302.376 415.705 303.4 417.049 303.4ZM424.31 295.528C423.59 295.528 422.982 294.92 422.982 294.2C422.982 293.48 423.59 292.872 424.31 292.872C425.03 292.872 425.622 293.48 425.622 294.2C425.622 294.92 425.03 295.528 424.31 295.528ZM423.286 305V296.936H425.318V305H423.286ZM427.755 305V296.936H429.787V297.736C430.315 297.192 431.003 296.776 431.915 296.776C432.187 296.776 432.427 296.824 432.619 296.888V298.888C432.363 298.824 432.091 298.776 431.723 298.776C430.731 298.776 430.091 299.32 429.787 299.832V305H427.755ZM441.335 303.688C440.583 304.696 439.335 305.32 437.815 305.32C434.951 305.32 433.335 303.32 433.335 300.968C433.335 298.584 434.839 296.616 437.479 296.616C439.719 296.616 441.191 298.136 441.191 300.248C441.191 300.696 441.127 301.112 441.063 301.384H435.415C435.607 302.888 436.535 303.496 437.799 303.496C438.679 303.496 439.447 303.112 439.879 302.536L441.335 303.688ZM437.431 298.28C436.391 298.28 435.703 298.856 435.479 299.912H439.191C439.159 299.096 438.567 298.28 437.431 298.28ZM446.913 300.968C446.913 298.616 448.449 296.616 451.009 296.616C452.097 296.616 452.881 296.968 453.505 297.592V296.936H455.553V308.936H453.505V304.344C452.881 304.968 452.097 305.32 451.009 305.32C448.449 305.32 446.913 303.32 446.913 300.968ZM449.025 300.968C449.025 302.376 449.905 303.4 451.281 303.4C452.225 303.4 453.009 302.984 453.505 302.248V299.688C452.961 298.936 452.193 298.536 451.281 298.536C449.905 298.536 449.025 299.56 449.025 300.968ZM463.301 301.512V296.936H465.349V301.416C465.349 303.832 463.941 305.32 461.573 305.32C459.205 305.32 457.813 303.832 457.813 301.416V296.936H459.861V301.512C459.861 302.68 460.469 303.4 461.589 303.4C462.693 303.4 463.301 302.68 463.301 301.512ZM475.023 303.688C474.271 304.696 473.023 305.32 471.503 305.32C468.639 305.32 467.023 303.32 467.023 300.968C467.023 298.584 468.527 296.616 471.167 296.616C473.407 296.616 474.879 298.136 474.879 300.248C474.879 300.696 474.815 301.112 474.751 301.384H469.103C469.295 302.888 470.223 303.496 471.487 303.496C472.367 303.496 473.135 303.112 473.567 302.536L475.023 303.688ZM471.119 298.28C470.079 298.28 469.391 298.856 469.167 299.912H472.879C472.847 299.096 472.255 298.28 471.119 298.28ZM480.025 296.936H482.201L484.297 302.696L486.377 296.936H488.569L485.625 305H482.953L480.025 296.936ZM493.595 296.616C496.219 296.616 498.011 298.552 498.011 300.968C498.011 303.384 496.219 305.32 493.595 305.32C490.971 305.32 489.179 303.384 489.179 300.968C489.179 298.552 490.971 296.616 493.595 296.616ZM493.627 303.4C494.923 303.4 495.899 302.36 495.899 300.968C495.899 299.56 494.923 298.536 493.627 298.536C492.283 298.536 491.291 299.56 491.291 300.968C491.291 302.376 492.283 303.4 493.627 303.4ZM505.176 301.512V296.936H507.224V301.416C507.224 303.832 505.816 305.32 503.448 305.32C501.08 305.32 499.688 303.832 499.688 301.416V296.936H501.736V301.512C501.736 302.68 502.344 303.4 503.464 303.4C504.568 303.4 505.176 302.68 505.176 301.512ZM508.707 303.832L510.051 302.616C510.547 303.24 511.139 303.688 511.907 303.688C512.563 303.688 512.899 303.304 512.899 302.824C512.899 301.416 509.043 301.944 509.043 299.112C509.043 297.688 510.243 296.616 511.923 296.616C513.155 296.616 514.275 297.208 514.851 297.992L513.507 299.176C513.091 298.664 512.563 298.248 511.939 298.248C511.299 298.248 510.995 298.6 510.995 299.016C510.995 300.392 514.851 299.912 514.851 302.696C514.819 304.392 513.459 305.32 511.939 305.32C510.499 305.32 509.475 304.744 508.707 303.832ZM217.457 329.24C215.841 329.24 214.737 328.312 214.737 326.824C214.737 325.608 215.681 324.696 217.409 324.408L219.873 323.992V323.784C219.873 322.936 219.233 322.392 218.305 322.392C217.521 322.392 216.913 322.76 216.481 323.352L214.993 322.216C215.713 321.224 216.897 320.616 218.369 320.616C220.705 320.616 221.905 322.008 221.905 323.784V329H219.873V328.216C219.361 328.84 218.401 329.24 217.457 329.24ZM216.753 326.728C216.753 327.272 217.185 327.624 217.873 327.624C218.801 327.624 219.473 327.192 219.873 326.552V325.416L217.953 325.736C217.105 325.88 216.753 326.232 216.753 326.728ZM223.002 320.936H225.178L227.274 326.696L229.354 320.936H231.546L228.602 329H225.93L223.002 320.936ZM240.156 327.688C239.404 328.696 238.156 329.32 236.636 329.32C233.772 329.32 232.156 327.32 232.156 324.968C232.156 322.584 233.66 320.616 236.3 320.616C238.54 320.616 240.012 322.136 240.012 324.248C240.012 324.696 239.948 325.112 239.884 325.384H234.236C234.428 326.888 235.356 327.496 236.62 327.496C237.5 327.496 238.268 327.112 238.7 326.536L240.156 327.688ZM236.252 322.28C235.212 322.28 234.524 322.856 234.3 323.912H238.012C237.98 323.096 237.388 322.28 236.252 322.28ZM241.568 329V327.176L245.664 322.76H241.696V320.936H248.208V322.76L244.112 327.176H248.32V329H241.568ZM254.043 327.832L255.387 326.616C255.883 327.24 256.475 327.688 257.243 327.688C257.899 327.688 258.235 327.304 258.235 326.824C258.235 325.416 254.379 325.944 254.379 323.112C254.379 321.688 255.579 320.616 257.259 320.616C258.491 320.616 259.611 321.208 260.187 321.992L258.843 323.176C258.427 322.664 257.899 322.248 257.275 322.248C256.635 322.248 256.331 322.6 256.331 323.016C256.331 324.392 260.187 323.912 260.187 326.696C260.155 328.392 258.795 329.32 257.275 329.32C255.835 329.32 254.811 328.744 254.043 327.832ZM266.717 319.656H264.765L266.429 317H268.637L266.717 319.656ZM269.453 327.688C268.701 328.696 267.453 329.32 265.933 329.32C263.069 329.32 261.453 327.32 261.453 324.968C261.453 322.584 262.957 320.616 265.597 320.616C267.837 320.616 269.309 322.136 269.309 324.248C269.309 324.696 269.245 325.112 269.181 325.384H263.533C263.725 326.888 264.653 327.496 265.917 327.496C266.797 327.496 267.565 327.112 267.997 326.536L269.453 327.688ZM265.549 322.28C264.509 322.28 263.821 322.856 263.597 323.912H267.309C267.277 323.096 266.685 322.28 265.549 322.28ZM271.294 329V317H273.326V329H271.294ZM283.187 327.688C282.435 328.696 281.187 329.32 279.667 329.32C276.803 329.32 275.187 327.32 275.187 324.968C275.187 322.584 276.691 320.616 279.331 320.616C281.571 320.616 283.043 322.136 283.043 324.248C283.043 324.696 282.979 325.112 282.915 325.384H277.267C277.459 326.888 278.387 327.496 279.651 327.496C280.531 327.496 281.299 327.112 281.731 326.536L283.187 327.688ZM279.283 322.28C278.243 322.28 277.555 322.856 277.331 323.912H281.043C281.011 323.096 280.419 322.28 279.283 322.28ZM288.838 327.4C289.638 327.4 290.278 327.032 290.662 326.472L292.246 327.688C291.494 328.68 290.31 329.32 288.838 329.32C286.054 329.32 284.39 327.32 284.39 324.968C284.39 322.616 286.054 320.616 288.838 320.616C290.31 320.616 291.494 321.256 292.246 322.248L290.662 323.464C290.278 322.904 289.638 322.536 288.806 322.536C287.478 322.536 286.502 323.56 286.502 324.968C286.502 326.392 287.478 327.4 288.838 327.4ZM294.353 326.056V322.76H292.849V320.936H294.353V318.92H296.401V320.936H298.865V322.76H296.401V326.056C296.401 326.952 296.881 327.304 297.681 327.304C298.241 327.304 298.609 327.24 298.881 327.128V328.904C298.481 329.08 298.001 329.16 297.329 329.16C295.313 329.16 294.353 328.024 294.353 326.056ZM301.709 319.528C300.989 319.528 300.381 318.92 300.381 318.2C300.381 317.48 300.989 316.872 301.709 316.872C302.429 316.872 303.021 317.48 303.021 318.2C303.021 318.92 302.429 319.528 301.709 319.528ZM300.685 329V320.936H302.717V329H300.685ZM308.994 320.616C311.618 320.616 313.41 322.552 313.41 324.968C313.41 327.384 311.618 329.32 308.994 329.32C306.37 329.32 304.578 327.384 304.578 324.968C304.578 322.552 306.37 320.616 308.994 320.616ZM309.026 327.4C310.322 327.4 311.298 326.36 311.298 324.968C311.298 323.56 310.322 322.536 309.026 322.536C307.682 322.536 306.69 323.56 306.69 324.968C306.69 326.376 307.682 327.4 309.026 327.4ZM315.263 329V320.936H317.295V321.576C317.855 321.032 318.607 320.616 319.679 320.616C321.423 320.616 322.815 321.816 322.815 324.2V329H320.767V324.28C320.767 323.208 320.159 322.536 319.167 322.536C318.143 322.536 317.599 323.224 317.295 323.736V329H315.263ZM325.122 329V320.936H327.154V321.576C327.714 321.032 328.466 320.616 329.538 320.616C331.282 320.616 332.674 321.816 332.674 324.2V329H330.626V324.28C330.626 323.208 330.018 322.536 329.026 322.536C328.002 322.536 327.458 323.224 327.154 323.736V329H325.122ZM339.67 319.656H337.718L339.382 317H341.59L339.67 319.656ZM342.406 327.688C341.654 328.696 340.406 329.32 338.886 329.32C336.022 329.32 334.406 327.32 334.406 324.968C334.406 322.584 335.91 320.616 338.55 320.616C340.79 320.616 342.262 322.136 342.262 324.248C342.262 324.696 342.198 325.112 342.134 325.384H336.486C336.678 326.888 337.606 327.496 338.87 327.496C339.75 327.496 340.518 327.112 340.95 326.536L342.406 327.688ZM338.502 322.28C337.462 322.28 336.774 322.856 336.55 323.912H340.262C340.23 323.096 339.638 322.28 338.502 322.28Z" fill="#3A3A3A"/>
<path d="M389 80C398.2 80 402.5 88 402.5 98.5C402.5 109 398.2 117 389 117C379.8 117 375.5 109 375.5 98.5C375.5 88 379.8 80 389 80ZM389 86.25C384.55 86.25 382.4 91.15 382.4 98.5C382.4 105.9 384.55 110.75 389 110.75C393.4 110.75 395.55 105.85 395.55 98.5C395.55 91.1 393.4 86.25 389 86.25Z" fill="white"/>
</svg>
