<svg width="60" height="60" viewBox="0 0 60 60" fill="none" xmlns="http://www.w3.org/2000/svg">
<g clip-path="url(#clip0_4107_31351)">
<path d="M32.2368 36.3397C32.6148 34.6891 33.4302 32.5801 35.127 32.5801" stroke="#666666" stroke-width="0.5" stroke-linecap="round" stroke-linejoin="round"/>
<path d="M35.127 32.5798C35.0214 32.4394 35.724 30.5098 37.7814 30.5098C39.8388 30.5098 42.2502 32.5798 43.62 32.5798C44.9898 32.5798 38.4456 36.9796 35.127 32.5798Z" stroke="#666666" stroke-width="0.5" stroke-linecap="round" stroke-linejoin="round"/>
<path d="M28.6626 31.7194C28.4342 31.0452 27.9944 30.4626 27.4085 30.0583C26.8227 29.6539 26.122 29.4493 25.4106 29.4748" stroke="#666666" stroke-width="0.5" stroke-linecap="round" stroke-linejoin="round"/>
<path d="M25.4106 29.4743C25.5162 29.3345 24.8136 27.4043 22.7562 27.4043C20.6988 27.4043 18.2874 29.4743 16.9158 29.4743C15.5442 29.4743 22.0926 33.8729 25.4106 29.4743Z" stroke="#666666" stroke-width="0.5" stroke-linecap="round" stroke-linejoin="round"/>
<path d="M35.9646 16.44C32.3712 18.9408 30 23.7834 30 23.7834C30 23.7834 28.4892 15.972 21.7074 13.5" stroke="#666666" stroke-width="0.5" stroke-linecap="round" stroke-linejoin="round"/>
<path d="M18.3162 8.39258C18.3162 8.39258 16.9098 14.6836 20.0052 18.0382C21.705 19.8802 24.723 19.9522 25.9218 16.6342C29.325 15.7054 29.5506 11.9176 27.381 10.6618C24.9552 9.25778 22.3026 11.8192 18.3162 8.39258Z" stroke="#666666" stroke-width="0.5" stroke-linecap="round" stroke-linejoin="round"/>
<path d="M38.2638 12.3203C38.2638 12.3203 39.8874 17.2403 37.677 20.1713C36.4626 21.7799 34.0542 22.0763 32.832 19.5167C30.0354 19.0439 29.5548 16.0313 31.191 14.8547C33.0204 13.5389 35.346 15.3797 38.2638 12.3203Z" stroke="#666666" stroke-width="0.5" stroke-linecap="round" stroke-linejoin="round"/>
<path d="M26.8608 44.855C26.3538 44.8637 25.8538 44.7356 25.4135 44.4841C24.9732 44.2325 24.6088 43.867 24.3588 43.4258C24.1022 43.8611 23.7365 44.2219 23.2977 44.4726C22.859 44.7232 22.3624 44.8551 21.8571 44.8551C21.3518 44.8551 20.8552 44.7232 20.4165 44.4726C19.9778 44.2219 19.612 43.8611 19.3554 43.4258C19.0988 43.8611 18.7331 44.2219 18.2943 44.4726C17.8556 44.7232 17.359 44.8551 16.8537 44.8551C16.3484 44.8551 15.8518 44.7232 15.4131 44.4726C14.9744 44.2219 14.6086 43.8611 14.352 43.4258C14.102 43.867 13.7376 44.2325 13.2973 44.4841C12.857 44.7356 12.357 44.8637 11.85 44.855" stroke="#666666" stroke-width="0.5" stroke-linecap="round" stroke-linejoin="round"/>
<path d="M46.875 46.9995C46.368 47.0082 45.868 46.8801 45.4277 46.6286C44.9874 46.3771 44.623 46.0115 44.373 45.5703C44.1164 46.0056 43.7507 46.3664 43.3119 46.6171C42.8732 46.8678 42.3766 46.9996 41.8713 46.9996C41.366 46.9996 40.8694 46.8678 40.4307 46.6171C39.9919 46.3664 39.6262 46.0056 39.3696 45.5703C39.1196 46.0114 38.7554 46.3769 38.3152 46.6284C37.875 46.88 37.3751 47.0081 36.8682 46.9995" stroke="#666666" stroke-width="0.5" stroke-linecap="round" stroke-linejoin="round"/>
<path d="M32.1318 51.605C31.6249 51.6136 31.125 51.4854 30.6848 51.2339C30.2446 50.9824 29.8804 50.6169 29.6304 50.1758C29.3737 50.6111 29.0079 50.9719 28.5691 51.2225C28.1303 51.4732 27.6337 51.605 27.1284 51.605C26.6231 51.605 26.1265 51.4732 25.6877 51.2225C25.2489 50.9719 24.8831 50.6111 24.6264 50.1758C24.3764 50.6169 24.0122 50.9824 23.572 51.2339C23.1318 51.4854 22.6319 51.6136 22.125 51.605" stroke="#666666" stroke-width="0.5" stroke-linecap="round" stroke-linejoin="round"/>
<path d="M57 39.3242H3" stroke="#666666" stroke-width="0.5" stroke-linecap="round" stroke-linejoin="round"/>
<path d="M32.919 39.3252C32.304 36.891 31.3422 32.2872 30 23.7852C28.6578 32.289 27.696 36.8928 27.081 39.3252" stroke="#666666" stroke-width="0.5" stroke-linecap="round" stroke-linejoin="round"/>
</g>
<defs>
<clipPath id="clip0_4107_31351">
<rect width="60" height="60" fill="white"/>
</clipPath>
</defs>
</svg>
