<svg width="60" height="60" viewBox="0 0 60 60" fill="none" xmlns="http://www.w3.org/2000/svg">
<path d="M55.3735 39.9121H57.0001" stroke="#666666" stroke-width="0.5" stroke-linecap="round" stroke-linejoin="round"/>
<path d="M3 39.9121H4.6266" stroke="#666666" stroke-width="0.5" stroke-linecap="round" stroke-linejoin="round"/>
<path d="M22.2041 39.9258H5.92786" stroke="#666666" stroke-width="0.5" stroke-linecap="round" stroke-linejoin="round"/>
<path d="M54.072 39.9258H27.735" stroke="#666666" stroke-width="0.5" stroke-linecap="round" stroke-linejoin="round"/>
<path d="M32.5615 46.2383L33.7519 47.0837" stroke="#666666" stroke-width="0.5" stroke-linecap="round" stroke-linejoin="round"/>
<path d="M38.8878 42.4531L37.4304 42.5395" stroke="#666666" stroke-width="0.5" stroke-linecap="round" stroke-linejoin="round"/>
<path d="M26.2969 45.2356L25.4689 44.0332" stroke="#666666" stroke-width="0.5" stroke-linecap="round" stroke-linejoin="round"/>
<path d="M16.0549 43.5862L16.0975 42.127" stroke="#666666" stroke-width="0.5" stroke-linecap="round" stroke-linejoin="round"/>
<path d="M43.4418 45.2773L44.883 45.5095" stroke="#666666" stroke-width="0.5" stroke-linecap="round" stroke-linejoin="round"/>
<path d="M28.8414 52.3547L29.4702 51.0371" stroke="#666666" stroke-width="0.5" stroke-linecap="round" stroke-linejoin="round"/>
<path d="M37.9003 49.7297L39.2383 49.1465" stroke="#666666" stroke-width="0.5" stroke-linecap="round" stroke-linejoin="round"/>
<path d="M20.8619 48.5475L21.4907 47.2305" stroke="#666666" stroke-width="0.5" stroke-linecap="round" stroke-linejoin="round"/>
<path d="M52.2394 14.7982L47.686 17.4274C47.6046 17.4745 47.5147 17.5051 47.4215 17.5174C47.3282 17.5297 47.2335 17.5235 47.1426 17.4991C47.0518 17.4748 46.9666 17.4327 46.8921 17.3754C46.8175 17.3181 46.7549 17.2467 46.708 17.1652L42.5908 10.0348C42.5438 9.95335 42.5133 9.86346 42.501 9.77023C42.4887 9.67701 42.4949 9.58228 42.5193 9.49146C42.5436 9.40063 42.5856 9.3155 42.6429 9.24092C42.7002 9.16633 42.7716 9.10376 42.853 9.05678L45.2998 7.64258" stroke="#666666" stroke-width="0.5" stroke-linecap="round" stroke-linejoin="round"/>
<path d="M42.531 9.90015L41.199 10.6693C40.6474 10.9878 40.0054 11.1134 39.3744 11.0263L31.2552 9.07815C30.8884 8.9798 30.4976 9.0312 30.1687 9.22102C29.8398 9.41085 29.5998 9.72355 29.5014 10.0903C29.4031 10.4571 29.4545 10.848 29.6443 11.1769C29.8341 11.5058 30.1468 11.7458 30.5136 11.8441L33.6702 12.6901C33.7297 12.7062 33.784 12.7373 33.828 12.7804C33.872 12.8234 33.9043 12.8771 33.9216 12.9361C33.9564 13.0561 33.8826 13.1605 33.8406 13.2781C33.4681 14.1361 32.7854 14.8218 31.929 15.1981L30.6894 15.9121" stroke="#666666" stroke-width="0.5" stroke-linecap="round" stroke-linejoin="round"/>
<path d="M36.42 25.83L37.9698 24.9348C40.216 23.638 42.1507 21.8648 43.638 19.74L44.2242 18.9C44.5889 18.3792 45.0632 17.9446 45.6138 17.6268L46.638 17.0352" stroke="#666666" stroke-width="0.5" stroke-linecap="round" stroke-linejoin="round"/>
<path d="M34.329 23.7317L36.225 22.6367" stroke="#666666" stroke-width="0.5" stroke-linecap="round" stroke-linejoin="round"/>
<path d="M37.6571 25.1152L32.0771 28.3372C31.7491 28.5157 31.3643 28.559 31.0048 28.4579C30.6453 28.3567 30.3395 28.1192 30.1526 27.7958C29.9657 27.4725 29.9126 27.0889 30.0044 26.7269C30.0963 26.365 30.3259 26.0532 30.6443 25.858L31.2089 25.5322" stroke="#666666" stroke-width="0.5" stroke-linecap="round" stroke-linejoin="round"/>
<path d="M28.4879 20.4891L26.2307 21.7923C25.9021 21.9768 25.5141 22.0243 25.1507 21.9246C24.7873 21.8248 24.4778 21.5859 24.2894 21.2596C24.101 20.9332 24.0487 20.5458 24.144 20.1812C24.2393 19.8166 24.4745 19.5043 24.7985 19.3119L31.9289 15.1953" stroke="#666666" stroke-width="0.5" stroke-linecap="round" stroke-linejoin="round"/>
<path d="M33.3012 17.709L29.961 19.6374" stroke="#666666" stroke-width="0.5" stroke-linecap="round" stroke-linejoin="round"/>
<path d="M26.4751 27.0996C26.3109 26.9469 26.1849 26.758 26.107 26.5478C26.0291 26.3376 26.0015 26.1121 26.0266 25.8893C26.0516 25.6666 26.1285 25.4528 26.2511 25.2651C26.3737 25.0775 26.5386 24.9212 26.7325 24.8088L34.4833 20.334" stroke="#666666" stroke-width="0.5" stroke-linecap="round" stroke-linejoin="round"/>
<path d="M31.2091 25.5312L28.1647 27.2887C27.9191 27.4311 27.6366 27.4969 27.3535 27.4776" stroke="#666666" stroke-width="0.5" stroke-linecap="round" stroke-linejoin="round"/>
<path d="M34.4831 20.334L25.7999 25.3458C25.4713 25.5302 25.0832 25.5778 24.7198 25.478C24.3564 25.3783 24.047 25.1394 23.8585 24.8131C23.6701 24.4867 23.6179 24.0993 23.7132 23.7347C23.8085 23.3701 24.0436 23.0578 24.3677 22.8654L26.2277 21.7914" stroke="#666666" stroke-width="0.5" stroke-linecap="round" stroke-linejoin="round"/>
<path d="M36.9678 23.0363C35.8655 22.2453 34.9551 21.2168 34.3038 20.0267C33.6768 18.9786 33.257 17.8198 33.0672 16.6133" stroke="#666666" stroke-width="0.5" stroke-linecap="round" stroke-linejoin="round"/>
<path d="M25.0381 40.6173C24.8895 40.7616 24.6904 40.8422 24.4832 40.8416C24.276 40.8411 24.0773 40.7595 23.9295 40.6144C23.7817 40.4692 23.6966 40.272 23.6922 40.0649C23.6879 39.8578 23.7648 39.6572 23.9065 39.5061L25.3309 38.0553C25.3309 38.0553 26.5951 37.2753 26.9077 37.5807C27.2203 37.8861 26.4625 39.1659 26.4625 39.1659L25.0381 40.6173Z" stroke="#666666" stroke-width="0.5" stroke-linecap="round" stroke-linejoin="round"/>
<path d="M22.104 31.5074C22.02 31.3182 22.0134 31.1037 22.0854 30.9096C22.1575 30.7156 22.3025 30.5574 22.4896 30.4689C22.6767 30.3803 22.891 30.3684 23.0867 30.4356C23.2825 30.5029 23.4442 30.644 23.5374 30.8288L24.4074 32.666C24.4074 32.666 24.7044 34.1228 24.3084 34.31C23.9124 34.4972 22.974 33.3446 22.974 33.3446L22.104 31.5074Z" stroke="#666666" stroke-width="0.5" stroke-linecap="round" stroke-linejoin="round"/>
<path d="M39.06 19.4357C39.1659 19.4342 39.2709 19.454 39.369 19.4937C39.4671 19.5335 39.5562 19.5925 39.6311 19.6673C39.7061 19.742 39.7653 19.831 39.8053 19.929C39.8453 20.027 39.8653 20.132 39.8641 20.2378C39.8629 20.3436 39.8405 20.4481 39.7983 20.5452C39.7561 20.6422 39.6948 20.7299 39.6182 20.8029C39.5416 20.8759 39.4512 20.9329 39.3522 20.9704C39.2533 21.008 39.1478 21.0253 39.042 21.0215L37.008 20.9999C37.008 20.9999 35.568 20.6279 35.5734 20.1899C35.5788 19.7519 37.026 19.4141 37.026 19.4141L39.06 19.4357Z" stroke="#666666" stroke-width="0.5" stroke-linecap="round" stroke-linejoin="round"/>
<path d="M32.9777 36.3894C32.9451 36.5941 32.8336 36.778 32.6671 36.9016C32.5007 37.0251 32.2924 37.0786 32.087 37.0505C31.8816 37.0224 31.6953 36.915 31.5681 36.7513C31.4408 36.5876 31.3828 36.3806 31.4063 36.1746L31.6817 34.1598C31.6817 34.1598 32.2289 32.7798 32.6627 32.8398C33.0965 32.8998 33.2531 34.377 33.2531 34.377L32.9777 36.3894Z" stroke="#666666" stroke-width="0.5" stroke-linecap="round" stroke-linejoin="round"/>
<path d="M32.4948 41.6493C32.6672 41.533 32.8784 41.4891 33.0828 41.5269C33.2872 41.5648 33.4686 41.6814 33.588 41.8517C33.7073 42.022 33.755 42.2323 33.7207 42.4374C33.6865 42.6425 33.5732 42.8259 33.405 42.9483L31.74 44.1147C31.74 44.1147 30.354 44.6547 30.1026 44.2947C29.8512 43.9347 30.8298 42.8169 30.8298 42.8169L32.4948 41.6493Z" stroke="#666666" stroke-width="0.5" stroke-linecap="round" stroke-linejoin="round"/>
<path d="M37.9608 30.4255C38.0118 30.3343 38.0802 30.2542 38.1622 30.1895C38.2442 30.1249 38.3382 30.0772 38.4387 30.049C38.5393 30.0208 38.6444 30.0127 38.748 30.0253C38.8517 30.0378 38.9518 30.0707 39.0427 30.1221C39.1336 30.1735 39.2135 30.2423 39.2777 30.3247C39.3419 30.407 39.3892 30.5012 39.4169 30.6018C39.4446 30.7025 39.4522 30.8077 39.4391 30.9113C39.426 31.0148 39.3927 31.1148 39.3408 31.2055L38.3424 32.9767C38.3424 32.9767 37.3224 34.0567 36.9426 33.8443C36.5628 33.6319 36.9606 32.1979 36.9606 32.1979L37.9608 30.4255Z" stroke="#666666" stroke-width="0.5" stroke-linecap="round" stroke-linejoin="round"/>
<path d="M32.4919 25.8071C32.4164 25.879 32.3275 25.9353 32.2303 25.9728C32.133 26.0103 32.0293 26.0282 31.9252 26.0257C31.821 26.0231 31.7183 26.0001 31.623 25.9578C31.5278 25.9156 31.4417 25.855 31.3699 25.7795C31.298 25.704 31.2417 25.6151 31.2042 25.5179C31.1667 25.4207 31.1487 25.317 31.1513 25.2128C31.1539 25.1086 31.1769 25.0059 31.2192 24.9107C31.2614 24.8154 31.322 24.7294 31.3975 24.6575L32.8687 23.2541C32.8687 23.2541 34.1581 22.5143 34.4605 22.8341C34.7629 23.1539 33.9631 24.4043 33.9631 24.4043L32.4919 25.8071Z" stroke="#666666" stroke-width="0.5" stroke-linecap="round" stroke-linejoin="round"/>
<path d="M29.0693 29.3191C29.2001 29.4813 29.2618 29.6884 29.2411 29.8957C29.2205 30.103 29.1191 30.2939 28.9589 30.427C28.7987 30.5602 28.5925 30.625 28.385 30.6074C28.1774 30.5899 27.985 30.4913 27.8495 30.3331L26.5499 28.7695C26.5499 28.7695 25.9001 27.4327 26.2367 27.1525C26.5733 26.8723 27.7691 27.7561 27.7691 27.7561L29.0693 29.3191Z" stroke="#666666" stroke-width="0.5" stroke-linecap="round" stroke-linejoin="round"/>
<path d="M29.7906 22.4614C29.7768 22.5661 29.7422 22.6669 29.6889 22.758C29.6356 22.8491 29.5647 22.9287 29.4803 22.992C29.3959 23.0554 29.2997 23.1012 29.1973 23.1269C29.095 23.1526 28.9885 23.1576 28.8842 23.1417C28.7798 23.1257 28.6798 23.0891 28.5898 23.0339C28.4998 22.9788 28.4217 22.9062 28.3601 22.8205C28.2985 22.7348 28.2546 22.6377 28.2311 22.5348C28.2075 22.432 28.2047 22.3254 28.2228 22.2214L28.53 20.2121C28.53 20.2121 29.0988 18.8386 29.532 18.9046C29.9652 18.9706 30.0978 20.4514 30.0978 20.4514L29.7906 22.4614Z" stroke="#666666" stroke-width="0.5" stroke-linecap="round" stroke-linejoin="round"/>
</svg>
