<svg width="17" height="16" viewBox="0 0 17 16" fill="none" xmlns="http://www.w3.org/2000/svg">
<path fill-rule="evenodd" clip-rule="evenodd" d="M14.0055 2C14.3708 2 14.6668 2.29667 14.6668 2.662V13.338C14.6643 13.7023 14.3698 13.9971 14.0055 14H1.99483C1.62948 13.9996 1.3335 13.7034 1.3335 13.338V2.662C1.33603 2.2977 1.63054 2.00291 1.99483 2H14.0055ZM13.3335 3.33333H2.66683V12.6667H13.3335V3.33333ZM12.0002 10V11.3333H4.00016V10H12.0002ZM8.00016 4.66667V8.66667H4.00016V4.66667H8.00016ZM12.0002 7.33333V8.66667H9.3335V7.33333H12.0002ZM6.66683 6H5.3335V7.33333H6.66683V6ZM12.0002 4.66667V6H9.3335V4.66667H12.0002Z" fill="#095D55"/>
</svg>
