<svg width="16" height="16" viewBox="0 0 16 16" fill="none" xmlns="http://www.w3.org/2000/svg">
<g clip-path="url(#clip0_7720_38691)">
<path d="M2.66667 1.33398H13.3333C13.7015 1.33398 14 1.63246 14 2.00065V14.0006C14 14.3688 13.7015 14.6673 13.3333 14.6673H2.66667C2.29848 14.6673 2 14.3688 2 14.0006V2.00065C2 1.63246 2.29848 1.33398 2.66667 1.33398ZM3.33333 2.66732V13.334H12.6667V2.66732H3.33333ZM4.66667 4.00065H11.3333V6.66732H4.66667V4.00065ZM4.66667 8.00065H6V9.33398H4.66667V8.00065ZM4.66667 10.6673H6V12.0006H4.66667V10.6673ZM7.33333 8.00065H8.66667V9.33398H7.33333V8.00065ZM7.33333 10.6673H8.66667V12.0006H7.33333V10.6673ZM10 8.00065H11.3333V12.0006H10V8.00065Z" fill="#038278"/>
</g>
<defs>
<clipPath id="clip0_7720_38691">
<rect width="16" height="16" fill="white"/>
</clipPath>
</defs>
</svg>
