<svg width="16" height="16" viewBox="0 0 16 16" fill="none" xmlns="http://www.w3.org/2000/svg">
<g clip-path="url(#clip0_3088_6961)">
<path d="M2.66667 1.33337H13.3333C13.7015 1.33337 14 1.63185 14 2.00004V14C14 14.3682 13.7015 14.6667 13.3333 14.6667H2.66667C2.29848 14.6667 2 14.3682 2 14V2.00004C2 1.63185 2.29848 1.33337 2.66667 1.33337ZM3.33333 2.66671V13.3334H12.6667V2.66671H3.33333ZM4.66667 4.00004H11.3333V6.66671H4.66667V4.00004ZM4.66667 8.00004H6V9.33337H4.66667V8.00004ZM4.66667 10.6667H6V12H4.66667V10.6667ZM7.33333 8.00004H8.66667V9.33337H7.33333V8.00004ZM7.33333 10.6667H8.66667V12H7.33333V10.6667ZM10 8.00004H11.3333V12H10V8.00004Z" fill="#0063CB"/>
</g>
<defs>
<clipPath id="clip0_3088_6961">
<rect width="16" height="16" fill="white"/>
</clipPath>
</defs>
</svg>
