<svg width="12" height="12" viewBox="0 0 12 12" fill="none" xmlns="http://www.w3.org/2000/svg">
<path d="M6.75 0.75V5.25H11.25C11.25 4.05653 10.7759 2.91193 9.93198 2.06802C9.08807 1.22411 7.94347 0.75 6.75 0.75Z" stroke="#161616" stroke-linecap="round" stroke-linejoin="round"/>
<path d="M5.25 2.25C4.35999 2.25 3.48996 2.51392 2.74994 3.00839C2.00991 3.50285 1.43314 4.20566 1.09254 5.02792C0.75195 5.85019 0.662835 6.75499 0.836468 7.62791C1.0101 8.50082 1.43869 9.30264 2.06802 9.93198C2.69736 10.5613 3.49918 10.9899 4.3721 11.1635C5.24501 11.3372 6.14981 11.2481 6.97208 10.9075C7.79434 10.5669 8.49715 9.99009 8.99162 9.25007C9.48608 8.51005 9.75 7.64002 9.75 6.75H5.25V2.25Z" stroke="#161616" stroke-linecap="round" stroke-linejoin="round"/>
</svg>
