<svg width="12" height="12" viewBox="0 0 12 12" fill="none" xmlns="http://www.w3.org/2000/svg">
<g clip-path="url(#clip0_3639_14346)">
<path d="M1 2.5L4.5 1L7.5 2.5L10.6515 1.14935C10.7784 1.09496 10.9254 1.15375 10.9798 1.28065C10.9931 1.31177 11 1.34528 11 1.37913V9.5L7.5 11L4.5 9.5L1.34848 10.8506C1.22157 10.905 1.07461 10.8462 1.02022 10.7193C1.00688 10.6882 1 10.6547 1 10.6208V2.5ZM8 9.69775L10 8.8406V2.51654L8 3.37368V9.69775ZM7 9.63195V3.36803L5 2.36803V8.63195L7 9.63195ZM4 8.6263V2.30225L2 3.15939V9.48345L4 8.6263Z" fill="white"/>
</g>
<defs>
<clipPath id="clip0_3639_14346">
<rect width="12" height="12" fill="white"/>
</clipPath>
</defs>
</svg>
