<svg width="18" height="24" viewBox="0 0 18 24" fill="none" xmlns="http://www.w3.org/2000/svg">
<path d="M2.65065 3.89616V15.0491C1.06765 16.4883 0.911748 18.2871 1.03167 19.0066C1.31949 22.0287 4.14971 22.7842 5.52884 22.7842C8.0479 22.7842 9.3964 20.2658 9.48634 19.0066C9.63025 16.9918 8.46698 15.5288 7.86736 15.0491V3.89616C7.86736 1.59361 5.94857 1.1379 4.98918 1.19786C3.26227 1.19786 2.71061 2.99673 2.65065 3.89616Z" stroke="black" stroke-width="0.8"/>
<path d="M4.27023 6.05471L4.26942 16.1284C2.83032 16.5601 2.77117 17.9872 2.83114 18.6468C2.97505 20.5176 4.57004 20.8654 5.34955 20.8054C7.07646 20.5176 7.50819 19.2464 7.50819 18.6468C7.6521 16.9199 6.66804 16.2483 6.06842 16.1284L6.06909 6.05471C6.06909 5.33516 5.46947 5.15527 5.16966 5.15527C4.45011 5.15527 4.27023 5.7549 4.27023 6.05471Z" fill="black"/>
<path d="M12.3608 1.95369C11.9981 1.95369 11.8618 2.86044 12.1341 3.3138C12.6786 4.22054 12.2094 5.50511 11.9067 6.03405C11.2582 7.16748 11 8.5276 11 9.20765C11 10.1144 11.4534 11.2478 11.9067 11.7012C12.3601 12.1546 12.8135 12.2301 13.0402 12.1546C13.4029 11.9732 13.3424 11.4745 13.2669 11.2478C13.1287 10.8333 12.8849 10.6144 12.8135 10.1144C12.6321 8.84496 13.3424 7.46973 13.7202 6.94079C14.627 5.49 14.098 3.76718 13.7202 3.08712C13.1762 1.99903 12.5872 1.87813 12.3608 1.95369Z" fill="black"/>
<path d="M15.7623 1.93513C15.3996 1.93513 15.2633 2.84189 15.5356 3.29525C16.0801 4.20199 15.6109 5.48655 15.3082 6.01549C14.6596 7.14892 14.4015 8.50904 14.4015 9.1891C14.4015 10.0958 14.8549 11.2293 15.3082 11.6826C15.7616 12.136 16.215 12.2116 16.4417 12.136C16.8044 11.9547 16.7439 11.456 16.6683 11.2293C16.5302 10.8148 16.2864 10.5959 16.215 10.0958C16.0336 8.8264 16.7439 7.45117 17.1217 6.92224C18.0285 5.47145 17.4995 3.74863 17.1217 3.06856C16.5777 1.98047 15.9887 1.85957 15.7623 1.93513Z" fill="black"/>
</svg>
