<svg width="25" height="24" viewBox="0 0 25 24" fill="none" xmlns="http://www.w3.org/2000/svg">
<path d="M23.5391 11.99L21.0991 9.2L21.4391 5.51L17.8291 4.69L15.9391 1.5L12.5391 2.96L9.13906 1.5L7.24906 4.69L3.63906 5.5L3.97906 9.2L1.53906 11.99L3.97906 14.78L3.63906 18.48L7.24906 19.3L9.13906 22.5L12.5391 21.03L15.9391 22.49L17.8291 19.3L21.4391 18.48L21.0991 14.79L23.5391 11.99ZM19.5891 13.47L19.0291 14.12L19.1091 14.97L19.2891 16.92L16.5491 17.54L16.1091 18.28L15.1191 19.96L13.3391 19.19L12.5391 18.85L11.7491 19.19L9.96906 19.96L8.97906 18.29L8.53906 17.55L5.79906 16.93L5.97906 14.97L6.05906 14.12L5.49906 13.47L4.20906 12L5.49906 10.52L6.05906 9.87L5.96906 9.01L5.78906 7.07L8.52906 6.45L8.96906 5.71L9.95906 4.03L11.7391 4.8L12.5391 5.14L13.3291 4.8L15.1091 4.03L16.0991 5.71L16.5391 6.45L19.2791 7.07L19.0991 9.02L19.0191 9.87L19.5791 10.52L20.8691 11.99L19.5891 13.47Z" fill="black"/>
<path d="M10.6291 13.75L8.30906 11.42L6.82906 12.91L10.6291 16.72L17.9691 9.36L16.4891 7.87L10.6291 13.75Z" fill="black"/>
</svg>
