<svg width="25" height="24" viewBox="0 0 25 24" fill="none" xmlns="http://www.w3.org/2000/svg">
<path d="M19.9718 12.98C20.0118 12.66 20.0418 12.34 20.0418 12C20.0418 11.66 20.0118 11.34 19.9718 11.02L22.0818 9.37C22.2718 9.22 22.3218 8.95 22.2018 8.73L20.2018 5.27C20.1118 5.11 19.9418 5.02 19.7618 5.02C19.7018 5.02 19.6418 5.03 19.5918 5.05L17.1018 6.05C16.5818 5.65 16.0218 5.32 15.4118 5.07L15.0318 2.42C15.0018 2.18 14.7918 2 14.5418 2H10.5418C10.2918 2 10.0818 2.18 10.0518 2.42L9.67183 5.07C9.06183 5.32 8.50183 5.66 7.98183 6.05L5.49183 5.05C5.43183 5.03 5.37183 5.02 5.31183 5.02C5.14183 5.02 4.97183 5.11 4.88183 5.27L2.88183 8.73C2.75183 8.95 2.81183 9.22 3.00183 9.37L5.11183 11.02C5.07183 11.34 5.04183 11.67 5.04183 12C5.04183 12.33 5.07183 12.66 5.11183 12.98L3.00183 14.63C2.81183 14.78 2.76183 15.05 2.88183 15.27L4.88183 18.73C4.97183 18.89 5.14183 18.98 5.32183 18.98C5.38183 18.98 5.44183 18.97 5.49183 18.95L7.98183 17.95C8.50183 18.35 9.06183 18.68 9.67183 18.93L10.0518 21.58C10.0818 21.82 10.2918 22 10.5418 22H14.5418C14.7918 22 15.0018 21.82 15.0318 21.58L15.4118 18.93C16.0218 18.68 16.5818 18.34 17.1018 17.95L19.5918 18.95C19.6518 18.97 19.7118 18.98 19.7718 18.98C19.9418 18.98 20.1118 18.89 20.2018 18.73L22.2018 15.27C22.3218 15.05 22.2718 14.78 22.0818 14.63L19.9718 12.98ZM17.9918 11.27C18.0318 11.58 18.0418 11.79 18.0418 12C18.0418 12.21 18.0218 12.43 17.9918 12.73L17.8518 13.86L18.7418 14.56L19.8218 15.4L19.1218 16.61L17.8518 16.1L16.8118 15.68L15.9118 16.36C15.4818 16.68 15.0718 16.92 14.6618 17.09L13.6018 17.52L13.4418 18.65L13.2418 20H11.8418L11.4918 17.52L10.4318 17.09C10.0018 16.91 9.60183 16.68 9.20183 16.38L8.29183 15.68L7.23183 16.11L5.96183 16.62L5.26183 15.41L6.34183 14.57L7.23183 13.87L7.09183 12.74C7.06183 12.43 7.04183 12.2 7.04183 12C7.04183 11.8 7.06183 11.57 7.09183 11.27L7.23183 10.14L6.34183 9.44L5.26183 8.6L5.96183 7.39L7.23183 7.9L8.27183 8.32L9.17183 7.64C9.60183 7.32 10.0118 7.08 10.4218 6.91L11.4818 6.48L11.6418 5.35L11.8418 4H13.2318L13.5818 6.48L14.6418 6.91C15.0718 7.09 15.4718 7.32 15.8718 7.62L16.7818 8.32L17.8418 7.89L19.1118 7.38L19.8118 8.59L18.7418 9.44L17.8518 10.14L17.9918 11.27ZM12.5418 8C10.3318 8 8.54183 9.79 8.54183 12C8.54183 14.21 10.3318 16 12.5418 16C14.7518 16 16.5418 14.21 16.5418 12C16.5418 9.79 14.7518 8 12.5418 8ZM12.5418 14C11.4418 14 10.5418 13.1 10.5418 12C10.5418 10.9 11.4418 10 12.5418 10C13.6418 10 14.5418 10.9 14.5418 12C14.5418 13.1 13.6418 14 12.5418 14Z" fill="black"/>
</svg>
