<svg width="24" height="24" viewBox="0 0 24 24" fill="none" xmlns="http://www.w3.org/2000/svg">
<g opacity="0.8">
<path d="M4.88372 20.9999C5.92407 20.9999 6.76744 20.1565 6.76744 19.1161C6.76744 18.0758 5.92407 17.2324 4.88372 17.2324C3.84337 17.2324 3 18.0758 3 19.1161C3 20.1565 3.84337 20.9999 4.88372 20.9999Z" stroke="black" stroke-width="1.5" stroke-linecap="round" stroke-linejoin="round"/>
<path d="M6.28937 17.8622L8.02239 16.6047" stroke="black" stroke-width="1.5" stroke-linecap="round" stroke-linejoin="round"/>
<path d="M4.88372 6.76744C5.92407 6.76744 6.76744 5.92407 6.76744 4.88372C6.76744 3.84337 5.92407 3 4.88372 3C3.84337 3 3 3.84337 3 4.88372C3 5.92407 3.84337 6.76744 4.88372 6.76744Z" stroke="black" stroke-width="1.5" stroke-linecap="round" stroke-linejoin="round"/>
<path d="M6.28937 6.13867L8.02239 7.39532" stroke="black" stroke-width="1.5" stroke-linecap="round" stroke-linejoin="round"/>
<path d="M19.1163 20.9999C20.1566 20.9999 21 20.1565 21 19.1161C21 18.0758 20.1566 17.2324 19.1163 17.2324C18.0759 17.2324 17.2325 18.0758 17.2325 19.1161C17.2325 20.1565 18.0759 20.9999 19.1163 20.9999Z" stroke="black" stroke-width="1.5" stroke-linecap="round" stroke-linejoin="round"/>
<path d="M17.7114 17.8622L15.9784 16.6047" stroke="black" stroke-width="1.5" stroke-linecap="round" stroke-linejoin="round"/>
<path d="M19.1163 6.76744C20.1566 6.76744 21 5.92407 21 4.88372C21 3.84337 20.1566 3 19.1163 3C18.0759 3 17.2325 3.84337 17.2325 4.88372C17.2325 5.92407 18.0759 6.76744 19.1163 6.76744Z" stroke="black" stroke-width="1.5" stroke-linecap="round" stroke-linejoin="round"/>
<path d="M12 15.7673C14.0807 15.7673 15.7674 14.0806 15.7674 11.9999C15.7674 9.91916 14.0807 8.23242 12 8.23242C9.91929 8.23242 8.23254 9.91916 8.23254 11.9999C8.23254 14.0806 9.91929 15.7673 12 15.7673Z" stroke="black" stroke-width="1.5" stroke-linecap="round" stroke-linejoin="round"/>
<path d="M17.7115 6.13867L15.9785 7.39532" stroke="black" stroke-width="1.5" stroke-linecap="round" stroke-linejoin="round"/>
</g>
</svg>
