<svg width="12" height="12" viewBox="0 0 12 12" fill="none" xmlns="http://www.w3.org/2000/svg">
<g clip-path="url(#clip0_973_2247)">
<g clip-path="url(#clip1_973_2247)">
<path d="M0.375 5.87622H2.125C2.2731 5.87626 2.41789 5.83246 2.54113 5.75033C2.66437 5.6682 2.76053 5.55142 2.8175 5.41472L4.1175 2.35722C4.14719 2.28736 4.19739 2.22816 4.26145 2.18744C4.32551 2.14671 4.40042 2.12639 4.47627 2.12915C4.55213 2.13192 4.62536 2.15764 4.68629 2.20291C4.74722 2.24819 4.79297 2.31089 4.8175 2.38272L7.1845 9.74522C7.20903 9.81706 7.25478 9.87976 7.31571 9.92503C7.37664 9.97031 7.44987 9.99602 7.52573 9.99879C7.60158 10.0016 7.67649 9.98123 7.74055 9.94051C7.80461 9.89979 7.85481 9.84058 7.8845 9.77072L9.182 6.33772C9.23897 6.20102 9.33513 6.08424 9.45837 6.00211C9.58161 5.91999 9.7264 5.87618 9.8745 5.87622H11.6245" stroke="#038278" stroke-linecap="round" stroke-linejoin="round"/>
</g>
</g>
<defs>
<clipPath id="clip0_973_2247">
<rect width="12" height="12" fill="white"/>
</clipPath>
<clipPath id="clip1_973_2247">
<rect width="12" height="12" fill="white"/>
</clipPath>
</defs>
</svg>
