<svg width="12" height="12" viewBox="0 0 12 12" fill="none" xmlns="http://www.w3.org/2000/svg">
<g clip-path="url(#clip0_3639_13740)">
<g clip-path="url(#clip1_3639_13740)">
<path d="M0.375 5.87427H2.125C2.2731 5.87431 2.41789 5.8305 2.54113 5.74838C2.66437 5.66625 2.76053 5.54947 2.8175 5.41277L4.1175 2.35527C4.14719 2.28541 4.19739 2.2262 4.26145 2.18548C4.32551 2.14476 4.40042 2.12444 4.47627 2.1272C4.55213 2.12997 4.62536 2.15568 4.68629 2.20096C4.74722 2.24623 4.79297 2.30893 4.8175 2.38077L7.1845 9.74327C7.20903 9.8151 7.25478 9.8778 7.31571 9.92308C7.37664 9.96835 7.44987 9.99407 7.52573 9.99684C7.60158 9.9996 7.67649 9.97928 7.74055 9.93855C7.80461 9.89783 7.85481 9.83863 7.8845 9.76877L9.182 6.33577C9.23897 6.19907 9.33513 6.08229 9.45837 6.00016C9.58161 5.91803 9.7264 5.87423 9.8745 5.87427H11.6245" stroke="#161616" stroke-linecap="round" stroke-linejoin="round"/>
</g>
</g>
<defs>
<clipPath id="clip0_3639_13740">
<rect width="12" height="12" fill="white"/>
</clipPath>
<clipPath id="clip1_3639_13740">
<rect width="12" height="12" fill="white"/>
</clipPath>
</defs>
</svg>
