<svg width="14" height="14" viewBox="0 0 14 14" fill="none" xmlns="http://www.w3.org/2000/svg">
<path d="M6.83076 3.01514L6.42822 2.6126L6.83076 2.21006L7.2333 2.6126L6.83076 3.01514ZM7.40004 8.13863C7.40004 8.45303 7.14516 8.70791 6.83076 8.70791C6.51636 8.70791 6.26148 8.45303 6.26148 8.13863L7.40004 8.13863ZM3.98438 5.86152L3.58184 5.45898L6.42822 2.6126L6.83076 3.01514L7.2333 3.41768L4.38691 6.26406L3.98438 5.86152ZM6.83076 3.01514L7.2333 2.6126L10.0797 5.45898L9.67715 5.86152L9.27461 6.26406L6.42822 3.41768L6.83076 3.01514ZM6.83076 3.01514L7.40004 3.01514L7.40004 8.13863L6.83076 8.13863L6.26148 8.13863L6.26148 3.01514L6.83076 3.01514Z" fill="white"/>
<path d="M2.84375 9.27686L2.84375 9.84613C2.84375 10.4749 3.3535 10.9847 3.9823 10.9847L9.67508 10.9847C10.3039 10.9847 10.8136 10.4749 10.8136 9.84613V9.27686" stroke="white" stroke-width="1.13855"/>
</svg>
