<svg width="19" height="22" viewBox="0 0 19 22" fill="none" xmlns="http://www.w3.org/2000/svg">
<path d="M3.57564 21C3.22907 21 2.89198 20.8661 2.62611 20.6078C1.6481 19.6586 0.919334 18.5443 0.51341 17.3869C-0.410008 14.7447 -0.0895417 12.2913 1.48905 9.88821C1.66234 9.62518 1.97806 9.51758 2.27716 9.6204C2.57626 9.72561 2.75905 10.0054 2.73294 10.321C2.6997 10.7203 2.66884 11.0958 2.70208 11.4425C2.77329 12.1957 3.30028 12.7194 4.0148 12.7504C4.29966 12.7648 5.23732 12.717 5.35127 11.6505C5.44622 10.7514 5.35126 9.85951 5.08777 9.14216C3.1175 3.77397 6.55242 1.0289 8.11915 0.0963439C8.36365 -0.0495178 8.66512 -0.0279973 8.88589 0.14895C9.10903 0.325897 9.19686 0.61762 9.1114 0.890214C8.42299 3.09727 9.54344 4.80696 10.8585 6.51187C11.3309 7.12401 11.7891 7.73854 12.271 8.38416C12.4181 6.34449 13.0163 5.43106 14.0418 4.53915C14.246 4.3622 14.5356 4.32155 14.7777 4.43872C15.0222 4.55589 15.1742 4.80935 15.167 5.08194C15.1219 6.47839 15.9219 7.54246 16.767 8.66871C16.9094 8.85761 17.0518 9.04651 17.1895 9.23781C19.6251 12.5998 19.6013 16.7413 17.1302 19.7877C16.748 20.2587 16.1332 20.4237 15.5682 20.2061C15.0246 19.9981 14.6875 19.4864 14.7113 18.9053C14.7136 18.8432 14.716 18.7834 14.716 18.7212C14.716 16.1794 12.5107 14.1086 9.80219 14.1086C7.09365 14.1086 4.88837 16.177 4.88837 18.7212C4.88837 18.9555 4.90736 19.1899 4.94534 19.4194C5.04029 20.0005 4.76018 20.5552 4.23557 20.8326C4.0243 20.9426 3.80116 20.9976 3.58039 20.9976L3.57564 21ZM1.74305 11.3444C0.817259 13.1856 0.710437 15.0675 1.40834 17.0713C1.76442 18.0899 2.41247 19.0751 3.28366 19.9216C3.44746 20.0818 3.65161 20.0603 3.78929 19.9885C3.86762 19.9479 4.04329 19.8259 4.00293 19.5749C3.95783 19.2951 3.93409 19.0082 3.93409 18.7236C3.93409 15.6533 6.56429 13.1546 9.79744 13.1546C13.0306 13.1546 15.6608 15.6533 15.6608 18.7236C15.6608 18.7977 15.6608 18.8719 15.656 18.9484C15.6465 19.1899 15.8246 19.2855 15.9029 19.3166C16.0453 19.3716 16.2471 19.3644 16.3919 19.1875C18.583 16.4879 18.5925 12.8054 16.4204 9.80691C16.2851 9.6204 16.1474 9.43628 16.0074 9.24976C15.2098 8.18808 14.3884 7.09531 14.2365 5.66778C13.5766 6.36601 13.1469 7.3153 13.1849 9.76865C13.1873 9.97668 13.0591 10.1608 12.8644 10.2278C12.6698 10.2947 12.4561 10.2278 12.3303 10.0628C12.0787 9.728 11.8342 9.40041 11.5944 9.07999C11.0817 8.39372 10.5998 7.74571 10.1037 7.10249C8.8123 5.42867 7.6064 3.60659 8.03131 1.29193C6.4005 2.45643 4.49194 4.77348 5.97558 8.81218C6.37676 9.90734 6.36964 11.0145 6.2913 11.7533C6.16311 12.9728 5.23257 13.7571 3.97207 13.7069C2.78279 13.6591 1.86886 12.7648 1.75255 11.5357C1.7478 11.4712 1.74305 11.409 1.7383 11.3444H1.74305Z" fill="black"/>
<path d="M8.03796 17.9985C7.88055 17.9985 7.72129 17.9692 7.57129 17.9092L7.54351 17.8975C7.30277 17.7994 7.12499 17.6324 7.04536 17.4289C6.96573 17.2268 6.99165 17.0115 7.11758 16.8255L8.06388 15.4226C8.32315 15.0374 8.93426 14.888 9.42686 15.0901L9.45464 15.1018C9.69723 15.2 9.87316 15.3669 9.95464 15.5705C10.0343 15.7726 10.0083 15.9878 9.88242 16.1738L8.93612 17.5768C8.75463 17.8448 8.40278 18 8.03796 18V17.9985Z" fill="black"/>
<path d="M9.01209 20.9983C8.99579 20.9983 8.98131 20.9983 8.96501 20.9983L6.94446 20.9096C6.67831 20.8974 6.43389 20.7879 6.25465 20.6002C6.07902 20.4142 5.9885 20.1761 6.00117 19.9258V19.8962C6.02652 19.3782 6.4882 18.9767 7.03499 19.0011L9.05554 19.0897C9.32169 19.1019 9.56611 19.2114 9.74535 19.3991C9.92098 19.5851 10.0115 19.8232 9.99883 20.0735V20.1031C9.97167 20.6072 9.53352 21 9.00847 21L9.01209 20.9983Z" fill="black"/>
<path d="M13.0184 20.998C12.7137 20.998 12.4142 20.8307 12.2285 20.5208L11.169 18.7486C11.0236 18.5059 10.9694 18.2122 11.0166 17.9206C11.0639 17.629 11.2058 17.3761 11.4194 17.2089L11.444 17.1905C11.8783 16.85 12.4737 16.9785 12.7715 17.476L13.831 19.2482C13.9764 19.4909 14.0306 19.7846 13.9834 20.0762C13.9361 20.3678 13.7942 20.6207 13.5823 20.7879L13.5578 20.8083C13.3932 20.9368 13.2058 21 13.0201 21L13.0184 20.998Z" fill="black"/>
</svg>
