<svg width="100" height="100" viewBox="0 0 100 100" fill="none" xmlns="http://www.w3.org/2000/svg">
<path d="M57.2509 26.651C57.3319 26.6681 57.4078 26.7037 57.4727 26.7551C57.5376 26.8065 57.5897 26.8722 57.625 26.947C57.6602 27.0219 57.6777 27.1039 57.6759 27.1867C57.6742 27.2694 57.6533 27.3507 57.6149 27.424L54.2999 33.781C54.2448 33.8874 54.1557 33.9723 54.0467 34.0221C53.9378 34.0719 53.8153 34.0837 53.6988 34.0558C53.5823 34.0278 53.4785 33.9616 53.404 33.8677C53.3296 33.7739 53.2887 33.6578 53.2879 33.538L53.2229 26.462C53.2222 26.3817 53.2395 26.3022 53.2736 26.2295C53.3077 26.1568 53.3577 26.0927 53.4199 26.0419C53.4821 25.9911 53.555 25.955 53.633 25.9361C53.7111 25.9173 53.7924 25.9162 53.8709 25.933L57.2509 26.651Z" stroke="#33AB9F" stroke-linecap="round" stroke-linejoin="round"/>
<path d="M67.7799 33.324C67.8339 33.3865 67.8727 33.4607 67.8932 33.5407C67.9137 33.6207 67.9154 33.7044 67.8981 33.7852C67.8809 33.866 67.8452 33.9417 67.7938 34.0064C67.7424 34.071 67.6767 34.1229 67.6019 34.158L61.1179 37.217C61.0097 37.2686 60.8872 37.2824 60.7702 37.2562C60.6531 37.23 60.5483 37.1653 60.4724 37.0724C60.3964 36.9796 60.3539 36.8639 60.3514 36.744C60.349 36.6241 60.3868 36.5068 60.4589 36.411L64.6879 30.737C64.7359 30.6726 64.7978 30.6199 64.869 30.5826C64.9401 30.5454 65.0187 30.5246 65.099 30.5218C65.1792 30.519 65.2591 30.5343 65.3326 30.5665C65.4062 30.5988 65.4716 30.6471 65.5239 30.708L67.7799 33.324Z" stroke="#33AB9F" stroke-linecap="round" stroke-linejoin="round"/>
<path d="M42.7491 26.651C42.6681 26.6681 42.5922 26.7037 42.5273 26.7551C42.4624 26.8065 42.4103 26.8722 42.375 26.947C42.3398 27.0219 42.3223 27.1039 42.3241 27.1867C42.3258 27.2694 42.3467 27.3507 42.3851 27.424L45.7001 33.781C45.7552 33.8874 45.8443 33.9723 45.9533 34.0221C46.0623 34.0719 46.1848 34.0837 46.3013 34.0558C46.4178 34.0278 46.5215 33.9616 46.596 33.8677C46.6705 33.7739 46.7114 33.6578 46.7121 33.538L46.7771 26.462C46.7778 26.3817 46.7605 26.3022 46.7264 26.2295C46.6923 26.1568 46.6423 26.0927 46.5801 26.0419C46.5179 25.9911 46.4451 25.955 46.367 25.9361C46.2889 25.9173 46.2076 25.9162 46.1291 25.933L42.7491 26.651Z" stroke="#33AB9F" stroke-linecap="round" stroke-linejoin="round"/>
<path d="M32.2201 33.324C32.1661 33.3865 32.1273 33.4607 32.1068 33.5407C32.0863 33.6207 32.0846 33.7044 32.1019 33.7852C32.1191 33.866 32.1548 33.9417 32.2062 34.0064C32.2576 34.071 32.3233 34.1229 32.3981 34.158L38.8821 37.217C38.9903 37.2686 39.1128 37.2824 39.2298 37.2562C39.3469 37.23 39.4517 37.1653 39.5276 37.0724C39.6036 36.9796 39.6461 36.8639 39.6486 36.744C39.651 36.6241 39.6132 36.5068 39.5411 36.411L35.3121 30.737C35.2641 30.6726 35.2022 30.6199 35.131 30.5826C35.0599 30.5454 34.9813 30.5246 34.901 30.5218C34.8208 30.519 34.7409 30.5343 34.6674 30.5665C34.5938 30.5988 34.5284 30.6471 34.4761 30.708L32.2201 33.324Z" stroke="#33AB9F" stroke-linecap="round" stroke-linejoin="round"/>
<path d="M86.6851 39.4349L82.0391 42.1179C81.7928 42.2602 81.613 42.4944 81.5393 42.7691C81.4656 43.0438 81.504 43.3365 81.6461 43.5829L88.8881 56.1279C89.0305 56.3743 89.2649 56.5541 89.5397 56.6277C89.8146 56.7014 90.1075 56.663 90.354 56.5209L95.0001 53.8379" stroke="#33AB9F" stroke-linecap="round" stroke-linejoin="round"/>
<path d="M88.8882 56.1279L87.0301 57.1999C86.9081 57.2704 86.7733 57.3161 86.6336 57.3345C86.4939 57.3529 86.3519 57.3436 86.2157 57.3071C86.0796 57.2706 85.952 57.2076 85.8402 57.1218C85.7284 57.036 85.6346 56.929 85.5642 56.8069L79.4002 46.1219C79.3297 45.9998 79.2839 45.8651 79.2655 45.7253C79.2471 45.5856 79.2564 45.4436 79.2929 45.3075C79.3294 45.1713 79.3924 45.0437 79.4782 44.9319C79.5641 44.8201 79.6711 44.7263 79.7932 44.6559L81.6512 43.5829L88.8882 56.1279Z" stroke="#33AB9F" stroke-linecap="round" stroke-linejoin="round"/>
<path d="M70.1421 69.7999L72.4651 68.4599C75.8309 66.5158 78.7301 63.8582 80.9591 60.6739L81.8381 59.4179C82.3839 58.637 83.0946 57.9857 83.9201 57.5099L85.4551 56.6239L79.2851 45.9379L77.3081 47.0799C76.4811 47.556 75.5193 47.7435 74.5741 47.6129L62.4061 44.6859C62.1339 44.613 61.8499 44.5945 61.5705 44.6313C61.2911 44.6682 61.0217 44.7597 60.7777 44.9006C60.5337 45.0416 60.3198 45.2293 60.1483 45.4529C59.9768 45.6765 59.851 45.9317 59.7781 46.2039C59.7052 46.4762 59.6867 46.7601 59.7235 47.0395C59.7603 47.3189 59.8518 47.5883 59.9928 47.8323C60.1338 48.0763 60.3214 48.2902 60.545 48.4617C60.7686 48.6332 61.0239 48.759 61.2961 48.8319L66.0261 50.0989C66.115 50.1229 66.1963 50.1694 66.2621 50.2338C66.328 50.2983 66.3762 50.3785 66.4021 50.4669C66.4551 50.6489 66.3441 50.8029 66.2811 50.9809C65.7224 52.2654 64.6996 53.2917 63.4171 53.8549L61.5581 54.9269" stroke="#33AB9F" stroke-linecap="round" stroke-linejoin="round"/>
<path d="M70.1421 69.7999L72.4651 68.4599C75.8309 66.5158 78.7301 63.8582 80.9591 60.6739L81.8381 59.4179C82.3839 58.637 83.0946 57.9857 83.9201 57.5099L85.4551 56.6239L79.2851 45.9379L77.3081 47.0799C76.4811 47.556 75.5193 47.7435 74.5741 47.6129L62.4061 44.6859C62.1339 44.613 61.8499 44.5945 61.5705 44.6313C61.2911 44.6682 61.0217 44.7597 60.7777 44.9006C60.5337 45.0416 60.3198 45.2293 60.1483 45.4529C59.9768 45.6765 59.851 45.9317 59.7781 46.2039C59.7052 46.4762 59.6867 46.7601 59.7235 47.0395C59.7603 47.3189 59.8518 47.5883 59.9928 47.8323C60.1338 48.0763 60.3214 48.2902 60.545 48.4617C60.7686 48.6332 61.0239 48.759 61.2961 48.8319L66.0261 50.0989C66.115 50.1229 66.1963 50.1694 66.2621 50.2338C66.328 50.2983 66.3762 50.3785 66.4021 50.4669C66.4551 50.6489 66.3441 50.8029 66.2811 50.9809C65.7224 52.2654 64.6996 53.2917 63.4171 53.8549L61.5581 54.9269" stroke="#33AB9F" stroke-linecap="round" stroke-linejoin="round"/>
<path d="M71.9999 68.722L63.6359 73.551C63.3918 73.6918 63.1223 73.7832 62.8429 73.8199C62.5634 73.8566 62.2795 73.8379 62.0073 73.7649C61.7351 73.6918 61.4799 73.5659 61.2564 73.3943C61.0328 73.2226 60.8453 73.0086 60.7044 72.7645C60.5636 72.5204 60.4722 72.2509 60.4355 71.9714C60.3988 71.692 60.4175 71.4081 60.4905 71.1358C60.5636 70.8636 60.6895 70.6085 60.8612 70.3849C61.0328 70.1614 61.2468 69.9738 61.4909 69.833L69.8539 65.006" stroke="#33AB9F" stroke-linecap="round" stroke-linejoin="round"/>
<path d="M65.459 57.632L54.877 63.742C54.6329 63.8829 54.3635 63.9743 54.0841 64.0111C53.8047 64.0479 53.5208 64.0293 53.2485 63.9564C52.9763 63.8834 52.7211 63.7576 52.4976 63.586C52.274 63.4145 52.0864 63.2005 51.9455 62.9565C51.8046 62.7124 51.7131 62.443 51.6763 62.1636C51.6395 61.8842 51.6581 61.6003 51.7311 61.328C51.804 61.0558 51.9299 60.8006 52.1014 60.5771C52.273 60.3535 52.4869 60.1659 52.731 60.025L63.417 53.855" stroke="#33AB9F" stroke-linecap="round" stroke-linejoin="round"/>
<path d="M70.067 64.8829L57.775 71.9829C57.5308 72.1306 57.2595 72.228 56.9771 72.2695C56.6947 72.311 56.4069 72.2957 56.1305 72.2247C55.8541 72.1536 55.5946 72.028 55.3673 71.8554C55.14 71.6829 54.9494 71.4667 54.8067 71.2195C54.6639 70.9723 54.5719 70.6992 54.5361 70.416C54.5002 70.1329 54.5212 69.8455 54.5977 69.5705C54.6743 69.2956 54.805 69.0386 54.982 68.8148C55.1591 68.591 55.3791 68.4047 55.629 68.2669L67.244 61.5599" stroke="#33AB9F" stroke-linecap="round" stroke-linejoin="round"/>
<path d="M67.2441 61.5559L54.2351 69.0679C53.742 69.3525 53.1561 69.4295 52.6063 69.2821C52.0564 69.1347 51.5876 68.7749 51.3031 68.2819C51.0185 67.7889 50.9414 67.203 51.0888 66.6531C51.2362 66.1033 51.596 65.6345 52.0891 65.3499L65.4261 57.6499" stroke="#33AB9F" stroke-linecap="round" stroke-linejoin="round"/>
<path d="M70.9681 65.6C69.3159 64.4156 67.9515 62.8745 66.9761 61.091C66.0355 59.5204 65.4061 57.7835 65.1221 55.975" stroke="#33AB9F" stroke-linecap="round" stroke-linejoin="round"/>
<path d="M13.315 39.4349L17.961 42.1179C18.0831 42.1883 18.19 42.282 18.2759 42.3937C18.3617 42.5054 18.4246 42.6329 18.4611 42.769C18.4976 42.905 18.507 43.047 18.4886 43.1866C18.4702 43.3263 18.4245 43.461 18.354 43.5829L11.112 56.1279C10.9696 56.3743 10.7352 56.5541 10.4603 56.6277C10.1854 56.7014 9.89257 56.663 9.646 56.5209L5 53.8379" stroke="#33AB9F" stroke-linecap="round" stroke-linejoin="round"/>
<path d="M13.315 39.4349L17.961 42.1179C18.0831 42.1883 18.19 42.282 18.2759 42.3937C18.3617 42.5054 18.4246 42.6329 18.4611 42.769C18.4976 42.905 18.507 43.047 18.4886 43.1866C18.4702 43.3263 18.4245 43.461 18.354 43.5829L11.112 56.1279C10.9696 56.3743 10.7352 56.5541 10.4603 56.6277C10.1854 56.7014 9.89257 56.663 9.646 56.5209L5 53.8379" stroke="#33AB9F" stroke-linecap="round" stroke-linejoin="round"/>
<path d="M11.1121 56.1279L12.9701 57.1999C13.0921 57.2704 13.2269 57.3161 13.3666 57.3345C13.5063 57.3529 13.6483 57.3436 13.7845 57.3071C13.9206 57.2706 14.0482 57.2077 14.16 57.1218C14.2718 57.036 14.3656 56.929 14.4361 56.8069L20.6051 46.1209C20.6755 45.9989 20.7213 45.8641 20.7397 45.7244C20.7581 45.5846 20.7488 45.4426 20.7123 45.3065C20.6758 45.1704 20.6128 45.0427 20.527 44.9309C20.4412 44.8191 20.3341 44.7253 20.2121 44.6549L18.3541 43.5819L11.1121 56.1279Z" stroke="#33AB9F" stroke-linecap="round" stroke-linejoin="round"/>
<path d="M29.7191 70.0359L27.4001 68.6949C24.0317 66.752 21.1302 64.0943 18.9001 60.9089L18.0211 59.6539C17.4756 58.8727 16.7647 58.2213 15.9391 57.7459L14.4041 56.8599L20.5741 46.1729L22.5511 47.3149C23.3779 47.7913 24.3397 47.9792 25.2851 47.8489L37.4531 44.9269C38.0028 44.7797 38.5886 44.8569 39.0814 45.1416C39.5743 45.4263 39.9339 45.8951 40.0811 46.4449C40.2282 46.9947 40.151 47.5804 39.8663 48.0733C39.5816 48.5661 39.1128 48.9257 38.5631 49.0729L33.8331 50.3389C33.744 50.3631 33.6627 50.4097 33.5969 50.4743C33.5311 50.5389 33.4829 50.6194 33.4571 50.7079C33.4051 50.8889 33.5151 51.0439 33.5771 51.2219C34.1364 52.5079 35.1602 53.5356 36.4441 54.0999L38.3001 55.1679" stroke="#33AB9F" stroke-linecap="round" stroke-linejoin="round"/>
<path d="M29.7191 70.0359L27.4001 68.6949C24.0317 66.752 21.1302 64.0943 18.9001 60.9089L18.0211 59.6539C17.4756 58.8727 16.7647 58.2213 15.9391 57.7459L14.4041 56.8599L20.5741 46.1729L22.5511 47.3149C23.3779 47.7913 24.3397 47.9792 25.2851 47.8489L37.4531 44.9269C38.0028 44.7797 38.5886 44.8569 39.0814 45.1416C39.5743 45.4263 39.9339 45.8951 40.0811 46.4449C40.2282 46.9947 40.151 47.5804 39.8663 48.0733C39.5816 48.5661 39.1128 48.9257 38.5631 49.0729L33.8331 50.3389C33.744 50.3631 33.6627 50.4097 33.5969 50.4743C33.5311 50.5389 33.4829 50.6194 33.4571 50.7079C33.4051 50.8889 33.5151 51.0439 33.5771 51.2219C34.1364 52.5079 35.1602 53.5356 36.4441 54.0999L38.3001 55.1679" stroke="#33AB9F" stroke-linecap="round" stroke-linejoin="round"/>
<path d="M27.8611 68.963L36.2241 73.791C36.4681 73.9318 36.7374 74.0232 37.0168 74.06C37.2961 74.0967 37.5799 74.0781 37.852 74.0051C38.1241 73.9322 38.3792 73.8064 38.6027 73.6349C38.8262 73.4633 39.0137 73.2495 39.1546 73.0055C39.2954 72.7615 39.3868 72.4921 39.4236 72.2128C39.4603 71.9335 39.4417 71.6497 39.3688 71.3775C39.2958 71.1054 39.17 70.8503 38.9985 70.6268C38.8269 70.4033 38.6131 70.2158 38.3691 70.075L30.0071 65.246" stroke="#33AB9F" stroke-linecap="round" stroke-linejoin="round"/>
<path d="M34.3 57.812L44.9851 63.982C45.2293 64.1296 45.5006 64.227 45.783 64.2685C46.0653 64.31 46.3531 64.2948 46.6296 64.2237C46.906 64.1526 47.1654 64.0271 47.3927 63.8545C47.6201 63.6819 47.8107 63.4657 47.9534 63.2185C48.0961 62.9714 48.1881 62.6982 48.224 62.4151C48.2599 62.132 48.2389 61.8445 48.1623 61.5695C48.0858 61.2946 47.9551 61.0377 47.778 60.8139C47.6009 60.59 47.381 60.4038 47.1311 60.266L36.444 54.1" stroke="#33AB9F" stroke-linecap="round" stroke-linejoin="round"/>
<path d="M30.0071 65.2459L42.0861 72.2199C42.3303 72.3608 42.6 72.4522 42.8795 72.4889C43.1591 72.5257 43.4432 72.5069 43.7156 72.4339C43.9879 72.3608 44.2432 72.2348 44.4669 72.063C44.6905 71.8913 44.8782 71.6772 45.0191 71.4329C45.16 71.1886 45.2514 70.919 45.2881 70.6394C45.3248 70.3599 45.3061 70.0758 45.233 69.8034C45.1599 69.5311 45.0339 69.2758 44.8622 69.0521C44.6905 68.8285 44.4763 68.6408 44.2321 68.4999L32.1531 61.5299" stroke="#33AB9F" stroke-linecap="round" stroke-linejoin="round"/>
<path d="M32.1531 61.5299L45.6261 69.3079C45.8703 69.4555 46.1416 69.5529 46.424 69.5944C46.7064 69.6359 46.9942 69.6207 47.2706 69.5496C47.547 69.4785 47.8065 69.353 48.0338 69.1804C48.2611 69.0078 48.4517 68.7916 48.5944 68.5445C48.7372 68.2973 48.8292 68.0242 48.865 67.741C48.9009 67.4579 48.8799 67.1704 48.8034 66.8955C48.7268 66.6205 48.5961 66.3636 48.4191 66.1398C48.242 65.9159 48.022 65.7297 47.7721 65.5919L34.3001 57.8119" stroke="#33AB9F" stroke-linecap="round" stroke-linejoin="round"/>
</svg>
