<svg width="16" height="16" viewBox="0 0 16 16" fill="none" xmlns="http://www.w3.org/2000/svg">
<path fill-rule="evenodd" clip-rule="evenodd" d="M2.99999 1.66663H13C13.7364 1.66663 14.3333 2.26358 14.3333 2.99996V13C14.3333 13.7363 13.7364 14.3333 13 14.3333H2.99999C2.26361 14.3333 1.66666 13.7363 1.66666 13V2.99996C1.66666 2.26358 2.26361 1.66663 2.99999 1.66663ZM3.66666 2.99996H12.3333C12.7015 2.99996 13 3.29844 13 3.66663V12.3333C13 12.7015 12.7015 13 12.3333 13H3.66666C3.29847 13 2.99999 12.7015 2.99999 12.3333V3.66663C2.99999 3.29844 3.29847 2.99996 3.66666 2.99996Z" fill="#0063CB"/>
<path fill-rule="evenodd" clip-rule="evenodd" d="M7.33332 7.33329V11.3333H8.66666V7.33329H7.33332ZM7.33332 4.66663V5.99996H8.66666V4.66663H7.33332Z" fill="#0063CB"/>
</svg>
