<svg width="16" height="16" viewBox="0 0 16 16" fill="none" xmlns="http://www.w3.org/2000/svg">
<path fill-rule="evenodd" clip-rule="evenodd" d="M3.00002 1.66663H13C13.7364 1.66663 14.3334 2.26358 14.3334 2.99996V13C14.3334 13.7363 13.7364 14.3333 13 14.3333H3.00002C2.26364 14.3333 1.66669 13.7363 1.66669 13V2.99996C1.66669 2.26358 2.26364 1.66663 3.00002 1.66663ZM3.66669 2.99996H12.3334C12.7015 2.99996 13 3.29844 13 3.66663V12.3333C13 12.7015 12.7015 13 12.3334 13H3.66669C3.2985 13 3.00002 12.7015 3.00002 12.3333V3.66663C3.00002 3.29844 3.2985 2.99996 3.66669 2.99996Z" fill="#3A3A3A"/>
<path fill-rule="evenodd" clip-rule="evenodd" d="M7.33335 7.33329V11.3333H8.66669V7.33329H7.33335ZM7.33335 4.66663V5.99996H8.66669V4.66663H7.33335Z" fill="#3A3A3A"/>
</svg>
