<svg width="17" height="16" viewBox="0 0 17 16" fill="none" xmlns="http://www.w3.org/2000/svg">
<path fill-rule="evenodd" clip-rule="evenodd" d="M6.64822 12H7.33289V8.66665H8.66622V12H9.35089C9.43889 11.1986 9.84756 10.5373 10.5109 9.81532C10.5862 9.73398 11.0656 9.23732 11.1222 9.16665C12.4313 7.53122 12.2568 5.16283 10.7223 3.73685C9.18775 2.31086 6.81295 2.31036 5.27779 3.73569C3.74264 5.16102 3.56719 7.52933 4.87556 9.16532C4.93289 9.23665 5.41356 9.73398 5.48756 9.81465C6.15156 10.5373 6.56022 11.1986 6.64822 12ZM6.66622 13.3333V14H9.33289V13.3333H6.66622ZM3.83556 9.99998C2.08994 7.81899 2.32305 4.66055 4.36994 2.75946C6.41684 0.858377 9.58387 0.858884 11.6302 2.76063C13.6764 4.66237 13.9085 7.82088 12.1622 10.0013C11.7489 10.516 10.6662 11.3333 10.6662 12.3333V14C10.6662 14.7364 10.0693 15.3333 9.33289 15.3333H6.66622C5.92984 15.3333 5.33289 14.7364 5.33289 14V12.3333C5.33289 11.3333 4.24955 10.516 3.83556 9.99998Z" fill="#095D55"/>
</svg>
