<svg width="16" height="16" viewBox="0 0 16 16" fill="none" xmlns="http://www.w3.org/2000/svg">
<path fill-rule="evenodd" clip-rule="evenodd" d="M7.99992 1.33337C11.6819 1.33337 14.6666 4.31804 14.6666 8.00004C14.6666 11.682 11.6819 14.6667 7.99992 14.6667C4.31792 14.6667 1.33325 11.682 1.33325 8.00004C1.33325 4.31804 4.31792 1.33337 7.99992 1.33337ZM7.99992 2.66671C5.05458 2.66671 2.66659 5.05471 2.66659 8.00004C2.66659 10.9454 5.05458 13.3334 7.99992 13.3334C10.9453 13.3334 13.3333 10.9454 13.3333 8.00004C13.3333 5.05471 10.9453 2.66671 7.99992 2.66671ZM11.0639 4.93604C11.1999 5.07204 11.2173 5.28671 11.1059 5.44271C9.65259 7.47337 8.85258 8.56137 8.70725 8.70737C8.31658 9.09737 7.68325 9.09737 7.29258 8.70737C6.90259 8.31671 6.90259 7.68337 7.29258 7.29271C7.54192 7.04404 8.62925 6.24337 10.5553 4.89137C10.7133 4.78071 10.9279 4.79937 11.0639 4.93604ZM11.6666 7.33337C12.0346 7.33337 12.3333 7.63204 12.3333 8.00004C12.3333 8.36804 12.0346 8.66671 11.6666 8.66671C11.2986 8.66671 10.9999 8.36804 10.9999 8.00004C10.9999 7.63204 11.2986 7.33337 11.6666 7.33337ZM4.33325 7.33337C4.70125 7.33337 4.99992 7.63204 4.99992 8.00004C4.99992 8.36804 4.70125 8.66671 4.33325 8.66671C3.96525 8.66671 3.66659 8.36804 3.66659 8.00004C3.66659 7.63204 3.96525 7.33337 4.33325 7.33337ZM5.87858 4.93604C6.13859 5.19604 6.13859 5.61804 5.87858 5.87871C5.61859 6.13871 5.19592 6.13871 4.93592 5.87871C4.67592 5.61871 4.67592 5.19604 4.93592 4.93604C5.19592 4.67604 5.61792 4.67604 5.87858 4.93604ZM7.99992 3.66671C8.36792 3.66671 8.66658 3.96537 8.66658 4.33337C8.66658 4.70137 8.36792 5.00004 7.99992 5.00004C7.63192 5.00004 7.33325 4.70137 7.33325 4.33337C7.33325 3.96537 7.63192 3.66671 7.99992 3.66671Z" fill="#038278"/>
</svg>
