<svg width="16" height="16" viewBox="0 0 16 16" fill="none" xmlns="http://www.w3.org/2000/svg">
<path fill-rule="evenodd" clip-rule="evenodd" d="M8 1.33337C11.682 1.33337 14.6667 4.31804 14.6667 8.00004C14.6667 11.682 11.682 14.6667 8 14.6667C4.318 14.6667 1.33334 11.682 1.33334 8.00004C1.33334 4.31804 4.318 1.33337 8 1.33337ZM8 2.66671C5.05467 2.66671 2.66667 5.05471 2.66667 8.00004C2.66667 10.9454 5.05467 13.3334 8 13.3334C10.9453 13.3334 13.3333 10.9454 13.3333 8.00004C13.3333 5.05471 10.9453 2.66671 8 2.66671ZM11.064 4.93604C11.2 5.07204 11.2173 5.28671 11.106 5.44271C9.65267 7.47337 8.85267 8.56137 8.70734 8.70737C8.31667 9.09737 7.68334 9.09737 7.29267 8.70737C6.90267 8.31671 6.90267 7.68337 7.29267 7.29271C7.542 7.04404 8.62934 6.24337 10.5553 4.89137C10.7133 4.78071 10.928 4.79937 11.064 4.93604ZM11.6667 7.33337C12.0347 7.33337 12.3333 7.63204 12.3333 8.00004C12.3333 8.36804 12.0347 8.66671 11.6667 8.66671C11.2987 8.66671 11 8.36804 11 8.00004C11 7.63204 11.2987 7.33337 11.6667 7.33337ZM4.33334 7.33337C4.70134 7.33337 5 7.63204 5 8.00004C5 8.36804 4.70134 8.66671 4.33334 8.66671C3.96534 8.66671 3.66667 8.36804 3.66667 8.00004C3.66667 7.63204 3.96534 7.33337 4.33334 7.33337ZM5.87867 4.93604C6.13867 5.19604 6.13867 5.61804 5.87867 5.87871C5.61867 6.13871 5.196 6.13871 4.936 5.87871C4.676 5.61871 4.676 5.19604 4.936 4.93604C5.196 4.67604 5.618 4.67604 5.87867 4.93604ZM8 3.66671C8.368 3.66671 8.66667 3.96537 8.66667 4.33337C8.66667 4.70137 8.368 5.00004 8 5.00004C7.632 5.00004 7.33334 4.70137 7.33334 4.33337C7.33334 3.96537 7.632 3.66671 8 3.66671Z" fill="#FAFAFA"/>
</svg>
