<svg width="24" height="24" viewBox="0 0 24 24" fill="none" xmlns="http://www.w3.org/2000/svg">
<path d="M15.7578 14.2539H14.9678L14.6878 13.9839C15.6678 12.8439 16.2578 11.3639 16.2578 9.75391C16.2578 6.16391 13.3478 3.25391 9.75781 3.25391C6.16781 3.25391 3.25781 6.16391 3.25781 9.75391C3.25781 13.3439 6.16781 16.2539 9.75781 16.2539C11.3678 16.2539 12.8478 15.6639 13.9878 14.6839L14.2578 14.9639V15.7539L19.2578 20.7439L20.7478 19.2539L15.7578 14.2539ZM9.75781 14.2539C7.26781 14.2539 5.25781 12.2439 5.25781 9.75391C5.25781 7.26391 7.26781 5.25391 9.75781 5.25391C12.2478 5.25391 14.2578 7.26391 14.2578 9.75391C14.2578 12.2439 12.2478 14.2539 9.75781 14.2539Z" fill="white"/>
</svg>
