<svg width="24" height="22" viewBox="0 0 24 22" fill="none" xmlns="http://www.w3.org/2000/svg">
<path d="M5.92969 12.1948V18.107H10.346V13.8072C10.346 13.5221 10.4623 13.2487 10.6694 13.0471C10.8764 12.8455 11.1573 12.7323 11.4501 12.7323H12.5542C12.847 12.7323 13.1278 12.8455 13.3349 13.0471C13.5419 13.2487 13.6583 13.5221 13.6583 13.8072V18.107H18.0746V12.1948" stroke="black" stroke-linecap="round" stroke-linejoin="round"/>
<path d="M3.71875 11.1198L11.2191 3.81737C11.3211 3.71683 11.4426 3.63701 11.5766 3.58253C11.7105 3.52805 11.8542 3.5 11.9994 3.5C12.1445 3.5 12.2882 3.52805 12.4221 3.58253C12.5561 3.63701 12.6776 3.71683 12.7796 3.81737L20.28 11.1198" stroke="black" stroke-linecap="round" stroke-linejoin="round"/>
<path d="M15.3125 6.28274V4.19019H18.0727V8.9701" stroke="black" stroke-linecap="round" stroke-linejoin="round"/>
</svg>
