<svg width="175" height="176" viewBox="0 0 175 176" fill="none" xmlns="http://www.w3.org/2000/svg">
<path d="M175 87.5208C175 135.839 135.826 175.018 87.5 175.018C39.1741 175.018 0 135.839 0 87.5208C0 39.1904 39.1741 0.017583 87.5 0.017583C135.826 0.017583 175 39.1904 175 87.5208Z" fill="#0063CB"/>
<path d="M137.338 131.922L137.338 131.922C138.157 133.385 139.771 134.108 141.336 133.879C141.986 132.724 142.05 131.275 141.356 130.035L134.324 117.472L130.472 119.654L137.338 131.922Z" fill="#F9F9FF" stroke="#0063CB" stroke-width="0.133333"/>
<path d="M109.648 107.642H96.5012L62.3247 98.4212L30 107.642V51.2208L62.3247 42.0004L96.5012 51.2208H129.209V71.747" fill="#F9F9FF"/>
<path d="M109.648 107.642H96.5012L62.3247 98.4212L30 107.642V51.2208L62.3247 42.0004L96.5012 51.2208H129.209V71.747" stroke="#0063CB" stroke-width="4" stroke-miterlimit="10" stroke-linejoin="round"/>
<path d="M62.3247 42.0001V98.4209Z" fill="#F9F9FF"/>
<path d="M62.3247 42.0001V98.4209" stroke="#0063CB" stroke-width="4" stroke-miterlimit="10" stroke-linejoin="round"/>
<path d="M96.5015 107.642V51.2208Z" fill="#F9F9FF"/>
<path d="M96.5015 107.642V51.2208" stroke="#0063CB" stroke-width="4" stroke-miterlimit="10" stroke-linejoin="round"/>
<path d="M127.841 106.908L131.238 112.978Z" fill="#F9F9FF"/>
<path d="M127.841 106.908L131.238 112.978" stroke="#0063CB" stroke-width="4" stroke-miterlimit="10" stroke-linejoin="round"/>
<path d="M142.719 133.49C140.793 134.568 138.358 133.881 137.28 131.955L127.75 114.929L134.726 111.026L144.255 128.051C145.332 129.977 144.646 132.412 142.719 133.49Z" fill="#F9F9FF" stroke="#0063CB" stroke-width="4" stroke-miterlimit="10" stroke-linejoin="round"/>
<path d="M130.428 119.714L137.403 115.81Z" fill="#F9F9FF"/>
<path d="M130.428 119.714L137.403 115.81" stroke="#0063CB" stroke-width="4" stroke-miterlimit="10" stroke-linejoin="round"/>
<path d="M138.119 88.6791C138.119 100.026 128.921 109.224 117.573 109.224C106.226 109.224 97.0266 100.026 97.0266 88.6791C97.0266 77.3315 106.226 68.1325 117.573 68.1325C128.921 68.1325 138.119 77.3315 138.119 88.6791Z" fill="#F9F9FF" stroke="#0063CB" stroke-width="4" stroke-miterlimit="10" stroke-linejoin="round"/>
<path d="M131.857 88.6795C131.857 96.5671 125.462 102.963 117.573 102.963C109.684 102.963 103.289 96.5671 103.289 88.6795C103.289 80.7898 109.684 74.3951 117.573 74.3951C125.462 74.3951 131.857 80.7898 131.857 88.6795Z" fill="#F9F9FF" stroke="#0063CB" stroke-width="4" stroke-miterlimit="10" stroke-linejoin="round"/>
</svg>
