<svg width="100" height="100" viewBox="0 0 100 100" fill="none" xmlns="http://www.w3.org/2000/svg">
<path d="M61.9 31.486C62.3799 31.6584 62.7977 31.9696 63.1003 32.38C63.4029 32.7903 63.5768 33.2814 63.5997 33.7908C63.6226 34.3002 63.4936 34.8049 63.2291 35.2408C62.9646 35.6767 62.5765 36.0241 62.114 36.239C61.871 36.352 61.623 36.458 61.373 36.558" stroke="#33AB9F" stroke-linecap="round" stroke-linejoin="round"/>
<path d="M52.752 42.638C55.0945 42.8609 57.4558 42.5002 59.625 41.588C60.2408 41.3162 60.9388 41.2968 61.5688 41.5339C62.1988 41.7711 62.7107 42.2459 62.9945 42.8564C63.2782 43.4669 63.3112 44.1643 63.0864 44.7988C62.8615 45.4334 62.3968 45.9544 61.792 46.25C60.9544 46.6356 60.0844 46.9461 59.192 47.178" stroke="#33AB9F" stroke-linecap="round" stroke-linejoin="round"/>
<path d="M56.979 37.584C57.9257 37.4175 58.8477 37.1323 59.723 36.735C60.3415 36.4478 61.0487 36.418 61.6892 36.6522C62.3296 36.8865 62.8508 37.3655 63.138 37.984C63.4252 38.6025 63.455 39.3097 63.2208 39.9502C62.9865 40.5906 62.5075 41.1118 61.889 41.399L61.623 41.52" stroke="#33AB9F" stroke-linecap="round" stroke-linejoin="round"/>
<path d="M64.023 9.71301C53.812 13.813 38.69 23.313 37.843 35.625C37.51 40.46 38.617 45.27 41.751 48.949" stroke="#33AB9F" stroke-linecap="round" stroke-linejoin="round"/>
<path d="M47.781 48.028C48.2767 47.7649 48.7141 47.4043 49.067 46.968C55.567 39.359 57.444 37.079 61.991 31.368C64.318 28.122 63.813 24.935 68.721 22.979" stroke="#33AB9F" stroke-linecap="round" stroke-linejoin="round"/>
<path d="M44.661 44.213C41.416 38.382 43 30.959 50.347 29.45C50.4813 29.4489 50.6142 29.4771 50.7366 29.5326C50.8589 29.5881 50.9676 29.6697 51.0552 29.7715C51.1428 29.8734 51.2071 29.9931 51.2437 30.1224C51.2802 30.2517 51.2882 30.3873 51.267 30.52C50.9682 32.4922 50.3121 34.3933 49.331 36.13L44.661 44.209" stroke="#33AB9F" stroke-linecap="round" stroke-linejoin="round"/>
<path d="M72.9479 23.361L70.5239 24.22C70.2024 24.3337 69.849 24.3151 69.5413 24.1682C69.2336 24.0214 68.9967 23.7584 68.8829 23.437L63.9469 9.499C63.8332 9.17755 63.8518 8.82412 63.9986 8.51639C64.1455 8.20867 64.4085 7.97185 64.7299 7.858L67.1539 7" stroke="#33AB9F" stroke-linecap="round" stroke-linejoin="round"/>
<path d="M50.6488 54.758C50.081 54.758 49.5259 54.5896 49.0538 54.2741C48.5817 53.9587 48.2137 53.5103 47.9964 52.9857C47.7791 52.4611 47.7222 51.8838 47.833 51.3269C47.9438 50.77 48.2172 50.2584 48.6187 49.8569C49.0202 49.4554 49.5318 49.1819 50.0887 49.0712C50.6456 48.9604 51.2229 49.0172 51.7475 49.2345C52.2721 49.4518 52.7205 49.8198 53.036 50.2919C53.3515 50.7641 53.5198 51.3192 53.5198 51.887C53.5205 52.2642 53.4467 52.6378 53.3026 52.9865C53.1586 53.3351 52.9471 53.6518 52.6804 53.9186C52.4137 54.1853 52.0969 54.3967 51.7483 54.5408C51.3997 54.6848 51.026 54.7586 50.6488 54.758Z" stroke="#33AB9F" stroke-linecap="round" stroke-linejoin="round"/>
<path d="M44.411 44.82C43.4271 45.7154 42.6413 46.8066 42.104 48.0237C41.5667 49.2407 41.2898 50.5566 41.291 51.887C41.291 56.287 47.941 63.987 50.152 66.432C50.2424 66.5313 50.3525 66.6106 50.4752 66.6649C50.598 66.7192 50.7308 66.7472 50.865 66.7472C50.9993 66.7472 51.132 66.7192 51.2548 66.6649C51.3776 66.6106 51.4877 66.5313 51.578 66.432C53.788 63.982 60.429 56.289 60.429 51.887C60.4292 49.6941 59.6764 47.5677 58.2964 45.8635C56.9164 44.1593 54.993 42.9808 52.848 42.525" stroke="#33AB9F" stroke-linecap="round" stroke-linejoin="round"/>
<path d="M44.661 44.213C44.4771 44.5705 44.3486 44.9539 44.28 45.35C44.1872 46.0263 44.3669 46.7118 44.7794 47.2556C45.192 47.7995 45.8037 48.1572 46.48 48.25C46.9526 48.3118 47.4326 48.221 47.85 47.991" stroke="#33AB9F" stroke-linecap="round" stroke-linejoin="round"/>
<path d="M32.5 74.5H28.3708C27.3795 74.5001 26.4092 74.7866 25.5768 75.325L6.98183 87.357L6.13583 87.905C5.68463 88.1988 5.34033 88.6304 5.15417 89.1357C4.96802 89.6409 4.94995 90.1927 5.10265 90.709C5.25536 91.2254 5.57068 91.6786 6.0017 92.0013C6.43272 92.324 6.9564 92.4989 7.49483 92.5H92.5008C93.1618 92.4984 93.7952 92.2351 94.2626 91.7678C94.73 91.3004 94.9933 90.667 94.9948 90.006V90C94.9943 89.5837 94.8899 89.1742 94.691 88.8085C94.4921 88.4428 94.205 88.1326 93.8558 87.906L93.0078 87.357L74.4128 75.325C73.5804 74.7866 72.6102 74.5001 71.6188 74.5H67.3878" stroke="#33AB9F" stroke-linecap="round" stroke-linejoin="round"/>
<path d="M25.571 87.357C26.752 81.767 29.8183 76.7528 34.2561 73.1545C38.694 69.5562 44.2337 67.5926 49.947 67.5926C55.6604 67.5926 61.2001 69.5562 65.638 73.1545C70.0758 76.7528 73.1421 81.767 74.323 87.357H25.571Z" stroke="#33AB9F" stroke-linecap="round" stroke-linejoin="round"/>
<path d="M62.494 87.357C62.4779 87.2743 62.4698 87.1902 62.47 87.106V85.457C62.4702 85.1073 62.6093 84.7719 62.8566 84.5246C63.1039 84.2773 63.4392 84.1383 63.789 84.138H69.428C70.1045 84.1381 70.7647 83.9303 71.3192 83.5427C71.8737 83.1551 72.2957 82.6064 72.528 81.971C71.0407 78.7911 68.8998 75.9604 66.2449 73.6635C63.59 71.3667 60.4808 69.6553 57.12 68.641H53.42C52.6172 68.623 51.8338 68.8879 51.2067 69.3894C50.5796 69.8909 50.1489 70.597 49.99 71.384C49.9097 71.8573 49.9336 72.3424 50.0601 72.8054C50.1866 73.2685 50.4125 73.6984 50.7222 74.0652C51.032 74.4319 51.418 74.7267 51.8533 74.9289C52.2887 75.1311 52.7629 75.2359 53.243 75.236C53.6465 75.2373 54.0444 75.331 54.4062 75.5098C54.7679 75.6887 55.0839 75.9481 55.3299 76.268C55.5758 76.5879 55.7453 76.9599 55.8252 77.3555C55.9051 77.7511 55.8934 78.1597 55.791 78.55C55.626 79.1242 55.2758 79.6277 54.7948 79.982C54.3139 80.3363 53.7292 80.5216 53.132 80.509H43.718C41.9832 80.4739 40.2998 81.0987 39.0082 82.2573C37.7165 83.4158 36.913 85.0216 36.76 86.75C36.75 86.95 36.748 87.156 36.76 87.356L62.494 87.357Z" stroke="#33AB9F" stroke-linecap="round" stroke-linejoin="round"/>
</svg>
