<svg width="100" height="100" viewBox="0 0 100 100" fill="none" xmlns="http://www.w3.org/2000/svg">
<path d="M75.6288 68.8311L72.6938 65.3091" stroke="#33AB9F" stroke-linecap="round" stroke-linejoin="round"/>
<path d="M75.6291 64.2641V61.8461H73.6211" stroke="#33AB9F" stroke-linecap="round" stroke-linejoin="round"/>
<path d="M92.0648 39.4811C92.0617 39.8433 91.9242 40.1916 91.6791 40.4583C91.434 40.7251 91.0985 40.8914 90.7378 40.9251C90.3844 42.6339 89.409 44.1507 88.0008 45.1813C86.5926 46.2119 84.8519 46.683 83.1161 46.5032C81.3804 46.3233 79.7732 45.5054 78.6062 44.208C77.4392 42.9106 76.7955 41.2261 76.7998 39.4811V37.1331C76.8004 36.5827 76.8676 36.0344 76.9998 35.5001C80.3698 36.0051 84.3138 36.2511 87.3668 34.2001C87.6909 34.9681 88.1715 35.6601 88.7779 36.2321C89.3843 36.8041 90.1032 37.2434 90.8888 37.5221V38.0741C91.2174 38.1363 91.5142 38.3106 91.7286 38.5671C91.943 38.8237 92.0619 39.1467 92.0648 39.4811Z" stroke="#33AB9F" stroke-linecap="round" stroke-linejoin="round"/>
<path d="M81.17 84.093H78.564V88.789" stroke="#33AB9F" stroke-linecap="round" stroke-linejoin="round"/>
<path d="M81.9451 76.404L77.1431 70.651" stroke="#33AB9F" stroke-linecap="round" stroke-linejoin="round"/>
<path d="M80.959 70.651H90.891V88.789" stroke="#33AB9F" stroke-linecap="round" stroke-linejoin="round"/>
<path d="M75.6289 68.8311L76.8029 70.2401L77.1429 70.6511" stroke="#33AB9F" stroke-linecap="round" stroke-linejoin="round"/>
<path d="M72.6938 60.731V60.031C72.6929 57.898 73.3041 55.8096 74.4549 54.0136C75.6057 52.2176 77.2476 50.7896 79.1858 49.899L79.1508 52.952C79.1503 53.1464 79.1977 53.3379 79.2891 53.5094C79.3804 53.681 79.5127 53.8273 79.6742 53.9354C79.8357 54.0435 80.0215 54.11 80.2149 54.1289C80.4083 54.1479 80.6034 54.1187 80.7828 54.044L83.2358 52.987L79.2088 49.899L83.2599 52.987V70.6511H80.9598" stroke="#33AB9F" stroke-linecap="round" stroke-linejoin="round"/>
<path d="M73.6211 61.8461H75.6291V64.2641" stroke="#33AB9F" stroke-linecap="round" stroke-linejoin="round"/>
<path d="M83.2359 52.982L80.7829 54.039C80.6034 54.1137 80.4083 54.1429 80.2149 54.1239C80.0215 54.105 79.8357 54.0385 79.6742 53.9304C79.5127 53.8223 79.3804 53.676 79.2891 53.5044C79.1978 53.3329 79.1503 53.1414 79.1509 52.947L79.1859 49.894H79.2089L83.2359 52.982Z" stroke="#33AB9F" stroke-linecap="round" stroke-linejoin="round"/>
<path d="M87.3338 49.4361C87.3338 49.4251 87.3218 49.4251 87.3098 49.4361L83.2598 52.9821V70.6511H90.8908V61.8461H94.9998V60.0261C94.9986 57.6788 94.2571 55.3918 92.8807 53.4904C91.5043 51.589 89.5633 50.1703 87.3338 49.4361ZM87.3338 49.4361L83.2828 52.9821L85.7368 54.0391C85.9162 54.1138 86.1113 54.1429 86.3047 54.124C86.4982 54.105 86.6839 54.0386 86.8454 53.9305C87.0069 53.8224 87.1393 53.6761 87.2306 53.5045C87.3219 53.3329 87.3693 53.1415 87.3688 52.9471L87.3338 49.4361Z" stroke="#33AB9F" stroke-linecap="round" stroke-linejoin="round"/>
<path d="M87.31 49.4361L83.26 52.9821L79.209 49.8941C79.386 49.8121 79.562 49.7421 79.75 49.6601C79.938 49.5781 80.113 49.5301 80.301 49.4601L80.865 49.2841C81.2477 49.1785 81.6356 49.0924 82.027 49.0261C82.227 48.9901 82.427 48.9671 82.627 48.9431C83.0323 48.896 83.44 48.8726 83.848 48.8731C84.13 48.8731 84.4 48.8851 84.67 48.9081C84.998 48.9321 85.315 48.9671 85.632 49.0141C85.926 49.0731 86.208 49.1311 86.478 49.1901C86.748 49.2491 87.04 49.3431 87.31 49.4361Z" stroke="#33AB9F" stroke-linecap="round" stroke-linejoin="round"/>
<path d="M87.3687 52.947C87.3693 53.1414 87.3218 53.3329 87.2305 53.5044C87.1392 53.676 87.0069 53.8223 86.8454 53.9304C86.6838 54.0385 86.4981 54.105 86.3047 54.1239C86.1113 54.1429 85.9161 54.1137 85.7367 54.039L83.2827 52.982L87.3337 49.436L87.3687 52.947Z" stroke="#33AB9F" stroke-linecap="round" stroke-linejoin="round"/>
<path d="M84.7267 37.1361C84.5525 37.1361 84.3821 37.1878 84.2372 37.2846C84.0924 37.3814 83.9794 37.519 83.9128 37.68C83.8461 37.8409 83.8286 38.0181 83.8626 38.189C83.8966 38.3599 83.9805 38.5169 84.1037 38.6401C84.227 38.7633 84.3839 38.8472 84.5548 38.8812C84.7257 38.9152 84.9029 38.8977 85.0638 38.831C85.2248 38.7644 85.3624 38.6514 85.4592 38.5066C85.556 38.3617 85.6077 38.1914 85.6077 38.0171C85.6077 37.7834 85.5149 37.5594 85.3497 37.3941C85.1844 37.2289 84.9604 37.1361 84.7267 37.1361Z" stroke="#33AB9F" stroke-linecap="round" stroke-linejoin="round"/>
<path d="M80.0309 37.1361C79.8567 37.1361 79.6863 37.1878 79.5414 37.2846C79.3966 37.3814 79.2836 37.519 79.217 37.68C79.1503 37.8409 79.1328 38.0181 79.1668 38.189C79.2008 38.3599 79.2847 38.5169 79.4079 38.6401C79.5311 38.7633 79.6881 38.8472 79.859 38.8812C80.0299 38.9152 80.2071 38.8977 80.368 38.831C80.529 38.7644 80.6666 38.6514 80.7634 38.5066C80.8602 38.3617 80.9119 38.1914 80.9119 38.0171C80.9119 37.7834 80.8191 37.5594 80.6539 37.3941C80.4886 37.2289 80.2646 37.1361 80.0309 37.1361Z" stroke="#33AB9F" stroke-linecap="round" stroke-linejoin="round"/>
<path d="M84.4341 42.473C83.9126 42.8208 83.2999 43.0064 82.6731 43.0064C82.0463 43.0064 81.4336 42.8208 80.9121 42.473" stroke="#33AB9F" stroke-linecap="round" stroke-linejoin="round"/>
<path d="M91.4778 35.372V37.72C91.2782 37.6655 91.0822 37.5987 90.8908 37.52C90.1054 37.2415 89.3866 36.8025 88.7802 36.2309C88.1738 35.6593 87.6931 34.9676 87.3688 34.2C84.3158 36.254 80.3688 36.008 77.0018 35.5C76.7318 35.453 76.4738 35.418 76.2158 35.371C76.2158 33.3471 77.0198 31.4061 78.4509 29.9751C79.882 28.544 81.8229 27.74 83.8468 27.74C85.8707 27.74 87.8117 28.544 89.2428 29.9751C90.6738 31.4061 91.4778 33.3471 91.4778 35.371V35.372Z" stroke="#33AB9F" stroke-linecap="round" stroke-linejoin="round"/>
<path d="M88.4147 33.0271C88.1155 33.5005 87.7144 33.9013 87.2407 34.2001" stroke="#33AB9F" stroke-linecap="round" stroke-linejoin="round"/>
<path d="M95.0001 61.8461V73.8211C94.9883 74.3581 94.7666 74.8692 94.3826 75.2448C93.9986 75.6204 93.4828 75.8307 92.9456 75.8307C92.4084 75.8307 91.8926 75.6204 91.5086 75.2448C91.1246 74.8692 90.903 74.3581 90.8911 73.8211V61.8461H95.0001Z" stroke="#33AB9F" stroke-linecap="round" stroke-linejoin="round"/>
<path d="M90.8911 61.8461V58.3241" stroke="#33AB9F" stroke-linecap="round" stroke-linejoin="round"/>
<path d="M75.6289 61.8461V58.3241" stroke="#33AB9F" stroke-linecap="round" stroke-linejoin="round"/>
<path d="M87.31 49.4361L83.26 52.9821L79.209 49.8941C79.386 49.8121 79.562 49.7421 79.75 49.6601C79.938 49.5781 80.113 49.5301 80.301 49.4601L80.865 49.2841C81.2477 49.1785 81.6356 49.0924 82.027 49.0261C82.227 48.9901 82.427 48.9671 82.627 48.9431C83.0323 48.896 83.44 48.8726 83.848 48.8731C84.13 48.8731 84.4 48.8851 84.67 48.9081C84.998 48.9321 85.315 48.9671 85.632 49.0141C85.926 49.0731 86.208 49.1311 86.478 49.1901C86.748 49.2491 87.04 49.3431 87.31 49.4361Z" stroke="#33AB9F" stroke-linecap="round" stroke-linejoin="round"/>
<path d="M87.3687 52.947C87.3693 53.1414 87.3218 53.3329 87.2305 53.5044C87.1392 53.676 87.0069 53.8223 86.8454 53.9304C86.6838 54.0385 86.4981 54.105 86.3047 54.1239C86.1113 54.1429 85.9161 54.1137 85.7367 54.039L83.2827 52.982L87.3337 49.436L87.3687 52.947Z" stroke="#33AB9F" stroke-linecap="round" stroke-linejoin="round"/>
<path d="M83.2359 52.982L80.7829 54.039C80.6034 54.1137 80.4083 54.1429 80.2149 54.1239C80.0215 54.105 79.8357 54.0385 79.6742 53.9304C79.5127 53.8223 79.3804 53.676 79.2891 53.5044C79.1978 53.3329 79.1503 53.1414 79.1509 52.947L79.1859 49.894H79.2089L83.2359 52.982Z" stroke="#33AB9F" stroke-linecap="round" stroke-linejoin="round"/>
<path d="M23.3729 36.5811V39.4101C23.373 40.3382 23.1903 41.2573 22.8353 42.1148C22.4802 42.9723 21.9596 43.7515 21.3034 44.4078C20.6471 45.0642 19.868 45.5848 19.0106 45.94C18.1531 46.2953 17.234 46.4781 16.3059 46.4781C15.4252 46.4802 14.5523 46.3129 13.7349 45.9851C13.1587 45.7554 12.6143 45.453 12.1149 45.0851C10.9262 44.189 10.0469 42.944 9.59991 41.5241C9.58791 41.5001 9.57691 41.4651 9.56491 41.4411C9.33317 40.9441 9.20644 40.4047 9.19266 39.8566C9.17889 39.3084 9.27835 38.7633 9.48484 38.2554C9.69132 37.7474 10.0004 37.2875 10.3927 36.9045C10.785 36.5214 11.2522 36.2234 11.7649 36.0291C12.0923 35.9293 12.4326 35.8781 12.7749 35.8771C12.7749 35.8771 17.7179 35.8771 21.2509 33.0471C21.529 33.0334 21.8067 33.0811 22.0644 33.1867C22.322 33.2923 22.5533 33.4532 22.7419 33.6581C23.1619 34.5751 23.3772 35.5725 23.3729 36.5811Z" stroke="#33AB9F" stroke-linecap="round" stroke-linejoin="round"/>
<path d="M15.958 42.1681C16.3792 42.5415 16.9082 42.7712 17.4686 42.8239C18.029 42.8765 18.5916 42.7495 19.075 42.4611C19.2214 42.3753 19.3602 42.2773 19.49 42.1681" stroke="#33AB9F" stroke-linecap="round" stroke-linejoin="round"/>
<path d="M14.1831 38.2901C14.3706 38.1029 14.6247 37.9978 14.8896 37.9978C15.1545 37.9978 15.4086 38.1029 15.5961 38.2901" stroke="#33AB9F" stroke-linecap="round" stroke-linejoin="round"/>
<path d="M19.834 38.2901C20.0215 38.1029 20.2756 37.9978 20.5405 37.9978C20.8054 37.9978 21.0595 38.1029 21.247 38.2901" stroke="#33AB9F" stroke-linecap="round" stroke-linejoin="round"/>
<path d="M25.2519 34.0101C25.2475 34.5078 25.0462 34.9836 24.692 35.3334C24.3379 35.6832 23.8597 35.8787 23.3619 35.8771C23.4295 35.0864 23.2082 34.298 22.7389 33.6581C22.5504 33.4532 22.3191 33.2923 22.0614 33.1867C21.8038 33.0811 21.5261 33.0334 21.2479 33.0471C17.7149 35.8771 12.7719 35.8771 12.7719 35.8771C12.4297 35.8781 12.0894 35.9293 11.7619 36.0291C11.2492 36.2234 10.7821 36.5214 10.3897 36.9044C9.99742 37.2875 9.68835 37.7474 9.48187 38.2554C9.27538 38.7633 9.17592 39.3084 9.18969 39.8566C9.20347 40.4047 9.3302 40.9441 9.56194 41.4411C9.57394 41.4651 9.58494 41.5001 9.59694 41.5241C10.0442 42.9423 10.9226 44.1857 12.1099 45.0811C12.6093 45.449 13.1538 45.7514 13.7299 45.9811C13.7474 45.9844 13.7636 45.9924 13.7769 46.0041C13.1215 46.3545 12.382 46.5172 11.6399 46.4741C10.7523 46.4729 9.8738 46.2941 9.05632 45.9481C8.23884 45.6021 7.49888 45.096 6.88007 44.4596C6.26125 43.8232 5.7761 43.0693 5.4532 42.2424C5.1303 41.4156 4.97618 40.5324 4.99994 39.6451V37.6141C4.98609 36.1943 5.25207 34.7858 5.7827 33.4689C6.31332 32.152 7.0982 30.9525 8.09249 29.939C9.08678 28.9255 10.271 28.1178 11.5775 27.562C12.884 27.0063 14.2872 26.7134 15.7069 26.7001C20.3069 26.7471 24.1479 29.4241 25.1929 33.5561C25.2295 33.7047 25.2493 33.857 25.2519 34.0101Z" stroke="#33AB9F" stroke-linecap="round" stroke-linejoin="round"/>
<path d="M13.7351 45.9851C13.1589 45.7554 12.6145 45.4529 12.1151 45.085C10.9264 44.1889 10.0471 42.944 9.6001 41.524C10.4927 43.397 11.9351 44.9532 13.7351 45.9851Z" stroke="#33AB9F" stroke-linecap="round" stroke-linejoin="round"/>
<path d="M22.2109 69.4181V69.5361L22.3049 69.4181" stroke="#33AB9F" stroke-linecap="round" stroke-linejoin="round"/>
<path d="M23.3848 68.1271L24.2658 67.0701L26.3198 64.6051" stroke="#33AB9F" stroke-linecap="round" stroke-linejoin="round"/>
<path d="M22.3052 69.4181L22.2112 69.5361L16.9282 75.8751L13.9932 79.4001V82.9221C13.9925 83.0764 14.0224 83.2294 14.0812 83.3721C14.14 83.5149 14.2264 83.6446 14.3356 83.7537C14.4447 83.8629 14.5744 83.9493 14.7171 84.0081C14.8599 84.0668 15.0128 84.0968 15.1672 84.0961H19.8672V88.8601" stroke="#33AB9F" stroke-linecap="round" stroke-linejoin="round"/>
<path d="M18.489 69.4181H10.647V69.4301L11.081 76.4621L11.598 84.9501L11.833 88.8601" stroke="#33AB9F" stroke-linecap="round" stroke-linejoin="round"/>
<path d="M10.4708 63.5481V74.3141C10.4855 74.5852 10.4453 74.8565 10.3526 75.1117C10.2599 75.3668 10.1166 75.6007 9.93135 75.7991C9.74607 75.9976 9.52262 76.1565 9.27439 76.2665C9.02617 76.3765 8.75829 76.4352 8.48682 76.4391C8.20772 76.4392 7.93134 76.3844 7.67346 76.2776C7.41558 76.1709 7.18127 76.0143 6.98392 75.817C6.78657 75.6196 6.63005 75.3853 6.52331 75.1275C6.41656 74.8696 6.36169 74.5932 6.36182 74.3141V63.5481H10.4708Z" stroke="#33AB9F" stroke-linecap="round" stroke-linejoin="round"/>
<path d="M16.9278 56.5001V69.4181H10.4708V63.5481H6.36182V58.7701C6.37437 56.9882 6.86761 55.2428 7.78952 53.7179C8.71143 52.193 10.0278 50.9452 11.5998 50.1061L10.7758 53.3001C10.7457 53.4118 10.7495 53.5299 10.7866 53.6394C10.8238 53.749 10.8926 53.845 10.9844 53.9154C11.0762 53.9858 11.1868 54.0273 11.3023 54.0348C11.4177 54.0422 11.5328 54.0151 11.6328 53.9571C12.8418 53.2301 14.1328 52.8771 15.3078 54.6381L15.4718 55.3311C15.5511 55.6595 15.737 55.9523 16.0005 56.1638C16.2639 56.3754 16.59 56.4936 16.9278 56.5001Z" stroke="#33AB9F" stroke-linecap="round" stroke-linejoin="round"/>
<path d="M18.4887 69.418H16.9277V56.5H16.9627C17.2907 56.4992 17.6096 56.3924 17.8719 56.1957C18.1343 55.9989 18.3261 55.7226 18.4187 55.408L18.6067 54.774C19.8067 52.849 21.1427 53.201 22.3867 53.952C22.4868 54.0096 22.6017 54.0362 22.7169 54.0286C22.8322 54.0209 22.9425 53.9794 23.0342 53.9091C23.1258 53.8389 23.1946 53.7431 23.2319 53.6338C23.2692 53.5245 23.2733 53.4067 23.2437 53.295C23.2437 53.295 22.9147 51.995 22.7157 51.123C23.8439 52.0513 24.752 53.2183 25.3745 54.54C25.9971 55.8617 26.3185 57.3051 26.3157 58.766V60.022" stroke="#33AB9F" stroke-linecap="round" stroke-linejoin="round"/>
<path d="M23.3847 68.1271L22.3047 69.4181" stroke="#33AB9F" stroke-linecap="round" stroke-linejoin="round"/>
<path d="M10.4707 63.552V59.473" stroke="#33AB9F" stroke-linecap="round" stroke-linejoin="round"/>
<path d="M23.3848 63.552V59.473" stroke="#33AB9F" stroke-linecap="round" stroke-linejoin="round"/>
<path d="M53.9091 33.446V33.435C53.6989 33.3407 53.4835 33.2582 53.2641 33.188C53.0883 33.1172 52.9078 33.0584 52.7241 33.012C52.5361 32.953 52.3481 32.895 52.1601 32.848C51.9721 32.801 51.7841 32.765 51.5971 32.73C51.4847 32.7039 51.3708 32.6845 51.2561 32.672C50.9075 32.6041 50.5547 32.5607 50.2001 32.542C50.0591 32.531 49.9301 32.519 49.7891 32.519C49.4061 32.487 49.0211 32.487 48.6381 32.519C48.4971 32.519 48.3681 32.531 48.2271 32.542C47.8725 32.5607 47.5196 32.6041 47.1711 32.672C47.0564 32.6845 46.9425 32.7039 46.8301 32.73C46.6421 32.765 46.4541 32.801 46.2671 32.848C46.0801 32.895 45.8911 32.953 45.7031 33.012C45.5193 33.0584 45.3389 33.1172 45.1631 33.188C44.9434 33.2584 44.7277 33.3409 44.5171 33.435V33.446C42.4307 34.3531 40.6626 35.8622 39.439 37.7802C38.2155 39.6982 37.5922 41.9377 37.6491 44.212V44.912C37.6511 46.4595 38.2174 47.9531 39.2419 49.1129C40.2664 50.2726 41.6787 51.019 43.2141 51.212C43.4785 51.2555 43.7462 51.2752 44.0141 51.271H54.4141C54.6851 51.2692 54.9557 51.2495 55.2241 51.212C56.7569 51.0153 58.1657 50.2675 59.1875 49.1082C60.2093 47.9489 60.7744 46.4573 60.7771 44.912V44.212C60.8342 41.9376 60.2111 39.698 58.9875 37.78C57.7639 35.8619 55.9956 34.3528 53.9091 33.446ZM50.8221 51.221C50.5302 51.1653 50.2558 51.0405 50.0221 50.857C49.7699 50.6662 49.5655 50.4195 49.425 50.1363C49.2844 49.8531 49.2115 49.5412 49.2121 49.225C49.2126 49.5412 49.1397 49.8531 48.9992 50.1363C48.8586 50.4195 48.6542 50.6662 48.4021 50.857C48.1685 51.0408 47.8941 51.1657 47.6021 51.221H45.1001V47.171H47.1551C47.425 47.1702 47.6925 47.2228 47.942 47.3257C48.1916 47.4287 48.4184 47.5799 48.6092 47.7708C48.8001 47.9617 48.9514 48.1885 49.0543 48.438C49.1573 48.6876 49.2099 48.955 49.2091 49.225C49.2084 48.955 49.2611 48.6875 49.3642 48.438C49.4672 48.1884 49.6186 47.9616 49.8096 47.7708C50.0005 47.5799 50.2273 47.4286 50.477 47.3257C50.7266 47.2228 50.9941 47.1702 51.2641 47.171H53.3181V51.221H50.8221Z" stroke="#33AB9F" stroke-linecap="round" stroke-linejoin="round"/>
<path d="M55.6587 24.6181H55.6467C55.2 26.0469 54.3097 27.2962 53.105 28.1849C51.9002 29.0735 50.4437 29.5552 48.9467 29.5601C47.4339 29.5663 45.9611 29.0743 44.7557 28.1601C43.5692 27.2693 42.6909 26.0298 42.2437 24.6151C41.8679 24.595 41.5066 24.4626 41.2069 24.235C40.9071 24.0073 40.6826 23.6949 40.5623 23.3382C40.4421 22.9815 40.4317 22.597 40.5325 22.2343C40.6333 21.8716 40.8407 21.5476 41.1277 21.3041H41.1397C41.3047 21.1847 41.5004 21.1153 41.7037 21.1041C41.7643 21.0844 41.8282 21.0766 41.8917 21.0811V21.0221C43.0417 20.5411 44.8497 19.4611 44.8497 17.4651C47.7847 20.3181 52.7387 20.0241 55.9797 19.0651C56.0032 19.2676 56.0149 19.4712 56.0147 19.6751V21.0841C58.0297 21.0841 57.8887 24.6181 55.6587 24.6181Z" stroke="#33AB9F" stroke-linecap="round" stroke-linejoin="round"/>
<path d="M51.239 20.3771C51.0643 20.3771 50.8936 20.4289 50.7484 20.5259C50.6032 20.6229 50.49 20.7608 50.4232 20.9222C50.3563 21.0835 50.3389 21.2611 50.3729 21.4323C50.407 21.6036 50.4911 21.761 50.6146 21.8844C50.7381 22.0079 50.8954 22.092 51.0667 22.1261C51.238 22.1602 51.4155 22.1427 51.5769 22.0759C51.7382 22.009 51.8761 21.8959 51.9731 21.7506C52.0702 21.6054 52.122 21.4347 52.122 21.2601C52.1217 21.026 52.0286 20.8015 51.863 20.636C51.6975 20.4705 51.4731 20.3773 51.239 20.3771Z" stroke="#33AB9F" stroke-linecap="round" stroke-linejoin="round"/>
<path d="M46.6482 20.3771C46.4735 20.3769 46.3027 20.4285 46.1573 20.5254C46.012 20.6223 45.8986 20.7601 45.8317 20.9215C45.7647 21.0828 45.747 21.2604 45.781 21.4317C45.815 21.6031 45.899 21.7605 46.0224 21.8841C46.1459 22.0077 46.3032 22.0919 46.4745 22.126C46.6458 22.1602 46.8234 22.1428 46.9848 22.076C47.1462 22.0092 47.2842 21.896 47.3813 21.7507C47.4783 21.6055 47.5302 21.4348 47.5302 21.2601C47.5302 21.0261 47.4373 20.8016 47.2719 20.6361C47.1065 20.4705 46.8822 20.3773 46.6482 20.3771Z" stroke="#33AB9F" stroke-linecap="round" stroke-linejoin="round"/>
<path d="M47.1797 25.3871C47.7026 25.7358 48.3171 25.9219 48.9457 25.9219C49.5742 25.9219 50.1887 25.7358 50.7117 25.3871" stroke="#33AB9F" stroke-linecap="round" stroke-linejoin="round"/>
<path d="M44.5171 33.435V36.629C44.5172 36.811 44.5596 36.9904 44.641 37.1531C44.7224 37.3159 44.8404 37.4575 44.9859 37.5668C45.1314 37.6761 45.3002 37.7501 45.4792 37.7829C45.6582 37.8157 45.8423 37.8065 46.0171 37.756L49.2091 36.485L46.2651 32.849C45.6676 32.9971 45.0831 33.1931 44.5171 33.435Z" stroke="#33AB9F" stroke-linecap="round" stroke-linejoin="round"/>
<path d="M52.1569 32.849L49.2129 36.485L52.4059 37.756C52.5807 37.8065 52.7648 37.8157 52.9438 37.7829C53.1227 37.7501 53.2916 37.6761 53.4371 37.5668C53.5826 37.4575 53.7006 37.3159 53.782 37.1531C53.8633 36.9904 53.9058 36.811 53.9059 36.629V33.435C53.3396 33.1929 52.7547 32.9969 52.1569 32.849Z" stroke="#33AB9F" stroke-linecap="round" stroke-linejoin="round"/>
<path d="M50.0228 50.8571L49.7298 51.2211L49.6828 51.2801H48.7438L48.6968 51.2211L48.4028 50.8571C48.655 50.6663 48.8594 50.4196 48.9999 50.1364C49.1405 49.8532 49.2134 49.5413 49.2128 49.2251C49.2123 49.5413 49.2852 49.8532 49.4257 50.1364C49.5663 50.4196 49.7707 50.6663 50.0228 50.8571Z" stroke="#33AB9F" stroke-linecap="round" stroke-linejoin="round"/>
<path d="M49.2129 49.2251C49.2136 48.9551 49.1611 48.6877 49.0581 48.4381C48.9552 48.1885 48.8039 47.9618 48.613 47.7709C48.4221 47.58 48.1954 47.4287 47.9458 47.3258C47.6963 47.2229 47.4288 47.1703 47.1589 47.1711H46.5479L49.2129 36.4871L51.8899 47.1711H51.2679C50.9978 47.1703 50.7303 47.2228 50.4807 47.3258C50.2311 47.4287 50.0043 47.58 49.8133 47.7708C49.6224 47.9617 49.471 48.1885 49.368 48.438C49.2649 48.6876 49.2122 48.9551 49.2129 49.2251Z" stroke="#33AB9F" stroke-linecap="round" stroke-linejoin="round"/>
<path d="M41.5821 40.6941V44.9321C41.5763 45.5056 41.7927 46.0592 42.1861 46.4766C42.5795 46.8941 43.1193 47.1429 43.6921 47.1711H45.1001" stroke="#33AB9F" stroke-linecap="round" stroke-linejoin="round"/>
<path d="M56.8438 40.6901V44.9281C56.8483 45.504 56.6297 46.0592 56.2337 46.4774C55.8377 46.8956 55.2951 47.1442 54.7198 47.1711H53.3198" stroke="#33AB9F" stroke-linecap="round" stroke-linejoin="round"/>
<path d="M56.5001 18.9001C56.3361 18.9591 56.1601 19.0061 55.9721 19.0651C52.7311 20.0271 47.7771 20.3211 44.8421 17.4651C44.8421 19.4651 43.0341 20.5411 41.8841 21.0221C41.8131 21.0581 41.7541 21.0811 41.6961 21.1041C41.4928 21.1153 41.297 21.1847 41.1321 21.3041H41.1201C41.0663 21.3227 41.0115 21.3384 40.9561 21.3511V18.9001C40.9561 16.8388 41.7749 14.862 43.2324 13.4044C44.69 11.9469 46.6668 11.1281 48.7281 11.1281C50.7893 11.1281 52.7662 11.9469 54.2237 13.4044C55.6812 14.862 56.5001 16.8388 56.5001 18.9001Z" stroke="#33AB9F" stroke-linecap="round" stroke-linejoin="round"/>
<path d="M41.6997 21.1071C41.4647 21.2011 41.2647 21.2601 41.1357 21.3071" stroke="#33AB9F" stroke-linecap="round" stroke-linejoin="round"/>
<path d="M41.6997 21.1071C41.4647 21.2011 41.2647 21.2601 41.1357 21.3071" stroke="#33AB9F" stroke-linecap="round" stroke-linejoin="round"/>
<path d="M44.8431 17.4731C44.4851 17.1271 44.4341 17.1821 44.1431 16.7361" stroke="#33AB9F" stroke-linecap="round" stroke-linejoin="round"/>
<path d="M49.213 36.4851L52.157 32.8491C50.2228 32.3771 48.2033 32.3771 46.269 32.8491L49.213 36.4851Z" stroke="#33AB9F" stroke-linecap="round" stroke-linejoin="round"/>
<path d="M49.2131 49.225C49.2136 49.5412 49.1408 49.8532 49.0002 50.1364C48.8596 50.4196 48.6552 50.6663 48.4031 50.857C48.1695 51.0408 47.8951 51.1657 47.6031 51.221H45.1001V47.171H47.1551C47.4254 47.1697 47.6933 47.2219 47.9433 47.3246C48.1933 47.4273 48.4205 47.5785 48.6119 47.7695C48.8032 47.9604 48.9548 48.1873 49.058 48.4371C49.1612 48.687 49.2139 48.9547 49.2131 49.225Z" stroke="#33AB9F" stroke-linecap="round" stroke-linejoin="round"/>
<path d="M47.6051 51.2211C47.4605 51.2644 47.31 51.2843 47.1591 51.2801H45.1001V51.2211H47.6051Z" stroke="#33AB9F" stroke-linecap="round" stroke-linejoin="round"/>
<path d="M53.3222 47.171V51.221H50.8222C50.5302 51.1653 50.2559 51.0405 50.0222 50.857C49.6798 50.597 49.4278 50.2359 49.3017 49.8249C49.1756 49.4139 49.1818 48.9737 49.3193 48.5664C49.4569 48.1591 49.7189 47.8052 50.0684 47.5549C50.4179 47.3045 50.8372 47.1702 51.2672 47.171H53.3222Z" stroke="#33AB9F" stroke-linecap="round" stroke-linejoin="round"/>
<path d="M53.3218 51.2211V51.2801H51.2678C51.1169 51.2844 50.9663 51.2645 50.8218 51.2211H53.3218Z" stroke="#33AB9F" stroke-linecap="round" stroke-linejoin="round"/>
<path d="M55.2239 51.2211C54.9555 51.2586 54.6849 51.2783 54.4139 51.2801H44.0139C43.746 51.2843 43.4782 51.2646 43.2139 51.2211H55.2239Z" stroke="#33AB9F" stroke-linecap="round" stroke-linejoin="round"/>
<path d="M52.9121 60.672H45.4121C45.2357 60.6725 45.0614 60.6333 44.9021 60.5572C44.7429 60.4812 44.6028 60.3703 44.4923 60.2328C44.3818 60.0952 44.3036 59.9346 44.2636 59.7627C44.2235 59.5909 44.2227 59.4122 44.2611 59.24L45.4821 53.956C45.5419 53.6957 45.6884 53.4633 45.8975 53.2971C46.1066 53.1309 46.366 53.0406 46.6331 53.041H51.2801C51.5322 53.0418 51.7774 53.123 51.9801 53.2729C52.1828 53.4227 52.3324 53.6333 52.4071 53.874L54.0271 59.157C54.0815 59.3318 54.094 59.517 54.0637 59.6975C54.0334 59.878 53.9611 60.0489 53.8525 60.1963C53.744 60.3438 53.6024 60.4637 53.439 60.5463C53.2757 60.6289 53.0952 60.672 52.9121 60.672Z" stroke="#33AB9F" stroke-linecap="round" stroke-linejoin="round"/>
<path d="M81.9452 76.4001L77.1452 70.6471L76.8052 70.2361L75.6312 68.8271L61.6582 52.0661C61.4364 51.8022 61.1597 51.5899 60.8474 51.444C60.5352 51.298 60.1948 51.222 59.8502 51.2211H55.2242C54.9558 51.2586 54.6852 51.2783 54.4142 51.2801H44.0142C43.7463 51.2843 43.4785 51.2646 43.2142 51.2211H38.5772C38.2325 51.2218 37.8921 51.2978 37.5798 51.4438C37.2675 51.5897 36.9909 51.8021 36.7692 52.0661L26.3202 64.6051L24.2662 67.0701L23.3852 68.1271L22.3052 69.4181L22.2112 69.5361L16.9282 75.8751L13.9932 79.4001H84.4342L81.9452 76.4001ZM40.6312 65.6501L40.2792 67.0701L39.4572 70.3461C39.3953 70.6012 39.2492 70.828 39.0426 70.9899C38.8359 71.1517 38.5807 71.2392 38.3182 71.2381H27.9282C27.7158 71.2393 27.5071 71.1826 27.3246 71.074C27.1421 70.9653 26.9926 70.809 26.8924 70.6217C26.7922 70.4345 26.745 70.2234 26.7559 70.0113C26.7668 69.7992 26.8353 69.5941 26.9542 69.4181L30.0772 64.7181C30.1855 64.5559 30.3322 64.4229 30.5041 64.3308C30.6761 64.2387 30.8681 64.1904 31.0632 64.1901H39.4932C39.6718 64.1896 39.8482 64.23 40.0089 64.3082C40.1695 64.3863 40.3101 64.5003 40.42 64.6412C40.5298 64.7821 40.6059 64.9463 40.6425 65.1211C40.6792 65.296 40.6753 65.4769 40.6312 65.6501ZM52.9122 60.6721H45.4122C45.2357 60.6726 45.0614 60.6333 44.9022 60.5573C44.743 60.4812 44.6029 60.3703 44.4923 60.2328C44.3818 60.0953 44.3036 59.9346 44.2636 59.7628C44.2236 59.5909 44.2228 59.4123 44.2612 59.2401L45.4822 53.9561C45.542 53.6957 45.6884 53.4634 45.8976 53.2972C46.1067 53.1309 46.366 53.0406 46.6332 53.0411H51.2802C51.5322 53.0419 51.7774 53.1231 51.9801 53.2729C52.1828 53.4227 52.3324 53.6333 52.4072 53.8741L54.0272 59.1571C54.0816 59.3319 54.0941 59.517 54.0638 59.6975C54.0334 59.8781 53.9611 60.049 53.8526 60.1964C53.7441 60.3438 53.6024 60.4637 53.4391 60.5463C53.2757 60.629 53.0952 60.672 52.9122 60.6721ZM70.5002 71.2381H60.1082C59.8457 71.2388 59.5907 71.1512 59.3841 70.9894C59.1775 70.8276 59.0313 70.601 58.9692 70.3461L58.1482 67.0701L57.8002 65.6501C57.757 65.4771 57.7538 65.2966 57.7909 65.1223C57.8279 64.9479 57.9043 64.7843 58.0141 64.6439C58.124 64.5036 58.2644 64.3901 58.4247 64.3121C58.585 64.2341 58.7609 64.1938 58.9392 64.1941H67.3692C67.5642 64.1944 67.7562 64.2427 67.9282 64.3348C68.1002 64.4269 68.2468 64.5599 68.3552 64.7221L71.4782 69.4221C71.5958 69.5984 71.6632 69.8034 71.6731 70.0151C71.6831 70.2269 71.6353 70.4373 71.5348 70.6239C71.4343 70.8105 71.2849 70.9663 71.1026 71.0744C70.9204 71.1826 70.7121 71.2392 70.5002 71.2381Z" stroke="#33AB9F" stroke-linecap="round" stroke-linejoin="round"/>
<path d="M84.4342 79.4V82.922C84.4348 83.0764 84.4049 83.2293 84.3462 83.3721C84.2874 83.5148 84.2009 83.6445 84.0918 83.7536C83.9826 83.8628 83.853 83.9492 83.7102 84.008C83.5675 84.0668 83.4145 84.0967 83.2602 84.096H15.1672C15.0128 84.0967 14.8599 84.0668 14.7171 84.008C14.5744 83.9492 14.4447 83.8628 14.3356 83.7536C14.2264 83.6445 14.14 83.5148 14.0812 83.3721C14.0224 83.2293 13.9925 83.0764 13.9932 82.922V79.4H84.4342Z" stroke="#33AB9F" stroke-linecap="round" stroke-linejoin="round"/>
<path d="M78.5641 88.86V84.093H74.4551V88.86" stroke="#33AB9F" stroke-linecap="round" stroke-linejoin="round"/>
<path d="M19.8628 88.86V84.093H23.9718V88.86" stroke="#33AB9F" stroke-linecap="round" stroke-linejoin="round"/>
<path d="M52.9121 60.672H45.4121C45.2357 60.6725 45.0614 60.6333 44.9021 60.5572C44.7429 60.4812 44.6028 60.3703 44.4923 60.2328C44.3818 60.0952 44.3036 59.9346 44.2636 59.7627C44.2235 59.5909 44.2227 59.4122 44.2611 59.24L45.4821 53.956C45.5419 53.6957 45.6884 53.4633 45.8975 53.2971C46.1066 53.1309 46.366 53.0406 46.6331 53.041H51.2801C51.5322 53.0418 51.7774 53.123 51.9801 53.2729C52.1828 53.4227 52.3324 53.6333 52.4071 53.874L54.0271 59.157C54.0815 59.3318 54.094 59.517 54.0637 59.6975C54.0334 59.878 53.9611 60.0489 53.8525 60.1963C53.744 60.3438 53.6024 60.4637 53.439 60.5463C53.2757 60.6289 53.0952 60.672 52.9121 60.672Z" stroke="#33AB9F" stroke-linecap="round" stroke-linejoin="round"/>
<path d="M70.5001 71.2381H60.1081C59.8456 71.2388 59.5906 71.1513 59.384 70.9894C59.1774 70.8276 59.0312 70.601 58.9691 70.3461L58.1481 67.0701L57.8001 65.6501C57.7569 65.4772 57.7537 65.2966 57.7908 65.1223C57.8279 64.948 57.9042 64.7844 58.014 64.644C58.1239 64.5036 58.2643 64.3901 58.4246 64.3121C58.5849 64.2342 58.7608 64.1938 58.9391 64.1941H67.3691C67.5641 64.1944 67.7561 64.2427 67.9281 64.3348C68.1001 64.4269 68.2467 64.5599 68.3551 64.7221L71.4781 69.4221C71.5957 69.5984 71.6631 69.8034 71.673 70.0152C71.683 70.2269 71.6352 70.4373 71.5347 70.6239C71.4342 70.8105 71.2848 70.9663 71.1025 71.0745C70.9203 71.1827 70.712 71.2392 70.5001 71.2381Z" stroke="#33AB9F" stroke-linecap="round" stroke-linejoin="round"/>
<path d="M40.6307 65.6501L40.2787 67.0701L39.4567 70.3461C39.3949 70.6012 39.2488 70.828 39.0421 70.9899C38.8354 71.1517 38.5802 71.2392 38.3177 71.2381H27.9277C27.7153 71.2393 27.5066 71.1826 27.3241 71.074C27.1416 70.9653 26.9922 70.809 26.892 70.6217C26.7918 70.4345 26.7446 70.2234 26.7554 70.0113C26.7663 69.7992 26.8349 69.5941 26.9537 69.4181L30.0767 64.7181C30.1851 64.5559 30.3317 64.4229 30.5037 64.3308C30.6757 64.2387 30.8677 64.1904 31.0627 64.1901H39.4927C39.6714 64.1896 39.8478 64.23 40.0084 64.3082C40.1691 64.3863 40.3097 64.5003 40.4195 64.6412C40.5294 64.7821 40.6055 64.9463 40.6421 65.1211C40.6787 65.296 40.6748 65.4769 40.6307 65.6501Z" stroke="#33AB9F" stroke-linecap="round" stroke-linejoin="round"/>
<path d="M20.2859 49.0731L20.1329 49.5891L18.6069 54.7781L18.4189 55.4121C18.3256 55.7259 18.1335 56.0013 17.8712 56.1973C17.6089 56.3933 17.2904 56.4995 16.9629 56.5001H16.9279C16.5895 56.4933 16.2628 56.3744 15.9993 56.1619C15.7358 55.9494 15.5503 55.6554 15.4719 55.3261L15.3079 54.6331L14.0279 49.1511L13.8989 48.6111C14.7266 48.3931 15.579 48.2825 16.4349 48.2821C17.7588 48.2833 19.0687 48.5524 20.2859 49.0731Z" stroke="#33AB9F" stroke-linecap="round" stroke-linejoin="round"/>
<path d="M15.308 54.637C14.134 52.876 12.842 53.229 11.633 53.956C11.5329 54.014 11.4179 54.0411 11.3024 54.0337C11.187 54.0262 11.0763 53.9847 10.9845 53.9143C10.8927 53.844 10.8239 53.7479 10.7868 53.6384C10.7496 53.5288 10.7459 53.4107 10.776 53.299L11.598 50.106L11.774 49.436C12.4477 49.08 13.1609 48.8044 13.899 48.615L14.028 49.155L15.308 54.637Z" stroke="#33AB9F" stroke-linecap="round" stroke-linejoin="round"/>
<path d="M23.2439 53.3001C23.2735 53.4117 23.2694 53.5296 23.2321 53.6388C23.1948 53.7481 23.126 53.8439 23.0344 53.9142C22.9427 53.9844 22.8324 54.026 22.7171 54.0336C22.6019 54.0413 22.487 54.0146 22.3869 53.9571C21.1429 53.2061 19.8039 52.8571 18.6069 54.7791L20.1329 49.5901L20.2859 49.0741C21.0917 49.4162 21.8495 49.862 22.5399 50.4001C22.5399 50.4241 22.6099 50.7291 22.7039 51.1161C22.7039 51.1193 22.7052 51.1223 22.7074 51.1246C22.7097 51.1268 22.7128 51.1281 22.7159 51.1281C22.9149 52.0001 23.2439 53.3001 23.2439 53.3001Z" stroke="#33AB9F" stroke-linecap="round" stroke-linejoin="round"/>
</svg>
