<svg width="28" height="26" viewBox="0 0 28 26" fill="none" xmlns="http://www.w3.org/2000/svg">
<path d="M8 1H27.5V4H8V1ZM2.75 4.75C1.50735 4.75 0.5 3.74265 0.5 2.5C0.5 1.25735 1.50735 0.25 2.75 0.25C3.99265 0.25 5 1.25735 5 2.5C5 3.74265 3.99265 4.75 2.75 4.75ZM2.75 15.25C1.50735 15.25 0.5 14.2426 0.5 13C0.5 11.7574 1.50735 10.75 2.75 10.75C3.99265 10.75 5 11.7574 5 13C5 14.2426 3.99265 15.25 2.75 15.25ZM2.75 25.6C1.50735 25.6 0.5 24.5926 0.5 23.35C0.5 22.1074 1.50735 21.1 2.75 21.1C3.99265 21.1 5 22.1074 5 23.35C5 24.5926 3.99265 25.6 2.75 25.6ZM8 11.5H27.5V14.5H8V11.5ZM8 22H27.5V25H8V22Z" fill="#D0CECE"/>
</svg>
