<svg width="14" height="14" viewBox="0 0 14 14" fill="none" xmlns="http://www.w3.org/2000/svg">
<path fill-rule="evenodd" clip-rule="evenodd" d="M6.66667 13.3333C2.98467 13.3333 0 10.3487 0 6.66667C0 2.98467 2.98467 0 6.66667 0C10.3487 0 13.3333 2.98467 13.3333 6.66667C13.3333 10.3487 10.3487 13.3333 6.66667 13.3333ZM3.342 10.8373C4.2857 11.5918 5.45845 12.0019 6.66667 12C7.98 12 9.182 11.5253 10.1113 10.7387C9.23414 9.83861 8.03014 9.33171 6.77333 9.33333C5.46936 9.33183 4.22457 9.87744 3.342 10.8373ZM2.41067 9.88C3.54315 8.67815 5.12199 7.99779 6.77333 8C8.36439 7.99793 9.89071 8.62986 11.0147 9.756C12.5988 7.52644 12.2396 4.45994 10.1831 2.6568C8.12667 0.853666 5.03952 0.898397 3.03616 2.76036C1.0328 4.62232 0.762613 7.69794 2.41067 9.88067V9.88ZM6.66667 7.33333C5.19391 7.33333 4 6.13943 4 4.66667C4 3.19391 5.19391 2 6.66667 2C8.13943 2 9.33333 3.19391 9.33333 4.66667C9.33333 6.13943 8.13943 7.33333 6.66667 7.33333ZM6.66667 6C7.40305 6 8 5.40305 8 4.66667C8 3.93029 7.40305 3.33333 6.66667 3.33333C5.93029 3.33333 5.33333 3.93029 5.33333 4.66667C5.33333 5.40305 5.93029 6 6.66667 6Z" fill="#038278"/>
</svg>
