<svg width="20" height="22" viewBox="0 0 20 22" fill="none" xmlns="http://www.w3.org/2000/svg">
<path d="M6.5 15.3857L4.5 9.88574H0.5V21.3857H14L11.5 15.3857H6.5Z" stroke="black" stroke-width="0.8" stroke-linecap="round"/>
<path d="M4.5 9.88574C5 11.3857 7.50526 11.9857 8.68421 10.3857C9.17544 10.8857 10.4526 11.5857 11.6316 10.3857C12.3684 11.0524 14.1368 11.9857 15.3158 10.3857C16.0526 11.0524 17.8211 11.9857 19 10.3857V12.3857M19 12.3857C18.4105 13.5857 16.2982 13.3857 15.3158 12.8857C14.5 13.3857 14 13.8857 12.3684 12.8857C11.2912 13.7791 10 13.8857 9 12.8857C8 13.8857 6 13.8857 5.5 12.3857M19 12.3857V21.3857H12.3684" stroke="black" stroke-width="0.8" stroke-linecap="round"/>
<path d="M9 3.38574L8 4.38574H8.5V6.88574H9.5V4.38574H10L9 3.38574Z" stroke="black"/>
<path d="M15 6.88574L16 5.88574L15.5 5.88574L15.5 3.38574L14.5 3.38574L14.5 5.88574L14 5.88574L15 6.88574Z" stroke="black"/>
</svg>
