<svg height="512" viewBox="0 0 64 64" width="512" xmlns="http://www.w3.org/2000/svg"><g id="Link"><path d="m32.6881 39.9729-7.3949 7.3097a6.07667 6.07667 0 0 1 -8.5231 0 5.91657 5.91657 0 0 1 0-8.425l9.2333-9.127a6.07667 6.07667 0 0 1 8.5231 0 5.85641 5.85641 0 0 1 1.7156 3.7546 3.965 3.965 0 0 0 .6759-.5277l1.082-1.0695a7.81639 7.81639 0 0 0 -2.0531-3.5614 8.10132 8.10132 0 0 0 -11.3638 0l-9.2333 9.127a7.88713 7.88713 0 0 0 0 11.233 8.10132 8.10132 0 0 0 11.3638 0l8.8259-8.7243a9.24139 9.24139 0 0 1 -2.8514.0106z"/><path d="m48.6502 15.3254a8.1043 8.1043 0 0 0 -11.3638 0l-8.8259 8.7196a9.24541 9.24541 0 0 1 2.8514-.0105l7.3949-7.3059a6.0789 6.0789 0 0 1 8.5231 0 5.91132 5.91132 0 0 1 0 8.4206l-9.2333 9.1222a6.0789 6.0789 0 0 1 -8.5231 0 5.85281 5.85281 0 0 1 -1.7157-3.7526 3.96246 3.96246 0 0 0 -.6758.5274l-1.082 1.0689a7.81148 7.81148 0 0 0 2.0531 3.5595 8.1043 8.1043 0 0 0 11.3638 0l9.2333-9.1222a7.88 7.88 0 0 0 0-11.227z"/></g></svg>