<svg width="21" height="23" viewBox="0 0 21 23" fill="none" xmlns="http://www.w3.org/2000/svg">
<path d="M9.55631 1.00666C5.10176 1.3326 4.53136 4.58297 4.80298 6.16741C1.86976 6.05878 1.04549 8.65724 1 9.97004C1 12.3603 3.44457 13.1389 4.66685 13.2295L16.6181 13.0937C19.4429 12.2245 19.968 10.0153 19.8775 9.01938C19.3342 4.67348 15.8485 4.94512 14.1735 5.62417C13.6303 1.71287 10.869 0.916119 9.55631 1.00666Z" stroke="black" stroke-width="0.8"/>
<path d="M6.84072 11.1924C6.16167 12.2789 5.10288 14.5061 6.84124 14.7234C7.61075 14.6782 8.79619 13.9086 6.84072 11.1924Z" fill="black" stroke="black" stroke-width="0.271618"/>
<path d="M10.2313 13.7725C9.5523 14.8589 8.49351 17.0862 10.2319 17.3035C11.0014 17.2582 12.1868 16.4886 10.2313 13.7725Z" fill="black" stroke="black" stroke-width="0.271618"/>
<path d="M13.4892 11.0566C12.8101 12.1431 11.7513 14.3704 13.4897 14.5877C14.2592 14.5424 15.4446 13.7728 13.4892 11.0566Z" fill="black" stroke="black" stroke-width="0.271618"/>
<path d="M6.96963 16.7607C6.29058 17.8472 5.23179 20.0745 6.97015 20.2918C7.73966 20.2465 8.92509 19.4769 6.96963 16.7607Z" fill="black" stroke="black" stroke-width="0.271618"/>
<path d="M11.0438 18.6616C10.3648 19.7481 9.30601 21.9754 11.0444 22.1927C11.8139 22.1474 12.9993 21.3778 11.0438 18.6616Z" fill="black" stroke="black" stroke-width="0.271618"/>
<path d="M14.579 16.2173C13.9 17.3038 12.8412 19.531 14.5795 19.7483C15.349 19.7031 16.5345 18.9335 14.579 16.2173Z" fill="black" stroke="black" stroke-width="0.271618"/>
</svg>
