<svg width="30" height="31" viewBox="0 0 30 31" fill="none" xmlns="http://www.w3.org/2000/svg">
<circle cx="15" cy="15.4883" r="15" fill="#009ADC"/>
<path d="M15.3535 6.29297L16.366 9.40911H19.6425L16.9917 11.335L18.0042 14.4511L15.3535 12.5252L12.7027 14.4511L13.7152 11.335L11.0645 9.40911H14.341L15.3535 6.29297Z" fill="white"/>
<path d="M8.96284 14.1846L9.97534 17.3007H13.2518L10.6011 19.2266L11.6136 22.3427L8.96284 20.4169L6.3121 22.3427L7.32459 19.2266L4.67385 17.3007H7.95035L8.96284 14.1846Z" fill="white"/>
<path d="M21.7402 14.1846L22.7527 17.3007H26.0292L23.3784 19.2266L24.3909 22.3427L21.7402 20.4169L19.0894 22.3427L20.1019 19.2266L17.4512 17.3007H20.7277L21.7402 14.1846Z" fill="white"/>
</svg>
