<svg width="17" height="16" viewBox="0 0 17 16" fill="none" xmlns="http://www.w3.org/2000/svg">
<path fill-rule="evenodd" clip-rule="evenodd" d="M14.0002 2C14.3684 2 14.6668 2.29848 14.6668 2.66667V12C14.6668 12.3682 14.3684 12.6667 14.0002 12.6667H4.3035L1.3335 15V2.66667C1.3335 2.29848 1.63197 2 2.00016 2H14.0002ZM13.3335 3.33333H2.66683V12.2567L3.84216 11.3333H13.3335V3.33333ZM8.66683 9.33333V10.6667H7.3335V9.33333H8.66683ZM8.30627 4.01882C9.52518 4.18002 10.41 5.25919 10.3292 6.48605C10.2484 7.71292 9.22969 8.66671 8.00016 8.66667H7.3335V7.33333H8.00016C8.52693 7.3333 8.96335 6.92463 8.99794 6.399C9.03253 5.87337 8.65344 5.41104 8.13122 5.34197C7.609 5.2729 7.12274 5.62078 7.0195 6.13733L5.7115 5.87533C5.95241 4.66964 7.08736 3.85761 8.30627 4.01882Z" fill="#5A5A10"/>
</svg>
