<svg width="20" height="20" viewBox="0 0 20 20" fill="none" xmlns="http://www.w3.org/2000/svg">
<g clip-path="url(#clip0_3088_6390)">
<g clip-path="url(#clip1_3088_6390)">
<path d="M3.65333 19.375H1.97166C1.64014 19.375 1.3222 19.2433 1.08778 19.0089C0.85336 18.7745 0.721664 18.4565 0.721664 18.125V6.25C0.721664 5.91848 0.85336 5.60054 1.08778 5.36612C1.3222 5.1317 1.64014 5 1.97166 5H3.65333" stroke="#0063CB" stroke-linecap="round" stroke-linejoin="round"/>
<path d="M12.6961 3.4337L11.5277 3.87808C10.8825 4.1235 10.5583 4.84554 10.8038 5.49079L15.6919 18.3426C15.9373 18.9879 16.6593 19.312 17.3046 19.0666L18.4729 18.6222C19.1182 18.3768 19.4423 17.6547 19.1969 17.0095L14.3088 4.15768C14.0634 3.51242 13.3413 3.18828 12.6961 3.4337Z" stroke="#0063CB" stroke-linecap="round" stroke-linejoin="round"/>
<path d="M9.47166 0.625H6.97166C6.28131 0.625 5.72166 1.18464 5.72166 1.875V18.125C5.72166 18.8154 6.28131 19.375 6.97166 19.375H9.47166C10.162 19.375 10.7217 18.8154 10.7217 18.125V1.875C10.7217 1.18464 10.162 0.625 9.47166 0.625Z" stroke="#0063CB" stroke-linecap="round" stroke-linejoin="round"/>
<path d="M8.22166 3.125V13.125" stroke="#0063CB" stroke-linecap="round" stroke-linejoin="round"/>
<path d="M8.22166 15.9375C8.15986 15.9375 8.09944 15.9558 8.04805 15.9902C7.99666 16.0245 7.95661 16.0733 7.93295 16.1304C7.9093 16.1875 7.90311 16.2503 7.91517 16.311C7.92723 16.3716 7.95699 16.4273 8.00069 16.471C8.0444 16.5147 8.10008 16.5444 8.1607 16.5565C8.22132 16.5686 8.28415 16.5624 8.34125 16.5387C8.39836 16.5151 8.44716 16.475 8.4815 16.4236C8.51584 16.3722 8.53416 16.3118 8.53416 16.25C8.53416 16.1671 8.50124 16.0876 8.44264 16.029C8.38403 15.9704 8.30455 15.9375 8.22166 15.9375Z" stroke="#0063CB" stroke-linecap="round" stroke-linejoin="round"/>
</g>
</g>
<defs>
<clipPath id="clip0_3088_6390">
<rect width="20" height="20" fill="white"/>
</clipPath>
<clipPath id="clip1_3088_6390">
<rect width="20" height="20" fill="white"/>
</clipPath>
</defs>
</svg>
