<svg width="17" height="16" viewBox="0 0 17 16" fill="none" xmlns="http://www.w3.org/2000/svg">
<path fill-rule="evenodd" clip-rule="evenodd" d="M14.6665 4.06859C15.0347 4.06859 15.3332 4.36706 15.3332 4.73525V11.9999C15.3332 12.3681 15.0347 12.6666 14.6665 12.6666H11.1998L9.33317 14.9999L7.4665 12.6666H3.99984C3.63165 12.6666 3.33317 12.3681 3.33317 11.9999V4.73525C3.33317 4.36706 3.63165 4.06859 3.99984 4.06859H14.6665ZM13.9998 5.40192H4.6665V11.3333H8.10717L9.33317 12.8653L10.5592 11.3333H13.9998V5.40192ZM12.6665 1.33325V2.66659H1.99984V9.99992H0.666504V1.99992C0.666504 1.63173 0.964981 1.33325 1.33317 1.33325H12.6665Z" fill="#095D55"/>
</svg>
