<svg width="17" height="16" viewBox="0 0 17 16" fill="none" xmlns="http://www.w3.org/2000/svg">
<path fill-rule="evenodd" clip-rule="evenodd" d="M14.6665 4.06883C15.0347 4.06883 15.3332 4.36731 15.3332 4.7355V12.0002C15.3332 12.3684 15.0347 12.6668 14.6665 12.6668H11.1998L9.33317 15.0002L7.4665 12.6668H3.99984C3.63165 12.6668 3.33317 12.3684 3.33317 12.0002V4.7355C3.33317 4.36731 3.63165 4.06883 3.99984 4.06883H14.6665ZM13.9998 5.40216H4.6665V11.3335H8.10717L9.33317 12.8655L10.5592 11.3335H13.9998V5.40216ZM12.6665 1.3335V2.66683H1.99984V10.0002H0.666504V2.00016C0.666504 1.63197 0.964981 1.3335 1.33317 1.3335H12.6665Z" fill="#971356"/>
</svg>
