<svg width="20" height="23" viewBox="0 0 20 23" fill="none" xmlns="http://www.w3.org/2000/svg">
<path d="M2.36659 21.3267L1.74439 19.4601L2.98879 18.2157L2.67769 16.3491H0.5V22.26H13.5661M13.5661 22.26H17.2993V16.3491H10.7663L10.1441 18.2157L11.3885 18.5268L11.6996 20.0823L12.9439 20.3934L13.5661 22.26Z" stroke="black" stroke-width="0.8" stroke-linecap="round" stroke-linejoin="round"/>
<path d="M13.2563 17.5935L14.1896 18.5268H15.434L16.0562 19.4601L15.1229 21.0156L15.7451 21.6378M4.23444 20.7045L5.16773 19.149L7.03433 18.8379L7.96762 16.3491H6.41213H9.21202M3.92334 16.3491H5.16773M6.41213 20.3934L7.03433 21.0156L6.10103 22.26M10.1453 19.7712L9.21202 21.0156L10.1453 22.26" stroke="black" stroke-width="0.8" stroke-linecap="round" stroke-linejoin="round"/>
<path d="M13.4858 8.54323C14.7167 8.54323 15.7145 7.54543 15.7145 6.31458C15.7145 5.08374 14.7167 4.08594 13.4858 4.08594C12.255 4.08594 11.2572 5.08374 11.2572 6.31458C11.2572 7.54543 12.255 8.54323 13.4858 8.54323Z" fill="black"/>
<path d="M10.8391 4.28888L10.5015 3.95117" stroke="black" stroke-width="0.6" stroke-linecap="round" stroke-linejoin="round"/>
<path d="M10.002 6.31494L8.13538 6.31494" stroke="black" stroke-width="0.6" stroke-linecap="round" stroke-linejoin="round"/>
<path d="M10.8391 8.34033L10.5015 8.67804" stroke="black" stroke-width="0.6" stroke-linecap="round" stroke-linejoin="round"/>
<path d="M16.2951 4.28888L16.6328 3.95117" stroke="black" stroke-width="0.6" stroke-linecap="round" stroke-linejoin="round"/>
<path d="M17.1334 6.31494H19" stroke="black" stroke-width="0.6" stroke-linecap="round" stroke-linejoin="round"/>
<path d="M16.2951 8.34033L16.6328 8.67804" stroke="black" stroke-width="0.6" stroke-linecap="round" stroke-linejoin="round"/>
<path d="M13.4871 2.82704L13.4871 0.960449" stroke="black" stroke-width="0.6" stroke-linecap="round" stroke-linejoin="round"/>
<path d="M13.4871 9.80225L13.4871 11.6688" stroke="black" stroke-width="0.6" stroke-linecap="round" stroke-linejoin="round"/>
<path d="M3.17547 7.65449C2.95025 7.65449 2.86564 8.27406 3.03471 8.58384C3.37285 9.2034 3.08149 10.0811 2.89354 10.4426C2.4908 11.217 2.33051 12.1464 2.33051 12.611C2.33051 13.2306 2.61202 14.0051 2.89354 14.3149C3.17506 14.6246 3.45658 14.6763 3.59734 14.6246C3.82256 14.5007 3.78502 14.16 3.7381 14.0051C3.65231 13.7219 3.50094 13.5723 3.45658 13.2306C3.34398 12.3632 3.78502 11.4235 4.01962 11.0621C4.58266 10.0708 4.25422 8.89363 4.01962 8.42895C3.6818 7.68546 3.31609 7.60286 3.17547 7.65449Z" fill="black"/>
<path d="M6.17547 7.65449C5.95025 7.65449 5.86564 8.27406 6.03471 8.58384C6.37285 9.2034 6.08149 10.0811 5.89354 10.4426C5.4908 11.217 5.33051 12.1464 5.33051 12.611C5.33051 13.2306 5.61202 14.0051 5.89354 14.3149C6.17506 14.6246 6.45658 14.6763 6.59734 14.6246C6.82256 14.5007 6.78502 14.16 6.7381 14.0051C6.65231 13.7219 6.50094 13.5723 6.45658 13.2306C6.34398 12.3632 6.78502 11.4235 7.01962 11.0621C7.58266 10.0708 7.25422 8.89363 7.01962 8.42895C6.6818 7.68546 6.31609 7.60286 6.17547 7.65449Z" fill="black"/>
</svg>
