<svg width="13" height="12" viewBox="0 0 13 12" fill="none" xmlns="http://www.w3.org/2000/svg">
<path d="M9.75 8.06002C9.33833 8.06002 8.97 8.21002 8.68833 8.44502L4.82625 6.37002C4.85333 6.25502 4.875 6.14002 4.875 6.02002C4.875 5.90002 4.85333 5.78502 4.82625 5.67002L8.645 3.61502C8.9375 3.86502 9.32208 4.02002 9.75 4.02002C10.6492 4.02002 11.375 3.35002 11.375 2.52002C11.375 1.69002 10.6492 1.02002 9.75 1.02002C8.85083 1.02002 8.125 1.69002 8.125 2.52002C8.125 2.64002 8.14667 2.75502 8.17375 2.87002L4.355 4.92502C4.0625 4.67502 3.67792 4.52002 3.25 4.52002C2.35083 4.52002 1.625 5.19002 1.625 6.02002C1.625 6.85002 2.35083 7.52002 3.25 7.52002C3.67792 7.52002 4.0625 7.36502 4.355 7.11502L8.21167 9.19502C8.18458 9.30002 8.16833 9.41002 8.16833 9.52002C8.16833 10.325 8.87792 10.98 9.75 10.98C10.6221 10.98 11.3317 10.325 11.3317 9.52002C11.3317 8.71502 10.6221 8.06002 9.75 8.06002ZM9.75 2.02002C10.0479 2.02002 10.2917 2.24502 10.2917 2.52002C10.2917 2.79502 10.0479 3.02002 9.75 3.02002C9.45208 3.02002 9.20833 2.79502 9.20833 2.52002C9.20833 2.24502 9.45208 2.02002 9.75 2.02002ZM3.25 6.52002C2.95208 6.52002 2.70833 6.29502 2.70833 6.02002C2.70833 5.74502 2.95208 5.52002 3.25 5.52002C3.54792 5.52002 3.79167 5.74502 3.79167 6.02002C3.79167 6.29502 3.54792 6.52002 3.25 6.52002ZM9.75 10.03C9.45208 10.03 9.20833 9.80502 9.20833 9.53002C9.20833 9.25502 9.45208 9.03002 9.75 9.03002C10.0479 9.03002 10.2917 9.25502 10.2917 9.53002C10.2917 9.80502 10.0479 10.03 9.75 10.03Z" fill="white"/>
</svg>
