<svg width="16" height="16" viewBox="0 0 16 16" fill="none" xmlns="http://www.w3.org/2000/svg">
<g clip-path="url(#clip0_20765_690)">
<path fill-rule="evenodd" clip-rule="evenodd" d="M7.33332 0.666626H8.66666V2.66663H7.33332V0.666626ZM7.33332 13.3333H8.66666V15.3333H7.33332V13.3333ZM2.34332 3.28596L3.28599 2.34329L4.69999 3.75729L3.75732 4.69996L2.34332 3.28663V3.28596ZM11.3 12.2426L12.2427 11.3L13.6567 12.714L12.714 13.6566L11.3 12.2426ZM12.714 2.34263L13.6567 3.28596L12.2427 4.69996L11.3 3.75729L12.714 2.34329V2.34263ZM3.75732 11.3L4.69999 12.2426L3.28599 13.6566L2.34332 12.714L3.75732 11.3ZM15.3333 7.33329V8.66663H13.3333V7.33329H15.3333ZM7.99999 3.99996C10.2091 3.99996 12 5.79082 12 7.99996C12 10.2091 10.2091 12 7.99999 12C5.79085 12 3.99999 10.2091 3.99999 7.99996C3.99999 5.79082 5.79085 3.99996 7.99999 3.99996ZM7.99999 5.33329C6.52723 5.33329 5.33332 6.5272 5.33332 7.99996C5.33332 9.4294 6.45803 10.5962 7.87079 10.6636L7.99999 10.6666V5.33329ZM2.66666 7.33329V8.66663H0.666656V7.33329H2.66666Z" fill="#038278"/>
</g>
<defs>
<clipPath id="clip0_20765_690">
<rect width="16" height="16" fill="white"/>
</clipPath>
</defs>
</svg>
