<svg width="16" height="16" viewBox="0 0 16 16" fill="none" xmlns="http://www.w3.org/2000/svg">
<g clip-path="url(#clip0_20765_355)">
<path fill-rule="evenodd" clip-rule="evenodd" d="M7.33342 0.666626H8.66675V2.66663H7.33342V0.666626ZM7.33342 13.3333H8.66675V15.3333H7.33342V13.3333ZM2.34341 3.28596L3.28608 2.34329L4.70008 3.75729L3.75741 4.69996L2.34341 3.28663V3.28596ZM11.3001 12.2426L12.2427 11.3L13.6567 12.714L12.7141 13.6566L11.3001 12.2426ZM12.7141 2.34263L13.6567 3.28596L12.2427 4.69996L11.3001 3.75729L12.7141 2.34329V2.34263ZM3.75741 11.3L4.70008 12.2426L3.28608 13.6566L2.34341 12.714L3.75741 11.3ZM15.3334 7.33329V8.66663H13.3334V7.33329H15.3334ZM8.00008 3.99996C10.2092 3.99996 12.0001 5.79082 12.0001 7.99996C12.0001 10.2091 10.2092 12 8.00008 12C5.79094 12 4.00008 10.2091 4.00008 7.99996C4.00008 5.79082 5.79094 3.99996 8.00008 3.99996ZM8.00008 5.33329C6.52732 5.33329 5.33342 6.5272 5.33342 7.99996C5.33342 9.4294 6.45813 10.5962 7.87088 10.6636L8.00008 10.6666V5.33329ZM2.66675 7.33329V8.66663H0.666748V7.33329H2.66675Z" fill="#FAFAFA"/>
</g>
<defs>
<clipPath id="clip0_20765_355">
<rect width="16" height="16" fill="white"/>
</clipPath>
</defs>
</svg>
