<svg width="24" height="24" viewBox="0 0 24 24" fill="none" xmlns="http://www.w3.org/2000/svg">
<g clip-path="url(#clip0_7748_73950)">
<path d="M10.0938 15.8905L11.5138 14.4705C8.78376 12.0405 6.99376 10.4005 6.99376 8.84048C6.99376 7.79048 7.79376 6.99048 8.84376 6.99048C9.95376 6.99048 10.3838 7.64048 11.5238 8.99048H12.4538C13.5738 7.68048 13.9838 6.99048 15.1338 6.99048C16.0038 6.99048 16.6838 7.53048 16.9038 8.31048C17.2538 8.27048 17.5838 8.25048 17.9038 8.25048C18.2638 8.25048 18.6038 8.28048 18.9338 8.33048C18.6938 6.42048 17.1238 4.99048 15.1438 4.99048C15.0238 4.99048 14.9138 5.02048 14.7938 5.03048C14.9138 4.70048 14.9938 4.36048 14.9938 3.99048C14.9938 2.33048 13.6538 0.990479 11.9938 0.990479C10.3338 0.990479 8.99376 2.33048 8.99376 3.99048C8.99376 4.36048 9.07376 4.70048 9.19376 5.03048C9.07376 5.02048 8.96376 4.99048 8.84376 4.99048C6.68376 4.99048 4.99376 6.68048 4.99376 8.84048C4.99376 11.2605 7.03376 13.1505 10.0938 15.8905Z" fill="black"/>
<path d="M22.4938 16.2305C22.1738 16.0505 21.8338 15.9405 21.4938 15.8805C21.5638 15.7805 21.6438 15.7005 21.7038 15.6005C22.7838 13.7305 22.1638 11.4205 20.2938 10.3405C18.2038 9.13048 15.5338 9.95048 11.6438 11.2405L12.1638 13.1805C15.6338 12.0405 17.9538 11.3005 19.3038 12.0805C20.2138 12.6105 20.5038 13.6905 19.9838 14.6105C19.4238 15.5705 18.6538 15.6105 16.9138 15.9305L16.4438 16.7405C17.0238 18.3605 17.4138 19.0705 16.8338 20.0605C16.3038 20.9705 15.2238 21.2605 14.3038 20.7405C14.2438 20.7105 14.1938 20.6505 14.1338 20.6105C13.8338 21.2805 13.4938 21.8505 13.1038 22.3405C13.1738 22.3805 13.2338 22.4305 13.3038 22.4805C15.1738 23.5605 17.4838 22.9405 18.5638 21.0705C18.6238 20.9705 18.6538 20.8605 18.7038 20.7505C18.9238 21.0205 19.1838 21.2605 19.5038 21.4405C20.9338 22.2705 22.7738 21.7805 23.6038 20.3405C24.4338 18.9005 23.9238 17.0505 22.4938 16.2305Z" fill="black"/>
<path d="M12.3138 14.0005C11.5738 17.5805 11.0438 19.9505 9.69376 20.7305C8.78376 21.2605 7.69376 20.9705 7.16376 20.0505C6.60376 19.0905 6.96376 18.3905 7.55376 16.7305L7.09376 15.9205C5.39376 15.6105 4.59376 15.5905 4.02376 14.6005C3.49376 13.6905 3.78376 12.6005 4.70376 12.0705C4.79376 12.0205 4.89376 11.9905 4.99376 11.9605C4.64376 11.4005 4.35376 10.7905 4.17376 10.1105C4.01376 10.1805 3.85376 10.2505 3.69376 10.3405C1.82376 11.4205 1.20376 13.7305 2.28376 15.6005C2.34376 15.7005 2.42376 15.7805 2.49376 15.8805C2.15376 15.9405 1.81376 16.0505 1.49376 16.2305C0.0637625 17.0605 -0.436237 18.8905 0.393763 20.3305C1.22376 21.7705 3.05376 22.2605 4.49376 21.4305C4.81376 21.2505 5.07376 21.0105 5.29376 20.7405C5.34376 20.8505 5.37376 20.9605 5.43376 21.0605C6.51376 22.9305 8.82376 23.5505 10.6938 22.4705C12.7838 21.2605 13.4038 18.5405 14.2438 14.5305L12.3138 14.0005Z" fill="black"/>
</g>
<defs>
<clipPath id="clip0_7748_73950">
<rect width="24" height="24" fill="white" transform="translate(0 0.000488281)"/>
</clipPath>
</defs>
</svg>
