<svg width="24" height="24" viewBox="0 0 24 24" fill="none" xmlns="http://www.w3.org/2000/svg">
<path d="M7 16.0005H14V18.0005H7V16.0005ZM7 12.0005H17V14.0005H7V12.0005ZM7 8.00049H17V10.0005H7V8.00049ZM19 4.00049H14.82C14.4 2.84049 13.3 2.00049 12 2.00049C10.7 2.00049 9.6 2.84049 9.18 4.00049H5C4.86 4.00049 4.73 4.01049 4.6 4.04049C4.21 4.12049 3.86 4.32049 3.59 4.59049C3.41 4.77049 3.26 4.99049 3.16 5.23049C3.06 5.46049 3 5.72049 3 6.00049V20.0005C3 20.2705 3.06 20.5405 3.16 20.7805C3.26 21.0205 3.41 21.2305 3.59 21.4205C3.86 21.6905 4.21 21.8905 4.6 21.9705C4.73 21.9905 4.86 22.0005 5 22.0005H19C20.1 22.0005 21 21.1005 21 20.0005V6.00049C21 4.90049 20.1 4.00049 19 4.00049ZM12 3.75049C12.41 3.75049 12.75 4.09049 12.75 4.50049C12.75 4.91049 12.41 5.25049 12 5.25049C11.59 5.25049 11.25 4.91049 11.25 4.50049C11.25 4.09049 11.59 3.75049 12 3.75049ZM19 20.0005H5V6.00049H19V20.0005Z" fill="black"/>
</svg>
