<svg width="24" height="24" viewBox="0 0 24 24" fill="none" xmlns="http://www.w3.org/2000/svg">
<path d="M9.68 13.1905L12 11.4305L14.31 13.1905L13.43 10.3405L15.75 8.50049H12.91L12 5.69049L11.09 8.50049H8.25L10.56 10.3405L9.68 13.1905ZM20 9.50049C20 5.08049 16.42 1.50049 12 1.50049C7.58 1.50049 4 5.08049 4 9.50049C4 11.5305 4.76 13.3705 6 14.7805V22.5005L12 20.5005L18 22.5005V14.7805C19.24 13.3705 20 11.5305 20 9.50049ZM12 3.50049C15.31 3.50049 18 6.19049 18 9.50049C18 12.8105 15.31 15.5005 12 15.5005C8.69 15.5005 6 12.8105 6 9.50049C6 6.19049 8.69 3.50049 12 3.50049ZM12 18.5005L8 19.5205V16.4205C9.18 17.1005 10.54 17.5005 12 17.5005C13.46 17.5005 14.82 17.1005 16 16.4205V19.5205L12 18.5005Z" fill="black"/>
</svg>
