<svg width="37" height="36" viewBox="0 0 37 36" fill="none" xmlns="http://www.w3.org/2000/svg">
<g clip-path="url(#clip0_8182_97509)">
<path d="M6.53906 19.5C8.18906 19.5 9.53906 18.15 9.53906 16.5C9.53906 14.85 8.18906 13.5 6.53906 13.5C4.88906 13.5 3.53906 14.85 3.53906 16.5C3.53906 18.15 4.88906 19.5 6.53906 19.5ZM8.23406 21.15C7.67906 21.06 7.12406 21 6.53906 21C5.05406 21 3.64406 21.315 2.36906 21.87C1.25906 22.35 0.539062 23.43 0.539062 24.645V27H7.28906V24.585C7.28906 23.34 7.63406 22.17 8.23406 21.15ZM30.5391 19.5C32.1891 19.5 33.5391 18.15 33.5391 16.5C33.5391 14.85 32.1891 13.5 30.5391 13.5C28.8891 13.5 27.5391 14.85 27.5391 16.5C27.5391 18.15 28.8891 19.5 30.5391 19.5ZM36.5391 24.645C36.5391 23.43 35.8191 22.35 34.7091 21.87C33.4341 21.315 32.0241 21 30.5391 21C29.9541 21 29.3991 21.06 28.8441 21.15C29.4441 22.17 29.7891 23.34 29.7891 24.585V27H36.5391V24.645ZM24.8991 20.475C23.1441 19.695 20.9841 19.125 18.5391 19.125C16.0941 19.125 13.9341 19.71 12.1791 20.475C10.5591 21.195 9.53906 22.815 9.53906 24.585V27H27.5391V24.585C27.5391 22.815 26.5191 21.195 24.8991 20.475ZM12.6441 24C12.7791 23.655 12.8391 23.415 14.0091 22.965C15.4641 22.395 16.9941 22.125 18.5391 22.125C20.0841 22.125 21.6141 22.395 23.0691 22.965C24.2241 23.415 24.2841 23.655 24.4341 24H12.6441ZM18.5391 12C19.3641 12 20.0391 12.675 20.0391 13.5C20.0391 14.325 19.3641 15 18.5391 15C17.7141 15 17.0391 14.325 17.0391 13.5C17.0391 12.675 17.7141 12 18.5391 12ZM18.5391 9C16.0491 9 14.0391 11.01 14.0391 13.5C14.0391 15.99 16.0491 18 18.5391 18C21.0291 18 23.0391 15.99 23.0391 13.5C23.0391 11.01 21.0291 9 18.5391 9Z" fill="black"/>
</g>
<defs>
<clipPath id="clip0_8182_97509">
<rect width="36" height="36" fill="white" transform="translate(0.539062)"/>
</clipPath>
</defs>
</svg>
