<svg width="12" height="12" viewBox="0 0 12 12" fill="none" xmlns="http://www.w3.org/2000/svg">
<path d="M6 1.25C4 1.25 2 1.5 2 3.25V8C2 8.965 2.785 9.75 3.75 9.75L3 10.5V10.75H9V10.5L8.25 9.75C9.215 9.75 10 8.965 10 8V3.25C10 1.5 8.21 1.25 6 1.25ZM8.83 2.75H3.215C3.52 2.49 4.245 2.25 6 2.25C7.855 2.25 8.56 2.48 8.83 2.75ZM5.5 3.75V5.25H3V3.75H5.5ZM6.5 3.75H9V5.25H6.5V3.75ZM8.25 8.75H3.75C3.335 8.75 3 8.415 3 8V6.25H9V8C9 8.415 8.665 8.75 8.25 8.75Z" fill="black"/>
<path d="M4.25 8.25C4.66421 8.25 5 7.91421 5 7.5C5 7.08579 4.66421 6.75 4.25 6.75C3.83579 6.75 3.5 7.08579 3.5 7.5C3.5 7.91421 3.83579 8.25 4.25 8.25Z" fill="black"/>
<path d="M7.75 8.25C8.16421 8.25 8.5 7.91421 8.5 7.5C8.5 7.08579 8.16421 6.75 7.75 6.75C7.33579 6.75 7 7.08579 7 7.5C7 7.91421 7.33579 8.25 7.75 8.25Z" fill="black"/>
</svg>
