<svg width="17" height="16" viewBox="0 0 17 16" fill="none" xmlns="http://www.w3.org/2000/svg">
<path fill-rule="evenodd" clip-rule="evenodd" d="M10.6665 2.6665C11.0347 2.6665 11.3332 2.96498 11.3332 3.33317V6.13317L14.8085 3.69984C14.9104 3.62843 15.0435 3.61969 15.1538 3.67717C15.2642 3.73464 15.3332 3.84877 15.3332 3.97317V12.0265C15.3332 12.1509 15.2642 12.265 15.1538 12.3225C15.0435 12.38 14.9104 12.3712 14.8085 12.2998L11.3332 9.8665V12.6665C11.3332 13.0347 11.0347 13.3332 10.6665 13.3332H1.33317C0.964981 13.3332 0.666504 13.0347 0.666504 12.6665V3.33317C0.666504 2.96498 0.964981 2.6665 1.33317 2.6665H10.6665ZM9.99984 3.99984H1.99984V11.9998H9.99984V3.99984ZM4.93317 5.88584C4.98391 5.8857 5.03363 5.90004 5.0765 5.92717L7.97984 7.77517C8.05648 7.82418 8.10285 7.90887 8.10285 7.99984C8.10285 8.09081 8.05648 8.1755 7.97984 8.2245L5.0765 10.0732C4.99413 10.1257 4.88964 10.1289 4.80414 10.0817C4.71865 10.0344 4.66584 9.94419 4.6665 9.8465V6.15317C4.6665 6.00584 4.7865 5.8865 4.93317 5.8865V5.88584ZM13.9998 5.89317L11.3332 7.75984V8.2385L13.9998 10.1052V5.89317Z" fill="#6E3F99"/>
</svg>
