<svg id="Layer_1" enable-background="new 0 0 100 100" viewBox="0 0 100 100" xmlns="http://www.w3.org/2000/svg" xmlns:xlink="http://www.w3.org/1999/xlink"><linearGradient id="SVGID_1_" gradientUnits="userSpaceOnUse" x1="-.868" x2="98.753" y1="4.463" y2="107.493"><stop offset="0" stop-color="#97e0ff"/><stop offset="1" stop-color="#1075ff"/></linearGradient><path d="m52.1948929 3.4679744c-1.1113091-1.2224648-3.0006294-1.2919056-4.2091866-.1805971-.0694427.0555358-.1249771.1111562-.1805992.1805971-1.3613434 1.6670053-33.0897217 40.0494118-33.0897217 58.7474098.0278082 19.4760068 15.808609 35.2568067 35.2846146 35.2846158 19.4760056-.0278091 35.2568054-15.808609 35.2846146-35.2846146 0-18.697998-31.7283783-57.0804057-33.0897217-58.747411zm-17.71175 80.7099736c-.5278854.6251373-1.3058128 1.0002365-2.1254501.9863358-.6945801 0-1.3613472-.2361374-1.8892345-.6806793-5.7650337-5.0704498-9.3351765-12.1968307-9.9186001-19.8371964-.1805973-1.5002289.889082-2.8477554 2.3893948-3.0144463.0555363-.0139046.1249771-.0139046.1805973-.0139046 1.4863224-.1805992 2.8477535.88908 3.0144463 2.3754883.0139046.0694427.0139046.1249771.0139046.1945038.5139809 6.1816788 3.4172726 11.9050827 8.0987244 15.9753036 1.1669271 1.0418626 1.264179 2.8338471.2362173 4.0145951z" fill="url(#SVGID_1_)"/></svg>