<svg width="360" height="142" viewBox="0 0 360 142" fill="none" xmlns="http://www.w3.org/2000/svg">
<rect width="360" height="142" fill="#E4ECF4"/>
<g clip-path="url(#clip0_4342_18708)">
<path d="M124 84.8408H81.8945" stroke="#0063CB" stroke-linecap="round" stroke-linejoin="round"/>
<path d="M81.2938 84.8408H75.5098" stroke="#0063CB" stroke-linecap="round" stroke-linejoin="round"/>
<path d="M68.4508 54.4488H68.4404C68.3975 54.5969 68.3457 54.7422 68.2852 54.884C68.2813 54.6688 68.2569 54.4545 68.2124 54.244C68.2033 54.1956 68.183 54.15 68.153 54.111C68.1229 54.072 68.0841 54.0406 68.0397 54.0194C67.9953 53.9982 67.9464 53.9877 67.8972 53.989C67.848 53.9902 67.7998 54.003 67.7564 54.0264L66.5332 54.628C66.2959 54.7502 66.0329 54.8141 65.766 54.8144C65.4265 54.8137 65.0947 54.7127 64.8124 54.524C64.1381 54.0716 63.3445 53.83 62.5324 53.83C61.7204 53.83 60.9267 54.0716 60.2524 54.524C60.0007 54.6927 59.7086 54.7913 59.4061 54.8095C59.1037 54.8278 58.8018 54.7652 58.5316 54.628L57.3084 54.0264C57.2648 53.9998 57.2148 53.9854 57.1636 53.9848C57.0898 53.9855 57.0185 54.0117 56.9618 54.0589C56.9051 54.1061 56.8664 54.1715 56.8524 54.244C56.8129 54.4459 56.7885 54.6505 56.7796 54.856C56.7275 54.7241 56.6793 54.5907 56.6348 54.456C54.6652 54.456 54.5508 51.3456 56.3236 51.3456V50.0952C56.3214 49.8628 56.335 49.6305 56.3644 49.4L56.3748 49.328C56.645 49.3778 56.9193 49.4019 57.194 49.4H68.026C68.2549 49.3981 68.4834 49.381 68.71 49.3488C68.7195 49.3641 68.7232 49.3822 68.7204 49.4C68.7501 49.6305 68.764 49.8628 68.762 50.0952V51.3384C70.534 51.3384 70.41 54.4488 68.4508 54.4488Z" stroke="#0063CB" stroke-linecap="round" stroke-linejoin="round"/>
<path d="M68.2952 55.0496C68.2955 55.727 68.1281 56.3939 67.8078 56.9908C67.4876 57.5877 67.0245 58.096 66.46 58.4704C65.519 59.0922 64.4159 59.4238 63.288 59.424H61.7752C60.6473 59.4238 59.5442 59.0922 58.6032 58.4704C58.0385 58.0962 57.5753 57.5879 57.2551 56.991C56.9348 56.394 56.7675 55.727 56.768 55.0496C56.7663 54.9838 56.7698 54.918 56.7784 54.8528C56.7873 54.6473 56.8116 54.4427 56.8512 54.2408C56.8652 54.1683 56.9039 54.1029 56.9606 54.0557C57.0173 54.0085 57.0886 53.9823 57.1624 53.9816C57.2135 53.9822 57.2636 53.9966 57.3072 54.0232L58.5304 54.6248C58.8006 54.762 59.1025 54.8246 59.4049 54.8063C59.7074 54.7881 59.9995 54.6895 60.2512 54.5208C60.9255 54.0684 61.7192 53.8268 62.5312 53.8268C63.3432 53.8268 64.1369 54.0684 64.8112 54.5208C65.0935 54.7095 65.4253 54.8105 65.7648 54.8112C66.0317 54.8109 66.2947 54.747 66.532 54.6248L67.7552 54.0232C67.7985 53.9998 67.8468 53.987 67.896 53.9858C67.9452 53.9845 67.994 53.995 68.0385 54.0162C68.0829 54.0374 68.1217 54.0688 68.1517 54.1078C68.1818 54.1468 68.2021 54.1924 68.2112 54.2408C68.2557 54.4513 68.2801 54.6656 68.284 54.8808C68.2931 54.9366 68.2969 54.9931 68.2952 55.0496Z" stroke="#0063CB" stroke-linecap="round" stroke-linejoin="round"/>
<path d="M60.5167 50.7216C60.3629 50.7215 60.2124 50.7669 60.0845 50.8523C59.9565 50.9376 59.8567 51.059 59.7977 51.2011C59.7387 51.3432 59.7232 51.4995 59.7531 51.6504C59.783 51.8013 59.857 51.94 59.9658 52.0488C60.0745 52.1576 60.213 52.2317 60.3639 52.2618C60.5147 52.2919 60.6711 52.2765 60.8133 52.2177C60.9554 52.1589 61.0769 52.0592 61.1624 51.9313C61.2479 51.8034 61.2935 51.653 61.2935 51.4992C61.2935 51.2931 61.2117 51.0955 61.066 50.9497C60.9204 50.8039 60.7228 50.7218 60.5167 50.7216Z" fill="#0063CB"/>
<path d="M64.5598 50.7216C64.406 50.7216 64.2557 50.7672 64.1278 50.8527C63.9999 50.9381 63.9003 51.0596 63.8414 51.2016C63.7826 51.3437 63.7672 51.5001 63.7972 51.6509C63.8272 51.8018 63.9012 51.9403 64.01 52.0491C64.1187 52.1578 64.2573 52.2319 64.4081 52.2619C64.559 52.2919 64.7153 52.2765 64.8574 52.2176C64.9995 52.1588 65.1209 52.0591 65.2064 51.9312C65.2918 51.8034 65.3374 51.653 65.3374 51.4992C65.3374 51.3971 65.3173 51.296 65.2782 51.2016C65.2392 51.1073 65.1819 51.0216 65.1097 50.9494C65.0375 50.8772 64.9517 50.8199 64.8574 50.7808C64.7631 50.7417 64.6619 50.7216 64.5598 50.7216Z" fill="#0063CB"/>
<path d="M121.502 66.7528V73.6144H120.496C119.905 72.5897 119.079 71.7199 118.087 71.0763C117.094 70.4328 115.963 70.0339 114.786 69.9125C113.61 69.791 112.421 69.9505 111.318 70.3778C110.215 70.8051 109.229 71.488 108.441 72.3704H105.29L103.891 60.616L109.651 61.1448L112.149 61.3624L116.513 61.7624C117.169 61.7614 117.818 61.8897 118.424 62.1402C119.03 62.3906 119.58 62.7582 120.044 63.2218C120.507 63.6855 120.874 64.236 121.125 64.842C121.375 65.4479 121.503 66.0973 121.502 66.7528Z" stroke="#0063CB" stroke-linecap="round" stroke-linejoin="round"/>
<path d="M103.89 60.616L102.17 46.1768H79.096L77.9248 59.0304C79.0576 58.7759 80.215 58.6471 81.376 58.6464C85.1872 58.6508 88.8653 60.0485 91.7177 62.5763C94.57 65.104 96.3998 68.5874 96.8624 72.3704H105.29L103.89 60.616ZM101.776 69.52C101.681 69.6306 101.563 69.7194 101.431 69.7803C101.299 69.8412 101.155 69.8728 101.009 69.8728H100.56C100.334 69.8716 100.115 69.7972 99.936 69.6607C99.7565 69.5242 99.6262 69.333 99.5648 69.116C98.7149 66.1384 97.1408 63.4176 94.9833 61.1966C92.8257 58.9755 90.1517 57.3232 87.2 56.3872C85.3861 55.8144 83.495 55.5241 81.5928 55.5264C81.5209 55.5265 81.4497 55.5118 81.3837 55.4833C81.3176 55.4548 81.2581 55.4132 81.2088 55.3608C81.1594 55.3086 81.1218 55.2463 81.0986 55.1783C81.0755 55.1102 81.0672 55.038 81.0744 54.9664L81.5096 49.6184C81.5311 49.3577 81.6501 49.1147 81.8429 48.9378C82.0357 48.7609 82.288 48.6631 82.5496 48.664H98.76C99.0143 48.6659 99.259 48.7609 99.448 48.931C99.6369 49.1011 99.7571 49.3346 99.7856 49.5872L102.035 68.712C102.051 68.8574 102.036 69.0044 101.992 69.1437C101.947 69.2829 101.874 69.4111 101.776 69.52Z" stroke="#0063CB" stroke-linecap="round" stroke-linejoin="round"/>
<path d="M106.534 77.3568C106.53 77.774 106.568 78.1906 106.648 78.6H90.3203V77.7504C90.5938 77.07 90.7886 76.3606 90.9011 75.636L91.3259 75.5632C91.5673 75.521 91.7861 75.3949 91.9436 75.2071C92.1011 75.0193 92.1872 74.7819 92.1867 74.5368V73.936C92.1874 73.692 92.1012 73.4557 91.9434 73.2695C91.7857 73.0833 91.5668 72.9594 91.3259 72.92L90.9011 72.8472C90.8803 72.6816 90.8491 72.5272 90.8211 72.3672H108.441C107.212 73.7386 106.533 75.5154 106.534 77.3568Z" stroke="#0063CB" stroke-linecap="round" stroke-linejoin="round"/>
<path d="M124 74.6512V76.32C124 76.5958 123.891 76.8604 123.695 77.0554C123.5 77.2504 123.236 77.36 122.96 77.36H121.502C121.506 76.0452 121.159 74.753 120.496 73.6176H122.96C123.235 73.6176 123.498 73.7263 123.693 73.92C123.888 74.1136 123.998 74.3765 124 74.6512Z" stroke="#0063CB" stroke-linecap="round" stroke-linejoin="round"/>
<path d="M104.668 45.8552C104.629 45.9502 104.562 46.0313 104.477 46.0883C104.392 46.1453 104.291 46.1755 104.188 46.1752H77.7075C77.6047 46.1757 77.5041 46.1456 77.4186 46.0885C77.3331 46.0315 77.2665 45.9503 77.2275 45.8552C77.1883 45.7627 77.1763 45.6609 77.1927 45.5617C77.2091 45.4626 77.2534 45.3702 77.3203 45.2952C77.7725 44.7767 78.3326 44.3633 78.9614 44.0841C79.5902 43.8048 80.2724 43.6663 80.9603 43.6784H100.926C101.614 43.6631 102.297 43.8001 102.926 44.0796C103.555 44.3591 104.114 44.7742 104.564 45.2952C104.633 45.3691 104.679 45.461 104.698 45.5601C104.716 45.6593 104.706 45.7616 104.668 45.8552Z" stroke="#0063CB" stroke-linecap="round" stroke-linejoin="round"/>
<path d="M120.496 73.6144C119.671 72.1891 118.4 71.0754 116.879 70.4459C115.357 69.8165 113.67 69.7063 112.08 70.1326C110.489 70.5589 109.084 71.4978 108.081 72.8039C107.079 74.1099 106.535 75.7102 106.533 77.3568C106.529 77.774 106.568 78.1905 106.648 78.6C106.959 80.4505 107.953 82.1166 109.435 83.2677C110.917 84.4188 112.777 84.9708 114.647 84.8142C116.517 84.6576 118.26 83.8038 119.529 82.4223C120.799 81.0407 121.503 79.2324 121.501 77.356C121.506 76.0414 121.159 74.7496 120.496 73.6144ZM114.016 81.0984C113.242 81.0974 112.488 80.8566 111.858 80.4091C111.227 79.9617 110.75 79.3296 110.493 78.6C110.347 78.2017 110.273 77.7804 110.276 77.356C110.276 76.6158 110.495 75.8921 110.906 75.2765C111.317 74.661 111.902 74.1812 112.586 73.8978C113.27 73.6145 114.022 73.5403 114.748 73.6847C115.474 73.829 116.141 74.1855 116.665 74.7089C117.188 75.2324 117.544 75.8993 117.689 76.6253C117.833 77.3513 117.759 78.1039 117.476 78.7877C117.192 79.4716 116.713 80.0561 116.097 80.4672C115.481 80.8784 114.758 81.0978 114.017 81.0976L114.016 81.0984Z" stroke="#0063CB" stroke-linecap="round" stroke-linejoin="round"/>
<path d="M115.895 74.12C115.326 73.7922 114.681 73.6195 114.025 73.6194C113.368 73.6192 112.723 73.7915 112.154 74.119C111.585 74.4466 111.112 74.9179 110.783 75.4857C110.453 76.0535 110.279 76.6979 110.276 77.3544C110.274 77.7788 110.347 78.2002 110.494 78.5984C110.695 79.1664 111.029 79.6776 111.47 80.0884C111.911 80.4992 112.444 80.7975 113.025 80.9579C113.605 81.1182 114.216 81.1359 114.805 81.0095C115.394 80.883 115.944 80.6161 116.407 80.2315C116.871 79.8469 117.235 79.356 117.468 78.8006C117.701 78.2451 117.796 77.6416 117.746 77.0413C117.696 76.441 117.501 75.8618 117.179 75.3529C116.857 74.844 116.416 74.4205 115.895 74.1184V74.12ZM114.018 78.6C113.772 78.598 113.533 78.5233 113.33 78.3853C113.127 78.2474 112.969 78.0524 112.876 77.8249C112.784 77.5974 112.76 77.3476 112.81 77.107C112.859 76.8664 112.978 76.6457 113.152 76.4728C113.327 76.2998 113.549 76.1824 113.79 76.1352C114.031 76.088 114.28 76.1133 114.507 76.2077C114.734 76.3022 114.927 76.4616 115.063 76.666C115.2 76.8703 115.272 77.1104 115.272 77.356C115.272 77.5201 115.239 77.6825 115.176 77.8339C115.112 77.9852 115.02 78.1226 114.903 78.2382C114.787 78.3537 114.649 78.4451 114.497 78.5072C114.345 78.5693 114.182 78.6009 114.018 78.6Z" stroke="#0063CB" stroke-linecap="round" stroke-linejoin="round"/>
<path d="M115.272 77.3568C115.273 77.604 115.201 77.8459 115.064 78.0521C114.928 78.2582 114.733 78.4192 114.505 78.5148C114.277 78.6104 114.026 78.6362 113.783 78.589C113.541 78.5418 113.318 78.4237 113.142 78.2497C112.967 78.0756 112.847 77.8534 112.797 77.6112C112.748 77.3689 112.772 77.1176 112.866 76.8888C112.959 76.6601 113.119 76.4643 113.324 76.3261C113.529 76.188 113.77 76.1138 114.017 76.1128C114.348 76.1117 114.667 76.2421 114.902 76.4754C115.137 76.7086 115.27 77.0256 115.272 77.3568Z" stroke="#0063CB" stroke-linecap="round" stroke-linejoin="round"/>
<path d="M71.7988 61.96C73.595 60.535 75.6889 59.5327 77.9252 59.0272C79.058 58.7727 80.2154 58.6439 81.3764 58.6432C85.1881 58.6477 88.8666 60.0459 91.7191 62.5743C94.5715 65.1027 96.4009 68.5868 96.8628 72.3704H94.334C93.8878 69.2523 92.3311 66.3999 89.9502 64.3376C87.5692 62.2753 84.524 61.1416 81.374 61.1448C78.4909 61.1359 75.6881 62.0936 73.4132 63.8648" stroke="#0063CB" stroke-linecap="round" stroke-linejoin="round"/>
<path d="M83.4612 74.2384C83.4612 74.6085 83.3514 74.9703 83.1458 75.278C82.9402 75.5857 82.6479 75.8256 82.306 75.9672C81.9641 76.1088 81.5879 76.1459 81.2249 76.0737C80.8619 76.0015 80.5285 75.8232 80.2668 75.5616C80.0051 75.2999 79.8269 74.9664 79.7547 74.6035C79.6825 74.2405 79.7196 73.8643 79.8612 73.5223C80.0028 73.1804 80.2427 72.8882 80.5504 72.6826C80.8581 72.477 81.2199 72.3672 81.59 72.3672C82.0862 72.3672 82.5622 72.5644 82.9131 72.9153C83.264 73.2662 83.4612 73.7421 83.4612 74.2384Z" stroke="#0063CB" stroke-linecap="round" stroke-linejoin="round"/>
<path d="M81.5906 69.872C81.4672 69.8719 81.3464 69.9083 81.2437 69.9768C81.141 70.0453 81.0609 70.1427 81.0135 70.2567C80.9662 70.3707 80.9537 70.4962 80.9777 70.6173C81.0017 70.7384 81.0611 70.8496 81.1483 70.937C81.2355 71.0243 81.3467 71.0838 81.4678 71.108C81.5889 71.1321 81.7144 71.1198 81.8284 71.0726C81.9425 71.0254 82.04 70.9454 82.1086 70.8428C82.1772 70.7401 82.2138 70.6195 82.2138 70.496C82.2138 70.3307 82.1482 70.1721 82.0313 70.0551C81.9145 69.9381 81.756 69.8722 81.5906 69.872Z" fill="#0063CB"/>
<path d="M84.2401 70.968C84.0957 70.9678 83.9557 71.0177 83.844 71.1091C83.7323 71.2006 83.6557 71.3279 83.6274 71.4695C83.599 71.6111 83.6206 71.7581 83.6885 71.8855C83.7565 72.0129 83.8664 72.1128 83.9998 72.1682C84.1331 72.2236 84.2815 72.2311 84.4197 72.1894C84.5579 72.1476 84.6774 72.0592 84.7577 71.9393C84.838 71.8193 84.8743 71.6752 84.8603 71.5315C84.8463 71.3878 84.7829 71.2534 84.6809 71.1512C84.6232 71.093 84.5546 71.0468 84.4789 71.0154C84.4032 70.9839 84.3221 70.9678 84.2401 70.968Z" fill="#0063CB"/>
<path d="M85.3318 73.6144C85.2084 73.6143 85.0877 73.6507 84.9849 73.7192C84.8822 73.7877 84.8021 73.8851 84.7548 73.9991C84.7074 74.1131 84.6949 74.2386 84.7189 74.3597C84.7429 74.4808 84.8023 74.592 84.8895 74.6794C84.9768 74.7667 85.0879 74.8262 85.209 74.8504C85.3301 74.8745 85.4556 74.8622 85.5696 74.815C85.6837 74.7678 85.7812 74.6878 85.8498 74.5852C85.9184 74.4825 85.955 74.3619 85.955 74.2384C85.955 74.0731 85.8894 73.9145 85.7725 73.7975C85.6557 73.6805 85.4972 73.6146 85.3318 73.6144Z" fill="#0063CB"/>
<path d="M84.2403 76.26C84.0957 76.2597 83.9555 76.3096 83.8435 76.4011C83.7316 76.4927 83.6549 76.6202 83.6265 76.762C83.598 76.9037 83.6196 77.051 83.6876 77.1786C83.7556 77.3062 83.8658 77.4063 83.9993 77.4618C84.1328 77.5173 84.2814 77.5247 84.4198 77.4829C84.5582 77.4411 84.6778 77.3525 84.7583 77.2324C84.8387 77.1122 84.875 76.9679 84.8609 76.824C84.8468 76.6801 84.7833 76.5455 84.6811 76.4432C84.6233 76.3851 84.5546 76.339 84.4789 76.3076C84.4033 76.2762 84.3222 76.26 84.2403 76.26Z" fill="#0063CB"/>
<path d="M81.5906 77.356C81.4672 77.3559 81.3464 77.3923 81.2437 77.4608C81.141 77.5293 81.0609 77.6267 81.0135 77.7407C80.9662 77.8547 80.9537 77.9802 80.9777 78.1013C81.0017 78.2224 81.0611 78.3336 81.1483 78.421C81.2355 78.5083 81.3467 78.5678 81.4678 78.592C81.5889 78.6161 81.7144 78.6038 81.8284 78.5566C81.9425 78.5094 82.04 78.4294 82.1086 78.3268C82.1772 78.2241 82.2138 78.1035 82.2138 77.98C82.2138 77.8147 82.1482 77.6561 82.0313 77.5391C81.9145 77.4221 81.756 77.3562 81.5906 77.356Z" fill="#0063CB"/>
<path d="M78.9444 76.26C78.7998 76.2597 78.6596 76.3096 78.5476 76.4011C78.4357 76.4927 78.359 76.6202 78.3306 76.762C78.3021 76.9037 78.3237 77.051 78.3917 77.1786C78.4597 77.3062 78.5699 77.4063 78.7034 77.4618C78.8369 77.5173 78.9855 77.5247 79.1239 77.4829C79.2623 77.4411 79.3819 77.3525 79.4624 77.2324C79.5428 77.1122 79.5791 76.9679 79.565 76.824C79.5509 76.6801 79.4874 76.5455 79.3852 76.4432C79.2683 76.3262 79.1098 76.2603 78.9444 76.26Z" fill="#0063CB"/>
<path d="M77.8484 73.6144C77.725 73.6143 77.6043 73.6507 77.5015 73.7192C77.3988 73.7877 77.3187 73.8851 77.2714 73.9991C77.224 74.1131 77.2115 74.2386 77.2355 74.3597C77.2595 74.4808 77.3189 74.592 77.4061 74.6794C77.4934 74.7667 77.6045 74.8262 77.7256 74.8504C77.8467 74.8745 77.9722 74.8622 78.0862 74.815C78.2003 74.7678 78.2978 74.6878 78.3664 74.5852C78.435 74.4825 78.4716 74.3619 78.4716 74.2384C78.4716 74.0731 78.406 73.9145 78.2892 73.7975C78.1723 73.6805 78.0138 73.6146 77.8484 73.6144Z" fill="#0063CB"/>
<path d="M78.9442 70.968C78.7998 70.9678 78.6599 71.0177 78.5481 71.1091C78.4364 71.2006 78.3598 71.3279 78.3315 71.4695C78.3031 71.6111 78.3248 71.7581 78.3927 71.8855C78.4606 72.0129 78.5705 72.1128 78.7039 72.1682C78.8372 72.2236 78.9856 72.2311 79.1238 72.1894C79.262 72.1476 79.3815 72.0592 79.4618 71.9393C79.5421 71.8193 79.5784 71.6752 79.5644 71.5315C79.5504 71.3878 79.487 71.2534 79.385 71.1512C79.3272 71.0931 79.2585 71.0471 79.1829 71.0156C79.1072 70.9842 79.0261 70.968 78.9442 70.968Z" fill="#0063CB"/>
<path d="M87.2031 48.6672V56.4008" stroke="#0063CB" stroke-linecap="round" stroke-linejoin="round"/>
<path d="M122.96 70.496H121.506V66.1304H122.96C123.236 66.1304 123.501 66.24 123.696 66.435C123.891 66.6301 124 66.8946 124 67.1704V69.4624C123.999 69.7371 123.888 70 123.693 70.1937C123.499 70.3873 123.235 70.496 122.96 70.496Z" stroke="#0063CB" stroke-linecap="round" stroke-linejoin="round"/>
<path d="M116.516 64.8832H112.15" stroke="#0063CB" stroke-linecap="round" stroke-linejoin="round"/>
<path d="M116.516 67.3776H112.15" stroke="#0063CB" stroke-linecap="round" stroke-linejoin="round"/>
<path d="M112.15 61.3672V50.7528C112.15 50.6154 112.095 50.4837 111.998 50.3864L110.54 48.9288C110.468 48.8564 110.375 48.807 110.275 48.7871C110.174 48.7671 110.07 48.7774 109.975 48.8166C109.881 48.8558 109.8 48.9222 109.743 49.0074C109.686 49.0926 109.655 49.1927 109.655 49.2952V61.1408L112.15 61.3672Z" stroke="#0063CB" stroke-linecap="round" stroke-linejoin="round"/>
<path d="M65.1023 73.708V74.5472C65.1023 75.2098 64.839 75.8453 64.3705 76.3138C63.902 76.7824 63.2665 77.0456 62.6039 77.0456C61.9413 77.0456 61.3058 76.7824 60.8372 76.3138C60.3687 75.8453 60.1055 75.2098 60.1055 74.5472V73.708C60.1055 73.4322 60.215 73.1676 60.4101 72.9726C60.6051 72.7776 60.8696 72.668 61.1455 72.668H64.0687C64.3434 72.6697 64.6063 72.78 64.7999 72.9749C64.9936 73.1697 65.1023 73.4333 65.1023 73.708Z" stroke="#0063CB" stroke-linecap="round" stroke-linejoin="round"/>
<path d="M62.6039 67.0632L59.3287 61.984L58.9863 61.4664L58.9967 61.456C61.3311 60.6123 63.8872 60.6123 66.2215 61.456C66.3015 61.4864 66.3767 61.5176 66.4495 61.5488C66.3767 61.5176 66.2943 61.4968 66.2215 61.4688C66.1535 61.5512 66.4719 61.0648 62.6039 67.0632Z" stroke="#0063CB" stroke-linecap="round" stroke-linejoin="round"/>
<path d="M56.1605 88.272C56.017 88.2705 55.8752 88.3023 55.7461 88.3648V88.272H56.1605Z" stroke="#0063CB" stroke-linecap="round" stroke-linejoin="round"/>
<path d="M61.0902 90.7488L60.7902 97.6216C59.691 96.1288 57.2342 96.0216 55.7422 97.0928V90.6664C55.8714 90.7286 56.0132 90.7603 56.1566 90.7592H60.9454C60.9939 90.7613 61.0425 90.7579 61.0902 90.7488Z" stroke="#0063CB" stroke-linecap="round" stroke-linejoin="round"/>
<path d="M61.1941 88.272V88.3024C61.1127 88.2825 61.0292 88.2722 60.9453 88.272H61.1941Z" stroke="#0063CB" stroke-linecap="round" stroke-linejoin="round"/>
<path d="M64.2625 88.272C64.1786 88.2723 64.0951 88.2825 64.0137 88.3024V88.272H64.2625Z" stroke="#0063CB" stroke-linecap="round" stroke-linejoin="round"/>
<path d="M69.466 88.272V88.3648C69.3366 88.3024 69.1945 88.2706 69.0508 88.272H69.466Z" stroke="#0063CB" stroke-linecap="round" stroke-linejoin="round"/>
<path d="M69.4664 90.6664V97.0928C67.9736 96.0248 65.5272 96.1328 64.4264 97.6216L64.1152 90.7488C64.1629 90.7578 64.2115 90.7613 64.26 90.7592H69.0488C69.1933 90.7606 69.3362 90.7289 69.4664 90.6664Z" stroke="#0063CB" stroke-linecap="round" stroke-linejoin="round"/>
<path d="M69.4678 72.0528V68.3104" stroke="#0063CB" stroke-linecap="round" stroke-linejoin="round"/>
<path d="M55.7471 72.0528V68.3104" stroke="#0063CB" stroke-linecap="round" stroke-linejoin="round"/>
<path d="M66.2219 61.456V61.4664C66.1539 61.5512 66.4723 61.0664 62.6043 67.0664L59.3291 61.984C59.1219 61.664 58.9971 61.4664 58.9971 61.456C61.3314 60.6123 63.8875 60.6123 66.2219 61.456Z" stroke="#0063CB" stroke-linecap="round" stroke-linejoin="round"/>
<path d="M55.7424 72.0496V83.2752C55.7426 83.5863 55.6648 83.8925 55.5163 84.1658C55.3677 84.4391 55.1531 84.6709 54.892 84.84C54.5899 85.0424 54.2344 85.1504 53.8708 85.1504C53.5072 85.1504 53.1517 85.0424 52.8496 84.84C52.5879 84.6716 52.3729 84.4399 52.2244 84.1664C52.0759 83.8929 51.9988 83.5864 52 83.2752V72.0496H55.7424Z" stroke="#0063CB" stroke-linecap="round" stroke-linejoin="round"/>
<path d="M61.0182 97.984C61.1011 98.1421 61.1416 98.319 61.1358 98.4975C61.1301 98.6759 61.0782 98.8498 60.9852 99.0023C60.8922 99.1547 60.7614 99.2804 60.6053 99.3672C60.4493 99.4541 60.2735 99.499 60.095 99.4976H55.835C55.6472 99.4992 55.4625 99.4496 55.3008 99.3542C55.1391 99.2588 55.0064 99.1211 54.9169 98.956C54.8275 98.7909 54.7846 98.6046 54.793 98.417C54.8014 98.2294 54.8607 98.0477 54.9646 97.8912C55.1712 97.5781 55.435 97.3067 55.7422 97.0912C57.2342 96.0232 59.691 96.1312 60.7902 97.62C60.8756 97.7352 60.9519 97.8569 61.0182 97.984Z" stroke="#0063CB" stroke-linecap="round" stroke-linejoin="round"/>
<path d="M70.2955 98.948C70.2089 99.1148 70.0779 99.2544 69.9169 99.3514C69.756 99.4484 69.5714 99.499 69.3835 99.4976H65.1203C64.9417 99.499 64.7658 99.4542 64.6098 99.3674C64.4537 99.2806 64.3229 99.1548 64.23 99.0023C64.137 98.8498 64.0852 98.6759 64.0796 98.4974C64.074 98.3189 64.1147 98.142 64.1979 97.984C64.2636 97.8571 64.3399 97.7358 64.4259 97.6216C65.5243 96.1288 67.9707 96.0216 69.4659 97.0928C69.7757 97.3084 70.0429 97.5797 70.2539 97.8928C70.3565 98.0481 70.4146 98.2286 70.422 98.4146C70.4293 98.6006 70.3856 98.7851 70.2955 98.948Z" stroke="#0063CB" stroke-linecap="round" stroke-linejoin="round"/>
<path d="M60.7383 68.9296H58.2399L57.8047 66.2448C57.9154 66.2756 58.0336 66.2645 58.1367 66.2136L58.9967 65.7888C59.0632 65.7589 59.1351 65.7426 59.208 65.7408C59.281 65.739 59.3536 65.7518 59.4215 65.7784L60.0543 66.0376L60.7383 68.9296Z" stroke="#0063CB" stroke-linecap="round" stroke-linejoin="round"/>
<path d="M62.6037 67.0632L60.0541 66.04L59.4213 65.7808C59.3534 65.7542 59.2808 65.7414 59.2079 65.7432C59.1349 65.7449 59.0631 65.7613 58.9965 65.7912L58.1365 66.216C58.0334 66.2669 57.9152 66.278 57.8045 66.2472C57.6927 66.2281 57.5908 66.1715 57.5155 66.0867C57.4402 66.002 57.3959 65.8941 57.3901 65.7808L57.1621 62.3704V62.3392C57.7374 61.9849 58.3488 61.6931 58.9861 61.4688L59.3285 61.9864L62.6037 67.0632Z" stroke="#0063CB" stroke-linecap="round" stroke-linejoin="round"/>
<path d="M67.4037 66.2448L66.9685 68.9296H64.4805L65.1549 66.0376L65.7869 65.7784C65.8548 65.7517 65.9274 65.7388 66.0003 65.7406C66.0733 65.7424 66.1451 65.7588 66.2117 65.7888L67.0725 66.2136C67.1753 66.2644 67.2932 66.2755 67.4037 66.2448Z" stroke="#0063CB" stroke-linecap="round" stroke-linejoin="round"/>
<path d="M68.0569 62.3368L67.8169 65.7768C67.8109 65.8901 67.7666 65.998 67.6911 66.0828C67.6156 66.1676 67.5136 66.2241 67.4017 66.2432C67.2913 66.274 67.1733 66.2628 67.0705 66.212L66.2097 65.7872C66.1432 65.7572 66.0714 65.7408 65.9984 65.739C65.9254 65.7372 65.8529 65.7501 65.7849 65.7768L65.1529 66.036L62.6025 67.0616C66.4793 61.0488 66.1529 61.5488 66.2201 61.4616C66.2929 61.492 66.3753 61.5128 66.4481 61.5416C67.0029 61.7583 67.5382 62.0219 68.0481 62.3296L68.0569 62.3368Z" stroke="#0063CB" stroke-linecap="round" stroke-linejoin="round"/>
<path d="M66.9782 69.4576C66.9678 69.2816 66.9678 69.1056 66.9678 68.9296H58.2398C58.2398 72.2568 57.4726 74.164 55.7422 75.7912V88.2712H61.2046L61.3086 86.0528C61.3302 85.7239 61.4761 85.4156 61.7167 85.1903C61.9573 84.965 62.2746 84.8397 62.6042 84.8397C62.9338 84.8397 63.2511 84.965 63.4917 85.1903C63.7322 85.4156 63.8782 85.7239 63.8998 86.0528L63.9998 88.272H69.463V75.792C67.8398 74.2472 67.051 72.464 66.9782 69.4576Z" stroke="#0063CB" stroke-linecap="round" stroke-linejoin="round"/>
<path d="M61.9826 89.308V89.72C61.9837 89.9701 61.8938 90.2121 61.7297 90.4008C61.5656 90.5895 61.3384 90.712 61.0906 90.7456C61.0429 90.7547 60.9943 90.7582 60.9458 90.756H56.1602C56.0168 90.7571 55.875 90.7254 55.7458 90.6632C55.559 90.5869 55.3994 90.4561 55.2878 90.2879C55.1763 90.1197 55.1179 89.9218 55.1202 89.72V89.3048C55.1176 89.1034 55.1756 88.9058 55.2865 88.7376C55.3975 88.5695 55.5564 88.4385 55.7426 88.3616C55.8717 88.2991 56.0136 88.2673 56.157 88.2688H60.9458C61.0296 88.2691 61.1132 88.2793 61.1946 88.2992C61.4209 88.3531 61.6221 88.4823 61.7653 88.6656C61.9085 88.8489 61.9851 89.0754 61.9826 89.308Z" stroke="#0063CB" stroke-linecap="round" stroke-linejoin="round"/>
<path d="M70.0882 89.308V89.72C70.0908 89.9214 70.033 90.1189 69.9222 90.2871C69.8114 90.4552 69.6527 90.5862 69.4666 90.6632C69.3371 90.7253 69.1951 90.757 69.0514 90.756H64.2626C64.2141 90.7581 64.1655 90.7546 64.1178 90.7456C63.8701 90.712 63.643 90.5894 63.479 90.4007C63.315 90.212 63.2253 89.97 63.2266 89.72V89.3048C63.2246 89.0728 63.3014 88.8471 63.4444 88.6644C63.5874 88.4817 63.7881 88.353 64.0138 88.2992C64.0952 88.2793 64.1788 88.2691 64.2626 88.2688H69.0514C69.1951 88.2674 69.3372 88.2992 69.4666 88.3616C69.6532 88.4388 69.8123 88.5703 69.9231 88.7391C70.034 88.9079 70.0915 89.1061 70.0882 89.308Z" stroke="#0063CB" stroke-linecap="round" stroke-linejoin="round"/>
<path d="M68.834 49.328C69.8626 49.1608 70.8126 48.6747 71.55 47.9384L71.9644 47.524" stroke="#0063CB" stroke-linecap="round" stroke-linejoin="round"/>
<path d="M53.2549 47.524L53.6589 47.9384C54.3963 48.6747 55.3463 49.1608 56.3749 49.328" stroke="#0063CB" stroke-linecap="round" stroke-linejoin="round"/>
<path d="M68.8332 49.328C68.7929 49.34 68.7513 49.347 68.7092 49.3488C68.4826 49.381 68.2541 49.3981 68.0252 49.4H57.1932C56.9185 49.4019 56.6442 49.3778 56.374 49.328L56.4876 48.6744L56.9956 45.6584C57.4108 44.072 58.5716 42.2272 60.1052 42.5384L62.6036 43.7824L65.3716 42.5384C66.9156 42.2272 67.8076 43.9896 68.222 45.6584L68.8332 49.328Z" stroke="#0063CB" stroke-linecap="round" stroke-linejoin="round"/>
<path d="M60.1055 45.6584C60.3967 44.5512 62.8255 43.7032 62.5975 43.7792" stroke="#0063CB" stroke-linecap="round" stroke-linejoin="round"/>
<path d="M60.9844 55.8168C61.4447 56.1241 61.9857 56.2882 62.5392 56.2882C63.0926 56.2882 63.6337 56.1241 64.094 55.8168" stroke="#0063CB" stroke-linecap="round" stroke-linejoin="round"/>
<path d="M74.7422 66.2656C74.8944 66.2214 75.0547 66.2124 75.2109 66.2393C75.3671 66.2662 75.5151 66.3282 75.6438 66.4208L75.9966 66.6696C77.2289 65.7485 78.6718 65.1498 80.1942 64.928L80.267 64.5032C80.3082 64.2605 80.4338 64.0402 80.6215 63.8809C80.8093 63.7217 81.0472 63.6339 81.2934 63.6328H81.8942C82.1389 63.6352 82.3749 63.7238 82.5607 63.883C82.7465 64.0422 82.8703 64.2618 82.9102 64.5032L82.983 64.928C84.5086 65.1497 85.9549 65.7483 87.191 66.6696L87.5438 66.4208C87.741 66.2772 87.983 66.2087 88.2262 66.2278C88.4694 66.2469 88.6978 66.3522 88.8702 66.5248L89.2958 66.9496C89.4695 67.1232 89.5762 67.3526 89.597 67.5972C89.6178 67.8419 89.5513 68.086 89.4094 68.2864L89.1606 68.6392C89.9775 69.7479 90.5434 71.0211 90.819 72.3704C90.8502 72.5304 90.8814 72.6816 90.899 72.8504L91.3238 72.9232C91.5646 72.9626 91.7836 73.0865 91.9413 73.2727C92.0991 73.4589 92.1853 73.6952 92.1846 73.9392V74.54C92.1837 74.7835 92.0973 75.019 91.9406 75.2054C91.7839 75.3918 91.5667 75.5173 91.327 75.56L90.9022 75.6328C90.668 77.1518 90.0705 78.5918 89.1606 79.8304L89.4094 80.1832C89.5513 80.3836 89.6178 80.6277 89.597 80.8724C89.5762 81.117 89.4695 81.3465 89.2958 81.52L88.8702 81.9456C88.6973 82.1167 88.4699 82.2217 88.2275 82.2424C87.9852 82.2632 87.7433 82.1984 87.5438 82.0592L87.191 81.8C85.9551 82.7216 84.5087 83.3202 82.983 83.5416L82.9102 83.9664C82.8717 84.2085 82.7483 84.4291 82.5622 84.5887C82.3761 84.7482 82.1393 84.8365 81.8942 84.8376H81.2934C81.0468 84.8377 80.8082 84.7501 80.6202 84.5905C80.4322 84.4309 80.307 84.2097 80.267 83.9664L80.1942 83.5416C78.6728 83.3197 77.231 82.721 75.9998 81.8L75.803 81.9456" stroke="#0063CB" stroke-linecap="round" stroke-linejoin="round"/>
<path d="M73.2084 72.0496V83.2752C73.2087 83.5862 73.1311 83.8924 72.9827 84.1657C72.8343 84.4391 72.6198 84.6709 72.3588 84.84C72.0567 85.0424 71.7013 85.1504 71.3376 85.1504C70.974 85.1504 70.6186 85.0424 70.3164 84.84C70.0545 84.6716 69.8393 84.4398 69.6908 84.1662C69.5423 83.8925 69.4653 83.5858 69.4668 83.2744V72.0496H73.2084Z" stroke="#0063CB" stroke-linecap="round" stroke-linejoin="round"/>
<path d="M73.208 71.4272V72.0496H69.4664V75.7912C67.7456 74.164 66.968 72.2568 66.968 68.9296H58.24C58.24 72.2568 57.4728 74.164 55.7424 75.7912V72.0496H52V71.4272C52.0043 69.5988 52.4821 67.8026 53.3868 66.2136C54.2915 64.6246 55.5922 63.297 57.1624 62.36V62.3704L57.3904 65.7808C57.3962 65.8941 57.4404 66.002 57.5158 66.0867C57.5911 66.1715 57.693 66.2281 57.8048 66.2472C57.9155 66.278 58.0337 66.2669 58.1368 66.216L58.9968 65.7912C59.0633 65.7613 59.1352 65.745 59.2082 65.7432C59.2811 65.7414 59.3537 65.7542 59.4216 65.7808L60.0544 66.04L62.604 67.0656L65.1544 66.04L65.7864 65.7808C65.8543 65.7541 65.9269 65.7412 65.9999 65.743C66.0728 65.7448 66.1447 65.7612 66.2112 65.7912L67.072 66.216C67.1748 66.2669 67.2927 66.278 67.4032 66.2472C67.5151 66.2281 67.6171 66.1716 67.6926 66.0868C67.768 66.002 67.8124 65.8941 67.8184 65.7808L68.0584 62.3408C70.4175 63.749 72.1352 66.0209 72.8472 68.6744C72.973 69.1475 73.0665 69.6286 73.1272 70.1144C73.1801 70.55 73.2071 70.9884 73.208 71.4272Z" stroke="#0063CB" stroke-linecap="round" stroke-linejoin="round"/>
<path d="M87.2002 74.2368C87.2002 74.9739 87.0551 75.7038 86.773 76.3847C86.4909 77.0657 86.0775 77.6845 85.5563 78.2057C85.0351 78.7269 84.4163 79.1403 83.7354 79.4224C83.0544 79.7044 82.3245 79.8496 81.5874 79.8496C80.8504 79.8496 80.1205 79.7044 79.4395 79.4224C78.7585 79.1403 78.1398 78.7269 77.6186 78.2057C77.0974 77.6845 76.684 77.0657 76.4019 76.3847C76.1198 75.7038 75.9746 74.9739 75.9746 74.2368C75.972 73.4816 76.1236 72.7338 76.4202 72.0392C76.8642 70.9993 77.6117 70.1176 78.565 69.5095C79.5182 68.9014 80.6329 68.5952 81.763 68.631C82.8932 68.6668 83.9862 69.0429 84.8991 69.7101C85.8119 70.3773 86.5022 71.3045 86.8794 72.3704C87.0923 72.9696 87.2008 73.6009 87.2002 74.2368Z" stroke="#0063CB" stroke-linecap="round" stroke-linejoin="round"/>
</g>
<defs>
<clipPath id="clip0_4342_18708">
<rect width="80" height="80" fill="white" transform="translate(48 31)"/>
</clipPath>
</defs>
</svg>
