<svg width="360" height="142" viewBox="0 0 360 142" fill="none" xmlns="http://www.w3.org/2000/svg">
<rect width="360" height="142" fill="#E4ECF4"/>
<g clip-path="url(#clip0_4342_18710)">
<path d="M85.5833 74.4024V51.4128L96.8529 57.0472C97.1972 57.2184 97.487 57.4823 97.6897 57.8092C97.8923 58.1361 97.9998 58.513 98.0001 58.8976V63.9288" stroke="#0063CB" stroke-linecap="round" stroke-linejoin="round"/>
<path d="M95.7208 56.4808V50.792" stroke="#0063CB" stroke-linecap="round" stroke-linejoin="round"/>
<path d="M66.9648 78.9568V45.2064C66.9647 45.0434 66.9968 44.8819 67.0591 44.7313C67.1214 44.5807 67.2128 44.4438 67.328 44.3285C67.4432 44.2132 67.58 44.1217 67.7306 44.0593C67.8812 43.9969 68.0426 43.9648 68.2056 43.9648H84.3424C84.5055 43.9648 84.6669 43.9969 84.8175 44.0593C84.9681 44.1217 85.1049 44.2132 85.2201 44.3285C85.3353 44.4438 85.4267 44.5807 85.489 44.7313C85.5513 44.8819 85.5833 45.0434 85.5832 45.2064V51.4128" stroke="#0063CB" stroke-linecap="round" stroke-linejoin="round"/>
<path d="M69.3432 43.9648V39" stroke="#0063CB" stroke-linecap="round" stroke-linejoin="round"/>
<path d="M71.9296 43.9648V40.8616" stroke="#0063CB" stroke-linecap="round" stroke-linejoin="round"/>
<path d="M73.4768 47.6888H70.3824C69.8659 47.6888 69.4472 48.1075 69.4472 48.624V51.7184C69.4472 52.2349 69.8659 52.6536 70.3824 52.6536H73.4768C73.9933 52.6536 74.412 52.2349 74.412 51.7184V48.624C74.412 48.1075 73.9933 47.6888 73.4768 47.6888Z" stroke="#0063CB" stroke-linecap="round" stroke-linejoin="round"/>
<path d="M82.1656 47.6888H79.0712C78.5548 47.6888 78.136 48.1075 78.136 48.624V51.7184C78.136 52.2349 78.5548 52.6536 79.0712 52.6536H82.1656C82.6821 52.6536 83.1008 52.2349 83.1008 51.7184V48.624C83.1008 48.1075 82.6821 47.6888 82.1656 47.6888Z" stroke="#0063CB" stroke-linecap="round" stroke-linejoin="round"/>
<path d="M73.4768 56.4808H70.3824C69.8659 56.4808 69.4472 56.8995 69.4472 57.416V60.5104C69.4472 61.0269 69.8659 61.4456 70.3824 61.4456H73.4768C73.9933 61.4456 74.412 61.0269 74.412 60.5104V57.416C74.412 56.8995 73.9933 56.4808 73.4768 56.4808Z" stroke="#0063CB" stroke-linecap="round" stroke-linejoin="round"/>
<path d="M82.1656 56.4808H79.0712C78.5548 56.4808 78.136 56.8995 78.136 57.416V60.5104C78.136 61.0269 78.5548 61.4456 79.0712 61.4456H82.1656C82.6821 61.4456 83.1008 61.0269 83.1008 60.5104V57.416C83.1008 56.8995 82.6821 56.4808 82.1656 56.4808Z" stroke="#0063CB" stroke-linecap="round" stroke-linejoin="round"/>
<path d="M73.4768 64.9152H70.3824C69.8659 64.9152 69.4472 65.3339 69.4472 65.8504V68.9448C69.4472 69.4613 69.8659 69.88 70.3824 69.88H73.4768C73.9933 69.88 74.412 69.4613 74.412 68.9448V65.8504C74.412 65.3339 73.9933 64.9152 73.4768 64.9152Z" stroke="#0063CB" stroke-linecap="round" stroke-linejoin="round"/>
<path d="M82.1656 64.9152H79.0712C78.5548 64.9152 78.136 65.3339 78.136 65.8504V68.9448C78.136 69.4613 78.5548 69.88 79.0712 69.88H82.1656C82.6821 69.88 83.1008 69.4613 83.1008 68.9448V65.8504C83.1008 65.3339 82.6821 64.9152 82.1656 64.9152Z" stroke="#0063CB" stroke-linecap="round" stroke-linejoin="round"/>
<path d="M73.4768 73.604H70.3824C69.8659 73.604 69.4472 74.0227 69.4472 74.5392V77.6336C69.4472 78.1501 69.8659 78.5688 70.3824 78.5688H73.4768C73.9933 78.5688 74.412 78.1501 74.412 77.6336V74.5392C74.412 74.0227 73.9933 73.604 73.4768 73.604Z" stroke="#0063CB" stroke-linecap="round" stroke-linejoin="round"/>
<path d="M79.78 78.5688H79.1112C78.8526 78.5688 78.6046 78.4661 78.4217 78.2832C78.2388 78.1003 78.136 77.8522 78.136 77.5936V74.5792C78.136 74.3206 78.2388 74.0725 78.4217 73.8896C78.6046 73.7067 78.8526 73.604 79.1112 73.604H82.1256C82.2537 73.604 82.3805 73.6292 82.4988 73.6782C82.6172 73.7272 82.7247 73.7991 82.8152 73.8896C82.9058 73.9802 82.9776 74.0877 83.0266 74.206C83.0756 74.3243 83.1008 74.4511 83.1008 74.5792V75.9152" stroke="#0063CB" stroke-linecap="round" stroke-linejoin="round"/>
<path d="M93.0816 58.964H89.9872C89.4707 58.964 89.052 59.3827 89.052 59.8992V62.9936C89.052 63.5101 89.4707 63.9288 89.9872 63.9288H93.0816C93.5981 63.9288 94.0168 63.5101 94.0168 62.9936V59.8992C94.0168 59.3827 93.5981 58.964 93.0816 58.964Z" stroke="#0063CB" stroke-linecap="round" stroke-linejoin="round"/>
<path d="M91.2392 72.5144H90.0272C89.7686 72.5144 89.5205 72.4117 89.3376 72.2288C89.1547 72.0459 89.052 71.7979 89.052 71.5392V68.524C89.052 68.396 89.0772 68.2692 89.1263 68.1509C89.1753 68.0327 89.2471 67.9252 89.3377 67.8347C89.4282 67.7442 89.5358 67.6725 89.6541 67.6236C89.7724 67.5746 89.8992 67.5495 90.0272 67.5496H93.04C93.168 67.5495 93.2948 67.5746 93.4131 67.6236C93.5314 67.6725 93.639 67.7442 93.7295 67.8347C93.8201 67.9252 93.8919 68.0327 93.941 68.1509C93.99 68.2692 94.0152 68.396 94.0152 68.524V70.4272" stroke="#0063CB" stroke-linecap="round" stroke-linejoin="round"/>
<path d="M111.338 87.4528V75.6864L96.1432 68.0888V87.9088" stroke="#0063CB" stroke-linecap="round" stroke-linejoin="round"/>
<path d="M108 88.8864V83.2232C108 83.0268 107.922 82.8383 107.783 82.6994C107.644 82.5605 107.456 82.4824 107.259 82.4824H99.8488C99.6524 82.4826 99.4641 82.5608 99.3252 82.6996C99.1864 82.8385 99.1082 83.0268 99.108 83.2232V88.3784" stroke="#0063CB" stroke-linecap="round" stroke-linejoin="round"/>
<path d="M113.191 75.4136C113.191 75.5399 113.159 75.6642 113.097 75.7745C113.036 75.8848 112.947 75.9776 112.84 76.0441C112.732 76.1105 112.609 76.1484 112.483 76.1541C112.357 76.1598 112.231 76.1332 112.118 76.0768L94.9224 67.48C94.7992 67.4184 94.6956 67.3238 94.6231 67.2066C94.5506 67.0895 94.5122 66.9545 94.512 66.8168V65.8048C94.5121 65.6785 94.5444 65.5542 94.606 65.4439C94.6675 65.3336 94.7562 65.2408 94.8637 65.1743C94.9711 65.1079 95.0938 65.07 95.22 65.0643C95.3462 65.0586 95.4718 65.0852 95.5848 65.1416L112.785 73.74C112.908 73.8016 113.011 73.8963 113.084 74.0134C113.156 74.1306 113.194 74.2655 113.194 74.4032L113.191 75.4136Z" stroke="#0063CB" stroke-linecap="round" stroke-linejoin="round"/>
<path d="M103.555 82.4824V90.8944" stroke="#0063CB" stroke-linecap="round" stroke-linejoin="round"/>
<path d="M83.5424 80.5744V83.3592" stroke="#0063CB" stroke-linecap="round" stroke-linejoin="round"/>
<path d="M96.1432 71.72L82.0984 78.632C81.9753 78.6937 81.8718 78.7883 81.7995 78.9055C81.7271 79.0226 81.6888 79.1576 81.6888 79.2952V80.3064C81.6888 80.4328 81.7211 80.557 81.7826 80.6674C81.8442 80.7778 81.9329 80.8705 82.0404 80.9369C82.148 81.0033 82.2707 81.0411 82.3969 81.0467C82.5231 81.0523 82.6487 81.0255 82.7616 80.9688L96.1432 74.3896V71.72Z" stroke="#0063CB" stroke-linecap="round" stroke-linejoin="round"/>
<path d="M94.2897 87.9872V83.2232C94.2897 83.0268 94.2116 82.8383 94.0727 82.6994C93.9338 82.5605 93.7453 82.4824 93.5489 82.4824H86.1361C85.9397 82.4826 85.7514 82.5608 85.6125 82.6996C85.4736 82.8385 85.3955 83.0268 85.3953 83.2232V84.3352" stroke="#0063CB" stroke-linecap="round" stroke-linejoin="round"/>
<path d="M85.3953 84.3352H94.2897" stroke="#0063CB" stroke-linecap="round" stroke-linejoin="round"/>
<path d="M87.7712 86.1888H94.2896" stroke="#0063CB" stroke-linecap="round" stroke-linejoin="round"/>
<path d="M100.59 78.0344C101.614 78.0344 102.443 77.2049 102.443 76.1816C102.443 75.1583 101.614 74.3288 100.59 74.3288C99.5672 74.3288 98.7377 75.1583 98.7377 76.1816C98.7377 77.2049 99.5672 78.0344 100.59 78.0344Z" stroke="#0063CB" stroke-linecap="round" stroke-linejoin="round"/>
<path d="M71.8936 101.109H67.7944V83.3264H71.8936C72.2212 83.3264 72.5354 83.4566 72.7671 83.6882C72.9987 83.9198 73.1288 84.234 73.1288 84.5616V99.8728C73.1289 100.035 73.0971 100.196 73.035 100.346C72.973 100.496 72.882 100.632 72.7673 100.747C72.6526 100.862 72.5164 100.953 72.3665 101.015C72.2166 101.077 72.0559 101.109 71.8936 101.109Z" stroke="#0063CB" stroke-linecap="round" stroke-linejoin="round"/>
<path d="M58.4144 102.887H66.5056C66.6748 102.887 66.8424 102.854 66.9988 102.789C67.1551 102.725 67.2972 102.63 67.4169 102.51C67.5366 102.391 67.6315 102.249 67.6963 102.092C67.7611 101.936 67.7944 101.768 67.7944 101.599V82.84C67.7944 82.6708 67.7611 82.5032 67.6963 82.3468C67.6316 82.1904 67.5366 82.0484 67.4169 81.9287C67.2973 81.809 67.1552 81.7141 66.9988 81.6493C66.8425 81.5845 66.6749 81.5512 66.5056 81.5512H58.4144" stroke="#0063CB" stroke-linecap="round" stroke-linejoin="round"/>
<path d="M73.1296 99.3448C77.1659 100.648 81.2768 101.709 85.44 102.52C90.1217 103.463 94.9776 103 99.3968 101.19C103.736 99.4216 109.745 96.8048 116.093 93.5256C116.607 93.2734 117.026 92.8613 117.286 92.351C117.547 91.8406 117.635 91.2597 117.537 90.6952C117.466 90.351 117.325 90.0251 117.123 89.7379C116.921 89.4508 116.661 89.2086 116.36 89.0265C116.06 88.8444 115.725 88.7264 115.377 88.6798C115.029 88.6333 114.675 88.6592 114.337 88.756L98.9048 95.3912C98.3236 95.6413 97.6976 95.7706 97.0648 95.7712H93.5792C96.8536 95.7712 98.9312 94.7632 99.6728 92.8112C99.7687 92.5433 99.7987 92.2562 99.7603 91.9742C99.7219 91.6923 99.6162 91.4237 99.4522 91.1912C99.2882 90.9587 99.0706 90.769 98.8178 90.6383C98.5651 90.5075 98.2846 90.4395 98 90.44H89.932C88.812 90.44 85.1208 85.1056 79.852 85.1056H73.132L73.1296 99.3448Z" stroke="#0063CB" stroke-linecap="round" stroke-linejoin="round"/>
<path d="M93.5792 95.7744H86.8104" stroke="#0063CB" stroke-linecap="round" stroke-linejoin="round"/>
</g>
<defs>
<clipPath id="clip0_4342_18710">
<rect width="80" height="80" fill="white" transform="translate(48 31)"/>
</clipPath>
</defs>
</svg>
