<svg width="360" height="142" viewBox="0 0 360 142" fill="none" xmlns="http://www.w3.org/2000/svg">
<rect width="360" height="142" fill="#E4ECF4"/>
<g clip-path="url(#clip0_4342_18703)">
<path d="M100.523 87.0736C99.0119 82.7192 95.1431 74.7112 86.4847 71.5536" stroke="#0063CB" stroke-linecap="round" stroke-linejoin="round"/>
<path d="M80.4 62.3944C80.4 62.3944 77.8792 73.6792 83.432 79.696C86.48 83 91.8944 83.1296 94.044 77.1776C100.149 75.512 100.554 68.7184 96.6624 66.4656C92.3112 63.9464 87.552 68.5448 80.4 62.3944Z" stroke="#0063CB" stroke-linecap="round" stroke-linejoin="round"/>
<path d="M88 103V91.3752" stroke="#0063CB" stroke-linecap="round" stroke-linejoin="round"/>
<path d="M69.7704 80.1096L59.3696 85.308" stroke="#0063CB" stroke-linecap="round" stroke-linejoin="round"/>
<path d="M101.63 86.144L109.408 94.7848" stroke="#0063CB" stroke-linecap="round" stroke-linejoin="round"/>
<path d="M120 71H108.881" stroke="#0063CB" stroke-linecap="round" stroke-linejoin="round"/>
<path d="M116.414 85.7328L106.092 80.3808" stroke="#0063CB" stroke-linecap="round" stroke-linejoin="round"/>
<path d="M88 91.3752C99.2529 91.3752 108.375 82.2529 108.375 71C108.375 59.7471 99.2529 50.6248 88 50.6248C76.747 50.6248 67.6248 59.7471 67.6248 71C67.6248 82.2529 76.747 91.3752 88 91.3752Z" stroke="#0063CB" stroke-linecap="round" stroke-linejoin="round"/>
<path d="M88 103C105.673 103 120 88.6731 120 71C120 53.3269 105.673 39 88 39C70.3269 39 56 53.3269 56 71C56 88.6731 70.3269 103 88 103Z" stroke="#0063CB" stroke-linecap="round" stroke-linejoin="round"/>
</g>
<defs>
<clipPath id="clip0_4342_18703">
<rect width="80" height="80" fill="white" transform="translate(48 31)"/>
</clipPath>
</defs>
</svg>
