<svg width="360" height="142" viewBox="0 0 360 142" fill="none" xmlns="http://www.w3.org/2000/svg">
<rect width="360" height="142" fill="#E4ECF4"/>
<g clip-path="url(#clip0_4342_18704)">
<path d="M87.1368 72.1456C88.2467 72.1456 89.1464 71.2459 89.1464 70.136C89.1464 69.0261 88.2467 68.1264 87.1368 68.1264C86.0269 68.1264 85.1272 69.0261 85.1272 70.136C85.1272 71.2459 86.0269 72.1456 87.1368 72.1456Z" stroke="#0063CB" stroke-linecap="round" stroke-linejoin="round"/>
<path d="M92.3864 90.7032C88.2386 91.7152 83.8785 91.4087 79.913 89.8264C75.9476 88.2441 72.5742 85.4648 70.2624 81.8753C67.9506 78.2859 66.8156 74.0649 67.0153 69.8001C67.2149 65.5353 68.7394 61.4389 71.3764 58.0812C74.0134 54.7234 77.6318 52.2714 81.7277 51.0666C85.8236 49.8617 90.1933 49.9639 94.2284 51.359C98.2635 52.754 101.763 55.3725 104.24 58.8499C106.718 62.3273 108.049 66.4905 108.049 70.76C108.049 71.3067 108.028 71.8477 107.986 72.3832" stroke="#0063CB" stroke-linecap="round" stroke-linejoin="round"/>
<path d="M67.0745 55.6552C67.277 55.8578 67.4026 56.1247 67.4295 56.4099C67.4564 56.6951 67.3829 56.9808 67.2217 57.2176C65.3598 59.9612 64.0753 63.0549 63.4465 66.3104C63.3921 66.5907 63.2421 66.8435 63.0221 67.0254C62.802 67.2074 62.5256 67.3073 62.2401 67.308H57.2329C57.0544 67.3081 56.8782 67.2694 56.7162 67.1946C56.5542 67.1199 56.4103 67.0108 56.2946 66.875C56.1789 66.7393 56.0941 66.5799 56.046 66.4081C55.9979 66.2363 55.9877 66.0561 56.0161 65.88C56.8057 60.9626 58.7443 56.3008 61.6745 52.2736C61.7794 52.1297 61.9142 52.0102 62.0696 51.9233C62.2251 51.8364 62.3975 51.7842 62.575 51.7702C62.7525 51.7562 62.931 51.7808 63.0981 51.8423C63.2653 51.9038 63.4171 52.0007 63.5433 52.1264L67.0745 55.6552Z" stroke="#0063CB" stroke-linecap="round" stroke-linejoin="round"/>
<path d="M82.5224 39.372C82.6986 39.3437 82.8788 39.3539 83.0506 39.4019C83.2224 39.4499 83.3818 39.5347 83.5177 39.6503C83.6536 39.7659 83.7628 39.9096 83.8378 40.0715C83.9128 40.2334 83.9517 40.4096 83.952 40.588V45.5936C83.9523 45.8796 83.8528 46.1567 83.6707 46.3772C83.4886 46.5977 83.2353 46.7478 82.9544 46.8016C79.699 47.431 76.6055 48.7154 73.8616 50.5768C73.6247 50.7379 73.3391 50.8113 73.0539 50.7844C72.7687 50.7575 72.5018 50.6321 72.2992 50.4296L68.768 46.8984C68.6421 46.7723 68.545 46.6205 68.4834 46.4533C68.4219 46.2861 68.3973 46.1075 68.4113 45.9299C68.4254 45.7523 68.4778 45.5798 68.5649 45.4244C68.652 45.269 68.7718 45.1343 68.916 45.0296C72.9434 42.0999 77.6051 40.1615 82.5224 39.372Z" stroke="#0063CB" stroke-linecap="round" stroke-linejoin="round"/>
<path d="M106.391 45.0296C106.536 45.1344 106.655 45.2693 106.743 45.4249C106.83 45.5805 106.882 45.7531 106.896 45.9309C106.91 46.1087 106.885 46.2874 106.824 46.4547C106.762 46.622 106.665 46.7739 106.538 46.9L102.999 50.4312C102.797 50.6335 102.53 50.7588 102.245 50.7855C101.96 50.8122 101.674 50.7387 101.438 50.5776C98.6936 48.7158 95.5998 47.4311 92.344 46.8016C92.0634 46.7472 91.8105 46.597 91.6285 46.3766C91.4465 46.1562 91.3468 45.8794 91.3464 45.5936V40.5888C91.3463 40.4102 91.385 40.2336 91.4599 40.0714C91.5348 39.9092 91.6441 39.7653 91.7802 39.6495C91.9162 39.5338 92.0759 39.449 92.248 39.4011C92.4201 39.3532 92.6005 39.3432 92.7768 39.372C97.6952 40.1662 102.358 42.1041 106.391 45.0296Z" stroke="#0063CB" stroke-linecap="round" stroke-linejoin="round"/>
<path d="M82.952 95.1976C83.2332 95.2514 83.487 95.4015 83.6695 95.6221C83.852 95.8427 83.9519 96.1201 83.952 96.4064V101.411C83.9521 101.59 83.9134 101.766 83.8386 101.928C83.7639 102.09 83.6549 102.234 83.5191 102.35C83.3833 102.465 83.224 102.55 83.0522 102.599C82.8804 102.647 82.7002 102.657 82.524 102.629C75.8831 101.555 69.7489 98.417 64.9911 93.6612C60.2332 88.9053 57.0931 82.7724 56.016 76.132C55.9878 75.9558 55.9981 75.7757 56.0462 75.6038C56.0943 75.432 56.179 75.2727 56.2946 75.1368C56.4101 75.0008 56.5538 74.8916 56.7156 74.8164C56.8774 74.7413 57.0536 74.7021 57.232 74.7016H62.24C62.5264 74.7016 62.8038 74.8014 63.0245 74.984C63.2451 75.1665 63.3952 75.4203 63.4488 75.7016C64.385 80.5256 66.7422 84.9595 70.2176 88.4335C73.6929 91.9076 78.1277 94.2632 82.952 95.1976Z" stroke="#0063CB" stroke-linecap="round" stroke-linejoin="round"/>
<path d="M119.28 65.88C119.308 66.0562 119.298 66.2365 119.25 66.4084C119.202 66.5802 119.117 66.7396 119.001 66.8756C118.886 67.0115 118.742 67.1208 118.58 67.1958C118.418 67.2709 118.242 67.31 118.063 67.3104H113.061C112.775 67.3106 112.498 67.211 112.277 67.029C112.057 66.8469 111.906 66.5937 111.852 66.3128C111.224 63.0571 109.941 59.9629 108.08 57.2184C107.919 56.9813 107.846 56.6954 107.873 56.41C107.9 56.1246 108.026 55.8576 108.229 55.6552L111.767 52.12C111.893 51.9942 112.045 51.8972 112.212 51.8358C112.379 51.7743 112.558 51.7499 112.735 51.7641C112.913 51.7783 113.085 51.8308 113.241 51.9181C113.396 52.0054 113.531 52.1253 113.635 52.2696C116.558 56.3012 118.491 60.9634 119.28 65.88Z" stroke="#0063CB" stroke-linecap="round" stroke-linejoin="round"/>
<path d="M89.8721 73.6896C89.4991 74.1067 89.0477 74.4463 88.5435 74.689C88.0393 74.9316 87.4922 75.0726 86.9336 75.1038C86.3749 75.1351 85.8155 75.056 85.2874 74.871C84.7593 74.6861 84.2728 74.399 83.8557 74.026C83.4386 73.6531 83.099 73.2016 82.8563 72.6974C82.6137 72.1932 82.4727 71.6462 82.4415 71.0875C82.4102 70.5288 82.4893 69.9694 82.6743 69.4413C82.8592 68.9132 83.1463 68.4267 83.5193 68.0096C84.8609 66.5088 94.4353 60.4768 97.1745 58.7648C97.2205 58.7366 97.2744 58.7239 97.3281 58.7287C97.3819 58.7334 97.4327 58.7554 97.473 58.7913C97.5133 58.8272 97.541 58.8752 97.5519 58.928C97.5628 58.9809 97.5565 59.0359 97.5337 59.0848C96.1385 62.0008 91.2137 72.1888 89.8721 73.6896Z" stroke="#0063CB" stroke-linecap="round" stroke-linejoin="round"/>
<path d="M87.6497 53.2384V55.7504" stroke="#0063CB" stroke-linecap="round" stroke-linejoin="round"/>
<path d="M75.5504 57.8248L77.3264 59.6008" stroke="#0063CB" stroke-linecap="round" stroke-linejoin="round"/>
<path d="M70.2393 69.6232H72.7505" stroke="#0063CB" stroke-linecap="round" stroke-linejoin="round"/>
<path d="M74.8257 81.7216L76.6017 79.9456" stroke="#0063CB" stroke-linecap="round" stroke-linejoin="round"/>
<path d="M86.624 87.0336V84.5216" stroke="#0063CB" stroke-linecap="round" stroke-linejoin="round"/>
<path d="M104.034 70.6488H101.522" stroke="#0063CB" stroke-linecap="round" stroke-linejoin="round"/>
<path d="M91.9129 102.374C91.558 102.374 91.2092 102.282 90.9005 102.107C90.5917 101.932 90.3335 101.68 90.151 101.376C89.9685 101.071 89.8678 100.725 89.8589 100.37C89.85 100.015 89.9331 99.6643 90.1001 99.3512L103.12 74.9464C103.295 74.6178 103.557 74.3431 103.876 74.1515C104.195 73.9599 104.561 73.8587 104.933 73.8587C105.306 73.8587 105.671 73.9599 105.99 74.1515C106.31 74.3431 106.571 74.6178 106.746 74.9464L119.76 99.3512C119.927 99.6644 120.01 100.015 120.001 100.37C119.992 100.725 119.892 101.072 119.709 101.376C119.526 101.68 119.268 101.932 118.959 102.107C118.65 102.282 118.301 102.374 117.946 102.374H91.9129Z" stroke="#0063CB" stroke-linecap="round" stroke-linejoin="round"/>
<path d="M105.416 92.68C105.388 92.7882 105.326 92.884 105.237 92.9525C105.149 93.021 105.041 93.0582 104.929 93.0582C104.818 93.0582 104.709 93.021 104.621 92.9525C104.533 92.884 104.47 92.7882 104.442 92.68C102.476 84.9312 102.558 85.28 102.551 85.2024C102.52 84.8711 102.558 84.5368 102.663 84.221C102.768 83.9052 102.938 83.6149 103.162 83.3686C103.386 83.1223 103.658 82.9256 103.963 82.7909C104.267 82.6563 104.596 82.5867 104.929 82.5867C105.262 82.5867 105.591 82.6563 105.896 82.7909C106.2 82.9256 106.473 83.1223 106.697 83.3686C106.921 83.6149 107.091 83.9052 107.196 84.221C107.301 84.5368 107.339 84.8711 107.307 85.2024C107.299 85.28 107.382 84.9288 105.416 92.68Z" stroke="#0063CB" stroke-linecap="round" stroke-linejoin="round"/>
<path d="M104.929 95.692C105.243 95.6918 105.551 95.785 105.812 95.9596C106.074 96.1342 106.278 96.3824 106.398 96.6729C106.519 96.9634 106.55 97.2831 106.489 97.5915C106.427 97.9 106.276 98.1833 106.054 98.4056C105.831 98.628 105.548 98.7794 105.24 98.8407C104.931 98.902 104.611 98.8705 104.321 98.7501C104.03 98.6296 103.782 98.4258 103.608 98.1642C103.433 97.9027 103.34 97.5953 103.34 97.2808C103.34 96.8596 103.508 96.4557 103.806 96.1578C104.104 95.86 104.508 95.6924 104.929 95.692ZM104.929 94.892C104.456 94.8918 103.994 95.0319 103.601 95.2944C103.208 95.5569 102.901 95.9301 102.721 96.3668C102.54 96.8035 102.492 97.284 102.584 97.7476C102.677 98.2112 102.904 98.6371 103.238 98.9713C103.573 99.3055 103.998 99.5332 104.462 99.6253C104.926 99.7175 105.406 99.6701 105.843 99.4892C106.28 99.3082 106.653 99.0018 106.915 98.6087C107.178 98.2156 107.318 97.7535 107.318 97.2808C107.318 96.9671 107.256 96.6565 107.136 96.3667C107.016 96.0768 106.84 95.8135 106.618 95.5917C106.396 95.3698 106.133 95.1939 105.843 95.0738C105.553 94.9538 105.243 94.892 104.929 94.892Z" fill="#0063CB"/>
</g>
<defs>
<clipPath id="clip0_4342_18704">
<rect width="80" height="80" fill="white" transform="translate(48 31)"/>
</clipPath>
</defs>
</svg>
