<svg width="360" height="142" viewBox="0 0 360 142" fill="none" xmlns="http://www.w3.org/2000/svg">
<rect width="360" height="142" fill="#E4ECF4"/>
<g clip-path="url(#clip0_4342_18702)">
<path d="M71.5376 63.6024C77.2584 63.6024 81.896 58.9648 81.896 53.244C81.896 47.5232 77.2584 42.8856 71.5376 42.8856C65.8168 42.8856 61.1792 47.5232 61.1792 53.244C61.1792 58.9648 65.8168 63.6024 71.5376 63.6024Z" stroke="#0063CB" stroke-linecap="round" stroke-linejoin="round"/>
<path d="M71.5376 39.9256V37.7064" stroke="#0063CB" stroke-linecap="round" stroke-linejoin="round"/>
<path d="M62.1199 43.8264L60.5511 42.2568" stroke="#0063CB" stroke-linecap="round" stroke-linejoin="round"/>
<path d="M58.22 53.244H56" stroke="#0063CB" stroke-linecap="round" stroke-linejoin="round"/>
<path d="M62.1199 62.6608L60.5511 64.2304" stroke="#0063CB" stroke-linecap="round" stroke-linejoin="round"/>
<path d="M81.6945 43.8264L83.2641 42.2568" stroke="#0063CB" stroke-linecap="round" stroke-linejoin="round"/>
<path d="M85.5952 53.244H87.8152" stroke="#0063CB" stroke-linecap="round" stroke-linejoin="round"/>
<path d="M81.6945 62.6608L83.2641 64.2304" stroke="#0063CB" stroke-linecap="round" stroke-linejoin="round"/>
<path d="M71.5376 66.5616V68.7816" stroke="#0063CB" stroke-linecap="round" stroke-linejoin="round"/>
<path d="M110.382 88.8176V58.4176C110.382 56.8475 109.758 55.3418 108.648 54.2315C107.537 53.1213 106.032 52.4976 104.462 52.4976C102.892 52.4976 101.386 53.1213 100.276 54.2315C99.1653 55.3418 98.5416 56.8475 98.5416 58.4176V88.8176C97.6098 89.6455 96.8641 90.6616 96.3539 91.7989C95.8437 92.9362 95.5804 94.1687 95.5816 95.4152C95.5763 96.2334 95.6925 97.0479 95.9264 97.832C96.4502 99.692 97.5674 101.33 99.1079 102.496C100.648 103.663 102.528 104.294 104.46 104.294C106.392 104.294 108.272 103.663 109.812 102.496C111.353 101.33 112.47 99.692 112.994 97.832C113.228 97.048 113.344 96.2335 113.338 95.4152C113.34 94.169 113.077 92.9366 112.568 91.7993C112.058 90.6621 111.313 89.6458 110.382 88.8176ZM106.164 97.832C105.667 98.1849 105.072 98.3745 104.462 98.3745C103.853 98.3745 103.258 98.1849 102.761 97.832C102.372 97.56 102.055 97.1982 101.836 96.7775C101.617 96.3568 101.503 95.8895 101.503 95.4152C101.501 94.8985 101.638 94.3907 101.898 93.9442C102.158 93.4978 102.532 93.1287 102.982 92.8752V59.16C102.982 58.7675 103.138 58.3911 103.416 58.1135C103.693 57.8359 104.07 57.68 104.462 57.68C104.855 57.68 105.231 57.8359 105.509 58.1135C105.786 58.3911 105.942 58.7675 105.942 59.16V92.8752C106.393 93.1286 106.767 93.4975 107.028 93.944C107.288 94.3906 107.424 94.8984 107.422 95.4152C107.422 95.8895 107.308 96.3569 107.089 96.7776C106.87 97.1983 106.553 97.56 106.164 97.832Z" stroke="#0063CB" stroke-linecap="round" stroke-linejoin="round"/>
<path d="M113.341 82.0992H120" stroke="#0063CB" stroke-linecap="round" stroke-linejoin="round"/>
<path d="M113.341 77.66H117.041" stroke="#0063CB" stroke-linecap="round" stroke-linejoin="round"/>
<path d="M113.341 73.2208H120" stroke="#0063CB" stroke-linecap="round" stroke-linejoin="round"/>
<path d="M113.341 68.7816H117.041" stroke="#0063CB" stroke-linecap="round" stroke-linejoin="round"/>
<path d="M113.341 64.3424H120" stroke="#0063CB" stroke-linecap="round" stroke-linejoin="round"/>
<path d="M113.341 59.9024H117.041" stroke="#0063CB" stroke-linecap="round" stroke-linejoin="round"/>
<path d="M107.422 95.4152C107.422 95.8895 107.308 96.3569 107.089 96.7776C106.87 97.1983 106.553 97.56 106.164 97.832C105.667 98.1849 105.072 98.3745 104.462 98.3745C103.853 98.3745 103.258 98.1849 102.761 97.832C102.372 97.5599 102.055 97.1982 101.836 96.7775C101.617 96.3568 101.503 95.8895 101.503 95.4152C101.501 94.8985 101.638 94.3907 101.898 93.9442C102.158 93.4977 102.532 93.1287 102.982 92.8752V59.16C102.982 58.7675 103.138 58.391 103.416 58.1135C103.693 57.8359 104.07 57.68 104.462 57.68C104.855 57.68 105.231 57.8359 105.509 58.1135C105.786 58.391 105.942 58.7675 105.942 59.16V92.8752C106.393 93.1285 106.767 93.4975 107.028 93.944C107.288 94.3905 107.424 94.8984 107.422 95.4152Z" stroke="#0063CB" stroke-linecap="round" stroke-linejoin="round"/>
<path d="M102.982 70.3944H105.942" stroke="#0063CB" stroke-linecap="round" stroke-linejoin="round"/>
</g>
<defs>
<clipPath id="clip0_4342_18702">
<rect width="80" height="80" fill="white" transform="translate(48 31)"/>
</clipPath>
</defs>
</svg>
