<svg width="149" height="98" viewBox="0 0 149 98" fill="none" xmlns="http://www.w3.org/2000/svg">
<rect width="33" height="12" transform="translate(16 16)" fill="white"/>
<path d="M26.6562 26.5498C26.6602 26.5498 26.6642 26.5439 26.6642 26.5439C26.696 26.5203 26.7279 26.4909 26.7558 26.4556C26.7518 26.4556 26.7478 26.4556 26.7438 26.4498C26.7159 26.4792 26.6841 26.5145 26.6562 26.5498Z" fill="#00008F"/>
<path d="M31.0694 25.0629L30.9997 25.1229C31.0396 25.1129 31.0694 25.1029 31.0694 25.0629Z" fill="#00008F"/>
<path fill-rule="evenodd" clip-rule="evenodd" d="M29.6426 26.5817C29.7704 26.4532 29.8983 26.3168 30.0261 26.1765H30.0222C30.2624 25.9038 30.4948 25.6428 30.7737 25.4051C30.8589 25.3272 30.9402 25.261 31.0177 25.2064C31.0291 25.195 31.0349 25.1779 31.0406 25.1612C31.0465 25.1438 31.0523 25.1268 31.0642 25.1168C31.009 25.1379 30.965 25.1712 30.9207 25.2047C30.8749 25.2394 30.8289 25.2742 30.7698 25.296C30.7466 25.296 30.7233 25.2727 30.7466 25.2493C30.8279 25.1908 30.9092 25.1285 30.9867 25.0662H30.9712C30.948 25.0662 30.948 25.0428 30.948 25.0194C30.6596 24.9736 30.4381 25.1708 30.2399 25.3473L30.2275 25.3584C30.1966 25.3739 30.1675 25.3585 30.1446 25.3464C30.133 25.3403 30.123 25.335 30.1152 25.335C29.9398 25.3938 29.7885 25.5022 29.6362 25.6114C29.4959 25.7119 29.3548 25.813 29.1933 25.8765V25.8298C29.1384 25.8487 29.0842 25.8734 29.0298 25.8981C28.9498 25.9345 28.8696 25.971 28.7865 25.9895C28.6349 26.0247 28.4943 26.0202 28.358 26.0158C28.3133 26.0143 28.2689 26.0129 28.2249 26.0129C27.9768 26.0375 27.7319 26.0906 27.4872 26.1437L27.4076 26.161C27.4037 26.1629 27.3998 26.1639 27.3959 26.1649C27.3921 26.1658 27.3882 26.1668 27.3843 26.1688C27.2371 26.2077 27.1016 26.2623 26.966 26.3402L26.9505 26.348C26.9452 26.3551 26.9398 26.3614 26.9349 26.3673C26.929 26.3743 26.9237 26.3806 26.9195 26.3869C26.873 26.4415 26.8304 26.4882 26.7646 26.5233C26.6673 26.5722 26.5832 26.6476 26.5005 26.7219C26.4647 26.754 26.429 26.7861 26.3927 26.8155C26.385 26.8233 26.3695 26.8272 26.3578 26.8272C26.2378 26.9441 26.1177 27.061 25.9937 27.1739C25.986 27.1817 25.9511 27.1856 25.924 27.1817C25.924 27.1817 25.9279 27.1817 25.9279 27.1778L25.9395 27.1545L25.9976 27.061C26.0092 27.0434 26.0199 27.0259 26.0305 27.0084C26.0412 26.9908 26.0518 26.9733 26.0634 26.9558C26.0944 26.909 26.1255 26.8622 26.1603 26.8194C26.168 26.8077 26.168 26.796 26.1603 26.7882C26.1525 26.7804 26.1409 26.7765 26.1293 26.7765C26.2416 26.6675 26.3733 26.5739 26.5089 26.4921V26.4882C26.4934 26.4921 26.4702 26.4804 26.4818 26.4649C26.4932 26.4506 26.5024 26.4342 26.5112 26.4188L26.5205 26.4025C26.5225 26.3986 26.5234 26.3957 26.5244 26.3928C26.5254 26.3899 26.5263 26.3869 26.5283 26.383C26.5263 26.3791 26.5234 26.3762 26.5205 26.3733C26.5176 26.3704 26.5147 26.3675 26.5128 26.3636L26.4893 26.3791C26.4612 26.3974 26.4324 26.4163 26.4082 26.4376C26.3911 26.4523 26.3751 26.4725 26.3588 26.4932C26.3232 26.5382 26.2857 26.5856 26.23 26.5856C26.2261 26.5856 26.2068 26.5856 26.1952 26.5817C26.1835 26.5817 26.1758 26.5778 26.1719 26.5739C26.1719 26.572 26.1719 26.571 26.1724 26.5705C26.1729 26.57 26.1738 26.57 26.1758 26.57C26.1758 26.57 26.1797 26.5662 26.1797 26.5623C26.1797 26.5623 26.1797 26.5584 26.1835 26.5584C26.1855 26.5545 26.1874 26.5515 26.1893 26.5486C26.1913 26.5457 26.1932 26.5428 26.1952 26.5389C26.1971 26.535 26.199 26.5321 26.201 26.5291C26.2029 26.5262 26.2048 26.5233 26.2068 26.5194C26.2087 26.5175 26.2097 26.5145 26.2106 26.5116C26.2116 26.5087 26.2126 26.5058 26.2145 26.5038L26.2189 26.4958C26.2227 26.4889 26.2273 26.4808 26.23 26.4726C26.2319 26.4688 26.2339 26.4658 26.2358 26.4629C26.2378 26.46 26.2397 26.4571 26.2416 26.4532C26.2474 26.4454 26.2523 26.4366 26.2571 26.4278C26.262 26.4191 26.2668 26.4103 26.2726 26.4025C26.2765 26.3947 26.2804 26.3869 26.2881 26.3791C26.292 26.3713 26.2959 26.3645 26.2997 26.3577C26.3036 26.3509 26.3075 26.3441 26.3114 26.3363C26.323 26.3168 26.3114 26.3012 26.2959 26.2973C26.3385 26.2428 26.3888 26.196 26.4508 26.161H26.4431C26.4965 26.1341 26.5515 26.1026 26.6062 26.0713C26.6384 26.0528 26.671 26.0341 26.7026 26.0168C26.7142 26.0051 26.7258 25.9934 26.7413 25.9856C26.6135 26.0285 26.4973 26.0869 26.385 26.1649C26.385 26.1649 26.354 26.1765 26.3462 26.1843C26.3462 26.1843 26.323 26.1921 26.292 26.1649C26.2881 26.161 26.2881 26.1571 26.2881 26.1493C26.3016 26.1222 26.3293 26.1043 26.3594 26.0849C26.3812 26.0708 26.4041 26.056 26.4237 26.0363C26.4469 26.0363 26.4663 26.0363 26.4663 26.0597C26.9124 25.7099 27.4625 25.6289 28.0144 25.5477C28.3539 25.4978 28.6941 25.4478 29.0112 25.335C29.0441 25.3116 29.078 25.2892 29.1119 25.2668C29.1458 25.2444 29.1797 25.222 29.2126 25.1986C29.2691 25.1751 29.3198 25.1348 29.3734 25.0922C29.4263 25.0501 29.4822 25.0056 29.5496 24.9727C29.7278 24.8363 29.8634 24.6805 29.9331 24.4506C29.9331 24.4272 29.9099 24.4038 29.9099 24.4038C29.6155 24.7194 29.2785 24.9688 28.9182 25.1519C28.5747 25.3331 28.2067 25.36 27.8423 25.3866C27.7054 25.3966 27.569 25.4065 27.4347 25.4246C27.4579 25.3778 27.5044 25.3779 27.547 25.3779C27.547 25.3225 27.5735 25.2987 27.6075 25.2682C27.6166 25.26 27.6263 25.2514 27.6361 25.2415H27.702C27.7136 25.2415 27.7194 25.2298 27.7252 25.2181C27.731 25.2064 27.7368 25.1947 27.7484 25.1947C27.7949 25.1947 27.8608 25.1714 27.8375 25.1714C27.802 25.1257 27.7504 25.1438 27.6934 25.1637C27.6386 25.1829 27.5789 25.2038 27.5238 25.1714C27.5443 25.1489 27.5504 25.1219 27.556 25.0974C27.5621 25.0708 27.5675 25.0471 27.5896 25.035H27.6787C27.6787 24.9882 27.7252 24.9454 27.7252 24.9454C27.9272 24.8239 28.1223 24.7179 28.3137 24.6138C28.4416 24.5443 28.568 24.4756 28.6936 24.4038C28.6682 24.4038 28.6456 24.4143 28.6238 24.4244C28.589 24.4406 28.5558 24.4559 28.5154 24.4272C28.5386 24.4272 28.5386 24.4107 28.5386 24.3941C28.5386 24.3775 28.5386 24.361 28.5619 24.361C28.7072 24.3222 28.8365 24.2592 28.9686 24.195C29.0619 24.1496 29.1565 24.1036 29.2591 24.0649C29.2287 24.0649 29.2005 24.0731 29.173 24.0811C29.1201 24.0964 29.0699 24.111 29.0112 24.0649C29.0266 24.0571 29.039 24.0473 29.0513 24.0375C29.076 24.0178 29.1002 23.9986 29.1468 23.9986V23.9324C29.1468 23.909 29.17 23.909 29.1933 23.909C29.17 23.909 29.1468 23.8857 29.1468 23.8857C29.1591 23.8609 29.1833 23.8558 29.2103 23.8501C29.2343 23.8451 29.2605 23.8396 29.2824 23.8194C29.2591 23.8194 29.2165 23.8194 29.2165 23.796C29.2824 23.7064 29.3947 23.6831 29.507 23.6597C29.4954 23.6363 29.4731 23.6363 29.4538 23.6363C29.4344 23.6363 29.4179 23.6363 29.4179 23.6129C29.4179 23.5896 29.4412 23.5896 29.4644 23.5896H29.4179C29.3815 23.5712 29.3879 23.5385 29.3924 23.5158C29.3936 23.5096 29.3947 23.5041 29.3947 23.4999C29.4857 23.3927 29.5156 23.2662 29.5454 23.1404C29.5599 23.0788 29.5745 23.0173 29.5961 22.9584C29.5729 22.9584 29.5496 22.9584 29.5496 22.935C29.3318 23.1767 28.9866 23.2683 28.6587 23.3554L28.6277 23.3636H28.5154C28.4031 23.4103 28.2443 23.4103 28.1319 23.3402C28.0785 23.3122 28.0404 23.2771 27.9993 23.2393C27.9718 23.214 27.9429 23.1875 27.9073 23.161C27.7252 23.048 27.547 22.9584 27.3456 22.8883C26.7839 22.709 26.199 22.6155 25.6141 22.6389C25.7775 22.5491 25.9509 22.5133 26.1266 22.4771C26.2176 22.4584 26.3093 22.4395 26.4004 22.4129C26.458 22.396 26.515 22.3785 26.5716 22.3611C26.8929 22.2626 27.2046 22.1671 27.547 22.187C27.5022 22.1711 27.4448 22.1768 27.392 22.1821C27.3672 22.1846 27.3434 22.187 27.3224 22.187C27.0634 22.1677 26.8019 22.2253 26.529 22.2855C26.4712 22.2982 26.4129 22.3111 26.354 22.3233C26.2471 22.3456 26.1455 22.3775 26.0437 22.4095C25.9315 22.4448 25.8191 22.4801 25.6993 22.5025C25.6474 22.5205 25.6056 22.551 25.565 22.5807C25.4996 22.6285 25.437 22.6743 25.3391 22.6623V22.5922C25.5638 22.3194 25.8349 22.0506 26.1952 22.0272C26.5434 21.9705 26.8717 22.0109 27.2142 22.053C27.2718 22.0601 27.3297 22.0673 27.3882 22.074C27.669 22.0966 27.9317 22.1592 28.2148 22.2267L28.2443 22.2337C28.3062 22.2337 28.3411 22.2883 28.3748 22.3411C28.4023 22.384 28.429 22.4258 28.4689 22.4363C28.5241 22.4553 28.5792 22.4589 28.6344 22.4624C28.7148 22.4676 28.7952 22.4728 28.8756 22.5259C28.8756 22.5102 28.873 22.4949 28.8704 22.4798C28.8653 22.4499 28.8602 22.4206 28.8756 22.3896C28.9256 22.3393 28.9829 22.3528 29.0393 22.3661C29.0834 22.3764 29.127 22.3867 29.1662 22.3662C29.289 22.29 29.1738 22.1729 29.0585 22.0558C29.0029 21.9993 28.9472 21.9428 28.9182 21.8909C28.9182 21.8675 28.9415 21.8441 28.9415 21.8441C28.9924 21.8897 29.0398 21.9369 29.0867 21.9837C29.2043 22.1008 29.3194 22.2153 29.4799 22.2961C29.5922 22.3428 29.8634 22.409 29.8169 22.2727C29.7373 22.0961 29.6014 21.9429 29.4642 21.7883C29.4077 21.7246 29.351 21.6607 29.2979 21.5948V21.5052C29.2625 21.5052 29.2541 21.4917 29.2435 21.4749C29.2402 21.4696 29.2367 21.464 29.232 21.4584V21.3688C29.1752 21.339 29.1625 21.2918 29.1497 21.2443C29.1424 21.2173 29.1351 21.1902 29.1197 21.1662C29.0808 21.1033 29.0781 21.0259 29.0752 20.946C29.0729 20.8825 29.0705 20.8175 29.0499 20.7571C29.0035 20.6207 28.9841 20.5078 28.9609 20.3714C28.9356 20.2319 28.9079 20.0985 28.8807 19.9679C28.8328 19.7374 28.7866 19.5157 28.7594 19.2844C28.7236 18.9538 28.8905 18.6743 29.0612 18.3885C29.1118 18.3037 29.1627 18.2185 29.2088 18.1312C29.3676 17.8584 29.5458 17.5896 29.8401 17.4065C29.9044 17.1405 30.0791 16.919 30.253 16.6985L30.2662 16.6818C30.4379 16.4679 30.7245 16.3371 30.9357 16.2408L30.9596 16.2299C31.2734 16.0896 31.5561 16 31.56 16H16V27.996H27.0396C27.3348 27.782 27.6283 27.6469 27.9775 27.4862C28.1369 27.4129 28.3079 27.3342 28.496 27.2402C28.5359 27.2201 28.5832 27.1968 28.6357 27.171C28.951 27.0159 29.4534 26.7687 29.6426 26.5817ZM26.1396 24.9633C26.0958 24.9677 26.0494 24.9723 26.0669 24.9372C26.0832 24.8583 26.1639 24.8347 26.2428 24.8116C26.2765 24.8017 26.31 24.7919 26.3378 24.7779L26.3505 24.7714L26.3598 24.7664C26.4035 24.7432 26.457 24.7148 26.4965 24.7313C26.5231 24.7692 26.5561 24.779 26.5881 24.7884C26.612 24.7955 26.6353 24.8024 26.6551 24.8207C26.5714 24.9047 26.4737 24.913 26.3747 24.9214C26.3089 24.9269 26.2425 24.9326 26.1791 24.9605C26.1678 24.9605 26.1538 24.9619 26.1396 24.9633ZM22.7126 24.4154C22.7126 24.4388 22.7359 24.4622 22.7359 24.4622C23.2782 23.8505 23.7701 23.3284 24.4673 22.8959C24.486 22.8881 24.4791 22.8979 24.4698 22.9109C24.4561 22.9302 24.4373 22.9567 24.4906 22.9427C24.7214 22.8901 24.8251 22.6923 24.9259 22.5C24.952 22.4502 24.9779 22.4008 25.0058 22.3544C25.1115 22.1823 25.2618 22.0721 25.4132 21.9611C25.5223 21.881 25.6321 21.8004 25.7262 21.696C25.7262 21.7193 25.7262 21.7427 25.703 21.7661C25.7262 21.7895 25.7495 21.7895 25.7727 21.7895C25.8136 21.7586 25.8582 21.7459 25.901 21.7336C25.9555 21.718 26.007 21.7033 26.0439 21.6531C25.8657 21.583 25.6372 21.5596 25.459 21.6297C24.9864 21.8557 24.5836 22.218 24.2001 22.6271C23.9677 22.8726 23.7275 23.1024 23.4331 23.2622C23.2317 23.6674 23.007 24.0297 22.7126 24.4154ZM24.6037 22.9664C24.5916 22.9908 24.5794 23.0035 24.5678 23.0156C24.5573 23.0266 24.5471 23.0372 24.5379 23.0557C24.5147 23.1023 24.4915 23.1217 24.4489 23.145C24.4257 23.145 24.4025 23.145 24.4025 23.1217C24.4257 23.0324 24.4915 22.9431 24.5805 22.9198C24.6037 22.9237 24.6037 22.947 24.6037 22.9664ZM25.5942 26.4264C25.6136 26.4069 25.6368 26.3835 25.6484 26.3601C25.6677 26.3134 25.5478 26.3251 25.5284 26.3368C25.5109 26.3509 25.4997 26.365 25.4862 26.3821L25.482 26.3874C25.4659 26.406 25.447 26.4232 25.4278 26.4406C25.4148 26.4525 25.4016 26.4644 25.3891 26.477C25.3349 26.5316 25.2808 26.5861 25.2227 26.6368C25.184 26.6718 25.3078 26.6874 25.3349 26.664C25.3659 26.6407 25.393 26.6134 25.4201 26.5861C25.4304 26.5861 25.4407 26.5844 25.4476 26.5832L25.4523 26.5825L25.4549 26.5822C25.5191 26.5607 25.5668 26.516 25.6132 26.4726L25.6252 26.4614C25.6407 26.4459 25.6213 26.4303 25.5942 26.4264ZM25.244 26.173C25.2436 26.1731 25.2433 26.1732 25.243 26.1734C25.2426 26.1739 25.2426 26.1749 25.2426 26.1768C25.2188 26.1931 25.1953 26.2097 25.1719 26.2263C25.1114 26.2691 25.0512 26.3117 24.9869 26.3483C24.9255 26.3829 24.8625 26.4128 24.7989 26.4429C24.7623 26.4603 24.7255 26.4778 24.6886 26.4963C24.6886 26.4963 24.6886 26.4924 24.6848 26.4924C24.677 26.4807 24.6615 26.4768 24.646 26.4846C24.5608 26.5314 24.4872 26.5937 24.4214 26.6599C24.4097 26.6677 24.3981 26.6794 24.3904 26.6911L24.3555 26.7262V26.7301C24.34 26.7457 24.3245 26.7612 24.3052 26.7846C24.3011 26.7887 24.298 26.7927 24.2951 26.7966C24.2895 26.8039 24.2843 26.8107 24.2742 26.8158C24.2587 26.8236 24.2199 26.8236 24.2238 26.8002V26.7963C24.2122 26.8041 24.1967 26.8119 24.1851 26.8158C24.1793 26.8197 24.1735 26.8226 24.1677 26.8255C24.1618 26.8284 24.156 26.8314 24.1502 26.8353C24.1463 26.8314 24.1386 26.8314 24.1347 26.8314C24.1309 26.8314 24.1231 26.8314 24.1192 26.8353C24.1102 26.8431 24.1012 26.8504 24.0921 26.8578C24.074 26.8725 24.056 26.8872 24.0379 26.9054C23.9914 26.9483 23.9488 26.995 23.9062 27.0457C23.9062 27.0457 23.9062 27.0495 23.9023 27.0495C23.9023 27.0515 23.9013 27.0525 23.9004 27.0534C23.8994 27.0544 23.8984 27.0554 23.8984 27.0573L23.8907 27.0651C23.8892 27.0666 23.8883 27.0681 23.8875 27.0694C23.8863 27.0714 23.8853 27.0729 23.8829 27.0729L23.8791 27.0768C23.8752 27.0846 23.8713 27.0924 23.8636 27.1002C23.8597 27.1041 23.852 27.108 23.8442 27.108C23.8403 27.1041 23.8365 27.1002 23.8365 27.0963C23.8345 27.0944 23.8336 27.0924 23.8326 27.0905C23.8316 27.0885 23.8307 27.0866 23.8287 27.0846C23.8248 27.0788 23.8219 27.0729 23.819 27.0671C23.8161 27.0612 23.8132 27.0554 23.8094 27.0495V27.0457C23.8094 27.0437 23.8084 27.0418 23.8074 27.0398C23.8064 27.0379 23.8055 27.0359 23.8055 27.034L23.8752 26.9521L23.8791 26.9483C23.8829 26.9444 23.8868 26.9395 23.8907 26.9346C23.8946 26.9298 23.8984 26.9249 23.9023 26.921C23.9081 26.9132 23.9149 26.9054 23.9217 26.8976C23.9285 26.8898 23.9352 26.882 23.9411 26.8742C23.943 26.8703 23.9449 26.8674 23.9469 26.8645C23.9488 26.8616 23.9507 26.8586 23.9527 26.8547C23.9759 26.8236 23.9992 26.7924 24.0224 26.7573V26.7534C24.0263 26.7496 24.0301 26.7457 24.0301 26.7379C24.0418 26.7223 24.0534 26.7067 24.0611 26.6911L24.0844 26.6444V26.6405L24.0882 26.6366C24.0882 26.6346 24.0892 26.6336 24.0902 26.6327C24.0912 26.6317 24.0921 26.6307 24.0921 26.6288C24.096 26.619 24.0999 26.6103 24.1037 26.6015C24.1076 26.5928 24.1115 26.584 24.1154 26.5742V26.5703L24.1192 26.5547C24.1212 26.5509 24.1221 26.547 24.1231 26.5431C24.1241 26.5392 24.125 26.5353 24.127 26.5314V26.5275C24.1289 26.5216 24.1299 26.5158 24.1309 26.5099C24.1318 26.5041 24.1328 26.4983 24.1347 26.4924C24.1347 26.4885 24.1347 26.4807 24.1309 26.4768C24.1541 26.434 24.1851 26.395 24.2199 26.356C24.218 26.356 24.2161 26.357 24.2141 26.358C24.213 26.3586 24.2119 26.3591 24.2108 26.3595C24.21 26.3598 24.2092 26.3599 24.2083 26.3599C24.1911 26.3708 24.1762 26.3852 24.1611 26.4C24.1491 26.4117 24.1369 26.4236 24.1231 26.434C24.0999 26.4535 24.0534 26.4223 24.0844 26.3989C24.1037 26.3833 24.1192 26.3677 24.1347 26.3522C24.1347 26.3522 24.1347 26.3483 24.1386 26.3483C24.154 26.3343 24.1689 26.3184 24.1838 26.3025C24.2064 26.2784 24.2292 26.254 24.2548 26.2353C24.2819 26.2158 24.3013 26.2002 24.3245 26.1807C24.3284 26.1768 24.3323 26.1729 24.3362 26.1729C24.3516 26.1535 24.3671 26.134 24.3865 26.1145C24.3865 26.1145 24.3904 26.1145 24.3904 26.1106C24.5234 25.9816 24.7103 25.9361 24.9011 25.8896C25.0214 25.8603 25.1433 25.8307 25.2542 25.7794C25.3168 25.7534 25.3866 25.7636 25.4556 25.7738C25.5104 25.7818 25.5647 25.7898 25.6144 25.7794C25.6803 25.7794 25.75 25.7794 25.8158 25.8262C25.6627 25.9077 25.5165 26.001 25.3719 26.0933C25.33 26.12 25.2882 26.1467 25.2464 26.1729C25.2454 26.1729 25.2446 26.1729 25.244 26.173ZM25.7281 24.5851C25.7099 24.5872 25.6982 24.5885 25.7082 24.5986C25.7741 24.6649 25.9097 24.6415 26.0026 24.5909C26.0685 24.5441 26.1382 24.5441 26.2273 24.5441C26.2505 24.5441 26.2505 24.5012 26.2505 24.4779C26.3164 24.5012 26.3629 24.5012 26.4287 24.5012C26.9671 24.3883 27.4862 24.2753 27.982 24.0259C27.4803 23.6383 26.8618 23.4656 26.256 23.2965C26.1555 23.2684 26.0554 23.2405 25.9561 23.2116C25.978 23.2116 25.9998 23.2189 26.0217 23.2262C26.066 23.241 26.1109 23.2559 26.1576 23.2116C26.0961 23.1626 26.0277 23.1532 25.9599 23.144C25.9038 23.1363 25.8482 23.1286 25.7973 23.0987C25.8026 23.0987 25.809 23.0999 25.8158 23.1012C25.839 23.1057 25.8685 23.1114 25.8864 23.0753C25.7688 23.0161 25.6511 22.996 25.5323 22.9757C25.4712 22.9653 25.4098 22.9548 25.348 22.9389C25.4603 22.9155 25.5301 22.8259 25.5301 22.7129C25.5301 22.6896 25.4836 22.6896 25.4603 22.6896C25.1931 22.8259 25.011 23.0753 24.8987 23.3675C24.9999 23.4271 25.1091 23.4202 25.2161 23.4134C25.2769 23.4096 25.3369 23.4058 25.3945 23.4142C25.3437 23.4625 25.2703 23.4756 25.1997 23.4882C25.1734 23.4929 25.1475 23.4975 25.1233 23.5038C25.0536 23.5194 24.9878 23.5701 25.011 23.6168C25.0265 23.6363 25.042 23.6441 25.0614 23.648C25.011 23.6636 24.9645 23.687 24.9219 23.7298C24.9857 23.78 25.0514 23.7703 25.1163 23.7608C25.1421 23.757 25.1677 23.7532 25.1931 23.7532C25.1931 23.7815 25.2116 23.7911 25.2309 23.8011C25.2409 23.8062 25.251 23.8115 25.2589 23.8194C25.1466 23.8623 25.0575 23.9558 25.0342 24.022C25.0065 24.0895 24.9552 24.1334 24.9044 24.1768C24.8701 24.2062 24.8361 24.2353 24.8096 24.2714V24.3415C24.7347 24.4078 24.6578 24.4671 24.582 24.5255C24.4262 24.6455 24.2748 24.7621 24.155 24.9298C24.1782 24.9298 24.1782 24.9532 24.1782 24.9766C24.1568 25.0089 24.1263 25.0313 24.0974 25.0525C24.0636 25.0774 24.0319 25.1006 24.0194 25.1363C24.0194 25.1597 24.0194 25.1831 24.0426 25.1831C24.1848 25.1361 24.3077 25.057 24.4283 24.9794C24.5377 24.9091 24.6452 24.84 24.7631 24.7973C24.8595 24.7742 24.9434 24.7305 25.0253 24.6878C25.0948 24.6516 25.1628 24.6162 25.2357 24.5947C25.2918 24.5831 25.3538 24.5665 25.4158 24.5499C25.4778 24.5334 25.5397 24.5168 25.5959 24.5051C25.5959 24.5285 25.5959 24.5519 25.6192 24.5519H25.7973C25.7864 24.5784 25.7518 24.5824 25.7281 24.5851Z" fill="#00008F"/>
<path d="M49.0001 16H36.0967C36.0967 16 36.1201 16.0039 36.2176 16.0546C36.3229 16.1092 36.4594 16.1834 36.5413 16.2263C36.7091 16.3121 36.869 16.4213 36.9743 16.5891C37.0211 16.6554 37.0874 16.7919 37.0445 16.8817C36.9977 16.9948 36.9743 17.1782 36.8612 17.2211C36.7247 17.2913 36.5452 17.2913 36.3853 17.2679C36.2956 17.2679 36.2059 17.2445 36.1123 17.2211C36.4516 17.3576 36.7715 17.5176 36.9977 17.8336C37.0211 17.8804 37.1108 17.8999 37.2006 17.8999C37.224 17.8999 37.224 17.9467 37.224 17.9662C37.1771 18.013 37.1342 18.0364 37.1576 18.1027H37.224C37.3371 18.0559 37.3137 17.8296 37.4736 17.8999C37.5867 17.9662 37.6335 18.1261 37.5633 18.2393C37.4736 18.329 37.3839 18.3992 37.2903 18.4655C37.2669 18.5124 37.2669 18.5787 37.2903 18.6255C37.3566 18.7152 37.38 18.8049 37.4034 18.8986C37.4736 19.0585 37.4931 19.238 37.5633 19.3979C37.653 19.7373 37.7427 20.0767 37.7232 20.42C37.7232 20.5995 37.6335 20.7594 37.6998 20.9428C37.7466 21.1222 37.8598 21.2588 37.9495 21.4187C38.0392 21.5553 38.1289 21.645 38.1991 21.7815C38.3356 22.0078 38.5853 22.2341 38.4722 22.5072C38.4059 22.6671 38.1562 22.6437 37.9963 22.7334C37.8598 22.8466 37.9729 23.0299 38.0431 23.143C38.1562 23.3459 37.9066 23.4824 37.7466 23.5527C37.7935 23.6229 37.8832 23.5995 37.9066 23.6424C37.93 23.7555 38.0431 23.8218 37.9729 23.9389C37.8832 24.0754 37.6101 24.1417 37.7466 24.3485C37.8364 24.5085 37.7779 24.684 37.7232 24.8479C37.6569 25.0507 37.4736 25.1404 37.3137 25.1873C37.1771 25.2341 37.0172 25.2341 36.8846 25.2107C36.8378 25.1873 36.7949 25.1638 36.7481 25.1638C36.3619 25.117 35.9757 25.0078 35.5935 25.0078C35.4804 25.0312 35.3672 25.0507 35.2775 25.0975C35.1761 25.1717 35.0825 25.2536 35.0045 25.3394C35.0045 25.3394 35.0045 25.3394 35.0006 25.3433C34.985 25.3628 34.9655 25.3784 34.9499 25.3979C34.9421 25.4096 34.9304 25.4213 34.9226 25.433C34.9148 25.4408 34.9109 25.4486 34.9031 25.4564C34.8368 25.5384 34.7782 25.6281 34.7236 25.7178C34.7197 25.7256 34.7158 25.7295 34.7119 25.7334C34.708 25.7451 34.7002 25.7529 34.6924 25.7646C34.6183 25.9012 34.5637 26.0416 34.5208 26.1821C34.3648 26.7009 34.435 27.1456 34.5442 27.2549C34.5754 27.2861 35.2931 27.5085 35.7924 27.7308C36.0265 27.8362 36.1903 27.9142 36.3268 28H48.9962V16H49.0001Z" fill="#E0000F"/>
<path d="M36.8631 20.3748C36.9526 20.3982 37.0888 20.3982 37.0888 20.4449C37.0421 20.6241 36.7736 20.6709 36.6375 20.854H36.5674C36.5013 20.9008 36.5208 21.0138 36.4546 21.0138C36.3885 20.9904 36.3185 21.0138 36.2523 21.0371C36.3418 21.1267 36.4546 21.1969 36.5908 21.1735C36.6141 21.1735 36.6569 21.2202 36.6569 21.2631C36.6569 21.2631 36.6803 21.2631 36.7036 21.2397C36.727 21.2397 36.7503 21.2397 36.7503 21.2631V21.3527C36.6842 21.4423 36.5674 21.3995 36.478 21.4189C36.6608 21.4657 36.8398 21.4657 36.9993 21.4189C37.1355 21.3722 36.9993 21.1462 37.0888 21.0332C37.0421 21.0332 37.0888 20.9631 37.0421 20.9631C37.0888 20.9164 37.1316 20.8501 37.1782 20.8267C37.2249 20.8267 37.2911 20.8034 37.3144 20.7566C37.3144 20.7099 37.2249 20.6904 37.2444 20.6436C37.3806 20.554 37.4934 20.4177 37.4467 20.2813C37.4233 20.2112 37.2444 20.2112 37.1316 20.1683C37.0187 20.1254 36.8826 20.1683 36.7464 20.1917C36.6336 20.1917 36.5208 20.2618 36.4079 20.2813C36.2484 20.328 36.1123 20.4177 35.98 20.5073C36.1395 20.441 36.2951 20.4177 36.478 20.3709C36.6141 20.3748 36.727 20.3436 36.8631 20.3748Z" fill="#808080"/>
<path d="M17.236 43V34.6H19.804C21.652 34.6 22.792 35.548 22.792 37.108C22.792 38.128 22.3 38.884 21.436 39.28L24.064 43H22.06L19.816 39.604H18.94V43H17.236ZM19.9 36.016H18.94V38.188H19.9C20.62 38.188 21.04 37.768 21.04 37.084C21.04 36.448 20.62 36.016 19.9 36.016ZM28.5273 33.88H26.9793L28.3353 32.26H30.0873L28.5273 33.88ZM25.3233 43V34.6H30.2193V36.016H27.0273V38.008H29.7393V39.424H27.0273V41.584H30.2193V43H25.3233ZM32.3794 43V34.6H35.1514C36.9994 34.6 38.1274 35.548 38.1274 37.108C38.1274 38.656 36.9994 39.604 35.1514 39.604H34.0834V43H32.3794ZM35.2234 36.016H34.0834V38.188H35.2234C35.9434 38.188 36.3754 37.768 36.3754 37.084C36.3754 36.448 35.9434 36.016 35.2234 36.016ZM44.6705 39.856V34.6H46.3745V39.712C46.3745 41.92 45.0785 43.24 42.9665 43.24C40.8665 43.24 39.5705 41.92 39.5705 39.712V34.6H41.2745V39.856C41.2745 40.984 41.9105 41.644 42.9785 41.644C44.0225 41.644 44.6705 40.984 44.6705 39.856ZM48.6713 43V34.6H51.1433C52.8953 34.6 53.9633 35.464 53.9633 36.88C53.9633 37.564 53.6513 38.152 53.0633 38.536C53.9513 38.932 54.4433 39.652 54.4433 40.528C54.4433 42.064 53.2553 43 51.3233 43H48.6713ZM51.1793 36.016H50.3753V37.912H51.1793C51.8273 37.912 52.2113 37.564 52.2113 36.952C52.2113 36.364 51.8273 36.016 51.1793 36.016ZM51.4193 39.328H50.3753V41.584H51.4193C52.2113 41.584 52.6913 41.164 52.6913 40.456C52.6913 39.736 52.2113 39.328 51.4193 39.328ZM56.3719 43V34.6H58.0759V41.452H61.2679V43H56.3719ZM62.9476 43V34.6H64.6516V43H62.9476ZM74.2234 42.784C74.8714 43.372 75.4474 43.588 75.9874 43.588C76.1674 43.588 76.4074 43.564 76.5874 43.492V44.932C76.3114 45.04 76.0714 45.088 75.6994 45.088C74.7634 45.088 73.8994 44.704 73.0714 43.984L72.0754 43.096C71.7154 43.192 71.3314 43.24 70.9234 43.24C68.2714 43.24 66.4594 41.2 66.4594 38.8C66.4594 36.4 68.2714 34.36 70.9234 34.36C73.5634 34.36 75.3754 36.4 75.3754 38.8C75.3754 40.204 74.7514 41.488 73.7194 42.304L74.2234 42.784ZM70.9234 41.644C72.4954 41.644 73.6234 40.408 73.6234 38.8C73.6234 37.192 72.4954 35.956 70.9234 35.956C69.3394 35.956 68.2114 37.192 68.2114 38.8C68.2114 40.408 69.3394 41.644 70.9234 41.644ZM82.1424 39.856V34.6H83.8464V39.712C83.8464 41.92 82.5504 43.24 80.4384 43.24C78.3384 43.24 77.0424 41.92 77.0424 39.712V34.6H78.7464V39.856C78.7464 40.984 79.3824 41.644 80.4504 41.644C81.4944 41.644 82.1424 40.984 82.1424 39.856ZM86.1432 43V34.6H91.0392V36.016H87.8472V38.008H90.5592V39.424H87.8472V41.584H91.0392V43H86.1432ZM17.236 55V46.6H22.132V48.016H18.94V50.008H21.652V51.424H18.94V55H17.236ZM23.8116 55V46.6H26.3796C28.2276 46.6 29.3676 47.548 29.3676 49.108C29.3676 50.128 28.8756 50.884 28.0116 51.28L30.6396 55H28.6356L26.3916 51.604H25.5156V55H23.8116ZM26.4756 48.016H25.5156V50.188H26.4756C27.1956 50.188 27.6156 49.768 27.6156 49.084C27.6156 48.448 27.1956 48.016 26.4756 48.016ZM31.2062 55L34.3862 46.6H36.6183L39.7982 55H37.9863L37.1823 52.816H33.8223L33.0182 55H31.2062ZM34.3503 51.364H36.6543L35.5023 48.208L34.3503 51.364ZM41.2754 55V46.6H43.4594L47.2154 52.672V46.6H48.9194V55H46.7354L42.9794 48.928V55H41.2754ZM55.1927 53.644C56.1527 53.644 56.9087 53.176 57.3887 52.492L58.7327 53.524C58.0847 54.412 57.0767 55.036 55.8527 55.192L54.8087 56.932H53.2967L54.3527 55.168C52.1687 54.784 50.7287 52.936 50.7287 50.8C50.7287 48.4 52.5407 46.36 55.1927 46.36C56.7167 46.36 57.9647 47.044 58.7327 48.064L57.3887 49.108C56.9087 48.424 56.1527 47.956 55.1927 47.956C53.6087 47.956 52.4807 49.192 52.4807 50.8C52.4807 52.408 53.6087 53.644 55.1927 53.644ZM59.2769 55L62.4569 46.6H64.6889L67.8689 55H66.0569L65.2529 52.816H61.8929L61.0889 55H59.2769ZM62.4209 51.364H64.7249L63.5729 48.208L62.4209 51.364ZM69.346 55V46.6H71.05V55H69.346ZM72.8219 53.836L74.0579 52.696C74.5619 53.344 75.2339 53.728 75.9179 53.728C76.5899 53.728 76.9979 53.368 76.9979 52.768C76.9979 51.22 73.1819 51.64 73.1819 48.796C73.1819 47.464 74.2859 46.36 75.8939 46.36C77.1539 46.36 78.1139 46.924 78.8339 47.776L77.5859 48.904C77.0939 48.268 76.5419 47.848 75.9059 47.848C75.3059 47.848 74.9099 48.232 74.9099 48.736C74.9099 50.26 78.7259 49.828 78.7259 52.708C78.7019 54.292 77.4779 55.24 75.9299 55.24C74.5139 55.24 73.5659 54.724 72.8219 53.836ZM80.6926 55V46.6H85.5886V48.016H82.3966V50.008H85.1086V51.424H82.3966V53.584H85.5886V55H80.6926Z" fill="black"/>
<path fill-rule="evenodd" clip-rule="evenodd" d="M47.18 76.614L46.0638 77.6339H45.7758L46.4359 76.47H47.18V76.614ZM46.3759 80.5614H46.1359C45.8358 80.9213 45.4998 81.2093 45.1757 81.2093C44.8397 81.2093 44.6717 81.0053 44.6717 80.5614C44.6717 80.3814 44.6957 80.1894 44.7317 80.0214L46.688 79.3734C47.072 78.4615 46.6159 78.0655 46.0759 78.0655C45.1517 78.0655 44.0956 79.6854 44.0956 80.9813C44.0956 81.5933 44.3836 81.9293 44.8397 81.9293C45.3678 81.9173 45.9198 81.4013 46.3759 80.5614ZM45.7046 78.5938C45.9686 78.5938 46.1966 78.7978 46.0766 79.2657L44.8644 79.5897C45.0565 79.0138 45.4165 78.5938 45.7046 78.5938ZM41.8886 78.6175H42.5367L41.5045 81.4493C41.4085 81.6893 41.5405 81.9293 41.7925 81.9293C42.5247 81.9293 43.4008 81.3053 43.7368 80.4174H43.5568C43.2928 80.7894 42.7167 81.1973 42.2846 81.2693L43.2328 78.6175H44.2049L44.3249 78.2095H43.3768L43.7368 77.1896H43.3648L42.6927 78.2095L41.8886 78.3175V78.6175ZM40.9878 78.0782C41.1198 78.0782 41.2998 78.2222 41.2158 78.4862L40.0516 81.306C40.3517 81.258 40.6637 80.97 40.8438 80.706H41.0358C40.7597 81.414 40.1356 81.93 39.5956 81.93C39.4636 81.93 39.2715 81.786 39.3675 81.522L40.4477 78.7022C40.1477 78.7502 39.8356 79.0381 39.6556 79.3021H39.4756C39.7516 78.5822 40.4237 78.0782 40.9878 78.0782ZM41.3246 77.3579C41.5647 77.3579 41.7687 77.1659 41.7687 76.9139C41.7687 76.674 41.5647 76.47 41.3246 76.47C41.0726 76.47 40.8806 76.674 40.8806 76.9139C40.8806 77.1539 41.0846 77.3579 41.3246 77.3579ZM36.0797 79.6981C36.3437 79.1221 36.2477 78.8581 36.0797 78.8581C35.9357 78.8581 35.7676 79.0141 35.5996 79.3021H35.4196C35.6956 78.6902 36.0557 78.0782 36.4517 78.0782C36.7878 78.0782 36.9078 78.4142 36.9078 78.7862V79.3141C36.9618 79.2513 37.0144 79.1896 37.0658 79.1293L37.0667 79.1282L37.0675 79.1273C37.5745 78.5324 37.9617 78.0782 38.408 78.0782C38.7561 78.0782 38.9361 78.2942 38.9361 78.6182C38.9361 78.8102 38.8761 79.0501 38.7441 79.3021L37.7479 81.306C38.048 81.258 38.36 80.97 38.54 80.706H38.7201C38.444 81.426 37.7719 81.93 37.2079 81.93C36.9558 81.93 36.8118 81.666 36.9198 81.45L38.072 79.2301C38.204 78.9781 38.228 78.8102 38.024 78.8102C37.7479 78.8102 37.0998 79.2661 36.7518 79.6861L35.9957 81.678C35.9117 81.882 35.8277 81.93 35.6356 81.93C35.3236 81.93 35.1676 81.726 35.3116 81.402L36.0797 79.6981ZM35.2987 78.9294C35.4307 78.4735 35.3587 78.0655 35.0106 78.0655C34.5766 78.0655 34.4407 78.3521 34.02 79.2391L33.9905 79.3014V78.7735C33.9905 78.4015 33.8705 78.0655 33.5344 78.0655C33.1384 78.0655 32.7783 78.6775 32.5023 79.2894H32.6823C32.8743 79.0134 33.0544 78.8455 33.1984 78.8455C33.3664 78.8455 33.4624 79.1094 33.1984 79.6854L32.4303 81.3893C32.2863 81.7133 32.4423 81.9173 32.7543 81.9173C32.9464 81.9173 33.0304 81.8693 33.1144 81.6653L33.8705 79.6734C34.0865 79.4094 34.2785 79.1814 34.5186 78.9294H35.2987ZM31.5064 79.2657C31.6264 78.7978 31.3984 78.5938 31.1344 78.5938C30.8463 78.5938 30.4863 79.0138 30.2942 79.5897L31.5064 79.2657ZM31.8057 80.5614H31.5657C31.2656 80.9213 30.9296 81.2093 30.6055 81.2093C30.2695 81.2093 30.1015 81.0053 30.1015 80.5614C30.1015 80.3814 30.1255 80.1894 30.1615 80.0214L32.1178 79.3734C32.5018 78.4615 32.0458 78.0655 31.5057 78.0655C30.5815 78.0655 29.5254 79.6854 29.5254 80.9813C29.5254 81.5933 29.8134 81.9293 30.2695 81.9293C30.7976 81.9173 31.3497 81.4013 31.8057 80.5614ZM27.9665 78.6175H27.3184V78.3175L28.1225 78.2095L28.7946 77.1896H29.1666L28.8066 78.2095H29.7547L29.6347 78.6175H28.6626L27.7144 81.2693C28.1465 81.1973 28.7226 80.7894 28.9866 80.4174H29.1666C28.8306 81.3053 27.9545 81.9293 27.2224 81.9293C26.9703 81.9293 26.8383 81.6893 26.9343 81.4493L27.9665 78.6175ZM23.8865 80.8136C23.8865 79.9377 24.8586 78.7617 25.3987 78.7617C25.5187 78.7617 25.6387 78.7737 25.7347 78.8097L25.1707 80.3217C24.8466 80.7176 24.3425 81.1976 24.1025 81.1976C23.9705 81.1976 23.8865 81.0776 23.8865 80.8136ZM26.5632 77.8858L26.8632 77.9098L25.8191 80.3097C25.567 80.8856 25.675 81.1496 25.8191 81.1496C25.9631 81.1496 26.1431 80.9816 26.3351 80.7057H26.5152C26.2391 81.3176 25.8791 81.9296 25.483 81.9296C25.147 81.9296 24.9429 81.5696 25.0029 80.9216L25.0269 80.6937L24.9616 80.7849C24.5317 81.3858 24.1427 81.9296 23.7428 81.9296C23.3947 81.9296 23.2147 81.7136 23.2147 81.3896C23.2147 79.9977 24.7389 78.2218 26.1671 78.2218H26.2271L26.5632 77.8858ZM23.814 78.9294C23.946 78.4735 23.874 78.0655 23.526 78.0655C23.0919 78.0655 22.956 78.3521 22.5354 79.2391L22.5058 79.3014V78.7735C22.5058 78.4015 22.3858 78.0655 22.0498 78.0655C21.6537 78.0655 21.2937 78.6775 21.0176 79.2894H21.1976C21.3897 79.0134 21.5697 78.8455 21.7017 78.8455C21.8697 78.8455 21.9658 79.1094 21.7017 79.6854L20.9336 81.4013C20.7896 81.7253 20.9456 81.9293 21.2576 81.9293C21.4497 81.9293 21.5337 81.8813 21.6177 81.6773L22.3738 79.6854C22.5898 79.4214 22.7819 79.1934 23.0219 78.9414H23.814V78.9294ZM18.8684 81.5686L18.7964 81.7846H16L16.072 81.5566C16.9361 81.4006 17.0802 81.3286 17.4402 80.3566L18.2203 78.2688C18.5684 77.2968 18.4964 77.2248 17.7403 77.0688L17.8123 76.8528H21.4488L21.2328 78.0168H20.9687C20.9687 77.3208 20.8967 77.1408 20.2366 77.1408H20.0686C19.4205 77.1408 19.3365 77.2368 19.1565 77.7408L18.6404 79.1447H19.3965C19.9006 79.1447 20.0926 78.8327 20.3206 78.4247H20.5847L19.9606 80.1286H19.6965C19.7565 79.6127 19.7565 79.4087 19.2885 79.4087H18.5324L18.1843 80.3686C17.8081 81.3678 17.9156 81.3882 18.8115 81.5578C18.8301 81.5613 18.8491 81.5649 18.8684 81.5686Z" fill="black"/>
<path fill-rule="evenodd" clip-rule="evenodd" d="M21.2448 67.4341L20.1286 68.2385V68.2505H19.8405L20.5006 67.29H21.2448V67.4341ZM29.0472 73.0648L30.8355 68.3105L30.7755 68.2384L29.5393 68.3825V68.5266L29.7793 68.7066C29.9843 68.8661 29.93 69.0147 29.76 69.4805L29.7313 69.5591L28.3631 73.2089C28.2551 73.425 28.3991 73.6891 28.6511 73.6891C29.2152 73.6891 29.8153 73.1728 30.0914 72.4645H29.9114C29.7193 72.7286 29.3353 73.0168 29.0472 73.0648ZM37.2438 69.403L38.36 68.3825V68.2384H37.6159L36.9558 69.403H37.2438ZM37.315 72.3204H37.5551C37.111 73.1728 36.5589 73.6891 36.0308 73.6891C35.5747 73.6891 35.2867 73.3529 35.2867 72.7406C35.2867 71.444 36.3429 69.8232 37.267 69.8232C37.7951 69.8232 38.2632 70.2194 37.8791 71.1318L35.9108 71.7801C35.8748 71.9482 35.8508 72.1403 35.8508 72.3204C35.8508 72.7646 36.0188 72.9687 36.3549 72.9687C36.6789 72.9687 37.015 72.6806 37.315 72.3204ZM37.2544 71.0238C37.3745 70.5676 37.1464 70.3635 36.8824 70.3635C36.6063 70.3635 36.2463 70.7837 36.0422 71.348L37.2544 71.0238ZM33.7258 70.3872H33.0777V70.0871L33.8818 69.979L34.554 68.9585H34.926L34.566 69.979H35.5141L35.3941 70.3872H34.4219L33.4738 73.0405C33.9058 72.9685 34.4819 72.5603 34.746 72.1881H34.926C34.59 73.0765 33.7138 73.7008 32.9817 73.7008C32.7296 73.7008 32.5976 73.4607 32.6936 73.2206L33.7258 70.3872ZM32.4055 70.2431C32.4775 69.979 32.3095 69.8349 32.1655 69.8349C31.6014 69.8349 30.9292 70.3512 30.6532 71.0595H30.8332C31.0133 70.7954 31.3253 70.5072 31.6254 70.4592L30.5452 73.2806C30.4492 73.5447 30.6412 73.6888 30.7732 73.6888C31.3133 73.6888 31.9374 73.1726 32.2135 72.4642H32.0334C31.8534 72.7283 31.5413 73.0165 31.2413 73.0645L32.4055 70.2431ZM32.9585 68.6826C32.9585 68.9228 32.7544 69.1269 32.5144 69.1269C32.2744 69.1269 32.0703 68.9228 32.0703 68.6826C32.0703 68.4425 32.2624 68.2384 32.5144 68.2384C32.7544 68.2384 32.9585 68.4425 32.9585 68.6826ZM26.8987 70.5315C26.3586 70.5315 25.3864 71.7081 25.3864 72.5846C25.3864 72.8487 25.4704 72.9687 25.6145 72.9687C25.8425 72.9687 26.3466 72.4885 26.6706 72.0923L27.2347 70.5796C27.1267 70.5435 27.0187 70.5315 26.8987 70.5315ZM28.3632 69.6791L28.0632 69.6551L27.7271 69.9913H27.6671C26.2389 69.9913 24.7146 71.7682 24.7146 73.1609C24.7146 73.485 24.8946 73.7011 25.2427 73.7011C25.6426 73.7011 26.0316 73.1571 26.4616 72.5558L26.5269 72.4645L26.5029 72.6926C26.4429 73.3409 26.6469 73.7011 26.983 73.7011C27.3791 73.7011 27.7391 73.0888 28.0152 72.4765H27.8351C27.6431 72.7527 27.4631 72.9207 27.3191 72.9207C27.175 72.9207 27.067 72.6566 27.3191 72.0803L28.3632 69.6791ZM22.3135 73.5692C21.7974 73.7733 21.4373 74.0134 21.4373 74.3856C21.4373 74.7337 21.7614 74.8778 22.4335 74.8778C23.3337 74.8778 23.8258 74.6137 23.8258 74.2655C23.8258 74.1094 23.6217 74.0374 23.0816 73.8573C22.7336 73.7493 22.4815 73.6532 22.3135 73.5692ZM22.9128 72.0924C22.6728 72.0924 22.5888 71.8883 22.5888 71.6722C22.5888 70.9758 22.9248 70.1114 23.4649 70.1114C23.705 70.1114 23.789 70.3155 23.789 70.5316C23.777 71.24 23.4409 72.0924 22.9128 72.0924ZM23.3701 73.2209C24.0302 73.425 24.4383 73.581 24.4383 74.0373C24.4383 74.6255 23.3581 75.3219 22.0499 75.3099C21.2937 75.3099 20.6456 75.1058 20.6456 74.6135C20.6456 74.1453 21.0777 73.7611 22.1339 73.449C21.9899 73.3529 21.9299 73.2329 21.9299 73.0648C21.9299 72.7766 22.1939 72.5485 22.65 72.3324C22.2059 72.2724 21.9178 71.9362 21.9178 71.444C21.9178 70.6876 22.542 69.8232 23.5261 69.8232C23.7302 69.8232 23.9102 69.8712 24.0542 69.9673H25.1344L25.0144 70.3755H24.3783C24.4143 70.4835 24.4383 70.6036 24.4383 70.7356C24.4383 71.468 23.8502 72.3084 22.914 72.3564C22.674 72.4885 22.554 72.6686 22.554 72.8127C22.554 72.9822 22.7503 73.0395 23.1842 73.1662C23.2419 73.183 23.3039 73.2011 23.3701 73.2209ZM19.5646 71.1679C20.0327 71.1679 20.0447 71.372 19.9727 71.8883H20.2367L20.8609 70.1834H20.5968C20.3688 70.5916 20.1767 70.9038 19.6726 70.9038H18.6405L19.1446 69.4991C19.3246 68.9949 19.4086 68.8988 20.0567 68.8988H20.5128C21.1729 68.8988 21.2449 69.0789 21.2449 69.7752H21.509L21.725 68.6107H17.8123L17.7403 68.8268C18.4964 68.9829 18.5684 69.0549 18.2204 70.0274L17.4403 72.1284C17.0802 73.1009 16.9362 73.1729 16.06 73.329L16 73.5571H20.3448L21.1249 72.3205H20.8248C20.3208 72.8127 19.8167 73.269 18.8325 73.269C17.75 73.269 17.7693 73.216 18.0941 72.3234C18.115 72.266 18.1372 72.205 18.1604 72.1404L18.5204 71.1799H19.5646V71.1679Z" fill="black"/>
<path fill-rule="evenodd" clip-rule="evenodd" d="M23.1496 60.8876C23.3896 60.8876 23.5936 60.6837 23.5936 60.4438C23.5936 60.2039 23.3896 60 23.1496 60C22.8977 60 22.7057 60.2039 22.7057 60.4438C22.7057 60.6957 22.8977 60.8876 23.1496 60.8876ZM26.7022 62.3986C26.7022 61.8229 26.5583 61.607 26.1503 61.607C25.6464 61.607 25.1785 62.1467 24.7106 62.7944L25.7184 60.0956L25.6584 60.0117L24.4227 60.1556V60.2996L24.6626 60.4795C24.8716 60.6419 24.811 60.8044 24.633 61.2818L24.6146 61.3311L23.5229 64.1858C23.4269 64.4257 23.3189 64.7136 23.3189 64.7856C23.3189 65.1214 23.7748 65.4453 24.1947 65.4453C25.1305 65.4573 26.7022 63.73 26.7022 62.3986ZM37.1042 61.1752L38.22 60.1556V60.0117H37.4761L36.8163 61.1752H37.1042ZM37.1765 64.0899H37.4164C36.9605 64.9415 36.4086 65.4573 35.8807 65.4453C35.4248 65.4453 35.1369 65.1214 35.1369 64.5097C35.1369 63.2143 36.1927 61.595 37.1165 61.595C37.6444 61.595 38.1123 61.9908 37.7284 62.9024L35.7727 63.5501C35.7368 63.7181 35.7128 63.91 35.7128 64.0899C35.7128 64.5337 35.8807 64.7376 36.2167 64.7376C36.5406 64.7376 36.8765 64.4497 37.1765 64.0899ZM37.1153 62.7945C37.2353 62.3387 37.0073 62.1348 36.7434 62.1348C36.4555 62.1348 36.0955 62.5546 35.9036 63.1184L37.1153 62.7945ZM33.5747 62.1595H32.9268V61.8596L33.7306 61.7516L34.4025 60.7321H34.7744L34.4145 61.7516H35.3623L35.2423 62.1595H34.2705L33.3227 64.8103C33.7546 64.7383 34.3305 64.3305 34.5945 63.9587H34.7744C34.4385 64.8463 33.5627 65.47 32.8308 65.47C32.5789 65.47 32.4469 65.2301 32.5429 64.9902L33.5747 62.1595ZM32.5931 62.4713C32.7251 62.0155 32.6531 61.6077 32.3052 61.6077C31.8713 61.6077 31.7354 61.8942 31.3149 62.7809L31.2854 62.8431V62.3154C31.2854 61.9435 31.1654 61.6077 30.8295 61.6077C30.4336 61.6077 30.0736 62.2194 29.7977 62.8311H29.9776C30.1696 62.5553 30.3496 62.3873 30.4815 62.3873C30.6495 62.3873 30.7455 62.6512 30.4815 63.227L29.7137 64.9302C29.5697 65.2541 29.7257 65.458 30.0376 65.458C30.2296 65.458 30.3136 65.41 30.3976 65.2061L31.1534 63.215C31.3694 62.9511 31.5613 62.7232 31.8013 62.4713H32.5931ZM28.7902 62.7945C28.9101 62.3387 28.6822 62.1348 28.4182 62.1348C28.1303 62.1348 27.7823 62.5546 27.5784 63.1184L28.7902 62.7945ZM29.0893 64.0899H28.8494C28.5495 64.4497 28.2135 64.7376 27.8896 64.7376C27.5536 64.7376 27.3857 64.5337 27.3857 64.0899C27.3857 63.91 27.4097 63.7181 27.4457 63.5501L29.4013 62.9024C29.7852 61.9908 29.3293 61.595 28.7894 61.595C27.8656 61.595 26.8098 63.2143 26.8098 64.5097C26.8098 65.1214 27.0977 65.4453 27.5536 65.4453C28.0815 65.4573 28.6334 64.9415 29.0893 64.0899ZM24.0512 64.5461C24.0512 64.702 24.3272 64.882 24.5191 64.882C25.299 64.882 26.0308 63.4786 26.0188 62.6989C26.0188 62.435 25.8869 62.3271 25.7069 62.3271C25.419 62.3271 24.8911 62.7589 24.5551 63.1667L24.2432 64.0064C24.1352 64.2822 24.0512 64.4981 24.0512 64.5461ZM22.7917 61.6077C22.9357 61.6077 23.1036 61.7516 23.0316 62.0155L21.8799 64.8343C22.1798 64.7863 22.4917 64.4984 22.6717 64.2345H22.8517C22.5757 64.9422 21.9518 65.458 21.4119 65.458C21.268 65.458 21.076 65.314 21.172 65.0502L22.2518 62.2314C21.9518 62.2794 21.6399 62.5673 21.4599 62.8311H21.28C21.5559 62.1235 22.2278 61.6077 22.7917 61.6077ZM17.8116 60.3602H20.3911L20.3192 60.5881C19.4433 60.744 19.2994 60.816 18.9394 61.7876L18.1716 63.8986C17.7997 64.9062 17.8956 65.0261 18.5555 65.0261C19.3708 65.0261 19.9053 64.4337 20.3721 63.9164C20.4068 63.878 20.4411 63.84 20.4751 63.8027H20.7751L19.9232 65.314H16L16.072 65.0981C16.9358 64.9422 17.0798 64.8702 17.4397 63.8986L18.2196 61.7756C18.5675 60.804 18.4955 60.732 17.7397 60.5761L17.8116 60.3602Z" fill="black"/>
<path d="M148.719 72.9998H108V24.9998H148.719V72.9998Z" fill="#004899"/>
<path d="M147.811 25.9051H108.905V72.0944H147.811V25.9051Z" fill="white"/>
<path d="M120.361 51.971C121.611 53.8639 123.488 55.2563 125.662 55.9039C127.836 56.5514 130.168 56.4128 132.25 55.5124C134.332 54.6119 136.03 53.0071 137.047 50.9795C138.064 48.9519 138.335 46.6309 137.811 44.4238C137.288 42.2166 136.004 40.2643 134.185 38.9092C132.366 37.5541 130.128 36.8829 127.863 37.0132C125.598 37.1435 123.452 38.0671 121.8 39.6219C120.149 41.1767 119.097 43.2634 118.83 45.516C118.785 45.8906 118.763 46.2676 118.763 46.6449C118.76 48.5368 119.316 50.3873 120.361 51.9642" fill="#80A4CC"/>
<path d="M125.285 43.5134L125.8 43.5947L125.624 43.9333L125.173 43.6895L125.285 43.5134ZM127.356 42.3845L126.925 42.7638V43.0212L127.602 43.1905L128.968 42.2626L128.932 41.8856L128.39 41.6982L127.356 42.3845ZM127.568 41.3663H127.444L127.216 41.7975L126.846 41.8269L126.423 42.4365L126.649 42.5809L127.218 42.2197L127.654 41.7546L127.568 41.3663ZM128.336 40.1697L127.462 40.865L127.773 41.0908L128.471 40.3774L128.336 40.1697ZM121.619 44.0507L121.921 44.0891L122.016 43.3734V43.1476L121.962 42.9219L121.806 42.9083L121.619 44.0507ZM121.779 44.5226L121.876 44.6739L122.059 44.701L122.143 44.3307L121.84 44.2585L121.779 44.5226ZM121.955 44.8929L121.985 45.0893H122.172L122.147 44.8771L121.955 44.8929ZM122.061 45.3151L122.113 45.4415L122.271 45.3715C122.271 45.3715 122.228 45.2541 122.224 45.2541L122.061 45.3151ZM122.156 45.6763L122.292 45.6267L122.24 45.5115C122.24 45.5115 122.163 45.577 122.165 45.586V45.6763H122.156ZM128.57 45.1187C128.57 45.1187 128.324 45.717 128.324 45.7215C128.324 45.726 128.71 45.7576 128.71 45.7599L128.803 45.2677L128.735 45.218L128.78 45.0487L128.586 44.9426L128.525 45.069L128.57 45.1187ZM128.004 45.5341L128.214 45.5928L128.277 45.3964L128.128 45.3625L128.004 45.5341ZM132.533 53.1269L132.228 53.3031L131.84 53.3843L130.986 54.2242L131.038 54.4116L131.162 54.3936L131.65 54.1836C131.92 54.0571 132.168 53.8879 132.384 53.6824C132.534 53.5335 132.658 53.3611 132.752 53.1721L132.533 53.1269ZM132.307 54.2987L132.203 54.1836L132.041 54.2807C132.041 54.2807 132.163 54.4048 132.16 54.4048L132.307 54.2987ZM129.072 47.031L128.952 47.0152V47.241L129.074 47.2635L129.146 46.97L129.108 46.9542L129.072 47.031ZM121.865 45.7666L121.908 45.9495L122.082 45.8931L122.025 45.7079L121.865 45.7666ZM120.361 51.9777L121.039 51.4246L121.587 51.5646L123.052 50.4605L123.122 49.8735L122.161 48.4692C122.106 47.9456 122.017 47.426 121.897 46.9136C121.797 46.5704 121.574 45.5725 121.565 45.5589L121.438 45.3038L120.522 43.9288L121.115 42.4432L121.571 42.4094L121.601 42.1836L121.249 41.8901V41.5492C121.249 41.3595 121.569 41.1676 121.784 41.1676C121.844 41.1681 121.904 41.1772 121.962 41.1947C122.115 41.2565 122.257 41.3435 122.382 41.4521C122.405 41.4679 122.802 42.3981 122.802 42.3981L122.465 42.6713L122.298 43.0777L122.524 43.2605L122.847 42.7029L124.184 43.1544L125.001 43.6195L125.249 43.3486L125.927 43.405L126.428 42.7277L125.976 42.5561L126.453 41.9826L126.396 41.7885L125.669 41.6485L126.225 41.0547L126.764 41.4069V41.5627L127.105 41.6033L127.374 41.0547L127.173 40.8763L128.022 40.059L128.796 39.7L129.395 39.3072L129.512 39.2146L129.535 38.7947L129.433 38.4967L129.169 38.3928L129.507 38.1264L129.415 38.0767C128.912 38.4276 128.322 38.6316 127.71 38.666C127.033 38.7111 125.692 38.4154 125.692 38.4154L124.351 38.2144L123.881 38.1309C122.745 38.7369 121.742 39.5627 120.928 40.5603L120.894 41.8269L120.686 42.4094L120.217 44.0801L120.373 44.552L119.612 44.6603L118.842 45.516C118.799 45.8908 118.777 46.2677 118.776 46.6449C118.773 48.5368 119.33 50.3873 120.375 51.9642L120.361 51.9777ZM133.492 38.4312C134.671 39.1612 135.678 40.1363 136.447 41.2902C137.215 42.4441 137.726 43.7498 137.945 45.1187L137.191 45.7644L136.71 45.6492L136.484 45.8479L136.5 45.9811C136.5 46.0444 136.536 46.1685 136.583 46.3559C136.676 46.7251 136.725 47.1041 136.728 47.4848C136.737 47.7543 136.706 48.0237 136.635 48.2841H136.224L135.068 47.3764L134.188 47.5751L133.619 47.478L132.899 47.7038L133.224 47.9838L133.79 47.8235L134.278 48.2141L134.201 48.3857L134 48.713L133.567 49.3317L132.89 49.8713L131.655 48.5888L131.334 48.6227L132.652 50.1354L133.188 50.027L133.321 50.3002L132.783 51.1808L131.736 52.1809L131.28 53.3618C131.247 53.4101 131.199 53.4465 131.144 53.4656C130.951 53.5682 130.773 53.6991 130.618 53.8539C130.365 54.091 130.225 54.222 130.194 54.2468C129.956 54.4529 129.706 54.6437 129.444 54.818C129.166 55.0058 128.878 55.1769 128.579 55.3305C128.09 55.5824 127.549 55.7191 126.999 55.7301C126.654 55.7292 126.312 55.672 125.985 55.5608C125.94 55.545 125.911 55.5224 125.911 55.5021L126.137 54.8564C126.313 54.6299 126.502 54.4136 126.703 54.2084C126.885 54.0009 127.02 53.7568 127.098 53.4927C127.174 53.2234 127.272 52.9607 127.39 52.707C127.6 52.3683 127.699 52.0793 127.629 52.0094L126.261 50.6344L125.687 49.5665L125.748 49.3136C125.866 48.9685 126.017 48.6357 126.2 48.3202C126.278 48.1222 126.415 47.9529 126.593 47.8348L127.509 47.3832L129.286 47.6519L129.828 48.0131L130.081 47.9815L131.167 48.2637L131.438 47.5571L130.058 47.1687L129.571 46.6833L129.503 46.7014L129.729 47.2771L129.453 47.3335L129.424 47.2658L129.521 47.2477C129.521 47.2477 129.437 46.8933 129.223 46.7962C129.161 46.7565 129.091 46.7325 129.017 46.7262C128.883 46.736 128.755 46.7882 128.652 46.8752C128.487 47.0513 128.299 47.2033 128.092 47.3268L127.525 46.9L127.735 46.3717L127.823 46.392C127.876 46.405 127.929 46.4111 127.983 46.4101C128.051 46.4163 128.118 46.3994 128.174 46.362C128.231 46.3246 128.272 46.2691 128.293 46.2047C128.302 46.1709 128.301 46.1352 128.29 46.1019C128.279 46.0686 128.259 46.0392 128.232 46.0173L128.178 45.9563C128.207 45.9281 128.233 45.8971 128.257 45.8637C128.368 45.8936 128.481 45.9147 128.595 45.9269C128.718 45.9437 128.841 45.9121 128.941 45.8389L129.076 45.6131L129.302 45.5476L129.343 45.2428H129.485C129.537 45.3213 129.576 45.4085 129.598 45.5002L129.997 45.3964L130.115 44.9877L130.052 44.9155L130.225 44.5226L130.074 44.4165L129.817 45.139L129.677 45.1571L129.614 44.9968L129.255 45.0238L129.054 44.701L129.489 44.2494L129.916 43.6782L130.519 43.8679L130.666 44.1659H130.849L130.781 43.7324L131.273 43.2809L130.946 41.7975L131.156 41.3301L131.381 41.3437L131.415 40.9779L129.835 39.2598L129.887 38.7947L131.185 38.4989L131.372 38.5554L132.111 38.4831L132.282 38.5599L133.474 38.4425L133.492 38.4312ZM133.47 38.7179L131.957 39.0476L133 39.6481L133.341 39.2485L133.763 38.964L133.47 38.7179Z" fill="#004899"/>
<path d="M117.555 34.0014L117.304 33.1977H115.645L115.381 34.0014H113.994L115.956 28.6054H116.979L118.939 34.0014H117.555ZM116.5 30.6509L116.017 32.0914H116.957L116.5 30.6509Z" fill="#E01B15"/>
<path d="M123.901 33.4709C123.706 33.651 123.477 33.7907 123.228 33.8818C122.978 33.9728 122.713 34.0135 122.447 34.0014H120.443V28.6054H122.441C122.706 28.5933 122.971 28.634 123.221 28.7251C123.47 28.8161 123.699 28.9558 123.895 29.136C124.525 29.7659 124.455 30.4545 124.455 31.3034C124.455 32.1523 124.531 32.841 123.901 33.4709ZM122.998 30.0842C122.929 29.9813 122.833 29.8989 122.721 29.8456C122.609 29.7924 122.485 29.7703 122.362 29.7817H121.775V32.8184H122.357C122.481 32.8297 122.605 32.8077 122.717 32.7544C122.829 32.7012 122.925 32.6188 122.994 32.5158C123.1 32.3646 123.136 32.2201 123.136 31.3034C123.136 30.3868 123.1 30.2423 122.994 30.091L122.998 30.0842Z" fill="#E01B15"/>
<path d="M126.263 34.0014V28.6054H129.925V29.7885H127.588V30.6916H129.586V31.8746H127.588V32.8206H129.925V34.0037L126.263 34.0014Z" fill="#E01B15"/>
<path d="M135.468 34.0014V31.4163L134.703 32.7506H133.854L133.086 31.4163V34.0014H131.763V28.6054H133.063L134.276 30.9851L135.488 28.6054H136.789V34.0014H135.468Z" fill="#E01B15"/>
<path d="M138.757 34.0014V28.6054H142.422V29.7885H140.085V30.6916H142.083V31.8746H140.085V32.8206H142.424V34.0037L138.757 34.0014Z" fill="#E01B15"/>
<path d="M115.069 59.3426L114.211 61.7042H114.771L114.888 61.3429H115.674L115.787 61.7042H116.347L115.487 59.3426H115.069ZM115.037 60.9049L115.295 60.1395L115.536 60.9049H115.037Z" fill="#E01B15"/>
<path d="M117.878 61.7177C118.003 61.7255 118.129 61.7059 118.245 61.6603C118.362 61.6147 118.468 61.5441 118.555 61.4536C118.727 61.2797 118.781 61.0652 118.781 60.6701V60.3608H117.905V60.8124H118.262V60.8733C118.264 60.9744 118.229 61.0728 118.162 61.1488C118.124 61.1844 118.08 61.2118 118.031 61.2293C117.982 61.2468 117.93 61.254 117.878 61.2504C117.829 61.2527 117.78 61.2437 117.736 61.2241C117.691 61.2045 117.652 61.1749 117.62 61.1375C117.564 61.063 117.525 60.9794 117.525 60.5234C117.525 60.0673 117.564 59.986 117.62 59.9115C117.652 59.8741 117.691 59.8443 117.736 59.8244C117.78 59.8044 117.829 59.7948 117.878 59.7964C117.962 59.7869 118.047 59.8095 118.115 59.8598C118.183 59.91 118.23 59.9841 118.246 60.0673H118.788C118.754 59.9037 118.677 59.7521 118.564 59.6285C118.452 59.5049 118.308 59.4137 118.149 59.3646C117.989 59.3154 117.819 59.3101 117.657 59.3491C117.494 59.3881 117.345 59.4701 117.225 59.5864C116.999 59.8122 116.999 60.1441 116.999 60.4895V60.5708C116.999 60.9095 116.999 61.2301 117.225 61.4739C117.311 61.5577 117.413 61.6226 117.526 61.6646C117.638 61.7066 117.758 61.7247 117.878 61.7177Z" fill="#E01B15"/>
<path d="M121.138 60.2705H120.242V59.8099H121.291V59.3358H119.704V61.6974H121.291V61.2233H120.242V60.7424H121.138V60.2705Z" fill="#E01B15"/>
<path d="M123.502 59.3358V60.6205L122.684 59.3358H122.21V61.6974H122.748V60.4127L123.565 61.6974H124.041V59.3358H123.502Z" fill="#E01B15"/>
<path d="M126.17 60.9862C126.156 61.0617 126.114 61.1293 126.054 61.1766C125.993 61.2239 125.918 61.2477 125.841 61.2436C125.792 61.2459 125.744 61.2369 125.699 61.2173C125.654 61.1977 125.615 61.1681 125.583 61.1307C125.527 61.0562 125.486 60.9681 125.486 60.5166C125.486 60.065 125.527 59.977 125.583 59.9025C125.615 59.8651 125.654 59.8354 125.699 59.8159C125.744 59.7963 125.792 59.7873 125.841 59.7896C125.918 59.7855 125.993 59.8093 126.054 59.8566C126.114 59.9039 126.156 59.9715 126.17 60.047H126.719C126.693 59.8357 126.586 59.6424 126.422 59.5065C126.258 59.3706 126.049 59.3023 125.836 59.3155C125.715 59.3113 125.595 59.3327 125.483 59.3782C125.371 59.4237 125.27 59.4924 125.186 59.5796C124.949 59.8054 124.949 60.1373 124.949 60.4827V60.564C124.949 60.9027 124.949 61.2233 125.186 61.4671C125.27 61.5544 125.371 61.623 125.483 61.6685C125.595 61.714 125.715 61.7354 125.836 61.7313C126.049 61.7444 126.258 61.6761 126.422 61.5402C126.586 61.4043 126.693 61.2111 126.719 60.9998L126.17 60.9862Z" fill="#E01B15"/>
<path d="M128.97 60.2705H128.074V59.8099H129.121V59.3358H127.536V61.6974H129.121V61.2233H128.074V60.7424H128.97V60.2705Z" fill="#E01B15"/>
<path d="M133.33 60.6205V60.415C133.33 60.0786 133.33 59.8144 133.086 59.5661C133.001 59.4886 132.901 59.4288 132.792 59.3901C132.684 59.3513 132.569 59.3344 132.454 59.3403H131.587V61.6997H132.454C132.569 61.7061 132.684 61.6894 132.793 61.6506C132.901 61.6118 133.001 61.5518 133.086 61.4739C133.334 61.221 133.332 60.9546 133.33 60.6205ZM132.722 61.072C132.689 61.1222 132.642 61.1624 132.588 61.1886C132.534 61.2148 132.473 61.226 132.413 61.221H132.124V59.8054H132.409C132.469 59.8004 132.529 59.8116 132.584 59.8378C132.638 59.864 132.684 59.9043 132.718 59.9544C132.772 60.0312 132.786 60.1147 132.786 60.5121C132.786 60.9094 132.774 61.0043 132.722 61.0765V61.072Z" fill="#E01B15"/>
<path d="M135.671 60.2705H134.775V59.8099H135.825V59.338H134.237V61.6974H135.825V61.2255H134.775V60.7446H135.671V60.2705Z" fill="#E01B15"/>
<path d="M138.29 61.6974H139.841V61.2233H138.827V59.3358H138.29V61.6974Z" fill="#E01B15"/>
<path d="M141.939 61.6974H142.499L141.638 59.3426H141.214L140.356 61.7042H140.916L141.036 61.3429H141.819L141.939 61.6974ZM141.189 60.8982L141.44 60.1328L141.681 60.8982H141.189Z" fill="#E01B15"/>
<path d="M115.433 63.6571H116.029V63.183H114.299V63.6571H114.895V65.5446H115.433V63.6571Z" fill="#E01B15"/>
<path d="M118.781 64.5354C118.894 64.4794 118.989 64.3928 119.056 64.2855C119.123 64.1782 119.158 64.0544 119.158 63.9281C119.158 63.8256 119.137 63.7242 119.097 63.6301C119.056 63.5361 118.996 63.4514 118.922 63.3813C118.847 63.3112 118.759 63.2572 118.662 63.2227C118.566 63.1882 118.463 63.1739 118.361 63.1807H117.431V65.5424H117.97V64.6393H118.216L118.645 65.5424H119.271L118.754 64.549L118.781 64.5354ZM117.97 64.2013V63.6549H118.334C118.406 63.6549 118.476 63.6837 118.527 63.7349C118.578 63.7861 118.607 63.8556 118.607 63.9281C118.607 64.0005 118.578 64.07 118.527 64.1212C118.476 64.1725 118.406 64.2013 118.334 64.2013H117.97Z" fill="#E01B15"/>
<path d="M121.273 63.1807L120.413 65.5424H120.975L121.095 65.1811H121.881L121.991 65.5424H122.554L121.693 63.1807H121.273ZM121.242 64.7431L121.499 63.9777L121.741 64.7431H121.242Z" fill="#E01B15"/>
<path d="M124.405 65.5446V64.26L125.222 65.5446H125.699V63.183H125.161V64.4677L124.342 63.183H123.865V65.5446H124.405Z" fill="#E01B15"/>
<path d="M128.18 64.1313L127.893 64.0839C127.825 64.0787 127.761 64.0509 127.71 64.0048C127.675 63.9691 127.655 63.9215 127.654 63.8716C127.654 63.7497 127.755 63.6188 127.974 63.6188H127.995C128.152 63.6058 128.308 63.6525 128.433 63.7497L128.769 63.4178C128.664 63.3246 128.541 63.2535 128.407 63.2085C128.274 63.1635 128.133 63.1456 127.992 63.1559C127.48 63.1559 127.137 63.4517 127.137 63.8919C127.126 64.0617 127.183 64.2288 127.295 64.357C127.424 64.4763 127.589 64.5486 127.764 64.5625L128.058 64.6031C128.123 64.6087 128.184 64.6339 128.234 64.6754C128.273 64.7203 128.292 64.7787 128.288 64.8379C128.288 64.9508 128.225 65.084 127.913 65.084C127.721 65.0919 127.532 65.0364 127.374 64.926L127.033 65.2669C127.152 65.3731 127.291 65.4538 127.442 65.5039C127.593 65.554 127.753 65.5725 127.911 65.5582C128.363 65.5582 128.814 65.3324 128.814 64.8267C128.822 64.7344 128.811 64.6415 128.781 64.5538C128.752 64.466 128.705 64.3852 128.643 64.3164C128.513 64.2061 128.35 64.1411 128.18 64.1313Z" fill="#E01B15"/>
<path d="M130.797 63.183H130.259V65.5424H130.797V63.183Z" fill="#E01B15"/>
<path d="M133.334 63.6571H133.928V63.183H132.201V63.6571H132.797V65.5446H133.334V63.6571Z" fill="#E01B15"/>
<path d="M135.87 63.183H135.332V65.5424H135.87V63.183Z" fill="#E01B15"/>
<path d="M139.123 64.3232C139.123 63.9845 139.123 63.6639 138.886 63.4201C138.71 63.2505 138.475 63.1558 138.23 63.1558C137.986 63.1558 137.751 63.2505 137.574 63.4201C137.349 63.6458 137.349 63.9777 137.349 64.3232V64.4045C137.349 64.7431 137.349 65.0637 137.574 65.3076C137.751 65.4771 137.986 65.5718 138.23 65.5718C138.475 65.5718 138.71 65.4771 138.886 65.3076C139.123 65.0818 139.123 64.7499 139.123 64.4045V64.3232ZM138.491 64.9712C138.459 65.0088 138.419 65.039 138.374 65.0598C138.329 65.0805 138.28 65.0912 138.23 65.0912C138.181 65.0912 138.132 65.0805 138.087 65.0598C138.042 65.039 138.002 65.0088 137.97 64.9712C137.911 64.8944 137.875 64.8154 137.875 64.3638C137.875 63.9123 137.913 63.8265 137.97 63.752C138.003 63.7156 138.043 63.6865 138.088 63.6667C138.133 63.6468 138.181 63.6365 138.23 63.6365C138.279 63.6365 138.328 63.6468 138.373 63.6667C138.418 63.6865 138.458 63.7156 138.491 63.752C138.548 63.8265 138.586 63.91 138.586 64.3638C138.586 64.8176 138.55 64.8944 138.491 64.9712Z" fill="#E01B15"/>
<path d="M141.884 63.183V64.4677L141.067 63.183H140.591V65.5446H141.128V64.26L141.948 65.5446H142.424V63.183H141.884Z" fill="#E01B15"/>
<path d="M115.742 67.9649H114.841V67.5021H115.895V67.028H114.301V69.3964H115.895V68.9222H114.841V68.4391H115.742V67.9649Z" fill="#E01B15"/>
<path d="M115.202 66.7322L115.568 66.1768H115.069L114.918 66.7322H115.202Z" fill="#E01B15"/>
<path d="M118.458 67.7414H119.009C118.979 67.5318 118.872 67.341 118.708 67.2072C118.544 67.0733 118.335 67.0061 118.124 67.0189C118.002 67.0147 117.881 67.0361 117.768 67.0816C117.656 67.1271 117.554 67.1957 117.469 67.2831C117.243 67.5089 117.243 67.843 117.243 68.1862V68.2652C117.243 68.6062 117.243 68.929 117.469 69.1683C117.554 69.2557 117.656 69.3244 117.768 69.3699C117.881 69.4154 118.002 69.4367 118.124 69.4325C118.337 69.4451 118.547 69.3763 118.711 69.2401C118.875 69.1039 118.982 68.9104 119.009 68.6987H118.458C118.443 68.7748 118.402 68.843 118.341 68.8907C118.28 68.9385 118.203 68.9625 118.126 68.9584C118.077 68.9605 118.029 68.9514 117.984 68.9319C117.94 68.9123 117.9 68.8827 117.869 68.8455C117.812 68.7687 117.772 68.6807 117.772 68.2291C117.772 67.7775 117.812 67.6872 117.869 67.6105C117.9 67.5736 117.94 67.5443 117.985 67.5248C118.029 67.5052 118.077 67.496 118.126 67.4976C118.201 67.4928 118.276 67.5146 118.336 67.5592C118.397 67.6038 118.44 67.6683 118.458 67.7414Z" fill="#E01B15"/>
<path d="M121.138 67.0189C121.016 67.0135 120.894 67.0343 120.781 67.0799C120.667 67.1254 120.565 67.1947 120.481 67.2831C120.242 67.5089 120.242 67.843 120.255 68.1862V68.2652C120.255 68.6062 120.255 68.929 120.481 69.1683C120.658 69.338 120.893 69.4328 121.138 69.4328C121.383 69.4328 121.618 69.338 121.795 69.1683C122.034 68.9426 122.032 68.6107 122.032 68.2652V68.1817C122.032 67.843 122.032 67.5202 121.795 67.2786C121.71 67.191 121.608 67.1226 121.494 67.0778C121.381 67.033 121.26 67.013 121.138 67.0189ZM121.4 68.8252C121.367 68.8629 121.327 68.8931 121.282 68.9139C121.237 68.9346 121.188 68.9453 121.138 68.9453C121.088 68.9453 121.039 68.9346 120.994 68.9139C120.949 68.8931 120.908 68.8629 120.876 68.8252C120.817 68.7484 120.783 68.6694 120.783 68.2156C120.783 67.7618 120.817 67.6782 120.876 67.6014C120.909 67.5644 120.949 67.5347 120.994 67.5144C121.039 67.4941 121.088 67.4836 121.138 67.4836C121.187 67.4836 121.236 67.4941 121.282 67.5144C121.327 67.5347 121.367 67.5644 121.4 67.6014C121.459 67.6782 121.492 67.7572 121.492 68.2156C121.492 68.6739 121.459 68.7461 121.4 68.8252Z" fill="#E01B15"/>
<path d="M123.439 69.3964H124.996V68.9222H123.978V67.028H123.439V69.3964Z" fill="#E01B15"/>
<path d="M127.065 67.0189C126.943 67.014 126.821 67.0349 126.708 67.0805C126.594 67.126 126.492 67.1951 126.408 67.2831C126.182 67.5089 126.182 67.843 126.182 68.1862V68.2652C126.182 68.6061 126.182 68.929 126.408 69.1683C126.585 69.3377 126.821 69.4322 127.066 69.4322C127.311 69.4322 127.547 69.3377 127.724 69.1683C127.95 68.9426 127.95 68.6084 127.95 68.2652V68.1862C127.95 67.8453 127.95 67.5224 127.724 67.2831C127.639 67.1949 127.536 67.1258 127.423 67.0802C127.309 67.0347 127.187 67.0138 127.065 67.0189ZM127.326 68.8252C127.294 68.8628 127.254 68.893 127.209 68.9138C127.164 68.9345 127.115 68.9452 127.066 68.9452C127.016 68.9452 126.967 68.9345 126.922 68.9138C126.877 68.893 126.837 68.8628 126.805 68.8252C126.746 68.7484 126.71 68.6671 126.71 68.2156C126.71 67.764 126.746 67.676 126.805 67.6014C126.836 67.5634 126.876 67.5331 126.921 67.5128C126.966 67.4924 127.015 67.4826 127.065 67.484C127.114 67.4826 127.164 67.4924 127.209 67.5127C127.254 67.5331 127.294 67.5634 127.326 67.6014C127.385 67.6782 127.421 67.7572 127.421 68.2156C127.421 68.6739 127.385 68.7461 127.326 68.8252Z" fill="#E01B15"/>
<path d="M130.548 67.755H131.092C131.06 67.5885 130.982 67.434 130.869 67.3081C130.755 67.1821 130.609 67.0894 130.447 67.0398C130.285 66.9902 130.112 66.9856 129.947 67.0264C129.783 67.0673 129.632 67.1521 129.512 67.2718C129.286 67.4976 129.286 67.8317 129.286 68.1749V68.2539C129.286 68.5949 129.286 68.9177 129.512 69.157C129.694 69.327 129.934 69.4216 130.183 69.4216C130.431 69.4216 130.671 69.327 130.853 69.157C131.025 68.9809 131.079 68.7687 131.079 68.3713V68.0575H130.176V68.5091H130.532V68.5723C130.537 68.6239 130.53 68.676 130.512 68.7246C130.494 68.7733 130.466 68.8175 130.429 68.8539C130.392 68.8904 130.348 68.9182 130.299 68.9355C130.25 68.9528 130.198 68.959 130.146 68.9538C130.103 68.9489 130.06 68.9349 130.022 68.9127C129.984 68.8906 129.951 68.8607 129.925 68.8252C129.869 68.7506 129.83 68.6671 129.83 68.2088C129.83 67.7505 129.869 67.6692 129.925 67.5947C129.956 67.5567 129.996 67.5264 130.04 67.5061C130.085 67.4857 130.133 67.4758 130.183 67.4773C130.267 67.4686 130.352 67.4925 130.42 67.544C130.488 67.5956 130.534 67.671 130.548 67.755Z" fill="#E01B15"/>
<path d="M133.045 67.028H132.506V69.3964H133.045V67.028Z" fill="#E01B15"/>
<path d="M136.107 69.0261C136.223 68.7855 136.269 68.5172 136.24 68.2517V68.1727C136.24 67.8317 136.24 67.5089 136.003 67.2696C135.826 67.0998 135.591 67.0051 135.346 67.0051C135.101 67.0051 134.866 67.0998 134.689 67.2696C134.463 67.4953 134.463 67.8295 134.463 68.1727V68.2517C134.463 68.5926 134.463 68.9155 134.689 69.1548C134.774 69.2428 134.876 69.3119 134.989 69.3574C135.102 69.4029 135.224 69.4239 135.346 69.4189C135.503 69.4228 135.659 69.3854 135.798 69.3106H135.816L135.998 69.4935L136.263 69.2316L136.089 69.0577L136.107 69.0261ZM135.687 68.6355L135.549 68.4955L135.285 68.7597L135.457 68.9313H135.405C135.387 68.9334 135.369 68.9334 135.351 68.9313C135.301 68.9321 135.252 68.9218 135.207 68.9011C135.162 68.8803 135.122 68.8498 135.091 68.8116C135.032 68.7348 134.996 68.6536 134.996 68.202C134.996 67.7505 135.032 67.6624 135.091 67.5879C135.122 67.5499 135.162 67.5196 135.207 67.4992C135.252 67.4789 135.301 67.4691 135.351 67.4705C135.4 67.4691 135.45 67.4789 135.495 67.4992C135.54 67.5195 135.58 67.5499 135.612 67.5879C135.669 67.6624 135.705 67.7459 135.705 68.202C135.7 68.3872 135.694 68.5023 135.687 68.5723V68.6355Z" fill="#E01B15"/>
<path d="M138.146 68.561V67.0189H137.602V68.5655C137.635 68.7777 137.744 68.9708 137.907 69.1102C138.071 69.2497 138.278 69.3263 138.493 69.3263C138.708 69.3263 138.916 69.2497 139.079 69.1102C139.243 68.9708 139.351 68.7777 139.385 68.5655V67.0189H138.846V68.552C138.851 68.6013 138.846 68.6513 138.83 68.6984C138.815 68.7456 138.789 68.7888 138.755 68.8251C138.721 68.8614 138.68 68.8898 138.634 68.9086C138.588 68.9273 138.538 68.9358 138.489 68.9335C138.441 68.9344 138.393 68.9251 138.349 68.9063C138.305 68.8875 138.266 68.8596 138.234 68.8244C138.201 68.7892 138.176 68.7475 138.161 68.7021C138.146 68.6567 138.141 68.6086 138.146 68.561Z" fill="#E01B15"/>
<path d="M142.271 67.9649H141.372V67.5021H142.424V67.028H140.832V69.3964H142.424V68.9222H141.372V68.4391H142.271V67.9649Z" fill="#E01B15"/>
</svg>
