<svg width="41" height="48" viewBox="0 0 41 48" fill="none" xmlns="http://www.w3.org/2000/svg">
<path d="M40.7187 47.9998H0V-0.000244141H40.7187V47.9998Z" fill="#004899"/>
<path d="M39.8111 0.905113H0.905361V47.0944H39.8111V0.905113Z" fill="white"/>
<path d="M12.3612 26.971C13.6111 28.8639 15.4876 30.2563 17.6616 30.9039C19.8355 31.5514 22.1681 31.4128 24.25 30.5124C26.332 29.6119 28.0304 28.0071 29.0473 25.9795C30.0643 23.9519 30.3347 21.6309 29.8113 19.4238C29.2879 17.2166 28.004 15.2643 26.1849 13.9092C24.3658 12.5541 22.1276 11.8829 19.863 12.0132C17.5984 12.1435 15.452 13.0671 13.8004 14.6219C12.1487 16.1767 11.0973 18.2634 10.8305 20.516C10.7854 20.8906 10.7627 21.2676 10.7627 21.6449C10.7599 23.5368 11.316 25.3873 12.3612 26.9642" fill="#80A4CC"/>
<path d="M17.2854 18.5134L17.8002 18.5947L17.6241 18.9333L17.1725 18.6895L17.2854 18.5134ZM19.3558 17.3845L18.9246 17.7638V18.0212L19.6019 18.1905L20.9678 17.2626L20.9317 16.8856L20.3898 16.6982L19.3558 17.3845ZM19.568 16.3663H19.4438L19.2158 16.7975L18.8455 16.8269L18.4233 17.4365L18.6491 17.5809L19.2181 17.2197L19.6538 16.7546L19.568 16.3663ZM20.3357 15.1697L19.4619 15.865L19.7735 16.0908L20.4711 15.3774L20.3357 15.1697ZM13.6188 19.0507L13.9214 19.0891L14.0162 18.3734V18.1476L13.962 17.9219L13.8062 17.9083L13.6188 19.0507ZM13.7791 19.5226L13.8762 19.6739L14.0591 19.701L14.1426 19.3307L13.8401 19.2585L13.7791 19.5226ZM13.9552 19.8929L13.9846 20.0893H14.172L14.1471 19.8771L13.9552 19.8929ZM14.0613 20.3151L14.1133 20.4415L14.2713 20.3715C14.2713 20.3715 14.2284 20.2541 14.2239 20.2541L14.0613 20.3151ZM14.1562 20.6763L14.2916 20.6267L14.2397 20.5115C14.2397 20.5115 14.1629 20.577 14.1652 20.586V20.6763H14.1562ZM20.5705 20.1187C20.5705 20.1187 20.3244 20.717 20.3244 20.7215C20.3244 20.726 20.7104 20.7576 20.7104 20.7599L20.803 20.2677L20.7353 20.218L20.7804 20.0487L20.5863 19.9426L20.5253 20.069L20.5705 20.1187ZM20.0038 20.5341L20.2137 20.5928L20.277 20.3964L20.1279 20.3625L20.0038 20.5341ZM24.5328 28.1269L24.228 28.3031L23.8397 28.3843L22.9863 29.2242L23.0382 29.4116L23.1624 29.3936L23.65 29.1836C23.9201 29.0571 24.1678 28.8879 24.3838 28.6824C24.5335 28.5335 24.6579 28.3611 24.7518 28.1721L24.5328 28.1269ZM24.3071 29.2987L24.2032 29.1836L24.0406 29.2807C24.0406 29.2807 24.1626 29.4048 24.1603 29.4048L24.3071 29.2987ZM21.0717 22.031L20.952 22.0152V22.241L21.0739 22.2635L21.1462 21.97L21.1078 21.9542L21.0717 22.031ZM13.8649 20.7666L13.9078 20.9495L14.0817 20.8931L14.0252 20.7079L13.8649 20.7666ZM12.3612 26.9777L13.0386 26.4246L13.5872 26.5646L15.0525 25.4605L15.1225 24.8735L14.1607 23.4692C14.1057 22.9456 14.0175 22.426 13.8965 21.9136C13.7972 21.5704 13.5737 20.5725 13.5646 20.5589L13.4382 20.3038L12.5215 18.9288L13.1153 17.4432L13.5714 17.4094L13.6008 17.1836L13.2485 16.8901V16.5492C13.2485 16.3595 13.5691 16.1676 13.7836 16.1676C13.8441 16.1681 13.9041 16.1772 13.962 16.1947C14.1153 16.2565 14.2573 16.3435 14.3819 16.4521C14.4045 16.4679 14.8019 17.3981 14.8019 17.3981L14.4655 17.6713L14.2984 18.0777L14.5242 18.2605L14.847 17.7029L16.1836 18.1544L17.0009 18.6195L17.2493 18.3486L17.9266 18.405L18.4278 17.7277L17.9763 17.5561L18.4527 16.9826L18.3962 16.7885L17.6692 16.6485L18.2246 16.0547L18.7643 16.4069V16.5627L19.1052 16.6033L19.3738 16.0547L19.1729 15.8763L20.0218 15.059L20.7962 14.7L21.3945 14.3072L21.5119 14.2146L21.5345 13.7947L21.4329 13.4967L21.1688 13.3928L21.5074 13.1264L21.4149 13.0767C20.9124 13.4276 20.3221 13.6316 19.7103 13.666C19.0329 13.7111 17.6918 13.4154 17.6918 13.4154L16.3507 13.2144L15.8811 13.1309C14.7454 13.7369 13.7415 14.5627 12.9279 15.5603L12.8941 16.8269L12.6864 17.4094L12.2167 19.0801L12.3725 19.552L11.6117 19.6603L10.8418 20.516C10.7985 20.8908 10.7767 21.2677 10.7763 21.6449C10.7735 23.5368 11.3296 25.3873 12.3748 26.9642L12.3612 26.9777ZM25.4924 13.4312C26.6709 14.1612 27.6784 15.1363 28.4467 16.2902C29.2149 17.4441 29.7258 18.7498 29.9447 20.1187L29.1906 20.7644L28.7097 20.6492L28.4839 20.8479L28.4997 20.9811C28.4997 21.0444 28.5358 21.1685 28.5833 21.3559C28.6763 21.7251 28.7248 22.1041 28.7278 22.4848C28.7368 22.7543 28.7057 23.0237 28.6352 23.2841H28.2243L27.0683 22.3764L26.1878 22.5751L25.6188 22.478L24.8986 22.7038L25.2237 22.9838L25.7904 22.8235L26.2781 23.2141L26.2013 23.3857L26.0004 23.713L25.5669 24.3317L24.8896 24.8713L23.6546 23.5888L23.334 23.6227L24.6525 25.1354L25.1876 25.027L25.3208 25.3002L24.7834 26.1808L23.7358 27.1809L23.2798 28.3618C23.247 28.4101 23.1995 28.4465 23.1443 28.4656C22.9507 28.5682 22.7734 28.6991 22.6183 28.8539C22.3654 29.091 22.2254 29.222 22.1938 29.2468C21.9563 29.4529 21.7059 29.6437 21.4442 29.818C21.1663 30.0058 20.8776 30.1769 20.5795 30.3305C20.09 30.5824 19.5494 30.7191 18.9991 30.7301C18.6542 30.7292 18.3118 30.672 17.9853 30.5608C17.9402 30.545 17.9108 30.5224 17.9108 30.5021L18.1366 29.8564C18.3132 29.6299 18.5024 29.4136 18.7033 29.2084C18.8848 29.0009 19.0195 28.7568 19.0984 28.4927C19.1742 28.2234 19.2716 27.9607 19.3897 27.707C19.5996 27.3683 19.699 27.0793 19.629 27.0094L18.2608 25.6344L17.6873 24.5665L17.7483 24.3136C17.8659 23.9685 18.0172 23.6357 18.1998 23.3202C18.2784 23.1222 18.4154 22.9529 18.5927 22.8348L19.5093 22.3832L21.2862 22.6519L21.828 23.0131L22.0809 22.9815L23.1669 23.2637L23.4378 22.5571L22.0583 22.1687L21.5707 21.6833L21.5029 21.7014L21.7287 22.2771L21.4532 22.3335L21.4239 22.2658L21.521 22.2477C21.521 22.2477 21.4374 21.8933 21.223 21.7962C21.1612 21.7565 21.0907 21.7325 21.0175 21.7262C20.8829 21.736 20.7549 21.7882 20.6517 21.8752C20.4873 22.0513 20.2988 22.2033 20.0918 22.3268L19.5251 21.9L19.7351 21.3717L19.8231 21.392C19.8756 21.405 19.9295 21.4111 19.9834 21.4101C20.0507 21.4163 20.1181 21.3994 20.1744 21.362C20.2306 21.3246 20.2724 21.2691 20.2928 21.2047C20.3018 21.1709 20.3009 21.1352 20.2901 21.1019C20.2793 21.0686 20.259 21.0392 20.2318 21.0173L20.1776 20.9563C20.2069 20.9281 20.2333 20.8971 20.2566 20.8637C20.3677 20.8936 20.4809 20.9147 20.5953 20.9269C20.7175 20.9437 20.8414 20.9121 20.9407 20.8389L21.0762 20.6131L21.302 20.5476L21.3426 20.2428H21.4849C21.5373 20.3213 21.5755 20.4085 21.5977 20.5002L21.9974 20.3964L22.1148 19.9877L22.0516 19.9155L22.2254 19.5226L22.0741 19.4165L21.8167 20.139L21.6768 20.1571L21.6136 19.9968L21.2546 20.0238L21.0536 19.701L21.4894 19.2494L21.9161 18.6782L22.5189 18.8679L22.6657 19.1659H22.8485L22.7808 18.7324L23.273 18.2809L22.9456 16.7975L23.1556 16.3301L23.3814 16.3437L23.4152 15.9779L21.8348 14.2598L21.8867 13.7947L23.1849 13.4989L23.3723 13.5554L24.1106 13.4831L24.2822 13.5599L25.4743 13.4425L25.4924 13.4312ZM25.4698 13.7179L23.9571 14.0476L25.0002 14.6481L25.3411 14.2485L25.7633 13.964L25.4698 13.7179Z" fill="#004899"/>
<path d="M9.55484 9.00145L9.30423 8.19769H7.64478L7.38062 9.00145H5.99435L7.95635 3.6054H8.97911L10.9388 9.00145H9.55484ZM8.50047 5.65093L8.01731 7.09138H8.95653L8.50047 5.65093Z" fill="#E01B15"/>
<path d="M15.9014 8.47087C15.7062 8.65104 15.4771 8.7907 15.2275 8.88177C14.978 8.97284 14.7128 9.01352 14.4474 9.00144H12.4425V3.6054H14.4406C14.706 3.59332 14.9712 3.634 15.2208 3.72507C15.4703 3.81614 15.6994 3.9558 15.8946 4.13597C16.5246 4.76588 16.4546 5.4545 16.4546 6.30342C16.4546 7.15234 16.5313 7.84096 15.9014 8.47087ZM14.9983 5.08423C14.9291 4.98129 14.8335 4.89888 14.7214 4.84565C14.6094 4.79241 14.4851 4.77032 14.3616 4.78169H13.7746V7.81838H14.3571C14.4806 7.82975 14.6049 7.80765 14.7169 7.75442C14.829 7.70119 14.9246 7.61878 14.9938 7.51584C15.0999 7.36457 15.136 7.22007 15.136 6.30342C15.136 5.38677 15.0999 5.24227 14.9938 5.091L14.9983 5.08423Z" fill="#E01B15"/>
<path d="M18.263 9.00145V3.6054H21.9251V4.78847H19.5883V5.69157H21.5865V6.87464H19.5883V7.82064H21.9251V9.00371L18.263 9.00145Z" fill="#E01B15"/>
<path d="M27.4679 9.00145V6.41631L26.7025 7.75065H25.8536L25.086 6.41631V9.00145H23.7629V3.6054H25.0634L26.2758 5.98508L27.4882 3.6054H28.7887V9.00145H27.4679Z" fill="#E01B15"/>
<path d="M30.7575 9.00145V3.6054H34.4218V4.78847H32.085V5.69157H34.0832V6.87464H32.085V7.82064H34.4241V9.00371L30.7575 9.00145Z" fill="#E01B15"/>
<path d="M7.06905 34.3426L6.2111 36.7042H6.77102L6.88843 36.3429H7.67413L7.78702 36.7042H8.34694L7.48673 34.3426H7.06905ZM7.03744 35.9049L7.29483 35.1395L7.53641 35.9049H7.03744Z" fill="#E01B15"/>
<path d="M9.8777 36.7177C10.003 36.7255 10.1285 36.7059 10.2455 36.6603C10.3624 36.6147 10.4681 36.5441 10.555 36.4536C10.7266 36.2797 10.7808 36.0652 10.7808 35.6701V35.3608H9.9048V35.8124H10.2615V35.8733C10.2645 35.9744 10.229 36.0728 10.1622 36.1488C10.1243 36.1844 10.0795 36.2118 10.0306 36.2293C9.98161 36.2468 9.92957 36.254 9.8777 36.2504C9.829 36.2527 9.78043 36.2437 9.73578 36.2241C9.69112 36.2045 9.65161 36.1749 9.62032 36.1375C9.56388 36.063 9.52549 35.9794 9.52549 35.5234C9.52549 35.0673 9.56388 34.986 9.62032 34.9115C9.65172 34.8741 9.6912 34.8443 9.73578 34.8244C9.78036 34.8044 9.82889 34.7948 9.8777 34.7964C9.96189 34.7869 10.0466 34.8095 10.1148 34.8598C10.183 34.91 10.2298 34.9841 10.2457 35.0673H10.7876C10.7538 34.9037 10.6767 34.7521 10.5643 34.6285C10.4519 34.5049 10.3084 34.4137 10.1487 34.3646C9.989 34.3154 9.81905 34.3101 9.65659 34.3491C9.49414 34.3881 9.34515 34.4701 9.22521 34.5864C8.99944 34.8122 8.99944 35.1441 8.99944 35.4895V35.5708C8.99944 35.9095 8.99944 36.2301 9.22521 36.4739C9.31104 36.5577 9.4134 36.6226 9.52575 36.6646C9.6381 36.7066 9.75797 36.7247 9.8777 36.7177Z" fill="#E01B15"/>
<path d="M13.1379 35.2705H12.2416V34.8099H13.2914V34.3358H11.7042V36.6974H13.2914V36.2233H12.2416V35.7424H13.1379V35.2705Z" fill="#E01B15"/>
<path d="M15.5018 34.3358V35.6205L14.6845 34.3358H14.2103V36.6974H14.7477V35.4127L15.565 36.6974H16.0414V34.3358H15.5018Z" fill="#E01B15"/>
<path d="M18.1705 35.9862C18.1559 36.0617 18.1144 36.1293 18.0538 36.1766C17.9932 36.2239 17.9176 36.2477 17.8408 36.2436C17.7921 36.2459 17.7435 36.2369 17.6989 36.2173C17.6542 36.1977 17.6147 36.1681 17.5834 36.1307C17.527 36.0562 17.4864 35.9681 17.4864 35.5166C17.4864 35.065 17.527 34.977 17.5834 34.9025C17.6147 34.8651 17.6542 34.8354 17.6989 34.8159C17.7435 34.7963 17.7921 34.7873 17.8408 34.7896C17.9176 34.7855 17.9932 34.8093 18.0538 34.8566C18.1144 34.9039 18.1559 34.9715 18.1705 35.047H18.7191C18.6925 34.8357 18.5865 34.6424 18.4225 34.5065C18.2585 34.3706 18.0489 34.3023 17.8363 34.3155C17.7154 34.3113 17.5951 34.3327 17.483 34.3782C17.371 34.4237 17.2698 34.4924 17.1861 34.5796C16.949 34.8054 16.949 35.1373 16.949 35.4827V35.564C16.949 35.9027 16.949 36.2233 17.1861 36.4671C17.2698 36.5544 17.371 36.623 17.483 36.6685C17.5951 36.714 17.7154 36.7354 17.8363 36.7313C18.0489 36.7444 18.2585 36.6761 18.4225 36.5402C18.5865 36.4043 18.6925 36.2111 18.7191 35.9998L18.1705 35.9862Z" fill="#E01B15"/>
<path d="M20.9701 35.2705H20.0738V34.8099H21.1214V34.3358H19.5364V36.6974H21.1214V36.2233H20.0738V35.7424H20.9701V35.2705Z" fill="#E01B15"/>
<path d="M25.3298 35.6205V35.415C25.3298 35.0786 25.3298 34.8144 25.086 34.5661C25.0007 34.4886 24.9009 34.4288 24.7924 34.3901C24.6839 34.3513 24.5689 34.3344 24.4538 34.3403H23.5868V36.6997H24.4538C24.5689 36.7061 24.6841 36.6894 24.7927 36.6506C24.9013 36.6118 25.001 36.5518 25.086 36.4739C25.3343 36.221 25.3321 35.9546 25.3298 35.6205ZM24.7225 36.072C24.6889 36.1222 24.6425 36.1624 24.5881 36.1886C24.5337 36.2148 24.4733 36.226 24.4132 36.221H24.1242V34.8054H24.4087C24.4688 34.8004 24.5292 34.8116 24.5836 34.8378C24.638 34.864 24.6844 34.9043 24.718 34.9544C24.7722 35.0312 24.7857 35.1147 24.7857 35.5121C24.7857 35.9094 24.7744 36.0043 24.7225 36.0765V36.072Z" fill="#E01B15"/>
<path d="M27.6711 35.2705H26.7748V34.8099H27.8246V34.338H26.2374V36.6974H27.8246V36.2255H26.7748V35.7446H27.6711V35.2705Z" fill="#E01B15"/>
<path d="M30.2901 36.6974H31.8412V36.2233H30.8275V34.3358H30.2901V36.6974Z" fill="#E01B15"/>
<path d="M33.9387 36.6974H34.4986L33.6384 34.3426H33.2139L32.356 36.7042H32.9159L33.0356 36.3429H33.819L33.9387 36.6974ZM33.1891 35.8982L33.4397 35.1328L33.6813 35.8982H33.1891Z" fill="#E01B15"/>
<path d="M7.43255 38.6571H8.0286V38.183H6.29915V38.6571H6.8952V40.5446H7.43255V38.6571Z" fill="#E01B15"/>
<path d="M10.7808 39.5354C10.894 39.4794 10.9894 39.3928 11.056 39.2855C11.1226 39.1782 11.1579 39.0544 11.1579 38.9281C11.1581 38.8256 11.1372 38.7242 11.0966 38.6301C11.056 38.5361 10.9965 38.4514 10.9217 38.3813C10.847 38.3112 10.7586 38.2572 10.6621 38.2227C10.5656 38.1882 10.4631 38.1739 10.3609 38.1807H9.43067V40.5424H9.97027V39.6393H10.2164L10.6453 40.5424H11.2707L10.7537 39.549L10.7808 39.5354ZM9.97027 39.2013V38.6549H10.3338C10.4062 38.6549 10.4757 38.6837 10.5269 38.7349C10.5782 38.7861 10.607 38.8556 10.607 38.9281C10.607 39.0005 10.5782 39.07 10.5269 39.1212C10.4757 39.1725 10.4062 39.2013 10.3338 39.2013H9.97027Z" fill="#E01B15"/>
<path d="M13.2734 38.1807L12.4132 40.5424H12.9754L13.095 40.1811H13.8807L13.9913 40.5424H14.5535L13.6933 38.1807H13.2734ZM13.2418 39.7431L13.4992 38.9777L13.7407 39.7431H13.2418Z" fill="#E01B15"/>
<path d="M16.4049 40.5446V39.26L17.2222 40.5446H17.6986V38.183H17.1612V39.4677L16.3417 38.183H15.8653V40.5446H16.4049Z" fill="#E01B15"/>
<path d="M20.1799 39.1313L19.8931 39.0839C19.825 39.0787 19.7606 39.0509 19.7103 39.0048C19.6754 38.9691 19.6552 38.9215 19.6538 38.8716C19.6538 38.7497 19.7554 38.6188 19.9744 38.6188H19.9947C20.152 38.6058 20.3084 38.6525 20.4327 38.7497L20.7691 38.4178C20.6637 38.3246 20.5406 38.2535 20.4072 38.2085C20.2739 38.1635 20.1329 38.1456 19.9925 38.1559C19.48 38.1559 19.1368 38.4517 19.1368 38.8919C19.1264 39.0617 19.1831 39.2288 19.2948 39.357C19.4239 39.4763 19.5893 39.5486 19.7644 39.5625L20.0579 39.6031C20.1226 39.6087 20.1841 39.6339 20.2341 39.6754C20.2728 39.7203 20.2922 39.7787 20.2882 39.8379C20.2882 39.9508 20.225 40.084 19.9135 40.084C19.7211 40.0919 19.5315 40.0364 19.3738 39.926L19.0329 40.2669C19.1515 40.3731 19.2907 40.4538 19.4418 40.5039C19.5929 40.554 19.7527 40.5725 19.9112 40.5582C20.3627 40.5582 20.8143 40.3324 20.8143 39.8267C20.8221 39.7344 20.8109 39.6415 20.7814 39.5538C20.7519 39.466 20.7047 39.3852 20.6427 39.3164C20.5126 39.2061 20.3502 39.1411 20.1799 39.1313Z" fill="#E01B15"/>
<path d="M22.7966 38.183H22.2593V40.5424H22.7966V38.183Z" fill="#E01B15"/>
<path d="M25.3343 38.6571H25.9281V38.183H24.2009V38.6571H24.797V40.5446H25.3343V38.6571Z" fill="#E01B15"/>
<path d="M27.8698 38.183H27.3325V40.5424H27.8698V38.183Z" fill="#E01B15"/>
<path d="M31.1232 39.3232C31.1232 38.9845 31.1232 38.6639 30.8862 38.4201C30.7099 38.2505 30.4749 38.1558 30.2303 38.1558C29.9857 38.1558 29.7507 38.2505 29.5744 38.4201C29.3486 38.6458 29.3486 38.9777 29.3486 39.3232V39.4045C29.3486 39.7431 29.3486 40.0637 29.5744 40.3076C29.7507 40.4771 29.9857 40.5718 30.2303 40.5718C30.4749 40.5718 30.7099 40.4771 30.8862 40.3076C31.1232 40.0818 31.1232 39.7499 31.1232 39.4045V39.3232ZM30.4911 39.9712C30.4588 40.0088 30.4188 40.039 30.3738 40.0598C30.3288 40.0805 30.2799 40.0912 30.2303 40.0912C30.1807 40.0912 30.1318 40.0805 30.0867 40.0598C30.0417 40.039 30.0017 40.0088 29.9695 39.9712C29.9108 39.8944 29.8747 39.8154 29.8747 39.3638C29.8747 38.9123 29.9131 38.8265 29.9695 38.752C30.0025 38.7156 30.0428 38.6865 30.0877 38.6667C30.1326 38.6468 30.1812 38.6365 30.2303 38.6365C30.2794 38.6365 30.328 38.6468 30.3729 38.6667C30.4178 38.6865 30.458 38.7156 30.4911 38.752C30.5475 38.8265 30.5859 38.91 30.5859 39.3638C30.5859 39.8176 30.5498 39.8944 30.4911 39.9712Z" fill="#E01B15"/>
<path d="M33.8845 38.183V39.4677L33.0672 38.183H32.5908V40.5446H33.1281V39.26L33.9477 40.5446H34.4241V38.183H33.8845Z" fill="#E01B15"/>
<path d="M7.74186 42.9649H6.84101V42.5021H7.89539V42.028H6.30141V44.3964H7.89539V43.9222H6.84101V43.4391H7.74186V42.9649Z" fill="#E01B15"/>
<path d="M7.20226 41.7322L7.56802 41.1768H7.06905L6.91778 41.7322H7.20226Z" fill="#E01B15"/>
<path d="M10.4579 42.7414H11.0088C10.9791 42.5318 10.8716 42.341 10.7076 42.2072C10.5436 42.0733 10.3351 42.0061 10.1238 42.0189C10.0023 42.0147 9.88118 42.0361 9.7684 42.0816C9.65561 42.1271 9.55363 42.1957 9.46905 42.2831C9.24327 42.5089 9.24327 42.843 9.24327 43.1862V43.2652C9.24327 43.6062 9.24327 43.929 9.46905 44.1683C9.55363 44.2557 9.65561 44.3244 9.7684 44.3699C9.88118 44.4154 10.0023 44.4367 10.1238 44.4325C10.3368 44.4451 10.5467 44.3763 10.711 44.2401C10.8753 44.1039 10.9817 43.9104 11.0088 43.6987H10.4579C10.4433 43.7748 10.4017 43.843 10.3406 43.8907C10.2796 43.9385 10.2034 43.9625 10.1261 43.9584C10.0774 43.9605 10.0289 43.9514 9.98423 43.9319C9.93961 43.9123 9.90007 43.8827 9.86867 43.8455C9.81223 43.7687 9.77159 43.6807 9.77159 43.2291C9.77159 42.7775 9.81223 42.6872 9.86867 42.6105C9.9004 42.5736 9.93999 42.5443 9.98454 42.5248C10.0291 42.5052 10.0774 42.496 10.1261 42.4976C10.2012 42.4928 10.2756 42.5146 10.3363 42.5592C10.397 42.6038 10.4401 42.6683 10.4579 42.7414Z" fill="#E01B15"/>
<path d="M13.1379 42.0189C13.0159 42.0135 12.8941 42.0343 12.7808 42.0799C12.6675 42.1254 12.5652 42.1947 12.4809 42.2831C12.2416 42.5089 12.2416 42.843 12.2551 43.1862V43.2652C12.2551 43.6062 12.2551 43.929 12.4809 44.1683C12.6575 44.338 12.893 44.4328 13.1379 44.4328C13.3829 44.4328 13.6183 44.338 13.7949 44.1683C14.0342 43.9426 14.032 43.6107 14.032 43.2652V43.1817C14.032 42.843 14.032 42.5202 13.7949 42.2786C13.7102 42.191 13.6078 42.1226 13.4945 42.0778C13.3812 42.033 13.2596 42.013 13.1379 42.0189ZM13.3998 43.8252C13.3674 43.8629 13.3272 43.8931 13.282 43.9139C13.2368 43.9346 13.1876 43.9453 13.1379 43.9453C13.0882 43.9453 13.039 43.9346 12.9938 43.9139C12.9486 43.8931 12.9084 43.8629 12.876 43.8252C12.8173 43.7484 12.7834 43.6694 12.7834 43.2156C12.7834 42.7618 12.8173 42.6782 12.876 42.6014C12.9088 42.5644 12.9492 42.5347 12.9943 42.5144C13.0395 42.4941 13.0884 42.4836 13.1379 42.4836C13.1874 42.4836 13.2364 42.4941 13.2815 42.5144C13.3267 42.5347 13.367 42.5644 13.3998 42.6014C13.4585 42.6782 13.4924 42.7572 13.4924 43.2156C13.4924 43.6739 13.4585 43.7461 13.3998 43.8252Z" fill="#E01B15"/>
<path d="M15.4386 44.3964H16.9964V43.9222H15.9782V42.028H15.4386V44.3964Z" fill="#E01B15"/>
<path d="M19.0645 42.0189C18.9426 42.014 18.8209 42.0349 18.7077 42.0805C18.5944 42.126 18.4921 42.1951 18.4075 42.2831C18.1817 42.5089 18.1817 42.843 18.1817 43.1862V43.2652C18.1817 43.6061 18.1817 43.929 18.4075 44.1683C18.5848 44.3377 18.8205 44.4322 19.0657 44.4322C19.3108 44.4322 19.5465 44.3377 19.7238 44.1683C19.9496 43.9426 19.9496 43.6084 19.9496 43.2652V43.1862C19.9496 42.8453 19.9496 42.5224 19.7238 42.2831C19.6389 42.1949 19.5362 42.1258 19.4225 42.0802C19.3089 42.0347 19.1869 42.0138 19.0645 42.0189ZM19.3264 43.8252C19.2942 43.8628 19.2542 43.893 19.2092 43.9138C19.1642 43.9345 19.1152 43.9452 19.0657 43.9452C19.0161 43.9452 18.9671 43.9345 18.9221 43.9138C18.8771 43.893 18.8371 43.8628 18.8049 43.8252C18.7462 43.7484 18.7101 43.6671 18.7101 43.2156C18.7101 42.764 18.7462 42.676 18.8049 42.6014C18.8364 42.5634 18.8762 42.5331 18.9212 42.5128C18.9662 42.4924 19.0152 42.4826 19.0645 42.484C19.1142 42.4826 19.1636 42.4924 19.2089 42.5127C19.2543 42.5331 19.2945 42.5634 19.3264 42.6014C19.3851 42.6782 19.4213 42.7572 19.4213 43.2156C19.4213 43.6739 19.3851 43.7461 19.3264 43.8252Z" fill="#E01B15"/>
<path d="M22.5483 42.755H23.0924C23.0596 42.5885 22.9823 42.434 22.8686 42.3081C22.755 42.1821 22.6092 42.0894 22.447 42.0398C22.2847 41.9902 22.112 41.9856 21.9473 42.0264C21.7827 42.0673 21.6322 42.1521 21.5119 42.2718C21.2862 42.4976 21.2862 42.8317 21.2862 43.1749V43.2539C21.2862 43.5949 21.2862 43.9177 21.5119 44.157C21.6939 44.327 21.9335 44.4216 22.1825 44.4216C22.4315 44.4216 22.6712 44.327 22.8531 44.157C23.0246 43.9809 23.0788 43.7687 23.0788 43.3713V43.0575H22.1757V43.5091H22.5325V43.5723C22.537 43.6239 22.5302 43.676 22.5123 43.7246C22.4945 43.7733 22.4661 43.8175 22.4292 43.8539C22.3923 43.8904 22.3479 43.9182 22.299 43.9355C22.2501 43.9528 22.198 43.959 22.1464 43.9538C22.1026 43.9489 22.0603 43.9349 22.0222 43.9127C21.9842 43.8906 21.9511 43.8607 21.9251 43.8252C21.8687 43.7506 21.8303 43.6671 21.8303 43.2088C21.8303 42.7505 21.8687 42.6692 21.9251 42.5947C21.9562 42.5567 21.9955 42.5264 22.0402 42.5061C22.0848 42.4857 22.1335 42.4758 22.1825 42.4773C22.2673 42.4686 22.3522 42.4925 22.4201 42.544C22.488 42.5956 22.5338 42.671 22.5483 42.755Z" fill="#E01B15"/>
<path d="M25.0453 42.028H24.5057V44.3964H25.0453V42.028Z" fill="#E01B15"/>
<path d="M28.1069 44.0261C28.2229 43.7855 28.269 43.5172 28.2401 43.2517V43.1727C28.2401 42.8317 28.2401 42.5089 28.003 42.2696C27.8264 42.0998 27.5909 42.0051 27.346 42.0051C27.1011 42.0051 26.8656 42.0998 26.689 42.2696C26.4632 42.4953 26.4632 42.8295 26.4632 43.1727V43.2517C26.4632 43.5926 26.4632 43.9155 26.689 44.1548C26.7736 44.2428 26.8759 44.3119 26.9891 44.3574C27.1024 44.4029 27.224 44.4239 27.346 44.4189C27.5034 44.4228 27.6591 44.3854 27.7976 44.3106H27.8156L27.9985 44.4935L28.2626 44.2316L28.0888 44.0577L28.1069 44.0261ZM27.6869 43.6355L27.5492 43.4955L27.285 43.7597L27.4566 43.9313H27.4047C27.3867 43.9334 27.3685 43.9334 27.3505 43.9313C27.301 43.9321 27.252 43.9218 27.207 43.9011C27.1621 43.8803 27.1224 43.8498 27.0909 43.8116C27.0322 43.7348 26.996 43.6536 26.996 43.202C26.996 42.7505 27.0322 42.6624 27.0909 42.5879C27.1224 42.5499 27.1622 42.5196 27.2071 42.4992C27.2521 42.4789 27.3012 42.4691 27.3505 42.4705C27.4002 42.4691 27.4496 42.4789 27.4949 42.4992C27.5403 42.5195 27.5804 42.5499 27.6124 42.5879C27.6689 42.6624 27.705 42.7459 27.705 43.202C27.7005 43.3872 27.6937 43.5023 27.6869 43.5723V43.6355Z" fill="#E01B15"/>
<path d="M30.1456 43.561V42.0189H29.6015V43.5655C29.6354 43.7777 29.7438 43.9708 29.9072 44.1102C30.0707 44.2497 30.2785 44.3263 30.4933 44.3263C30.7082 44.3263 30.916 44.2497 31.0794 44.1102C31.2429 43.9708 31.3513 43.7777 31.3851 43.5655V42.0189H30.8455V43.552C30.8511 43.6013 30.846 43.6513 30.8304 43.6984C30.8148 43.7456 30.7891 43.7888 30.7552 43.8251C30.7213 43.8614 30.6799 43.8898 30.6339 43.9086C30.5879 43.9273 30.5384 43.9358 30.4888 43.9335C30.441 43.9344 30.3935 43.9251 30.3495 43.9063C30.3054 43.8875 30.2659 43.8596 30.2335 43.8244C30.2011 43.7892 30.1765 43.7475 30.1613 43.7021C30.1462 43.6567 30.1408 43.6086 30.1456 43.561Z" fill="#E01B15"/>
<path d="M34.2705 42.9649H33.372V42.5021H34.4241V42.028H32.8324V44.3964H34.4241V43.9222H33.372V43.4391H34.2705V42.9649Z" fill="#E01B15"/>
</svg>
