<svg width="30" height="31" viewBox="0 0 30 31" fill="none" xmlns="http://www.w3.org/2000/svg">
<circle cx="15" cy="15.8203" r="15" fill="#D19800"/>
<path d="M14.3016 16.5945C14.8791 15.552 15.9891 14.937 16.6341 14.0145C17.3166 13.047 16.9341 11.2395 14.9991 11.2395C13.7316 11.2395 13.1091 12.1995 12.8466 12.9945L10.9041 12.177C11.4366 10.5795 12.8841 9.20703 14.9916 9.20703C16.7541 9.20703 17.9616 10.0095 18.5766 11.0145C19.1016 11.877 19.4091 13.4895 18.5991 14.6895C17.6991 16.017 16.8366 16.422 16.3716 17.277C16.1841 17.622 16.1091 17.847 16.1091 18.957H13.9416C13.9341 18.372 13.8441 17.4195 14.3016 16.5945ZM16.4991 21.957C16.4991 22.782 15.8241 23.457 14.9991 23.457C14.1741 23.457 13.4991 22.782 13.4991 21.957C13.4991 21.132 14.1741 20.457 14.9991 20.457C15.8241 20.457 16.4991 21.132 16.4991 21.957Z" fill="white"/>
</svg>
