<svg width="360" height="142" viewBox="0 0 360 142" fill="none" xmlns="http://www.w3.org/2000/svg">
<rect width="360" height="142" fill="#E4ECF4"/>
<g clip-path="url(#clip0_4342_18705)">
<path d="M74.0168 68.568H56" stroke="#0063CB" stroke-linecap="round" stroke-linejoin="round"/>
<path d="M101.983 68.568H120" stroke="#0063CB" stroke-linecap="round" stroke-linejoin="round"/>
<path d="M93.1584 80.572C96.0856 81.1944 98.0448 82.332 98.0448 83.6304C98.0448 85.5992 93.5472 87.1944 88 87.1944C82.4528 87.1944 77.9552 85.5992 77.9552 83.6304C77.9552 82.3312 79.9136 81.1944 82.8408 80.572" stroke="#0063CB" stroke-linecap="round" stroke-linejoin="round"/>
<path d="M97.9736 77.996C101.768 79.3048 104.207 81.3416 104.207 83.6304C104.207 87.5776 96.9512 90.7776 88 90.7776C79.0488 90.7776 71.792 87.5776 71.792 83.6304C71.792 81.3416 74.2312 79.3048 78.0264 77.996" stroke="#0063CB" stroke-linecap="round" stroke-linejoin="round"/>
<path d="M99.9625 74.9104C105.519 76.8216 109.162 80.0304 109.162 83.6608C109.162 89.5192 99.6865 94.268 87.9985 94.268C76.3105 94.268 66.8361 89.5192 66.8361 83.6608C66.8361 80.028 70.4809 76.8216 76.0361 74.9104" stroke="#0063CB" stroke-linecap="round" stroke-linejoin="round"/>
<path d="M99.7448 68.156C99.7192 71.2542 98.4705 74.2169 96.2706 76.3987C94.0708 78.5804 91.0979 79.8047 87.9996 79.8047C84.9013 79.8047 81.9284 78.5804 79.7285 76.3987C77.5287 74.2169 76.28 71.2542 76.2544 68.156C76.2544 63.036 83.5624 52.5968 86.6496 48.4136C86.8058 48.2025 87.0094 48.031 87.2439 47.9128C87.4784 47.7946 87.7374 47.733 88 47.733C88.2626 47.733 88.5216 47.7946 88.7561 47.9128C88.9906 48.031 89.1942 48.2025 89.3504 48.4136C92.4368 52.6 99.7448 63.0392 99.7448 68.156Z" stroke="#0063CB" stroke-linecap="round" stroke-linejoin="round"/>
</g>
<defs>
<clipPath id="clip0_4342_18705">
<rect width="80" height="80" fill="white" transform="translate(48 31)"/>
</clipPath>
</defs>
</svg>
