<svg width="212" height="212" viewBox="0 0 212 212" fill="none" xmlns="http://www.w3.org/2000/svg">
<path fill-rule="evenodd" clip-rule="evenodd" d="M69.9284 113.18C70.6853 111.832 71.775 111.23 73.3248 111.325C74.6753 111.412 75.6091 112.412 76.1598 114.074C76.4379 114.913 76.6147 115.912 76.6978 116.993L76.7081 117.135L76.7142 117.123C78.0095 114.465 79.4028 113.534 81.4815 114.042L81.556 114.061C82.793 114.377 83.5165 115.422 83.7875 116.994C83.955 117.966 83.9479 119.129 83.7967 120.388L83.789 120.451L83.7946 120.447C84.7519 119.756 85.7074 119.673 86.7531 120.212L86.7993 120.236L86.8579 120.271C86.9145 120.305 86.9692 120.34 87.0587 120.4C87.2311 120.515 87.2776 120.748 87.1627 120.92C87.0479 121.092 86.815 121.139 86.6427 121.024L86.5543 120.966C86.5053 120.934 86.4727 120.914 86.4373 120.893C85.4186 120.352 84.5718 120.577 83.5368 121.681C83.2817 121.953 82.829 121.727 82.8939 121.359C83.5243 117.793 83.0816 115.225 81.3691 114.788C79.3492 114.264 78.1271 115.386 76.7252 118.986C76.5734 119.375 75.9939 119.262 76.0008 118.843C76.0642 114.973 75.1433 112.194 73.2776 112.074C70.894 111.927 69.9182 113.665 69.1849 119.1C69.1311 119.498 68.5724 119.544 68.4546 119.159C67.9376 117.47 67.0906 115.622 66.1536 114.313C65.0124 112.719 63.85 112.037 62.7375 112.428C60.3975 113.25 60.2465 115.31 61.9116 121.198C62.0288 121.612 61.4687 121.865 61.2354 121.503C59.1341 118.24 56.5284 116.07 55.0675 117.027C53.4565 118.073 53.6886 119.754 55.9402 123.766C56.1161 124.079 55.7932 124.437 55.4637 124.293C53.9829 123.65 52.7317 123.744 51.7521 124.703C50.527 125.917 50.1942 127.06 50.6109 128.495C50.6686 128.694 50.5542 128.902 50.3553 128.96C50.1564 129.017 49.9483 128.903 49.8906 128.704C49.3948 126.996 49.8097 125.572 51.2259 124.169C52.2169 123.199 53.4367 122.935 54.7864 123.27L54.8179 123.278L54.8096 123.263C53.9403 121.628 53.4679 120.438 53.3223 119.457L53.3152 119.407C53.133 118.088 53.5635 117.109 54.6579 116.398C55.7779 115.665 57.1547 116.076 58.6438 117.316C59.3115 117.872 59.9938 118.592 60.6303 119.383L60.6625 119.423L60.5897 119.122C60.1632 117.329 59.9958 116.045 60.064 115.006L60.0674 114.958C60.1889 113.3 60.9568 112.259 62.4887 111.721C63.9976 111.189 65.4505 112.043 66.7634 113.877C67.4622 114.852 68.1065 116.097 68.6146 117.365L68.6662 117.495L68.6714 117.464C68.9986 115.508 69.3789 114.179 69.9044 113.223L69.9284 113.18Z" fill="#971356"/>
<path fill-rule="evenodd" clip-rule="evenodd" d="M78.5369 128.062C78.744 128.061 78.9125 128.229 78.9131 128.436C78.9137 128.636 78.7582 128.799 78.5613 128.811L78.5393 128.812L50.8895 128.899L50.8714 128.903C49.1984 129.26 48.066 130.929 48.3132 132.7L48.3212 132.755L51.0087 150.105C51.0404 150.309 50.9002 150.501 50.6955 150.533C50.4982 150.563 50.3129 150.434 50.2715 150.241L50.2675 150.22L47.5801 132.87C47.238 130.667 48.6599 128.572 50.7785 128.157C50.7941 128.154 50.8098 128.152 50.8256 128.15L50.8494 128.15L78.5369 128.062Z" fill="#971356"/>
<path fill-rule="evenodd" clip-rule="evenodd" d="M109.093 109.633C109.296 109.588 109.496 109.715 109.541 109.917C109.586 110.119 109.459 110.32 109.257 110.365C106.236 111.039 103.103 111.977 99.905 113.151C96.1442 114.539 91.6821 117.44 86.7142 121.553C82.7523 124.834 78.6629 128.72 74.6078 132.934C74.5439 133 74.4578 133.041 74.3659 133.048C65.7857 133.698 59.2511 139.505 59.6369 146.077C59.7191 147.473 60.1122 148.822 60.7934 150.097C60.8909 150.28 60.8219 150.507 60.6392 150.605C60.4565 150.702 60.2294 150.633 60.1318 150.451C59.4007 149.081 58.9768 147.627 58.8882 146.121C58.4797 139.164 65.2195 133.1 74.0413 132.322L74.1657 132.312L74.2856 132.188C78.2145 128.118 82.1741 124.357 86.0223 121.153L86.2359 120.976L86.537 120.727C91.4441 116.696 95.8663 113.842 99.6459 112.447C102.874 111.262 106.039 110.314 109.093 109.633Z" fill="#971356"/>
<path fill-rule="evenodd" clip-rule="evenodd" d="M120.333 108.399C125.615 108.505 130.282 109.727 134.222 112.155C137.665 114.283 141.056 117.624 144.143 121.831L144.213 121.928L144.316 121.918C144.741 121.878 145.156 121.855 145.561 121.85L145.713 121.849C147.147 121.849 148.57 122.059 149.944 122.464C150.143 122.523 150.256 122.732 150.197 122.93C150.139 123.129 149.93 123.242 149.732 123.184C148.426 122.798 147.074 122.599 145.713 122.599C145.189 122.599 144.645 122.632 144.08 122.697C143.946 122.712 143.813 122.654 143.734 122.544C140.648 118.282 137.253 114.91 133.828 112.793C130.01 110.44 125.473 109.252 120.318 109.149C120.111 109.145 119.946 108.974 119.95 108.767C119.954 108.559 120.126 108.395 120.333 108.399Z" fill="#971356"/>
<path fill-rule="evenodd" clip-rule="evenodd" d="M159.739 131.717C159.93 131.635 160.15 131.723 160.232 131.914C161.227 134.231 161.75 136.748 161.75 139.349C161.75 143.464 160.448 147.352 158.099 150.463C157.974 150.628 157.739 150.661 157.574 150.536C157.409 150.411 157.376 150.176 157.501 150.01C159.751 147.03 161 143.301 161 139.349C161 136.85 160.498 134.434 159.543 132.209C159.461 132.019 159.549 131.799 159.739 131.717Z" fill="#971356"/>
<path fill-rule="evenodd" clip-rule="evenodd" d="M134.9 113.036C123.812 119.911 113.862 120.061 107.412 118.949C101.437 117.924 97.1245 115.624 95.7245 114.724C95.487 114.861 95.2495 114.999 94.9995 115.136C96.1495 115.924 100.65 118.524 107.15 119.661C109.275 120.036 111.412 120.224 113.562 120.224C115.75 120.224 117.937 120.036 120.112 119.649C125.375 118.711 130.562 116.649 135.562 113.511C135.337 113.336 135.125 113.186 134.9 113.036Z" fill="#971356"/>
<path fill-rule="evenodd" clip-rule="evenodd" d="M133.75 124.849C135.512 122.374 137.687 120.986 140.225 120.711C141.4 120.586 142.387 120.749 142.975 120.886C142.737 120.586 142.5 120.286 142.262 119.999C141.687 119.924 140.975 119.886 140.187 119.974C138.275 120.174 135.5 121.099 133.137 124.424C133.012 124.586 133.062 124.824 133.225 124.949C133.287 124.999 133.362 125.024 133.437 125.024C133.562 125.011 133.675 124.961 133.75 124.849Z" fill="#971356"/>
<path fill-rule="evenodd" clip-rule="evenodd" d="M134.012 134.011C134.225 134.011 134.387 133.849 134.4 133.649C134.425 132.549 134.862 130.049 136.4 127.699C138.175 124.961 140.8 123.286 144.175 122.686C144.012 122.461 143.85 122.236 143.675 122.011C140.3 122.699 137.575 124.511 135.762 127.286C134.25 129.611 133.675 132.161 133.637 133.624C133.637 133.836 133.8 134.011 134.012 134.011Z" fill="#971356"/>
<path fill-rule="evenodd" clip-rule="evenodd" d="M80.9247 129.949C79.3372 129.886 77.8122 130.036 76.6872 130.274C76.3122 130.649 75.9372 131.024 75.5747 131.399C76.9622 130.636 84.8622 129.686 88.1247 133.399C88.1997 133.486 88.2997 133.524 88.4122 133.524C88.4997 133.524 88.5872 133.499 88.6622 133.436C88.8122 133.299 88.8372 133.061 88.6997 132.911C86.5872 130.499 82.9247 130.024 80.9247 129.949Z" fill="#971356"/>
<path fill-rule="evenodd" clip-rule="evenodd" d="M74.0865 132.699C74.0865 132.699 74.099 132.699 74.1115 132.699C74.099 132.687 74.0865 132.699 74.0865 132.699C74.0865 132.699 74.074 132.699 74.0865 132.699Z" fill="#971356"/>
<path fill-rule="evenodd" clip-rule="evenodd" d="M87.2239 135.687C82.8114 132.349 77.3114 132.149 74.9864 132.249C74.7239 132.524 74.4614 132.787 74.2114 133.049C75.5489 132.937 81.9364 132.637 86.7739 136.287C86.8364 136.337 86.9239 136.362 86.9989 136.362C87.1114 136.362 87.2239 136.312 87.2989 136.212C87.4239 136.049 87.3864 135.812 87.2239 135.687Z" fill="#971356"/>
<path fill-rule="evenodd" clip-rule="evenodd" d="M75.9636 140.736C78.3298 139.631 81.0053 139.298 83.9954 139.868L84.4845 139.962C86.5679 140.368 88.8859 140.875 91.4736 141.484C91.6752 141.531 91.8002 141.733 91.7527 141.935C91.7053 142.137 91.5034 142.261 91.3018 142.214L90.6961 142.072C88.1598 141.482 85.8908 140.993 83.855 140.605C81.0195 140.064 78.5041 140.378 76.2808 141.415C74.4323 142.278 72.8388 143.615 71.4864 145.3C70.6102 146.392 69.8878 147.564 69.3104 148.735C69.1086 149.144 68.9395 149.524 68.8019 149.864L68.7627 149.962C68.744 150.01 68.7267 150.054 68.7107 150.096L68.6735 150.196L68.6429 150.282C68.5766 150.478 68.3638 150.583 68.1676 150.517C67.9714 150.45 67.8661 150.238 67.9325 150.041L67.9553 149.976L67.9769 149.917C68.0127 149.82 68.0559 149.709 68.1066 149.583C68.2509 149.226 68.4275 148.83 68.6377 148.403C69.2378 147.186 69.9886 145.969 70.9015 144.831C72.3215 143.061 74.0025 141.651 75.9636 140.736Z" fill="#971356"/>
<path fill-rule="evenodd" clip-rule="evenodd" d="M162.288 91.0787L162.349 90.988C163.148 89.8138 163.979 89.4165 164.695 89.932C165.117 90.2362 165.162 90.8647 164.993 91.864L164.969 92.0049C164.856 92.6231 164.67 93.3449 164.366 94.3946L163.87 96.0884C163.638 96.8884 163.56 97.1885 163.467 97.6163C163.422 97.8187 163.223 97.9468 163.02 97.9026C162.818 97.8584 162.69 97.6585 162.734 97.4562L162.769 97.2967C162.85 96.9414 162.932 96.6297 163.122 95.9756L163.622 94.2691C163.956 93.1187 164.148 92.3684 164.254 91.7391L164.269 91.6441C164.371 90.9917 164.339 90.6001 164.256 90.5406C163.969 90.3335 163.53 90.5546 162.915 91.4907L162.86 91.5767C162.07 92.8171 161.207 94.9909 160.311 98.1268C160.254 98.3259 160.046 98.4412 159.847 98.3843C159.648 98.3274 159.533 98.1199 159.59 97.9207L159.654 97.6964C160.568 94.5408 161.453 92.3497 162.288 91.0787Z" fill="#971356"/>
<path fill-rule="evenodd" clip-rule="evenodd" d="M168.343 96.328C168.904 95.4126 169.719 94.8992 170.373 95.1484C171.093 95.4227 171.233 96.4009 170.813 97.7925L170.722 98.0874C170.614 98.4438 170.502 98.8347 170.355 99.3681L170.083 100.355C169.289 103.221 168.701 104.689 167.723 105.693L167.478 105.942C166.967 106.461 166.541 106.909 166.193 107.289L166.055 107.441C165.91 107.601 165.792 107.736 165.698 107.846L165.641 107.912L165.444 108.662L165.267 109.342C165.095 110.006 164.909 110.733 164.711 111.514C163.998 114.34 163.284 117.298 162.618 120.241L162.474 120.88C162.165 122.259 161.875 123.603 161.605 124.902L161.497 125.427C161.265 126.558 161.051 127.647 160.857 128.689L160.769 129.166C159.547 135.857 157.746 140.33 155.44 142.776C153.378 144.965 150.943 145.493 148.338 144.565C145.834 143.68 144.485 141.47 144.481 138.098C144.478 134.587 145.918 129.845 148.851 123.96L149.427 122.807C151.763 118.133 153.825 113.909 155.606 110.18L156.299 108.725C156.727 107.823 157.116 106.998 157.464 106.253L158.012 105.076L158.371 104.294C158.457 104.105 158.679 104.022 158.868 104.107C159.05 104.19 159.134 104.4 159.063 104.584L159.016 104.688L158.626 105.534L158.091 106.683C157.685 107.551 157.226 108.523 156.715 109.597L156.191 110.697C154.305 114.641 152.108 119.131 149.61 124.117C143.938 135.426 143.945 142.216 148.589 143.858C150.92 144.689 153.041 144.229 154.895 142.262C157.06 139.964 158.797 135.68 159.995 129.227L160.031 129.031C160.278 127.681 160.559 126.251 160.871 124.75C161.183 123.246 161.523 121.684 161.887 120.076C162.517 117.29 163.19 114.492 163.865 111.803L164.14 110.716C164.267 110.214 164.39 109.737 164.506 109.288L164.739 108.393L164.938 107.639C164.952 107.589 164.975 107.542 165.008 107.501L165.059 107.439L165.128 107.359C165.226 107.243 165.349 107.103 165.499 106.938L165.688 106.73C166.082 106.301 166.57 105.791 167.159 105.197L167.216 105.139C168.017 104.297 168.56 102.984 169.261 100.511L169.71 98.8873C169.835 98.4409 169.934 98.0961 170.034 97.7706L170.08 97.6251C170.417 96.5374 170.337 95.9372 170.106 95.8492C169.875 95.7613 169.378 96.0747 168.983 96.7196C168.874 96.8963 168.644 96.9518 168.467 96.8436C168.29 96.7354 168.235 96.5046 168.343 96.328Z" fill="#971356"/>
<path fill-rule="evenodd" clip-rule="evenodd" d="M155.244 96.447C154.984 95.4002 155.595 94.8436 156.91 95.0142C158.014 95.1531 158.813 95.6992 159.46 96.5709L159.491 96.6124C159.727 96.9432 160.177 97.6971 160.236 97.7835L160.239 97.7882C160.363 97.9547 160.328 98.1896 160.161 98.3127C159.995 98.4359 159.76 98.4009 159.637 98.2344L159.624 98.2162C159.517 98.0583 159.049 97.2755 158.858 97.018C158.324 96.2982 157.695 95.869 156.815 95.7582C156.355 95.6986 156.088 95.7409 155.99 95.8304C155.932 95.8832 155.912 96.0061 155.965 96.2344L155.972 96.2662C156.102 96.79 156.478 97.4601 157.297 98.7157L157.339 98.7801C157.722 99.3615 157.957 100.131 158.198 101.361L158.246 101.615L158.393 102.408C158.622 103.618 158.8 104.176 159.025 104.343L159.036 104.351C159.208 104.468 159.252 104.701 159.135 104.872C159.019 105.044 158.786 105.088 158.614 104.971C158.145 104.652 157.944 104.062 157.67 102.621L157.501 101.71L157.477 101.582C157.254 100.425 157.041 99.7086 156.732 99.2228L156.5 98.865C155.745 97.6939 155.392 97.043 155.244 96.447Z" fill="#971356"/>
<path fill-rule="evenodd" clip-rule="evenodd" d="M169.132 91.1527C170.107 91.0893 170.582 92.0388 170.234 93.2516L170.222 93.2926C170.043 93.9001 169.748 94.7442 169.364 95.7699L169.295 95.9528C169.242 96.0937 169.188 96.2373 169.132 96.3832C168.888 97.0207 168.63 97.6804 168.369 98.3326L168.156 98.8643L167.934 99.4095L167.859 99.5917C167.781 99.7832 167.561 99.8744 167.37 99.7955C167.185 99.7194 167.094 99.5128 167.158 99.3265L167.46 98.5835C167.493 98.502 167.527 98.4181 167.561 98.332C167.821 97.6857 168.081 97.0279 168.327 96.3883L168.486 95.9714L168.594 95.6883C168.994 94.6259 169.302 93.7514 169.488 93.1309L169.504 93.0784C169.743 92.2818 169.546 91.8774 169.181 91.9011C168.641 91.9362 167.945 92.6644 167.491 93.9488C167.422 94.144 167.208 94.2464 167.013 94.1774C166.818 94.1084 166.715 93.8941 166.784 93.6988C167.327 92.1617 168.236 91.211 169.132 91.1527Z" fill="#971356"/>
<path fill-rule="evenodd" clip-rule="evenodd" d="M165.073 91.0778C165.825 89.6237 166.589 89.0313 167.505 89.4445C168.446 89.8697 168.268 91.4929 167.426 94.1436C167.283 94.5938 167.122 95.0638 166.946 95.5481C166.72 96.1733 166.479 96.795 166.237 97.3908L166.146 97.613C166.061 97.8193 165.982 98.0089 165.909 98.1792L165.781 98.4753C165.697 98.6648 165.476 98.7505 165.286 98.6668C165.097 98.5831 165.011 98.3617 165.095 98.1722L165.193 97.9468L165.274 97.7558C165.33 97.6231 165.39 97.4799 165.452 97.3275C165.721 96.6741 165.99 95.9851 166.241 95.2926C166.414 94.8173 166.571 94.3567 166.711 93.9166L166.772 93.7211C167.403 91.6778 167.545 90.2857 167.196 90.1281C166.762 89.9322 166.3 90.3069 165.69 91.5188L165.62 91.6603C165.059 92.8131 164.459 94.496 163.445 97.651C163.382 97.8482 163.17 97.9567 162.973 97.8933C162.776 97.83 162.668 97.6188 162.731 97.4216L162.949 96.7465C163.875 93.8899 164.445 92.3356 165.002 91.2181L165.073 91.0778Z" fill="#971356"/>
<path fill-rule="evenodd" clip-rule="evenodd" d="M119.257 102.968C119.453 102.931 119.642 103.055 119.689 103.247L119.694 103.268L121.298 111.915C121.303 111.944 121.308 111.981 121.314 112.027C121.405 112.828 121.217 113.772 120.528 114.67C119.578 115.905 117.848 116.768 115.187 117.121C111.928 117.557 110.031 116.716 109.27 115.013C108.958 114.316 108.886 113.592 108.948 112.957L108.956 112.883C108.958 112.869 108.959 112.855 108.961 112.843L108.601 106.32C108.589 106.113 108.748 105.936 108.954 105.925C109.154 105.914 109.325 106.06 109.348 106.256L109.35 106.278L109.712 112.841C109.713 112.86 109.713 112.879 109.711 112.897L109.7 112.977C109.698 112.992 109.696 113.01 109.694 113.03C109.644 113.546 109.704 114.147 109.954 114.707C110.567 116.078 112.134 116.773 115.088 116.377C117.566 116.049 119.116 115.276 119.933 114.213C120.49 113.488 120.639 112.735 120.568 112.112L120.562 112.062L120.556 112.03L118.956 103.405C118.919 103.201 119.053 103.006 119.257 102.968Z" fill="#971356"/>
<path fill-rule="evenodd" clip-rule="evenodd" d="M121.921 89.3026C122.662 89.1275 123.425 89.0648 124.151 89.183C125.917 89.4708 127.032 90.7632 127.125 93.2352C127.203 95.3566 126.426 96.7008 125.02 97.3347C124.053 97.7702 122.916 97.8245 121.818 97.6572C121.614 97.626 121.473 97.4348 121.504 97.23C121.535 97.0253 121.727 96.8846 121.931 96.9158C122.899 97.0633 123.903 97.0153 124.711 96.6509C125.831 96.1463 126.443 95.0882 126.375 93.2631L126.369 93.136C126.261 91.1047 125.412 90.1484 124.03 89.9232C123.416 89.8232 122.746 89.8782 122.094 90.0324C121.967 90.0623 121.851 90.0939 121.746 90.1256L121.694 90.1415C121.656 90.1535 121.625 90.1638 121.6 90.1721L121.557 90.1876C121.363 90.2604 121.147 90.1623 121.074 89.9684C121.001 89.7745 121.099 89.5583 121.293 89.4855L121.341 89.4679C121.472 89.4219 121.67 89.3619 121.921 89.3026Z" fill="#971356"/>
<path fill-rule="evenodd" clip-rule="evenodd" d="M117.001 81.0739H108.201C104.444 81.0739 101.389 84.1292 101.389 87.8864V96.6614C101.389 102.418 106.057 107.086 111.814 107.086L111.983 107.085C117.679 106.993 122.251 102.346 122.251 96.6489V86.3239C122.251 83.4292 119.896 81.0739 117.001 81.0739ZM108.201 81.8239H117.001C119.482 81.8239 121.501 83.8435 121.501 86.3239V96.6489C121.501 101.936 117.257 106.249 111.974 106.335L111.811 106.336C106.471 106.336 102.139 102.004 102.139 96.6614V87.8864C102.139 84.5435 104.858 81.8239 108.201 81.8239Z" fill="#971356"/>
<path fill-rule="evenodd" clip-rule="evenodd" d="M124.212 101.412C124.199 97.9992 123.724 95.5117 123.599 94.8867C123.599 94.8492 123.612 94.7992 123.612 94.7617C123.612 93.9742 122.974 93.3367 122.187 93.3367L122.224 96.1867C122.524 96.1742 122.799 96.0742 123.024 95.9117C123.487 98.7867 124.399 107.362 120.549 114.649C119.849 115.987 119.187 117.224 118.537 118.412C114.912 125.174 112.512 129.649 112.574 133.637C112.574 133.837 112.749 134.012 112.949 134.012C113.162 134.012 113.324 133.837 113.324 133.637C113.274 129.837 115.637 125.437 119.199 118.774C119.837 117.574 120.499 116.349 121.212 114.999C123.724 110.237 124.237 104.987 124.212 101.412Z" fill="#89CAC6"/>
<path fill-rule="evenodd" clip-rule="evenodd" d="M100.787 96.3491C100.962 96.4491 101.149 96.5116 101.362 96.5241V93.6866C100.699 93.7491 100.174 94.2491 100.087 94.8991C100.049 94.9616 100.024 95.0366 100.024 95.1116C100.024 95.6866 100.024 109.149 104.024 115.224C108.112 121.449 109.374 124.999 109.662 131.024C109.674 131.224 109.837 131.387 110.037 131.387H110.049C110.262 131.374 110.412 131.199 110.412 130.999C110.124 124.799 108.837 121.174 104.649 114.812C101.449 109.962 100.887 99.8616 100.787 96.3491Z" fill="#89CAC6"/>
<path fill-rule="evenodd" clip-rule="evenodd" d="M108.731 90.2491C108.931 90.2457 109.096 90.399 109.111 90.5956L109.112 90.6177L109.247 98.5531L109.253 98.5554C109.28 98.5642 109.31 98.5623 109.351 98.547L109.37 98.5397C109.563 98.4572 109.817 98.1782 110.108 97.6443C110.207 97.4625 110.435 97.3956 110.617 97.4949C110.799 97.5942 110.866 97.822 110.766 98.0038C110.081 99.2584 109.344 99.5737 108.755 99.1287C108.668 99.0626 108.606 98.9946 108.567 98.9382C108.53 98.8847 108.507 98.8227 108.501 98.7582L108.5 98.7304L108.362 90.6304C108.359 90.4233 108.524 90.2526 108.731 90.2491Z" fill="#971356"/>
<path fill-rule="evenodd" clip-rule="evenodd" d="M112.682 99.7352C112.891 99.5984 113.173 99.7006 113.246 99.9398L113.255 99.9707C113.264 100.005 113.274 100.051 113.284 100.106C113.361 100.546 113.319 101.032 113.068 101.497C112.649 102.273 111.744 102.779 110.287 102.922C110.08 102.943 109.897 102.792 109.877 102.586C109.856 102.38 110.007 102.196 110.213 102.176C111.44 102.055 112.119 101.676 112.408 101.141C112.479 101.009 112.524 100.873 112.548 100.736L112.556 100.683L112.544 100.69C110.914 101.567 109.286 101.626 108.479 100.723L108.452 100.692C108.318 100.535 108.336 100.298 108.494 100.164C108.652 100.029 108.888 100.048 109.023 100.206C109.603 100.886 111.138 100.745 112.682 99.7352Z" fill="#971356"/>
<path fill-rule="evenodd" clip-rule="evenodd" d="M112.146 87.3234C112.964 86.7011 113.936 86.6346 114.984 87.4681C115.146 87.597 115.172 87.8329 115.044 87.995C114.915 88.1571 114.679 88.1839 114.517 88.055C113.758 87.4519 113.162 87.4927 112.6 87.9204C112.524 87.9782 112.456 88.0374 112.383 88.1077L112.245 88.2438C112.226 88.2624 112.21 88.2773 112.192 88.2916C112.144 88.3308 112.101 88.3571 112.029 88.3753C111.828 88.4256 111.624 88.3034 111.574 88.1025C111.536 87.9518 111.595 87.7996 111.712 87.7117L111.728 87.7L111.811 87.6184C111.923 87.5072 112.025 87.4155 112.146 87.3234Z" fill="#971356"/>
<path fill-rule="evenodd" clip-rule="evenodd" d="M114.75 93.974C115.095 93.974 115.375 93.5431 115.375 93.0115C115.375 92.4799 115.095 92.049 114.75 92.049C114.405 92.049 114.125 92.4799 114.125 93.0115C114.125 93.5431 114.405 93.974 114.75 93.974Z" fill="#971356"/>
<path fill-rule="evenodd" clip-rule="evenodd" d="M105.663 94.2115C106.008 94.2115 106.288 93.7806 106.288 93.249C106.288 92.7174 106.008 92.2865 105.663 92.2865C105.317 92.2865 105.038 92.7174 105.038 93.249C105.038 93.7806 105.317 94.2115 105.663 94.2115Z" fill="#971356"/>
<path fill-rule="evenodd" clip-rule="evenodd" d="M103.919 87.2051C104.855 86.4584 105.882 86.4232 106.783 87.5811C106.911 87.7445 106.881 87.9802 106.718 88.1074C106.554 88.2346 106.319 88.2053 106.192 88.0419C105.583 87.2602 105.029 87.2792 104.387 87.7914C104.3 87.8607 104.222 87.9314 104.135 88.0163L103.988 88.1634C103.968 88.1827 103.951 88.198 103.934 88.2123C103.883 88.255 103.843 88.2811 103.766 88.3003C103.565 88.3505 103.361 88.2284 103.311 88.0275C103.273 87.8768 103.333 87.7246 103.449 87.6367L103.464 87.6264L103.56 87.5296C103.683 87.4066 103.792 87.3062 103.919 87.2051Z" fill="#971356"/>
<path fill-rule="evenodd" clip-rule="evenodd" d="M114.324 79.2613C111.886 79.2988 110.036 79.4113 108.936 79.6238C99.9865 81.6613 101.436 88.2863 101.436 88.2863C101.436 88.2863 105.811 89.1238 109.374 83.8488C109.374 83.8488 114.261 87.8363 121.499 89.4488C121.611 89.4238 121.749 89.3863 121.874 89.3488V89.7113C122.299 89.5988 122.986 89.4738 123.699 89.5238C123.624 86.9113 123.149 83.6113 120.999 81.4863C119.474 79.9738 117.224 79.2238 114.324 79.2613Z" fill="#971356"/>
<path fill-rule="evenodd" clip-rule="evenodd" d="M137.812 73.8238C134.724 64.9988 125.974 60.0363 118.262 62.7363C111.924 64.9488 108.262 71.6613 108.862 78.8738C110.024 78.6738 111.849 78.5488 114.324 78.5113C117.437 78.4738 119.862 79.2863 121.537 80.9488C123.912 83.2988 124.399 86.8613 124.462 89.6363C125.612 89.9488 126.674 90.8863 126.762 93.2488C126.774 93.4863 126.562 95.3238 126.612 95.3113C126.612 95.8988 126.737 96.6363 127.174 97.3613C128.037 98.7488 129.787 99.6113 132.387 99.9113C132.399 99.9113 132.412 99.9113 132.437 99.9113C132.624 99.9113 132.787 99.7738 132.812 99.5863C132.837 99.3863 132.687 99.1988 132.487 99.1738C130.137 98.8988 128.562 98.1613 127.824 96.9738C127.524 96.4988 127.412 96.0113 127.374 95.5863C128.012 96.3363 129.124 97.1488 130.887 97.1488C131.312 97.1488 131.774 97.0988 132.274 96.9988C132.474 96.9613 132.612 96.7613 132.562 96.5613C132.524 96.3613 132.324 96.2238 132.124 96.2738C129.849 96.7488 128.587 95.8863 127.924 95.1113C128.437 94.9988 128.937 94.8613 129.437 94.6863C137.137 91.9738 140.887 82.6363 137.812 73.8238Z" fill="#971356"/>
<path fill-rule="evenodd" clip-rule="evenodd" d="M115.286 88.2994C112.553 88.2994 110.336 90.5156 110.336 93.2494C110.336 95.9832 112.553 98.1994 115.286 98.1994C118.02 98.1994 120.236 95.9832 120.236 93.2494C120.236 90.5156 118.02 88.2994 115.286 88.2994ZM115.286 89.0494C117.606 89.0494 119.486 90.9298 119.486 93.2494C119.486 95.569 117.606 97.4494 115.286 97.4494C112.967 97.4494 111.086 95.569 111.086 93.2494C111.086 90.9298 112.967 89.0494 115.286 89.0494Z" fill="#971356"/>
<path fill-rule="evenodd" clip-rule="evenodd" d="M110.612 92.7617C110.819 92.7617 110.987 92.9296 110.987 93.1367C110.987 93.3364 110.831 93.4997 110.634 93.5111L110.612 93.5117H107.637C107.43 93.5117 107.262 93.3438 107.262 93.1367C107.262 92.937 107.418 92.7738 107.615 92.7624L107.637 92.7617H110.612Z" fill="#971356"/>
<path fill-rule="evenodd" clip-rule="evenodd" d="M121.69 89.2478C121.87 89.1459 122.099 89.2094 122.201 89.3897C122.299 89.5633 122.243 89.7819 122.078 89.8888L122.059 89.9007L119.471 91.3632C119.291 91.4651 119.062 91.4015 118.96 91.2212C118.862 91.0476 118.917 90.8291 119.083 90.7221L119.102 90.7103L121.69 89.2478Z" fill="#971356"/>
<path fill-rule="evenodd" clip-rule="evenodd" d="M102.911 88.2994C100.178 88.2994 97.9614 90.5156 97.9614 93.2494C97.9614 95.9832 100.178 98.1994 102.911 98.1994C105.645 98.1994 107.861 95.9832 107.861 93.2494C107.861 90.5156 105.645 88.2994 102.911 88.2994ZM102.911 89.0494C105.231 89.0494 107.111 90.9298 107.111 93.2494C107.111 95.569 105.231 97.4494 102.911 97.4494C100.592 97.4494 98.7114 95.569 98.7114 93.2494C98.7114 90.9298 100.592 89.0494 102.911 89.0494Z" fill="#971356"/>
<path fill-rule="evenodd" clip-rule="evenodd" d="M134.376 145.474H131.776L130.501 126.562C130.414 125.237 129.264 124.162 127.939 124.162H91.7013C90.3763 124.162 89.3638 125.237 89.4638 126.562L90.8763 147.499C90.9638 148.824 92.1138 149.899 93.4388 149.899L134.364 149.849C135.114 149.849 135.714 149.237 135.714 148.499V146.837C135.726 146.087 135.126 145.474 134.376 145.474ZM111.826 131.874C111.176 133.587 109.701 133.062 109.701 133.062C109.964 131.499 111.826 131.874 111.826 131.874ZM112.027 140.262C110.727 141.074 108.777 140.774 107.664 139.599C106.552 138.424 106.714 136.812 108.027 135.999C108.227 135.874 108.439 135.787 108.664 135.712C108.414 135.449 108.277 135.087 108.314 134.699C108.352 134.274 108.589 133.937 108.927 133.762C108.777 133.199 108.539 132.462 108.339 132.224C108.227 132.087 108.239 131.912 108.389 131.824C108.527 131.737 108.739 131.787 108.864 131.924C109.164 132.287 109.427 133.137 109.564 133.649C109.577 133.649 109.589 133.649 109.602 133.649C110.252 133.749 110.739 134.362 110.677 135.049C110.652 135.274 110.577 135.462 110.464 135.624C111.189 135.774 111.877 136.124 112.389 136.662C113.489 137.849 113.327 139.462 112.027 140.262Z" fill="#89CAC6"/>
<path fill-rule="evenodd" clip-rule="evenodd" d="M181.989 149.9C182.196 149.9 182.364 150.067 182.364 150.275C182.364 150.474 182.207 150.637 182.011 150.649L181.989 150.65H29.6011C29.394 150.65 29.2261 150.482 29.2261 150.275C29.2261 150.075 29.3822 149.912 29.579 149.9L29.6011 149.9H181.989Z" fill="#971356"/>
</svg>
