<svg width="212" height="212" viewBox="0 0 212 212" fill="none" xmlns="http://www.w3.org/2000/svg">
<path fill-rule="evenodd" clip-rule="evenodd" d="M120.843 109.326C120.925 109.136 121.146 109.049 121.336 109.132C121.526 109.214 121.613 109.435 121.531 109.625C120.692 111.555 120.141 113.674 119.846 115.924C119.819 116.13 119.631 116.274 119.425 116.247C119.22 116.221 119.075 116.032 119.102 115.827C119.406 113.511 119.974 111.324 120.843 109.326Z" fill="#971356"/>
<path fill-rule="evenodd" clip-rule="evenodd" d="M143.049 98.3996C151.553 97.9596 157.276 100.056 160.543 104.248C163.149 107.591 164.058 112.077 163.66 117.189L163.168 123.252L162.276 134.381L161.06 149.668C161.044 149.874 160.863 150.028 160.657 150.012C160.458 149.996 160.308 149.828 160.312 149.631L160.35 149.135L161.529 134.321L162.678 120.012C162.762 118.975 162.836 118.062 162.9 117.282C163.314 112.277 162.45 107.914 159.952 104.709C156.818 100.689 151.252 98.6793 142.833 99.1625C142.816 99.1635 142.8 99.1633 142.783 99.162L142.652 99.1525C142.448 99.1385 142.247 99.1294 141.834 99.1128C141.627 99.1046 141.466 98.9301 141.474 98.7232C141.483 98.5162 141.657 98.3552 141.864 98.3634L142.222 98.3783C142.385 98.3855 142.508 98.3917 142.624 98.399L142.816 98.4124L143.049 98.3996Z" fill="#971356"/>
<path fill-rule="evenodd" clip-rule="evenodd" d="M156.835 121.425L155.212 142.333C154.97 145.418 154.782 147.788 154.623 149.731C154.606 149.938 154.425 150.091 154.219 150.074C154.012 150.057 153.859 149.876 153.875 149.67L154.198 145.65C154.337 143.902 154.496 141.874 154.683 139.474L156.205 119.868L156.413 117.27C156.76 113.067 156.197 109.285 154.499 106.267C152.417 102.567 148.711 100.172 143.109 99.3718C142.904 99.3425 142.761 99.1526 142.79 98.9476C142.82 98.7425 143.01 98.6001 143.215 98.6294C149.041 99.4618 152.952 101.99 155.153 105.899C156.917 109.034 157.506 112.914 157.171 117.201L156.892 120.693C156.873 120.929 156.854 121.172 156.835 121.425Z" fill="#971356"/>
<path fill-rule="evenodd" clip-rule="evenodd" d="M109.336 129.938L108.411 138.613Z" fill="white"/>
<path fill-rule="evenodd" clip-rule="evenodd" d="M108.963 129.898C108.985 129.692 109.17 129.543 109.376 129.565C109.575 129.586 109.72 129.759 109.711 129.956L109.709 129.978L108.784 138.653C108.762 138.859 108.577 139.008 108.371 138.986C108.173 138.965 108.027 138.792 108.037 138.595L108.038 138.573L108.963 129.898Z" fill="#971356"/>
<path fill-rule="evenodd" clip-rule="evenodd" d="M124.437 147.463L123.962 149.663L140.987 150.013L141.137 147.113C129.962 148.425 124.437 147.463 124.437 147.463Z" fill="#971356"/>
<path fill-rule="evenodd" clip-rule="evenodd" d="M143.437 118C142.175 117.25 138.762 116.525 138.762 116.525C136.075 119.675 131.075 122.688 126.537 122.288C119.587 121.688 122.662 116.975 122.937 116.563L124.562 116.25L124.575 115.85C122.587 116.225 120.85 116.738 119.662 117.138C119.55 117.175 119.362 117.238 119.125 117.313C119.575 117.513 119.887 117.688 119.962 117.788C120.262 118.213 119.425 118.838 118.362 118.425L117.037 117.963C116.95 117.988 116.875 118.013 116.787 118.05C117.7 118.475 118.725 118.975 118.9 119.138C119.225 119.438 118.575 120.45 116.612 119.425C115.862 119.038 115.375 118.813 115.05 118.675C114.987 118.7 114.937 118.725 114.887 118.75C115.587 119.163 116.85 119.925 117.125 120.188C117.5 120.55 116.375 121.475 114.362 119.9L112.5 120.588C110.1 123.388 108.75 128.163 108.637 130.25C108.862 130.725 112.787 132 112.812 132.05C112.787 132.275 112.762 132.5 112.762 132.713C112.612 136.013 114.487 138.35 114.487 138.35L113.362 144.863C114.412 143.85 115.575 142.838 116.212 142.525C117.025 142.138 118.15 141.713 119.625 141.45C119.737 141.388 119.8 141.363 119.837 141.363C125.85 140.838 139.325 139.05 139.325 139.05L138.412 130.963C138.412 130.963 149.475 127.625 149.475 127.638C149.6 128.563 149.7 129.513 149.787 130.45C150 130.363 150.112 130.313 150.112 130.288C149.212 121.688 144.412 118.563 143.437 118Z" fill="#971356"/>
<path fill-rule="evenodd" clip-rule="evenodd" d="M133.127 108.093C133.325 108.061 133.51 108.19 133.552 108.383L133.556 108.404L134.656 115.365L138.872 116.514C139.13 116.584 139.231 116.891 139.073 117.101L139.059 117.118C136.074 120.631 130.899 123.06 126.516 122.674C123.282 122.39 121.749 121.194 121.66 119.377C121.628 118.734 121.785 118.068 122.072 117.404C122.255 116.979 122.46 116.623 122.639 116.363C122.691 116.289 122.767 116.235 122.854 116.213L122.878 116.207L124.204 115.952L124.273 111.757C124.277 111.557 124.436 111.396 124.633 111.388L124.655 111.388C124.854 111.391 125.015 111.55 125.023 111.747L125.023 111.769L124.948 116.269C124.945 116.439 124.829 116.585 124.667 116.626L124.644 116.631L123.175 116.914L123.157 116.942L123.112 117.017C123.104 117.03 123.096 117.043 123.088 117.057L123.063 117.099C122.955 117.286 122.852 117.488 122.76 117.701C122.515 118.268 122.384 118.827 122.409 119.34C122.477 120.731 123.685 121.672 126.581 121.927C130.501 122.272 135.16 120.195 138.047 117.125L138.091 117.078L134.225 116.025C134.09 115.988 133.988 115.88 133.958 115.746L133.953 115.721L132.815 108.521C132.783 108.317 132.923 108.125 133.127 108.093Z" fill="#971356"/>
<rect x="141.181" y="88.0317" width="2.08746" height="3.67493" transform="rotate(39.5099 141.181 88.0317)" fill="#89CAC6"/>
<path fill-rule="evenodd" clip-rule="evenodd" d="M144.186 89.7133C146.216 89.7133 147.861 88.0679 147.861 86.0383C147.861 84.0086 146.216 82.3633 144.186 82.3633C142.157 82.3633 140.511 84.0086 140.511 86.0383C140.511 88.0679 142.157 89.7133 144.186 89.7133Z" fill="#971356"/>
<path fill-rule="evenodd" clip-rule="evenodd" d="M136.484 101.849C136.533 101.648 136.736 101.525 136.938 101.574C137.843 101.796 138.581 102.159 139.075 102.707C139.703 103.404 139.875 104.34 139.519 105.487C139.047 107.007 138.103 107.856 136.848 108.123C136.091 108.283 135.294 108.22 134.527 108.019L134.432 107.994C134.201 107.93 134.024 107.867 133.916 107.821C133.725 107.741 133.635 107.522 133.715 107.331C133.792 107.147 133.999 107.056 134.185 107.122L134.253 107.149C134.27 107.155 134.289 107.162 134.312 107.17L134.335 107.178C134.447 107.217 134.576 107.257 134.717 107.294C135.381 107.468 136.066 107.522 136.693 107.389C137.684 107.179 138.412 106.524 138.803 105.264C139.312 103.626 138.505 102.731 136.759 102.302C136.558 102.253 136.435 102.05 136.484 101.849Z" fill="#971356"/>
<path fill-rule="evenodd" clip-rule="evenodd" d="M125.337 91.4859C123.055 92.1698 121.748 93.8666 120.193 98.3402L120.195 98.3406L120.176 98.3922C120.033 98.7924 119.713 99.9733 119.592 100.632L119.578 100.713C119.305 102.193 119.287 104.601 119.736 106.611C120.404 109.6 121.993 111.587 124.686 112.033L124.782 112.049C127.907 112.532 130.889 111.341 133.236 108.896L133.303 108.826L133.34 108.789C133.398 108.73 133.478 108.644 133.576 108.533C133.778 108.306 133.998 108.038 134.227 107.732C134.876 106.865 135.486 105.853 136.002 104.704L136.011 104.682C136.128 104.372 136.248 104.027 136.387 103.605L136.511 103.226L136.78 102.391L136.784 102.377L136.819 102.235C136.838 102.159 136.853 102.103 136.865 102.064L136.879 102.024L136.887 102.007L136.89 102.001C136.912 101.95 136.92 101.917 136.927 101.859L136.959 101.497C136.975 101.318 136.862 101.153 136.689 101.103C133.981 100.323 131.417 98.8359 129.371 96.95C127.498 95.225 126.218 93.2991 125.876 91.7452C125.83 91.5337 125.614 91.4055 125.406 91.4655L125.337 91.4859ZM125.198 92.3238L125.248 92.3053L125.249 92.3097C125.737 93.944 127.039 95.8211 128.863 97.5016L128.957 97.5879C130.977 99.4236 133.465 100.886 136.109 101.712L136.185 101.735L136.185 101.74L136.174 101.769C136.168 101.784 136.163 101.801 136.157 101.818L136.151 101.837C136.13 101.903 136.106 101.991 136.077 102.11L136.062 102.174L135.755 103.127L135.65 103.445C135.533 103.799 135.43 104.095 135.33 104.362L135.314 104.407L135.318 104.397C134.826 105.493 134.245 106.458 133.627 107.282C133.41 107.572 133.204 107.823 133.016 108.035L132.952 108.106C132.931 108.129 132.912 108.151 132.893 108.171L132.826 108.242L132.763 108.306C130.543 110.655 127.737 111.778 124.809 111.293C122.465 110.905 121.077 109.168 120.469 106.447C120.043 104.543 120.06 102.235 120.317 100.844C120.38 100.466 120.503 99.9579 120.655 99.4063L120.694 99.268C120.726 99.1541 120.758 99.0442 120.788 98.9437L120.849 98.7438L120.89 98.6164L120.893 98.6107C120.896 98.6028 120.899 98.5946 120.902 98.5864L120.985 98.3487C122.341 94.5134 123.443 92.9849 125.198 92.3238Z" fill="#971356"/>
<path fill-rule="evenodd" clip-rule="evenodd" d="M124.919 97.4077C125.005 97.2192 125.228 97.136 125.416 97.2218C125.598 97.3045 125.682 97.5143 125.61 97.6982L125.602 97.7185L123.048 103.327L124.219 103.638C124.412 103.689 124.53 103.882 124.491 104.075L124.486 104.097C124.434 104.29 124.242 104.408 124.048 104.368L124.027 104.363L122.427 103.938C122.21 103.88 122.093 103.647 122.173 103.441L122.182 103.42L124.919 97.4077Z" fill="#971356"/>
<path fill-rule="evenodd" clip-rule="evenodd" d="M127.44 97.4205C128.23 97.1521 128.904 97.4407 129.419 98.051C129.545 98.2004 129.652 98.3588 129.742 98.5173C129.797 98.6139 129.834 98.6914 129.855 98.7407C129.937 98.9312 129.848 99.1515 129.658 99.2329C129.474 99.3114 129.263 99.232 129.175 99.0555L129.15 99.0016C129.136 98.9733 129.116 98.9341 129.089 98.8869C129.021 98.7665 128.939 98.6459 128.846 98.5349C128.51 98.1374 128.135 97.9766 127.681 98.1307C127.485 98.1973 127.272 98.0924 127.206 97.8963C127.139 97.7002 127.244 97.4872 127.44 97.4205Z" fill="#971356"/>
<path fill-rule="evenodd" clip-rule="evenodd" d="M125.529 106.052C125.673 105.903 125.91 105.9 126.059 106.044C126.208 106.188 126.211 106.425 126.067 106.574C125.781 106.87 125.414 107.042 124.996 107.109C124.598 107.174 124.185 107.141 123.785 107.05L123.712 107.032C123.595 107.003 123.503 106.974 123.444 106.953C123.25 106.882 123.15 106.667 123.221 106.472C123.289 106.284 123.492 106.185 123.681 106.241L123.734 106.259C123.742 106.262 123.752 106.265 123.762 106.268C123.818 106.285 123.882 106.302 123.953 106.319C124.266 106.391 124.588 106.416 124.876 106.369C125.129 106.328 125.337 106.235 125.499 106.082L125.529 106.052Z" fill="#971356"/>
<path fill-rule="evenodd" clip-rule="evenodd" d="M121.338 96.1134C121.949 95.8441 122.577 95.9874 123.164 96.3688C123.381 96.5097 123.544 96.651 123.642 96.7521C123.787 96.9008 123.783 97.1383 123.634 97.2824C123.491 97.4207 123.267 97.4228 123.122 97.2912L123.083 97.2532C123.067 97.2383 123.045 97.2181 123.017 97.1939C122.939 97.1271 122.851 97.06 122.755 96.9977C122.359 96.7402 121.975 96.6525 121.641 96.7997C121.571 96.8303 121.503 96.8715 121.434 96.9241L121.4 96.9515C121.241 97.0838 121.005 97.0621 120.872 96.9028C120.74 96.7435 120.762 96.5071 120.921 96.3747C121.053 96.2647 121.193 96.1777 121.338 96.1134Z" fill="#971356"/>
<path fill-rule="evenodd" clip-rule="evenodd" d="M127.275 100.228C127.377 99.7697 127.22 99.3445 126.923 99.2782C126.627 99.2119 126.304 99.5296 126.201 99.9877C126.099 100.446 126.256 100.871 126.552 100.937C126.849 101.004 127.172 100.686 127.275 100.228Z" fill="#971356"/>
<path fill-rule="evenodd" clip-rule="evenodd" d="M122.15 99.2533C122.252 98.7951 122.095 98.37 121.798 98.3037C121.502 98.2374 121.179 98.555 121.076 99.0131C120.974 99.4713 121.131 99.8964 121.427 99.9627C121.724 100.029 122.047 99.7114 122.15 99.2533Z" fill="#971356"/>
<path fill-rule="evenodd" clip-rule="evenodd" d="M140.086 89.4631C137.348 87.6131 134.198 86.2131 130.836 86.5006C120.473 87.8631 117.961 94.4006 120.548 98.4506V98.4506C122.173 93.7756 123.548 92.2256 125.586 91.6381C126.311 94.9256 131.473 99.9006 136.723 101.476V101.476L136.961 101.551C136.961 101.551 139.898 103.026 139.161 105.363C137.986 109.113 134.061 107.463 134.061 107.463L133.886 107.376C133.448 107.976 133.023 108.538 133.023 108.538L134.086 113.813L145.898 115.251C146.611 115.438 147.361 114.901 147.386 114.176C147.536 109.688 148.811 95.5631 140.086 89.4631Z" fill="#971356"/>
<path fill-rule="evenodd" clip-rule="evenodd" d="M124.715 98.9086C124.382 101.249 125.98 103.805 128.356 104.603C130.731 105.401 132.879 104.103 133.212 101.762C133.546 99.4217 131.948 96.8656 129.572 96.0679C127.197 95.2702 125.049 96.5682 124.715 98.9086ZM125.524 99.1809C125.813 97.1531 127.612 96.066 129.483 96.6939C131.354 97.3218 132.693 99.4625 132.404 101.49C132.115 103.518 130.315 104.605 128.445 103.977C126.574 103.349 125.235 101.209 125.524 99.1809Z" fill="#89CAC6"/>
<path fill-rule="evenodd" clip-rule="evenodd" d="M115.644 97.1732C115.31 99.5136 116.909 102.07 119.284 102.867C121.66 103.665 123.808 102.367 124.141 100.027C124.475 97.6862 122.876 95.1301 120.501 94.3324C118.125 93.5347 115.978 94.8327 115.644 97.1732ZM116.453 97.4453C116.742 95.4175 118.541 94.3304 120.412 94.9583C122.282 95.5862 123.621 97.7269 123.332 99.7546C123.043 101.782 121.244 102.87 119.374 102.242C117.503 101.614 116.164 99.473 116.453 97.4453Z" fill="#89CAC6"/>
<path fill-rule="evenodd" clip-rule="evenodd" d="M123.185 98.654C123.236 98.461 123.429 98.3434 123.622 98.383L123.644 98.3881L125.756 98.9506C125.957 99.0039 126.076 99.2093 126.022 99.4094C125.971 99.6024 125.778 99.72 125.585 99.6804L125.563 99.6753L123.451 99.1128C123.251 99.0595 123.132 98.8541 123.185 98.654Z" fill="#89CAC6"/>
<path fill-rule="evenodd" clip-rule="evenodd" d="M132.159 100.193C132.23 100.006 132.433 99.9087 132.622 99.9674L132.643 99.9746L137.055 101.637C137.249 101.71 137.347 101.926 137.274 102.12C137.203 102.307 137 102.405 136.811 102.346L136.791 102.339L132.378 100.676C132.184 100.603 132.086 100.387 132.159 100.193Z" fill="#89CAC6"/>
<path fill-rule="evenodd" clip-rule="evenodd" d="M46.9631 75.7918C47.6076 75.5471 48.3673 75.846 48.9046 76.6132L48.9332 76.6547L49.1399 76.9663C49.2707 77.1652 49.3532 77.2955 49.4428 77.4448C49.5493 77.6224 49.4917 77.8527 49.3141 77.9593C49.1365 78.0658 48.9062 78.0082 48.7996 77.8306L48.7461 77.7424C48.6652 77.6107 48.5785 77.4765 48.4388 77.2657L48.3104 77.0726C47.9557 76.5472 47.5352 76.3768 47.2293 76.493C47.0012 76.5796 46.9274 76.7939 47.0884 77.0501L47.286 77.3601C47.8756 78.2789 49.1473 80.2245 49.8214 81.2433C49.9357 81.416 49.8884 81.6486 49.7156 81.7629C49.5429 81.8772 49.3103 81.8299 49.196 81.6572L48.5864 80.7318C47.7962 79.528 46.7944 77.9899 46.4537 77.4497C46.0389 76.7895 46.2951 76.0455 46.9631 75.7918Z" fill="#971356"/>
<path fill-rule="evenodd" clip-rule="evenodd" d="M48.9783 74.0354C49.1823 73.5763 49.7056 73.3485 50.1824 73.5109C50.677 73.6792 50.9815 74.1965 51.0072 74.94L51.0084 74.9877V75.5127C51.0084 75.7198 50.8406 75.8877 50.6334 75.8877C50.4337 75.8877 50.2705 75.7316 50.2591 75.5348L50.2584 75.5127L50.2585 74.9946C50.2498 74.5216 50.1108 74.2787 49.9407 74.2209C49.8307 74.1834 49.7099 74.236 49.6636 74.34C49.4947 74.7201 49.7394 79.8241 49.955 81.3994C49.9831 81.6046 49.8395 81.7937 49.6343 81.8218C49.4291 81.8499 49.24 81.7063 49.2119 81.5011L49.2037 81.4388C49.1204 80.7847 49.0029 79.212 48.9301 77.7485L48.9089 77.3002C48.8285 75.4972 48.8355 74.3566 48.9783 74.0354Z" fill="#971356"/>
<path fill-rule="evenodd" clip-rule="evenodd" d="M51.1843 73.2957C50.8858 73.5627 50.4854 74.759 49.9759 76.6675L49.898 76.9621C49.5051 78.4615 49.16 79.9988 49.0784 80.6245L49.0746 80.6545C49.0371 80.9356 49.199 81.6194 49.5898 82.9941L50.099 84.754C50.1605 84.9673 50.3928 85.0808 50.5989 84.9982L56.0239 82.8232L56.0444 82.8143C56.232 82.726 56.3135 82.5 56.2215 82.311L55.1614 80.1332L55.1696 80.1196C55.8646 78.9477 56.0771 77.9112 55.8629 77.1376C55.7628 76.776 55.5686 76.4914 55.3154 76.3435L55.2874 76.3278C55.0523 76.2024 54.789 76.2079 54.5835 76.3465L54.5643 76.36L54.5704 76.3199C54.6628 75.6867 54.5885 75.1643 54.3641 74.7741C54.0188 74.1737 53.2933 73.9768 52.9239 74.4598L52.9149 74.4723C52.9068 74.4838 52.8984 74.4965 52.8897 74.5104L52.8681 74.5459L52.8662 74.5276C52.8276 74.1938 52.7207 73.889 52.5548 73.6384C52.2056 73.1111 51.62 72.9058 51.1843 73.2957ZM54.9739 77.0193L54.9772 77.0223C55.0362 77.0791 55.0983 77.1869 55.14 77.3377C55.3034 77.9276 55.1016 78.8266 54.417 79.9127L54.404 79.935C54.3471 80.0407 54.3441 80.1679 54.3971 80.2768L55.3706 82.277L50.704 84.1479L50.4064 83.1218L50.3011 82.7532C50.1817 82.3318 50.0868 81.9841 50.0113 81.6888L49.9752 81.5453C49.8668 81.1084 49.8114 80.8029 49.8185 80.7497L49.8305 80.6583C50.0505 79.0954 51.375 74.1313 51.6843 73.8546C51.6953 73.8448 51.694 73.845 51.7159 73.8526C51.7768 73.874 51.8565 73.9424 51.9294 74.0525C52.1245 74.3471 52.1937 74.7988 52.0726 75.2903L52.0567 75.3517L51.1442 79.2267C51.0364 79.6847 51.6931 79.8783 51.8575 79.452L52.1091 78.7046L52.2325 78.3418C52.3562 77.9798 52.4803 77.6214 52.6013 77.2775L52.6921 77.0206L52.7724 76.7955C53.1051 75.8679 53.37 75.1918 53.487 74.971L53.5004 74.9464C53.5663 74.9643 53.6461 75.0302 53.7139 75.148C53.9388 75.5391 53.9245 76.2525 53.545 77.243L53.4233 77.5554C52.782 79.21 52.5793 79.978 52.6245 80.263C52.6298 80.2966 52.6386 80.3289 52.6521 80.3604C52.7775 80.653 53.1839 80.6639 53.3282 80.3882L53.3566 80.3269L53.5259 79.9545L53.591 79.8125C53.7581 79.4487 53.9276 79.0849 54.0916 78.74L54.2056 78.5015L54.3314 78.2414C54.61 77.6699 54.8312 77.2463 54.9609 77.04L54.9739 77.0193Z" fill="#971356"/>
<path fill-rule="evenodd" clip-rule="evenodd" d="M113.607 115.126L113.687 115.123C115.066 115.09 119.383 115.424 119.845 115.687C120.233 115.909 120.386 116.394 120.199 116.801C120.007 117.219 119.534 117.435 118.906 117.39L118.831 117.383C118.711 117.371 118.629 117.351 118.348 117.274L118.151 117.221C118.124 117.213 118.099 117.207 118.075 117.201C117.964 117.174 117.873 117.157 117.795 117.149C117.589 117.127 117.439 116.943 117.461 116.737C117.482 116.531 117.666 116.381 117.872 116.403C117.989 116.415 118.112 116.438 118.254 116.473L118.31 116.487C118.349 116.497 118.389 116.508 118.436 116.521L118.668 116.584C118.808 116.621 118.863 116.633 118.92 116.639L118.93 116.64C119.289 116.672 119.47 116.592 119.518 116.488C119.543 116.433 119.522 116.367 119.473 116.339C119.174 116.168 114.761 115.832 113.638 115.875C113.553 115.879 113.351 115.935 113.04 116.042L112.493 116.234C112.456 116.247 112.422 116.258 112.39 116.269C112.193 116.334 111.981 116.228 111.915 116.032C111.85 115.835 111.956 115.623 112.153 115.557L112.306 115.505L112.71 115.362L112.855 115.312C113.208 115.193 113.43 115.134 113.607 115.126Z" fill="#971356"/>
<path fill-rule="evenodd" clip-rule="evenodd" d="M110.554 121.726C110.505 121.745 110.454 121.753 110.402 121.75L110.362 121.747C109.712 121.69 107.387 121 105.601 120.326C105.407 120.253 105.31 120.037 105.383 119.843C105.456 119.649 105.672 119.552 105.866 119.625L106.106 119.714C107.726 120.311 109.737 120.906 110.345 120.991L110.369 120.994L114.226 119.537C114.34 119.494 114.468 119.509 114.569 119.577L114.59 119.593C115.405 120.231 116.104 120.466 116.579 120.388C116.635 120.379 116.683 120.366 116.722 120.351L116.735 120.346L116.657 120.29C116.47 120.158 116.182 119.972 115.824 119.751L115.665 119.653L115.603 119.615C115.346 119.458 115.074 119.294 114.799 119.132L114.398 118.896L114.233 118.8C113.946 118.634 114 118.203 114.321 118.114L114.351 118.107C114.356 118.106 114.361 118.105 114.368 118.104L114.38 118.103C114.62 118.075 115.217 118.295 116.547 118.973L116.782 119.093C117.562 119.501 118.137 119.578 118.458 119.436C118.504 119.415 118.539 119.393 118.563 119.371L118.569 119.364L118.504 119.325C118.422 119.277 118.308 119.214 118.17 119.142L118.038 119.073C117.816 118.959 117.548 118.827 117.241 118.678L116.941 118.534L116.639 118.391C116.384 118.27 116.12 118.147 115.854 118.025L115.394 117.813L115.129 117.692C114.7 117.498 114.948 116.859 115.386 116.99L115.407 116.997L118.482 118.072L118.494 118.076C118.883 118.227 119.252 118.215 119.497 118.088C119.555 118.058 119.597 118.026 119.622 117.998L119.631 117.987L119.626 117.983C119.447 117.854 118.555 117.453 117.439 117.021L117.27 116.955C116.093 116.505 114.851 116.081 114.321 115.946L114.264 115.932L114.24 115.932C114.21 115.933 114.17 115.937 114.122 115.942L114.025 115.954C113.919 115.969 113.789 115.99 113.635 116.018L113.4 116.061C113.108 116.117 112.76 116.188 112.262 116.293L110.963 116.567C110.705 116.62 110.561 116.648 110.376 116.682C110.285 116.699 110.192 116.681 110.114 116.633L110.093 116.62L108.655 115.607C108.486 115.488 108.445 115.254 108.564 115.085C108.679 114.922 108.9 114.878 109.067 114.981L109.087 114.994L110.395 115.915L110.603 115.875C110.718 115.852 110.855 115.824 111.043 115.784L112.554 115.466C113.773 115.212 114.206 115.145 114.417 115.197L114.472 115.21C115.01 115.343 116.265 115.77 117.473 116.23L117.816 116.362C119.215 116.906 120.07 117.304 120.265 117.572C120.567 118.001 120.331 118.501 119.842 118.754C119.66 118.848 119.452 118.907 119.23 118.927L119.213 118.929L119.226 118.944C119.52 119.32 119.291 119.871 118.79 120.108L118.762 120.122C118.45 120.26 118.063 120.287 117.615 120.198L117.551 120.184L117.553 120.193C117.596 120.362 117.562 120.545 117.455 120.703L117.437 120.728C117.284 120.936 117.02 121.076 116.7 121.128C116.049 121.235 115.23 120.984 114.345 120.347L114.297 120.312L110.554 121.726Z" fill="#971356"/>
<path fill-rule="evenodd" clip-rule="evenodd" d="M95.6676 88.2764C95.7336 88.0879 95.9349 87.9854 96.1245 88.0396L96.4274 88.1361C96.6307 88.2 96.8843 88.2791 96.9865 88.3115L97.3192 88.4179C97.8684 88.5947 98.5028 88.8052 99.2806 89.0705C101.503 89.8321 103 91.5044 103.735 93.8082C104.362 95.7745 104.398 98.127 103.899 100.362L103.874 100.472L103.868 100.497L101.484 108.337L109.687 114.106C109.848 114.219 109.893 114.435 109.796 114.602L109.783 114.621L104.333 122.759C104.236 122.905 104.051 122.962 103.889 122.901L103.857 122.887L103.606 122.771L103.396 122.673C103.024 122.498 102.609 122.299 102.163 122.078C100.886 121.448 99.6101 120.776 98.4175 120.089C98.1395 119.929 97.8691 119.77 97.607 119.612L97.4653 119.526L97.4699 119.587C97.5349 120.362 97.889 122.403 98.488 125.489L98.5272 125.691C98.5667 125.894 98.434 126.091 98.2307 126.131C98.0274 126.17 97.8306 126.038 97.791 125.834L97.6895 125.311C97.0682 122.094 96.7306 120.102 96.7101 119.436L96.7092 119.402L96.7069 119.384C96.6989 119.32 96.6937 119.258 96.6888 119.174L96.6742 118.878C96.6737 118.869 96.6731 118.86 96.6724 118.85C96.652 118.544 96.9883 118.344 97.2475 118.509C97.7282 118.814 98.2446 119.124 98.7916 119.439C99.969 120.117 101.232 120.782 102.495 121.406L102.713 121.513C103.037 121.672 103.341 121.818 103.623 121.951L103.888 122.076L108.956 114.508L100.831 108.794C100.705 108.706 100.647 108.55 100.682 108.402L100.688 108.379L103.147 100.291L103.168 100.196C103.63 98.1205 103.606 95.9422 103.05 94.1295L103.021 94.0361C102.354 91.9477 101.023 90.4603 99.038 89.7802L98.3965 89.5628C97.8466 89.3779 97.3757 89.2233 96.9553 89.0887L95.9358 88.7669C95.9186 88.7613 95.9056 88.757 95.8977 88.7542C95.7022 88.6858 95.5992 88.4718 95.6676 88.2764Z" fill="#971356"/>
<path fill-rule="evenodd" clip-rule="evenodd" d="M57.8294 81.2783C58.0217 81.1994 58.2398 81.2922 58.3181 81.4818L58.3259 81.5025L62.2558 92.8492L69.9898 86.9274L70.0589 86.8624C71.7349 85.2955 73.7864 84.2648 75.9535 83.7449L76.0619 83.7193C77.8037 83.3158 79.5244 83.2899 80.3157 83.5866C80.5097 83.6593 80.6079 83.8755 80.5352 84.0694C80.4651 84.2564 80.2616 84.3544 80.0732 84.296L80.0524 84.2889C79.4232 84.0529 77.8422 84.0767 76.2312 84.4499C74.1121 84.9409 72.1083 85.9451 70.4927 87.4843L70.4777 87.4978L70.462 87.5105L62.2995 93.7605C62.1027 93.9112 61.8187 93.8322 61.7254 93.607L61.7172 93.5855L57.7469 82.1224L48.7388 85.8139L55.0145 104.493L55.035 104.561C55.0462 104.597 55.0593 104.638 55.0744 104.683L55.0861 104.718C55.1442 104.89 55.2154 105.083 55.3 105.29C55.5418 105.884 55.8415 106.478 56.2009 107.029C56.8497 108.025 57.6178 108.769 58.5037 109.164C59.5604 109.635 60.7598 109.598 62.1387 108.946L62.1952 108.919L70.7834 103.938C71.0241 103.799 71.3248 103.961 71.3454 104.233L71.3465 104.255L71.3542 104.637C71.3891 106.512 71.3634 107.819 71.2278 109.308C71.034 111.437 70.6255 113.44 69.9374 115.376C67.7969 121.391 66.6955 127.714 66.684 134.068L66.6841 137.113C66.6841 137.32 66.5162 137.488 66.3091 137.488C66.1094 137.488 65.9461 137.332 65.9347 137.135L65.9341 137.113L65.9341 134.276C65.9215 127.767 67.0382 121.286 69.2307 115.125C69.8964 113.252 70.2925 111.309 70.4809 109.24C70.6015 107.916 70.6333 106.734 70.6122 105.139L70.6087 104.907L62.5597 109.575L62.5354 109.588C60.9333 110.365 59.4804 110.42 58.1985 109.849C57.1629 109.387 56.2937 108.546 55.5724 107.439C55.1848 106.844 54.8641 106.208 54.6054 105.573C54.5262 105.379 54.4577 105.196 54.3997 105.029L54.3755 104.958C54.3442 104.865 54.3214 104.793 54.3069 104.745L54.3009 104.724L47.9161 85.7197C47.8556 85.5395 47.9395 85.3439 48.1087 85.2625L48.1294 85.2533L57.8294 81.2783Z" fill="#971356"/>
<path fill-rule="evenodd" clip-rule="evenodd" d="M97.3458 94.3053C97.5432 94.2427 97.754 94.352 97.8166 94.5494L98.1319 95.5262C98.3858 96.3077 98.6931 97.2492 98.7757 97.5085L98.842 97.7175C99.1561 98.7124 99.3778 99.4886 99.5513 100.225C100.011 102.178 100.096 103.774 99.7483 105.321C99.2879 107.37 98.0518 109.312 95.842 111.356L95.7551 111.436L98.3523 124.766C98.3905 124.962 98.2684 125.152 98.0774 125.201L98.0559 125.206C97.8599 125.244 97.6698 125.122 97.6209 124.931L97.6161 124.909L94.9786 111.372C94.9534 111.243 94.9979 111.11 95.0959 111.021C97.3515 108.992 98.5767 107.115 99.0165 105.156C99.3359 103.734 99.2571 102.248 98.8212 100.397L98.7857 100.248C98.6162 99.5504 98.3987 98.8001 98.0941 97.8399L97.9043 97.2513C97.6629 96.5082 97.2449 95.2276 97.1017 94.7761C97.0391 94.5787 97.1484 94.3679 97.3458 94.3053Z" fill="#971356"/>
<path fill-rule="evenodd" clip-rule="evenodd" d="M70.9468 104.313L78.3218 99.7252Z" fill="white"/>
<path fill-rule="evenodd" clip-rule="evenodd" d="M78.1233 99.4068C78.2991 99.2975 78.5304 99.3513 78.6398 99.5272C78.7451 99.6965 78.699 99.9172 78.5384 100.031L78.5194 100.044L71.1444 104.631C70.9685 104.741 70.7373 104.687 70.6279 104.511C70.5226 104.341 70.5686 104.121 70.7292 104.007L70.7483 103.994L78.1233 99.4068Z" fill="#971356"/>
<path fill-rule="evenodd" clip-rule="evenodd" d="M61.863 93.1723C62.0303 93.0502 62.2648 93.0869 62.3869 93.2542L62.4494 93.3422C62.4588 93.3556 62.4689 93.3702 62.4798 93.386L62.5431 93.4785C62.5974 93.5587 62.6555 93.6464 62.7165 93.741C62.9604 94.1189 63.2042 94.5315 63.432 94.966C63.8244 95.7144 64.1282 96.4491 64.3089 97.1457C64.5427 98.0464 64.5609 98.8468 64.3104 99.5188C64.238 99.7128 64.022 99.8115 63.828 99.7391C63.6339 99.6668 63.5353 99.4508 63.6076 99.2567C63.7963 98.7508 63.7814 98.0989 63.583 97.334C63.4184 96.6998 63.1356 96.0158 62.7678 95.3143C62.5511 94.9011 62.3187 94.5077 62.0864 94.1477L61.9855 93.9936C61.9639 93.961 61.9428 93.9296 61.9224 93.8994L61.8123 93.7399C61.7986 93.7205 61.7881 93.7059 61.7811 93.6963C61.659 93.529 61.6957 93.2944 61.863 93.1723Z" fill="#971356"/>
<path fill-rule="evenodd" clip-rule="evenodd" d="M84.3005 78.0505C84.5001 78.0456 84.6672 78.1976 84.6834 78.3941L84.6846 78.4161L84.8596 85.5286C84.8658 85.781 84.6269 85.965 84.3873 85.9L84.3661 85.8936L80.8923 84.7357L80.8993 84.8065C81.1057 86.8627 81.6397 88.8501 82.4917 90.4979L82.5442 90.5983C83.6822 92.7475 85.3144 94.2185 87.4521 94.8403C90.5102 95.7312 92.6212 94.8216 93.9906 92.6415C94.4926 91.8423 94.8601 90.9146 95.0919 89.9743C95.1809 89.6134 95.2442 89.2702 95.2791 88.9827C95.2845 88.9378 95.2891 88.895 95.293 88.8549L95.2983 88.7925L92.6774 88.0097C92.5279 87.965 92.4224 87.8328 92.4108 87.6788L92.4097 87.6555L92.3597 84.043C92.3569 83.836 92.5224 83.6658 92.7295 83.6629C92.9292 83.6601 93.0946 83.814 93.1087 84.0106L93.1097 84.0327L93.1558 87.3697L95.7795 88.1535C95.8978 88.1889 95.9905 88.2799 96.0286 88.3961L96.0355 88.4197C96.097 88.6598 96.0086 89.3893 95.8201 90.1538C95.5703 91.1669 95.1739 92.1677 94.6257 93.0404C93.0847 95.4938 90.6357 96.5489 87.2425 95.5604C84.8957 94.8777 83.1088 93.2675 81.8814 90.9493C80.8571 89.0146 80.2612 86.6448 80.0981 84.2256C80.0806 83.9669 80.3237 83.7714 80.5697 83.8382L80.5908 83.8446L84.0966 85.0131L83.9348 78.4346C83.9299 78.2349 84.082 78.0679 84.2785 78.0516L84.3005 78.0505Z" fill="#971356"/>
<path fill-rule="evenodd" clip-rule="evenodd" d="M92.7212 83.8506L92.7712 87.5131C94.6837 88.0381 96.0212 88.4006 96.0212 88.4006V88.4006C96.1337 88.4381 96.3337 88.5006 96.7087 88.6131L97.4587 80.2881C96.3837 82.2006 94.7212 83.5256 92.7212 83.8506Z" fill="#971356"/>
<path fill-rule="evenodd" clip-rule="evenodd" d="M88.6585 62.0256L85.921 61.7756C81.0085 61.3381 76.671 64.9631 76.221 69.8756L73.146 85.1631C76.196 83.6256 79.271 83.6006 80.171 83.9381C80.7085 84.1381 82.3835 84.6256 84.4585 85.2131L84.271 77.9131C84.196 77.7256 84.121 77.5381 84.0585 77.3506C83.2585 77.9756 82.121 78.1131 81.1085 77.6256C79.721 76.9506 79.1085 75.3256 79.7585 74.0131C79.9585 73.6006 80.246 73.2756 80.6085 73.0256V73.0256C80.621 73.0256 80.621 73.0131 80.6335 73.0131C80.6835 72.9756 80.746 72.9381 80.796 72.9131C80.821 72.9006 80.8335 72.8881 80.8585 72.8756C80.9085 72.8506 80.971 72.8131 81.0335 72.7881C81.046 72.7881 81.0585 72.7756 81.071 72.7756C81.146 72.7506 81.221 72.7131 81.296 72.6881C81.3085 72.6881 81.321 72.6756 81.3335 72.6756C81.396 72.6506 81.471 72.6381 81.546 72.6131C81.5585 72.6131 81.5585 72.6131 81.571 72.6131C81.7335 72.5756 81.9085 72.5506 82.071 72.5506C82.071 72.5506 82.071 72.5506 82.0835 72.5506C82.521 72.5381 82.971 72.6256 83.4085 72.8256V72.8256C83.421 72.8381 83.446 72.8381 83.4585 72.8506C83.5085 72.8756 83.5585 72.9006 83.596 72.9256C87.321 71.4131 87.396 66.0756 87.396 65.5756C88.221 66.2381 88.9085 66.9631 88.971 68.2756L97.1585 68.8506C97.7335 69.8506 98.171 70.9756 98.446 72.1881C98.8585 72.0506 99.3085 72.0256 99.7585 72.1131C99.871 71.1881 99.721 70.1131 99.3335 69.0006L102.233 69.2006C102.246 69.2131 104.971 59.4381 88.6585 62.0256Z" fill="#971356"/>
<path fill-rule="evenodd" clip-rule="evenodd" d="M80.8106 77.626C80.8863 77.4333 81.104 77.3384 81.2967 77.4141C81.4895 77.4899 81.5844 77.7075 81.5086 77.9003C81.2508 78.5565 81.1682 79.4077 81.293 80.2704C81.5677 82.1134 82.666 83.436 83.6779 83.3158C83.8835 83.2913 84.0701 83.4383 84.0945 83.6439C84.1189 83.8496 83.972 84.0361 83.7664 84.0605C82.2605 84.2395 80.8782 82.5747 80.551 80.3794C80.4079 79.3906 80.5033 78.4083 80.8106 77.626Z" fill="#89CAC6"/>
<path fill-rule="evenodd" clip-rule="evenodd" d="M97.8536 79.0395C98.06 79.0223 98.2413 79.1756 98.2585 79.382L98.2721 79.5347C98.2797 79.6131 98.2873 79.6759 98.2969 79.7398L98.3232 79.9053C98.6243 81.6907 99.6989 82.9586 100.691 82.8408C100.896 82.8164 101.083 82.9633 101.107 83.1689C101.132 83.3746 100.985 83.5611 100.779 83.5855C99.2883 83.7627 97.9186 82.1328 97.575 79.9778L97.5547 79.8482C97.5372 79.7321 97.5257 79.6201 97.5111 79.4443C97.4939 79.2379 97.6473 79.0567 97.8536 79.0395Z" fill="#89CAC6"/>
<path fill-rule="evenodd" clip-rule="evenodd" d="M79.434 73.8602C80.1483 72.403 81.9255 71.7903 83.4692 72.4559C83.6594 72.5379 83.7471 72.7586 83.665 72.9487C83.583 73.1389 83.3624 73.2266 83.1722 73.1446C81.9894 72.6346 80.6424 73.0989 80.1067 74.1917C79.5524 75.311 80.0779 76.7134 81.281 77.2988C82.0721 77.6729 82.9754 77.625 83.6585 77.1953C83.8338 77.0851 84.0653 77.1378 84.1756 77.3131C84.2859 77.4884 84.2332 77.7199 84.0579 77.8302C83.1562 78.3974 81.9813 78.4596 80.9566 77.975C79.3841 77.2099 78.691 75.3604 79.434 73.8602Z" fill="#971356"/>
<path fill-rule="evenodd" clip-rule="evenodd" d="M98.3268 71.832C99.0366 71.5954 99.8227 71.6405 100.535 71.976C101.943 72.6653 102.561 74.3114 101.907 75.6771C101.331 76.8586 99.9635 77.4374 98.669 77.0738C98.4696 77.0177 98.3534 76.8107 98.4094 76.6113C98.4654 76.4119 98.6724 76.2957 98.8718 76.3517C99.8237 76.6191 100.819 76.1979 101.232 75.3508C101.703 74.3666 101.251 73.1614 100.211 72.652C99.6782 72.4014 99.0913 72.3677 98.564 72.5435C98.3675 72.609 98.1552 72.5028 98.0897 72.3063C98.0242 72.1098 98.1304 71.8975 98.3268 71.832Z" fill="#971356"/>
<path fill-rule="evenodd" clip-rule="evenodd" d="M90.0129 63.9509C94.4356 63.6877 98.4633 68.0285 99.0705 73.6232C99.6659 79.2272 96.5985 84.0221 92.1571 84.2996C88.6561 84.5048 85.3273 81.824 83.827 77.7626L83.7821 77.6391C83.4456 76.6945 83.215 75.6781 83.0997 74.6274C82.5044 69.0233 85.5718 64.2285 90.0129 63.9509ZM98.3247 73.7032C97.757 68.4735 94.0357 64.4628 90.0584 64.6995C86.0955 64.9472 83.2911 69.3309 83.8452 74.5469C83.9492 75.4939 84.1522 76.4111 84.4457 77.2653L84.4887 77.3885L84.5298 77.5013C85.91 81.2392 88.9134 83.6851 92.0166 83.5558L92.1116 83.551C96.0745 83.3033 98.8788 78.9196 98.3247 73.7032Z" fill="#971356"/>
<path fill-rule="evenodd" clip-rule="evenodd" d="M92.5788 71.8872C92.7723 71.8378 92.9691 71.9486 93.0289 72.1365L93.0349 72.1577L94.0729 76.2221C94.1666 76.597 93.894 76.9714 93.5187 76.9874L92.006 77.0254C91.799 77.0306 91.6269 76.867 91.6217 76.66C91.6167 76.4603 91.7686 76.2932 91.9651 76.2768L91.9871 76.2756L93.304 76.2425L92.3082 72.3433C92.2588 72.1498 92.3697 71.953 92.5576 71.8932L92.5788 71.8872Z" fill="#971356"/>
<path fill-rule="evenodd" clip-rule="evenodd" d="M88.1608 69.6214C88.7551 69.2899 89.3838 69.1688 89.9934 69.4051C90.2083 69.4885 90.411 69.615 90.5986 69.7855C90.7519 69.9248 90.7632 70.162 90.6239 70.3153C90.4846 70.4685 90.2474 70.4798 90.0941 70.3405C89.974 70.2313 89.8502 70.154 89.7223 70.1044C89.3584 69.9633 88.9444 70.0431 88.5262 70.2764C88.4277 70.3313 88.3376 70.3903 88.2586 70.4489L88.2139 70.4829C88.2054 70.4895 88.198 70.4954 88.1916 70.5006L88.1702 70.5186C88.0152 70.656 87.7782 70.6418 87.6408 70.4868C87.5034 70.3319 87.5176 70.0949 87.6726 69.9574C87.7729 69.8685 87.9402 69.7445 88.1608 69.6214Z" fill="#971356"/>
<path fill-rule="evenodd" clip-rule="evenodd" d="M94.1135 69.4744C94.5121 69.3845 94.9273 69.3593 95.3277 69.4412C95.888 69.5559 96.3444 69.8713 96.6288 70.4139C96.725 70.5973 96.6542 70.8239 96.4708 70.9201C96.2942 71.0127 96.0775 70.9505 95.9758 70.782L95.9646 70.7621C95.7902 70.4296 95.5268 70.2475 95.1774 70.176C94.8962 70.1185 94.5821 70.1375 94.2784 70.206C94.2291 70.2171 94.1836 70.2288 94.1427 70.2405L94.072 70.2621L94.0621 70.2655C93.8674 70.3361 93.6523 70.2356 93.5817 70.0409C93.511 69.8463 93.6116 69.6312 93.8062 69.5605C93.8704 69.5372 93.9759 69.5054 94.1135 69.4744Z" fill="#971356"/>
<path fill-rule="evenodd" clip-rule="evenodd" d="M91.0893 74.0081C91.1091 73.5183 90.8567 73.1105 90.5256 73.0971C90.1945 73.0837 89.91 73.4699 89.8903 73.9597C89.8705 74.4495 90.1229 74.8573 90.454 74.8707C90.7851 74.884 91.0695 74.4978 91.0893 74.0081Z" fill="#971356"/>
<path fill-rule="evenodd" clip-rule="evenodd" d="M95.5513 74.9879C95.8751 74.967 96.1119 74.5535 96.0803 74.0644C96.0487 73.5753 95.7606 73.1957 95.4369 73.2166C95.1131 73.2376 94.8762 73.651 94.9078 74.1402C94.9394 74.6293 95.2275 75.0088 95.5513 74.9879Z" fill="#971356"/>
<path fill-rule="evenodd" clip-rule="evenodd" d="M88.3474 77.0991C88.4116 79.2383 89.1921 80.3106 90.462 80.423C90.9402 80.4654 91.4353 80.3639 91.9213 80.1712C92.1649 80.0746 92.3537 79.9772 92.467 79.9083C92.6979 79.7679 92.709 79.4368 92.4881 79.2813L88.9381 76.7813C88.6854 76.6033 88.3381 76.7903 88.3474 77.0991ZM89.1582 77.8536L91.5237 79.5195C91.1774 79.6427 90.8358 79.7032 90.528 79.676C89.8381 79.6149 89.3566 79.116 89.1738 77.9586L89.1582 77.8536Z" fill="#971356"/>
<path fill-rule="evenodd" clip-rule="evenodd" d="M99.8669 75.2546C101.353 75.0361 102.573 76.7783 102.917 79.121C103.244 81.3396 102.363 83.3599 100.838 83.5841L100.811 83.5871L100.784 83.5881H100.734C100.527 83.5881 100.359 83.4202 100.359 83.2131C100.359 83.0134 100.515 82.8501 100.712 82.8387L100.734 82.8381L100.754 82.838L100.76 82.8372C101.755 82.6615 102.433 81.1043 102.183 79.286L102.175 79.2302C101.883 77.2446 100.913 75.8588 99.976 75.9966C99.7711 76.0267 99.5806 75.8851 99.5504 75.6802C99.5203 75.4753 99.662 75.2847 99.8669 75.2546Z" fill="#89CAC6"/>
<path fill-rule="evenodd" clip-rule="evenodd" d="M82.6296 75.9296C84.157 75.705 85.5792 77.3816 85.9051 79.6085C86.2318 81.8271 85.3512 83.8474 83.8262 84.0716L83.799 84.0746L83.7716 84.0756H83.7216C83.5145 84.0756 83.3466 83.9077 83.3466 83.7006C83.3466 83.5009 83.5027 83.3377 83.6996 83.3263L83.7216 83.3256L83.7421 83.3255L83.7476 83.3247C84.743 83.149 85.4206 81.5918 85.171 79.7732L85.1631 79.7174C84.8895 77.8483 83.7635 76.5209 82.7387 76.6716C82.5338 76.7018 82.3433 76.5601 82.3131 76.3552C82.283 76.1503 82.4247 75.9597 82.6296 75.9296Z" fill="#89CAC6"/>
<path fill-rule="evenodd" clip-rule="evenodd" d="M168.175 71.8752C163.253 71.8752 159.263 75.8655 159.263 80.7877C159.263 85.71 163.253 89.7002 168.175 89.7002C173.097 89.7002 177.088 85.71 177.088 80.7877C177.088 75.8655 173.097 71.8752 168.175 71.8752ZM168.175 72.6252C172.683 72.6252 176.338 76.2797 176.338 80.7877C176.338 85.2958 172.683 88.9502 168.175 88.9502C163.667 88.9502 160.013 85.2958 160.013 80.7877C160.013 76.2797 163.667 72.6252 168.175 72.6252Z" fill="#89CAC6"/>
<path fill-rule="evenodd" clip-rule="evenodd" d="M171.75 75.316C171.866 75.1442 172.099 75.0985 172.271 75.214C172.436 75.3253 172.485 75.5455 172.385 75.7151L172.373 75.7345L168.835 80.997C168.729 81.1547 168.523 81.2072 168.356 81.1228L168.335 81.1115L164.185 78.6865C164.006 78.582 163.946 78.3524 164.05 78.1736C164.151 78.0014 164.368 77.9391 164.543 78.028L164.563 78.039L168.409 80.2862L171.75 75.316Z" fill="#89CAC6"/>
<path fill-rule="evenodd" clip-rule="evenodd" d="M200.96 149.425C201.167 149.425 201.335 149.593 201.335 149.8C201.335 150 201.179 150.163 200.982 150.175L200.96 150.175H10.5479C10.3407 150.175 10.1729 150.007 10.1729 149.8C10.1729 149.601 10.329 149.437 10.5258 149.426L10.5479 149.425H200.96Z" fill="#971356"/>
<path fill-rule="evenodd" clip-rule="evenodd" d="M119.122 147.275L118.822 147.313C118.022 147.575 116.11 148.138 116.11 148.138C114.322 148.938 114.397 148.088 114.947 147.438C114.86 147.525 114.785 147.6 114.71 147.688C114.085 148.25 113.122 148.038 112.96 147.825C112.81 147.613 113.472 147.013 114.36 146.05L114.285 146.088C112.785 147.813 111.01 148.313 111.26 147.2C111.285 147.063 111.685 146.588 112.247 146H110.76L106.135 125.725C106.035 125.288 105.66 124.975 105.222 124.975H70.7475C70.135 124.975 69.6975 125.563 69.835 126.175L72.66 138.563H73.41C73.6975 138.563 73.935 138.8 73.935 139.088V140.9C73.935 141.188 73.6975 141.425 73.41 141.425H73.31L74.9975 148.838C75.0975 149.275 75.4725 149.588 75.91 149.588C75.91 149.588 121.66 149.588 123.635 149.588C125.635 149.588 126.422 148.65 126.735 147.738C122.172 147.613 119.122 147.275 119.122 147.275ZM76.5723 148.063C75.8098 148.063 75.1973 147.425 75.1973 146.638C75.1973 145.85 75.8098 145.213 76.5723 145.213C77.3348 145.213 77.9473 145.85 77.9473 146.638C77.9473 147.425 77.3348 148.063 76.5723 148.063ZM80.9849 141.413C80.2224 141.413 79.6099 140.775 79.6099 139.988C79.6099 139.2 80.2224 138.563 80.9849 138.563C81.7474 138.563 82.3599 139.2 82.3599 139.988C82.3599 140.775 81.7349 141.413 80.9849 141.413Z" fill="#89CAC6"/>
<path fill-rule="evenodd" clip-rule="evenodd" d="M149.479 127.25L149.497 127.25C149.509 127.25 149.52 127.252 149.549 127.257L149.596 127.267L149.626 127.278L149.682 127.306L149.776 127.389L149.85 127.54L149.853 127.574L149.856 127.574C150.669 133.445 150.604 140.514 149.806 143.311L149.781 143.394C149.302 145.004 147.561 146.46 145.827 146.781C145.092 146.916 144.345 147.04 143.585 147.153C136.591 148.198 129.165 148.315 122.313 147.884L122.043 147.866C121.228 147.813 120.499 147.756 119.865 147.699L119.586 147.673L119.159 147.631L119.125 147.627L118.904 147.655L118.641 147.739C118.544 147.77 118.438 147.803 118.323 147.839L117.747 148.015L117.305 148.148L116.456 148.401L116.239 148.465L116.205 148.48C115.723 148.693 115.338 148.805 115.039 148.816L115.003 148.817C114.638 148.821 114.356 148.661 114.26 148.36L114.253 148.337L114.248 148.339C113.631 148.508 112.947 148.39 112.682 148.051L112.674 148.04C112.644 148.002 112.622 147.962 112.605 147.922L112.598 147.904L112.55 147.927C112.462 147.968 112.375 148.003 112.29 148.033L112.239 148.051C111.37 148.342 110.696 147.984 110.892 147.112C111.027 146.455 114.805 142.772 116.046 142.175C116.895 141.765 117.921 141.414 119.098 141.159L119.22 141.133L119.233 141.131L119.883 141.018L119.902 141.015L138.92 138.71L138.049 130.992C138.03 130.82 138.131 130.657 138.292 130.598L148.108 127.642L149.319 127.282L149.392 127.261L149.425 127.255L149.443 127.252C149.45 127.252 149.46 127.251 149.479 127.25ZM111.62 147.294C111.613 147.334 111.61 147.365 111.611 147.387L111.611 147.401L111.62 147.403C111.681 147.414 111.803 147.402 111.97 147.35L112.001 147.34C112.586 147.144 113.346 146.589 114 145.83C114.037 145.788 114.081 145.756 114.128 145.734L114.138 145.73L114.147 145.72C114.391 145.456 114.682 145.222 115.009 145.015L115.079 144.971C115.441 144.751 115.826 144.573 116.211 144.435L116.296 144.405C116.488 144.338 116.64 144.295 116.736 144.272C116.938 144.225 117.14 144.35 117.187 144.552C117.234 144.753 117.109 144.955 116.908 145.003L116.89 145.007C116.869 145.012 116.836 145.021 116.793 145.034C116.695 145.062 116.585 145.097 116.465 145.14C116.125 145.263 115.785 145.419 115.47 145.612C115.17 145.795 114.909 146.001 114.699 146.228L114.355 146.597C114.055 146.918 113.674 147.324 113.576 147.436L113.52 147.501C113.494 147.532 113.47 147.561 113.449 147.588L113.417 147.628L113.444 147.635C113.504 147.649 113.57 147.658 113.639 147.662L113.681 147.664C113.969 147.674 114.239 147.594 114.44 147.424L114.449 147.416L114.459 147.403C114.494 147.359 114.531 147.317 114.571 147.274L114.605 147.238L114.608 147.234C114.704 147.113 114.814 146.998 114.933 146.893L114.966 146.865C115.642 146.288 117.232 145.63 117.76 145.577C118.203 145.532 118.335 146.156 117.927 146.302L117.771 146.352L117.657 146.391C117.578 146.418 117.493 146.449 117.405 146.482C117.025 146.623 116.646 146.786 116.294 146.967C115.829 147.206 115.452 147.457 115.195 147.708L115.182 147.721L115.166 147.742C115.075 147.863 115.012 147.978 114.986 148.056L114.983 148.067L114.994 148.067C115.173 148.065 115.464 147.984 115.859 147.813L115.955 147.771L115.979 147.761L116.038 147.743L116.48 147.612L117.089 147.43L117.79 147.218C118.176 147.1 118.488 147.002 118.705 146.931C118.72 146.926 118.736 146.922 118.752 146.919L118.775 146.915L119.075 146.878C119.095 146.875 119.114 146.875 119.134 146.875L119.169 146.878L119.359 146.898L119.593 146.921C119.677 146.929 119.766 146.937 119.861 146.946L120.254 146.98C120.804 147.027 121.418 147.074 122.092 147.118C128.969 147.567 136.449 147.461 143.475 146.411C144.226 146.299 144.965 146.177 145.691 146.044C147.157 145.772 148.667 144.51 149.063 143.18C149.824 140.643 149.916 133.93 149.183 128.205L149.171 128.107L143.786 129.725L138.83 131.219L139.707 138.995C139.729 139.193 139.594 139.372 139.401 139.406L139.38 139.41L120.002 141.758L119.367 141.868L119.258 141.892C118.176 142.126 117.234 142.443 116.455 142.811L116.372 142.85C115.833 143.11 114.734 144.031 113.542 145.193L113.394 145.338C112.956 145.77 112.544 146.198 112.22 146.557L112.166 146.616C112 146.802 111.863 146.963 111.764 147.09L111.741 147.119C111.7 147.172 111.668 147.217 111.644 147.253L111.625 147.283C111.624 147.285 111.623 147.285 111.623 147.281L111.624 147.275L111.62 147.294Z" fill="#971356"/>
<path fill-rule="evenodd" clip-rule="evenodd" d="M84.0725 136.3H57.3475C57.0225 136.3 56.7475 136.563 56.7475 136.9V142.325C56.7475 142.538 56.86 142.725 57.0225 142.825H52.935C52.61 142.825 52.335 143.088 52.335 143.425V149.1C52.335 149.425 52.5975 149.7 52.935 149.7H79.66C79.985 149.7 80.26 149.438 80.26 149.1V143.425C80.26 143.213 80.1475 143.025 79.985 142.925H84.0725C84.3975 142.925 84.6725 142.663 84.6725 142.325V136.9C84.6725 136.575 84.41 136.3 84.0725 136.3ZM58.8099 139.075C58.8099 138.788 59.0474 138.55 59.3349 138.55H73.4099C73.6974 138.55 73.9349 138.788 73.9349 139.075V140.888C73.9349 141.175 73.6974 141.413 73.4099 141.413H59.3224C59.0349 141.413 58.7974 141.175 58.7974 140.888V139.075H58.8099ZM76.5723 148.063C75.8098 148.063 75.1973 147.425 75.1973 146.638C75.1973 145.85 75.8098 145.213 76.5723 145.213C77.3348 145.213 77.9473 145.85 77.9473 146.638C77.9473 147.425 77.3348 148.063 76.5723 148.063ZM80.9849 141.413C80.2224 141.413 79.6099 140.775 79.6099 139.988C79.6099 139.2 80.2224 138.563 80.9849 138.563C81.7474 138.563 82.3599 139.2 82.3599 139.988C82.3599 140.775 81.7349 141.413 80.9849 141.413ZM69.5225 147.425C69.5225 147.713 69.285 147.95 68.9975 147.95H54.9225C54.635 147.95 54.3975 147.713 54.3975 147.425V145.613C54.3975 145.325 54.635 145.088 54.9225 145.088H68.9975C69.285 145.088 69.5225 145.325 69.5225 145.613V147.425Z" fill="#971356"/>
</svg>
