<svg width="255" height="83" viewBox="0 0 255 83" fill="none" xmlns="http://www.w3.org/2000/svg">
<path fill-rule="evenodd" clip-rule="evenodd" d="M175.315 37.8545C175.407 37.6449 175.652 37.5496 175.862 37.6417C176.064 37.7305 176.16 37.9611 176.084 38.1655L176.074 38.1881L174.694 41.3309C174.602 41.5406 174.357 41.6359 174.147 41.5438C173.945 41.455 173.849 41.2243 173.925 41.02L173.935 40.9974L175.315 37.8545Z" fill="#89CAC6"/>
<path fill-rule="evenodd" clip-rule="evenodd" d="M174.15 45.077C174.377 45.1099 174.534 45.3203 174.501 45.5469L172.378 60.1969C172.345 60.4235 172.135 60.5806 171.908 60.5478C171.682 60.5149 171.525 60.3046 171.558 60.078L173.68 45.4277C173.713 45.2011 173.924 45.0441 174.15 45.077Z" fill="#89CAC6"/>
<path fill-rule="evenodd" clip-rule="evenodd" d="M182.257 47.3674C182.474 47.4395 182.592 47.6742 182.52 47.8915L177.603 62.7063L176.812 65.1119L176.671 65.5472C176.651 65.609 176.631 65.6703 176.611 65.7308L176.55 65.9107C176.54 65.9403 176.53 65.9698 176.52 65.9992L176.459 66.1733L176.398 66.3437C176.388 66.3718 176.378 66.3998 176.368 66.4275L176.306 66.5923C176.296 66.6195 176.285 66.6465 176.275 66.6733L176.213 66.8326C176.202 66.8588 176.192 66.8849 176.181 66.9109L176.118 67.0646C175.991 67.3686 175.86 67.6507 175.723 67.912L175.654 68.041C175.123 69.0161 174.503 69.6869 173.691 70.1035C173.488 70.2081 173.238 70.1277 173.133 69.924C173.029 69.7203 173.109 69.4704 173.313 69.3658C174.154 68.9341 174.78 68.0972 175.343 66.7642L175.404 66.6168L175.465 66.4654C175.475 66.4399 175.485 66.4141 175.495 66.3882L175.555 66.2309L175.615 66.0695C175.635 66.015 175.655 65.9599 175.675 65.9041L175.734 65.7345C175.744 65.7059 175.754 65.6772 175.764 65.6482L175.822 65.4725L176.221 64.2523L177.296 60.9955L181.733 47.6302C181.805 47.4129 182.04 47.2952 182.257 47.3674Z" fill="#89CAC6"/>
<path fill-rule="evenodd" clip-rule="evenodd" d="M166.287 22.0199C167.901 17.0106 173.27 14.2581 178.279 15.8719C183.239 17.4697 185.986 22.7479 184.471 27.7245L184.424 27.8752L180.287 39.5898C180.215 39.7937 180 39.9067 179.793 39.8532L179.769 39.8463L175.534 38.4808C175.324 38.413 175.205 38.1931 175.26 37.982L175.267 37.9586L176.413 34.4172L176.299 34.4296C176.087 34.4509 175.874 34.4649 175.66 34.4716L175.5 34.4753L175.367 34.4762C174.371 34.4749 173.382 34.3185 172.435 34.0126C167.475 32.4146 164.728 27.1362 166.24 22.1703L166.287 22.0199ZM178.025 16.6612C173.452 15.1878 168.55 17.7008 167.076 22.2742C165.603 26.8476 168.116 31.7496 172.689 33.2234C173.555 33.5029 174.459 33.6458 175.368 33.6469C175.894 33.647 176.42 33.598 176.937 33.5007C177.238 33.444 177.492 33.722 177.415 34.0134L177.408 34.0358L176.184 37.8189L179.64 38.9333L183.639 27.61C185.083 23.1275 182.697 18.3296 178.296 16.7532L178.162 16.7065L178.025 16.6612ZM175.355 20.6648L175.423 20.6655C176.764 20.6863 178.019 21.3354 178.811 22.4211C179.588 23.4856 179.83 24.8473 179.47 26.1149L179.45 26.1816L179.429 26.2489C178.718 28.4509 176.389 29.6794 174.181 29.045L174.139 29.0324L174.115 29.03C174.098 29.0279 174.082 29.0247 174.065 29.0205L174.041 29.0135C172.037 28.3668 170.801 26.3575 171.129 24.2771C171.453 22.2175 173.214 20.695 175.293 20.6654L175.355 20.6648ZM175.355 21.4942C173.657 21.4937 172.211 22.729 171.947 24.4061C171.689 26.0479 172.638 27.6348 174.194 28.1899L174.213 28.1966L174.227 28.198C174.243 28.2002 174.26 28.2033 174.276 28.2075L174.3 28.2146C176.094 28.7935 178.015 27.8249 178.62 26.0522L178.638 25.9983L178.656 25.9386C178.969 24.9044 178.778 23.7831 178.141 22.9099C177.491 22.0201 176.456 21.4941 175.355 21.4942Z" fill="#89CAC6"/>
<path fill-rule="evenodd" clip-rule="evenodd" d="M189.157 21.6388C192.585 20.2931 196.482 21.0433 199.165 23.5656C201.822 26.0627 202.819 29.854 201.74 33.3321L201.707 33.4374L201.68 33.5202C200.771 36.2543 198.673 38.4306 195.973 39.439C193.358 40.4156 190.452 40.1946 188.021 38.8475L187.941 38.8027L187.878 38.7662L182.598 40.6683C182.531 40.6925 182.459 40.6988 182.389 40.6872L182.359 40.6811L182.33 40.6728L180.282 40.0122C180.072 39.9444 179.953 39.7248 180.008 39.5138L180.014 39.4904L183.135 29.8074L183.14 29.7493C183.424 26.1939 185.67 23.0972 188.954 21.7209L189.054 21.6797L189.157 21.6388ZM198.597 24.1698C196.147 21.867 192.589 21.1821 189.46 22.4107C186.33 23.6393 184.188 26.5614 183.959 29.9159C183.957 29.9384 183.954 29.9606 183.949 29.9824L183.94 30.0149L180.931 39.3501L182.45 39.8401L187.78 37.92C187.88 37.8842 187.988 37.8879 188.084 37.9292L188.11 37.9414L188.135 37.9554C190.411 39.3323 193.191 39.5926 195.682 38.6621C198.121 37.7513 200.022 35.7967 200.866 33.3398L200.892 33.2603L200.918 33.181C201.951 29.9811 201.047 26.4727 198.597 24.1698ZM193.954 26.4417C196.198 27.1716 197.429 29.5782 196.708 31.8249C196.178 33.4765 194.705 34.6456 192.976 34.7864C191.248 34.9272 189.604 34.0117 188.814 32.4676C188.024 30.9235 188.243 29.0554 189.369 27.7357C190.494 26.416 192.305 25.9052 193.954 26.4417ZM190 28.2739C189.092 29.3382 188.916 30.8447 189.553 32.09C190.19 33.3352 191.515 34.0735 192.909 33.9599C194.304 33.8464 195.492 32.9035 195.919 31.5716C196.5 29.7598 195.507 27.819 193.698 27.2304C192.368 26.7977 190.908 27.2097 190 28.2739Z" fill="#89CAC6"/>
<path fill-rule="evenodd" clip-rule="evenodd" d="M182.322 46.6931C182.524 46.8011 182.6 47.0523 182.492 47.2543L177.525 56.5537L173.197 64.6773C173.089 64.8795 172.838 64.9563 172.636 64.8488C172.434 64.7413 172.357 64.4903 172.464 64.2881L175.135 59.2729L179.007 52.016L181.761 46.8632C181.869 46.6613 182.12 46.5851 182.322 46.6931Z" fill="#89CAC6"/>
<path fill-rule="evenodd" clip-rule="evenodd" d="M173.242 45.1872C173.312 44.9693 173.546 44.8497 173.764 44.92C173.974 44.9878 174.093 45.2075 174.038 45.4185L174.031 45.4419L171.405 53.5796C171.335 53.7976 171.101 53.9172 170.883 53.8469C170.673 53.7791 170.554 53.5594 170.609 53.3484L170.616 53.325L173.242 45.1872Z" fill="#89CAC6"/>
<path fill-rule="evenodd" clip-rule="evenodd" d="M180.382 39.1489C180.475 38.9618 180.691 38.8739 180.886 38.9401L180.91 38.9488L182.885 39.7518C183.097 39.8381 183.199 40.0799 183.113 40.2921C183.029 40.4966 182.802 40.5988 182.595 40.5285L182.572 40.52L180.908 39.8433L180.895 39.8592C180.427 40.4317 179.478 41.1473 178.486 41.615L178.422 41.6446C178.214 41.7402 177.968 41.6491 177.872 41.4411C177.777 41.233 177.868 40.9868 178.076 40.8911C178.171 40.8472 178.267 40.8005 178.361 40.7516L178.474 40.6919L178.586 40.6303C178.623 40.6095 178.659 40.5884 178.696 40.567L178.805 40.5022L178.912 40.4361C178.93 40.425 178.948 40.4138 178.965 40.4026L179.07 40.335C179.139 40.2896 179.206 40.2438 179.272 40.1977L179.369 40.1285C179.512 40.0245 179.646 39.9201 179.766 39.8185L179.845 39.7513C179.87 39.729 179.895 39.707 179.919 39.6851L179.989 39.6201C180.001 39.6094 180.012 39.5988 180.023 39.5882L180.086 39.5256C180.218 39.3917 180.316 39.2704 180.37 39.1714L180.382 39.1489Z" fill="#89CAC6"/>
<path fill-rule="evenodd" clip-rule="evenodd" d="M175.742 44.8864C175.97 44.8664 176.171 45.0352 176.191 45.2633C176.255 46.004 176.833 46.5963 177.572 46.6793C178.311 46.7623 179.006 46.313 179.234 45.6048C179.255 45.5383 179.272 45.4705 179.284 45.4018L179.292 45.3501C179.325 45.1234 179.535 44.9658 179.761 44.9981C179.988 45.0305 180.146 45.2404 180.113 45.4671C180.094 45.6002 180.064 45.7314 180.023 45.8589C179.675 46.9425 178.611 47.6305 177.48 47.5034C176.348 47.3763 175.464 46.4695 175.365 45.3355C175.345 45.1074 175.513 44.9063 175.742 44.8864Z" fill="#89CAC6"/>
<path fill-rule="evenodd" clip-rule="evenodd" d="M183.133 34.4362L183.157 34.4373L187.952 34.7911C188.172 34.8074 188.34 34.9932 188.336 35.2114L188.335 35.2357L187.873 41.3667C187.856 41.595 187.657 41.7662 187.429 41.749C187.208 41.7324 187.041 41.5468 187.045 41.3288L187.046 41.3044L187.477 35.5875L183.509 35.2946L183.052 41.3667C183.036 41.5869 182.85 41.7539 182.632 41.7501L182.608 41.749C182.388 41.7324 182.221 41.5468 182.224 41.3288L182.226 41.3044L182.713 34.8197C182.73 34.5997 182.915 34.4328 183.133 34.4362Z" fill="#89CAC6"/>
<path fill-rule="evenodd" clip-rule="evenodd" d="M182.373 44.8817C182.593 44.8983 182.76 45.084 182.757 45.302L182.755 45.3263L180.756 71.8956C180.738 72.1239 180.539 72.2951 180.311 72.2779C180.091 72.2613 179.924 72.0757 179.928 71.8577L179.929 71.8333L181.929 45.2641C181.945 45.0439 182.131 44.8769 182.349 44.8806L182.373 44.8817Z" fill="#89CAC6"/>
<path fill-rule="evenodd" clip-rule="evenodd" d="M187.092 44.9992C187.312 45.0158 187.479 45.2014 187.476 45.4194L187.474 45.4438L185.491 71.8209C185.474 72.0493 185.275 72.2205 185.047 72.2033C184.826 72.1867 184.659 72.0011 184.663 71.7831L184.664 71.7587L186.648 45.3816C186.664 45.1614 186.85 44.9944 187.068 44.9981L187.092 44.9992Z" fill="#89CAC6"/>
<path fill-rule="evenodd" clip-rule="evenodd" d="M182.459 36.9543L188.174 37.3841L189.398 21.1156C189.756 16.3488 188.958 15.3509 186.853 15.192C184.748 15.033 183.979 16.7468 183.62 21.515L182.459 36.9543Z" fill="#89CAC6"/>
<path fill-rule="evenodd" clip-rule="evenodd" d="M186.549 18.6445L186.574 18.6456L190.116 18.9123C190.981 18.9768 191.502 19.5608 191.669 20.7352L191.683 20.8373C191.685 20.8546 191.687 20.872 191.689 20.8895L191.7 20.9959C191.713 21.1398 191.722 21.2915 191.726 21.4511L191.728 21.5722C191.728 21.6131 191.728 21.6545 191.728 21.6963L191.727 21.8234C191.726 21.8449 191.726 21.8664 191.725 21.8881L191.722 22.0197L191.716 22.1543C191.715 22.1769 191.714 22.1997 191.712 22.2227L191.704 22.3618L191.694 22.5039L190.79 34.5281C190.773 34.7564 190.574 34.9276 190.345 34.9104C190.125 34.8939 189.958 34.7082 189.962 34.4902L189.963 34.4659L190.872 22.3752L190.881 22.246L190.888 22.1207L190.894 21.9991L190.898 21.8814L190.901 21.7673C190.902 21.7486 190.902 21.7301 190.903 21.7117L190.904 21.6031L190.903 21.4982L190.902 21.3968L190.899 21.2989C190.898 21.2829 190.897 21.267 190.897 21.2513L190.892 21.1586L190.885 21.0694L190.878 20.9834C190.877 20.9694 190.875 20.9555 190.874 20.9417L190.864 20.8607L190.853 20.783L190.841 20.7085C190.839 20.6963 190.837 20.6843 190.835 20.6724L190.821 20.6026C190.811 20.5571 190.801 20.5136 190.789 20.4722L190.772 20.4115C190.769 20.4016 190.765 20.3919 190.762 20.3823L190.743 20.326L190.722 20.2726C190.712 20.2466 190.701 20.2217 190.689 20.1978L190.666 20.1514C190.525 19.8889 190.325 19.7655 190.075 19.7411L186.511 19.4725C186.283 19.4553 186.112 19.2563 186.129 19.0279C186.146 18.8077 186.331 18.6407 186.549 18.6445Z" fill="#89CAC6"/>
<ellipse cx="190.376" cy="34.4928" rx="0.901118" ry="0.901121" fill="#89CAC6"/>
<path fill-rule="evenodd" clip-rule="evenodd" d="M161.419 22.3985C161.881 22.3305 162.338 22.5455 162.578 22.937L166.827 30.196C167.789 31.8352 168.436 33.6398 168.734 35.5175L168.755 35.6486L169.584 41.2751C169.617 41.5016 169.461 41.7123 169.234 41.7457C169.016 41.7779 168.812 41.6335 168.768 41.42L168.764 41.396L167.935 35.7705C167.668 33.995 167.072 32.2852 166.177 30.729L166.111 30.6154L161.879 23.3849C161.811 23.2648 161.676 23.1988 161.54 23.2189C161.411 23.2378 161.306 23.3292 161.267 23.4557L161.261 23.4799L159.317 31.6245C158.9 33.3707 158.813 35.179 159.06 36.9563L159.079 37.0895L159.702 41.28C159.736 41.5065 159.579 41.7175 159.353 41.7512C159.134 41.7836 158.931 41.6395 158.886 41.426L158.882 41.402L158.258 37.2114C157.979 35.3313 158.054 33.416 158.479 31.5641L158.51 31.4319L160.454 23.2916C160.56 22.8231 160.944 22.4683 161.419 22.3985Z" fill="#89CAC6"/>
<path fill-rule="evenodd" clip-rule="evenodd" d="M169.703 44.8851C169.921 44.8527 170.125 44.9969 170.17 45.2103L170.174 45.2343L174.01 71.0502C174.044 71.2704 174.058 71.493 174.054 71.7157C174.049 71.9446 173.859 72.1263 173.63 72.1215C173.401 72.1166 173.22 71.9271 173.225 71.6982C173.228 71.5523 173.22 71.4065 173.202 71.2609L173.19 71.1736L169.354 45.3562C169.32 45.1297 169.476 44.9188 169.703 44.8851Z" fill="#89CAC6"/>
<path fill-rule="evenodd" clip-rule="evenodd" d="M159.843 45.0026C160.061 44.9702 160.265 45.1144 160.31 45.3278L160.314 45.3518L164.221 71.646C164.255 71.8725 164.098 72.0834 163.872 72.1171C163.653 72.1495 163.449 72.0053 163.405 71.7919L163.401 71.7679L159.494 45.4737C159.46 45.2472 159.616 45.0363 159.843 45.0026Z" fill="#89CAC6"/>
<path fill-rule="evenodd" clip-rule="evenodd" d="M165.536 28.8068L162.24 23.1748C162.088 22.9058 161.785 22.7581 161.479 22.8031C161.173 22.8481 160.927 23.0764 160.858 23.378L159.354 29.7052C160.993 29.0984 163.89 28.2111 165.536 28.8068Z" fill="#89CAC6"/>
<path fill-rule="evenodd" clip-rule="evenodd" d="M168.15 34.6905C168.085 34.3961 168.012 34.1044 167.929 33.8156C166.547 33.6594 164.819 33.8073 163.605 35.1203C161.817 34.074 159.817 34.7264 158.521 35.3967C158.53 35.7035 158.55 36.0117 158.577 36.3185C159.708 35.6717 161.682 34.8701 163.303 35.9039L164.109 41.3314L164.964 41.4419L164.122 35.7823C165.188 34.5412 166.885 34.4983 168.15 34.6905Z" fill="#89CAC6"/>
<path fill-rule="evenodd" clip-rule="evenodd" d="M165.536 45.5219H164.697L168.586 71.6876L169.426 71.7069L165.536 45.5219V45.5219Z" fill="#89CAC6"/>
<path fill-rule="evenodd" clip-rule="evenodd" d="M174.582 51.5527C174.724 51.3732 174.985 51.343 175.165 51.4853C175.337 51.622 175.372 51.8684 175.248 52.0467L175.232 52.0678L162.867 67.6688C162.724 67.8482 162.464 67.8784 162.284 67.7361C162.111 67.5994 162.077 67.353 162.201 67.1747L162.217 67.1537L174.582 51.5527Z" fill="#971356"/>
<path fill-rule="evenodd" clip-rule="evenodd" d="M174.959 57.6801C175.101 57.5004 175.362 57.4696 175.542 57.6115C175.715 57.7479 175.75 57.9942 175.626 58.1728L175.61 58.1938L164.706 72.0119C164.564 72.1917 164.303 72.2224 164.123 72.0806C163.951 71.9442 163.915 71.6979 164.039 71.5193L164.055 71.4982L174.959 57.6801Z" fill="#971356"/>
<path fill-rule="evenodd" clip-rule="evenodd" d="M175.919 62.9299C176.062 62.7511 176.323 62.7221 176.502 62.8652C176.674 63.0028 176.707 63.2493 176.583 63.427L176.567 63.448L169.75 71.9658C169.607 72.1446 169.346 72.1735 169.168 72.0305C168.996 71.8929 168.962 71.6464 169.087 71.4687L169.103 71.4477L175.919 62.9299Z" fill="#971356"/>
<path fill-rule="evenodd" clip-rule="evenodd" d="M175.612 69.1239C175.754 68.9441 176.015 68.9133 176.195 69.0551C176.368 69.1914 176.403 69.4377 176.279 69.6163L176.264 69.6374L174.326 72.0947C174.184 72.2745 173.923 72.3054 173.744 72.1636C173.571 72.0272 173.536 71.781 173.659 71.6024L173.675 71.5813L175.612 69.1239Z" fill="#971356"/>
<path fill-rule="evenodd" clip-rule="evenodd" d="M173.959 45.9884C174.102 45.8102 174.364 45.7822 174.542 45.9259C174.713 46.0641 174.746 46.3108 174.62 46.488L174.604 46.509L161.336 62.9627C161.193 63.141 160.932 63.1689 160.753 63.0252C160.582 62.887 160.549 62.6403 160.675 62.4631L160.691 62.4422L173.959 45.9884Z" fill="#971356"/>
<path fill-rule="evenodd" clip-rule="evenodd" d="M158.598 55.7673C158.768 55.6267 159.016 55.6438 159.165 55.802L159.182 55.8216L172.142 71.442C172.288 71.6182 172.264 71.8796 172.088 72.0258C171.918 72.1664 171.67 72.1493 171.521 71.9911L171.504 71.9715L158.544 56.3511C158.398 56.1749 158.422 55.9135 158.598 55.7673Z" fill="#971356"/>
<path fill-rule="evenodd" clip-rule="evenodd" d="M162.265 67.102C162.43 66.9553 162.678 66.9633 162.833 67.116L162.851 67.135L166.73 71.4789C166.883 71.6497 166.868 71.9118 166.697 72.0644C166.533 72.211 166.284 72.203 166.13 72.0503L166.112 72.0313L162.232 67.6874C162.08 67.5166 162.095 67.2545 162.265 67.102Z" fill="#971356"/>
<path fill-rule="evenodd" clip-rule="evenodd" d="M169.493 45.0927C169.663 44.9526 169.911 44.9703 170.059 45.1289L170.077 45.1486L175.04 51.162C175.186 51.3386 175.161 51.6 174.984 51.7457C174.814 51.8859 174.566 51.8682 174.418 51.7096L174.4 51.6899L169.437 45.6764C169.291 45.4998 169.316 45.2385 169.493 45.0927Z" fill="#971356"/>
<path fill-rule="evenodd" clip-rule="evenodd" d="M165.009 45.1625C165.178 45.021 165.426 45.0369 165.576 45.1943L165.593 45.2139L175.439 56.9617C175.586 57.1372 175.563 57.3987 175.388 57.5458C175.219 57.6872 174.971 57.6713 174.821 57.5139L174.804 57.4943L164.958 45.7466C164.811 45.5711 164.834 45.3096 165.009 45.1625Z" fill="#971356"/>
<path fill-rule="evenodd" clip-rule="evenodd" d="M160.118 45.0934C160.288 44.9528 160.536 44.9699 160.685 45.1281L160.702 45.1478L176.308 63.958C176.455 64.1342 176.43 64.3956 176.254 64.5418C176.085 64.6824 175.836 64.6653 175.688 64.5071L175.67 64.4875L160.064 45.6773C159.918 45.501 159.942 45.2396 160.118 45.0934Z" fill="#971356"/>
<path fill-rule="evenodd" clip-rule="evenodd" d="M155.317 45.1612C155.487 45.0206 155.735 45.0376 155.884 45.1958L155.901 45.2155L176.227 69.713C176.373 69.8892 176.349 70.1506 176.173 70.2968C176.003 70.4374 175.755 70.4204 175.606 70.2622L175.589 70.2425L155.263 45.745C155.117 45.5688 155.141 45.3074 155.317 45.1612Z" fill="#971356"/>
<path fill-rule="evenodd" clip-rule="evenodd" d="M160.258 45.2124C160.4 45.0326 160.661 45.0019 160.841 45.1437C161.014 45.2801 161.049 45.5264 160.925 45.7049L160.909 45.726L157.385 50.1929C157.243 50.3727 156.983 50.4035 156.803 50.2616C156.63 50.1252 156.595 49.8789 156.719 49.7004L156.734 49.6793L160.258 45.2124Z" fill="#971356"/>
<path fill-rule="evenodd" clip-rule="evenodd" d="M164.711 45.0396C164.852 44.8598 165.113 44.8291 165.293 44.9709C165.466 45.1073 165.501 45.3536 165.377 45.5322L165.362 45.5533L158.506 54.2411C158.365 54.4208 158.104 54.4516 157.924 54.3097C157.751 54.1733 157.716 53.927 157.84 53.7485L157.856 53.7274L164.711 45.0396Z" fill="#971356"/>
<path fill-rule="evenodd" clip-rule="evenodd" d="M169.567 45.1545C169.709 44.9752 169.97 44.9454 170.149 45.0879C170.322 45.225 170.356 45.4714 170.231 45.6495L170.216 45.6705L159.925 58.6152C159.782 58.7944 159.521 58.8242 159.342 58.6817C159.17 58.5447 159.136 58.2982 159.26 58.1201L159.276 58.0991L169.567 45.1545Z" fill="#971356"/>
<path fill-rule="evenodd" clip-rule="evenodd" d="M174.661 48.9269C174.833 48.7884 175.081 48.8085 175.227 48.9685L175.245 48.9884L193.621 71.6961C193.765 71.8741 193.737 72.1352 193.559 72.2792C193.388 72.4177 193.14 72.3976 192.993 72.2376L192.976 72.2178L174.6 49.5101C174.456 49.3321 174.483 49.071 174.661 48.9269Z" fill="#971356"/>
<path fill-rule="evenodd" clip-rule="evenodd" d="M175.063 55.93C175.235 55.7915 175.483 55.8116 175.629 55.9716L175.647 55.9915L188.28 71.6035C188.424 71.7815 188.397 72.0426 188.219 72.1867C188.048 72.3252 187.8 72.305 187.653 72.145L187.636 72.1252L175.002 56.5131C174.858 56.3351 174.885 56.074 175.063 55.93Z" fill="#971356"/>
<path fill-rule="evenodd" clip-rule="evenodd" d="M175.332 62.6288C175.503 62.4903 175.751 62.5104 175.898 62.6705L175.915 62.6903L183.106 71.5771C183.25 71.7552 183.222 72.0162 183.044 72.1603C182.873 72.2988 182.625 72.2787 182.478 72.1186L182.461 72.0988L175.27 63.212C175.126 63.0339 175.154 62.7729 175.332 62.6288Z" fill="#971356"/>
<path fill-rule="evenodd" clip-rule="evenodd" d="M175.713 68.8164C175.884 68.6779 176.132 68.6981 176.279 68.8581L176.296 68.878L178.5 71.6035C178.644 71.7815 178.617 72.0426 178.439 72.1866C178.267 72.3251 178.019 72.3049 177.873 72.1449L177.856 72.125L175.651 69.3995C175.507 69.2215 175.535 68.9604 175.713 68.8164Z" fill="#971356"/>
<path fill-rule="evenodd" clip-rule="evenodd" d="M176.608 45.0929C176.778 44.9526 177.026 44.9702 177.174 45.1286L177.192 45.1483L196.484 68.4835C196.63 68.66 196.605 68.9213 196.429 69.0672C196.259 69.2075 196.011 69.19 195.862 69.0315L195.845 69.0119L176.553 45.6767C176.407 45.5002 176.431 45.2389 176.608 45.0929Z" fill="#971356"/>
<path fill-rule="evenodd" clip-rule="evenodd" d="M198.625 47.8817C198.77 47.7042 199.031 47.6774 199.209 47.822C199.379 47.961 199.411 48.2078 199.284 48.3845L199.268 48.4053L180.084 71.9685C179.939 72.1461 179.678 72.1728 179.5 72.0283C179.33 71.8892 179.298 71.6424 179.425 71.4658L179.441 71.4449L198.625 47.8817Z" fill="#971356"/>
<path fill-rule="evenodd" clip-rule="evenodd" d="M197.57 55.6901C197.714 55.5121 197.975 55.4846 198.153 55.6286C198.325 55.7671 198.357 56.0138 198.231 56.1909L198.215 56.2118L185.399 72.0505C185.255 72.2285 184.994 72.256 184.816 72.112C184.645 71.9735 184.612 71.7268 184.738 71.5498L184.754 71.5289L197.57 55.6901Z" fill="#971356"/>
<path fill-rule="evenodd" clip-rule="evenodd" d="M196.328 63.5929C196.472 63.4149 196.733 63.3874 196.911 63.5314C197.082 63.6699 197.114 63.9167 196.988 64.0937L196.972 64.1146L190.414 72.2177C190.27 72.3957 190.009 72.4233 189.831 72.2792C189.66 72.1407 189.628 71.894 189.754 71.717L189.77 71.6961L196.328 63.5929Z" fill="#971356"/>
<path fill-rule="evenodd" clip-rule="evenodd" d="M195.612 70.1965C195.756 70.0185 196.017 69.9909 196.195 70.135C196.366 70.2735 196.399 70.5202 196.273 70.6972L196.257 70.7181L195.043 72.2177C194.899 72.3957 194.638 72.4232 194.46 72.2792C194.289 72.1407 194.257 71.894 194.383 71.7169L194.399 71.696L195.612 70.1965Z" fill="#971356"/>
<path fill-rule="evenodd" clip-rule="evenodd" d="M182.424 45.0142C182.58 44.8464 182.842 44.8368 183.01 44.9926C183.171 45.1425 183.187 45.3908 183.049 45.5588L183.032 45.5786L175.32 53.8808C175.164 54.0486 174.902 54.0582 174.734 53.9024C174.572 53.7525 174.557 53.5042 174.695 53.3362L174.712 53.3164L182.424 45.0142Z" fill="#971356"/>
<path fill-rule="evenodd" clip-rule="evenodd" d="M177.986 45.318C178.148 45.1555 178.41 45.1546 178.573 45.3159C178.729 45.4708 178.736 45.719 178.593 45.8823L178.575 45.9023L175.216 49.2843C175.055 49.4467 174.793 49.4477 174.63 49.2863C174.474 49.1314 174.467 48.8833 174.609 48.7199L174.628 48.6999L177.986 45.318Z" fill="#971356"/>
<path fill-rule="evenodd" clip-rule="evenodd" d="M186.189 45.0297C186.337 44.8544 186.598 44.8317 186.773 44.979C186.942 45.1206 186.97 45.3679 186.84 45.5426L186.824 45.5632L175.642 58.8699C175.494 59.0452 175.233 59.0679 175.058 58.9206C174.889 58.7789 174.862 58.5317 174.991 58.357L175.007 58.3364L186.189 45.0297Z" fill="#971356"/>
<path fill-rule="evenodd" clip-rule="evenodd" d="M190.616 45.1511C190.761 44.9734 191.022 44.9463 191.2 45.0906C191.371 45.2294 191.402 45.4762 191.276 45.653L191.26 45.6739L176.182 64.2422C176.037 64.42 175.776 64.4471 175.598 64.3027C175.427 64.1639 175.396 63.9171 175.522 63.7403L175.538 63.7195L190.616 45.1511Z" fill="#971356"/>
<path fill-rule="evenodd" clip-rule="evenodd" d="M196.499 45.1993C196.648 45.0255 196.91 45.0054 197.084 45.1544C197.251 45.2977 197.276 45.5453 197.145 45.7186L197.129 45.7391L176.326 70.0044C176.177 70.1782 175.915 70.1983 175.741 70.0493C175.574 69.906 175.549 69.6585 175.68 69.4851L175.696 69.4646L196.499 45.1993Z" fill="#971356"/>
<path fill-rule="evenodd" clip-rule="evenodd" d="M190.989 44.988C191.16 44.8495 191.408 44.8696 191.555 45.0295L191.572 45.0494L198.151 53.1775C198.295 53.3555 198.268 53.6165 198.09 53.7606C197.919 53.8991 197.671 53.879 197.524 53.719L197.507 53.6992L190.928 45.5711C190.784 45.3931 190.811 45.132 190.989 44.988Z" fill="#971356"/>
<path fill-rule="evenodd" clip-rule="evenodd" d="M195.586 45.1469C195.758 45.0084 196.006 45.0285 196.152 45.1885L196.17 45.2084L199.021 48.7313C199.165 48.9093 199.137 49.1704 198.959 49.3144C198.788 49.453 198.54 49.4329 198.393 49.2729L198.376 49.253L195.525 45.7301C195.381 45.5521 195.408 45.291 195.586 45.1469Z" fill="#971356"/>
<path fill-rule="evenodd" clip-rule="evenodd" d="M186.632 44.988C186.803 44.8495 187.051 44.8696 187.198 45.0296L187.215 45.0494L197.843 58.182C197.987 58.36 197.96 58.6211 197.782 58.7652C197.611 58.9037 197.363 58.8836 197.216 58.7236L197.199 58.7037L186.571 45.5711C186.427 45.3931 186.454 45.132 186.632 44.988Z" fill="#971356"/>
<path fill-rule="evenodd" clip-rule="evenodd" d="M181.907 45.1869C182.078 45.0484 182.326 45.0685 182.473 45.2285L182.49 45.2484L196.975 63.1464C197.119 63.3244 197.091 63.5855 196.913 63.7296C196.742 63.8681 196.494 63.848 196.347 63.688L196.33 63.6681L181.846 45.7701C181.702 45.5921 181.729 45.331 181.907 45.1869Z" fill="#971356"/>
<path fill-rule="evenodd" clip-rule="evenodd" d="M198.919 45.2528C198.95 45.0258 199.159 44.8667 199.386 44.8973C199.605 44.9269 199.76 45.1221 199.744 45.3395L199.741 45.3637L196.156 71.9205C196.126 72.1474 195.917 72.3066 195.69 72.2759C195.471 72.2464 195.315 72.0512 195.332 71.8338L195.334 71.8096L198.919 45.2528Z" fill="#971356"/>
<path fill-rule="evenodd" clip-rule="evenodd" d="M174.491 45.0561C174.712 45.0425 174.902 45.2037 174.928 45.4202L174.931 45.4445L176.539 71.5742C176.553 71.8028 176.379 71.9995 176.151 72.0135C175.931 72.0271 175.74 71.8659 175.714 71.6494L175.712 71.6252L174.103 45.4954C174.089 45.2669 174.263 45.0702 174.491 45.0561Z" fill="#971356"/>
<path fill-rule="evenodd" clip-rule="evenodd" d="M201.679 40.9214C202.316 40.9214 202.927 41.1744 203.377 41.6246C203.827 42.0748 204.08 42.6854 204.08 43.3221C204.08 44.6329 203.03 45.6984 201.725 45.7224L201.679 45.7228H174.038C173.809 45.7228 173.623 45.5372 173.623 45.3082C173.623 45.0874 173.796 44.9069 174.013 44.8943L174.038 44.8936H201.679C202.547 44.8936 203.251 44.19 203.251 43.3221C203.251 42.9054 203.085 42.5057 202.791 42.211C202.507 41.9276 202.127 41.7636 201.728 41.7514L201.679 41.7507L155.468 41.7507C155.111 41.7493 154.764 41.87 154.484 42.0928C154.305 42.2356 154.044 42.2063 153.902 42.0273C153.759 41.8482 153.788 41.5874 153.967 41.4446C154.379 41.116 154.887 40.9327 155.411 40.9219L155.47 40.9214H201.679Z" fill="#971356"/>
<path fill-rule="evenodd" clip-rule="evenodd" d="M174.041 44.8936C174.27 44.8936 174.455 45.0792 174.455 45.3082C174.455 45.529 174.283 45.7095 174.065 45.7221L174.041 45.7228H155.466C155.237 45.7228 155.051 45.5372 155.051 45.3082C155.051 45.0874 155.224 44.9069 155.441 44.8943L155.466 44.8936H174.041Z" fill="#971356"/>
<path fill-rule="evenodd" clip-rule="evenodd" d="M43.4041 46.0467C43.6331 46.0501 43.816 46.2384 43.8126 46.4674C43.7804 48.68 43.3595 50.8697 42.5691 52.9366C42.4873 53.1505 42.2476 53.2576 42.0337 53.1758C41.8198 53.094 41.7128 52.8543 41.7946 52.6404C42.5503 50.6643 42.9527 48.5707 42.9835 46.4553C42.9868 46.2263 43.1751 46.0434 43.4041 46.0467Z" fill="#971356"/>
<path fill-rule="evenodd" clip-rule="evenodd" d="M43.1158 48.5808C43.1559 48.3637 43.3584 48.2175 43.5748 48.2446L43.5988 48.2484L55.4074 50.4279C55.6325 50.4695 55.7814 50.6857 55.7398 50.9109C55.6998 51.128 55.4973 51.2742 55.2809 51.2471L55.2568 51.2434L43.4483 49.0638C43.2231 49.0223 43.0743 48.806 43.1158 48.5808Z" fill="#971356"/>
<path fill-rule="evenodd" clip-rule="evenodd" d="M42.6788 50.9428C42.7189 50.7257 42.9214 50.5795 43.1378 50.6066L43.1618 50.6104L56.3151 53.0387C56.5403 53.0803 56.6892 53.2965 56.6476 53.5217C56.6075 53.7388 56.405 53.885 56.1887 53.8579L56.1646 53.8542L43.0113 51.4258C42.7861 51.3843 42.6373 51.168 42.6788 50.9428Z" fill="#971356"/>
<path fill-rule="evenodd" clip-rule="evenodd" d="M42.8966 49.7626C42.9367 49.5454 43.1392 49.3992 43.3555 49.4263L43.3796 49.4301L55.94 51.7478C56.1651 51.7894 56.314 52.0056 56.2725 52.2308C56.2324 52.4479 56.0299 52.5941 55.8136 52.567L55.7895 52.5633L43.2291 50.2455C43.0039 50.204 42.8551 49.9877 42.8966 49.7626Z" fill="#971356"/>
<path fill-rule="evenodd" clip-rule="evenodd" d="M39.6265 44.1185C39.8285 43.0207 40.9271 42.3137 42.0803 42.5037L42.1246 42.5115L53.8986 44.6841C54.1238 44.7257 54.2727 44.9419 54.2311 45.1671C54.191 45.3842 53.9885 45.5304 53.7722 45.5033L53.7481 45.4996L41.9741 43.327C41.2417 43.1918 40.561 43.6223 40.4421 44.2685C40.3252 44.9041 40.7884 45.538 41.499 45.6882L41.5373 45.6958L54.9435 48.1711C55.1687 48.2127 55.3175 48.429 55.276 48.6541C55.2359 48.8713 55.0334 49.0174 54.817 48.9903L54.7929 48.9866L41.3868 46.5113C40.2179 46.2955 39.422 45.2303 39.6265 44.1185Z" fill="#971356"/>
<path fill-rule="evenodd" clip-rule="evenodd" d="M37.8302 53.7958C38.0321 52.6979 39.1309 51.9897 40.2838 52.1797L40.3282 52.1874L56.8247 55.228C57.0499 55.2695 57.1988 55.4857 57.1573 55.7109C57.1173 55.9281 56.9148 56.0743 56.6985 56.0473L56.6744 56.0435L40.1778 53.0029C39.4458 52.8678 38.7647 53.2992 38.6457 53.9459C38.5288 54.5815 38.992 55.2151 39.7026 55.3643L39.7409 55.3718L57.8379 58.7123C58.0631 58.7539 58.2119 58.9701 58.1704 59.1953C58.1303 59.4124 57.9278 59.5586 57.7115 59.5315L57.6874 59.5278L39.5909 56.1874C38.4219 55.9733 37.6256 54.9079 37.8302 53.7958Z" fill="#971356"/>
<path fill-rule="evenodd" clip-rule="evenodd" d="M23.9736 68.4203C24.52 68.2498 25.1013 68.5545 25.2719 69.101C25.4424 69.6475 25.1377 70.2288 24.5912 70.3993C22.7963 70.9595 21.1378 71.7202 20.0398 72.6414C18.7038 73.7624 18.4466 74.8522 19.4336 76.2851C19.7583 76.7566 19.6394 77.402 19.1679 77.7268C18.6964 78.0515 18.051 77.9326 17.7262 77.4611C16.0783 75.0685 16.6108 72.8123 18.7073 71.0532C20.0632 69.9156 21.9386 69.0554 23.9736 68.4203Z" fill="#971356"/>
<path fill-rule="evenodd" clip-rule="evenodd" d="M36.3727 66.7384C36.4051 66.52 36.6023 66.3668 36.8194 66.3862L36.8436 66.3891L61.0674 69.9783C61.2939 70.0119 61.4503 70.2227 61.4168 70.4493C61.3844 70.6677 61.1872 70.8209 60.97 70.8015L60.9458 70.7986L36.7221 67.2094C36.4956 67.1758 36.3391 66.9649 36.3727 66.7384Z" fill="#89CAC6"/>
<path fill-rule="evenodd" clip-rule="evenodd" d="M35.2265 64.4345C35.2588 64.2161 35.456 64.0628 35.6732 64.0822L35.6974 64.0851L60.5831 67.7711C60.8097 67.8047 60.9661 68.0155 60.9325 68.242C60.9002 68.4605 60.703 68.6137 60.4858 68.5943L60.4616 68.5914L35.5759 64.9054C35.3493 64.8718 35.1929 64.661 35.2265 64.4345Z" fill="#89CAC6"/>
<path fill-rule="evenodd" clip-rule="evenodd" d="M36.3422 69.0133C36.3745 68.7949 36.5717 68.6417 36.7889 68.6611L36.8131 68.664L61.8246 72.3693C62.0512 72.4029 62.2076 72.6137 62.174 72.8402C62.1417 73.0587 61.9445 73.2119 61.7273 73.1925L61.7031 73.1896L36.6916 69.4843C36.465 69.4507 36.3086 69.2399 36.3422 69.0133Z" fill="#89CAC6"/>
<path fill-rule="evenodd" clip-rule="evenodd" d="M35.7035 71.3214C35.7359 71.103 35.9331 70.9498 36.1502 70.9692L36.1744 70.9721L62.9744 74.9428C63.2009 74.9764 63.3573 75.1872 63.3238 75.4137C63.2914 75.6321 63.0942 75.7854 62.8771 75.766L62.8529 75.7631L36.0529 71.7924C35.8264 71.7588 35.6699 71.548 35.7035 71.3214Z" fill="#89CAC6"/>
<path fill-rule="evenodd" clip-rule="evenodd" d="M34.3043 73.1237C34.3367 72.9052 34.5339 72.752 34.7511 72.7714L34.7753 72.7743L53.9724 75.62C54.1989 75.6536 54.3553 75.8645 54.3218 76.091C54.2894 76.3094 54.0922 76.4626 53.875 76.4432L53.8508 76.4403L34.6537 73.5946C34.4272 73.561 34.2708 73.3502 34.3043 73.1237Z" fill="#89CAC6"/>
<path fill-rule="evenodd" clip-rule="evenodd" d="M29.0272 61.5892C29.0559 61.362 29.2633 61.2011 29.4905 61.2297C31.3352 61.4626 32.9942 61.9591 34.3453 62.8535C36.1773 64.0662 37.2098 65.889 37.2032 68.3853C37.1971 70.8312 36.182 72.697 34.4061 73.9611C33.0064 74.9574 31.1908 75.5217 29.4642 75.6284C29.2356 75.6426 29.0389 75.4687 29.0248 75.2402C29.0106 75.0116 29.1845 74.8149 29.413 74.8008C30.9944 74.703 32.6619 74.1847 33.9252 73.2855C35.4882 72.173 36.3685 70.5549 36.3739 68.3832C36.3798 66.1735 35.4928 64.6076 33.8876 63.545C32.6613 62.7332 31.1161 62.2708 29.3867 62.0525C29.1595 62.0238 28.9986 61.8164 29.0272 61.5892Z" fill="#89CAC6"/>
<path fill-rule="evenodd" clip-rule="evenodd" d="M29.0181 59.7685C29.0181 59.5157 29.2415 59.3238 29.4883 59.3576L29.5122 59.3615L59.6223 65.2465C59.847 65.2904 59.9936 65.5082 59.9497 65.7329C59.9073 65.9496 59.7033 66.0937 59.4873 66.0643L59.4632 66.0603L29.8473 60.272V75.7994L48.3618 75.6196C48.5826 75.6175 48.7648 75.7883 48.7795 76.0059L48.7804 76.0302C48.7826 76.251 48.6117 76.4332 48.3942 76.4479L48.3699 76.4489L29.4367 76.6327C29.2144 76.6348 29.0316 76.4617 29.0188 76.2426L29.0181 76.2181V59.7685Z" fill="#89CAC6"/>
<path fill-rule="evenodd" clip-rule="evenodd" d="M25.555 54.577C26.2003 54.0385 27.0465 53.8068 27.8751 53.9398L27.9329 53.9497L57.9904 59.4504C58.2157 59.4916 58.3648 59.7076 58.3236 59.9329C58.2839 60.1501 58.0816 60.2966 57.8652 60.2698L57.8411 60.2661L27.7843 54.7655C27.1798 54.656 26.5579 54.8201 26.0863 55.2137C25.6285 55.5957 25.3581 56.1557 25.3422 56.7497L25.3415 56.8038V79.6456C25.3415 79.8746 25.1558 80.0602 24.9268 80.0602C24.706 80.0602 24.5255 79.8876 24.5129 79.67L24.5122 79.6456L24.5122 56.8036C24.5128 55.9436 24.8947 55.1281 25.555 54.577Z" fill="#89CAC6"/>
<path fill-rule="evenodd" clip-rule="evenodd" d="M141.706 9.89126L50.4405 10.7317C48.7737 10.7445 47.2088 11.5381 46.2133 12.8758C45.2178 14.2134 44.9069 15.9403 45.3734 17.5411L63.9941 81.6254C64.0456 81.8025 64.2078 81.9244 64.3923 81.9244H226.627C229.458 81.9244 231.324 80.0677 232.399 77.0399C232.768 76.0025 233.017 74.8957 233.17 73.7896C233.218 73.4415 233.253 73.1156 233.278 72.8183L233.29 72.6644L233.297 72.5591L233.303 72.4625L233.307 72.3754L233.31 72.305L233.31 72.2811C233.304 72.0595 233.124 71.8798 232.899 71.878L164.255 71.3399L145.09 12.3255C144.614 10.8628 143.245 9.87751 141.706 9.89126ZM50.4479 11.561L141.714 10.7206C142.89 10.7101 143.938 11.4636 144.301 12.582L163.559 71.8804L163.568 71.9043C163.63 72.0609 163.781 72.1656 163.951 72.167L232.455 72.7038L232.444 72.8455C232.421 73.1022 232.39 73.3806 232.349 73.6761C232.203 74.7303 231.966 75.7837 231.618 76.7626L231.589 76.8442C230.616 79.5273 229.016 81.0953 226.627 81.0953H64.7039L46.17 17.3096C45.7762 15.9579 46.0386 14.5001 46.879 13.371C47.7193 12.2418 49.0404 11.5719 50.4479 11.561Z" fill="#971356"/>
<path fill-rule="evenodd" clip-rule="evenodd" d="M139.77 13.6125L139.727 13.6121L56.5121 13.7836C55.9406 13.7841 55.4024 14.0546 55.0608 14.5134C54.7192 14.9722 54.6143 15.5654 54.7778 16.1135L69.7677 66.6075C69.9968 67.3752 70.701 67.9019 71.5015 67.9048L156.701 68.0776C157.284 68.0787 157.833 67.7989 158.174 67.3259C158.516 66.8529 158.609 66.2444 158.424 65.6909L141.458 14.8507C141.214 14.1205 140.537 13.6255 139.77 13.6125ZM56.5137 14.6129L139.731 14.4415L139.733 14.4415C140.158 14.4386 140.537 14.7096 140.672 15.1131L157.638 65.9532C157.738 66.2535 157.688 66.5837 157.502 66.8404C157.317 67.0971 157.019 67.2489 156.703 67.2483L71.5042 67.0755C71.0699 67.074 70.6873 66.7878 70.5629 66.3709L55.573 15.877C55.4841 15.5792 55.541 15.2575 55.7263 15.0087C55.9116 14.7599 56.2034 14.6131 56.5137 14.6129Z" fill="#89CAC6"/>
<path fill-rule="evenodd" clip-rule="evenodd" d="M85.6388 28.9006C84.5314 30.2016 85.2515 32.5805 87.1592 34.2318C89.0669 35.883 91.5079 36.2403 92.6153 34.9393C93.7227 33.6383 93.0025 31.2593 91.0949 29.6081C89.1872 27.9568 86.7462 27.5996 85.6388 28.9006ZM86.3073 29.4799C87.0967 28.5529 89.0179 28.8339 90.5944 30.1978C92.1708 31.5616 92.7376 33.433 91.9482 34.36C91.1587 35.287 89.2375 35.006 87.661 33.6422C86.0846 32.2783 85.5178 30.4069 86.3073 29.4799Z" fill="#89CAC6"/>
<path fill-rule="evenodd" clip-rule="evenodd" d="M90.4036 35.4024C94.3068 35.4024 98.4981 38.1303 100.487 41.8823C100.595 42.0846 100.518 42.3356 100.315 42.4428C100.113 42.5501 99.862 42.473 99.7547 42.2707C97.9043 38.7806 93.9879 36.2317 90.4036 36.2317C86.9064 36.2317 84.7585 38.6615 85.1735 42.0412C85.2014 42.2685 85.0397 42.4753 84.8125 42.5032C84.5852 42.5311 84.3783 42.3695 84.3504 42.1422C83.8748 38.2683 86.4082 35.4024 90.4036 35.4024Z" fill="#89CAC6"/>
<path fill-rule="evenodd" clip-rule="evenodd" d="M115.229 47.1783C114.121 48.4793 114.841 50.8583 116.749 52.5095C118.657 54.1608 121.098 54.5181 122.205 53.217C123.313 51.916 122.592 49.5371 120.685 47.8858C118.777 46.2346 116.336 45.8773 115.229 47.1783ZM115.896 47.7576C116.685 46.8306 118.607 47.1116 120.183 48.4755C121.759 49.8393 122.326 51.7107 121.537 52.6377C120.747 53.5648 118.826 53.2837 117.25 51.9199C115.673 50.556 115.106 48.6846 115.896 47.7576Z" fill="#89CAC6"/>
<path fill-rule="evenodd" clip-rule="evenodd" d="M119.995 53.6819C123.928 53.6819 128.187 56.4807 130.142 60.2825C130.247 60.4861 130.167 60.7361 129.963 60.8408C129.76 60.9455 129.51 60.8653 129.405 60.6617C127.587 57.1273 123.606 54.5111 119.995 54.5111C116.483 54.5111 114.333 56.961 114.771 60.3612C114.8 60.5883 114.639 60.7961 114.412 60.8253C114.185 60.8545 113.977 60.694 113.948 60.4669C113.447 56.5713 115.983 53.6819 119.995 53.6819Z" fill="#89CAC6"/>
<path fill-rule="evenodd" clip-rule="evenodd" d="M111.024 25.1163C109.916 26.4173 110.637 28.7963 112.544 30.4475C114.452 32.0988 116.893 32.456 118 31.155C119.108 29.854 118.388 27.4751 116.48 25.8238C114.572 24.1726 112.131 23.8153 111.024 25.1163ZM111.692 25.6956C112.482 24.7686 114.403 25.0497 115.979 26.4135C117.556 27.7774 118.123 29.6488 117.333 30.5758C116.544 31.5028 114.623 31.2218 113.046 29.8579C111.47 28.4941 110.903 26.6227 111.692 25.6956Z" fill="#89CAC6"/>
<path fill-rule="evenodd" clip-rule="evenodd" d="M115.79 31.6238C119.756 31.6238 124.016 34.4393 125.962 38.2734C126.065 38.4776 125.984 38.7272 125.779 38.8308C125.575 38.9344 125.326 38.8528 125.222 38.6486C123.413 35.0841 119.432 32.4531 115.79 32.4531C112.261 32.4531 110.11 34.9213 110.57 38.3407C110.601 38.5677 110.442 38.7764 110.215 38.807C109.988 38.8375 109.779 38.6783 109.749 38.4514C109.221 34.535 111.759 31.6238 115.79 31.6238Z" fill="#89CAC6"/>
<path fill-rule="evenodd" clip-rule="evenodd" d="M93.0538 26.1618C93.2828 26.1618 93.4684 26.3474 93.4684 26.5764C93.4684 26.7972 93.2958 26.9777 93.0782 26.9904L93.0538 26.9911L77.3851 26.9909L82.236 41.8981H102.531L98.163 28.4724C98.0947 28.2624 98.203 28.0374 98.4061 27.958L98.429 27.9498C98.639 27.8815 98.864 27.9898 98.9434 28.1929L98.9516 28.2159L103.496 42.1846C103.58 42.4447 103.395 42.7113 103.126 42.7268L103.102 42.7275H81.935C81.764 42.7275 81.6115 42.6227 81.5493 42.4652L81.5407 42.4412L76.4201 26.7047C76.3354 26.4447 76.5211 26.178 76.7897 26.1625L76.8143 26.1618H93.0538Z" fill="#89CAC6"/>
<path fill-rule="evenodd" clip-rule="evenodd" d="M123.368 22.379C123.539 22.379 123.691 22.4839 123.753 22.6414L123.762 22.6654L125.212 27.1226C125.283 27.3404 125.163 27.5743 124.946 27.6452C124.736 27.7135 124.511 27.6052 124.431 27.4021L124.423 27.3791L123.066 23.2081H102.77L107.621 38.114H127.917L125.36 30.2567C125.292 30.0467 125.4 29.8217 125.603 29.7423L125.626 29.7341C125.836 29.6658 126.061 29.7741 126.141 29.9771L126.149 30.0001L128.882 38.4004C128.967 38.6605 128.781 38.9272 128.513 38.9426L128.488 38.9433H107.32C107.149 38.9433 106.997 38.8385 106.935 38.681L106.926 38.657L101.805 22.922C101.721 22.6619 101.906 22.3952 102.175 22.3797L102.2 22.379H123.368Z" fill="#89CAC6"/>
<path fill-rule="evenodd" clip-rule="evenodd" d="M127.572 44.4412C127.743 44.4412 127.896 44.5461 127.958 44.7035L127.966 44.7276L133.087 60.464C133.172 60.724 132.986 60.9908 132.717 61.0062L132.693 61.0069H111.525C111.354 61.0069 111.201 60.9021 111.139 60.7446L111.131 60.7206L110.605 59.1063C110.534 58.8885 110.654 58.6546 110.871 58.5837C111.081 58.5154 111.306 58.6237 111.386 58.8268L111.394 58.8497L111.826 60.1777H132.122L127.271 45.2705H106.975L110.355 55.6529C110.423 55.8629 110.315 56.088 110.112 56.1673L110.089 56.1755C109.879 56.2439 109.654 56.1356 109.574 55.9325L109.566 55.9096L106.01 44.9842C105.925 44.7241 106.111 44.4574 106.38 44.4419L106.404 44.4412H127.572Z" fill="#89CAC6"/>
<path fill-rule="evenodd" clip-rule="evenodd" d="M99.8397 24.9854H92.6723C92.3905 24.9854 92.1908 25.2604 92.278 25.5283L93.1888 28.3284C93.2443 28.4992 93.4035 28.6148 93.583 28.6148H100.751C101.032 28.6148 101.232 28.3398 101.145 28.0719L100.234 25.2718C100.178 25.101 100.019 24.9854 99.8397 24.9854ZM99.5384 25.8147L100.179 27.7854H93.8839L93.2429 25.8147H99.5384Z" fill="#89CAC6"/>
<path fill-rule="evenodd" clip-rule="evenodd" d="M127.976 26.9153H120.809C120.527 26.9153 120.328 27.1903 120.415 27.4582L121.325 30.2569C121.381 30.4277 121.54 30.5433 121.72 30.5433H128.887C129.169 30.5433 129.369 30.2683 129.282 30.0003L128.371 27.2016C128.315 27.0309 128.156 26.9153 127.976 26.9153ZM127.675 27.7445L128.316 29.714H122.02L121.38 27.7445H127.675Z" fill="#89CAC6"/>
<path fill-rule="evenodd" clip-rule="evenodd" d="M111.515 55.4967H104.348C104.066 55.4967 103.866 55.7717 103.953 56.0396L104.864 58.8397C104.92 59.0105 105.079 59.1261 105.258 59.1261H112.427C112.709 59.1261 112.909 58.851 112.821 58.583L111.909 55.7829C111.854 55.6122 111.695 55.4967 111.515 55.4967ZM111.214 56.326L111.856 58.2968H105.559L104.918 56.326H111.214Z" fill="#89CAC6"/>
<path fill-rule="evenodd" clip-rule="evenodd" d="M73.3812 26.1821C73.5911 26.1138 73.8162 26.2221 73.8955 26.4252L73.9037 26.4481L79.0244 42.1846C79.0952 42.4023 78.9761 42.6363 78.7584 42.7071C78.5484 42.7755 78.3234 42.6672 78.244 42.4641L78.2358 42.4412L73.1152 26.7047C73.0443 26.487 73.1634 26.253 73.3812 26.1821Z" fill="#89CAC6"/>
<path fill-rule="evenodd" clip-rule="evenodd" d="M104.679 38.8876C104.889 38.8193 105.114 38.9277 105.193 39.1308L105.201 39.1537L106.093 41.8981L119.176 41.8982C119.397 41.8982 119.578 42.0708 119.59 42.2885L119.591 42.3128C119.591 42.5337 119.418 42.7142 119.201 42.7268L119.176 42.7275H105.792C105.621 42.7275 105.469 42.6226 105.407 42.4651L105.398 42.441L104.413 39.4101C104.342 39.1924 104.461 38.9584 104.679 38.8876Z" fill="#89CAC6"/>
<path fill-rule="evenodd" clip-rule="evenodd" d="M103.958 44.4122C104.129 44.4122 104.281 44.5171 104.343 44.6745L104.352 44.6986L106.921 52.5944C106.992 52.8122 106.873 53.0461 106.655 53.117C106.445 53.1853 106.22 53.077 106.141 52.874L106.133 52.851L103.657 45.2413L100.934 45.2415C100.713 45.2415 100.532 45.0689 100.52 44.8512L100.519 44.8269C100.519 44.606 100.692 44.4255 100.909 44.4129L100.934 44.4122H103.958Z" fill="#89CAC6"/>
<path fill-rule="evenodd" clip-rule="evenodd" d="M101.693 20.1375L101.678 20.1251L101.664 20.1139L101.628 20.0808C101.62 20.0748 101.613 20.0726 101.597 20.0707L101.554 20.067L101.614 20.0711L101.76 20.078L101.994 20.0858L102.412 20.0958L102.905 20.1045L103.819 20.1165L105.189 20.1291L107.313 20.1417L109.401 20.149L111.945 20.1527L113.819 20.1522L116.179 20.1472L118.296 20.1376L119.818 20.1259L120.815 20.1146L121.546 20.1027L121.928 20.094L122.195 20.086L122.364 20.079L122.464 20.0732L122.498 20.0706L122.506 20.0682C122.709 20.0141 122.921 20.121 122.998 20.3163L123.006 20.3392L123.014 20.425L123.017 20.4706C123.022 20.5611 123.014 20.5998 122.979 20.6595L122.961 20.6889L122.926 20.7419L122.881 20.7828L122.861 20.8009L122.845 20.814C122.84 20.8177 122.835 20.8209 122.831 20.8238L122.817 20.832L122.79 20.8456C122.753 20.8635 122.722 20.8728 122.689 20.8801C122.661 20.8863 122.633 20.8903 122.599 20.8938L122.529 20.8999L122.439 20.9054L122.304 20.9117L122.098 20.9188L121.846 20.9256L121.184 20.9385L120.268 20.9506L119.351 20.9593L117.541 20.971L115.465 20.9785L113.513 20.9817L110.977 20.9812L109.09 20.9774L106.609 20.9675L104.362 20.9516L103.097 20.9394L102.364 20.9284L102.087 20.9218L101.92 20.9164L101.777 20.9103L101.656 20.9034L101.554 20.8956L101.47 20.8868L101.427 20.881L101.388 20.8747L101.355 20.8681L101.325 20.8609L101.291 20.8506C101.288 20.8497 101.285 20.8488 101.283 20.8479L101.255 20.8364L101.237 20.8272L101.215 20.814L101.194 20.7996C101.012 20.6615 100.976 20.4015 101.114 20.2188C101.247 20.0432 101.492 20.0031 101.673 20.1231L101.693 20.1375Z" fill="#89CAC6"/>
<path fill-rule="evenodd" clip-rule="evenodd" d="M51.1345 10.72C51.3623 10.6967 51.5659 10.8625 51.5891 11.0903C51.6116 11.31 51.4582 11.5071 51.243 11.5417L51.2144 11.5456L51.1989 11.5489L51.1749 11.5553L51.1433 11.5653L51.1046 11.5792C50.9882 11.6237 50.8696 11.6956 50.7566 11.8022C50.525 12.0205 50.3524 12.3352 50.2567 12.7599L50.2401 12.8384C50.2297 12.8915 50.2203 12.9462 50.2122 13.0026L50.2009 13.0884C50.173 13.3206 50.1642 13.5794 50.1765 13.8664L50.1822 13.9753L50.1898 14.0869C50.1912 14.1057 50.1927 14.1247 50.1943 14.1437L50.205 14.2594C50.2089 14.2984 50.2131 14.3378 50.2177 14.3777L50.2325 14.4988L50.2494 14.6226L50.2685 14.7492C50.2718 14.7705 50.2753 14.792 50.2788 14.8135L50.3011 14.9443C50.305 14.9663 50.309 14.9884 50.3131 15.0107L50.3387 15.1457L50.3665 15.2835L50.3965 15.4241L50.4289 15.5677C50.4345 15.5918 50.4401 15.6161 50.4459 15.6405L50.4817 15.7884L50.5198 15.9392C50.5264 15.9646 50.533 15.9901 50.5398 16.0157L50.5815 16.1709C50.5886 16.197 50.5959 16.2232 50.6032 16.2496L50.6485 16.4092L50.9815 17.5556L52.093 21.4196L54.3541 29.3142L61.2637 53.4991L69.1444 81.1196C69.2072 81.3398 69.0796 81.5692 68.8594 81.632C68.6471 81.6926 68.4261 81.5761 68.3543 81.3702L56.1718 38.6893L52.5774 26.12L50.8526 20.1042L50.2232 17.9184L49.8763 16.7236C49.8595 16.6662 49.843 16.6092 49.827 16.5526L49.7803 16.3844C49.7727 16.3565 49.7652 16.3288 49.7578 16.3012L49.7148 16.1368L49.6743 15.9751C49.6612 15.9216 49.6485 15.8686 49.6362 15.816L49.6006 15.6594C49.5719 15.53 49.5458 15.4034 49.5221 15.2793L49.4949 15.1318L49.4701 14.9868C49.4583 14.9149 49.4474 14.844 49.4373 14.774L49.4183 14.6353C49.4065 14.5436 49.3962 14.4537 49.3874 14.3654L49.3753 14.2341L49.3656 14.1054C49.3411 13.7441 49.3438 13.4124 49.3721 13.1093L49.3831 13.0035C49.4759 12.2013 49.7546 11.6071 50.1878 11.1988C50.383 11.0147 50.5946 10.8864 50.8084 10.8046C50.9437 10.7529 51.056 10.728 51.1345 10.72Z" fill="#971356"/>
<path fill-rule="evenodd" clip-rule="evenodd" d="M163.157 70.8897C163.386 70.8897 163.572 71.0753 163.572 71.3043C163.572 71.5251 163.399 71.7056 163.182 71.7183L163.157 71.719H66.0396C65.8106 71.719 65.625 71.5333 65.625 71.3043C65.625 71.0835 65.7976 70.903 66.0153 70.8904L66.0396 70.8897H163.157Z" fill="#971356"/>
<path fill-rule="evenodd" clip-rule="evenodd" d="M232.071 75.1562C232.3 75.1562 232.485 75.3418 232.485 75.5708C232.485 75.7916 232.313 75.9721 232.095 75.9847L232.071 75.9854H159.131C158.902 75.9854 158.717 75.7998 158.717 75.5708C158.717 75.35 158.889 75.1695 159.107 75.1569L159.131 75.1562H232.071Z" fill="#971356"/>
<path fill-rule="evenodd" clip-rule="evenodd" d="M159.674 70.8901C159.903 70.8998 160.081 71.0931 160.071 71.3218L160.065 71.4458L160.054 71.6039L160.041 71.784C160.012 72.1459 159.971 72.5487 159.915 72.9822C159.756 74.2218 159.511 75.4622 159.161 76.6237C158.679 78.2261 158.034 79.5515 157.195 80.5071C156.167 81.6783 154.88 82.2495 153.346 82.0936C153.118 82.0704 152.952 81.867 152.975 81.6391C152.998 81.4113 153.202 81.2454 153.43 81.2686C155.771 81.5065 157.375 79.6787 158.367 76.3847C158.703 75.2713 158.939 74.0742 159.093 72.8765C159.141 72.4988 159.178 72.1456 159.206 71.8244L159.219 71.6588L159.234 71.4441L159.241 71.3203L159.243 71.2869C159.252 71.0662 159.432 70.8932 159.65 70.8898L159.674 70.8901Z" fill="#971356"/>
<path fill-rule="evenodd" clip-rule="evenodd" d="M88.9302 73.5012H83.3065C82.1616 73.5012 81.2334 74.4293 81.2334 75.5743V77.5728C81.2334 78.7177 82.1616 79.6459 83.3065 79.6459H88.9302C90.0752 79.6459 91.0033 78.7177 91.0033 77.5728V75.5743C91.0033 74.4293 90.0752 73.5012 88.9302 73.5012ZM90.1745 77.5727C90.1745 78.2597 89.6176 78.8166 88.9307 78.8166H83.307C82.62 78.8166 82.0631 78.2597 82.0631 77.5727V75.5742C82.0631 75.5549 82.0631 75.5369 82.0631 75.5176H90.169C90.169 75.5369 90.169 75.5549 90.169 75.5742L90.1745 77.5727Z" fill="#89CAC6"/>
<path fill-rule="evenodd" clip-rule="evenodd" d="M101.443 73.5011H95.8175C94.6726 73.5011 93.7444 74.4293 93.7444 75.5742V77.5727C93.7444 78.7177 94.6726 79.6459 95.8175 79.6459H101.443C102.588 79.6459 103.516 78.7177 103.516 77.5727V75.5742C103.516 74.4293 102.588 73.5011 101.443 73.5011ZM102.687 77.5728C102.687 78.2597 102.13 78.8166 101.443 78.8166H95.8179C95.131 78.8166 94.5741 78.2597 94.5741 77.5728V75.5743C94.5741 75.5549 94.5741 75.537 94.5741 75.5176H102.687C102.687 75.537 102.687 75.5549 102.687 75.5743V77.5728Z" fill="#89CAC6"/>
<rect x="69.1936" y="74.0078" width="6.17238" height="4.98104" rx="2.49052" fill="#89CAC6"/>
<path fill-rule="evenodd" clip-rule="evenodd" d="M58.487 74.4027C61.6499 74.3375 64.6491 74.5606 67.3754 74.9729C67.5242 74.9954 67.6703 75.0182 67.8136 75.0413L68.0964 75.0877C68.143 75.0955 68.1892 75.1033 68.235 75.1111L68.5065 75.1583C68.5511 75.1662 68.5954 75.1741 68.6394 75.1821L68.8993 75.2299L69.1514 75.278L69.3955 75.3263C69.4356 75.3344 69.4752 75.3424 69.5146 75.3505L69.7497 75.3996L69.9638 75.4459L70.1478 75.4872L70.3012 75.5231L70.396 75.5461L70.4658 75.5637C71.0201 75.7068 71.3534 76.2722 71.2104 76.8265C71.0701 77.3697 70.5244 77.7007 69.9809 77.5791L69.8249 77.541L69.6586 77.5023L69.5404 77.4757L69.3471 77.4335L69.2077 77.4041L68.9847 77.3583L68.7537 77.3126C68.7145 77.305 68.6751 77.2974 68.6353 77.2898L68.3925 77.2443L68.1421 77.1991L67.8841 77.1543C67.8404 77.1469 67.7965 77.1394 67.7522 77.132L67.483 77.0879C67.3465 77.0659 67.2073 77.0442 67.0654 77.0227C64.4501 76.6272 61.5674 76.4128 58.5296 76.4754C54.6506 76.5553 50.8341 77.0847 47.1854 78.1518L46.9828 78.2116C46.7086 78.2935 46.4342 78.3738 46.1599 78.4526L45.7484 78.5697C44.7198 78.8594 43.6922 79.1274 42.6708 79.3727L42.2626 79.4695C37.6405 80.5536 33.1627 81.1664 29.3316 81.2074C23.613 81.2684 19.5223 80.0815 17.7222 77.4644C17.3977 76.9928 17.5171 76.3474 17.9888 76.023C18.4504 75.7054 19.0784 75.813 19.4091 76.2599L19.4302 76.2896C22.0642 80.1189 33.3957 80.0365 46.0074 76.3383L46.39 76.2251C50.2899 75.0612 54.3589 74.4877 58.487 74.4027Z" fill="#971356"/>
<path fill-rule="evenodd" clip-rule="evenodd" d="M105.657 9.41895H90.9215C90.2649 9.41779 89.6288 9.64775 89.1248 10.0685L88.2485 10.7983L92.1474 10.7623C92.1282 10.8997 92.1185 11.0383 92.1184 11.177V12.0242C92.1184 12.2881 92.2232 12.5412 92.4098 12.7278C92.5964 12.9144 92.8496 13.0193 93.1135 13.0193H105.653C106.206 13.0193 106.655 12.2343 106.655 11.2668V11.1742C106.659 10.2026 106.211 9.41895 105.657 9.41895Z" fill="#971356"/>
<rect x="95.0278" y="8.08392" width="6.28157" height="1.63639" fill="#971356"/>
<path fill-rule="evenodd" clip-rule="evenodd" d="M106.028 6.10352e-05H90.4837C89.5677 6.10352e-05 88.8252 0.742599 88.8252 1.65857V6.42539C88.8252 7.34135 89.5677 8.08389 90.4837 8.08389H106.028C106.944 8.08389 107.686 7.34135 107.686 6.42539V1.65857C107.686 0.742599 106.944 6.10352e-05 106.028 6.10352e-05V6.10352e-05ZM93.4505 7.2076C93.6795 7.2076 93.8651 7.39324 93.8651 7.62223C93.8651 7.85122 93.6795 8.03686 93.4505 8.03686C92.6549 8.03609 92.0103 7.39093 92.0103 6.59534V1.48853C92.0103 0.693477 92.6541 0.0485338 93.4491 0.0470092C93.6781 0.0470092 93.8637 0.232644 93.8637 0.461635C93.8637 0.690627 93.6781 0.876262 93.4491 0.876262C93.1115 0.877024 92.8382 1.15092 92.8382 1.48853V6.60225C92.842 6.93715 93.1142 7.20687 93.4491 7.2076H93.4505ZM101.305 6.99204C99.9907 6.99204 98.921 5.73434 98.921 4.18779C98.921 2.64123 99.9921 1.38215 101.305 1.38215C102.618 1.38215 103.689 2.63985 103.689 4.18502C103.689 5.7302 102.622 6.99204 101.305 6.99204Z" fill="#971356"/>
<path fill-rule="evenodd" clip-rule="evenodd" d="M101.307 2.21136C100.45 2.21136 99.7517 3.09728 99.7517 4.18499C99.7517 5.27269 100.443 6.15999 101.307 6.15999C102.17 6.15999 102.861 5.27407 102.861 4.18499C102.861 3.0959 102.166 2.21136 101.307 2.21136Z" fill="#971356"/>
<ellipse cx="96.855" cy="4.18781" rx="0.834778" ry="1.01307" fill="#89CAC6"/>
<path fill-rule="evenodd" clip-rule="evenodd" d="M253.985 81.2681C254.214 81.2681 254.4 81.4538 254.4 81.6828C254.4 81.9036 254.227 82.0841 254.01 82.0967L253.985 82.0974H0.414625C0.185634 82.0974 0 81.9117 0 81.6828C0 81.4619 0.172611 81.2814 0.390263 81.2688L0.414625 81.2681H253.985Z" fill="#971356"/>
</svg>
