<svg width="255" height="255" viewBox="0 0 255 255" fill="none" xmlns="http://www.w3.org/2000/svg">
<path fill-rule="evenodd" clip-rule="evenodd" d="M97.0974 113.835C97.346 113.835 97.5474 114.036 97.5474 114.285C97.5474 114.524 97.3601 114.72 97.1239 114.734L97.0974 114.735H69.3024C58.1437 114.735 49.0852 123.682 48.9052 134.797L48.9024 135.135V187.005C48.9024 187.253 48.701 187.455 48.4524 187.455C48.2128 187.455 48.0169 187.267 48.0032 187.031L48.0024 187.005V135.135C48.0024 123.484 57.3442 114.026 68.9501 113.838L69.3024 113.835H97.0974Z" fill="#971356"/>
<path fill-rule="evenodd" clip-rule="evenodd" d="M107.441 110.527C107.685 110.482 107.919 110.645 107.964 110.889C108.008 111.134 107.846 111.368 107.602 111.412C100.321 112.736 95.8829 115.005 93.9724 118.038C92.3476 120.618 92.5618 123.757 94.3628 127.327C94.4749 127.549 94.3853 127.82 94.1628 127.932C91.2795 129.378 88.2361 131.251 85.1201 133.609C81.2053 136.572 77.4103 140.129 73.8287 144.336C73.6676 144.526 73.3836 144.548 73.1943 144.387C73.0051 144.226 72.9823 143.942 73.1434 143.753C76.7681 139.495 80.6109 135.893 84.5769 132.891C87.5404 130.648 90.4416 128.837 93.2078 127.408L93.3615 127.329L93.3358 127.275C91.6316 123.668 91.4689 120.398 93.157 117.645L93.2109 117.559C95.2817 114.271 99.9362 111.891 107.441 110.527Z" fill="#971356"/>
<path fill-rule="evenodd" clip-rule="evenodd" d="M134.162 111.417C134.272 111.193 134.541 111.101 134.765 111.211C137.694 112.646 139.641 114.706 140.766 117.299C141.622 119.273 141.969 121.432 141.977 123.942L141.977 124.012L142.047 124.068C149.94 130.33 156.258 137.292 161.136 144.786L161.285 145.015C161.419 145.224 161.36 145.503 161.151 145.638C160.942 145.772 160.663 145.713 160.529 145.504C155.635 137.929 149.256 130.897 141.248 124.583C141.139 124.497 141.076 124.365 141.077 124.226C141.095 121.707 140.772 119.575 139.94 117.657C138.9 115.26 137.104 113.36 134.368 112.019C134.145 111.909 134.053 111.64 134.162 111.417Z" fill="#971356"/>
<path fill-rule="evenodd" clip-rule="evenodd" d="M70.662 186.284C70.745 186.05 71.0022 185.927 71.2364 186.01C72.3751 186.414 73.497 186.63 74.5124 186.645C74.761 186.648 74.9596 186.852 74.9561 187.101C74.9526 187.349 74.7483 187.548 74.4998 187.545C73.3819 187.529 72.1635 187.294 70.9358 186.859C70.7015 186.776 70.5789 186.518 70.662 186.284Z" fill="#971356"/>
<path fill-rule="evenodd" clip-rule="evenodd" d="M61.7943 162.277C61.8733 162.041 62.1284 161.914 62.364 161.993C62.5996 162.072 62.7266 162.327 62.6476 162.563C61.8068 165.071 61.3525 167.475 61.2606 169.758C61.2506 170.006 61.0412 170.199 60.7929 170.189C60.5445 170.179 60.3513 169.97 60.3613 169.721C60.4567 167.353 60.9269 164.864 61.7943 162.277Z" fill="#971356"/>
<path fill-rule="evenodd" clip-rule="evenodd" d="M130.801 168.735C129.751 159.42 129.001 148.065 130.801 142.83C134.116 133.17 131.836 123.405 129.601 121.65C128.476 120.525 130.201 126.3 121.801 135.45C112.801 124.95 103.921 119.805 103.921 119.805L100.681 123.135C100.681 123.135 116.101 134.865 121.111 163.11C121.351 164.49 121.576 165.78 121.771 166.965" fill="#89CAC6"/>
<path fill-rule="evenodd" clip-rule="evenodd" d="M107.627 110.805L107.653 110.805C107.892 110.82 108.077 111.018 108.076 111.255L108.076 111.281L107.761 116.591C107.755 116.68 107.724 116.764 107.671 116.835L107.651 116.86L104.933 119.977L105.191 120.147C105.335 120.242 105.487 120.344 105.647 120.453L105.935 120.649L106.201 120.833C107.275 121.578 108.457 122.445 109.723 123.429C113.639 126.474 117.554 130.016 121.209 134.021C121.391 134.221 121.572 134.421 121.752 134.622L121.952 134.846L121.974 134.821C122.238 134.512 122.531 134.15 122.846 133.736L122.919 133.64C123.901 132.341 124.884 130.83 125.801 129.124C126.935 127.016 127.887 124.756 128.6 122.361C128.671 122.123 128.921 121.987 129.16 122.058C129.398 122.129 129.534 122.38 129.463 122.618C128.732 125.074 127.755 127.39 126.594 129.55C125.654 131.299 124.646 132.848 123.637 134.183C123.309 134.618 123.001 135.001 122.722 135.33L122.658 135.405C122.569 135.51 122.488 135.602 122.416 135.683L122.278 135.834C122.096 136.026 121.788 136.02 121.613 135.822C121.261 135.421 120.905 135.023 120.544 134.628C117 130.744 113.206 127.298 109.408 124.325L109.171 124.139C107.866 123.125 106.652 122.238 105.556 121.481L105.246 121.269C104.953 121.069 104.687 120.892 104.45 120.736L104.188 120.567L104.015 120.457C103.787 120.316 103.733 120.01 103.894 119.801L103.912 119.779L106.871 116.384L107.177 111.228C107.191 110.998 107.375 110.818 107.6 110.805L107.627 110.805Z" fill="#971356"/>
<path fill-rule="evenodd" clip-rule="evenodd" d="M121.374 166.974C121.418 166.73 121.652 166.567 121.897 166.612L122.521 166.726C125.509 167.275 128.55 167.886 130.932 168.431C131.174 168.486 131.326 168.728 131.27 168.97C131.215 169.212 130.973 169.364 130.731 169.308L130.404 169.234C127.919 168.673 124.774 168.048 121.736 167.497C121.492 167.453 121.329 167.219 121.374 166.974Z" fill="#971356"/>
<path fill-rule="evenodd" clip-rule="evenodd" d="M130.393 168.767C130.45 168.525 130.691 168.375 130.933 168.431L131.519 168.569C134.041 169.171 135.524 169.629 136.054 170.026L136.116 170.074C137.045 170.798 139.228 172.842 141.251 174.882L141.69 175.326C143.979 177.658 145.399 179.304 145.535 179.928C145.736 180.799 145.07 181.486 144.09 181.598C143.343 181.683 142.514 181.443 141.762 180.904L141.693 180.854L141.812 181.011C142.097 181.391 142.284 181.67 142.366 181.842L142.374 181.86C142.736 182.692 141.995 183.582 140.917 183.627C139.978 183.667 138.902 183.134 137.779 182.003L137.693 181.915L137.713 181.949C137.855 182.192 137.962 182.39 138.03 182.541L138.056 182.601C138.256 183.077 138.089 183.577 137.66 183.87C137.273 184.134 136.724 184.203 136.129 184.062C134.808 183.748 133.419 182.49 132.202 180.29L132.176 180.243L121.077 179.759C120.837 179.749 120.65 179.553 120.646 179.316L120.647 179.29C120.657 179.05 120.853 178.863 121.089 178.86L121.116 178.86L132.471 179.355C132.631 179.362 132.775 179.453 132.849 179.594C133.99 181.755 135.248 182.927 136.337 183.186C136.99 183.341 137.302 183.129 137.226 182.948C137.063 182.558 136.423 181.544 135.475 180.146L135.315 179.911C134.932 179.351 134.526 178.765 134.116 178.181L133.647 177.517L133.316 177.052C133.095 176.744 133.33 176.317 133.709 176.34C134.13 176.366 135.085 177.278 137.24 179.984L137.59 180.426C138.869 182.051 140.029 182.764 140.879 182.728C141.381 182.707 141.631 182.407 141.551 182.225L141.539 182.199C141.357 181.843 140.387 180.618 138.948 178.909L138.773 178.703L138.392 178.253C138.007 177.8 137.608 177.335 137.206 176.869L136.574 176.14L135.908 175.376C135.535 174.952 136.123 174.376 136.538 174.736L136.557 174.754L141.772 179.729C142.488 180.457 143.314 180.78 143.988 180.704C144.488 180.647 144.721 180.405 144.657 180.125C144.468 179.258 137.644 172.367 135.511 170.744L135.48 170.722C135.017 170.409 133.363 169.922 130.729 169.308C130.487 169.251 130.337 169.009 130.393 168.767Z" fill="#971356"/>
<path fill-rule="evenodd" clip-rule="evenodd" d="M101.717 164.884L103.466 164.706C110.94 163.953 115.807 163.56 117.056 163.666C118.495 163.796 119.193 164.273 119.946 165.327L120.084 165.523C120.611 166.275 120.912 166.535 121.591 166.674L122.09 166.776C122.824 166.929 123.42 167.059 123.891 167.167L124.193 167.238L124.442 167.299C124.491 167.311 124.524 167.32 124.543 167.325C124.791 167.392 124.931 167.651 124.856 167.893L124.798 168.053L124.763 168.156C124.732 168.245 124.699 168.344 124.665 168.452C124.526 168.885 124.386 169.372 124.256 169.899C123.817 171.682 123.588 173.482 123.683 175.149C123.771 176.688 124.133 178.023 124.807 179.101C124.918 179.279 124.892 179.509 124.744 179.658L124.718 179.683C124.683 179.715 124.634 179.757 124.568 179.809C124.436 179.913 124.27 180.028 124.069 180.153C123.528 180.489 122.818 180.838 121.917 181.189L121.812 181.23C121.185 181.47 120.927 181.758 120.552 182.52L120.405 182.825L120.348 182.941C119.801 184.017 119.171 184.587 117.818 184.935L117.755 184.951C116.676 185.208 113.189 185.575 107.761 186.034L106.3 186.155C105.385 186.231 104.429 186.308 103.436 186.386L102.177 186.485C99.7794 186.671 97.2738 186.857 94.7519 187.039L92.3838 187.209L89.6206 187.402L88.8611 187.453C88.6132 187.47 88.3986 187.283 88.3818 187.035C88.3656 186.796 88.5393 186.588 88.7741 186.558L91.7246 186.353L93.3517 186.238C96.3202 186.026 99.2886 185.806 102.107 185.587L103.902 185.446C104.97 185.362 105.992 185.278 106.965 185.197L108.33 185.082C113.415 184.646 116.705 184.293 117.593 184.064C118.69 183.781 119.126 183.379 119.571 182.482L119.746 182.12C120.204 181.19 120.589 180.747 121.435 180.411L121.49 180.389C122.389 180.045 123.082 179.706 123.594 179.388C123.672 179.34 123.742 179.295 123.805 179.251L123.839 179.228L123.798 179.152C123.21 178.049 122.886 176.757 122.792 175.314L122.785 175.2C122.684 173.431 122.923 171.547 123.382 169.684C123.506 169.181 123.638 168.714 123.771 168.291L123.839 168.079L123.435 167.986C122.904 167.867 122.235 167.724 121.411 167.555C120.495 167.368 120.032 166.995 119.427 166.152L119.249 165.899C118.619 165.005 118.141 164.668 116.978 164.563C115.779 164.461 110.61 164.885 102.856 165.672L101.455 165.815C101.218 165.84 100.98 165.864 100.74 165.889C98.4749 166.124 96.1492 166.372 93.8483 166.623L91.4371 166.889L88.3717 167.232C88.1247 167.26 87.9018 167.082 87.8737 166.835C87.8466 166.597 88.0105 166.381 88.2437 166.341L88.2901 166.335L91.0026 166.031C91.3344 165.994 91.6772 165.956 92.03 165.918C94.6002 165.634 97.2288 165.351 99.7946 165.083L100.647 164.994C101.008 164.957 101.364 164.92 101.717 164.884Z" fill="#971356"/>
<path fill-rule="evenodd" clip-rule="evenodd" d="M89.6284 159C89.6528 158.753 89.873 158.572 90.1203 158.597L90.1601 158.601C90.2262 158.609 90.3211 158.625 90.4414 158.649C90.679 158.697 90.9419 158.768 91.2237 158.865C92.024 159.14 92.823 159.572 93.5681 160.195C95.0626 161.443 96.1436 163.291 96.6379 165.828C96.6855 166.072 96.5263 166.309 96.2823 166.356C96.0384 166.404 95.8021 166.244 95.7546 166.001C95.2995 163.665 94.3259 162.001 92.9911 160.886C92.3348 160.337 91.6321 159.957 90.9309 159.716C90.6872 159.632 90.462 159.572 90.2617 159.531L90.1677 159.513C90.1398 159.508 90.1155 159.504 90.0948 159.501L90.0322 159.492C89.7848 159.468 89.6041 159.248 89.6284 159Z" fill="#971356"/>
<path fill-rule="evenodd" clip-rule="evenodd" d="M121.996 181.109C124.276 180.254 125.011 179.564 125.011 179.564C122.056 174.944 125.011 167.309 125.011 167.309C125.011 167.309 124.231 167.099 121.846 166.619C120.886 166.424 120.376 165.929 119.971 165.374C115.066 170.939 118.066 180.689 119.371 184.229C120.526 183.224 120.271 181.769 121.996 181.109Z" fill="#971356"/>
<path fill-rule="evenodd" clip-rule="evenodd" d="M141.526 124.23L141.076 123.93C141.061 125.34 140.956 126.6 140.911 127.59C140.611 134.505 137.716 138.48 136.381 141.24C140.806 138.51 144.856 132.63 146.851 128.76C145.201 127.23 143.416 125.715 141.526 124.23Z" fill="#971356"/>
<path fill-rule="evenodd" clip-rule="evenodd" d="M109.036 142.755C106.666 141.66 97.8465 134.28 94.2015 127.05C91.8315 128.235 88.4715 130.515 84.9915 133.125C87.5565 134.595 102.316 142.89 109.081 142.83C109.066 142.8 109.051 142.77 109.036 142.755Z" fill="#971356"/>
<path fill-rule="evenodd" clip-rule="evenodd" d="M110.501 140.099C110.791 139.96 111.136 140.074 111.288 140.352L111.319 140.416L111.441 140.675L111.552 140.914C111.734 141.309 111.936 141.756 112.152 142.247L112.206 142.371C112.882 143.914 113.558 145.567 114.189 147.262C114.843 149.022 115.412 150.73 115.871 152.351C116.463 154.443 116.855 156.335 117.013 157.982C117.045 158.312 116.803 158.605 116.473 158.637C116.144 158.669 115.851 158.427 115.819 158.097C115.669 156.531 115.29 154.706 114.716 152.677C114.267 151.09 113.708 149.412 113.064 147.681C112.441 146.008 111.774 144.376 111.107 142.852L110.948 142.492C110.775 142.101 110.612 141.741 110.463 141.417L110.305 141.079L110.22 140.899C110.077 140.601 110.203 140.242 110.501 140.099Z" fill="#971356"/>
<path fill-rule="evenodd" clip-rule="evenodd" d="M133.967 140.505C134.28 140.577 134.478 140.882 134.422 141.195L134.345 141.543L134.274 141.877C134.237 142.053 134.197 142.244 134.156 142.448C133.96 143.421 133.764 144.495 133.581 145.639C133.176 148.169 132.894 150.666 132.789 152.996C132.707 154.829 132.739 156.496 132.898 157.96C132.934 158.289 132.696 158.585 132.367 158.621C132.037 158.657 131.741 158.419 131.705 158.09C131.538 156.559 131.506 154.832 131.591 152.942C131.698 150.562 131.985 148.021 132.396 145.45L132.466 145.018C132.62 144.09 132.781 143.21 132.943 142.397L132.98 142.211C133.022 142.003 133.062 141.809 133.1 141.629L133.196 141.181L133.247 140.954C133.322 140.631 133.644 140.43 133.967 140.505Z" fill="#971356"/>
<path fill-rule="evenodd" clip-rule="evenodd" d="M181.353 117.945H180.348C179.928 117.945 179.598 117.615 179.598 117.195V115.275C179.598 114.855 179.928 114.525 180.348 114.525H181.353C181.773 114.525 182.103 114.855 182.103 115.275V117.195C182.103 117.615 181.773 117.945 181.353 117.945Z" fill="#89CAC6"/>
<path fill-rule="evenodd" clip-rule="evenodd" d="M177.888 117.945H162.198C161.778 117.945 161.448 117.615 161.448 117.195V115.275C161.448 114.855 161.778 114.525 162.198 114.525H177.888C178.308 114.525 178.638 114.855 178.638 115.275V117.195C178.638 117.615 178.308 117.945 177.888 117.945Z" fill="#971356"/>
<path fill-rule="evenodd" clip-rule="evenodd" d="M179.448 133.86H162.198C161.778 133.86 161.448 133.53 161.448 133.11V131.19C161.448 130.77 161.778 130.44 162.198 130.44H179.448C179.868 130.44 180.198 130.77 180.198 131.19V133.11C180.198 133.53 179.868 133.86 179.448 133.86Z" fill="#971356"/>
<path fill-rule="evenodd" clip-rule="evenodd" d="M194.523 128.565H166.938C166.518 128.565 166.188 128.235 166.188 127.815V125.895C166.188 125.475 166.518 125.145 166.938 125.145H194.523C194.943 125.145 195.273 125.475 195.273 125.895V127.815C195.273 128.235 194.928 128.565 194.523 128.565Z" fill="#89CAC6"/>
<path fill-rule="evenodd" clip-rule="evenodd" d="M211.863 128.565H197.658C197.238 128.565 196.908 128.235 196.908 127.815V125.895C196.908 125.475 197.238 125.145 197.658 125.145H211.863C212.283 125.145 212.613 125.475 212.613 125.895V127.815C212.613 128.235 212.268 128.565 211.863 128.565Z" fill="#89CAC6"/>
<path fill-rule="evenodd" clip-rule="evenodd" d="M217.173 123.27H216.168C215.748 123.27 215.418 122.94 215.418 122.52V120.6C215.418 120.18 215.748 119.85 216.168 119.85H217.173C217.593 119.85 217.923 120.18 217.923 120.6V122.52C217.923 122.925 217.593 123.27 217.173 123.27Z" fill="#971356"/>
<path fill-rule="evenodd" clip-rule="evenodd" d="M190.773 123.255H162.198C161.778 123.255 161.448 122.925 161.448 122.505V120.585C161.448 120.165 161.778 119.835 162.198 119.835H190.773C191.193 119.835 191.523 120.165 191.523 120.585V122.505C191.523 122.925 191.178 123.255 190.773 123.255Z" fill="#971356"/>
<path fill-rule="evenodd" clip-rule="evenodd" d="M199.653 117.945H183.963C183.543 117.945 183.213 117.615 183.213 117.195V115.275C183.213 114.855 183.543 114.525 183.963 114.525H199.653C200.073 114.525 200.403 114.855 200.403 115.275V117.195C200.403 117.615 200.058 117.945 199.653 117.945Z" fill="#971356"/>
<path fill-rule="evenodd" clip-rule="evenodd" d="M213.333 123.27H193.623C193.203 123.27 192.873 122.94 192.873 122.52V120.57C192.873 120.15 193.203 119.82 193.623 119.82H213.333C213.753 119.82 214.083 120.15 214.083 120.57V122.52C214.083 122.925 213.738 123.27 213.333 123.27Z" fill="#89CAC6"/>
<path fill-rule="evenodd" clip-rule="evenodd" d="M200.012 145.215H141.692C140.927 145.215 140.267 145.74 140.087 146.49L131.972 180.81H110.837C110.837 180.81 109.667 186.855 116.492 186.855C119.957 186.855 190.952 186.855 190.952 186.855C191.717 186.855 192.377 186.33 192.557 185.58L201.617 147.24C201.857 146.205 201.077 145.215 200.012 145.215ZM169.472 161.64C169.472 161.64 167.327 162.495 166.622 159.975C166.622 159.975 169.307 159.33 169.472 161.64ZM171.618 171.3C169.923 173.1 167.133 173.64 165.393 172.5C163.653 171.36 163.608 168.96 165.303 167.16C166.083 166.32 167.103 165.765 168.138 165.51C168.003 165.27 167.913 164.985 167.913 164.655C167.913 163.65 168.663 162.69 169.593 162.525C169.608 162.525 169.623 162.525 169.638 162.525C169.878 161.79 170.373 160.41 170.853 159.84C171.018 159.645 171.303 159.63 171.483 159.795C171.678 159.96 171.693 160.245 171.528 160.425C171.198 160.815 170.793 161.91 170.538 162.675C170.988 162.915 171.288 163.425 171.288 164.04C171.288 164.61 171.048 165.15 170.673 165.555C170.973 165.66 171.273 165.78 171.528 165.96C173.268 167.1 173.313 169.5 171.618 171.3Z" fill="#971356"/>
<path fill-rule="evenodd" clip-rule="evenodd" d="M56.6737 170.31C54.2298 170.31 52.2487 172.291 52.2487 174.735C52.2487 177.179 54.2298 179.16 56.6737 179.16C59.1175 179.16 61.0987 177.179 61.0987 174.735C61.0987 172.291 59.1175 170.31 56.6737 170.31ZM56.6737 171.21C58.6205 171.21 60.1987 172.788 60.1987 174.735C60.1987 176.682 58.6205 178.26 56.6737 178.26C54.7269 178.26 53.1487 176.682 53.1487 174.735C53.1487 172.788 54.7269 171.21 56.6737 171.21Z" fill="#971356"/>
<path fill-rule="evenodd" clip-rule="evenodd" d="M57.7079 169.335V182.205C57.7079 184.695 59.7179 186.705 62.2079 186.705H69.7979C72.2879 186.705 74.2979 184.695 74.2979 182.205V169.335H57.7079Z" fill="#971356"/>
<path fill-rule="evenodd" clip-rule="evenodd" d="M67.1948 139.349C67.4898 140.271 67.3337 141.52 66.4477 143.172C65.9386 144.128 65.3093 144.738 63.9779 145.699L63.2473 146.221L63.1733 146.275C62.069 147.075 61.3624 147.706 60.7254 148.555C59.9193 149.629 59.362 150.931 59.052 152.587C58.5189 155.435 59.8795 159.467 62.1474 162.943C63.0961 164.397 64.0789 165.526 64.8354 166.016C65.9073 166.71 66.6744 166.142 66.5424 164.718C66.3554 162.7 66.4766 161.399 66.8714 160.551C67.1713 159.907 67.5859 159.533 68.4622 159.032L69.139 158.654L69.3029 158.562C69.487 158.456 69.6484 158.36 69.808 158.259C70.3369 157.924 70.7988 157.566 71.2396 157.132C72.5291 155.861 73.5527 153.993 74.3569 151.189C75.2298 147.803 74.6049 144.887 72.8441 142.438C71.6343 140.755 70.0329 139.467 68.3522 138.534L68.2411 138.473C67.6574 138.161 67.0009 138.728 67.1948 139.349ZM68.1511 139.454L68.2325 139.502C69.6904 140.36 71.0674 141.508 72.1134 142.963C73.723 145.202 74.2895 147.846 73.4887 150.952C72.7279 153.605 71.7786 155.337 70.6079 156.491C70.2158 156.877 69.8041 157.196 69.3267 157.498C69.1579 157.605 68.9848 157.708 68.7779 157.825L68.0848 158.211C67.0152 158.815 66.4591 159.304 66.0556 160.171C65.5889 161.174 65.4506 162.59 65.6364 164.692L65.6463 164.801C65.6683 165.038 65.6633 165.22 65.637 165.343L65.6312 165.368L65.6251 165.39L65.6203 165.404L65.6315 165.407C65.5603 165.392 65.4545 165.344 65.3245 165.26C64.6967 164.854 63.787 163.809 62.9013 162.451C60.748 159.151 59.4559 155.321 59.9367 152.752C60.2218 151.229 60.7241 150.056 61.4453 149.095C62.0002 148.356 62.6247 147.79 63.608 147.072L63.9316 146.838L64.344 146.545C65.8891 145.442 66.6303 144.744 67.2416 143.596C68.1131 141.971 68.3655 140.62 68.1658 139.529L68.1511 139.454Z" fill="#971356"/>
<path fill-rule="evenodd" clip-rule="evenodd" d="M105.519 98.2498C105.768 98.2452 105.973 98.443 105.977 98.6915C105.982 98.9311 105.798 99.1304 105.562 99.1484L105.457 99.153C105.428 99.1546 105.393 99.1569 105.353 99.16C105.198 99.172 105.024 99.1917 104.837 99.2209C104.302 99.3043 103.768 99.4463 103.275 99.6591C101.607 100.378 100.796 101.687 101.228 103.876C101.512 105.283 102.215 106.069 103.274 106.39C104.134 106.649 105.197 106.593 106.347 106.303C106.588 106.243 106.833 106.389 106.894 106.63C106.954 106.871 106.808 107.115 106.567 107.176C105.273 107.502 104.058 107.566 103.014 107.251C101.634 106.834 100.695 105.783 100.346 104.052C99.8249 101.417 100.883 99.7102 102.919 98.8326C103.488 98.5869 104.094 98.4259 104.698 98.3316L104.817 98.314C105.124 98.2703 105.367 98.2525 105.519 98.2498Z" fill="#971356"/>
<path fill-rule="evenodd" clip-rule="evenodd" d="M121.931 81.9762L121.929 81.9763C114.893 82.5584 110.428 85.8398 108.076 90.9286C107.256 92.701 106.746 94.592 106.485 96.5069C106.316 97.7456 106.27 98.8272 106.296 99.6663L106.301 99.8096L106.306 99.9121L106.306 99.9298L106.307 99.9559C106.321 100.206 106.54 100.399 106.793 100.378L108.395 100.247L108.409 100.265C109.405 101.559 111.688 106.621 112.259 108.947C112.32 109.195 112.574 109.341 112.816 109.273L113.039 109.201L113.136 109.17C113.384 109.093 113.676 109.007 114.011 108.914L114.276 108.841C115.173 108.598 116.19 108.357 117.317 108.13L117.541 108.085C120.686 107.465 124.112 107.069 127.729 106.999L127.977 106.995L128.244 107.002C128.427 107.008 128.63 107.015 128.851 107.024C129.464 107.048 130.103 107.082 130.737 107.125L131.066 107.149C132.407 107.25 133.524 107.385 134.295 107.557L134.377 107.575L134.361 107.768C134.34 108.025 134.315 108.308 134.283 108.614C134.224 109.2 135.095 109.305 135.177 108.722C136.027 102.643 136.224 96.0033 135.477 90.2717C134.948 86.2412 132.497 83.7952 128.772 82.6454C127.425 82.2297 125.982 82.0081 124.508 81.9385C123.519 81.8918 122.692 81.9159 121.931 81.9762ZM124.465 82.8375C125.869 82.9038 127.239 83.1141 128.507 83.5054C131.92 84.5588 134.106 86.7407 134.585 90.3884L134.615 90.6273C135.234 95.5769 135.147 101.211 134.544 106.548L134.528 106.687L134.5 106.68C133.606 106.481 132.332 106.333 130.799 106.228C130.247 106.189 129.693 106.159 129.155 106.135L128.887 106.124C128.695 106.117 128.516 106.11 128.352 106.105L127.991 106.095L127.974 106.095C124.117 106.153 120.472 106.577 117.139 107.248C115.935 107.49 114.853 107.749 113.904 108.009L113.677 108.073C113.494 108.124 113.323 108.174 113.166 108.221L113.008 108.268L112.999 108.235C112.196 105.485 109.876 100.465 108.909 99.4666L108.887 99.4451C108.795 99.3627 108.673 99.3211 108.549 99.3313L107.191 99.4426L107.19 99.3936C107.181 98.6384 107.231 97.6956 107.377 96.6285C107.626 94.797 108.114 92.9911 108.892 91.3062C111.09 86.5526 115.215 83.4896 121.803 82.8907L122.002 82.8734C122.728 82.8159 123.519 82.7928 124.465 82.8375Z" fill="#971356"/>
<path fill-rule="evenodd" clip-rule="evenodd" d="M108.553 99.3459L105.223 99.6009C104.96 99.621 104.773 99.8603 104.812 100.117L104.826 100.187L105.195 101.899L105.327 102.504C105.661 104.038 106 105.571 106.328 107.029L106.524 107.893L106.764 108.941C107.347 111.476 107.811 113.36 108.116 114.398L108.156 114.535C109.216 118.063 110.138 119.346 113.83 121.986C115.942 123.503 119.148 124.526 122.242 124.621C125.779 124.73 128.843 123.657 130.786 121.355C132.019 119.895 132.99 117.963 133.736 115.676C134.337 113.832 134.758 111.861 135.033 109.891C135.129 109.202 135.2 108.562 135.249 107.987L135.267 107.769C135.271 107.723 135.274 107.678 135.277 107.635L135.293 107.41L135.301 107.255C135.311 107.049 135.178 106.862 134.98 106.803C134.094 106.539 132.632 106.354 130.8 106.227C130.248 106.189 129.694 106.159 129.155 106.135L128.887 106.124C128.696 106.116 128.517 106.11 128.353 106.105L127.992 106.095L127.975 106.095C124.118 106.152 120.473 106.577 117.14 107.248C115.936 107.49 114.853 107.749 113.905 108.009L113.678 108.072C113.495 108.124 113.324 108.173 113.166 108.22L113.009 108.268L112.999 108.234C112.194 105.478 109.874 100.461 108.908 99.4789C108.815 99.3844 108.685 99.3357 108.553 99.3459ZM108.397 100.26L108.412 100.28C109.404 101.557 111.688 106.616 112.26 108.947C112.321 109.195 112.575 109.341 112.818 109.273L113.04 109.201L113.138 109.17C113.385 109.093 113.677 109.007 114.012 108.913L114.277 108.841C115.174 108.598 116.191 108.357 117.318 108.13L117.542 108.085C120.688 107.465 124.113 107.069 127.73 106.999L127.978 106.995L128.245 107.002C128.428 107.007 128.631 107.014 128.852 107.023C129.465 107.048 130.104 107.081 130.738 107.125L131.067 107.149C132.408 107.25 133.525 107.385 134.296 107.556L134.379 107.575L134.365 107.767C134.361 107.813 134.357 107.861 134.353 107.909C134.305 108.469 134.236 109.094 134.142 109.767C133.874 111.688 133.463 113.609 132.88 115.397C132.168 117.583 131.247 119.414 130.098 120.774C128.353 122.843 125.554 123.823 122.27 123.722C119.389 123.633 116.399 122.69 114.435 121.311L114.355 121.254C110.894 118.78 110.054 117.658 109.078 114.473L108.992 114.187C108.677 113.123 108.173 111.063 107.534 108.272L107.357 107.496L107.206 106.831C106.954 105.712 106.696 104.547 106.438 103.372L106.044 101.563L105.805 100.459L108.397 100.26Z" fill="#971356"/>
<path fill-rule="evenodd" clip-rule="evenodd" d="M105.302 101.4C105.302 101.4 103.322 97.5447 102.287 93.1947C101.297 89.0997 103.202 84.8097 106.997 82.9647C110.177 81.4347 112.532 82.6347 112.532 82.6347C112.532 82.6347 109.157 76.9047 114.212 71.8347C115.997 70.0497 118.457 69.0597 120.977 69.1347C127.142 69.3147 129.062 74.5347 129.062 74.5347C129.062 74.5347 135.662 62.3997 149.207 69.5847C150.572 70.3047 152.117 72.3297 152.852 73.6947C157.322 81.9447 142.577 91.7097 134.912 92.4747C126.482 93.3297 121.547 91.9197 118.832 89.8647C120.842 91.0797 117.842 103.335 105.302 101.4Z" fill="#971356"/>
<path fill-rule="evenodd" clip-rule="evenodd" d="M122.336 112.267C122.653 112.216 122.953 112.423 123.019 112.734L123.029 112.789C123.038 112.834 123.057 112.909 123.086 113.004C123.147 113.201 123.23 113.398 123.338 113.578C123.68 114.148 124.162 114.413 124.923 114.279C125.249 114.221 125.56 114.439 125.618 114.765C125.676 115.091 125.458 115.403 125.132 115.461C123.841 115.689 122.89 115.164 122.309 114.195C122.147 113.925 122.027 113.641 121.939 113.357C121.886 113.185 121.855 113.046 121.84 112.956C121.787 112.629 122.009 112.321 122.336 112.267Z" fill="#971356"/>
<path fill-rule="evenodd" clip-rule="evenodd" d="M128.56 102.454C128.879 102.417 129.168 102.639 129.219 102.952L129.224 102.982L130.124 110.917C130.17 111.326 129.802 111.656 129.405 111.572L129.377 111.566L126.587 110.846C126.267 110.763 126.074 110.436 126.156 110.115C126.237 109.804 126.546 109.613 126.857 109.677L126.887 109.684L128.833 110.186L128.031 103.117C127.995 102.798 128.216 102.509 128.53 102.458L128.56 102.454Z" fill="#971356"/>
<path fill-rule="evenodd" clip-rule="evenodd" d="M131.703 104.445C132.15 104.445 132.513 103.881 132.513 103.185C132.513 102.489 132.15 101.925 131.703 101.925C131.255 101.925 130.893 102.489 130.893 103.185C130.893 103.881 131.255 104.445 131.703 104.445Z" fill="#971356"/>
<path fill-rule="evenodd" clip-rule="evenodd" d="M123.872 104.31C124.32 104.31 124.682 103.746 124.682 103.05C124.682 102.354 124.32 101.79 123.872 101.79C123.425 101.79 123.062 102.354 123.062 103.05C123.062 103.746 123.425 104.31 123.872 104.31Z" fill="#971356"/>
<path fill-rule="evenodd" clip-rule="evenodd" d="M120.585 96.0255C121.471 95.3766 122.555 95.0538 123.811 95.2413C124.138 95.2902 124.364 95.5956 124.315 95.9233C124.266 96.251 123.961 96.477 123.633 96.4281C122.713 96.2907 121.94 96.521 121.295 96.9936C121.112 97.1269 120.956 97.2697 120.826 97.411L120.784 97.4565C120.741 97.5062 120.711 97.5437 120.695 97.565L120.689 97.5732C120.499 97.8449 120.125 97.9113 119.853 97.7216C119.582 97.5319 119.515 97.1579 119.705 96.8862L119.734 96.8468C119.781 96.783 119.851 96.6981 119.943 96.5983C120.123 96.402 120.337 96.2072 120.585 96.0255Z" fill="#971356"/>
<path fill-rule="evenodd" clip-rule="evenodd" d="M131.325 95.0628C131.806 94.9876 132.316 94.9852 132.812 95.1077C133.659 95.3172 134.303 95.8649 134.586 96.7826C134.684 97.0992 134.507 97.4351 134.19 97.5329C133.883 97.6277 133.558 97.4642 133.449 97.166L133.44 97.1368C133.288 96.6455 132.983 96.3862 132.524 96.2727C132.206 96.194 131.847 96.1958 131.511 96.2484L131.435 96.2612C131.406 96.2666 131.382 96.2714 131.365 96.2753L131.344 96.2804C131.023 96.3637 130.695 96.1713 130.612 95.8506C130.529 95.5299 130.721 95.2023 131.042 95.119L131.088 95.1078C131.147 95.0941 131.227 95.0782 131.325 95.0628Z" fill="#971356"/>
<path fill-rule="evenodd" clip-rule="evenodd" d="M222.213 186.63C222.461 186.63 222.663 186.831 222.663 187.08C222.663 187.319 222.475 187.515 222.239 187.529L222.213 187.53H32.4926C32.2441 187.53 32.0426 187.328 32.0426 187.08C32.0426 186.84 32.2299 186.644 32.4662 186.631L32.4926 186.63H222.213Z" fill="#971356"/>
</svg>
